<?xml version="1.0" encoding="UTF-8" standalone="no"?>
<!DOCTYPE svg PUBLIC "-//W3C//DTD SVG 1.1//EN"
 "http://www.w3.org/Graphics/SVG/1.1/DTD/svg11.dtd">
<!-- Generated by graphviz version 2.43.0 (0)
 -->
<!-- Title: /home/runner/work/cocos2d.h/cocos2d.h/cocos2dx/platform/winrt/CCApplication.h Pages: 1 -->
<svg width="894pt" height="269pt"
 viewBox="0.00 0.00 893.50 269.00" xmlns="http://www.w3.org/2000/svg" xmlns:xlink="http://www.w3.org/1999/xlink">
<g id="graph0" class="graph" transform="scale(1 1) rotate(0) translate(4 265)">
<title>/home/runner/work/cocos2d.h/cocos2d.h/cocos2dx/platform/winrt/CCApplication.h</title>
<!-- Node1 -->
<g id="node1" class="node">
<title>Node1</title>
<g id="a_node1"><a xlink:title=" ">
<polygon fill="#999999" stroke="#666666" points="591.5,-261 429.5,-261 429.5,-220 591.5,-220 591.5,-261"/>
<text text-anchor="start" x="437.5" y="-249" font-family="Helvetica,sans-Serif" font-size="10.00">/home/runner/work/cocos2d.h</text>
<text text-anchor="start" x="437.5" y="-238" font-family="Helvetica,sans-Serif" font-size="10.00">/cocos2d.h/cocos2dx/platform</text>
<text text-anchor="middle" x="510.5" y="-227" font-family="Helvetica,sans-Serif" font-size="10.00">/winrt/CCApplication.h</text>
</a>
</g>
</g>
<!-- Node2 -->
<g id="node2" class="node">
<title>Node2</title>
<g id="a_node2"><a xlink:href="../../df/d52/winrt_2_c_c_std_c_8h.html" target="_top" xlink:title=" ">
<polygon fill="white" stroke="#666666" points="472.5,-184 410.5,-184 410.5,-165 472.5,-165 472.5,-184"/>
<text text-anchor="middle" x="441.5" y="-172" font-family="Helvetica,sans-Serif" font-size="10.00">CCStdC.h</text>
</a>
</g>
</g>
<!-- Node1&#45;&gt;Node2 -->
<g id="edge1" class="edge">
<title>Node1&#45;&gt;Node2</title>
<path fill="none" stroke="#63b8ff" d="M489.42,-219.95C479.49,-210.74 467.8,-199.9 458.45,-191.23"/>
<polygon fill="#63b8ff" stroke="#63b8ff" points="460.66,-188.49 450.94,-184.26 455.9,-193.63 460.66,-188.49"/>
</g>
<!-- Node18 -->
<g id="node18" class="node">
<title>Node18</title>
<g id="a_node18"><a xlink:href="../../d5/d22/_c_c_common_8h.html" target="_top" xlink:title=" ">
<polygon fill="white" stroke="#666666" points="283.5,-184 155.5,-184 155.5,-165 283.5,-165 283.5,-184"/>
<text text-anchor="middle" x="219.5" y="-172" font-family="Helvetica,sans-Serif" font-size="10.00">platform/CCCommon.h</text>
</a>
</g>
</g>
<!-- Node1&#45;&gt;Node18 -->
<g id="edge18" class="edge">
<title>Node1&#45;&gt;Node18</title>
<path fill="none" stroke="#63b8ff" d="M429.44,-221.67C377.64,-210.28 312.19,-195.89 268.25,-186.22"/>
<polygon fill="#63b8ff" stroke="#63b8ff" points="268.91,-182.78 258.4,-184.05 267.41,-189.62 268.91,-182.78"/>
</g>
<!-- Node19 -->
<g id="node19" class="node">
<title>Node19</title>
<g id="a_node19"><a xlink:href="../../dd/df0/_c_c_application_protocol_8h.html" target="_top" xlink:title=" ">
<polygon fill="white" stroke="#666666" points="670,-184 491,-184 491,-165 670,-165 670,-184"/>
<text text-anchor="middle" x="580.5" y="-172" font-family="Helvetica,sans-Serif" font-size="10.00">platform/CCApplicationProtocol.h</text>
</a>
</g>
</g>
<!-- Node1&#45;&gt;Node19 -->
<g id="edge20" class="edge">
<title>Node1&#45;&gt;Node19</title>
<path fill="none" stroke="#63b8ff" d="M531.88,-219.95C541.96,-210.74 553.82,-199.9 563.3,-191.23"/>
<polygon fill="#63b8ff" stroke="#63b8ff" points="565.9,-193.59 570.92,-184.26 561.18,-188.43 565.9,-193.59"/>
</g>
<!-- Node20 -->
<g id="node20" class="node">
<title>Node20</title>
<g id="a_node20"><a xlink:title=" ">
<polygon fill="#e0e0e0" stroke="#999999" points="732.5,-184 688.5,-184 688.5,-165 732.5,-165 732.5,-184"/>
<text text-anchor="middle" x="710.5" y="-172" font-family="Helvetica,sans-Serif" font-size="10.00">string</text>
</a>
</g>
</g>
<!-- Node1&#45;&gt;Node20 -->
<g id="edge21" class="edge">
<title>Node1&#45;&gt;Node20</title>
<path fill="none" stroke="#63b8ff" d="M571.59,-219.95C606.79,-208.69 649.6,-194.99 678.31,-185.8"/>
<polygon fill="#63b8ff" stroke="#63b8ff" points="679.75,-189.01 688.21,-182.63 677.62,-182.35 679.75,-189.01"/>
</g>
<!-- Node3 -->
<g id="node3" class="node">
<title>Node3</title>
<g id="a_node3"><a xlink:href="../../d3/d41/_c_c_platform_macros_8h.html" target="_top" xlink:title=" ">
<polygon fill="white" stroke="#666666" points="190,-129 29,-129 29,-110 190,-110 190,-129"/>
<text text-anchor="middle" x="109.5" y="-117" font-family="Helvetica,sans-Serif" font-size="10.00">platform/CCPlatformMacros.h</text>
</a>
</g>
</g>
<!-- Node2&#45;&gt;Node3 -->
<g id="edge2" class="edge">
<title>Node2&#45;&gt;Node3</title>
<path fill="none" stroke="#63b8ff" d="M410.27,-168.51C356.19,-159.88 244.1,-141.99 173.08,-130.65"/>
<polygon fill="#63b8ff" stroke="#63b8ff" points="173.34,-127.15 162.91,-129.03 172.23,-134.06 173.34,-127.15"/>
</g>
<!-- Node7 -->
<g id="node7" class="node">
<title>Node7</title>
<g id="a_node7"><a xlink:title=" ">
<polygon fill="#e0e0e0" stroke="#999999" points="255,-129 208,-129 208,-110 255,-110 255,-129"/>
<text text-anchor="middle" x="231.5" y="-117" font-family="Helvetica,sans-Serif" font-size="10.00">float.h</text>
</a>
</g>
</g>
<!-- Node2&#45;&gt;Node7 -->
<g id="edge7" class="edge">
<title>Node2&#45;&gt;Node7</title>
<path fill="none" stroke="#63b8ff" d="M410.28,-165.84C376.65,-157.56 321.33,-143.84 265.03,-129.37"/>
<polygon fill="#63b8ff" stroke="#63b8ff" points="265.81,-125.96 255.26,-126.85 264.07,-132.74 265.81,-125.96"/>
</g>
<!-- Node8 -->
<g id="node8" class="node">
<title>Node8</title>
<g id="a_node8"><a xlink:title=" ">
<polygon fill="#e0e0e0" stroke="#999999" points="324,-129 273,-129 273,-110 324,-110 324,-129"/>
<text text-anchor="middle" x="298.5" y="-117" font-family="Helvetica,sans-Serif" font-size="10.00">math.h</text>
</a>
</g>
</g>
<!-- Node2&#45;&gt;Node8 -->
<g id="edge8" class="edge">
<title>Node2&#45;&gt;Node8</title>
<path fill="none" stroke="#63b8ff" d="M418.52,-164.98C395,-156.27 358.21,-142.63 331.56,-132.75"/>
<polygon fill="#63b8ff" stroke="#63b8ff" points="332.49,-129.36 321.89,-129.17 330.05,-135.93 332.49,-129.36"/>
</g>
<!-- Node9 -->
<g id="node9" class="node">
<title>Node9</title>
<g id="a_node9"><a xlink:title=" ">
<polygon fill="#e0e0e0" stroke="#999999" points="395,-129 342,-129 342,-110 395,-110 395,-129"/>
<text text-anchor="middle" x="368.5" y="-117" font-family="Helvetica,sans-Serif" font-size="10.00">string.h</text>
</a>
</g>
</g>
<!-- Node2&#45;&gt;Node9 -->
<g id="edge9" class="edge">
<title>Node2&#45;&gt;Node9</title>
<path fill="none" stroke="#63b8ff" d="M429.77,-164.98C418.77,-157 402.08,-144.88 388.9,-135.31"/>
<polygon fill="#63b8ff" stroke="#63b8ff" points="390.59,-132.21 380.44,-129.17 386.48,-137.88 390.59,-132.21"/>
</g>
<!-- Node10 -->
<g id="node10" class="node">
<title>Node10</title>
<g id="a_node10"><a xlink:title=" ">
<polygon fill="#e0e0e0" stroke="#999999" points="469.5,-129 413.5,-129 413.5,-110 469.5,-110 469.5,-129"/>
<text text-anchor="middle" x="441.5" y="-117" font-family="Helvetica,sans-Serif" font-size="10.00">stdarg.h</text>
</a>
</g>
</g>
<!-- Node2&#45;&gt;Node10 -->
<g id="edge10" class="edge">
<title>Node2&#45;&gt;Node10</title>
<path fill="none" stroke="#63b8ff" d="M441.5,-164.75C441.5,-157.8 441.5,-147.85 441.5,-139.13"/>
<polygon fill="#63b8ff" stroke="#63b8ff" points="445,-139.09 441.5,-129.09 438,-139.09 445,-139.09"/>
</g>
<!-- Node11 -->
<g id="node11" class="node">
<title>Node11</title>
<g id="a_node11"><a xlink:title=" ">
<polygon fill="#e0e0e0" stroke="#999999" points="537.5,-129 487.5,-129 487.5,-110 537.5,-110 537.5,-129"/>
<text text-anchor="middle" x="512.5" y="-117" font-family="Helvetica,sans-Serif" font-size="10.00">stdio.h</text>
</a>
</g>
</g>
<!-- Node2&#45;&gt;Node11 -->
<g id="edge11" class="edge">
<title>Node2&#45;&gt;Node11</title>
<path fill="none" stroke="#63b8ff" d="M452.91,-164.98C463.61,-157 479.84,-144.88 492.66,-135.31"/>
<polygon fill="#63b8ff" stroke="#63b8ff" points="494.97,-137.96 500.89,-129.17 490.78,-132.35 494.97,-137.96"/>
</g>
<!-- Node12 -->
<g id="node12" class="node">
<title>Node12</title>
<g id="a_node12"><a xlink:title=" ">
<polygon fill="#e0e0e0" stroke="#999999" points="609,-129 556,-129 556,-110 609,-110 609,-129"/>
<text text-anchor="middle" x="582.5" y="-117" font-family="Helvetica,sans-Serif" font-size="10.00">stdlib.h</text>
</a>
</g>
</g>
<!-- Node2&#45;&gt;Node12 -->
<g id="edge12" class="edge">
<title>Node2&#45;&gt;Node12</title>
<path fill="none" stroke="#63b8ff" d="M464.15,-164.98C487.35,-156.27 523.62,-142.63 549.9,-132.75"/>
<polygon fill="#63b8ff" stroke="#63b8ff" points="551.3,-135.97 559.43,-129.17 548.84,-129.41 551.3,-135.97"/>
</g>
<!-- Node13 -->
<g id="node13" class="node">
<title>Node13</title>
<g id="a_node13"><a xlink:title=" ">
<polygon fill="#e0e0e0" stroke="#999999" points="675.5,-129 627.5,-129 627.5,-110 675.5,-110 675.5,-129"/>
<text text-anchor="middle" x="651.5" y="-117" font-family="Helvetica,sans-Serif" font-size="10.00">time.h</text>
</a>
</g>
</g>
<!-- Node2&#45;&gt;Node13 -->
<g id="edge13" class="edge">
<title>Node2&#45;&gt;Node13</title>
<path fill="none" stroke="#63b8ff" d="M472.94,-165.57C511.78,-155.76 577.61,-139.15 617.56,-129.07"/>
<polygon fill="#63b8ff" stroke="#63b8ff" points="618.53,-132.43 627.37,-126.59 616.82,-125.64 618.53,-132.43"/>
</g>
<!-- Node14 -->
<g id="node14" class="node">
<title>Node14</title>
<g id="a_node14"><a xlink:href="../../db/de0/winrt_2compat_2stdint_8h.html" target="_top" xlink:title=" ">
<polygon fill="white" stroke="#666666" points="793,-129 694,-129 694,-110 793,-110 793,-129"/>
<text text-anchor="middle" x="743.5" y="-117" font-family="Helvetica,sans-Serif" font-size="10.00">./compat/stdint.h</text>
</a>
</g>
</g>
<!-- Node2&#45;&gt;Node14 -->
<g id="edge14" class="edge">
<title>Node2&#45;&gt;Node14</title>
<path fill="none" stroke="#63b8ff" d="M472.92,-166.7C475.82,-166.11 478.71,-165.53 481.5,-165 550.68,-151.78 630.52,-138.5 683.71,-129.94"/>
<polygon fill="#63b8ff" stroke="#63b8ff" points="684.33,-133.38 693.65,-128.34 683.22,-126.47 684.33,-133.38"/>
</g>
<!-- Node17 -->
<g id="node17" class="node">
<title>Node17</title>
<g id="a_node17"><a xlink:title=" ">
<polygon fill="#e0e0e0" stroke="#999999" points="885.5,-129 811.5,-129 811.5,-110 885.5,-110 885.5,-129"/>
<text text-anchor="middle" x="848.5" y="-117" font-family="Helvetica,sans-Serif" font-size="10.00">WinSock2.h</text>
</a>
</g>
</g>
<!-- Node2&#45;&gt;Node17 -->
<g id="edge17" class="edge">
<title>Node2&#45;&gt;Node17</title>
<path fill="none" stroke="#63b8ff" d="M472.89,-166.53C475.79,-165.97 478.7,-165.45 481.5,-165 620.03,-142.57 658.76,-149.71 801.38,-129.06"/>
<polygon fill="#63b8ff" stroke="#63b8ff" points="802,-132.51 811.38,-127.59 800.98,-125.58 802,-132.51"/>
</g>
<!-- Node4 -->
<g id="node4" class="node">
<title>Node4</title>
<g id="a_node4"><a xlink:href="../../db/d9f/cc_config_8h.html" target="_top" xlink:title="cocos2d (cc) configuration file">
<polygon fill="white" stroke="#666666" points="81,-74 14,-74 14,-55 81,-55 81,-74"/>
<text text-anchor="middle" x="47.5" y="-62" font-family="Helvetica,sans-Serif" font-size="10.00">ccConfig.h</text>
</a>
</g>
</g>
<!-- Node3&#45;&gt;Node4 -->
<g id="edge3" class="edge">
<title>Node3&#45;&gt;Node4</title>
<path fill="none" stroke="#63b8ff" d="M99.54,-109.98C90.37,-102.15 76.56,-90.34 65.47,-80.86"/>
<polygon fill="#63b8ff" stroke="#63b8ff" points="67.52,-78.01 57.64,-74.17 62.97,-83.33 67.52,-78.01"/>
</g>
<!-- Node5 -->
<g id="node5" class="node">
<title>Node5</title>
<g id="a_node5"><a xlink:href="../../dd/d96/_c_c_platform_config_8h.html" target="_top" xlink:title=" ">
<polygon fill="white" stroke="#666666" points="157,-19 0,-19 0,0 157,0 157,-19"/>
<text text-anchor="middle" x="78.5" y="-7" font-family="Helvetica,sans-Serif" font-size="10.00">platform/CCPlatformConfig.h</text>
</a>
</g>
</g>
<!-- Node3&#45;&gt;Node5 -->
<g id="edge5" class="edge">
<title>Node3&#45;&gt;Node5</title>
<path fill="none" stroke="#63b8ff" d="M106.96,-109.66C101.92,-92.09 90.54,-52.45 83.8,-28.95"/>
<polygon fill="#63b8ff" stroke="#63b8ff" points="87.11,-27.8 80.99,-19.16 80.38,-29.74 87.11,-27.8"/>
</g>
<!-- Node6 -->
<g id="node6" class="node">
<title>Node6</title>
<g id="a_node6"><a xlink:title=" ">
<polygon fill="#e0e0e0" stroke="#999999" points="251,-74 138,-74 138,-55 251,-55 251,-74"/>
<text text-anchor="middle" x="194.5" y="-62" font-family="Helvetica,sans-Serif" font-size="10.00">CCPlatformDefine.h</text>
</a>
</g>
</g>
<!-- Node3&#45;&gt;Node6 -->
<g id="edge6" class="edge">
<title>Node3&#45;&gt;Node6</title>
<path fill="none" stroke="#63b8ff" d="M123.16,-109.98C136.34,-101.77 156.53,-89.18 172.07,-79.49"/>
<polygon fill="#63b8ff" stroke="#63b8ff" points="173.96,-82.43 180.59,-74.17 170.26,-76.49 173.96,-82.43"/>
</g>
<!-- Node4&#45;&gt;Node5 -->
<g id="edge4" class="edge">
<title>Node4&#45;&gt;Node5</title>
<path fill="none" stroke="#63b8ff" d="M52.62,-54.75C56.86,-47.49 63.03,-36.95 68.28,-27.98"/>
<polygon fill="#63b8ff" stroke="#63b8ff" points="71.45,-29.49 73.48,-19.09 65.41,-25.95 71.45,-29.49"/>
</g>
<!-- Node15 -->
<g id="node15" class="node">
<title>Node15</title>
<g id="a_node15"><a xlink:title=" ">
<polygon fill="#e0e0e0" stroke="#999999" points="734,-74 681,-74 681,-55 734,-55 734,-74"/>
<text text-anchor="middle" x="707.5" y="-62" font-family="Helvetica,sans-Serif" font-size="10.00">limits.h</text>
</a>
</g>
</g>
<!-- Node14&#45;&gt;Node15 -->
<g id="edge15" class="edge">
<title>Node14&#45;&gt;Node15</title>
<path fill="none" stroke="#63b8ff" d="M737.56,-109.75C732.52,-102.34 725.16,-91.5 718.99,-82.41"/>
<polygon fill="#63b8ff" stroke="#63b8ff" points="721.85,-80.39 713.33,-74.09 716.06,-84.33 721.85,-80.39"/>
</g>
<!-- Node16 -->
<g id="node16" class="node">
<title>Node16</title>
<g id="a_node16"><a xlink:title=" ">
<polygon fill="#e0e0e0" stroke="#999999" points="806.5,-74 752.5,-74 752.5,-55 806.5,-55 806.5,-74"/>
<text text-anchor="middle" x="779.5" y="-62" font-family="Helvetica,sans-Serif" font-size="10.00">wchar.h</text>
</a>
</g>
</g>
<!-- Node14&#45;&gt;Node16 -->
<g id="edge16" class="edge">
<title>Node14&#45;&gt;Node16</title>
<path fill="none" stroke="#63b8ff" d="M749.44,-109.75C754.48,-102.34 761.84,-91.5 768.01,-82.41"/>
<polygon fill="#63b8ff" stroke="#63b8ff" points="770.94,-84.33 773.67,-74.09 765.15,-80.39 770.94,-84.33"/>
</g>
<!-- Node18&#45;&gt;Node3 -->
<g id="edge19" class="edge">
<title>Node18&#45;&gt;Node3</title>
<path fill="none" stroke="#63b8ff" d="M201.83,-164.98C184.21,-156.5 156.92,-143.35 136.57,-133.54"/>
<polygon fill="#63b8ff" stroke="#63b8ff" points="138.02,-130.36 127.49,-129.17 134.98,-136.66 138.02,-130.36"/>
</g>
</g>
</svg>
