<?xml version="1.0" encoding="UTF-8" standalone="no"?>
<!DOCTYPE svg PUBLIC "-//W3C//DTD SVG 1.1//EN"
 "http://www.w3.org/Graphics/SVG/1.1/DTD/svg11.dtd">
<!-- Generated by graphviz version 2.43.0 (0)
 -->
<!-- Title: /home/runner/work/cocos2d.h/cocos2d.h/cocos2dx/support/tinyxml2/tinyxml2.h Pages: 1 -->
<svg width="662pt" height="218pt"
 viewBox="0.00 0.00 661.50 218.00" xmlns="http://www.w3.org/2000/svg" xmlns:xlink="http://www.w3.org/1999/xlink">
<g id="graph0" class="graph" transform="scale(1 1) rotate(0) translate(4 214)">
<title>/home/runner/work/cocos2d.h/cocos2d.h/cocos2dx/support/tinyxml2/tinyxml2.h</title>
<!-- Node1 -->
<g id="node1" class="node">
<title>Node1</title>
<g id="a_node1"><a xlink:title=" ">
<polygon fill="#bfbfbf" stroke="black" points="296,-168.5 296,-209.5 457,-209.5 457,-168.5 296,-168.5"/>
<text text-anchor="start" x="304" y="-197.5" font-family="Helvetica,sans-Serif" font-size="10.00">/home/runner/work/cocos2d.h</text>
<text text-anchor="start" x="304" y="-186.5" font-family="Helvetica,sans-Serif" font-size="10.00">/cocos2d.h/cocos2dx/support</text>
<text text-anchor="middle" x="376.5" y="-175.5" font-family="Helvetica,sans-Serif" font-size="10.00">/tinyxml2/tinyxml2.h</text>
</a>
</g>
</g>
<!-- Node2 -->
<g id="node2" class="node">
<title>Node2</title>
<g id="a_node2"><a xlink:href="../../dd/d96/_c_c_platform_config_8h.html" target="_top" xlink:title=" ">
<polygon fill="none" stroke="black" points="0,-0.5 0,-19.5 157,-19.5 157,-0.5 0,-0.5"/>
<text text-anchor="middle" x="78.5" y="-7.5" font-family="Helvetica,sans-Serif" font-size="10.00">platform/CCPlatformConfig.h</text>
</a>
</g>
</g>
<!-- Node1&#45;&gt;Node2 -->
<g id="edge1" class="edge">
<title>Node1&#45;&gt;Node2</title>
<path fill="none" stroke="midnightblue" d="M295.81,-185.39C210.96,-180.74 85.62,-167.83 55.5,-132 30.61,-102.39 52.38,-54.21 67.29,-28.49"/>
<polygon fill="midnightblue" stroke="midnightblue" points="70.36,-30.18 72.56,-19.82 64.38,-26.55 70.36,-30.18"/>
</g>
<!-- Node3 -->
<g id="node3" class="node">
<title>Node3</title>
<g id="a_node3"><a xlink:href="../../d3/d41/_c_c_platform_macros_8h.html" target="_top" xlink:title=" ">
<polygon fill="none" stroke="black" points="65,-112.5 65,-131.5 226,-131.5 226,-112.5 65,-112.5"/>
<text text-anchor="middle" x="145.5" y="-119.5" font-family="Helvetica,sans-Serif" font-size="10.00">platform/CCPlatformMacros.h</text>
</a>
</g>
</g>
<!-- Node1&#45;&gt;Node3 -->
<g id="edge2" class="edge">
<title>Node1&#45;&gt;Node3</title>
<path fill="none" stroke="midnightblue" d="M307.19,-168.5C267.57,-157.35 219.26,-143.76 185.82,-134.35"/>
<polygon fill="midnightblue" stroke="midnightblue" points="186.52,-130.91 175.95,-131.57 184.62,-137.64 186.52,-130.91"/>
</g>
<!-- Node6 -->
<g id="node6" class="node">
<title>Node6</title>
<g id="a_node6"><a xlink:title=" ">
<polygon fill="none" stroke="#bfbfbf" points="244,-112.5 244,-131.5 297,-131.5 297,-112.5 244,-112.5"/>
<text text-anchor="middle" x="270.5" y="-119.5" font-family="Helvetica,sans-Serif" font-size="10.00">ctype.h</text>
</a>
</g>
</g>
<!-- Node1&#45;&gt;Node6 -->
<g id="edge7" class="edge">
<title>Node1&#45;&gt;Node6</title>
<path fill="none" stroke="midnightblue" d="M344.7,-168.5C328.13,-158.34 308.26,-146.16 293.25,-136.95"/>
<polygon fill="midnightblue" stroke="midnightblue" points="294.96,-133.9 284.61,-131.65 291.31,-139.86 294.96,-133.9"/>
</g>
<!-- Node7 -->
<g id="node7" class="node">
<title>Node7</title>
<g id="a_node7"><a xlink:title=" ">
<polygon fill="none" stroke="#bfbfbf" points="315,-112.5 315,-131.5 368,-131.5 368,-112.5 315,-112.5"/>
<text text-anchor="middle" x="341.5" y="-119.5" font-family="Helvetica,sans-Serif" font-size="10.00">limits.h</text>
</a>
</g>
</g>
<!-- Node1&#45;&gt;Node7 -->
<g id="edge8" class="edge">
<title>Node1&#45;&gt;Node7</title>
<path fill="none" stroke="midnightblue" d="M366,-168.5C361.2,-159.59 355.56,-149.11 350.9,-140.46"/>
<polygon fill="midnightblue" stroke="midnightblue" points="353.98,-138.8 346.16,-131.65 347.82,-142.12 353.98,-138.8"/>
</g>
<!-- Node8 -->
<g id="node8" class="node">
<title>Node8</title>
<g id="a_node8"><a xlink:title=" ">
<polygon fill="none" stroke="#bfbfbf" points="386.5,-112.5 386.5,-131.5 436.5,-131.5 436.5,-112.5 386.5,-112.5"/>
<text text-anchor="middle" x="411.5" y="-119.5" font-family="Helvetica,sans-Serif" font-size="10.00">stdio.h</text>
</a>
</g>
</g>
<!-- Node1&#45;&gt;Node8 -->
<g id="edge9" class="edge">
<title>Node1&#45;&gt;Node8</title>
<path fill="none" stroke="midnightblue" d="M387,-168.5C391.8,-159.59 397.44,-149.11 402.1,-140.46"/>
<polygon fill="midnightblue" stroke="midnightblue" points="405.18,-142.12 406.84,-131.65 399.02,-138.8 405.18,-142.12"/>
</g>
<!-- Node9 -->
<g id="node9" class="node">
<title>Node9</title>
<g id="a_node9"><a xlink:title=" ">
<polygon fill="none" stroke="#bfbfbf" points="455,-112.5 455,-131.5 508,-131.5 508,-112.5 455,-112.5"/>
<text text-anchor="middle" x="481.5" y="-119.5" font-family="Helvetica,sans-Serif" font-size="10.00">stdlib.h</text>
</a>
</g>
</g>
<!-- Node1&#45;&gt;Node9 -->
<g id="edge10" class="edge">
<title>Node1&#45;&gt;Node9</title>
<path fill="none" stroke="midnightblue" d="M408,-168.5C424.41,-158.34 444.1,-146.16 458.96,-136.95"/>
<polygon fill="midnightblue" stroke="midnightblue" points="460.86,-139.89 467.52,-131.65 457.18,-133.94 460.86,-139.89"/>
</g>
<!-- Node10 -->
<g id="node10" class="node">
<title>Node10</title>
<g id="a_node10"><a xlink:title=" ">
<polygon fill="none" stroke="#bfbfbf" points="526,-112.5 526,-131.5 579,-131.5 579,-112.5 526,-112.5"/>
<text text-anchor="middle" x="552.5" y="-119.5" font-family="Helvetica,sans-Serif" font-size="10.00">string.h</text>
</a>
</g>
</g>
<!-- Node1&#45;&gt;Node10 -->
<g id="edge11" class="edge">
<title>Node1&#45;&gt;Node10</title>
<path fill="none" stroke="midnightblue" d="M429.31,-168.5C458.63,-157.67 494.18,-144.54 519.55,-135.17"/>
<polygon fill="midnightblue" stroke="midnightblue" points="520.9,-138.4 529.07,-131.65 518.48,-131.83 520.9,-138.4"/>
</g>
<!-- Node11 -->
<g id="node11" class="node">
<title>Node11</title>
<g id="a_node11"><a xlink:title=" ">
<polygon fill="none" stroke="#bfbfbf" points="597.5,-112.5 597.5,-131.5 653.5,-131.5 653.5,-112.5 597.5,-112.5"/>
<text text-anchor="middle" x="625.5" y="-119.5" font-family="Helvetica,sans-Serif" font-size="10.00">stdarg.h</text>
</a>
</g>
</g>
<!-- Node1&#45;&gt;Node11 -->
<g id="edge12" class="edge">
<title>Node1&#45;&gt;Node11</title>
<path fill="none" stroke="midnightblue" d="M451.21,-168.5C496.06,-156.79 551.23,-142.39 587.33,-132.96"/>
<polygon fill="midnightblue" stroke="midnightblue" points="588.64,-136.24 597.44,-130.33 586.88,-129.47 588.64,-136.24"/>
</g>
<!-- Node3&#45;&gt;Node2 -->
<g id="edge5" class="edge">
<title>Node3&#45;&gt;Node2</title>
<path fill="none" stroke="midnightblue" d="M133.1,-112.4C122.21,-104.23 106.71,-90.99 97.5,-76 88.75,-61.76 83.86,-43.28 81.24,-29.67"/>
<polygon fill="midnightblue" stroke="midnightblue" points="84.65,-28.86 79.54,-19.58 77.75,-30.03 84.65,-28.86"/>
</g>
<!-- Node4 -->
<g id="node4" class="node">
<title>Node4</title>
<g id="a_node4"><a xlink:href="../../db/d9f/cc_config_8h.html" target="_top" xlink:title="cocos2d (cc) configuration file">
<polygon fill="none" stroke="black" points="107,-56.5 107,-75.5 174,-75.5 174,-56.5 107,-56.5"/>
<text text-anchor="middle" x="140.5" y="-63.5" font-family="Helvetica,sans-Serif" font-size="10.00">ccConfig.h</text>
</a>
</g>
</g>
<!-- Node3&#45;&gt;Node4 -->
<g id="edge3" class="edge">
<title>Node3&#45;&gt;Node4</title>
<path fill="none" stroke="midnightblue" d="M144.67,-112.08C144.02,-105.01 143.08,-94.86 142.26,-85.99"/>
<polygon fill="midnightblue" stroke="midnightblue" points="145.72,-85.39 141.31,-75.75 138.75,-86.03 145.72,-85.39"/>
</g>
<!-- Node5 -->
<g id="node5" class="node">
<title>Node5</title>
<g id="a_node5"><a xlink:title=" ">
<polygon fill="none" stroke="#bfbfbf" points="192,-56.5 192,-75.5 305,-75.5 305,-56.5 192,-56.5"/>
<text text-anchor="middle" x="248.5" y="-63.5" font-family="Helvetica,sans-Serif" font-size="10.00">CCPlatformDefine.h</text>
</a>
</g>
</g>
<!-- Node3&#45;&gt;Node5 -->
<g id="edge6" class="edge">
<title>Node3&#45;&gt;Node5</title>
<path fill="none" stroke="midnightblue" d="M162.05,-112.32C178.49,-103.7 203.93,-90.36 222.97,-80.39"/>
<polygon fill="midnightblue" stroke="midnightblue" points="224.76,-83.4 231.99,-75.65 221.51,-77.2 224.76,-83.4"/>
</g>
<!-- Node4&#45;&gt;Node2 -->
<g id="edge4" class="edge">
<title>Node4&#45;&gt;Node2</title>
<path fill="none" stroke="midnightblue" d="M130.54,-56.32C121.37,-48.34 107.56,-36.31 96.47,-26.65"/>
<polygon fill="midnightblue" stroke="midnightblue" points="98.48,-23.76 88.64,-19.83 93.88,-29.04 98.48,-23.76"/>
</g>
</g>
</svg>
