<?xml version="1.0" encoding="UTF-8" standalone="no"?>
<!DOCTYPE svg PUBLIC "-//W3C//DTD SVG 1.1//EN"
 "http://www.w3.org/Graphics/SVG/1.1/DTD/svg11.dtd">
<!-- Generated by graphviz version 2.43.0 (0)
 -->
<!-- Title: /home/runner/work/cocos2d.h/cocos2d.h/cocos2dx/support/tinyxml2/tinyxml2.h Pages: 1 -->
<svg width="662pt" height="214pt"
 viewBox="0.00 0.00 661.50 214.00" xmlns="http://www.w3.org/2000/svg" xmlns:xlink="http://www.w3.org/1999/xlink">
<g id="graph0" class="graph" transform="scale(1 1) rotate(0) translate(4 210)">
<title>/home/runner/work/cocos2d.h/cocos2d.h/cocos2dx/support/tinyxml2/tinyxml2.h</title>
<!-- Node1 -->
<g id="node1" class="node">
<title>Node1</title>
<g id="a_node1"><a xlink:title=" ">
<polygon fill="#999999" stroke="#666666" points="457,-206 296,-206 296,-165 457,-165 457,-206"/>
<text text-anchor="start" x="304" y="-194" font-family="Helvetica,sans-Serif" font-size="10.00">/home/runner/work/cocos2d.h</text>
<text text-anchor="start" x="304" y="-183" font-family="Helvetica,sans-Serif" font-size="10.00">/cocos2d.h/cocos2dx/support</text>
<text text-anchor="middle" x="376.5" y="-172" font-family="Helvetica,sans-Serif" font-size="10.00">/tinyxml2/tinyxml2.h</text>
</a>
</g>
</g>
<!-- Node2 -->
<g id="node2" class="node">
<title>Node2</title>
<g id="a_node2"><a xlink:href="../../dd/d96/_c_c_platform_config_8h.html" target="_top" xlink:title=" ">
<polygon fill="white" stroke="#666666" points="157,-19 0,-19 0,0 157,0 157,-19"/>
<text text-anchor="middle" x="78.5" y="-7" font-family="Helvetica,sans-Serif" font-size="10.00">platform/CCPlatformConfig.h</text>
</a>
</g>
</g>
<!-- Node1&#45;&gt;Node2 -->
<g id="edge1" class="edge">
<title>Node1&#45;&gt;Node2</title>
<path fill="none" stroke="#63b8ff" d="M295.82,-182.02C210.97,-177.51 85.64,-164.8 55.5,-129 31.19,-100.13 52.47,-53.23 67.22,-27.96"/>
<polygon fill="#63b8ff" stroke="#63b8ff" points="70.39,-29.49 72.63,-19.13 64.42,-25.83 70.39,-29.49"/>
</g>
<!-- Node3 -->
<g id="node3" class="node">
<title>Node3</title>
<g id="a_node3"><a xlink:href="../../d3/d41/_c_c_platform_macros_8h.html" target="_top" xlink:title=" ">
<polygon fill="white" stroke="#666666" points="226,-129 65,-129 65,-110 226,-110 226,-129"/>
<text text-anchor="middle" x="145.5" y="-117" font-family="Helvetica,sans-Serif" font-size="10.00">platform/CCPlatformMacros.h</text>
</a>
</g>
</g>
<!-- Node1&#45;&gt;Node3 -->
<g id="edge2" class="edge">
<title>Node1&#45;&gt;Node3</title>
<path fill="none" stroke="#63b8ff" d="M305.94,-164.95C266.62,-154.06 219.07,-140.88 185.99,-131.72"/>
<polygon fill="#63b8ff" stroke="#63b8ff" points="186.78,-128.31 176.21,-129.01 184.91,-135.05 186.78,-128.31"/>
</g>
<!-- Node6 -->
<g id="node6" class="node">
<title>Node6</title>
<g id="a_node6"><a xlink:title=" ">
<polygon fill="#e0e0e0" stroke="#999999" points="297,-129 244,-129 244,-110 297,-110 297,-129"/>
<text text-anchor="middle" x="270.5" y="-117" font-family="Helvetica,sans-Serif" font-size="10.00">ctype.h</text>
</a>
</g>
</g>
<!-- Node1&#45;&gt;Node6 -->
<g id="edge7" class="edge">
<title>Node1&#45;&gt;Node6</title>
<path fill="none" stroke="#63b8ff" d="M344.12,-164.95C327.84,-155.12 308.48,-143.43 293.7,-134.51"/>
<polygon fill="#63b8ff" stroke="#63b8ff" points="295.1,-131.26 284.73,-129.09 291.48,-137.26 295.1,-131.26"/>
</g>
<!-- Node7 -->
<g id="node7" class="node">
<title>Node7</title>
<g id="a_node7"><a xlink:title=" ">
<polygon fill="#e0e0e0" stroke="#999999" points="368,-129 315,-129 315,-110 368,-110 368,-129"/>
<text text-anchor="middle" x="341.5" y="-117" font-family="Helvetica,sans-Serif" font-size="10.00">limits.h</text>
</a>
</g>
</g>
<!-- Node1&#45;&gt;Node7 -->
<g id="edge8" class="edge">
<title>Node1&#45;&gt;Node7</title>
<path fill="none" stroke="#63b8ff" d="M365.81,-164.95C361.13,-156.39 355.68,-146.42 351.12,-138.1"/>
<polygon fill="#63b8ff" stroke="#63b8ff" points="354.16,-136.35 346.29,-129.26 348.02,-139.71 354.16,-136.35"/>
</g>
<!-- Node8 -->
<g id="node8" class="node">
<title>Node8</title>
<g id="a_node8"><a xlink:title=" ">
<polygon fill="#e0e0e0" stroke="#999999" points="436.5,-129 386.5,-129 386.5,-110 436.5,-110 436.5,-129"/>
<text text-anchor="middle" x="411.5" y="-117" font-family="Helvetica,sans-Serif" font-size="10.00">stdio.h</text>
</a>
</g>
</g>
<!-- Node1&#45;&gt;Node8 -->
<g id="edge9" class="edge">
<title>Node1&#45;&gt;Node8</title>
<path fill="none" stroke="#63b8ff" d="M387.19,-164.95C391.87,-156.39 397.32,-146.42 401.88,-138.1"/>
<polygon fill="#63b8ff" stroke="#63b8ff" points="404.98,-139.71 406.71,-129.26 398.84,-136.35 404.98,-139.71"/>
</g>
<!-- Node9 -->
<g id="node9" class="node">
<title>Node9</title>
<g id="a_node9"><a xlink:title=" ">
<polygon fill="#e0e0e0" stroke="#999999" points="508,-129 455,-129 455,-110 508,-110 508,-129"/>
<text text-anchor="middle" x="481.5" y="-117" font-family="Helvetica,sans-Serif" font-size="10.00">stdlib.h</text>
</a>
</g>
</g>
<!-- Node1&#45;&gt;Node9 -->
<g id="edge10" class="edge">
<title>Node1&#45;&gt;Node9</title>
<path fill="none" stroke="#63b8ff" d="M408.57,-164.95C424.7,-155.12 443.88,-143.43 458.52,-134.51"/>
<polygon fill="#63b8ff" stroke="#63b8ff" points="460.69,-137.29 467.4,-129.09 457.04,-131.31 460.69,-137.29"/>
</g>
<!-- Node10 -->
<g id="node10" class="node">
<title>Node10</title>
<g id="a_node10"><a xlink:title=" ">
<polygon fill="#e0e0e0" stroke="#999999" points="579,-129 526,-129 526,-110 579,-110 579,-129"/>
<text text-anchor="middle" x="552.5" y="-117" font-family="Helvetica,sans-Serif" font-size="10.00">string.h</text>
</a>
</g>
</g>
<!-- Node1&#45;&gt;Node10 -->
<g id="edge11" class="edge">
<title>Node1&#45;&gt;Node10</title>
<path fill="none" stroke="#63b8ff" d="M430.26,-164.95C459.36,-154.37 494.36,-141.64 519.45,-132.52"/>
<polygon fill="#63b8ff" stroke="#63b8ff" points="520.67,-135.8 528.87,-129.09 518.28,-129.22 520.67,-135.8"/>
</g>
<!-- Node11 -->
<g id="node11" class="node">
<title>Node11</title>
<g id="a_node11"><a xlink:title=" ">
<polygon fill="#e0e0e0" stroke="#999999" points="653.5,-129 597.5,-129 597.5,-110 653.5,-110 653.5,-129"/>
<text text-anchor="middle" x="625.5" y="-117" font-family="Helvetica,sans-Serif" font-size="10.00">stdarg.h</text>
</a>
</g>
</g>
<!-- Node1&#45;&gt;Node11 -->
<g id="edge12" class="edge">
<title>Node1&#45;&gt;Node11</title>
<path fill="none" stroke="#63b8ff" d="M452.56,-164.95C497.21,-153.47 551.71,-139.47 587.44,-130.28"/>
<polygon fill="#63b8ff" stroke="#63b8ff" points="588.63,-133.59 597.45,-127.71 586.89,-126.81 588.63,-133.59"/>
</g>
<!-- Node3&#45;&gt;Node2 -->
<g id="edge5" class="edge">
<title>Node3&#45;&gt;Node2</title>
<path fill="none" stroke="#63b8ff" d="M132.69,-109.69C121.84,-101.6 106.63,-88.66 97.5,-74 88.95,-60.26 84.06,-42.46 81.39,-29.2"/>
<polygon fill="#63b8ff" stroke="#63b8ff" points="84.83,-28.55 79.63,-19.32 77.93,-29.78 84.83,-28.55"/>
</g>
<!-- Node4 -->
<g id="node4" class="node">
<title>Node4</title>
<g id="a_node4"><a xlink:href="../../db/d9f/cc_config_8h.html" target="_top" xlink:title="cocos2d (cc) configuration file">
<polygon fill="white" stroke="#666666" points="174,-74 107,-74 107,-55 174,-55 174,-74"/>
<text text-anchor="middle" x="140.5" y="-62" font-family="Helvetica,sans-Serif" font-size="10.00">ccConfig.h</text>
</a>
</g>
</g>
<!-- Node3&#45;&gt;Node4 -->
<g id="edge3" class="edge">
<title>Node3&#45;&gt;Node4</title>
<path fill="none" stroke="#63b8ff" d="M144.67,-109.75C144.02,-102.8 143.08,-92.85 142.26,-84.13"/>
<polygon fill="#63b8ff" stroke="#63b8ff" points="145.73,-83.72 141.31,-74.09 138.77,-84.37 145.73,-83.72"/>
</g>
<!-- Node5 -->
<g id="node5" class="node">
<title>Node5</title>
<g id="a_node5"><a xlink:title=" ">
<polygon fill="#e0e0e0" stroke="#999999" points="305,-74 192,-74 192,-55 305,-55 305,-74"/>
<text text-anchor="middle" x="248.5" y="-62" font-family="Helvetica,sans-Serif" font-size="10.00">CCPlatformDefine.h</text>
</a>
</g>
</g>
<!-- Node3&#45;&gt;Node5 -->
<g id="edge6" class="edge">
<title>Node3&#45;&gt;Node5</title>
<path fill="none" stroke="#63b8ff" d="M162.05,-109.98C178.39,-101.57 203.63,-88.59 222.63,-78.81"/>
<polygon fill="#63b8ff" stroke="#63b8ff" points="224.36,-81.86 231.65,-74.17 221.16,-75.63 224.36,-81.86"/>
</g>
<!-- Node4&#45;&gt;Node2 -->
<g id="edge4" class="edge">
<title>Node4&#45;&gt;Node2</title>
<path fill="none" stroke="#63b8ff" d="M130.54,-54.98C121.37,-47.15 107.56,-35.34 96.47,-25.86"/>
<polygon fill="#63b8ff" stroke="#63b8ff" points="98.52,-23.01 88.64,-19.17 93.97,-28.33 98.52,-23.01"/>
</g>
</g>
</svg>
