<?xml version="1.0" encoding="UTF-8" standalone="no"?>
<!DOCTYPE svg PUBLIC "-//W3C//DTD SVG 1.1//EN"
 "http://www.w3.org/Graphics/SVG/1.1/DTD/svg11.dtd">
<!-- Generated by graphviz version 2.43.0 (0)
 -->
<!-- Title: /home/runner/work/cocos2d.h/cocos2d.h/cocos2dx/include/CCProtocols.h Pages: 1 -->
<svg width="584pt" height="554pt"
 viewBox="0.00 0.00 583.50 554.00" xmlns="http://www.w3.org/2000/svg" xmlns:xlink="http://www.w3.org/1999/xlink">
<g id="graph0" class="graph" transform="scale(1 1) rotate(0) translate(4 550)">
<title>/home/runner/work/cocos2d.h/cocos2d.h/cocos2dx/include/CCProtocols.h</title>
<!-- Node1 -->
<g id="node1" class="node">
<title>Node1</title>
<g id="a_node1"><a xlink:title=" ">
<polygon fill="#bfbfbf" stroke="black" points="0,-504.5 0,-545.5 161,-545.5 161,-504.5 0,-504.5"/>
<text text-anchor="start" x="8" y="-533.5" font-family="Helvetica,sans-Serif" font-size="10.00">/home/runner/work/cocos2d.h</text>
<text text-anchor="start" x="8" y="-522.5" font-family="Helvetica,sans-Serif" font-size="10.00">/cocos2d.h/cocos2dx/include</text>
<text text-anchor="middle" x="80.5" y="-511.5" font-family="Helvetica,sans-Serif" font-size="10.00">/CCProtocols.h</text>
</a>
</g>
</g>
<!-- Node2 -->
<g id="node2" class="node">
<title>Node2</title>
<g id="a_node2"><a xlink:href="../../df/de6/cc_types_8h.html" target="_top" xlink:title=" ">
<polygon fill="none" stroke="black" points="65.5,-392.5 65.5,-411.5 129.5,-411.5 129.5,-392.5 65.5,-392.5"/>
<text text-anchor="middle" x="97.5" y="-399.5" font-family="Helvetica,sans-Serif" font-size="10.00">ccTypes.h</text>
</a>
</g>
</g>
<!-- Node1&#45;&gt;Node2 -->
<g id="edge1" class="edge">
<title>Node1&#45;&gt;Node2</title>
<path fill="none" stroke="midnightblue" d="M83.27,-504.29C86.47,-481.48 91.71,-444.19 94.86,-421.78"/>
<polygon fill="midnightblue" stroke="midnightblue" points="98.37,-421.96 96.3,-411.57 91.44,-420.99 98.37,-421.96"/>
</g>
<!-- Node3 -->
<g id="node3" class="node">
<title>Node3</title>
<g id="a_node3"><a xlink:title=" ">
<polygon fill="none" stroke="#bfbfbf" points="82.5,-168.5 82.5,-187.5 126.5,-187.5 126.5,-168.5 82.5,-168.5"/>
<text text-anchor="middle" x="104.5" y="-175.5" font-family="Helvetica,sans-Serif" font-size="10.00">string</text>
</a>
</g>
</g>
<!-- Node1&#45;&gt;Node3 -->
<g id="edge25" class="edge">
<title>Node1&#45;&gt;Node3</title>
<path fill="none" stroke="midnightblue" d="M60.54,-504.13C40.16,-481.63 11.5,-442.9 11.5,-403 11.5,-403 11.5,-403 11.5,-289 11.5,-246.31 52.85,-211.64 80.41,-193.28"/>
<polygon fill="midnightblue" stroke="midnightblue" points="82.61,-196.03 89.14,-187.69 78.83,-190.13 82.61,-196.03"/>
</g>
<!-- Node16 -->
<g id="node16" class="node">
<title>Node16</title>
<g id="a_node16"><a xlink:href="../../d5/d70/_c_c_texture2_d_8h.html" target="_top" xlink:title=" ">
<polygon fill="none" stroke="black" points="108.5,-448.5 108.5,-467.5 240.5,-467.5 240.5,-448.5 108.5,-448.5"/>
<text text-anchor="middle" x="174.5" y="-455.5" font-family="Helvetica,sans-Serif" font-size="10.00">textures/CCTexture2D.h</text>
</a>
</g>
</g>
<!-- Node1&#45;&gt;Node16 -->
<g id="edge20" class="edge">
<title>Node1&#45;&gt;Node16</title>
<path fill="none" stroke="midnightblue" d="M108.7,-504.5C123.12,-494.53 140.35,-482.61 153.56,-473.48"/>
<polygon fill="midnightblue" stroke="midnightblue" points="155.75,-476.22 161.99,-467.65 151.77,-470.46 155.75,-476.22"/>
</g>
<!-- Node2&#45;&gt;Node3 -->
<g id="edge2" class="edge">
<title>Node2&#45;&gt;Node3</title>
<path fill="none" stroke="midnightblue" d="M89.83,-392.46C82.72,-383.93 72.65,-370.09 68.5,-356 51.64,-298.72 79.77,-228.74 95.3,-196.63"/>
<polygon fill="midnightblue" stroke="midnightblue" points="98.47,-198.11 99.82,-187.6 92.21,-194.97 98.47,-198.11"/>
</g>
<!-- Node4 -->
<g id="node4" class="node">
<title>Node4</title>
<g id="a_node4"><a xlink:href="../../d6/d09/_c_c_geometry_8h.html" target="_top" xlink:title=" ">
<polygon fill="none" stroke="black" points="185.5,-336.5 185.5,-355.5 303.5,-355.5 303.5,-336.5 185.5,-336.5"/>
<text text-anchor="middle" x="244.5" y="-343.5" font-family="Helvetica,sans-Serif" font-size="10.00">cocoa/CCGeometry.h</text>
</a>
</g>
</g>
<!-- Node2&#45;&gt;Node4 -->
<g id="edge3" class="edge">
<title>Node2&#45;&gt;Node4</title>
<path fill="none" stroke="midnightblue" d="M120.79,-392.44C145.31,-383.44 184.1,-369.19 211.7,-359.05"/>
<polygon fill="midnightblue" stroke="midnightblue" points="213.14,-362.25 221.32,-355.52 210.72,-355.68 213.14,-362.25"/>
</g>
<!-- Node15 -->
<g id="node15" class="node">
<title>Node15</title>
<g id="a_node15"><a xlink:title=" ">
<polygon fill="none" stroke="#bfbfbf" points="77.5,-336.5 77.5,-355.5 129.5,-355.5 129.5,-336.5 77.5,-336.5"/>
<text text-anchor="middle" x="103.5" y="-343.5" font-family="Helvetica,sans-Serif" font-size="10.00">CCGL.h</text>
</a>
</g>
</g>
<!-- Node2&#45;&gt;Node15 -->
<g id="edge19" class="edge">
<title>Node2&#45;&gt;Node15</title>
<path fill="none" stroke="midnightblue" d="M98.49,-392.08C99.29,-384.93 100.43,-374.64 101.42,-365.69"/>
<polygon fill="midnightblue" stroke="midnightblue" points="104.9,-366.08 102.53,-355.75 97.94,-365.3 104.9,-366.08"/>
</g>
<!-- Node5 -->
<g id="node5" class="node">
<title>Node5</title>
<g id="a_node5"><a xlink:href="../../d3/d41/_c_c_platform_macros_8h.html" target="_top" xlink:title=" ">
<polygon fill="none" stroke="black" points="258,-112.5 258,-131.5 419,-131.5 419,-112.5 258,-112.5"/>
<text text-anchor="middle" x="338.5" y="-119.5" font-family="Helvetica,sans-Serif" font-size="10.00">platform/CCPlatformMacros.h</text>
</a>
</g>
</g>
<!-- Node4&#45;&gt;Node5 -->
<g id="edge4" class="edge">
<title>Node4&#45;&gt;Node5</title>
<path fill="none" stroke="midnightblue" d="M246.71,-336.29C251.94,-316.11 266.01,-264.77 283.5,-224 296.56,-193.55 315.8,-160.13 327.72,-140.39"/>
<polygon fill="midnightblue" stroke="midnightblue" points="330.84,-142 333.07,-131.64 324.87,-138.35 330.84,-142"/>
</g>
<!-- Node9 -->
<g id="node9" class="node">
<title>Node9</title>
<g id="a_node9"><a xlink:href="../../dd/d69/_c_c_object_8h.html" target="_top" xlink:title=" ">
<polygon fill="none" stroke="black" points="302,-280.5 302,-299.5 373,-299.5 373,-280.5 302,-280.5"/>
<text text-anchor="middle" x="337.5" y="-287.5" font-family="Helvetica,sans-Serif" font-size="10.00">CCObject.h</text>
</a>
</g>
</g>
<!-- Node4&#45;&gt;Node9 -->
<g id="edge9" class="edge">
<title>Node4&#45;&gt;Node9</title>
<path fill="none" stroke="midnightblue" d="M259.44,-336.32C274.09,-327.82 296.63,-314.73 313.74,-304.8"/>
<polygon fill="midnightblue" stroke="midnightblue" points="315.7,-307.7 322.6,-299.65 312.19,-301.65 315.7,-307.7"/>
</g>
<!-- Node14 -->
<g id="node14" class="node">
<title>Node14</title>
<g id="a_node14"><a xlink:title=" ">
<polygon fill="none" stroke="#bfbfbf" points="184,-280.5 184,-299.5 235,-299.5 235,-280.5 184,-280.5"/>
<text text-anchor="middle" x="209.5" y="-287.5" font-family="Helvetica,sans-Serif" font-size="10.00">math.h</text>
</a>
</g>
</g>
<!-- Node4&#45;&gt;Node14 -->
<g id="edge18" class="edge">
<title>Node4&#45;&gt;Node14</title>
<path fill="none" stroke="midnightblue" d="M238.72,-336.08C233.83,-328.53 226.67,-317.49 220.67,-308.23"/>
<polygon fill="midnightblue" stroke="midnightblue" points="223.55,-306.24 215.17,-299.75 217.67,-310.05 223.55,-306.24"/>
</g>
<!-- Node6 -->
<g id="node6" class="node">
<title>Node6</title>
<g id="a_node6"><a xlink:href="../../db/d9f/cc_config_8h.html" target="_top" xlink:title="cocos2d (cc) configuration file">
<polygon fill="none" stroke="black" points="433,-56.5 433,-75.5 500,-75.5 500,-56.5 433,-56.5"/>
<text text-anchor="middle" x="466.5" y="-63.5" font-family="Helvetica,sans-Serif" font-size="10.00">ccConfig.h</text>
</a>
</g>
</g>
<!-- Node5&#45;&gt;Node6 -->
<g id="edge5" class="edge">
<title>Node5&#45;&gt;Node6</title>
<path fill="none" stroke="midnightblue" d="M358.78,-112.44C379.85,-103.56 413.02,-89.56 436.99,-79.45"/>
<polygon fill="midnightblue" stroke="midnightblue" points="438.46,-82.63 446.31,-75.52 435.74,-76.18 438.46,-82.63"/>
</g>
<!-- Node7 -->
<g id="node7" class="node">
<title>Node7</title>
<g id="a_node7"><a xlink:href="../../dd/d96/_c_c_platform_config_8h.html" target="_top" xlink:title=" ">
<polygon fill="none" stroke="black" points="291,-0.5 291,-19.5 448,-19.5 448,-0.5 291,-0.5"/>
<text text-anchor="middle" x="369.5" y="-7.5" font-family="Helvetica,sans-Serif" font-size="10.00">platform/CCPlatformConfig.h</text>
</a>
</g>
</g>
<!-- Node5&#45;&gt;Node7 -->
<g id="edge7" class="edge">
<title>Node5&#45;&gt;Node7</title>
<path fill="none" stroke="midnightblue" d="M325.14,-112.49C307.88,-100.36 281.4,-77.22 293.5,-56 301.91,-41.25 317.27,-30.84 331.98,-23.77"/>
<polygon fill="midnightblue" stroke="midnightblue" points="333.74,-26.83 341.48,-19.6 330.92,-20.42 333.74,-26.83"/>
</g>
<!-- Node8 -->
<g id="node8" class="node">
<title>Node8</title>
<g id="a_node8"><a xlink:title=" ">
<polygon fill="none" stroke="#bfbfbf" points="302,-56.5 302,-75.5 415,-75.5 415,-56.5 302,-56.5"/>
<text text-anchor="middle" x="358.5" y="-63.5" font-family="Helvetica,sans-Serif" font-size="10.00">CCPlatformDefine.h</text>
</a>
</g>
</g>
<!-- Node5&#45;&gt;Node8 -->
<g id="edge8" class="edge">
<title>Node5&#45;&gt;Node8</title>
<path fill="none" stroke="midnightblue" d="M341.8,-112.08C344.48,-104.85 348.35,-94.41 351.69,-85.4"/>
<polygon fill="midnightblue" stroke="midnightblue" points="355.07,-86.34 355.26,-75.75 348.5,-83.91 355.07,-86.34"/>
</g>
<!-- Node6&#45;&gt;Node7 -->
<g id="edge6" class="edge">
<title>Node6&#45;&gt;Node7</title>
<path fill="none" stroke="midnightblue" d="M450.92,-56.32C435.5,-47.74 411.69,-34.49 393.79,-24.52"/>
<polygon fill="midnightblue" stroke="midnightblue" points="395.49,-21.46 385.05,-19.65 392.08,-27.58 395.49,-21.46"/>
</g>
<!-- Node10 -->
<g id="node10" class="node">
<title>Node10</title>
<g id="a_node10"><a xlink:href="../../d9/d2d/_c_c_data_visitor_8h.html" target="_top" xlink:title=" ">
<polygon fill="none" stroke="black" points="292,-224.5 292,-243.5 385,-243.5 385,-224.5 292,-224.5"/>
<text text-anchor="middle" x="338.5" y="-231.5" font-family="Helvetica,sans-Serif" font-size="10.00">CCDataVisitor.h</text>
</a>
</g>
</g>
<!-- Node9&#45;&gt;Node10 -->
<g id="edge10" class="edge">
<title>Node9&#45;&gt;Node10</title>
<path fill="none" stroke="midnightblue" d="M337.67,-280.08C337.8,-273.01 337.98,-262.86 338.15,-253.99"/>
<polygon fill="midnightblue" stroke="midnightblue" points="341.65,-253.81 338.34,-243.75 334.65,-253.68 341.65,-253.81"/>
</g>
<!-- Node11 -->
<g id="node11" class="node">
<title>Node11</title>
<g id="a_node11"><a xlink:href="../../d9/dc8/cc_macros_8h.html" target="_top" xlink:title=" ">
<polygon fill="none" stroke="black" points="427,-224.5 427,-243.5 498,-243.5 498,-224.5 427,-224.5"/>
<text text-anchor="middle" x="462.5" y="-231.5" font-family="Helvetica,sans-Serif" font-size="10.00">ccMacros.h</text>
</a>
</g>
</g>
<!-- Node9&#45;&gt;Node11 -->
<g id="edge13" class="edge">
<title>Node9&#45;&gt;Node11</title>
<path fill="none" stroke="midnightblue" d="M357.31,-280.44C377.79,-271.6 409.98,-257.69 433.36,-247.59"/>
<polygon fill="midnightblue" stroke="midnightblue" points="434.99,-250.7 442.79,-243.52 432.22,-244.27 434.99,-250.7"/>
</g>
<!-- Node10&#45;&gt;Node3 -->
<g id="edge12" class="edge">
<title>Node10&#45;&gt;Node3</title>
<path fill="none" stroke="midnightblue" d="M301.42,-224.44C255.94,-213.95 179.6,-196.33 136.55,-186.4"/>
<polygon fill="midnightblue" stroke="midnightblue" points="137.15,-182.94 126.62,-184.1 135.57,-189.76 137.15,-182.94"/>
</g>
<!-- Node10&#45;&gt;Node5 -->
<g id="edge11" class="edge">
<title>Node10&#45;&gt;Node5</title>
<path fill="none" stroke="midnightblue" d="M333.88,-224.34C329.44,-215.49 323.05,-201.22 320.5,-188 317.39,-171.85 323.11,-153.86 328.91,-140.9"/>
<polygon fill="midnightblue" stroke="midnightblue" points="332.15,-142.25 333.41,-131.73 325.86,-139.16 332.15,-142.25"/>
</g>
<!-- Node11&#45;&gt;Node6 -->
<g id="edge17" class="edge">
<title>Node11&#45;&gt;Node6</title>
<path fill="none" stroke="midnightblue" d="M463.49,-224.39C464.48,-215.34 465.94,-200.69 466.5,-188 468.11,-151.75 467.55,-109.33 467.01,-85.57"/>
<polygon fill="midnightblue" stroke="midnightblue" points="470.51,-85.42 466.76,-75.51 463.51,-85.6 470.51,-85.42"/>
</g>
<!-- Node12 -->
<g id="node12" class="node">
<title>Node12</title>
<g id="a_node12"><a xlink:href="../../d5/d22/_c_c_common_8h.html" target="_top" xlink:title=" ">
<polygon fill="none" stroke="black" points="329.5,-168.5 329.5,-187.5 457.5,-187.5 457.5,-168.5 329.5,-168.5"/>
<text text-anchor="middle" x="393.5" y="-175.5" font-family="Helvetica,sans-Serif" font-size="10.00">platform/CCCommon.h</text>
</a>
</g>
</g>
<!-- Node11&#45;&gt;Node12 -->
<g id="edge14" class="edge">
<title>Node11&#45;&gt;Node12</title>
<path fill="none" stroke="midnightblue" d="M451.41,-224.32C441.01,-216.18 425.24,-203.84 412.78,-194.09"/>
<polygon fill="midnightblue" stroke="midnightblue" points="414.82,-191.24 404.79,-187.83 410.51,-196.75 414.82,-191.24"/>
</g>
<!-- Node13 -->
<g id="node13" class="node">
<title>Node13</title>
<g id="a_node13"><a xlink:title=" ">
<polygon fill="none" stroke="#bfbfbf" points="513.5,-168.5 513.5,-187.5 575.5,-187.5 575.5,-168.5 513.5,-168.5"/>
<text text-anchor="middle" x="544.5" y="-175.5" font-family="Helvetica,sans-Serif" font-size="10.00">CCStdC.h</text>
</a>
</g>
</g>
<!-- Node11&#45;&gt;Node13 -->
<g id="edge16" class="edge">
<title>Node11&#45;&gt;Node13</title>
<path fill="none" stroke="midnightblue" d="M475.67,-224.32C488.35,-215.98 507.73,-203.21 522.71,-193.35"/>
<polygon fill="midnightblue" stroke="midnightblue" points="524.93,-196.08 531.36,-187.65 521.08,-190.23 524.93,-196.08"/>
</g>
<!-- Node12&#45;&gt;Node5 -->
<g id="edge15" class="edge">
<title>Node12&#45;&gt;Node5</title>
<path fill="none" stroke="midnightblue" d="M384.42,-168.08C376.33,-160.14 364.3,-148.34 354.59,-138.8"/>
<polygon fill="midnightblue" stroke="midnightblue" points="357,-136.26 347.41,-131.75 352.1,-141.25 357,-136.26"/>
</g>
<!-- Node16&#45;&gt;Node2 -->
<g id="edge24" class="edge">
<title>Node16&#45;&gt;Node2</title>
<path fill="none" stroke="midnightblue" d="M162.13,-448.32C150.34,-440.06 132.37,-427.45 118.36,-417.63"/>
<polygon fill="midnightblue" stroke="midnightblue" points="120.04,-414.53 109.84,-411.65 116.02,-420.26 120.04,-414.53"/>
</g>
<!-- Node16&#45;&gt;Node3 -->
<g id="edge21" class="edge">
<title>Node16&#45;&gt;Node3</title>
<path fill="none" stroke="midnightblue" d="M172.33,-448.38C162.59,-409.7 122.83,-251.79 109.15,-197.47"/>
<polygon fill="midnightblue" stroke="midnightblue" points="112.48,-196.37 106.65,-187.52 105.69,-198.08 112.48,-196.37"/>
</g>
<!-- Node16&#45;&gt;Node4 -->
<g id="edge23" class="edge">
<title>Node16&#45;&gt;Node4</title>
<path fill="none" stroke="midnightblue" d="M179.99,-448.37C191.49,-430.3 218.3,-388.18 233.49,-364.31"/>
<polygon fill="midnightblue" stroke="midnightblue" points="236.62,-365.91 239.03,-355.59 230.71,-362.15 236.62,-365.91"/>
</g>
<!-- Node16&#45;&gt;Node9 -->
<g id="edge22" class="edge">
<title>Node16&#45;&gt;Node9</title>
<path fill="none" stroke="midnightblue" d="M192.28,-448.31C221.3,-433.3 278.94,-399.86 312.5,-356 323.05,-342.21 329.63,-323.44 333.38,-309.61"/>
<polygon fill="midnightblue" stroke="midnightblue" points="336.81,-310.32 335.79,-299.77 330.01,-308.65 336.81,-310.32"/>
</g>
</g>
</svg>
