<?xml version="1.0" encoding="UTF-8" standalone="no"?>
<!DOCTYPE svg PUBLIC "-//W3C//DTD SVG 1.1//EN"
 "http://www.w3.org/Graphics/SVG/1.1/DTD/svg11.dtd">
<!-- Generated by graphviz version 2.43.0 (0)
 -->
<!-- Title: /home/runner/work/cocos2d.h/cocos2d.h/cocos2dx/include/CCProtocols.h Pages: 1 -->
<svg width="584pt" height="544pt"
 viewBox="0.00 0.00 583.50 544.00" xmlns="http://www.w3.org/2000/svg" xmlns:xlink="http://www.w3.org/1999/xlink">
<g id="graph0" class="graph" transform="scale(1 1) rotate(0) translate(4 540)">
<title>/home/runner/work/cocos2d.h/cocos2d.h/cocos2dx/include/CCProtocols.h</title>
<!-- Node1 -->
<g id="node1" class="node">
<title>Node1</title>
<g id="a_node1"><a xlink:title=" ">
<polygon fill="#999999" stroke="#666666" points="161,-536 0,-536 0,-495 161,-495 161,-536"/>
<text text-anchor="start" x="8" y="-524" font-family="Helvetica,sans-Serif" font-size="10.00">/home/runner/work/cocos2d.h</text>
<text text-anchor="start" x="8" y="-513" font-family="Helvetica,sans-Serif" font-size="10.00">/cocos2d.h/cocos2dx/include</text>
<text text-anchor="middle" x="80.5" y="-502" font-family="Helvetica,sans-Serif" font-size="10.00">/CCProtocols.h</text>
</a>
</g>
</g>
<!-- Node2 -->
<g id="node2" class="node">
<title>Node2</title>
<g id="a_node2"><a xlink:href="../../df/de6/cc_types_8h.html" target="_top" xlink:title=" ">
<polygon fill="white" stroke="#666666" points="129.5,-404 65.5,-404 65.5,-385 129.5,-385 129.5,-404"/>
<text text-anchor="middle" x="97.5" y="-392" font-family="Helvetica,sans-Serif" font-size="10.00">ccTypes.h</text>
</a>
</g>
</g>
<!-- Node1&#45;&gt;Node2 -->
<g id="edge1" class="edge">
<title>Node1&#45;&gt;Node2</title>
<path fill="none" stroke="#63b8ff" d="M83.31,-494.85C86.5,-472.48 91.69,-436.19 94.83,-414.21"/>
<polygon fill="#63b8ff" stroke="#63b8ff" points="98.31,-414.57 96.26,-404.18 91.38,-413.58 98.31,-414.57"/>
</g>
<!-- Node3 -->
<g id="node3" class="node">
<title>Node3</title>
<g id="a_node3"><a xlink:title=" ">
<polygon fill="#e0e0e0" stroke="#999999" points="126.5,-184 82.5,-184 82.5,-165 126.5,-165 126.5,-184"/>
<text text-anchor="middle" x="104.5" y="-172" font-family="Helvetica,sans-Serif" font-size="10.00">string</text>
</a>
</g>
</g>
<!-- Node1&#45;&gt;Node3 -->
<g id="edge25" class="edge">
<title>Node1&#45;&gt;Node3</title>
<path fill="none" stroke="#63b8ff" d="M60.17,-494.61C39.82,-472.49 11.5,-434.67 11.5,-395.5 11.5,-395.5 11.5,-395.5 11.5,-283.5 11.5,-241.48 52.42,-207.69 79.97,-189.7"/>
<polygon fill="#63b8ff" stroke="#63b8ff" points="82.11,-192.49 88.72,-184.21 78.39,-186.56 82.11,-192.49"/>
</g>
<!-- Node16 -->
<g id="node16" class="node">
<title>Node16</title>
<g id="a_node16"><a xlink:href="../../d5/d70/_c_c_texture2_d_8h.html" target="_top" xlink:title=" ">
<polygon fill="white" stroke="#666666" points="240.5,-459 108.5,-459 108.5,-440 240.5,-440 240.5,-459"/>
<text text-anchor="middle" x="174.5" y="-447" font-family="Helvetica,sans-Serif" font-size="10.00">textures/CCTexture2D.h</text>
</a>
</g>
</g>
<!-- Node1&#45;&gt;Node16 -->
<g id="edge20" class="edge">
<title>Node1&#45;&gt;Node16</title>
<path fill="none" stroke="#63b8ff" d="M109.21,-494.95C123.43,-485.27 140.28,-473.8 153.31,-464.93"/>
<polygon fill="#63b8ff" stroke="#63b8ff" points="155.34,-467.78 161.63,-459.26 151.4,-462 155.34,-467.78"/>
</g>
<!-- Node2&#45;&gt;Node3 -->
<g id="edge2" class="edge">
<title>Node2&#45;&gt;Node3</title>
<path fill="none" stroke="#63b8ff" d="M89.56,-384.75C82.47,-376.3 72.6,-362.79 68.5,-349 51.9,-293.12 79.6,-224.9 95.11,-193.23"/>
<polygon fill="#63b8ff" stroke="#63b8ff" points="98.24,-194.8 99.65,-184.29 92,-191.63 98.24,-194.8"/>
</g>
<!-- Node4 -->
<g id="node4" class="node">
<title>Node4</title>
<g id="a_node4"><a xlink:href="../../d6/d09/_c_c_geometry_8h.html" target="_top" xlink:title=" ">
<polygon fill="white" stroke="#666666" points="303.5,-349 185.5,-349 185.5,-330 303.5,-330 303.5,-349"/>
<text text-anchor="middle" x="244.5" y="-337" font-family="Helvetica,sans-Serif" font-size="10.00">cocoa/CCGeometry.h</text>
</a>
</g>
</g>
<!-- Node2&#45;&gt;Node4 -->
<g id="edge3" class="edge">
<title>Node2&#45;&gt;Node4</title>
<path fill="none" stroke="#63b8ff" d="M121.12,-384.98C145.4,-376.23 183.45,-362.51 210.87,-352.62"/>
<polygon fill="#63b8ff" stroke="#63b8ff" points="212.23,-355.85 220.45,-349.17 209.86,-349.27 212.23,-355.85"/>
</g>
<!-- Node15 -->
<g id="node15" class="node">
<title>Node15</title>
<g id="a_node15"><a xlink:title=" ">
<polygon fill="#e0e0e0" stroke="#999999" points="129.5,-349 77.5,-349 77.5,-330 129.5,-330 129.5,-349"/>
<text text-anchor="middle" x="103.5" y="-337" font-family="Helvetica,sans-Serif" font-size="10.00">CCGL.h</text>
</a>
</g>
</g>
<!-- Node2&#45;&gt;Node15 -->
<g id="edge19" class="edge">
<title>Node2&#45;&gt;Node15</title>
<path fill="none" stroke="#63b8ff" d="M98.49,-384.75C99.28,-377.8 100.4,-367.85 101.39,-359.13"/>
<polygon fill="#63b8ff" stroke="#63b8ff" points="104.88,-359.42 102.53,-349.09 97.92,-358.63 104.88,-359.42"/>
</g>
<!-- Node5 -->
<g id="node5" class="node">
<title>Node5</title>
<g id="a_node5"><a xlink:href="../../d3/d41/_c_c_platform_macros_8h.html" target="_top" xlink:title=" ">
<polygon fill="white" stroke="#666666" points="419,-129 258,-129 258,-110 419,-110 419,-129"/>
<text text-anchor="middle" x="338.5" y="-117" font-family="Helvetica,sans-Serif" font-size="10.00">platform/CCPlatformMacros.h</text>
</a>
</g>
</g>
<!-- Node4&#45;&gt;Node5 -->
<g id="edge4" class="edge">
<title>Node4&#45;&gt;Node5</title>
<path fill="none" stroke="#63b8ff" d="M246.72,-329.97C251.98,-310.2 266.09,-259.9 283.5,-220 296.6,-189.98 315.83,-157.06 327.74,-137.63"/>
<polygon fill="#63b8ff" stroke="#63b8ff" points="330.79,-139.35 333.08,-129.01 324.84,-135.66 330.79,-139.35"/>
</g>
<!-- Node9 -->
<g id="node9" class="node">
<title>Node9</title>
<g id="a_node9"><a xlink:href="../../dd/d69/_c_c_object_8h.html" target="_top" xlink:title=" ">
<polygon fill="white" stroke="#666666" points="373,-294 302,-294 302,-275 373,-275 373,-294"/>
<text text-anchor="middle" x="337.5" y="-282" font-family="Helvetica,sans-Serif" font-size="10.00">CCObject.h</text>
</a>
</g>
</g>
<!-- Node4&#45;&gt;Node9 -->
<g id="edge9" class="edge">
<title>Node4&#45;&gt;Node9</title>
<path fill="none" stroke="#63b8ff" d="M259.44,-329.98C274,-321.69 296.37,-308.94 313.43,-299.22"/>
<polygon fill="#63b8ff" stroke="#63b8ff" points="315.33,-302.16 322.29,-294.17 311.86,-296.08 315.33,-302.16"/>
</g>
<!-- Node14 -->
<g id="node14" class="node">
<title>Node14</title>
<g id="a_node14"><a xlink:title=" ">
<polygon fill="#e0e0e0" stroke="#999999" points="235,-294 184,-294 184,-275 235,-275 235,-294"/>
<text text-anchor="middle" x="209.5" y="-282" font-family="Helvetica,sans-Serif" font-size="10.00">math.h</text>
</a>
</g>
</g>
<!-- Node4&#45;&gt;Node14 -->
<g id="edge18" class="edge">
<title>Node4&#45;&gt;Node14</title>
<path fill="none" stroke="#63b8ff" d="M238.72,-329.75C233.88,-322.42 226.82,-311.73 220.86,-302.7"/>
<polygon fill="#63b8ff" stroke="#63b8ff" points="223.6,-300.5 215.17,-294.09 217.76,-304.36 223.6,-300.5"/>
</g>
<!-- Node6 -->
<g id="node6" class="node">
<title>Node6</title>
<g id="a_node6"><a xlink:href="../../db/d9f/cc_config_8h.html" target="_top" xlink:title="cocos2d (cc) configuration file">
<polygon fill="white" stroke="#666666" points="500,-74 433,-74 433,-55 500,-55 500,-74"/>
<text text-anchor="middle" x="466.5" y="-62" font-family="Helvetica,sans-Serif" font-size="10.00">ccConfig.h</text>
</a>
</g>
</g>
<!-- Node5&#45;&gt;Node6 -->
<g id="edge5" class="edge">
<title>Node5&#45;&gt;Node6</title>
<path fill="none" stroke="#63b8ff" d="M359.07,-109.98C379.93,-101.34 412.47,-87.87 436.27,-78.02"/>
<polygon fill="#63b8ff" stroke="#63b8ff" points="437.66,-81.23 445.56,-74.17 434.98,-74.76 437.66,-81.23"/>
</g>
<!-- Node7 -->
<g id="node7" class="node">
<title>Node7</title>
<g id="a_node7"><a xlink:href="../../dd/d96/_c_c_platform_config_8h.html" target="_top" xlink:title=" ">
<polygon fill="white" stroke="#666666" points="448,-19 291,-19 291,0 448,0 448,-19"/>
<text text-anchor="middle" x="369.5" y="-7" font-family="Helvetica,sans-Serif" font-size="10.00">platform/CCPlatformConfig.h</text>
</a>
</g>
</g>
<!-- Node5&#45;&gt;Node7 -->
<g id="edge7" class="edge">
<title>Node5&#45;&gt;Node7</title>
<path fill="none" stroke="#63b8ff" d="M324.6,-109.82C307.38,-97.91 281.67,-75.63 293.5,-55 301.86,-40.42 317.05,-30.16 331.67,-23.19"/>
<polygon fill="#63b8ff" stroke="#63b8ff" points="333.34,-26.28 341.11,-19.08 330.55,-19.86 333.34,-26.28"/>
</g>
<!-- Node8 -->
<g id="node8" class="node">
<title>Node8</title>
<g id="a_node8"><a xlink:title=" ">
<polygon fill="#e0e0e0" stroke="#999999" points="415,-74 302,-74 302,-55 415,-55 415,-74"/>
<text text-anchor="middle" x="358.5" y="-62" font-family="Helvetica,sans-Serif" font-size="10.00">CCPlatformDefine.h</text>
</a>
</g>
</g>
<!-- Node5&#45;&gt;Node8 -->
<g id="edge8" class="edge">
<title>Node5&#45;&gt;Node8</title>
<path fill="none" stroke="#63b8ff" d="M341.8,-109.75C344.48,-102.65 348.35,-92.4 351.69,-83.56"/>
<polygon fill="#63b8ff" stroke="#63b8ff" points="355,-84.68 355.26,-74.09 348.45,-82.21 355,-84.68"/>
</g>
<!-- Node6&#45;&gt;Node7 -->
<g id="edge6" class="edge">
<title>Node6&#45;&gt;Node7</title>
<path fill="none" stroke="#63b8ff" d="M450.92,-54.98C435.73,-46.69 412.4,-33.94 394.6,-24.22"/>
<polygon fill="#63b8ff" stroke="#63b8ff" points="395.82,-20.89 385.37,-19.17 392.47,-27.04 395.82,-20.89"/>
</g>
<!-- Node10 -->
<g id="node10" class="node">
<title>Node10</title>
<g id="a_node10"><a xlink:href="../../d9/d2d/_c_c_data_visitor_8h.html" target="_top" xlink:title=" ">
<polygon fill="white" stroke="#666666" points="385,-239 292,-239 292,-220 385,-220 385,-239"/>
<text text-anchor="middle" x="338.5" y="-227" font-family="Helvetica,sans-Serif" font-size="10.00">CCDataVisitor.h</text>
</a>
</g>
</g>
<!-- Node9&#45;&gt;Node10 -->
<g id="edge10" class="edge">
<title>Node9&#45;&gt;Node10</title>
<path fill="none" stroke="#63b8ff" d="M337.67,-274.75C337.8,-267.8 337.98,-257.85 338.15,-249.13"/>
<polygon fill="#63b8ff" stroke="#63b8ff" points="341.65,-249.15 338.34,-239.09 334.65,-249.02 341.65,-249.15"/>
</g>
<!-- Node11 -->
<g id="node11" class="node">
<title>Node11</title>
<g id="a_node11"><a xlink:href="../../d9/dc8/cc_macros_8h.html" target="_top" xlink:title=" ">
<polygon fill="white" stroke="#666666" points="498,-239 427,-239 427,-220 498,-220 498,-239"/>
<text text-anchor="middle" x="462.5" y="-227" font-family="Helvetica,sans-Serif" font-size="10.00">ccMacros.h</text>
</a>
</g>
</g>
<!-- Node9&#45;&gt;Node11 -->
<g id="edge13" class="edge">
<title>Node9&#45;&gt;Node11</title>
<path fill="none" stroke="#63b8ff" d="M357.58,-274.98C377.87,-266.38 409.46,-252.99 432.67,-243.15"/>
<polygon fill="#63b8ff" stroke="#63b8ff" points="434.21,-246.3 442.05,-239.17 431.48,-239.85 434.21,-246.3"/>
</g>
<!-- Node10&#45;&gt;Node3 -->
<g id="edge12" class="edge">
<title>Node10&#45;&gt;Node3</title>
<path fill="none" stroke="#63b8ff" d="M300.9,-219.98C255.31,-209.66 179.26,-192.43 136.4,-182.73"/>
<polygon fill="#63b8ff" stroke="#63b8ff" points="137.04,-179.28 126.51,-180.49 135.49,-186.11 137.04,-179.28"/>
</g>
<!-- Node10&#45;&gt;Node5 -->
<g id="edge11" class="edge">
<title>Node10&#45;&gt;Node5</title>
<path fill="none" stroke="#63b8ff" d="M333.42,-219.98C326.83,-207.9 316.6,-185.02 320.5,-165 322.29,-155.8 325.98,-146.09 329.56,-138.1"/>
<polygon fill="#63b8ff" stroke="#63b8ff" points="332.73,-139.59 333.88,-129.06 326.41,-136.57 332.73,-139.59"/>
</g>
<!-- Node11&#45;&gt;Node6 -->
<g id="edge17" class="edge">
<title>Node11&#45;&gt;Node6</title>
<path fill="none" stroke="#63b8ff" d="M463.49,-219.98C464.48,-211.04 465.94,-196.55 466.5,-184 468.08,-148.84 467.55,-107.74 467.02,-84.35"/>
<polygon fill="#63b8ff" stroke="#63b8ff" points="470.51,-84.04 466.76,-74.13 463.52,-84.21 470.51,-84.04"/>
</g>
<!-- Node12 -->
<g id="node12" class="node">
<title>Node12</title>
<g id="a_node12"><a xlink:href="../../d5/d22/_c_c_common_8h.html" target="_top" xlink:title=" ">
<polygon fill="white" stroke="#666666" points="457.5,-184 329.5,-184 329.5,-165 457.5,-165 457.5,-184"/>
<text text-anchor="middle" x="393.5" y="-172" font-family="Helvetica,sans-Serif" font-size="10.00">platform/CCCommon.h</text>
</a>
</g>
</g>
<!-- Node11&#45;&gt;Node12 -->
<g id="edge14" class="edge">
<title>Node11&#45;&gt;Node12</title>
<path fill="none" stroke="#63b8ff" d="M451.41,-219.98C441.01,-212 425.24,-199.88 412.78,-190.31"/>
<polygon fill="#63b8ff" stroke="#63b8ff" points="414.85,-187.49 404.79,-184.17 410.59,-193.04 414.85,-187.49"/>
</g>
<!-- Node13 -->
<g id="node13" class="node">
<title>Node13</title>
<g id="a_node13"><a xlink:title=" ">
<polygon fill="#e0e0e0" stroke="#999999" points="575.5,-184 513.5,-184 513.5,-165 575.5,-165 575.5,-184"/>
<text text-anchor="middle" x="544.5" y="-172" font-family="Helvetica,sans-Serif" font-size="10.00">CCStdC.h</text>
</a>
</g>
</g>
<!-- Node11&#45;&gt;Node13 -->
<g id="edge16" class="edge">
<title>Node11&#45;&gt;Node13</title>
<path fill="none" stroke="#63b8ff" d="M475.67,-219.98C488.27,-211.84 507.5,-199.41 522.44,-189.76"/>
<polygon fill="#63b8ff" stroke="#63b8ff" points="524.59,-192.54 531.09,-184.17 520.79,-186.66 524.59,-192.54"/>
</g>
<!-- Node12&#45;&gt;Node5 -->
<g id="edge15" class="edge">
<title>Node12&#45;&gt;Node5</title>
<path fill="none" stroke="#63b8ff" d="M384.42,-164.75C376.41,-157.03 364.54,-145.6 354.88,-136.28"/>
<polygon fill="#63b8ff" stroke="#63b8ff" points="357.04,-133.51 347.41,-129.09 352.19,-138.55 357.04,-133.51"/>
</g>
<!-- Node16&#45;&gt;Node2 -->
<g id="edge24" class="edge">
<title>Node16&#45;&gt;Node2</title>
<path fill="none" stroke="#63b8ff" d="M162.13,-439.98C150.41,-431.92 132.58,-419.65 118.61,-410.03"/>
<polygon fill="#63b8ff" stroke="#63b8ff" points="120.32,-406.96 110.1,-404.17 116.35,-412.72 120.32,-406.96"/>
</g>
<!-- Node16&#45;&gt;Node3 -->
<g id="edge21" class="edge">
<title>Node16&#45;&gt;Node3</title>
<path fill="none" stroke="#63b8ff" d="M172.25,-439.73C162.4,-401.3 122.93,-247.38 109.22,-193.91"/>
<polygon fill="#63b8ff" stroke="#63b8ff" points="112.58,-192.92 106.71,-184.11 105.8,-194.66 112.58,-192.92"/>
</g>
<!-- Node16&#45;&gt;Node4 -->
<g id="edge23" class="edge">
<title>Node16&#45;&gt;Node4</title>
<path fill="none" stroke="#63b8ff" d="M180.23,-439.66C191.82,-421.77 218.25,-381 233.36,-357.69"/>
<polygon fill="#63b8ff" stroke="#63b8ff" points="236.39,-359.45 238.89,-349.16 230.51,-355.65 236.39,-359.45"/>
</g>
<!-- Node16&#45;&gt;Node9 -->
<g id="edge22" class="edge">
<title>Node16&#45;&gt;Node9</title>
<path fill="none" stroke="#63b8ff" d="M192.25,-439.98C221.22,-425.25 278.79,-392.38 312.5,-349 322.84,-335.7 329.4,-317.58 333.2,-304.11"/>
<polygon fill="#63b8ff" stroke="#63b8ff" points="336.68,-304.64 335.76,-294.08 329.89,-302.91 336.68,-304.64"/>
</g>
</g>
</svg>
