<?xml version="1.0" encoding="UTF-8" standalone="no"?>
<!DOCTYPE svg PUBLIC "-//W3C//DTD SVG 1.1//EN"
 "http://www.w3.org/Graphics/SVG/1.1/DTD/svg11.dtd">
<!-- Generated by graphviz version 2.43.0 (0)
 -->
<!-- Title: /home/runner/work/cocos2d.h/cocos2d.h/cocos2dx/platform/winrt/CCPrecompiledShaders.h Pages: 1 -->
<svg width="694pt" height="291pt"
 viewBox="0.00 0.00 694.00 291.00" xmlns="http://www.w3.org/2000/svg" xmlns:xlink="http://www.w3.org/1999/xlink">
<g id="graph0" class="graph" transform="scale(1 1) rotate(0) translate(4 287)">
<title>/home/runner/work/cocos2d.h/cocos2d.h/cocos2dx/platform/winrt/CCPrecompiledShaders.h</title>
<!-- Node1 -->
<g id="node1" class="node">
<title>Node1</title>
<g id="a_node1"><a xlink:title=" ">
<polygon fill="#999999" stroke="#666666" points="430.5,-283 260.5,-283 260.5,-242 430.5,-242 430.5,-283"/>
<text text-anchor="start" x="268.5" y="-271" font-family="Helvetica,sans-Serif" font-size="10.00">/home/runner/work/cocos2d.h</text>
<text text-anchor="start" x="268.5" y="-260" font-family="Helvetica,sans-Serif" font-size="10.00">/cocos2d.h/cocos2dx/platform</text>
<text text-anchor="middle" x="345.5" y="-249" font-family="Helvetica,sans-Serif" font-size="10.00">/winrt/CCPrecompiledShaders.h</text>
</a>
</g>
</g>
<!-- Node2 -->
<g id="node2" class="node">
<title>Node2</title>
<g id="a_node2"><a xlink:href="../../d5/d22/_c_c_common_8h.html" target="_top" xlink:title=" ">
<polygon fill="white" stroke="#666666" points="229.5,-206 101.5,-206 101.5,-187 229.5,-187 229.5,-206"/>
<text text-anchor="middle" x="165.5" y="-194" font-family="Helvetica,sans-Serif" font-size="10.00">platform/CCCommon.h</text>
</a>
</g>
</g>
<!-- Node1&#45;&gt;Node2 -->
<g id="edge1" class="edge">
<title>Node1&#45;&gt;Node2</title>
<path fill="none" stroke="#63b8ff" d="M290.52,-241.95C260.76,-231.37 224.96,-218.64 199.31,-209.52"/>
<polygon fill="#63b8ff" stroke="#63b8ff" points="200.26,-206.14 189.66,-206.09 197.91,-212.74 200.26,-206.14"/>
</g>
<!-- Node7 -->
<g id="node7" class="node">
<title>Node7</title>
<g id="a_node7"><a xlink:href="../../d2/d35/winrt_2_c_c_g_l_8h.html" target="_top" xlink:title=" ">
<polygon fill="white" stroke="#666666" points="305.5,-206 253.5,-206 253.5,-187 305.5,-187 305.5,-206"/>
<text text-anchor="middle" x="279.5" y="-194" font-family="Helvetica,sans-Serif" font-size="10.00">CCGL.h</text>
</a>
</g>
</g>
<!-- Node1&#45;&gt;Node7 -->
<g id="edge7" class="edge">
<title>Node1&#45;&gt;Node7</title>
<path fill="none" stroke="#63b8ff" d="M325.34,-241.95C315.84,-232.74 304.66,-221.9 295.72,-213.23"/>
<polygon fill="#63b8ff" stroke="#63b8ff" points="298.15,-210.71 288.53,-206.26 293.28,-215.73 298.15,-210.71"/>
</g>
<!-- Node12 -->
<g id="node12" class="node">
<title>Node12</title>
<g id="a_node12"><a xlink:title=" ">
<polygon fill="#e0e0e0" stroke="#999999" points="367.5,-206 323.5,-206 323.5,-187 367.5,-187 367.5,-206"/>
<text text-anchor="middle" x="345.5" y="-194" font-family="Helvetica,sans-Serif" font-size="10.00">string</text>
</a>
</g>
</g>
<!-- Node1&#45;&gt;Node12 -->
<g id="edge12" class="edge">
<title>Node1&#45;&gt;Node12</title>
<path fill="none" stroke="#63b8ff" d="M345.5,-241.95C345.5,-233.85 345.5,-224.5 345.5,-216.47"/>
<polygon fill="#63b8ff" stroke="#63b8ff" points="349,-216.26 345.5,-206.26 342,-216.26 349,-216.26"/>
</g>
<!-- Node13 -->
<g id="node13" class="node">
<title>Node13</title>
<g id="a_node13"><a xlink:title=" ">
<polygon fill="#e0e0e0" stroke="#999999" points="433,-206 386,-206 386,-187 433,-187 433,-206"/>
<text text-anchor="middle" x="409.5" y="-194" font-family="Helvetica,sans-Serif" font-size="10.00">vector</text>
</a>
</g>
</g>
<!-- Node1&#45;&gt;Node13 -->
<g id="edge13" class="edge">
<title>Node1&#45;&gt;Node13</title>
<path fill="none" stroke="#63b8ff" d="M365.05,-241.95C374.17,-232.83 384.89,-222.11 393.51,-213.49"/>
<polygon fill="#63b8ff" stroke="#63b8ff" points="396.14,-215.81 400.74,-206.26 391.19,-210.86 396.14,-215.81"/>
</g>
<!-- Node14 -->
<g id="node14" class="node">
<title>Node14</title>
<g id="a_node14"><a xlink:title=" ">
<polygon fill="#e0e0e0" stroke="#999999" points="489.5,-206 451.5,-206 451.5,-187 489.5,-187 489.5,-206"/>
<text text-anchor="middle" x="470.5" y="-194" font-family="Helvetica,sans-Serif" font-size="10.00">map</text>
</a>
</g>
</g>
<!-- Node1&#45;&gt;Node14 -->
<g id="edge14" class="edge">
<title>Node1&#45;&gt;Node14</title>
<path fill="none" stroke="#63b8ff" d="M383.68,-241.95C403.43,-231.84 427.02,-219.76 444.62,-210.75"/>
<polygon fill="#63b8ff" stroke="#63b8ff" points="446.41,-213.76 453.72,-206.09 443.22,-207.53 446.41,-213.76"/>
</g>
<!-- Node3 -->
<g id="node3" class="node">
<title>Node3</title>
<g id="a_node3"><a xlink:href="../../d3/d41/_c_c_platform_macros_8h.html" target="_top" xlink:title=" ">
<polygon fill="white" stroke="#666666" points="210.5,-151 94.5,-151 94.5,-132 210.5,-132 210.5,-151"/>
<text text-anchor="middle" x="152.5" y="-139" font-family="Helvetica,sans-Serif" font-size="10.00">CCPlatformMacros.h</text>
</a>
</g>
</g>
<!-- Node2&#45;&gt;Node3 -->
<g id="edge2" class="edge">
<title>Node2&#45;&gt;Node3</title>
<path fill="none" stroke="#63b8ff" d="M163.35,-186.75C161.63,-179.72 159.15,-169.62 157,-160.84"/>
<polygon fill="#63b8ff" stroke="#63b8ff" points="160.39,-159.97 154.61,-151.09 153.59,-161.63 160.39,-159.97"/>
</g>
<!-- Node4 -->
<g id="node4" class="node">
<title>Node4</title>
<g id="a_node4"><a xlink:href="../../db/d9f/cc_config_8h.html" target="_top" xlink:title="cocos2d (cc) configuration file">
<polygon fill="white" stroke="#666666" points="81,-85 14,-85 14,-66 81,-66 81,-85"/>
<text text-anchor="middle" x="47.5" y="-73" font-family="Helvetica,sans-Serif" font-size="10.00">ccConfig.h</text>
</a>
</g>
</g>
<!-- Node3&#45;&gt;Node4 -->
<g id="edge3" class="edge">
<title>Node3&#45;&gt;Node4</title>
<path fill="none" stroke="#63b8ff" d="M138.34,-131.87C120.96,-121.28 91.26,-103.17 70.57,-90.56"/>
<polygon fill="#63b8ff" stroke="#63b8ff" points="72.13,-87.42 61.77,-85.2 68.49,-93.39 72.13,-87.42"/>
</g>
<!-- Node5 -->
<g id="node5" class="node">
<title>Node5</title>
<g id="a_node5"><a xlink:href="../../dd/d96/_c_c_platform_config_8h.html" target="_top" xlink:title=" ">
<polygon fill="white" stroke="#666666" points="157,-19 0,-19 0,0 157,0 157,-19"/>
<text text-anchor="middle" x="78.5" y="-7" font-family="Helvetica,sans-Serif" font-size="10.00">platform/CCPlatformConfig.h</text>
</a>
</g>
</g>
<!-- Node3&#45;&gt;Node5 -->
<g id="edge5" class="edge">
<title>Node3&#45;&gt;Node5</title>
<path fill="none" stroke="#63b8ff" d="M147.64,-131.97C135.68,-110.95 104.58,-56.32 88.48,-28.04"/>
<polygon fill="#63b8ff" stroke="#63b8ff" points="91.46,-26.19 83.47,-19.23 85.38,-29.65 91.46,-26.19"/>
</g>
<!-- Node6 -->
<g id="node6" class="node">
<title>Node6</title>
<g id="a_node6"><a xlink:title=" ">
<polygon fill="#e0e0e0" stroke="#999999" points="251,-85 138,-85 138,-66 251,-66 251,-85"/>
<text text-anchor="middle" x="194.5" y="-73" font-family="Helvetica,sans-Serif" font-size="10.00">CCPlatformDefine.h</text>
</a>
</g>
</g>
<!-- Node3&#45;&gt;Node6 -->
<g id="edge6" class="edge">
<title>Node3&#45;&gt;Node6</title>
<path fill="none" stroke="#63b8ff" d="M158.16,-131.87C164.52,-122.19 174.98,-106.24 183.06,-93.94"/>
<polygon fill="#63b8ff" stroke="#63b8ff" points="186.1,-95.69 188.66,-85.41 180.24,-91.85 186.1,-95.69"/>
</g>
<!-- Node4&#45;&gt;Node5 -->
<g id="edge4" class="edge">
<title>Node4&#45;&gt;Node5</title>
<path fill="none" stroke="#63b8ff" d="M51.68,-65.87C56.28,-56.38 63.79,-40.86 69.7,-28.66"/>
<polygon fill="#63b8ff" stroke="#63b8ff" points="72.98,-29.93 74.19,-19.41 66.68,-26.88 72.98,-29.93"/>
</g>
<!-- Node8 -->
<g id="node8" class="node">
<title>Node8</title>
<g id="a_node8"><a xlink:href="../../d6/d08/_c_c_g_l___angle_8h.html" target="_top" xlink:title=" ">
<polygon fill="white" stroke="#666666" points="439,-151 354,-151 354,-132 439,-132 439,-151"/>
<text text-anchor="middle" x="396.5" y="-139" font-family="Helvetica,sans-Serif" font-size="10.00">CCGL_Angle.h</text>
</a>
</g>
</g>
<!-- Node7&#45;&gt;Node8 -->
<g id="edge8" class="edge">
<title>Node7&#45;&gt;Node8</title>
<path fill="none" stroke="#63b8ff" d="M298.3,-186.98C317.12,-178.46 346.32,-165.23 368,-155.41"/>
<polygon fill="#63b8ff" stroke="#63b8ff" points="369.7,-158.48 377.36,-151.17 366.81,-152.11 369.7,-158.48"/>
</g>
<!-- Node9 -->
<g id="node9" class="node">
<title>Node9</title>
<g id="a_node9"><a xlink:title=" ">
<polygon fill="#e0e0e0" stroke="#999999" points="388,-96 269,-96 269,-55 388,-55 388,-96"/>
<text text-anchor="start" x="277" y="-84" font-family="Helvetica,sans-Serif" font-size="10.00">../third_party/winrt</text>
<text text-anchor="start" x="277" y="-73" font-family="Helvetica,sans-Serif" font-size="10.00">/angleproject/include</text>
<text text-anchor="middle" x="328.5" y="-62" font-family="Helvetica,sans-Serif" font-size="10.00">/GLES2/gl2.h</text>
</a>
</g>
</g>
<!-- Node8&#45;&gt;Node9 -->
<g id="edge9" class="edge">
<title>Node8&#45;&gt;Node9</title>
<path fill="none" stroke="#63b8ff" d="M387.33,-131.87C379.44,-124.44 367.62,-113.31 356.64,-102.98"/>
<polygon fill="#63b8ff" stroke="#63b8ff" points="358.91,-100.31 349.23,-96.01 354.11,-105.41 358.91,-100.31"/>
</g>
<!-- Node10 -->
<g id="node10" class="node">
<title>Node10</title>
<g id="a_node10"><a xlink:title=" ">
<polygon fill="#e0e0e0" stroke="#999999" points="525,-96 406,-96 406,-55 525,-55 525,-96"/>
<text text-anchor="start" x="414" y="-84" font-family="Helvetica,sans-Serif" font-size="10.00">../third_party/winrt</text>
<text text-anchor="start" x="414" y="-73" font-family="Helvetica,sans-Serif" font-size="10.00">/angleproject/include</text>
<text text-anchor="middle" x="465.5" y="-62" font-family="Helvetica,sans-Serif" font-size="10.00">/GLES2/gl2ext.h</text>
</a>
</g>
</g>
<!-- Node8&#45;&gt;Node10 -->
<g id="edge10" class="edge">
<title>Node8&#45;&gt;Node10</title>
<path fill="none" stroke="#63b8ff" d="M405.81,-131.87C413.82,-124.44 425.81,-113.31 436.95,-102.98"/>
<polygon fill="#63b8ff" stroke="#63b8ff" points="439.52,-105.38 444.47,-96.01 434.75,-100.24 439.52,-105.38"/>
</g>
<!-- Node11 -->
<g id="node11" class="node">
<title>Node11</title>
<g id="a_node11"><a xlink:title=" ">
<polygon fill="#e0e0e0" stroke="#999999" points="686,-96 543,-96 543,-55 686,-55 686,-96"/>
<text text-anchor="start" x="551" y="-84" font-family="Helvetica,sans-Serif" font-size="10.00">../third_party/winrt</text>
<text text-anchor="start" x="551" y="-73" font-family="Helvetica,sans-Serif" font-size="10.00">/angleproject/src/common</text>
<text text-anchor="middle" x="614.5" y="-62" font-family="Helvetica,sans-Serif" font-size="10.00">/winrtangle.h</text>
</a>
</g>
</g>
<!-- Node8&#45;&gt;Node11 -->
<g id="edge11" class="edge">
<title>Node8&#45;&gt;Node11</title>
<path fill="none" stroke="#63b8ff" d="M425.9,-131.87C454.61,-123.44 499.53,-110.25 538.33,-98.86"/>
<polygon fill="#63b8ff" stroke="#63b8ff" points="539.44,-102.18 548.05,-96.01 537.47,-95.47 539.44,-102.18"/>
</g>
</g>
</svg>
