<?xml version="1.0" encoding="UTF-8" standalone="no"?>
<!DOCTYPE svg PUBLIC "-//W3C//DTD SVG 1.1//EN"
 "http://www.w3.org/Graphics/SVG/1.1/DTD/svg11.dtd">
<!-- Generated by graphviz version 2.43.0 (0)
 -->
<!-- Title: /home/runner/work/cocos2d.h/cocos2d.h/cocos2dx/platform/winrt/CCPrecompiledShaders.h Pages: 1 -->
<svg width="694pt" height="296pt"
 viewBox="0.00 0.00 694.00 296.00" xmlns="http://www.w3.org/2000/svg" xmlns:xlink="http://www.w3.org/1999/xlink">
<g id="graph0" class="graph" transform="scale(1 1) rotate(0) translate(4 292)">
<title>/home/runner/work/cocos2d.h/cocos2d.h/cocos2dx/platform/winrt/CCPrecompiledShaders.h</title>
<!-- Node1 -->
<g id="node1" class="node">
<title>Node1</title>
<g id="a_node1"><a xlink:title=" ">
<polygon fill="#bfbfbf" stroke="black" points="260.5,-246.5 260.5,-287.5 430.5,-287.5 430.5,-246.5 260.5,-246.5"/>
<text text-anchor="start" x="268.5" y="-275.5" font-family="Helvetica,sans-Serif" font-size="10.00">/home/runner/work/cocos2d.h</text>
<text text-anchor="start" x="268.5" y="-264.5" font-family="Helvetica,sans-Serif" font-size="10.00">/cocos2d.h/cocos2dx/platform</text>
<text text-anchor="middle" x="345.5" y="-253.5" font-family="Helvetica,sans-Serif" font-size="10.00">/winrt/CCPrecompiledShaders.h</text>
</a>
</g>
</g>
<!-- Node2 -->
<g id="node2" class="node">
<title>Node2</title>
<g id="a_node2"><a xlink:href="../../d5/d22/_c_c_common_8h.html" target="_top" xlink:title=" ">
<polygon fill="none" stroke="black" points="101.5,-190.5 101.5,-209.5 229.5,-209.5 229.5,-190.5 101.5,-190.5"/>
<text text-anchor="middle" x="165.5" y="-197.5" font-family="Helvetica,sans-Serif" font-size="10.00">platform/CCCommon.h</text>
</a>
</g>
</g>
<!-- Node1&#45;&gt;Node2 -->
<g id="edge1" class="edge">
<title>Node1&#45;&gt;Node2</title>
<path fill="none" stroke="midnightblue" d="M291.49,-246.5C261.51,-235.67 225.14,-222.54 199.2,-213.17"/>
<polygon fill="midnightblue" stroke="midnightblue" points="200.06,-209.76 189.46,-209.65 197.68,-216.34 200.06,-209.76"/>
</g>
<!-- Node7 -->
<g id="node7" class="node">
<title>Node7</title>
<g id="a_node7"><a xlink:href="../../d2/d35/winrt_2_c_c_g_l_8h.html" target="_top" xlink:title=" ">
<polygon fill="none" stroke="black" points="253.5,-190.5 253.5,-209.5 305.5,-209.5 305.5,-190.5 253.5,-190.5"/>
<text text-anchor="middle" x="279.5" y="-197.5" font-family="Helvetica,sans-Serif" font-size="10.00">CCGL.h</text>
</a>
</g>
</g>
<!-- Node1&#45;&gt;Node7 -->
<g id="edge7" class="edge">
<title>Node1&#45;&gt;Node7</title>
<path fill="none" stroke="midnightblue" d="M325.7,-246.5C316.07,-237.01 304.64,-225.76 295.56,-216.81"/>
<polygon fill="midnightblue" stroke="midnightblue" points="297.87,-214.18 288.29,-209.65 292.95,-219.16 297.87,-214.18"/>
</g>
<!-- Node12 -->
<g id="node12" class="node">
<title>Node12</title>
<g id="a_node12"><a xlink:title=" ">
<polygon fill="none" stroke="#bfbfbf" points="323.5,-190.5 323.5,-209.5 367.5,-209.5 367.5,-190.5 323.5,-190.5"/>
<text text-anchor="middle" x="345.5" y="-197.5" font-family="Helvetica,sans-Serif" font-size="10.00">string</text>
</a>
</g>
</g>
<!-- Node1&#45;&gt;Node12 -->
<g id="edge12" class="edge">
<title>Node1&#45;&gt;Node12</title>
<path fill="none" stroke="midnightblue" d="M345.5,-246.5C345.5,-238.07 345.5,-228.24 345.5,-219.87"/>
<polygon fill="midnightblue" stroke="midnightblue" points="349,-219.65 345.5,-209.65 342,-219.65 349,-219.65"/>
</g>
<!-- Node13 -->
<g id="node13" class="node">
<title>Node13</title>
<g id="a_node13"><a xlink:title=" ">
<polygon fill="none" stroke="#bfbfbf" points="386,-190.5 386,-209.5 433,-209.5 433,-190.5 386,-190.5"/>
<text text-anchor="middle" x="409.5" y="-197.5" font-family="Helvetica,sans-Serif" font-size="10.00">vector</text>
</a>
</g>
</g>
<!-- Node1&#45;&gt;Node13 -->
<g id="edge13" class="edge">
<title>Node1&#45;&gt;Node13</title>
<path fill="none" stroke="midnightblue" d="M364.7,-246.5C374.04,-237.01 385.13,-225.76 393.93,-216.81"/>
<polygon fill="midnightblue" stroke="midnightblue" points="396.46,-219.23 400.98,-209.65 391.47,-214.32 396.46,-219.23"/>
</g>
<!-- Node14 -->
<g id="node14" class="node">
<title>Node14</title>
<g id="a_node14"><a xlink:title=" ">
<polygon fill="none" stroke="#bfbfbf" points="451.5,-190.5 451.5,-209.5 489.5,-209.5 489.5,-190.5 451.5,-190.5"/>
<text text-anchor="middle" x="470.5" y="-197.5" font-family="Helvetica,sans-Serif" font-size="10.00">map</text>
</a>
</g>
</g>
<!-- Node1&#45;&gt;Node14 -->
<g id="edge14" class="edge">
<title>Node1&#45;&gt;Node14</title>
<path fill="none" stroke="midnightblue" d="M383,-246.5C402.91,-236.15 426.86,-223.69 444.66,-214.43"/>
<polygon fill="midnightblue" stroke="midnightblue" points="446.6,-217.37 453.86,-209.65 443.37,-211.16 446.6,-217.37"/>
</g>
<!-- Node3 -->
<g id="node3" class="node">
<title>Node3</title>
<g id="a_node3"><a xlink:href="../../d3/d41/_c_c_platform_macros_8h.html" target="_top" xlink:title=" ">
<polygon fill="none" stroke="black" points="94.5,-134.5 94.5,-153.5 210.5,-153.5 210.5,-134.5 94.5,-134.5"/>
<text text-anchor="middle" x="152.5" y="-141.5" font-family="Helvetica,sans-Serif" font-size="10.00">CCPlatformMacros.h</text>
</a>
</g>
</g>
<!-- Node2&#45;&gt;Node3 -->
<g id="edge2" class="edge">
<title>Node2&#45;&gt;Node3</title>
<path fill="none" stroke="midnightblue" d="M163.35,-190.08C161.63,-182.93 159.15,-172.64 157,-163.69"/>
<polygon fill="midnightblue" stroke="midnightblue" points="160.35,-162.65 154.61,-153.75 153.54,-164.29 160.35,-162.65"/>
</g>
<!-- Node4 -->
<g id="node4" class="node">
<title>Node4</title>
<g id="a_node4"><a xlink:href="../../db/d9f/cc_config_8h.html" target="_top" xlink:title="cocos2d (cc) configuration file">
<polygon fill="none" stroke="black" points="14,-67.5 14,-86.5 81,-86.5 81,-67.5 14,-67.5"/>
<text text-anchor="middle" x="47.5" y="-74.5" font-family="Helvetica,sans-Serif" font-size="10.00">ccConfig.h</text>
</a>
</g>
</g>
<!-- Node3&#45;&gt;Node4 -->
<g id="edge3" class="edge">
<title>Node3&#45;&gt;Node4</title>
<path fill="none" stroke="midnightblue" d="M138.34,-134.23C120.79,-123.37 90.66,-104.72 69.94,-91.89"/>
<polygon fill="midnightblue" stroke="midnightblue" points="71.78,-88.91 61.44,-86.63 68.1,-94.87 71.78,-88.91"/>
</g>
<!-- Node5 -->
<g id="node5" class="node">
<title>Node5</title>
<g id="a_node5"><a xlink:href="../../dd/d96/_c_c_platform_config_8h.html" target="_top" xlink:title=" ">
<polygon fill="none" stroke="black" points="0,-0.5 0,-19.5 157,-19.5 157,-0.5 0,-0.5"/>
<text text-anchor="middle" x="78.5" y="-7.5" font-family="Helvetica,sans-Serif" font-size="10.00">platform/CCPlatformConfig.h</text>
</a>
</g>
</g>
<!-- Node3&#45;&gt;Node5 -->
<g id="edge5" class="edge">
<title>Node3&#45;&gt;Node5</title>
<path fill="none" stroke="midnightblue" d="M147.64,-134.34C135.62,-112.89 104.28,-56.99 88.25,-28.4"/>
<polygon fill="midnightblue" stroke="midnightblue" points="91.22,-26.53 83.28,-19.52 85.11,-29.96 91.22,-26.53"/>
</g>
<!-- Node6 -->
<g id="node6" class="node">
<title>Node6</title>
<g id="a_node6"><a xlink:title=" ">
<polygon fill="none" stroke="#bfbfbf" points="138,-67.5 138,-86.5 251,-86.5 251,-67.5 138,-67.5"/>
<text text-anchor="middle" x="194.5" y="-74.5" font-family="Helvetica,sans-Serif" font-size="10.00">CCPlatformDefine.h</text>
</a>
</g>
</g>
<!-- Node3&#45;&gt;Node6 -->
<g id="edge6" class="edge">
<title>Node3&#45;&gt;Node6</title>
<path fill="none" stroke="midnightblue" d="M158.16,-134.23C164.59,-124.29 175.22,-107.84 183.33,-95.29"/>
<polygon fill="midnightblue" stroke="midnightblue" points="186.44,-96.93 188.93,-86.63 180.56,-93.13 186.44,-96.93"/>
</g>
<!-- Node4&#45;&gt;Node5 -->
<g id="edge4" class="edge">
<title>Node4&#45;&gt;Node5</title>
<path fill="none" stroke="midnightblue" d="M51.68,-67.23C56.38,-57.39 64.12,-41.16 70.08,-28.66"/>
<polygon fill="midnightblue" stroke="midnightblue" points="73.24,-30.16 74.39,-19.63 66.92,-27.15 73.24,-30.16"/>
</g>
<!-- Node8 -->
<g id="node8" class="node">
<title>Node8</title>
<g id="a_node8"><a xlink:href="../../d6/d08/_c_c_g_l___angle_8h.html" target="_top" xlink:title=" ">
<polygon fill="none" stroke="black" points="354,-134.5 354,-153.5 439,-153.5 439,-134.5 354,-134.5"/>
<text text-anchor="middle" x="396.5" y="-141.5" font-family="Helvetica,sans-Serif" font-size="10.00">CCGL_Angle.h</text>
</a>
</g>
</g>
<!-- Node7&#45;&gt;Node8 -->
<g id="edge8" class="edge">
<title>Node7&#45;&gt;Node8</title>
<path fill="none" stroke="midnightblue" d="M298.04,-190.44C317.12,-181.64 347.07,-167.81 368.94,-157.72"/>
<polygon fill="midnightblue" stroke="midnightblue" points="370.43,-160.88 378.05,-153.52 367.5,-154.53 370.43,-160.88"/>
</g>
<!-- Node9 -->
<g id="node9" class="node">
<title>Node9</title>
<g id="a_node9"><a xlink:title=" ">
<polygon fill="none" stroke="#bfbfbf" points="269,-56.5 269,-97.5 388,-97.5 388,-56.5 269,-56.5"/>
<text text-anchor="start" x="277" y="-85.5" font-family="Helvetica,sans-Serif" font-size="10.00">../third_party/winrt</text>
<text text-anchor="start" x="277" y="-74.5" font-family="Helvetica,sans-Serif" font-size="10.00">/angleproject/include</text>
<text text-anchor="middle" x="328.5" y="-63.5" font-family="Helvetica,sans-Serif" font-size="10.00">/GLES2/gl2.h</text>
</a>
</g>
</g>
<!-- Node8&#45;&gt;Node9 -->
<g id="edge9" class="edge">
<title>Node8&#45;&gt;Node9</title>
<path fill="none" stroke="midnightblue" d="M387.33,-134.23C379.38,-126.63 367.44,-115.22 356.39,-104.66"/>
<polygon fill="midnightblue" stroke="midnightblue" points="358.59,-101.92 348.94,-97.54 353.75,-106.98 358.59,-101.92"/>
</g>
<!-- Node10 -->
<g id="node10" class="node">
<title>Node10</title>
<g id="a_node10"><a xlink:title=" ">
<polygon fill="none" stroke="#bfbfbf" points="406,-56.5 406,-97.5 525,-97.5 525,-56.5 406,-56.5"/>
<text text-anchor="start" x="414" y="-85.5" font-family="Helvetica,sans-Serif" font-size="10.00">../third_party/winrt</text>
<text text-anchor="start" x="414" y="-74.5" font-family="Helvetica,sans-Serif" font-size="10.00">/angleproject/include</text>
<text text-anchor="middle" x="465.5" y="-63.5" font-family="Helvetica,sans-Serif" font-size="10.00">/GLES2/gl2ext.h</text>
</a>
</g>
</g>
<!-- Node8&#45;&gt;Node10 -->
<g id="edge10" class="edge">
<title>Node8&#45;&gt;Node10</title>
<path fill="none" stroke="midnightblue" d="M405.81,-134.23C413.88,-126.63 425.99,-115.22 437.2,-104.66"/>
<polygon fill="midnightblue" stroke="midnightblue" points="439.88,-106.95 444.76,-97.54 435.08,-101.85 439.88,-106.95"/>
</g>
<!-- Node11 -->
<g id="node11" class="node">
<title>Node11</title>
<g id="a_node11"><a xlink:title=" ">
<polygon fill="none" stroke="#bfbfbf" points="543,-56.5 543,-97.5 686,-97.5 686,-56.5 543,-56.5"/>
<text text-anchor="start" x="551" y="-85.5" font-family="Helvetica,sans-Serif" font-size="10.00">../third_party/winrt</text>
<text text-anchor="start" x="551" y="-74.5" font-family="Helvetica,sans-Serif" font-size="10.00">/angleproject/src/common</text>
<text text-anchor="middle" x="614.5" y="-63.5" font-family="Helvetica,sans-Serif" font-size="10.00">/winrtangle.h</text>
</a>
</g>
</g>
<!-- Node8&#45;&gt;Node11 -->
<g id="edge11" class="edge">
<title>Node8&#45;&gt;Node11</title>
<path fill="none" stroke="midnightblue" d="M425.45,-134.37C454.28,-125.77 499.76,-112.21 538.88,-100.55"/>
<polygon fill="midnightblue" stroke="midnightblue" points="540.1,-103.84 548.68,-97.63 538.1,-97.13 540.1,-103.84"/>
</g>
</g>
</svg>
