<?xml version="1.0" encoding="UTF-8" standalone="no"?>
<!DOCTYPE svg PUBLIC "-//W3C//DTD SVG 1.1//EN"
 "http://www.w3.org/Graphics/SVG/1.1/DTD/svg11.dtd">
<!-- Generated by graphviz version 2.43.0 (0)
 -->
<!-- Title: /home/runner/work/cocos2d.h/cocos2d.h/cocos2dx/base_nodes/CCAtlasNode.h Pages: 1 -->
<svg width="2445pt" height="918pt"
 viewBox="0.00 0.00 2445.00 918.00" xmlns="http://www.w3.org/2000/svg" xmlns:xlink="http://www.w3.org/1999/xlink">
<g id="graph0" class="graph" transform="scale(1 1) rotate(0) translate(4 914)">
<title>/home/runner/work/cocos2d.h/cocos2d.h/cocos2dx/base_nodes/CCAtlasNode.h</title>
<!-- Node1 -->
<g id="node1" class="node">
<title>Node1</title>
<g id="a_node1"><a xlink:title=" ">
<polygon fill="#999999" stroke="#666666" points="893,-910 732,-910 732,-869 893,-869 893,-910"/>
<text text-anchor="start" x="740" y="-898" font-family="Helvetica,sans-Serif" font-size="10.00">/home/runner/work/cocos2d.h</text>
<text text-anchor="start" x="740" y="-887" font-family="Helvetica,sans-Serif" font-size="10.00">/cocos2d.h/cocos2dx/base</text>
<text text-anchor="middle" x="812.5" y="-876" font-family="Helvetica,sans-Serif" font-size="10.00">_nodes/CCAtlasNode.h</text>
</a>
</g>
</g>
<!-- Node2 -->
<g id="node2" class="node">
<title>Node2</title>
<g id="a_node2"><a xlink:href="../../dc/dfd/cocos2d_8h.html" target="_top" xlink:title=" ">
<polygon fill="white" stroke="#666666" points="782,-602 621,-602 621,-561 782,-561 782,-602"/>
<text text-anchor="start" x="629" y="-590" font-family="Helvetica,sans-Serif" font-size="10.00">/home/runner/work/cocos2d.h</text>
<text text-anchor="start" x="629" y="-579" font-family="Helvetica,sans-Serif" font-size="10.00">/cocos2d.h/cocos2dx/include</text>
<text text-anchor="middle" x="701.5" y="-568" font-family="Helvetica,sans-Serif" font-size="10.00">/cocos2d.h</text>
</a>
</g>
</g>
<!-- Node1&#45;&gt;Node2 -->
<g id="edge1" class="edge">
<title>Node1&#45;&gt;Node2</title>
<path fill="none" stroke="#63b8ff" d="M722.1,-872.67C657.32,-855.93 575.14,-822.3 537.5,-756 526.03,-735.79 538.92,-647.53 546.5,-638 564.73,-615.07 593.21,-601.6 620.81,-593.7"/>
<polygon fill="#63b8ff" stroke="#63b8ff" points="721.38,-876.1 731.93,-875.11 723.07,-869.3 721.38,-876.1"/>
</g>
<!-- Node32 -->
<g id="node32" class="node">
<title>Node32</title>
<g id="a_node32"><a xlink:href="../../df/d80/_c_c_label_atlas_8h.html" target="_top" xlink:title=" ">
<polygon fill="white" stroke="#666666" points="837,-833 676,-833 676,-792 837,-792 837,-833"/>
<text text-anchor="start" x="684" y="-821" font-family="Helvetica,sans-Serif" font-size="10.00">/home/runner/work/cocos2d.h</text>
<text text-anchor="start" x="684" y="-810" font-family="Helvetica,sans-Serif" font-size="10.00">/cocos2d.h/cocos2dx/label</text>
<text text-anchor="middle" x="756.5" y="-799" font-family="Helvetica,sans-Serif" font-size="10.00">_nodes/CCLabelAtlas.h</text>
</a>
</g>
</g>
<!-- Node1&#45;&gt;Node32 -->
<g id="edge59" class="edge">
<title>Node1&#45;&gt;Node32</title>
<path fill="none" stroke="#63b8ff" d="M791.72,-860.67C784.87,-851.5 777.4,-841.5 771.12,-833.07"/>
<polygon fill="#63b8ff" stroke="#63b8ff" points="789,-862.88 797.79,-868.79 794.61,-858.69 789,-862.88"/>
</g>
<!-- Node35 -->
<g id="node35" class="node">
<title>Node35</title>
<g id="a_node35"><a xlink:href="../../db/d60/_c_c_t_m_x_layer_8h.html" target="_top" xlink:title=" ">
<polygon fill="white" stroke="#666666" points="954.5,-756 784.5,-756 784.5,-715 954.5,-715 954.5,-756"/>
<text text-anchor="start" x="792.5" y="-744" font-family="Helvetica,sans-Serif" font-size="10.00">/home/runner/work/cocos2d.h</text>
<text text-anchor="start" x="792.5" y="-733" font-family="Helvetica,sans-Serif" font-size="10.00">/cocos2d.h/cocos2dx/tilemap</text>
<text text-anchor="middle" x="869.5" y="-722" font-family="Helvetica,sans-Serif" font-size="10.00">_parallax_nodes/CCTMXLayer.h</text>
</a>
</g>
</g>
<!-- Node1&#45;&gt;Node35 -->
<g id="edge65" class="edge">
<title>Node1&#45;&gt;Node35</title>
<path fill="none" stroke="#63b8ff" d="M831.49,-860.2C836.58,-851.72 841.71,-842.21 845.5,-833 856,-807.45 862.75,-776.14 866.34,-756.26"/>
<polygon fill="#63b8ff" stroke="#63b8ff" points="828.36,-858.6 826.05,-868.94 834.3,-862.3 828.36,-858.6"/>
</g>
<!-- Node36 -->
<g id="node36" class="node">
<title>Node36</title>
<g id="a_node36"><a xlink:href="../../d1/d1b/_c_c_tile_map_atlas_8h.html" target="_top" xlink:title=" ">
<polygon fill="white" stroke="#666666" points="1058,-679 873,-679 873,-638 1058,-638 1058,-679"/>
<text text-anchor="start" x="881" y="-667" font-family="Helvetica,sans-Serif" font-size="10.00">/home/runner/work/cocos2d.h</text>
<text text-anchor="start" x="881" y="-656" font-family="Helvetica,sans-Serif" font-size="10.00">/cocos2d.h/cocos2dx/tilemap</text>
<text text-anchor="middle" x="965.5" y="-645" font-family="Helvetica,sans-Serif" font-size="10.00">_parallax_nodes/CCTileMapAtlas.h</text>
</a>
</g>
</g>
<!-- Node1&#45;&gt;Node36 -->
<g id="edge67" class="edge">
<title>Node1&#45;&gt;Node36</title>
<path fill="none" stroke="#63b8ff" d="M857.51,-863.47C893.5,-840.67 941.45,-803.37 963.5,-756 974.96,-731.39 972.71,-699.28 969.52,-679.02"/>
<polygon fill="#63b8ff" stroke="#63b8ff" points="855.31,-860.71 848.64,-868.95 858.99,-866.67 855.31,-860.71"/>
</g>
<!-- Node3 -->
<g id="node3" class="node">
<title>Node3</title>
<g id="a_node3"><a xlink:href="../../d4/d5d/_d_s___dictionary_8h.html" target="_top" xlink:title=" ">
<polygon fill="white" stroke="#666666" points="164,-525 3,-525 3,-484 164,-484 164,-525"/>
<text text-anchor="start" x="11" y="-513" font-family="Helvetica,sans-Serif" font-size="10.00">/home/runner/work/cocos2d.h</text>
<text text-anchor="start" x="11" y="-502" font-family="Helvetica,sans-Serif" font-size="10.00">/cocos2d.h/cocos2dx/robtop</text>
<text text-anchor="middle" x="83.5" y="-491" font-family="Helvetica,sans-Serif" font-size="10.00">/xml/DS_Dictionary.h</text>
</a>
</g>
</g>
<!-- Node2&#45;&gt;Node3 -->
<g id="edge2" class="edge">
<title>Node2&#45;&gt;Node3</title>
<path fill="none" stroke="#63b8ff" d="M610.49,-574.53C503.14,-566.49 319.75,-550.21 163.97,-525.08"/>
<polygon fill="#63b8ff" stroke="#63b8ff" points="610.41,-578.04 620.64,-575.29 610.92,-571.05 610.41,-578.04"/>
</g>
<!-- Node4 -->
<g id="node4" class="node">
<title>Node4</title>
<g id="a_node4"><a xlink:href="../../d3/db7/_assets_manager_8h.html" target="_top" xlink:title=" ">
<polygon fill="white" stroke="#666666" points="385,-525 182,-525 182,-484 385,-484 385,-525"/>
<text text-anchor="start" x="190" y="-513" font-family="Helvetica,sans-Serif" font-size="10.00">/home/runner/work/cocos2d.h</text>
<text text-anchor="start" x="190" y="-502" font-family="Helvetica,sans-Serif" font-size="10.00">/cocos2d.h/extensions/AssetsManager</text>
<text text-anchor="middle" x="283.5" y="-491" font-family="Helvetica,sans-Serif" font-size="10.00">/AssetsManager.h</text>
</a>
</g>
</g>
<!-- Node2&#45;&gt;Node4 -->
<g id="edge4" class="edge">
<title>Node2&#45;&gt;Node4</title>
<path fill="none" stroke="#63b8ff" d="M610.87,-564.24C544.45,-552.32 454.23,-536.13 385.32,-523.77"/>
<polygon fill="#63b8ff" stroke="#63b8ff" points="610.44,-567.72 620.91,-566.04 611.68,-560.83 610.44,-567.72"/>
</g>
<!-- Node5 -->
<g id="node5" class="node">
<title>Node5</title>
<g id="a_node5"><a xlink:href="../../de/d8b/_c_c_control_8h.html" target="_top" xlink:title=" ">
<polygon fill="white" stroke="#666666" points="1584,-525 1407,-525 1407,-484 1584,-484 1584,-525"/>
<text text-anchor="start" x="1415" y="-513" font-family="Helvetica,sans-Serif" font-size="10.00">/home/runner/work/cocos2d.h</text>
<text text-anchor="start" x="1415" y="-502" font-family="Helvetica,sans-Serif" font-size="10.00">/cocos2d.h/extensions/GUI</text>
<text text-anchor="middle" x="1495.5" y="-491" font-family="Helvetica,sans-Serif" font-size="10.00">/CCControlExtension/CCControl.h</text>
</a>
</g>
</g>
<!-- Node2&#45;&gt;Node5 -->
<g id="edge5" class="edge">
<title>Node2&#45;&gt;Node5</title>
<path fill="none" stroke="#63b8ff" d="M792.34,-571.92C945.91,-557.41 1254.93,-528.22 1406.94,-513.87"/>
<polygon fill="#63b8ff" stroke="#63b8ff" points="791.63,-568.47 782,-572.9 792.29,-575.44 791.63,-568.47"/>
</g>
<!-- Node8 -->
<g id="node8" class="node">
<title>Node8</title>
<g id="a_node8"><a xlink:href="../../dc/d4a/_c_c_edit_box_8h.html" target="_top" xlink:title=" ">
<polygon fill="white" stroke="#666666" points="1191,-195 1030,-195 1030,-154 1191,-154 1191,-195"/>
<text text-anchor="start" x="1038" y="-183" font-family="Helvetica,sans-Serif" font-size="10.00">/home/runner/work/cocos2d.h</text>
<text text-anchor="start" x="1038" y="-172" font-family="Helvetica,sans-Serif" font-size="10.00">/cocos2d.h/extensions/GUI</text>
<text text-anchor="middle" x="1110.5" y="-161" font-family="Helvetica,sans-Serif" font-size="10.00">/CCEditBox/CCEditBox.h</text>
</a>
</g>
</g>
<!-- Node2&#45;&gt;Node8 -->
<g id="edge38" class="edge">
<title>Node2&#45;&gt;Node8</title>
<path fill="none" stroke="#63b8ff" d="M699.07,-550.89C696.25,-496.17 698.21,-378.36 758.5,-308 827.01,-228.05 948.87,-196.25 1029.69,-183.66"/>
<polygon fill="#63b8ff" stroke="#63b8ff" points="695.58,-551.2 699.68,-560.97 702.57,-550.77 695.58,-551.2"/>
</g>
<!-- Node9 -->
<g id="node9" class="node">
<title>Node9</title>
<g id="a_node9"><a xlink:href="../../db/da9/_c_c_edit_box_impl_8h.html" target="_top" xlink:title=" ">
<polygon fill="white" stroke="#666666" points="679,-118 518,-118 518,-77 679,-77 679,-118"/>
<text text-anchor="start" x="526" y="-106" font-family="Helvetica,sans-Serif" font-size="10.00">/home/runner/work/cocos2d.h</text>
<text text-anchor="start" x="526" y="-95" font-family="Helvetica,sans-Serif" font-size="10.00">/cocos2d.h/extensions/GUI</text>
<text text-anchor="middle" x="598.5" y="-84" font-family="Helvetica,sans-Serif" font-size="10.00">/CCEditBox/CCEditBoxImpl.h</text>
</a>
</g>
</g>
<!-- Node2&#45;&gt;Node9 -->
<g id="edge39" class="edge">
<title>Node2&#45;&gt;Node9</title>
<path fill="none" stroke="#63b8ff" d="M673.03,-553.51C645.37,-524.25 607.5,-474.74 607.5,-423 607.5,-423 607.5,-423 607.5,-250.5 607.5,-202.92 603.05,-147.1 600.41,-118.15"/>
<polygon fill="#63b8ff" stroke="#63b8ff" points="670.69,-556.13 680.17,-560.86 675.71,-551.25 670.69,-556.13"/>
</g>
<!-- Node10 -->
<g id="node10" class="node">
<title>Node10</title>
<g id="a_node10"><a xlink:href="../../d4/dd3/_c_c_edit_box_impl_android_8h.html" target="_top" xlink:title=" ">
<polygon fill="white" stroke="#666666" points="193,-41 0,-41 0,0 193,0 193,-41"/>
<text text-anchor="start" x="8" y="-29" font-family="Helvetica,sans-Serif" font-size="10.00">/home/runner/work/cocos2d.h</text>
<text text-anchor="start" x="8" y="-18" font-family="Helvetica,sans-Serif" font-size="10.00">/cocos2d.h/extensions/GUI</text>
<text text-anchor="middle" x="96.5" y="-7" font-family="Helvetica,sans-Serif" font-size="10.00">/CCEditBox/CCEditBoxImplAndroid.h</text>
</a>
</g>
</g>
<!-- Node2&#45;&gt;Node10 -->
<g id="edge40" class="edge">
<title>Node2&#45;&gt;Node10</title>
<path fill="none" stroke="#63b8ff" d="M610.77,-577.7C562.6,-572 504.96,-557.98 463.5,-525 423.99,-493.57 413.5,-473.49 413.5,-423 413.5,-423 413.5,-423 413.5,-173.5 413.5,-119.79 263.67,-68.09 170.02,-41.02"/>
<polygon fill="#63b8ff" stroke="#63b8ff" points="610.58,-581.2 620.89,-578.79 611.33,-574.24 610.58,-581.2"/>
</g>
<!-- Node11 -->
<g id="node11" class="node">
<title>Node11</title>
<g id="a_node11"><a xlink:href="../../dd/dfd/_c_c_edit_box_impl_i_o_s_8h.html" target="_top" xlink:title=" ">
<polygon fill="white" stroke="#666666" points="383.5,-41 211.5,-41 211.5,0 383.5,0 383.5,-41"/>
<text text-anchor="start" x="219.5" y="-29" font-family="Helvetica,sans-Serif" font-size="10.00">/home/runner/work/cocos2d.h</text>
<text text-anchor="start" x="219.5" y="-18" font-family="Helvetica,sans-Serif" font-size="10.00">/cocos2d.h/extensions/GUI</text>
<text text-anchor="middle" x="297.5" y="-7" font-family="Helvetica,sans-Serif" font-size="10.00">/CCEditBox/CCEditBoxImplIOS.h</text>
</a>
</g>
</g>
<!-- Node2&#45;&gt;Node11 -->
<g id="edge41" class="edge">
<title>Node2&#45;&gt;Node11</title>
<path fill="none" stroke="#63b8ff" d="M610.67,-569.43C575.87,-561.55 537.59,-548.07 508.5,-525 467.81,-492.73 451.5,-474.93 451.5,-423 451.5,-423 451.5,-423 451.5,-173.5 451.5,-129.3 456.16,-110.64 427.5,-77 413.74,-60.84 394.43,-49.26 374.9,-41.02"/>
<polygon fill="#63b8ff" stroke="#63b8ff" points="610.35,-572.94 620.86,-571.6 611.81,-566.09 610.35,-572.94"/>
</g>
<!-- Node12 -->
<g id="node12" class="node">
<title>Node12</title>
<g id="a_node12"><a xlink:href="../../d7/d4d/_c_c_edit_box_impl_mac_8h.html" target="_top" xlink:title=" ">
<polygon fill="white" stroke="#666666" points="577.5,-41 401.5,-41 401.5,0 577.5,0 577.5,-41"/>
<text text-anchor="start" x="409.5" y="-29" font-family="Helvetica,sans-Serif" font-size="10.00">/home/runner/work/cocos2d.h</text>
<text text-anchor="start" x="409.5" y="-18" font-family="Helvetica,sans-Serif" font-size="10.00">/cocos2d.h/extensions/GUI</text>
<text text-anchor="middle" x="489.5" y="-7" font-family="Helvetica,sans-Serif" font-size="10.00">/CCEditBox/CCEditBoxImplMac.h</text>
</a>
</g>
</g>
<!-- Node2&#45;&gt;Node12 -->
<g id="edge42" class="edge">
<title>Node2&#45;&gt;Node12</title>
<path fill="none" stroke="#63b8ff" d="M623.1,-557.44C562.72,-534.28 489.5,-491.98 489.5,-423 489.5,-423 489.5,-423 489.5,-173.5 489.5,-126 489.5,-70.15 489.5,-41.18"/>
<polygon fill="#63b8ff" stroke="#63b8ff" points="622.08,-560.79 632.67,-560.99 624.51,-554.23 622.08,-560.79"/>
</g>
<!-- Node13 -->
<g id="node13" class="node">
<title>Node13</title>
<g id="a_node13"><a xlink:href="../../de/dac/_c_c_edit_box_impl_tizen_8h.html" target="_top" xlink:title=" ">
<polygon fill="white" stroke="#666666" points="972.5,-41 790.5,-41 790.5,0 972.5,0 972.5,-41"/>
<text text-anchor="start" x="798.5" y="-29" font-family="Helvetica,sans-Serif" font-size="10.00">/home/runner/work/cocos2d.h</text>
<text text-anchor="start" x="798.5" y="-18" font-family="Helvetica,sans-Serif" font-size="10.00">/cocos2d.h/extensions/GUI</text>
<text text-anchor="middle" x="881.5" y="-7" font-family="Helvetica,sans-Serif" font-size="10.00">/CCEditBox/CCEditBoxImplTizen.h</text>
</a>
</g>
</g>
<!-- Node2&#45;&gt;Node13 -->
<g id="edge43" class="edge">
<title>Node2&#45;&gt;Node13</title>
<path fill="none" stroke="#63b8ff" d="M690.17,-551.58C678.97,-520.37 663.5,-468.94 663.5,-423 663.5,-423 663.5,-423 663.5,-333 663.5,-293.02 729.13,-79.56 731.5,-77 747.26,-59.99 768.7,-48.18 790.43,-39.97"/>
<polygon fill="#63b8ff" stroke="#63b8ff" points="686.88,-552.8 693.63,-560.98 693.45,-550.38 686.88,-552.8"/>
</g>
<!-- Node14 -->
<g id="node14" class="node">
<title>Node14</title>
<g id="a_node14"><a xlink:href="../../dd/d41/_c_c_edit_box_impl_win_8h.html" target="_top" xlink:title=" ">
<polygon fill="white" stroke="#666666" points="1164.5,-41 990.5,-41 990.5,0 1164.5,0 1164.5,-41"/>
<text text-anchor="start" x="998.5" y="-29" font-family="Helvetica,sans-Serif" font-size="10.00">/home/runner/work/cocos2d.h</text>
<text text-anchor="start" x="998.5" y="-18" font-family="Helvetica,sans-Serif" font-size="10.00">/cocos2d.h/extensions/GUI</text>
<text text-anchor="middle" x="1077.5" y="-7" font-family="Helvetica,sans-Serif" font-size="10.00">/CCEditBox/CCEditBoxImplWin.h</text>
</a>
</g>
</g>
<!-- Node2&#45;&gt;Node14 -->
<g id="edge44" class="edge">
<title>Node2&#45;&gt;Node14</title>
<path fill="none" stroke="#63b8ff" d="M701.8,-550.58C703.56,-498.02 712.89,-387.18 758.5,-308 830.95,-182.22 978.12,-81.83 1044.14,-41.12"/>
<polygon fill="#63b8ff" stroke="#63b8ff" points="698.29,-550.79 701.53,-560.88 705.29,-550.98 698.29,-550.79"/>
</g>
<!-- Node25 -->
<g id="node25" class="node">
<title>Node25</title>
<g id="a_node25"><a xlink:href="../../db/d24/_c_c_scale9_sprite_8h.html" target="_top" xlink:title=" ">
<polygon fill="white" stroke="#666666" points="1954,-525 1751,-525 1751,-484 1954,-484 1954,-525"/>
<text text-anchor="start" x="1759" y="-513" font-family="Helvetica,sans-Serif" font-size="10.00">/home/runner/work/cocos2d.h</text>
<text text-anchor="start" x="1759" y="-502" font-family="Helvetica,sans-Serif" font-size="10.00">/cocos2d.h/extensions/GUI</text>
<text text-anchor="middle" x="1852.5" y="-491" font-family="Helvetica,sans-Serif" font-size="10.00">/CCControlExtension/CCScale9Sprite.h</text>
</a>
</g>
</g>
<!-- Node2&#45;&gt;Node25 -->
<g id="edge35" class="edge">
<title>Node2&#45;&gt;Node25</title>
<path fill="none" stroke="#63b8ff" d="M792.45,-575.23C953.81,-565.8 1300.79,-545.12 1593.5,-525 1645.35,-521.44 1703,-517.13 1750.73,-513.47"/>
<polygon fill="#63b8ff" stroke="#63b8ff" points="791.87,-571.76 782.09,-575.84 792.27,-578.75 791.87,-571.76"/>
</g>
<!-- Node26 -->
<g id="node26" class="node">
<title>Node26</title>
<g id="a_node26"><a xlink:href="../../de/d56/_c_c_scroll_view_8h.html" target="_top" xlink:title=" ">
<polygon fill="white" stroke="#666666" points="2065,-272 1904,-272 1904,-231 2065,-231 2065,-272"/>
<text text-anchor="start" x="1912" y="-260" font-family="Helvetica,sans-Serif" font-size="10.00">/home/runner/work/cocos2d.h</text>
<text text-anchor="start" x="1912" y="-249" font-family="Helvetica,sans-Serif" font-size="10.00">/cocos2d.h/extensions/GUI</text>
<text text-anchor="middle" x="1984.5" y="-238" font-family="Helvetica,sans-Serif" font-size="10.00">/CCScrollView/CCScrollView.h</text>
</a>
</g>
</g>
<!-- Node2&#45;&gt;Node26 -->
<g id="edge45" class="edge">
<title>Node2&#45;&gt;Node26</title>
<path fill="none" stroke="#63b8ff" d="M792.57,-578.75C1073.8,-573.06 1912.71,-553.74 1963.5,-525 1981.36,-514.89 2008.58,-467.65 2014.5,-448 2033.36,-385.36 2007.54,-307.69 1993.09,-272.04"/>
<polygon fill="#63b8ff" stroke="#63b8ff" points="792.33,-575.26 782.4,-578.96 792.47,-582.25 792.33,-575.26"/>
</g>
<!-- Node28 -->
<g id="node28" class="node">
<title>Node28</title>
<g id="a_node28"><a xlink:href="../../d8/d12/_http_client_8h.html" target="_top" xlink:title=" ">
<polygon fill="white" stroke="#666666" points="2288,-354.5 2121,-354.5 2121,-313.5 2288,-313.5 2288,-354.5"/>
<text text-anchor="start" x="2129" y="-342.5" font-family="Helvetica,sans-Serif" font-size="10.00">/home/runner/work/cocos2d.h</text>
<text text-anchor="start" x="2129" y="-331.5" font-family="Helvetica,sans-Serif" font-size="10.00">/cocos2d.h/extensions/network</text>
<text text-anchor="middle" x="2204.5" y="-320.5" font-family="Helvetica,sans-Serif" font-size="10.00">/HttpClient.h</text>
</a>
</g>
</g>
<!-- Node2&#45;&gt;Node28 -->
<g id="edge49" class="edge">
<title>Node2&#45;&gt;Node28</title>
<path fill="none" stroke="#63b8ff" d="M792.58,-580.37C1107.77,-579.49 2135.72,-572.96 2186.5,-525 2233.47,-480.64 2219.33,-393.62 2209.92,-354.67"/>
<polygon fill="#63b8ff" stroke="#63b8ff" points="792.11,-576.87 782.12,-580.4 792.13,-583.87 792.11,-576.87"/>
</g>
<!-- Node29 -->
<g id="node29" class="node">
<title>Node29</title>
<g id="a_node29"><a xlink:href="../../d3/d95/_http_request_8h.html" target="_top" xlink:title=" ">
<polygon fill="white" stroke="#666666" points="2177,-525 2010,-525 2010,-484 2177,-484 2177,-525"/>
<text text-anchor="start" x="2018" y="-513" font-family="Helvetica,sans-Serif" font-size="10.00">/home/runner/work/cocos2d.h</text>
<text text-anchor="start" x="2018" y="-502" font-family="Helvetica,sans-Serif" font-size="10.00">/cocos2d.h/extensions/network</text>
<text text-anchor="middle" x="2093.5" y="-491" font-family="Helvetica,sans-Serif" font-size="10.00">/HttpRequest.h</text>
</a>
</g>
</g>
<!-- Node2&#45;&gt;Node29 -->
<g id="edge51" class="edge">
<title>Node2&#45;&gt;Node29</title>
<path fill="none" stroke="#63b8ff" d="M792.44,-578.44C1046.94,-572.4 1762.94,-553.31 1996.5,-525 2000.85,-524.47 2005.29,-523.86 2009.77,-523.18"/>
<polygon fill="#63b8ff" stroke="#63b8ff" points="792.04,-574.95 782.13,-578.69 792.21,-581.95 792.04,-574.95"/>
</g>
<!-- Node30 -->
<g id="node30" class="node">
<title>Node30</title>
<g id="a_node30"><a xlink:href="../../d1/d33/_http_response_8h.html" target="_top" xlink:title=" ">
<polygon fill="white" stroke="#666666" points="2399,-442.5 2232,-442.5 2232,-401.5 2399,-401.5 2399,-442.5"/>
<text text-anchor="start" x="2240" y="-430.5" font-family="Helvetica,sans-Serif" font-size="10.00">/home/runner/work/cocos2d.h</text>
<text text-anchor="start" x="2240" y="-419.5" font-family="Helvetica,sans-Serif" font-size="10.00">/cocos2d.h/extensions/network</text>
<text text-anchor="middle" x="2315.5" y="-408.5" font-family="Helvetica,sans-Serif" font-size="10.00">/HttpResponse.h</text>
</a>
</g>
</g>
<!-- Node2&#45;&gt;Node30 -->
<g id="edge57" class="edge">
<title>Node2&#45;&gt;Node30</title>
<path fill="none" stroke="#63b8ff" d="M792.32,-579.07C1109.66,-573.81 2153.36,-554.37 2218.5,-525 2228.58,-520.46 2272.9,-471.35 2298,-442.96"/>
<polygon fill="#63b8ff" stroke="#63b8ff" points="792.18,-575.57 782.24,-579.23 792.3,-582.57 792.18,-575.57"/>
</g>
<!-- Node31 -->
<g id="node31" class="node">
<title>Node31</title>
<g id="a_node31"><a xlink:href="../../da/d1e/_web_socket_8h.html" target="_top" xlink:title=" ">
<polygon fill="white" stroke="#666666" points="2437,-525 2270,-525 2270,-484 2437,-484 2437,-525"/>
<text text-anchor="start" x="2278" y="-513" font-family="Helvetica,sans-Serif" font-size="10.00">/home/runner/work/cocos2d.h</text>
<text text-anchor="start" x="2278" y="-502" font-family="Helvetica,sans-Serif" font-size="10.00">/cocos2d.h/extensions/network</text>
<text text-anchor="middle" x="2353.5" y="-491" font-family="Helvetica,sans-Serif" font-size="10.00">/WebSocket.h</text>
</a>
</g>
</g>
<!-- Node2&#45;&gt;Node31 -->
<g id="edge58" class="edge">
<title>Node2&#45;&gt;Node31</title>
<path fill="none" stroke="#63b8ff" d="M792.72,-579.19C1081,-574.76 1970.28,-558.65 2256.5,-525 2260.85,-524.49 2265.3,-523.89 2269.78,-523.21"/>
<polygon fill="#63b8ff" stroke="#63b8ff" points="792.25,-575.7 782.31,-579.35 792.36,-582.7 792.25,-575.7"/>
</g>
<!-- Node3&#45;&gt;Node2 -->
<g id="edge3" class="edge">
<title>Node3&#45;&gt;Node2</title>
<path fill="none" stroke="#63b8ff" d="M174.3,-523.79C176.72,-524.21 179.13,-524.62 181.5,-525 336.25,-549.99 518.37,-566.24 620.89,-574.36"/>
<polygon fill="#63b8ff" stroke="#63b8ff" points="174.7,-520.3 164.23,-521.94 173.44,-527.19 174.7,-520.3"/>
</g>
<!-- Node6 -->
<g id="node6" class="node">
<title>Node6</title>
<g id="a_node6"><a xlink:href="../../d0/d7e/_c_c_control_button_8h.html" target="_top" xlink:title=" ">
<polygon fill="white" stroke="#666666" points="1989,-442.5 1780,-442.5 1780,-401.5 1989,-401.5 1989,-442.5"/>
<text text-anchor="start" x="1788" y="-430.5" font-family="Helvetica,sans-Serif" font-size="10.00">/home/runner/work/cocos2d.h</text>
<text text-anchor="start" x="1788" y="-419.5" font-family="Helvetica,sans-Serif" font-size="10.00">/cocos2d.h/extensions/GUI</text>
<text text-anchor="middle" x="1884.5" y="-408.5" font-family="Helvetica,sans-Serif" font-size="10.00">/CCControlExtension/CCControlButton.h</text>
</a>
</g>
</g>
<!-- Node5&#45;&gt;Node6 -->
<g id="edge6" class="edge">
<title>Node5&#45;&gt;Node6</title>
<path fill="none" stroke="#63b8ff" d="M1594.34,-483.29C1645.45,-472.81 1708.84,-459.78 1765.5,-448 1773.97,-446.24 1782.79,-444.4 1791.61,-442.56"/>
<polygon fill="#63b8ff" stroke="#63b8ff" points="1593.39,-479.91 1584.29,-485.35 1594.79,-486.77 1593.39,-479.91"/>
</g>
<!-- Node7 -->
<g id="node7" class="node">
<title>Node7</title>
<g id="a_node7"><a xlink:href="../../d6/d86/_c_c_control_extensions_8h.html" target="_top" xlink:title=" ">
<polygon fill="white" stroke="#666666" points="1611.5,-272 1381.5,-272 1381.5,-231 1611.5,-231 1611.5,-272"/>
<text text-anchor="start" x="1389.5" y="-260" font-family="Helvetica,sans-Serif" font-size="10.00">/home/runner/work/cocos2d.h</text>
<text text-anchor="start" x="1389.5" y="-249" font-family="Helvetica,sans-Serif" font-size="10.00">/cocos2d.h/extensions/GUI</text>
<text text-anchor="middle" x="1496.5" y="-238" font-family="Helvetica,sans-Serif" font-size="10.00">/CCControlExtension/CCControlExtensions.h</text>
</a>
</g>
</g>
<!-- Node5&#45;&gt;Node7 -->
<g id="edge20" class="edge">
<title>Node5&#45;&gt;Node7</title>
<path fill="none" stroke="#63b8ff" d="M1396.72,-501.54C1234.39,-497.28 925.75,-484.45 892.5,-448 876.92,-430.93 879.44,-415.06 892.5,-396 917.55,-359.44 950.17,-386.76 985.5,-360 1008.53,-342.56 999.46,-322.41 1024.5,-308 1083.32,-274.15 1261.44,-260.89 1381.25,-255.73"/>
<polygon fill="#63b8ff" stroke="#63b8ff" points="1396.64,-505.04 1406.72,-501.8 1396.82,-498.04 1396.64,-505.04"/>
</g>
<!-- Node17 -->
<g id="node17" class="node">
<title>Node17</title>
<g id="a_node17"><a xlink:href="../../d3/db7/_c_c_control_colour_picker_8h.html" target="_top" xlink:title=" ">
<polygon fill="white" stroke="#666666" points="1233.5,-360 1033.5,-360 1033.5,-308 1233.5,-308 1233.5,-360"/>
<text text-anchor="start" x="1041.5" y="-348" font-family="Helvetica,sans-Serif" font-size="10.00">/home/runner/work/cocos2d.h</text>
<text text-anchor="start" x="1041.5" y="-337" font-family="Helvetica,sans-Serif" font-size="10.00">/cocos2d.h/extensions/GUI</text>
<text text-anchor="start" x="1041.5" y="-326" font-family="Helvetica,sans-Serif" font-size="10.00">/CCControlExtension/CCControlColour</text>
<text text-anchor="middle" x="1133.5" y="-315" font-family="Helvetica,sans-Serif" font-size="10.00">Picker.h</text>
</a>
</g>
</g>
<!-- Node5&#45;&gt;Node17 -->
<g id="edge18" class="edge">
<title>Node5&#45;&gt;Node17</title>
<path fill="none" stroke="#63b8ff" d="M1582.89,-479.43C1597.01,-471.67 1609.82,-461.45 1618.5,-448 1631.04,-428.59 1634.04,-413.1 1618.5,-396 1590.27,-364.94 1283.93,-366.71 1242.5,-360 1239.63,-359.53 1236.71,-359.04 1233.78,-358.52"/>
<polygon fill="#63b8ff" stroke="#63b8ff" points="1581.3,-476.31 1573.96,-483.95 1584.46,-482.56 1581.3,-476.31"/>
</g>
<!-- Node18 -->
<g id="node18" class="node">
<title>Node18</title>
<g id="a_node18"><a xlink:href="../../dd/d5a/_c_c_control_hue_picker_8h.html" target="_top" xlink:title=" ">
<polygon fill="white" stroke="#666666" points="1127,-442.5 902,-442.5 902,-401.5 1127,-401.5 1127,-442.5"/>
<text text-anchor="start" x="910" y="-430.5" font-family="Helvetica,sans-Serif" font-size="10.00">/home/runner/work/cocos2d.h</text>
<text text-anchor="start" x="910" y="-419.5" font-family="Helvetica,sans-Serif" font-size="10.00">/cocos2d.h/extensions/GUI</text>
<text text-anchor="middle" x="1014.5" y="-408.5" font-family="Helvetica,sans-Serif" font-size="10.00">/CCControlExtension/CCControlHuePicker.h</text>
</a>
</g>
</g>
<!-- Node5&#45;&gt;Node18 -->
<g id="edge21" class="edge">
<title>Node5&#45;&gt;Node18</title>
<path fill="none" stroke="#63b8ff" d="M1396.78,-489.56C1324.54,-479.04 1224.24,-463.76 1136.5,-448 1127.03,-446.3 1117.17,-444.43 1107.33,-442.51"/>
<polygon fill="#63b8ff" stroke="#63b8ff" points="1396.38,-493.04 1406.78,-491.01 1397.39,-486.11 1396.38,-493.04"/>
</g>
<!-- Node19 -->
<g id="node19" class="node">
<title>Node19</title>
<g id="a_node19"><a xlink:href="../../d2/d29/_c_c_control_potentiometer_8h.html" target="_top" xlink:title=" ">
<polygon fill="white" stroke="#666666" points="1497.5,-354.5 1251.5,-354.5 1251.5,-313.5 1497.5,-313.5 1497.5,-354.5"/>
<text text-anchor="start" x="1259.5" y="-342.5" font-family="Helvetica,sans-Serif" font-size="10.00">/home/runner/work/cocos2d.h</text>
<text text-anchor="start" x="1259.5" y="-331.5" font-family="Helvetica,sans-Serif" font-size="10.00">/cocos2d.h/extensions/GUI</text>
<text text-anchor="middle" x="1374.5" y="-320.5" font-family="Helvetica,sans-Serif" font-size="10.00">/CCControlExtension/CCControlPotentiometer.h</text>
</a>
</g>
</g>
<!-- Node5&#45;&gt;Node19 -->
<g id="edge23" class="edge">
<title>Node5&#45;&gt;Node19</title>
<path fill="none" stroke="#63b8ff" d="M1593.99,-488.46C1616.45,-480.22 1637.72,-467.52 1651.5,-448 1664.82,-429.12 1665.98,-414.01 1651.5,-396 1645.78,-388.89 1553.79,-369.56 1477.37,-354.54"/>
<polygon fill="#63b8ff" stroke="#63b8ff" points="1592.67,-485.22 1584.31,-491.73 1594.91,-491.85 1592.67,-485.22"/>
</g>
<!-- Node20 -->
<g id="node20" class="node">
<title>Node20</title>
<g id="a_node20"><a xlink:href="../../de/d08/_c_c_control_saturation_brightness_picker_8h.html" target="_top" xlink:title=" ">
<polygon fill="white" stroke="#666666" points="1363.5,-448 1145.5,-448 1145.5,-396 1363.5,-396 1363.5,-448"/>
<text text-anchor="start" x="1153.5" y="-436" font-family="Helvetica,sans-Serif" font-size="10.00">/home/runner/work/cocos2d.h</text>
<text text-anchor="start" x="1153.5" y="-425" font-family="Helvetica,sans-Serif" font-size="10.00">/cocos2d.h/extensions/GUI</text>
<text text-anchor="start" x="1153.5" y="-414" font-family="Helvetica,sans-Serif" font-size="10.00">/CCControlExtension/CCControlSaturation</text>
<text text-anchor="middle" x="1254.5" y="-403" font-family="Helvetica,sans-Serif" font-size="10.00">BrightnessPicker.h</text>
</a>
</g>
</g>
<!-- Node5&#45;&gt;Node20 -->
<g id="edge25" class="edge">
<title>Node5&#45;&gt;Node20</title>
<path fill="none" stroke="#63b8ff" d="M1427.16,-480.67C1396.68,-470.49 1360.68,-458.47 1329.46,-448.04"/>
<polygon fill="#63b8ff" stroke="#63b8ff" points="1426.26,-484.06 1436.85,-483.91 1428.48,-477.42 1426.26,-484.06"/>
</g>
<!-- Node21 -->
<g id="node21" class="node">
<title>Node21</title>
<g id="a_node21"><a xlink:href="../../d6/d7e/_c_c_control_slider_8h.html" target="_top" xlink:title=" ">
<polygon fill="white" stroke="#666666" points="1719.5,-354.5 1515.5,-354.5 1515.5,-313.5 1719.5,-313.5 1719.5,-354.5"/>
<text text-anchor="start" x="1523.5" y="-342.5" font-family="Helvetica,sans-Serif" font-size="10.00">/home/runner/work/cocos2d.h</text>
<text text-anchor="start" x="1523.5" y="-331.5" font-family="Helvetica,sans-Serif" font-size="10.00">/cocos2d.h/extensions/GUI</text>
<text text-anchor="middle" x="1617.5" y="-320.5" font-family="Helvetica,sans-Serif" font-size="10.00">/CCControlExtension/CCControlSlider.h</text>
</a>
</g>
</g>
<!-- Node5&#45;&gt;Node21 -->
<g id="edge27" class="edge">
<title>Node5&#45;&gt;Node21</title>
<path fill="none" stroke="#63b8ff" d="M1594.24,-494.42C1623.49,-486.58 1652.49,-472.61 1670.5,-448 1684.15,-429.35 1678.59,-417.65 1670.5,-396 1664.56,-380.1 1652.39,-365.6 1641.21,-354.73"/>
<polygon fill="#63b8ff" stroke="#63b8ff" points="1593.2,-491.07 1584.33,-496.85 1594.87,-497.87 1593.2,-491.07"/>
</g>
<!-- Node22 -->
<g id="node22" class="node">
<title>Node22</title>
<g id="a_node22"><a xlink:href="../../de/dba/_c_c_control_stepper_8h.html" target="_top" xlink:title=" ">
<polygon fill="white" stroke="#666666" points="1951.5,-354.5 1737.5,-354.5 1737.5,-313.5 1951.5,-313.5 1951.5,-354.5"/>
<text text-anchor="start" x="1745.5" y="-342.5" font-family="Helvetica,sans-Serif" font-size="10.00">/home/runner/work/cocos2d.h</text>
<text text-anchor="start" x="1745.5" y="-331.5" font-family="Helvetica,sans-Serif" font-size="10.00">/cocos2d.h/extensions/GUI</text>
<text text-anchor="middle" x="1844.5" y="-320.5" font-family="Helvetica,sans-Serif" font-size="10.00">/CCControlExtension/CCControlStepper.h</text>
</a>
</g>
</g>
<!-- Node5&#45;&gt;Node22 -->
<g id="edge29" class="edge">
<title>Node5&#45;&gt;Node22</title>
<path fill="none" stroke="#63b8ff" d="M1594.31,-482.16C1625.3,-473.62 1659.09,-462.33 1688.5,-448 1740.81,-422.51 1794.08,-379.47 1822.84,-354.51"/>
<polygon fill="#63b8ff" stroke="#63b8ff" points="1593.1,-478.86 1584.35,-484.84 1594.92,-485.62 1593.1,-478.86"/>
</g>
<!-- Node23 -->
<g id="node23" class="node">
<title>Node23</title>
<g id="a_node23"><a xlink:href="../../de/dc7/_c_c_control_switch_8h.html" target="_top" xlink:title=" ">
<polygon fill="white" stroke="#666666" points="977,-354.5 768,-354.5 768,-313.5 977,-313.5 977,-354.5"/>
<text text-anchor="start" x="776" y="-342.5" font-family="Helvetica,sans-Serif" font-size="10.00">/home/runner/work/cocos2d.h</text>
<text text-anchor="start" x="776" y="-331.5" font-family="Helvetica,sans-Serif" font-size="10.00">/cocos2d.h/extensions/GUI</text>
<text text-anchor="middle" x="872.5" y="-320.5" font-family="Helvetica,sans-Serif" font-size="10.00">/CCControlExtension/CCControlSwitch.h</text>
</a>
</g>
</g>
<!-- Node5&#45;&gt;Node23 -->
<g id="edge31" class="edge">
<title>Node5&#45;&gt;Node23</title>
<path fill="none" stroke="#63b8ff" d="M1396.57,-502.05C1226.87,-498.54 895,-486.74 859.5,-448 836.28,-422.67 850.63,-379.57 862.21,-354.56"/>
<polygon fill="#63b8ff" stroke="#63b8ff" points="1396.69,-505.56 1406.76,-502.26 1396.83,-498.56 1396.69,-505.56"/>
</g>
<!-- Node24 -->
<g id="node24" class="node">
<title>Node24</title>
<g id="a_node24"><a xlink:href="../../d8/dec/_color_picker_delegate_8h.html" target="_top" xlink:title=" ">
<polygon fill="white" stroke="#666666" points="1609,-442.5 1382,-442.5 1382,-401.5 1609,-401.5 1609,-442.5"/>
<text text-anchor="start" x="1390" y="-430.5" font-family="Helvetica,sans-Serif" font-size="10.00">/home/runner/work/cocos2d.h</text>
<text text-anchor="start" x="1390" y="-419.5" font-family="Helvetica,sans-Serif" font-size="10.00">/cocos2d.h/extensions/GUI</text>
<text text-anchor="middle" x="1495.5" y="-408.5" font-family="Helvetica,sans-Serif" font-size="10.00">/CCControlExtension/ColorPickerDelegate.h</text>
</a>
</g>
</g>
<!-- Node5&#45;&gt;Node24 -->
<g id="edge33" class="edge">
<title>Node5&#45;&gt;Node24</title>
<path fill="none" stroke="#63b8ff" d="M1495.5,-473.37C1495.5,-463.1 1495.5,-451.9 1495.5,-442.67"/>
<polygon fill="#63b8ff" stroke="#63b8ff" points="1492,-473.6 1495.5,-483.6 1499,-473.6 1492,-473.6"/>
</g>
<!-- Node6&#45;&gt;Node7 -->
<g id="edge7" class="edge">
<title>Node6&#45;&gt;Node7</title>
<path fill="none" stroke="#63b8ff" d="M1929.54,-395.46C1941.88,-386.04 1953.72,-374.14 1960.5,-360 1970.49,-339.16 1975.84,-325.29 1960.5,-308 1937.66,-282.27 1741.38,-266.27 1611.52,-258.4"/>
<polygon fill="#63b8ff" stroke="#63b8ff" points="1927.49,-392.63 1921.41,-401.3 1931.58,-398.31 1927.49,-392.63"/>
</g>
<!-- Node7&#45;&gt;Node8 -->
<g id="edge8" class="edge">
<title>Node7&#45;&gt;Node8</title>
<path fill="none" stroke="#63b8ff" d="M1386.24,-229.08C1324.1,-217 1247.84,-202.18 1191.28,-191.2"/>
<polygon fill="#63b8ff" stroke="#63b8ff" points="1385.61,-232.52 1396.09,-230.99 1386.94,-225.65 1385.61,-232.52"/>
</g>
<!-- Node16 -->
<g id="node16" class="node">
<title>Node16</title>
<g id="a_node16"><a xlink:href="../../d3/d58/cocos-ext_8h.html" target="_top" xlink:title=" ">
<polygon fill="white" stroke="#666666" points="2147.5,-112.5 1963.5,-112.5 1963.5,-82.5 2147.5,-82.5 2147.5,-112.5"/>
<text text-anchor="start" x="1971.5" y="-100.5" font-family="Helvetica,sans-Serif" font-size="10.00">/home/runner/work/cocos2d.h</text>
<text text-anchor="middle" x="2055.5" y="-89.5" font-family="Helvetica,sans-Serif" font-size="10.00">/cocos2d.h/extensions/cocos&#45;ext.h</text>
</a>
</g>
</g>
<!-- Node7&#45;&gt;Node16 -->
<g id="edge17" class="edge">
<title>Node7&#45;&gt;Node16</title>
<path fill="none" stroke="#63b8ff" d="M1578.41,-228.23C1695.25,-196.46 1906.4,-139.04 2003.76,-112.57"/>
<polygon fill="#63b8ff" stroke="#63b8ff" points="1577.17,-224.94 1568.44,-230.94 1579,-231.69 1577.17,-224.94"/>
</g>
<!-- Node8&#45;&gt;Node9 -->
<g id="edge9" class="edge">
<title>Node8&#45;&gt;Node9</title>
<path fill="none" stroke="#63b8ff" d="M1019.89,-160.23C923.24,-146.07 771.61,-123.86 679.02,-110.29"/>
<polygon fill="#63b8ff" stroke="#63b8ff" points="1019.54,-163.71 1029.94,-161.7 1020.55,-156.79 1019.54,-163.71"/>
</g>
<!-- Node8&#45;&gt;Node16 -->
<g id="edge16" class="edge">
<title>Node8&#45;&gt;Node16</title>
<path fill="none" stroke="#63b8ff" d="M1201.04,-166.31C1381.06,-152.03 1782.17,-120.19 1963.43,-105.81"/>
<polygon fill="#63b8ff" stroke="#63b8ff" points="1200.76,-162.83 1191.07,-167.11 1201.32,-169.8 1200.76,-162.83"/>
</g>
<!-- Node9&#45;&gt;Node10 -->
<g id="edge10" class="edge">
<title>Node9&#45;&gt;Node10</title>
<path fill="none" stroke="#63b8ff" d="M507.87,-84.92C427.49,-74.38 306.99,-57.93 202.5,-41 199.45,-40.51 196.36,-40 193.23,-39.47"/>
<polygon fill="#63b8ff" stroke="#63b8ff" points="507.58,-88.41 517.95,-86.24 508.49,-81.47 507.58,-88.41"/>
</g>
<!-- Node9&#45;&gt;Node11 -->
<g id="edge11" class="edge">
<title>Node9&#45;&gt;Node11</title>
<path fill="none" stroke="#63b8ff" d="M510.41,-74.55C467.83,-63.94 417.16,-51.31 375.93,-41.04"/>
<polygon fill="#63b8ff" stroke="#63b8ff" points="509.65,-77.97 520.2,-76.99 511.34,-71.18 509.65,-77.97"/>
</g>
<!-- Node9&#45;&gt;Node12 -->
<g id="edge12" class="edge">
<title>Node9&#45;&gt;Node12</title>
<path fill="none" stroke="#63b8ff" d="M561.57,-71.09C547.37,-61.32 531.39,-50.32 518.09,-41.17"/>
<polygon fill="#63b8ff" stroke="#63b8ff" points="559.92,-74.21 570.15,-76.99 563.89,-68.44 559.92,-74.21"/>
</g>
<!-- Node9&#45;&gt;Node13 -->
<g id="edge13" class="edge">
<title>Node9&#45;&gt;Node13</title>
<path fill="none" stroke="#63b8ff" d="M681.83,-74.42C721.76,-63.84 769.16,-51.27 807.76,-41.04"/>
<polygon fill="#63b8ff" stroke="#63b8ff" points="680.89,-71.05 672.12,-76.99 682.68,-77.81 680.89,-71.05"/>
</g>
<!-- Node9&#45;&gt;Node14 -->
<g id="edge14" class="edge">
<title>Node9&#45;&gt;Node14</title>
<path fill="none" stroke="#63b8ff" d="M689.25,-83.16C703.39,-81.09 717.84,-78.98 731.5,-77 842.59,-60.86 870.89,-60.18 981.5,-41 984.43,-40.49 987.41,-39.96 990.42,-39.41"/>
<polygon fill="#63b8ff" stroke="#63b8ff" points="688.41,-79.75 679.03,-84.66 689.43,-86.67 688.41,-79.75"/>
</g>
<!-- Node15 -->
<g id="node15" class="node">
<title>Node15</title>
<g id="a_node15"><a xlink:href="../../d4/d91/_c_c_edit_box_impl_wp8_8h.html" target="_top" xlink:title=" ">
<polygon fill="white" stroke="#666666" points="772,-41 595,-41 595,0 772,0 772,-41"/>
<text text-anchor="start" x="603" y="-29" font-family="Helvetica,sans-Serif" font-size="10.00">/home/runner/work/cocos2d.h</text>
<text text-anchor="start" x="603" y="-18" font-family="Helvetica,sans-Serif" font-size="10.00">/cocos2d.h/extensions/GUI</text>
<text text-anchor="middle" x="683.5" y="-7" font-family="Helvetica,sans-Serif" font-size="10.00">/CCEditBox/CCEditBoxImplWp8.h</text>
</a>
</g>
</g>
<!-- Node9&#45;&gt;Node15 -->
<g id="edge15" class="edge">
<title>Node9&#45;&gt;Node15</title>
<path fill="none" stroke="#63b8ff" d="M628.45,-70.07C639.27,-60.52 651.28,-49.93 661.32,-41.07"/>
<polygon fill="#63b8ff" stroke="#63b8ff" points="626.02,-67.55 620.83,-76.79 630.65,-72.8 626.02,-67.55"/>
</g>
<!-- Node17&#45;&gt;Node7 -->
<g id="edge19" class="edge">
<title>Node17&#45;&gt;Node7</title>
<path fill="none" stroke="#63b8ff" d="M1243.54,-307.78C1303.05,-294.47 1359.99,-282.03 1405.93,-272.05"/>
<polygon fill="#63b8ff" stroke="#63b8ff" points="1242.57,-304.41 1233.57,-310 1244.1,-311.24 1242.57,-304.41"/>
</g>
<!-- Node18&#45;&gt;Node17 -->
<g id="edge22" class="edge">
<title>Node18&#45;&gt;Node17</title>
<path fill="none" stroke="#63b8ff" d="M1049.75,-395.53C1065.12,-384.41 1083.11,-371.41 1098.47,-360.32"/>
<polygon fill="#63b8ff" stroke="#63b8ff" points="1047.56,-392.79 1041.5,-401.49 1051.66,-398.46 1047.56,-392.79"/>
</g>
<!-- Node19&#45;&gt;Node7 -->
<g id="edge24" class="edge">
<title>Node19&#45;&gt;Node7</title>
<path fill="none" stroke="#63b8ff" d="M1413.09,-307.54C1430.36,-296.14 1450.42,-282.9 1466.54,-272.27"/>
<polygon fill="#63b8ff" stroke="#63b8ff" points="1410.76,-304.88 1404.34,-313.31 1414.62,-310.72 1410.76,-304.88"/>
</g>
<!-- Node20&#45;&gt;Node17 -->
<g id="edge26" class="edge">
<title>Node20&#45;&gt;Node17</title>
<path fill="none" stroke="#63b8ff" d="M1210.83,-389.96C1197.12,-380.22 1182.16,-369.58 1169.08,-360.29"/>
<polygon fill="#63b8ff" stroke="#63b8ff" points="1209,-392.95 1219.18,-395.89 1213.05,-387.25 1209,-392.95"/>
</g>
<!-- Node21&#45;&gt;Node7 -->
<g id="edge28" class="edge">
<title>Node21&#45;&gt;Node7</title>
<path fill="none" stroke="#63b8ff" d="M1579.23,-307.54C1562.09,-296.14 1542.2,-282.9 1526.21,-272.27"/>
<polygon fill="#63b8ff" stroke="#63b8ff" points="1577.64,-310.68 1587.9,-313.31 1581.51,-304.85 1577.64,-310.68"/>
</g>
<!-- Node22&#45;&gt;Node7 -->
<g id="edge30" class="edge">
<title>Node22&#45;&gt;Node7</title>
<path fill="none" stroke="#63b8ff" d="M1749.78,-311.09C1697.04,-298.89 1631.95,-283.83 1580.96,-272.04"/>
<polygon fill="#63b8ff" stroke="#63b8ff" points="1749.28,-314.57 1759.81,-313.41 1750.86,-307.75 1749.28,-314.57"/>
</g>
<!-- Node23&#45;&gt;Node7 -->
<g id="edge32" class="edge">
<title>Node23&#45;&gt;Node7</title>
<path fill="none" stroke="#63b8ff" d="M970.9,-311.55C977.86,-310.27 984.78,-309.07 991.5,-308 1124.65,-286.75 1278.86,-271.09 1381.5,-261.92"/>
<polygon fill="#63b8ff" stroke="#63b8ff" points="969.88,-308.18 960.7,-313.47 971.18,-315.06 969.88,-308.18"/>
</g>
<!-- Node24&#45;&gt;Node17 -->
<g id="edge34" class="edge">
<title>Node24&#45;&gt;Node17</title>
<path fill="none" stroke="#63b8ff" d="M1403.5,-399.14C1351.66,-386.83 1286.84,-371.43 1233.71,-358.81"/>
<polygon fill="#63b8ff" stroke="#63b8ff" points="1402.82,-402.58 1413.36,-401.49 1404.44,-395.77 1402.82,-402.58"/>
</g>
<!-- Node25&#45;&gt;Node6 -->
<g id="edge36" class="edge">
<title>Node25&#45;&gt;Node6</title>
<path fill="none" stroke="#63b8ff" d="M1864.22,-474.01C1868.37,-463.57 1872.94,-452.09 1876.68,-442.67"/>
<polygon fill="#63b8ff" stroke="#63b8ff" points="1860.85,-473.02 1860.41,-483.6 1867.36,-475.6 1860.85,-473.02"/>
</g>
<!-- Node25&#45;&gt;Node7 -->
<g id="edge37" class="edge">
<title>Node25&#45;&gt;Node7</title>
<path fill="none" stroke="#63b8ff" d="M1961.63,-479.44C1976.14,-471.71 1989.19,-461.49 1998.5,-448 2017.79,-420.03 1980.19,-309.52 1978.5,-308 1951.69,-283.96 1745.64,-267.27 1611.76,-258.84"/>
<polygon fill="#63b8ff" stroke="#63b8ff" points="1959.87,-476.41 1952.43,-483.95 1962.95,-482.7 1959.87,-476.41"/>
</g>
<!-- Node26&#45;&gt;Node16 -->
<g id="edge48" class="edge">
<title>Node26&#45;&gt;Node16</title>
<path fill="none" stroke="#63b8ff" d="M2015.43,-223.54C2023.39,-215.14 2031.2,-205.35 2036.5,-195 2050.29,-168.1 2054.09,-132.27 2055.13,-112.71"/>
<polygon fill="#63b8ff" stroke="#63b8ff" points="2012.73,-221.29 2008.14,-230.83 2017.69,-226.23 2012.73,-221.29"/>
</g>
<!-- Node27 -->
<g id="node27" class="node">
<title>Node27</title>
<g id="a_node27"><a xlink:href="../../d8/dbb/_c_c_table_view_8h.html" target="_top" xlink:title=" ">
<polygon fill="white" stroke="#666666" points="2027,-195 1866,-195 1866,-154 2027,-154 2027,-195"/>
<text text-anchor="start" x="1874" y="-183" font-family="Helvetica,sans-Serif" font-size="10.00">/home/runner/work/cocos2d.h</text>
<text text-anchor="start" x="1874" y="-172" font-family="Helvetica,sans-Serif" font-size="10.00">/cocos2d.h/extensions/GUI</text>
<text text-anchor="middle" x="1946.5" y="-161" font-family="Helvetica,sans-Serif" font-size="10.00">/CCScrollView/CCTableView.h</text>
</a>
</g>
</g>
<!-- Node26&#45;&gt;Node27 -->
<g id="edge46" class="edge">
<title>Node26&#45;&gt;Node27</title>
<path fill="none" stroke="#63b8ff" d="M1969.97,-221.83C1965.44,-212.89 1960.55,-203.24 1956.42,-195.07"/>
<polygon fill="#63b8ff" stroke="#63b8ff" points="1966.87,-223.46 1974.52,-230.79 1973.12,-220.29 1966.87,-223.46"/>
</g>
<!-- Node27&#45;&gt;Node16 -->
<g id="edge47" class="edge">
<title>Node27&#45;&gt;Node16</title>
<path fill="none" stroke="#63b8ff" d="M1983.54,-148.01C2000.69,-136.22 2020.41,-122.65 2034.86,-112.7"/>
<polygon fill="#63b8ff" stroke="#63b8ff" points="1981.11,-145.44 1974.85,-153.99 1985.08,-151.21 1981.11,-145.44"/>
</g>
<!-- Node28&#45;&gt;Node16 -->
<g id="edge50" class="edge">
<title>Node28&#45;&gt;Node16</title>
<path fill="none" stroke="#63b8ff" d="M2191.68,-304.13C2174.83,-267.59 2143.18,-203.48 2107.5,-154 2096.53,-138.79 2081.73,-123.38 2070.73,-112.67"/>
<polygon fill="#63b8ff" stroke="#63b8ff" points="2188.5,-305.58 2195.83,-313.23 2194.86,-302.68 2188.5,-305.58"/>
</g>
<!-- Node29&#45;&gt;Node16 -->
<g id="edge52" class="edge">
<title>Node29&#45;&gt;Node16</title>
<path fill="none" stroke="#63b8ff" d="M2093.5,-473.69C2093.5,-440.01 2093.5,-383.57 2093.5,-335 2093.5,-335 2093.5,-335 2093.5,-250.5 2093.5,-198.55 2072.35,-139.51 2061.61,-112.87"/>
<polygon fill="#63b8ff" stroke="#63b8ff" points="2090,-473.78 2093.5,-483.78 2097,-473.78 2090,-473.78"/>
</g>
<!-- Node29&#45;&gt;Node28 -->
<g id="edge53" class="edge">
<title>Node29&#45;&gt;Node28</title>
<path fill="none" stroke="#63b8ff" d="M2112.12,-475.24C2134.66,-441.01 2172.05,-384.26 2191.63,-354.53"/>
<polygon fill="#63b8ff" stroke="#63b8ff" points="2109.03,-473.56 2106.45,-483.84 2114.87,-477.42 2109.03,-473.56"/>
</g>
<!-- Node29&#45;&gt;Node30 -->
<g id="edge54" class="edge">
<title>Node29&#45;&gt;Node30</title>
<path fill="none" stroke="#63b8ff" d="M2157.09,-480.44C2190.15,-468.45 2230.11,-453.97 2261.62,-442.54"/>
<polygon fill="#63b8ff" stroke="#63b8ff" points="2155.73,-477.21 2147.52,-483.91 2158.12,-483.79 2155.73,-477.21"/>
</g>
<!-- Node30&#45;&gt;Node16 -->
<g id="edge55" class="edge">
<title>Node30&#45;&gt;Node16</title>
<path fill="none" stroke="#63b8ff" d="M2315.91,-391.24C2315.07,-367.44 2311.18,-333.9 2297.5,-308 2247.16,-212.67 2134.14,-141.51 2082.35,-112.64"/>
<polygon fill="#63b8ff" stroke="#63b8ff" points="2312.42,-391.49 2316.11,-401.42 2319.42,-391.36 2312.42,-391.49"/>
</g>
<!-- Node30&#45;&gt;Node28 -->
<g id="edge56" class="edge">
<title>Node30&#45;&gt;Node28</title>
<path fill="none" stroke="#63b8ff" d="M2282.37,-395.33C2265.59,-382.33 2245.53,-366.79 2229.97,-354.74"/>
<polygon fill="#63b8ff" stroke="#63b8ff" points="2280.26,-398.13 2290.31,-401.49 2284.55,-392.59 2280.26,-398.13"/>
</g>
<!-- Node32&#45;&gt;Node2 -->
<g id="edge64" class="edge">
<title>Node32&#45;&gt;Node2</title>
<path fill="none" stroke="#63b8ff" d="M757.04,-781.76C756.79,-746.47 753.53,-686.34 736.5,-638 732,-625.21 724.12,-612.32 716.97,-602.19"/>
<polygon fill="#63b8ff" stroke="#63b8ff" points="753.54,-781.87 757.03,-791.87 760.54,-781.88 753.54,-781.87"/>
</g>
<!-- Node33 -->
<g id="node33" class="node">
<title>Node33</title>
<g id="a_node33"><a xlink:href="../../da/d05/_c_c_director_8h.html" target="_top" xlink:title=" ">
<polygon fill="white" stroke="#666666" points="728,-750.5 547,-750.5 547,-720.5 728,-720.5 728,-750.5"/>
<text text-anchor="start" x="555" y="-738.5" font-family="Helvetica,sans-Serif" font-size="10.00">/home/runner/work/cocos2d.h</text>
<text text-anchor="middle" x="637.5" y="-727.5" font-family="Helvetica,sans-Serif" font-size="10.00">/cocos2d.h/cocos2dx/CCDirector.h</text>
</a>
</g>
</g>
<!-- Node32&#45;&gt;Node33 -->
<g id="edge60" class="edge">
<title>Node32&#45;&gt;Node33</title>
<path fill="none" stroke="#63b8ff" d="M716.83,-786.5C697.94,-774.59 676.03,-760.78 660.03,-750.7"/>
<polygon fill="#63b8ff" stroke="#63b8ff" points="715.22,-789.62 725.54,-791.99 718.95,-783.7 715.22,-789.62"/>
</g>
<!-- Node33&#45;&gt;Node2 -->
<g id="edge63" class="edge">
<title>Node33&#45;&gt;Node2</title>
<path fill="none" stroke="#63b8ff" d="M594.8,-715.39C580.25,-706.54 565.61,-694.5 557.5,-679 549.05,-662.86 547.19,-653.02 557.5,-638 572.21,-616.57 596.44,-603.41 620.87,-595.34"/>
<polygon fill="#63b8ff" stroke="#63b8ff" points="593.36,-718.6 603.79,-720.48 596.82,-712.51 593.36,-718.6"/>
</g>
<!-- Node34 -->
<g id="node34" class="node">
<title>Node34</title>
<g id="a_node34"><a xlink:href="../../d3/d28/_c_c_grid_8h.html" target="_top" xlink:title=" ">
<polygon fill="white" stroke="#666666" points="728,-679 567,-679 567,-638 728,-638 728,-679"/>
<text text-anchor="start" x="575" y="-667" font-family="Helvetica,sans-Serif" font-size="10.00">/home/runner/work/cocos2d.h</text>
<text text-anchor="start" x="575" y="-656" font-family="Helvetica,sans-Serif" font-size="10.00">/cocos2d.h/cocos2dx/effects</text>
<text text-anchor="middle" x="647.5" y="-645" font-family="Helvetica,sans-Serif" font-size="10.00">/CCGrid.h</text>
</a>
</g>
</g>
<!-- Node33&#45;&gt;Node34 -->
<g id="edge61" class="edge">
<title>Node33&#45;&gt;Node34</title>
<path fill="none" stroke="#63b8ff" d="M640.74,-710.23C642.07,-700.2 643.61,-688.71 644.87,-679.2"/>
<polygon fill="#63b8ff" stroke="#63b8ff" points="637.23,-710.02 639.38,-720.39 644.17,-710.94 637.23,-710.02"/>
</g>
<!-- Node34&#45;&gt;Node2 -->
<g id="edge62" class="edge">
<title>Node34&#45;&gt;Node2</title>
<path fill="none" stroke="#63b8ff" d="M667.54,-629.67C674.14,-620.5 681.34,-610.5 687.41,-602.07"/>
<polygon fill="#63b8ff" stroke="#63b8ff" points="664.69,-627.63 661.69,-637.79 670.37,-631.72 664.69,-627.63"/>
</g>
<!-- Node35&#45;&gt;Node2 -->
<g id="edge66" class="edge">
<title>Node35&#45;&gt;Node2</title>
<path fill="none" stroke="#63b8ff" d="M843.21,-707.53C823.63,-687.77 795.99,-660.58 770.5,-638 756.58,-625.66 740.4,-612.59 727.21,-602.23"/>
<polygon fill="#63b8ff" stroke="#63b8ff" points="840.79,-710.05 850.3,-714.71 845.77,-705.13 840.79,-710.05"/>
</g>
<!-- Node36&#45;&gt;Node2 -->
<g id="edge68" class="edge">
<title>Node36&#45;&gt;Node2</title>
<path fill="none" stroke="#63b8ff" d="M887.05,-635.21C849.96,-624.68 806.07,-612.21 770.29,-602.04"/>
<polygon fill="#63b8ff" stroke="#63b8ff" points="886.25,-638.62 896.83,-637.99 888.16,-631.89 886.25,-638.62"/>
</g>
</g>
</svg>
