<?xml version="1.0" encoding="UTF-8" standalone="no"?>
<!DOCTYPE svg PUBLIC "-//W3C//DTD SVG 1.1//EN"
 "http://www.w3.org/Graphics/SVG/1.1/DTD/svg11.dtd">
<!-- Generated by graphviz version 2.43.0 (0)
 -->
<!-- Title: /home/runner/work/cocos2d.h/cocos2d.h/extensions/GUI/CCEditBox/CCEditBoxImpl.h Pages: 1 -->
<svg width="1173pt" height="126pt"
 viewBox="0.00 0.00 1173.00 126.00" xmlns="http://www.w3.org/2000/svg" xmlns:xlink="http://www.w3.org/1999/xlink">
<g id="graph0" class="graph" transform="scale(1 1) rotate(0) translate(4 122)">
<title>/home/runner/work/cocos2d.h/cocos2d.h/extensions/GUI/CCEditBox/CCEditBoxImpl.h</title>
<!-- Node1 -->
<g id="node1" class="node">
<title>Node1</title>
<g id="a_node1"><a xlink:title=" ">
<polygon fill="#999999" stroke="#666666" points="668,-118 507,-118 507,-77 668,-77 668,-118"/>
<text text-anchor="start" x="515" y="-106" font-family="Helvetica,sans-Serif" font-size="10.00">/home/runner/work/cocos2d.h</text>
<text text-anchor="start" x="515" y="-95" font-family="Helvetica,sans-Serif" font-size="10.00">/cocos2d.h/extensions/GUI</text>
<text text-anchor="middle" x="587.5" y="-84" font-family="Helvetica,sans-Serif" font-size="10.00">/CCEditBox/CCEditBoxImpl.h</text>
</a>
</g>
</g>
<!-- Node2 -->
<g id="node2" class="node">
<title>Node2</title>
<g id="a_node2"><a xlink:href="../../d4/dd3/_c_c_edit_box_impl_android_8h.html" target="_top" xlink:title=" ">
<polygon fill="white" stroke="#666666" points="193,-41 0,-41 0,0 193,0 193,-41"/>
<text text-anchor="start" x="8" y="-29" font-family="Helvetica,sans-Serif" font-size="10.00">/home/runner/work/cocos2d.h</text>
<text text-anchor="start" x="8" y="-18" font-family="Helvetica,sans-Serif" font-size="10.00">/cocos2d.h/extensions/GUI</text>
<text text-anchor="middle" x="96.5" y="-7" font-family="Helvetica,sans-Serif" font-size="10.00">/CCEditBox/CCEditBoxImplAndroid.h</text>
</a>
</g>
</g>
<!-- Node1&#45;&gt;Node2 -->
<g id="edge1" class="edge">
<title>Node1&#45;&gt;Node2</title>
<path fill="none" stroke="#63b8ff" d="M496.7,-84.42C418.58,-73.79 302.95,-57.47 202.5,-41 199.45,-40.5 196.36,-39.98 193.24,-39.46"/>
<polygon fill="#63b8ff" stroke="#63b8ff" points="496.61,-87.94 506.99,-85.82 497.55,-81 496.61,-87.94"/>
</g>
<!-- Node3 -->
<g id="node3" class="node">
<title>Node3</title>
<g id="a_node3"><a xlink:href="../../dd/dfd/_c_c_edit_box_impl_i_o_s_8h.html" target="_top" xlink:title=" ">
<polygon fill="white" stroke="#666666" points="383.5,-41 211.5,-41 211.5,0 383.5,0 383.5,-41"/>
<text text-anchor="start" x="219.5" y="-29" font-family="Helvetica,sans-Serif" font-size="10.00">/home/runner/work/cocos2d.h</text>
<text text-anchor="start" x="219.5" y="-18" font-family="Helvetica,sans-Serif" font-size="10.00">/cocos2d.h/extensions/GUI</text>
<text text-anchor="middle" x="297.5" y="-7" font-family="Helvetica,sans-Serif" font-size="10.00">/CCEditBox/CCEditBoxImplIOS.h</text>
</a>
</g>
</g>
<!-- Node1&#45;&gt;Node3 -->
<g id="edge2" class="edge">
<title>Node1&#45;&gt;Node3</title>
<path fill="none" stroke="#63b8ff" d="M502.37,-74.48C461.4,-63.89 412.7,-51.29 373.06,-41.04"/>
<polygon fill="#63b8ff" stroke="#63b8ff" points="501.51,-77.88 512.06,-76.99 503.26,-71.1 501.51,-77.88"/>
</g>
<!-- Node4 -->
<g id="node4" class="node">
<title>Node4</title>
<g id="a_node4"><a xlink:href="../../d7/d4d/_c_c_edit_box_impl_mac_8h.html" target="_top" xlink:title=" ">
<polygon fill="white" stroke="#666666" points="577.5,-41 401.5,-41 401.5,0 577.5,0 577.5,-41"/>
<text text-anchor="start" x="409.5" y="-29" font-family="Helvetica,sans-Serif" font-size="10.00">/home/runner/work/cocos2d.h</text>
<text text-anchor="start" x="409.5" y="-18" font-family="Helvetica,sans-Serif" font-size="10.00">/cocos2d.h/extensions/GUI</text>
<text text-anchor="middle" x="489.5" y="-7" font-family="Helvetica,sans-Serif" font-size="10.00">/CCEditBox/CCEditBoxImplMac.h</text>
</a>
</g>
</g>
<!-- Node1&#45;&gt;Node4 -->
<g id="edge3" class="edge">
<title>Node1&#45;&gt;Node4</title>
<path fill="none" stroke="#63b8ff" d="M553.94,-70.82C541.26,-61.11 527.05,-50.24 515.21,-41.17"/>
<polygon fill="#63b8ff" stroke="#63b8ff" points="551.94,-73.69 562.01,-76.99 556.19,-68.13 551.94,-73.69"/>
</g>
<!-- Node5 -->
<g id="node5" class="node">
<title>Node5</title>
<g id="a_node5"><a xlink:href="../../de/dac/_c_c_edit_box_impl_tizen_8h.html" target="_top" xlink:title=" ">
<polygon fill="white" stroke="#666666" points="777.5,-41 595.5,-41 595.5,0 777.5,0 777.5,-41"/>
<text text-anchor="start" x="603.5" y="-29" font-family="Helvetica,sans-Serif" font-size="10.00">/home/runner/work/cocos2d.h</text>
<text text-anchor="start" x="603.5" y="-18" font-family="Helvetica,sans-Serif" font-size="10.00">/cocos2d.h/extensions/GUI</text>
<text text-anchor="middle" x="686.5" y="-7" font-family="Helvetica,sans-Serif" font-size="10.00">/CCEditBox/CCEditBoxImplTizen.h</text>
</a>
</g>
</g>
<!-- Node1&#45;&gt;Node5 -->
<g id="edge4" class="edge">
<title>Node1&#45;&gt;Node5</title>
<path fill="none" stroke="#63b8ff" d="M621.4,-70.82C634.21,-61.11 648.57,-50.24 660.53,-41.17"/>
<polygon fill="#63b8ff" stroke="#63b8ff" points="619.11,-68.16 613.25,-76.99 623.34,-73.74 619.11,-68.16"/>
</g>
<!-- Node6 -->
<g id="node6" class="node">
<title>Node6</title>
<g id="a_node6"><a xlink:href="../../dd/d41/_c_c_edit_box_impl_win_8h.html" target="_top" xlink:title=" ">
<polygon fill="white" stroke="#666666" points="969.5,-41 795.5,-41 795.5,0 969.5,0 969.5,-41"/>
<text text-anchor="start" x="803.5" y="-29" font-family="Helvetica,sans-Serif" font-size="10.00">/home/runner/work/cocos2d.h</text>
<text text-anchor="start" x="803.5" y="-18" font-family="Helvetica,sans-Serif" font-size="10.00">/cocos2d.h/extensions/GUI</text>
<text text-anchor="middle" x="882.5" y="-7" font-family="Helvetica,sans-Serif" font-size="10.00">/CCEditBox/CCEditBoxImplWin.h</text>
</a>
</g>
</g>
<!-- Node1&#45;&gt;Node6 -->
<g id="edge5" class="edge">
<title>Node1&#45;&gt;Node6</title>
<path fill="none" stroke="#63b8ff" d="M674.1,-74.48C715.77,-63.89 765.31,-51.29 805.63,-41.04"/>
<polygon fill="#63b8ff" stroke="#63b8ff" points="673.07,-71.13 664.24,-76.99 674.79,-77.92 673.07,-71.13"/>
</g>
<!-- Node7 -->
<g id="node7" class="node">
<title>Node7</title>
<g id="a_node7"><a xlink:href="../../d4/d91/_c_c_edit_box_impl_wp8_8h.html" target="_top" xlink:title=" ">
<polygon fill="white" stroke="#666666" points="1165,-41 988,-41 988,0 1165,0 1165,-41"/>
<text text-anchor="start" x="996" y="-29" font-family="Helvetica,sans-Serif" font-size="10.00">/home/runner/work/cocos2d.h</text>
<text text-anchor="start" x="996" y="-18" font-family="Helvetica,sans-Serif" font-size="10.00">/cocos2d.h/extensions/GUI</text>
<text text-anchor="middle" x="1076.5" y="-7" font-family="Helvetica,sans-Serif" font-size="10.00">/CCEditBox/CCEditBoxImplWp8.h</text>
</a>
</g>
</g>
<!-- Node1&#45;&gt;Node7 -->
<g id="edge6" class="edge">
<title>Node1&#45;&gt;Node7</title>
<path fill="none" stroke="#63b8ff" d="M678.17,-85.08C757.56,-74.73 875.93,-58.47 978.5,-41 981.58,-40.48 984.71,-39.93 987.87,-39.36"/>
<polygon fill="#63b8ff" stroke="#63b8ff" points="677.67,-81.61 668.2,-86.37 678.57,-88.56 677.67,-81.61"/>
</g>
</g>
</svg>
