<?xml version="1.0" encoding="UTF-8" standalone="no"?>
<!DOCTYPE svg PUBLIC "-//W3C//DTD SVG 1.1//EN"
 "http://www.w3.org/Graphics/SVG/1.1/DTD/svg11.dtd">
<!-- Generated by graphviz version 2.43.0 (0)
 -->
<!-- Title: /home/runner/work/cocos2d.h/cocos2d.h/extensions/ExtensionMacros.h Pages: 1 -->
<svg width="3044pt" height="696pt"
 viewBox="0.00 0.00 3044.00 696.00" xmlns="http://www.w3.org/2000/svg" xmlns:xlink="http://www.w3.org/1999/xlink">
<g id="graph0" class="graph" transform="scale(1 1) rotate(0) translate(4 692)">
<title>/home/runner/work/cocos2d.h/cocos2d.h/extensions/ExtensionMacros.h</title>
<!-- Node1 -->
<g id="node1" class="node">
<title>Node1</title>
<g id="a_node1"><a xlink:title=" ">
<polygon fill="#bfbfbf" stroke="black" points="1027.5,-646.5 1027.5,-687.5 1203.5,-687.5 1203.5,-646.5 1027.5,-646.5"/>
<text text-anchor="start" x="1035.5" y="-675.5" font-family="Helvetica,sans-Serif" font-size="10.00">/home/runner/work/cocos2d.h</text>
<text text-anchor="start" x="1035.5" y="-664.5" font-family="Helvetica,sans-Serif" font-size="10.00">/cocos2d.h/extensions/Extension</text>
<text text-anchor="middle" x="1115.5" y="-653.5" font-family="Helvetica,sans-Serif" font-size="10.00">Macros.h</text>
</a>
</g>
</g>
<!-- Node2 -->
<g id="node2" class="node">
<title>Node2</title>
<g id="a_node2"><a xlink:href="../../d3/db7/_assets_manager_8h.html" target="_top" xlink:title=" ">
<polygon fill="none" stroke="black" points="171,-568.5 171,-609.5 374,-609.5 374,-568.5 171,-568.5"/>
<text text-anchor="start" x="179" y="-597.5" font-family="Helvetica,sans-Serif" font-size="10.00">/home/runner/work/cocos2d.h</text>
<text text-anchor="start" x="179" y="-586.5" font-family="Helvetica,sans-Serif" font-size="10.00">/cocos2d.h/extensions/AssetsManager</text>
<text text-anchor="middle" x="272.5" y="-575.5" font-family="Helvetica,sans-Serif" font-size="10.00">/AssetsManager.h</text>
</a>
</g>
</g>
<!-- Node1&#45;&gt;Node2 -->
<g id="edge1" class="edge">
<title>Node1&#45;&gt;Node2</title>
<path fill="none" stroke="midnightblue" d="M1017.11,-661.36C877.09,-654.08 612.47,-637.87 388.5,-610 383.84,-609.42 379.07,-608.78 374.27,-608.1"/>
<polygon fill="midnightblue" stroke="midnightblue" points="1017.22,-664.87 1027.39,-661.89 1017.58,-657.88 1017.22,-664.87"/>
</g>
<!-- Node3 -->
<g id="node3" class="node">
<title>Node3</title>
<g id="a_node3"><a xlink:href="../../d5/de1/_c_c_control_utils_8h.html" target="_top" xlink:title=" ">
<polygon fill="none" stroke="black" points="1015.5,-568.5 1015.5,-609.5 1215.5,-609.5 1215.5,-568.5 1015.5,-568.5"/>
<text text-anchor="start" x="1023.5" y="-597.5" font-family="Helvetica,sans-Serif" font-size="10.00">/home/runner/work/cocos2d.h</text>
<text text-anchor="start" x="1023.5" y="-586.5" font-family="Helvetica,sans-Serif" font-size="10.00">/cocos2d.h/extensions/GUI</text>
<text text-anchor="middle" x="1115.5" y="-575.5" font-family="Helvetica,sans-Serif" font-size="10.00">/CCControlExtension/CCControlUtils.h</text>
</a>
</g>
</g>
<!-- Node1&#45;&gt;Node3 -->
<g id="edge2" class="edge">
<title>Node1&#45;&gt;Node3</title>
<path fill="none" stroke="midnightblue" d="M1115.5,-636.3C1115.5,-627.3 1115.5,-617.65 1115.5,-609.51"/>
<polygon fill="midnightblue" stroke="midnightblue" points="1112,-636.43 1115.5,-646.43 1119,-636.43 1112,-636.43"/>
</g>
<!-- Node7 -->
<g id="node7" class="node">
<title>Node7</title>
<g id="a_node7"><a xlink:href="../../dc/d4a/_c_c_edit_box_8h.html" target="_top" xlink:title=" ">
<polygon fill="none" stroke="black" points="1401,-156.5 1401,-197.5 1562,-197.5 1562,-156.5 1401,-156.5"/>
<text text-anchor="start" x="1409" y="-185.5" font-family="Helvetica,sans-Serif" font-size="10.00">/home/runner/work/cocos2d.h</text>
<text text-anchor="start" x="1409" y="-174.5" font-family="Helvetica,sans-Serif" font-size="10.00">/cocos2d.h/extensions/GUI</text>
<text text-anchor="middle" x="1481.5" y="-163.5" font-family="Helvetica,sans-Serif" font-size="10.00">/CCEditBox/CCEditBox.h</text>
</a>
</g>
</g>
<!-- Node1&#45;&gt;Node7 -->
<g id="edge43" class="edge">
<title>Node1&#45;&gt;Node7</title>
<path fill="none" stroke="midnightblue" d="M1017.17,-662.2C934.11,-656.68 824.34,-643.15 796.5,-610 754.03,-559.42 746.51,-506.82 848.5,-401 999.5,-244.33 1267.05,-197.57 1400.75,-183.73"/>
<polygon fill="midnightblue" stroke="midnightblue" points="1016.96,-665.7 1027.16,-662.84 1017.41,-658.71 1016.96,-665.7"/>
</g>
<!-- Node8 -->
<g id="node8" class="node">
<title>Node8</title>
<g id="a_node8"><a xlink:href="../../db/da9/_c_c_edit_box_impl_8h.html" target="_top" xlink:title=" ">
<polygon fill="none" stroke="black" points="507,-78.5 507,-119.5 668,-119.5 668,-78.5 507,-78.5"/>
<text text-anchor="start" x="515" y="-107.5" font-family="Helvetica,sans-Serif" font-size="10.00">/home/runner/work/cocos2d.h</text>
<text text-anchor="start" x="515" y="-96.5" font-family="Helvetica,sans-Serif" font-size="10.00">/cocos2d.h/extensions/GUI</text>
<text text-anchor="middle" x="587.5" y="-85.5" font-family="Helvetica,sans-Serif" font-size="10.00">/CCEditBox/CCEditBoxImpl.h</text>
</a>
</g>
</g>
<!-- Node1&#45;&gt;Node8 -->
<g id="edge44" class="edge">
<title>Node1&#45;&gt;Node8</title>
<path fill="none" stroke="midnightblue" d="M1016.92,-665.81C904.6,-663.48 730.38,-652.81 682.5,-610 649.07,-580.11 658.5,-556.84 658.5,-512 658.5,-512 658.5,-512 658.5,-254 658.5,-201.6 624.17,-147.61 603.26,-119.58"/>
<polygon fill="midnightblue" stroke="midnightblue" points="1017.19,-669.31 1027.26,-666 1017.32,-662.31 1017.19,-669.31"/>
</g>
<!-- Node9 -->
<g id="node9" class="node">
<title>Node9</title>
<g id="a_node9"><a xlink:href="../../d4/dd3/_c_c_edit_box_impl_android_8h.html" target="_top" xlink:title=" ">
<polygon fill="none" stroke="black" points="0,-0.5 0,-41.5 193,-41.5 193,-0.5 0,-0.5"/>
<text text-anchor="start" x="8" y="-29.5" font-family="Helvetica,sans-Serif" font-size="10.00">/home/runner/work/cocos2d.h</text>
<text text-anchor="start" x="8" y="-18.5" font-family="Helvetica,sans-Serif" font-size="10.00">/cocos2d.h/extensions/GUI</text>
<text text-anchor="middle" x="96.5" y="-7.5" font-family="Helvetica,sans-Serif" font-size="10.00">/CCEditBox/CCEditBoxImplAndroid.h</text>
</a>
</g>
</g>
<!-- Node1&#45;&gt;Node9 -->
<g id="edge45" class="edge">
<title>Node1&#45;&gt;Node9</title>
<path fill="none" stroke="midnightblue" d="M1017.36,-662.83C844.67,-656.51 500.31,-640.26 454.5,-610 413.36,-582.82 402.5,-561.31 402.5,-512 402.5,-512 402.5,-512 402.5,-176 402.5,-123.14 254.98,-69.44 164.79,-41.55"/>
<polygon fill="midnightblue" stroke="midnightblue" points="1017.36,-666.34 1027.48,-663.2 1017.61,-659.34 1017.36,-666.34"/>
</g>
<!-- Node10 -->
<g id="node10" class="node">
<title>Node10</title>
<g id="a_node10"><a xlink:href="../../dd/dfd/_c_c_edit_box_impl_i_o_s_8h.html" target="_top" xlink:title=" ">
<polygon fill="none" stroke="black" points="211.5,-0.5 211.5,-41.5 383.5,-41.5 383.5,-0.5 211.5,-0.5"/>
<text text-anchor="start" x="219.5" y="-29.5" font-family="Helvetica,sans-Serif" font-size="10.00">/home/runner/work/cocos2d.h</text>
<text text-anchor="start" x="219.5" y="-18.5" font-family="Helvetica,sans-Serif" font-size="10.00">/cocos2d.h/extensions/GUI</text>
<text text-anchor="middle" x="297.5" y="-7.5" font-family="Helvetica,sans-Serif" font-size="10.00">/CCEditBox/CCEditBoxImplIOS.h</text>
</a>
</g>
</g>
<!-- Node1&#45;&gt;Node10 -->
<g id="edge46" class="edge">
<title>Node1&#45;&gt;Node10</title>
<path fill="none" stroke="midnightblue" d="M1017.07,-665.99C870.22,-664.43 602.1,-655.24 518.5,-610 469.54,-583.51 440.5,-567.67 440.5,-512 440.5,-512 440.5,-512 440.5,-176 440.5,-131.16 444.89,-112.71 416.5,-78 403.27,-61.83 384.3,-50.06 365.38,-41.62"/>
<polygon fill="midnightblue" stroke="midnightblue" points="1017.39,-669.49 1027.42,-666.08 1017.46,-662.49 1017.39,-669.49"/>
</g>
<!-- Node11 -->
<g id="node11" class="node">
<title>Node11</title>
<g id="a_node11"><a xlink:href="../../d7/d4d/_c_c_edit_box_impl_mac_8h.html" target="_top" xlink:title=" ">
<polygon fill="none" stroke="black" points="401.5,-0.5 401.5,-41.5 577.5,-41.5 577.5,-0.5 401.5,-0.5"/>
<text text-anchor="start" x="409.5" y="-29.5" font-family="Helvetica,sans-Serif" font-size="10.00">/home/runner/work/cocos2d.h</text>
<text text-anchor="start" x="409.5" y="-18.5" font-family="Helvetica,sans-Serif" font-size="10.00">/cocos2d.h/extensions/GUI</text>
<text text-anchor="middle" x="489.5" y="-7.5" font-family="Helvetica,sans-Serif" font-size="10.00">/CCEditBox/CCEditBoxImplMac.h</text>
</a>
</g>
</g>
<!-- Node1&#45;&gt;Node11 -->
<g id="edge47" class="edge">
<title>Node1&#45;&gt;Node11</title>
<path fill="none" stroke="midnightblue" d="M1017.06,-662.47C838.27,-653.37 478.5,-621.45 478.5,-512 478.5,-512 478.5,-512 478.5,-176 478.5,-127.75 483.94,-71.22 487.17,-41.9"/>
<polygon fill="midnightblue" stroke="midnightblue" points="1017.1,-665.98 1027.26,-662.98 1017.45,-658.99 1017.1,-665.98"/>
</g>
<!-- Node12 -->
<g id="node12" class="node">
<title>Node12</title>
<g id="a_node12"><a xlink:href="../../de/dac/_c_c_edit_box_impl_tizen_8h.html" target="_top" xlink:title=" ">
<polygon fill="none" stroke="black" points="595.5,-0.5 595.5,-41.5 777.5,-41.5 777.5,-0.5 595.5,-0.5"/>
<text text-anchor="start" x="603.5" y="-29.5" font-family="Helvetica,sans-Serif" font-size="10.00">/home/runner/work/cocos2d.h</text>
<text text-anchor="start" x="603.5" y="-18.5" font-family="Helvetica,sans-Serif" font-size="10.00">/cocos2d.h/extensions/GUI</text>
<text text-anchor="middle" x="686.5" y="-7.5" font-family="Helvetica,sans-Serif" font-size="10.00">/CCEditBox/CCEditBoxImplTizen.h</text>
</a>
</g>
</g>
<!-- Node1&#45;&gt;Node12 -->
<g id="edge48" class="edge">
<title>Node1&#45;&gt;Node12</title>
<path fill="none" stroke="midnightblue" d="M1017.03,-662.47C919.23,-657.08 777.93,-643.56 735.5,-610 698.73,-580.92 696.5,-558.88 696.5,-512 696.5,-512 696.5,-512 696.5,-176 696.5,-127.77 691.56,-71.23 688.62,-41.91"/>
<polygon fill="midnightblue" stroke="midnightblue" points="1017.07,-665.98 1027.24,-663.02 1017.44,-658.99 1017.07,-665.98"/>
</g>
<!-- Node13 -->
<g id="node13" class="node">
<title>Node13</title>
<g id="a_node13"><a xlink:href="../../dd/d41/_c_c_edit_box_impl_win_8h.html" target="_top" xlink:title=" ">
<polygon fill="none" stroke="black" points="795.5,-0.5 795.5,-41.5 969.5,-41.5 969.5,-0.5 795.5,-0.5"/>
<text text-anchor="start" x="803.5" y="-29.5" font-family="Helvetica,sans-Serif" font-size="10.00">/home/runner/work/cocos2d.h</text>
<text text-anchor="start" x="803.5" y="-18.5" font-family="Helvetica,sans-Serif" font-size="10.00">/cocos2d.h/extensions/GUI</text>
<text text-anchor="middle" x="882.5" y="-7.5" font-family="Helvetica,sans-Serif" font-size="10.00">/CCEditBox/CCEditBoxImplWin.h</text>
</a>
</g>
</g>
<!-- Node1&#45;&gt;Node13 -->
<g id="edge49" class="edge">
<title>Node1&#45;&gt;Node13</title>
<path fill="none" stroke="midnightblue" d="M1017.15,-661.22C928.06,-654.96 805.29,-640.89 768.5,-610 733.19,-580.36 734.5,-558.1 734.5,-512 734.5,-512 734.5,-512 734.5,-176 734.5,-113.33 799,-66.29 842.84,-41.56"/>
<polygon fill="midnightblue" stroke="midnightblue" points="1017.08,-664.73 1027.29,-661.91 1017.55,-657.74 1017.08,-664.73"/>
</g>
<!-- Node14 -->
<g id="node14" class="node">
<title>Node14</title>
<g id="a_node14"><a xlink:href="../../d4/d91/_c_c_edit_box_impl_wp8_8h.html" target="_top" xlink:title=" ">
<polygon fill="none" stroke="black" points="988,-0.5 988,-41.5 1165,-41.5 1165,-0.5 988,-0.5"/>
<text text-anchor="start" x="996" y="-29.5" font-family="Helvetica,sans-Serif" font-size="10.00">/home/runner/work/cocos2d.h</text>
<text text-anchor="start" x="996" y="-18.5" font-family="Helvetica,sans-Serif" font-size="10.00">/cocos2d.h/extensions/GUI</text>
<text text-anchor="middle" x="1076.5" y="-7.5" font-family="Helvetica,sans-Serif" font-size="10.00">/CCEditBox/CCEditBoxImplWp8.h</text>
</a>
</g>
</g>
<!-- Node1&#45;&gt;Node14 -->
<g id="edge50" class="edge">
<title>Node1&#45;&gt;Node14</title>
<path fill="none" stroke="midnightblue" d="M1017.38,-657.06C928.21,-642.9 810.5,-606.34 810.5,-512 810.5,-512 810.5,-512 810.5,-176 810.5,-127.77 943.1,-70.88 1021.06,-41.6"/>
<polygon fill="midnightblue" stroke="midnightblue" points="1016.87,-660.52 1027.28,-658.56 1017.92,-653.6 1016.87,-660.52"/>
</g>
<!-- Node15 -->
<g id="node15" class="node">
<title>Node15</title>
<g id="a_node15"><a xlink:href="../../d3/d58/cocos-ext_8h.html" target="_top" xlink:title=" ">
<polygon fill="none" stroke="black" points="2398.5,-84 2398.5,-114 2582.5,-114 2582.5,-84 2398.5,-84"/>
<text text-anchor="start" x="2406.5" y="-102" font-family="Helvetica,sans-Serif" font-size="10.00">/home/runner/work/cocos2d.h</text>
<text text-anchor="middle" x="2490.5" y="-91" font-family="Helvetica,sans-Serif" font-size="10.00">/cocos2d.h/extensions/cocos&#45;ext.h</text>
</a>
</g>
</g>
<!-- Node1&#45;&gt;Node15 -->
<g id="edge58" class="edge">
<title>Node1&#45;&gt;Node15</title>
<path fill="none" stroke="midnightblue" d="M1213.73,-666.49C1543.13,-667.61 2595.76,-666.66 2736.5,-610 2795.72,-586.16 2841.5,-575.83 2841.5,-512 2841.5,-512 2841.5,-512 2841.5,-254 2841.5,-140.87 2686.72,-110.08 2582.72,-102.16"/>
<polygon fill="midnightblue" stroke="midnightblue" points="1213.74,-662.99 1203.73,-666.46 1213.71,-669.99 1213.74,-662.99"/>
</g>
<!-- Node24 -->
<g id="node24" class="node">
<title>Node24</title>
<g id="a_node24"><a xlink:href="../../d5/dad/_c_c_invocation_8h.html" target="_top" xlink:title=" ">
<polygon fill="none" stroke="black" points="1336,-568.5 1336,-609.5 1529,-609.5 1529,-568.5 1336,-568.5"/>
<text text-anchor="start" x="1344" y="-597.5" font-family="Helvetica,sans-Serif" font-size="10.00">/home/runner/work/cocos2d.h</text>
<text text-anchor="start" x="1344" y="-586.5" font-family="Helvetica,sans-Serif" font-size="10.00">/cocos2d.h/extensions/GUI</text>
<text text-anchor="middle" x="1432.5" y="-575.5" font-family="Helvetica,sans-Serif" font-size="10.00">/CCControlExtension/CCInvocation.h</text>
</a>
</g>
</g>
<!-- Node1&#45;&gt;Node24 -->
<g id="edge34" class="edge">
<title>Node1&#45;&gt;Node24</title>
<path fill="none" stroke="midnightblue" d="M1207,-644.06C1252.53,-633.15 1307.09,-620.07 1351.14,-609.51"/>
<polygon fill="midnightblue" stroke="midnightblue" points="1206.04,-640.69 1197.14,-646.43 1207.68,-647.5 1206.04,-640.69"/>
</g>
<!-- Node25 -->
<g id="node25" class="node">
<title>Node25</title>
<g id="a_node25"><a xlink:href="../../db/d24/_c_c_scale9_sprite_8h.html" target="_top" xlink:title=" ">
<polygon fill="none" stroke="black" points="1902,-490.5 1902,-531.5 2105,-531.5 2105,-490.5 1902,-490.5"/>
<text text-anchor="start" x="1910" y="-519.5" font-family="Helvetica,sans-Serif" font-size="10.00">/home/runner/work/cocos2d.h</text>
<text text-anchor="start" x="1910" y="-508.5" font-family="Helvetica,sans-Serif" font-size="10.00">/cocos2d.h/extensions/GUI</text>
<text text-anchor="middle" x="2003.5" y="-497.5" font-family="Helvetica,sans-Serif" font-size="10.00">/CCControlExtension/CCScale9Sprite.h</text>
</a>
</g>
</g>
<!-- Node1&#45;&gt;Node25 -->
<g id="edge40" class="edge">
<title>Node1&#45;&gt;Node25</title>
<path fill="none" stroke="midnightblue" d="M1213.87,-655.07C1299.6,-645.04 1427.14,-628.9 1537.5,-610 1672.16,-586.94 1827.14,-552.82 1920.1,-531.52"/>
<polygon fill="midnightblue" stroke="midnightblue" points="1213.42,-651.6 1203.89,-656.23 1214.23,-658.55 1213.42,-651.6"/>
</g>
<!-- Node26 -->
<g id="node26" class="node">
<title>Node26</title>
<g id="a_node26"><a xlink:href="../../de/d56/_c_c_scroll_view_8h.html" target="_top" xlink:title=" ">
<polygon fill="none" stroke="black" points="2123,-490.5 2123,-531.5 2284,-531.5 2284,-490.5 2123,-490.5"/>
<text text-anchor="start" x="2131" y="-519.5" font-family="Helvetica,sans-Serif" font-size="10.00">/home/runner/work/cocos2d.h</text>
<text text-anchor="start" x="2131" y="-508.5" font-family="Helvetica,sans-Serif" font-size="10.00">/cocos2d.h/extensions/GUI</text>
<text text-anchor="middle" x="2203.5" y="-497.5" font-family="Helvetica,sans-Serif" font-size="10.00">/CCScrollView/CCScrollView.h</text>
</a>
</g>
</g>
<!-- Node1&#45;&gt;Node26 -->
<g id="edge51" class="edge">
<title>Node1&#45;&gt;Node26</title>
<path fill="none" stroke="midnightblue" d="M1214.19,-657.67C1322.45,-648.08 1501.21,-630.94 1654.5,-610 1859.96,-581.94 1911.05,-572.08 2114.5,-532 2117.14,-531.48 2119.82,-530.94 2122.53,-530.39"/>
<polygon fill="midnightblue" stroke="midnightblue" points="1213.59,-654.21 1203.94,-658.57 1214.21,-661.18 1213.59,-654.21"/>
</g>
<!-- Node28 -->
<g id="node28" class="node">
<title>Node28</title>
<g id="a_node28"><a xlink:href="../../dc/d52/_c_c_sorting_8h.html" target="_top" xlink:title=" ">
<polygon fill="none" stroke="black" points="2272,-568.5 2272,-609.5 2433,-609.5 2433,-568.5 2272,-568.5"/>
<text text-anchor="start" x="2280" y="-597.5" font-family="Helvetica,sans-Serif" font-size="10.00">/home/runner/work/cocos2d.h</text>
<text text-anchor="start" x="2280" y="-586.5" font-family="Helvetica,sans-Serif" font-size="10.00">/cocos2d.h/extensions/GUI</text>
<text text-anchor="middle" x="2352.5" y="-575.5" font-family="Helvetica,sans-Serif" font-size="10.00">/CCScrollView/CCSorting.h</text>
</a>
</g>
</g>
<!-- Node1&#45;&gt;Node28 -->
<g id="edge55" class="edge">
<title>Node1&#45;&gt;Node28</title>
<path fill="none" stroke="midnightblue" d="M1213.75,-661.84C1395.86,-653.85 1798.11,-634.94 2136.5,-610 2181.29,-606.7 2231.22,-602.13 2271.78,-598.2"/>
<polygon fill="midnightblue" stroke="midnightblue" points="1213.5,-658.35 1203.66,-662.28 1213.8,-665.34 1213.5,-658.35"/>
</g>
<!-- Node30 -->
<g id="node30" class="node">
<title>Node30</title>
<g id="a_node30"><a xlink:href="../../d8/d12/_http_client_8h.html" target="_top" xlink:title=" ">
<polygon fill="none" stroke="black" points="2498,-407 2498,-448 2665,-448 2665,-407 2498,-407"/>
<text text-anchor="start" x="2506" y="-436" font-family="Helvetica,sans-Serif" font-size="10.00">/home/runner/work/cocos2d.h</text>
<text text-anchor="start" x="2506" y="-425" font-family="Helvetica,sans-Serif" font-size="10.00">/cocos2d.h/extensions/network</text>
<text text-anchor="middle" x="2581.5" y="-414" font-family="Helvetica,sans-Serif" font-size="10.00">/HttpClient.h</text>
</a>
</g>
</g>
<!-- Node1&#45;&gt;Node30 -->
<g id="edge59" class="edge">
<title>Node1&#45;&gt;Node30</title>
<path fill="none" stroke="midnightblue" d="M1213.59,-666.62C1502.13,-667.78 2334.53,-666.17 2442.5,-610 2511.34,-574.19 2556.1,-487.22 2573.41,-448.12"/>
<polygon fill="midnightblue" stroke="midnightblue" points="1213.57,-663.12 1203.56,-666.58 1213.54,-670.12 1213.57,-663.12"/>
</g>
<!-- Node31 -->
<g id="node31" class="node">
<title>Node31</title>
<g id="a_node31"><a xlink:href="../../d3/d95/_http_request_8h.html" target="_top" xlink:title=" ">
<polygon fill="none" stroke="black" points="2536,-568.5 2536,-609.5 2703,-609.5 2703,-568.5 2536,-568.5"/>
<text text-anchor="start" x="2544" y="-597.5" font-family="Helvetica,sans-Serif" font-size="10.00">/home/runner/work/cocos2d.h</text>
<text text-anchor="start" x="2544" y="-586.5" font-family="Helvetica,sans-Serif" font-size="10.00">/cocos2d.h/extensions/network</text>
<text text-anchor="middle" x="2619.5" y="-575.5" font-family="Helvetica,sans-Serif" font-size="10.00">/HttpRequest.h</text>
</a>
</g>
</g>
<!-- Node1&#45;&gt;Node31 -->
<g id="edge61" class="edge">
<title>Node1&#45;&gt;Node31</title>
<path fill="none" stroke="midnightblue" d="M1213.99,-664.18C1490.22,-658.73 2268.7,-641 2522.5,-610 2526.85,-609.47 2531.3,-608.84 2535.78,-608.15"/>
<polygon fill="midnightblue" stroke="midnightblue" points="1213.51,-660.69 1203.58,-664.38 1213.65,-667.68 1213.51,-660.69"/>
</g>
<!-- Node32 -->
<g id="node32" class="node">
<title>Node32</title>
<g id="a_node32"><a xlink:href="../../d1/d33/_http_response_8h.html" target="_top" xlink:title=" ">
<polygon fill="none" stroke="black" points="2647,-490.5 2647,-531.5 2814,-531.5 2814,-490.5 2647,-490.5"/>
<text text-anchor="start" x="2655" y="-519.5" font-family="Helvetica,sans-Serif" font-size="10.00">/home/runner/work/cocos2d.h</text>
<text text-anchor="start" x="2655" y="-508.5" font-family="Helvetica,sans-Serif" font-size="10.00">/cocos2d.h/extensions/network</text>
<text text-anchor="middle" x="2730.5" y="-497.5" font-family="Helvetica,sans-Serif" font-size="10.00">/HttpResponse.h</text>
</a>
</g>
</g>
<!-- Node1&#45;&gt;Node32 -->
<g id="edge67" class="edge">
<title>Node1&#45;&gt;Node32</title>
<path fill="none" stroke="midnightblue" d="M1213.78,-665.92C1552.78,-665.19 2655.67,-659.06 2712.5,-610 2734.63,-590.9 2735.39,-554.31 2733.34,-531.64"/>
<polygon fill="midnightblue" stroke="midnightblue" points="1213.72,-662.42 1203.73,-665.94 1213.74,-669.42 1213.72,-662.42"/>
</g>
<!-- Node33 -->
<g id="node33" class="node">
<title>Node33</title>
<g id="a_node33"><a xlink:href="../../da/d1e/_web_socket_8h.html" target="_top" xlink:title=" ">
<polygon fill="none" stroke="black" points="2869,-568.5 2869,-609.5 3036,-609.5 3036,-568.5 2869,-568.5"/>
<text text-anchor="start" x="2877" y="-597.5" font-family="Helvetica,sans-Serif" font-size="10.00">/home/runner/work/cocos2d.h</text>
<text text-anchor="start" x="2877" y="-586.5" font-family="Helvetica,sans-Serif" font-size="10.00">/cocos2d.h/extensions/network</text>
<text text-anchor="middle" x="2952.5" y="-575.5" font-family="Helvetica,sans-Serif" font-size="10.00">/WebSocket.h</text>
</a>
</g>
</g>
<!-- Node1&#45;&gt;Node33 -->
<g id="edge68" class="edge">
<title>Node1&#45;&gt;Node33</title>
<path fill="none" stroke="midnightblue" d="M1213.65,-665.05C1532.02,-661.63 2533.99,-648.04 2855.5,-610 2859.85,-609.48 2864.3,-608.87 2868.79,-608.19"/>
<polygon fill="midnightblue" stroke="midnightblue" points="1213.48,-661.55 1203.52,-665.16 1213.56,-668.55 1213.48,-661.55"/>
</g>
<!-- Node4 -->
<g id="node4" class="node">
<title>Node4</title>
<g id="a_node4"><a xlink:href="../../de/d8b/_c_c_control_8h.html" target="_top" xlink:title=" ">
<polygon fill="none" stroke="black" points="1446,-490.5 1446,-531.5 1623,-531.5 1623,-490.5 1446,-490.5"/>
<text text-anchor="start" x="1454" y="-519.5" font-family="Helvetica,sans-Serif" font-size="10.00">/home/runner/work/cocos2d.h</text>
<text text-anchor="start" x="1454" y="-508.5" font-family="Helvetica,sans-Serif" font-size="10.00">/cocos2d.h/extensions/GUI</text>
<text text-anchor="middle" x="1534.5" y="-497.5" font-family="Helvetica,sans-Serif" font-size="10.00">/CCControlExtension/CCControl.h</text>
</a>
</g>
</g>
<!-- Node3&#45;&gt;Node4 -->
<g id="edge3" class="edge">
<title>Node3&#45;&gt;Node4</title>
<path fill="none" stroke="midnightblue" d="M1225.59,-568.03C1294.32,-555.56 1381.62,-539.73 1445.87,-528.08"/>
<polygon fill="midnightblue" stroke="midnightblue" points="1224.81,-564.62 1215.59,-569.84 1226.06,-571.5 1224.81,-564.62"/>
</g>
<!-- Node16 -->
<g id="node16" class="node">
<title>Node16</title>
<g id="a_node16"><a xlink:href="../../d3/db7/_c_c_control_colour_picker_8h.html" target="_top" xlink:title=" ">
<polygon fill="none" stroke="black" points="1155.5,-312.5 1155.5,-364.5 1355.5,-364.5 1355.5,-312.5 1155.5,-312.5"/>
<text text-anchor="start" x="1163.5" y="-352.5" font-family="Helvetica,sans-Serif" font-size="10.00">/home/runner/work/cocos2d.h</text>
<text text-anchor="start" x="1163.5" y="-341.5" font-family="Helvetica,sans-Serif" font-size="10.00">/cocos2d.h/extensions/GUI</text>
<text text-anchor="start" x="1163.5" y="-330.5" font-family="Helvetica,sans-Serif" font-size="10.00">/CCControlExtension/CCControlColour</text>
<text text-anchor="middle" x="1255.5" y="-319.5" font-family="Helvetica,sans-Serif" font-size="10.00">Picker.h</text>
</a>
</g>
</g>
<!-- Node3&#45;&gt;Node16 -->
<g id="edge33" class="edge">
<title>Node3&#45;&gt;Node16</title>
<path fill="none" stroke="midnightblue" d="M1038.41,-565.27C944.7,-533.83 806.2,-472.78 867.5,-401 903.82,-358.47 1052.84,-345.19 1155.26,-341.14"/>
<polygon fill="midnightblue" stroke="midnightblue" points="1037.59,-568.68 1048.18,-568.49 1039.78,-562.03 1037.59,-568.68"/>
</g>
<!-- Node5 -->
<g id="node5" class="node">
<title>Node5</title>
<g id="a_node5"><a xlink:href="../../d0/d7e/_c_c_control_button_8h.html" target="_top" xlink:title=" ">
<polygon fill="none" stroke="black" points="2015,-407 2015,-448 2224,-448 2224,-407 2015,-407"/>
<text text-anchor="start" x="2023" y="-436" font-family="Helvetica,sans-Serif" font-size="10.00">/home/runner/work/cocos2d.h</text>
<text text-anchor="start" x="2023" y="-425" font-family="Helvetica,sans-Serif" font-size="10.00">/cocos2d.h/extensions/GUI</text>
<text text-anchor="middle" x="2119.5" y="-414" font-family="Helvetica,sans-Serif" font-size="10.00">/CCControlExtension/CCControlButton.h</text>
</a>
</g>
</g>
<!-- Node4&#45;&gt;Node5 -->
<g id="edge4" class="edge">
<title>Node4&#45;&gt;Node5</title>
<path fill="none" stroke="midnightblue" d="M1633.67,-501.17C1729.28,-491.96 1877.84,-475.81 2005.5,-454 2015.7,-452.26 2026.35,-450.2 2036.88,-448.02"/>
<polygon fill="midnightblue" stroke="midnightblue" points="1633.05,-497.71 1623.43,-502.15 1633.72,-504.68 1633.05,-497.71"/>
</g>
<!-- Node6 -->
<g id="node6" class="node">
<title>Node6</title>
<g id="a_node6"><a xlink:href="../../d6/d86/_c_c_control_extensions_8h.html" target="_top" xlink:title=" ">
<polygon fill="none" stroke="black" points="1813.5,-234.5 1813.5,-275.5 2043.5,-275.5 2043.5,-234.5 1813.5,-234.5"/>
<text text-anchor="start" x="1821.5" y="-263.5" font-family="Helvetica,sans-Serif" font-size="10.00">/home/runner/work/cocos2d.h</text>
<text text-anchor="start" x="1821.5" y="-252.5" font-family="Helvetica,sans-Serif" font-size="10.00">/cocos2d.h/extensions/GUI</text>
<text text-anchor="middle" x="1928.5" y="-241.5" font-family="Helvetica,sans-Serif" font-size="10.00">/CCControlExtension/CCControlExtensions.h</text>
</a>
</g>
</g>
<!-- Node4&#45;&gt;Node6 -->
<g id="edge18" class="edge">
<title>Node4&#45;&gt;Node6</title>
<path fill="none" stroke="midnightblue" d="M1598.52,-485.23C1611.29,-477.24 1623.04,-466.98 1630.5,-454 1642.23,-433.57 1645.59,-419.09 1630.5,-401 1573.5,-332.64 1490.5,-433.36 1433.5,-365 1418.41,-346.91 1417.81,-329.57 1433.5,-312 1458.38,-284.14 1675.09,-268.38 1813.4,-261.08"/>
<polygon fill="midnightblue" stroke="midnightblue" points="1596.47,-482.37 1589.57,-490.41 1599.98,-488.43 1596.47,-482.37"/>
</g>
<!-- Node4&#45;&gt;Node16 -->
<g id="edge16" class="edge">
<title>Node4&#45;&gt;Node16</title>
<path fill="none" stroke="midnightblue" d="M1447.87,-486.99C1426.21,-478.76 1403.93,-467.95 1385.5,-454 1362.18,-436.35 1367.59,-421.26 1346.5,-401 1332.34,-387.39 1314.84,-374.78 1298.98,-364.56"/>
<polygon fill="midnightblue" stroke="midnightblue" points="1446.84,-490.34 1457.43,-490.48 1449.24,-483.77 1446.84,-490.34"/>
</g>
<!-- Node17 -->
<g id="node17" class="node">
<title>Node17</title>
<g id="a_node17"><a xlink:href="../../dd/d5a/_c_c_control_hue_picker_8h.html" target="_top" xlink:title=" ">
<polygon fill="none" stroke="black" points="1113,-407 1113,-448 1338,-448 1338,-407 1113,-407"/>
<text text-anchor="start" x="1121" y="-436" font-family="Helvetica,sans-Serif" font-size="10.00">/home/runner/work/cocos2d.h</text>
<text text-anchor="start" x="1121" y="-425" font-family="Helvetica,sans-Serif" font-size="10.00">/cocos2d.h/extensions/GUI</text>
<text text-anchor="middle" x="1225.5" y="-414" font-family="Helvetica,sans-Serif" font-size="10.00">/CCControlExtension/CCControlHuePicker.h</text>
</a>
</g>
</g>
<!-- Node4&#45;&gt;Node17 -->
<g id="edge19" class="edge">
<title>Node4&#45;&gt;Node17</title>
<path fill="none" stroke="midnightblue" d="M1450.59,-487.87C1403.37,-475.41 1344.94,-460 1299.44,-448"/>
<polygon fill="midnightblue" stroke="midnightblue" points="1449.92,-491.31 1460.49,-490.48 1451.71,-484.54 1449.92,-491.31"/>
</g>
<!-- Node18 -->
<g id="node18" class="node">
<title>Node18</title>
<g id="a_node18"><a xlink:href="../../d2/d29/_c_c_control_potentiometer_8h.html" target="_top" xlink:title=" ">
<polygon fill="none" stroke="black" points="1442.5,-318 1442.5,-359 1688.5,-359 1688.5,-318 1442.5,-318"/>
<text text-anchor="start" x="1450.5" y="-347" font-family="Helvetica,sans-Serif" font-size="10.00">/home/runner/work/cocos2d.h</text>
<text text-anchor="start" x="1450.5" y="-336" font-family="Helvetica,sans-Serif" font-size="10.00">/cocos2d.h/extensions/GUI</text>
<text text-anchor="middle" x="1565.5" y="-325" font-family="Helvetica,sans-Serif" font-size="10.00">/CCControlExtension/CCControlPotentiometer.h</text>
</a>
</g>
</g>
<!-- Node4&#45;&gt;Node18 -->
<g id="edge21" class="edge">
<title>Node4&#45;&gt;Node18</title>
<path fill="none" stroke="midnightblue" d="M1627.87,-485.87C1642.36,-478.04 1655.49,-467.68 1664.5,-454 1677.45,-434.32 1675.95,-421.59 1664.5,-401 1654.18,-382.43 1635.67,-368.75 1617.42,-359.07"/>
<polygon fill="midnightblue" stroke="midnightblue" points="1626.09,-482.85 1618.69,-490.43 1629.2,-489.12 1626.09,-482.85"/>
</g>
<!-- Node19 -->
<g id="node19" class="node">
<title>Node19</title>
<g id="a_node19"><a xlink:href="../../de/d08/_c_c_control_saturation_brightness_picker_8h.html" target="_top" xlink:title=" ">
<polygon fill="none" stroke="black" points="876.5,-401.5 876.5,-453.5 1094.5,-453.5 1094.5,-401.5 876.5,-401.5"/>
<text text-anchor="start" x="884.5" y="-441.5" font-family="Helvetica,sans-Serif" font-size="10.00">/home/runner/work/cocos2d.h</text>
<text text-anchor="start" x="884.5" y="-430.5" font-family="Helvetica,sans-Serif" font-size="10.00">/cocos2d.h/extensions/GUI</text>
<text text-anchor="start" x="884.5" y="-419.5" font-family="Helvetica,sans-Serif" font-size="10.00">/CCControlExtension/CCControlSaturation</text>
<text text-anchor="middle" x="985.5" y="-408.5" font-family="Helvetica,sans-Serif" font-size="10.00">BrightnessPicker.h</text>
</a>
</g>
</g>
<!-- Node4&#45;&gt;Node19 -->
<g id="edge23" class="edge">
<title>Node4&#45;&gt;Node19</title>
<path fill="none" stroke="midnightblue" d="M1435.66,-499.54C1348.07,-489.7 1216.86,-473.58 1103.5,-454 1100.61,-453.5 1097.68,-452.98 1094.73,-452.44"/>
<polygon fill="midnightblue" stroke="midnightblue" points="1435.52,-503.04 1445.85,-500.68 1436.3,-496.09 1435.52,-503.04"/>
</g>
<!-- Node20 -->
<g id="node20" class="node">
<title>Node20</title>
<g id="a_node20"><a xlink:href="../../d6/d7e/_c_c_control_slider_8h.html" target="_top" xlink:title=" ">
<polygon fill="none" stroke="black" points="1792.5,-407 1792.5,-448 1996.5,-448 1996.5,-407 1792.5,-407"/>
<text text-anchor="start" x="1800.5" y="-436" font-family="Helvetica,sans-Serif" font-size="10.00">/home/runner/work/cocos2d.h</text>
<text text-anchor="start" x="1800.5" y="-425" font-family="Helvetica,sans-Serif" font-size="10.00">/cocos2d.h/extensions/GUI</text>
<text text-anchor="middle" x="1894.5" y="-414" font-family="Helvetica,sans-Serif" font-size="10.00">/CCControlExtension/CCControlSlider.h</text>
</a>
</g>
</g>
<!-- Node4&#45;&gt;Node20 -->
<g id="edge25" class="edge">
<title>Node4&#45;&gt;Node20</title>
<path fill="none" stroke="midnightblue" d="M1630.54,-488.26C1685.85,-475.74 1754.8,-460.13 1808.35,-448"/>
<polygon fill="midnightblue" stroke="midnightblue" points="1629.71,-484.86 1620.73,-490.48 1631.25,-491.68 1629.71,-484.86"/>
</g>
<!-- Node21 -->
<g id="node21" class="node">
<title>Node21</title>
<g id="a_node21"><a xlink:href="../../de/dba/_c_c_control_stepper_8h.html" target="_top" xlink:title=" ">
<polygon fill="none" stroke="black" points="1706.5,-318 1706.5,-359 1920.5,-359 1920.5,-318 1706.5,-318"/>
<text text-anchor="start" x="1714.5" y="-347" font-family="Helvetica,sans-Serif" font-size="10.00">/home/runner/work/cocos2d.h</text>
<text text-anchor="start" x="1714.5" y="-336" font-family="Helvetica,sans-Serif" font-size="10.00">/cocos2d.h/extensions/GUI</text>
<text text-anchor="middle" x="1813.5" y="-325" font-family="Helvetica,sans-Serif" font-size="10.00">/CCControlExtension/CCControlStepper.h</text>
</a>
</g>
</g>
<!-- Node4&#45;&gt;Node21 -->
<g id="edge27" class="edge">
<title>Node4&#45;&gt;Node21</title>
<path fill="none" stroke="midnightblue" d="M1611.87,-486.94C1635.69,-478.28 1661.43,-467.25 1683.5,-454 1706.96,-439.91 1762.77,-387.98 1793.07,-359.14"/>
<polygon fill="midnightblue" stroke="midnightblue" points="1610.41,-483.74 1602.15,-490.38 1612.75,-490.34 1610.41,-483.74"/>
</g>
<!-- Node22 -->
<g id="node22" class="node">
<title>Node22</title>
<g id="a_node22"><a xlink:href="../../de/dc7/_c_c_control_switch_8h.html" target="_top" xlink:title=" ">
<polygon fill="none" stroke="black" points="1939,-318 1939,-359 2148,-359 2148,-318 1939,-318"/>
<text text-anchor="start" x="1947" y="-347" font-family="Helvetica,sans-Serif" font-size="10.00">/home/runner/work/cocos2d.h</text>
<text text-anchor="start" x="1947" y="-336" font-family="Helvetica,sans-Serif" font-size="10.00">/cocos2d.h/extensions/GUI</text>
<text text-anchor="middle" x="2043.5" y="-325" font-family="Helvetica,sans-Serif" font-size="10.00">/CCControlExtension/CCControlSwitch.h</text>
</a>
</g>
</g>
<!-- Node4&#45;&gt;Node22 -->
<g id="edge29" class="edge">
<title>Node4&#45;&gt;Node22</title>
<path fill="none" stroke="midnightblue" d="M1627.47,-487.92C1668.52,-477.24 1711.51,-464.49 1729.5,-454 1758.55,-437.06 1754.06,-417.24 1783.5,-401 1791.31,-396.69 1883.52,-375.38 1955.93,-359.04"/>
<polygon fill="midnightblue" stroke="midnightblue" points="1626.46,-484.57 1617.65,-490.45 1628.21,-491.35 1626.46,-484.57"/>
</g>
<!-- Node23 -->
<g id="node23" class="node">
<title>Node23</title>
<g id="a_node23"><a xlink:href="../../d8/dec/_color_picker_delegate_8h.html" target="_top" xlink:title=" ">
<polygon fill="none" stroke="black" points="1395,-407 1395,-448 1622,-448 1622,-407 1395,-407"/>
<text text-anchor="start" x="1403" y="-436" font-family="Helvetica,sans-Serif" font-size="10.00">/home/runner/work/cocos2d.h</text>
<text text-anchor="start" x="1403" y="-425" font-family="Helvetica,sans-Serif" font-size="10.00">/cocos2d.h/extensions/GUI</text>
<text text-anchor="middle" x="1508.5" y="-414" font-family="Helvetica,sans-Serif" font-size="10.00">/CCControlExtension/ColorPickerDelegate.h</text>
</a>
</g>
</g>
<!-- Node4&#45;&gt;Node23 -->
<g id="edge31" class="edge">
<title>Node4&#45;&gt;Node23</title>
<path fill="none" stroke="midnightblue" d="M1525.16,-480.73C1521.7,-469.87 1517.86,-457.83 1514.74,-448.05"/>
<polygon fill="midnightblue" stroke="midnightblue" points="1521.83,-481.81 1528.21,-490.27 1528.5,-479.68 1521.83,-481.81"/>
</g>
<!-- Node5&#45;&gt;Node6 -->
<g id="edge5" class="edge">
<title>Node5&#45;&gt;Node6</title>
<path fill="none" stroke="midnightblue" d="M2152.36,-399.83C2162.02,-390.02 2171.38,-378.07 2176.5,-365 2185.1,-343.07 2191.21,-330.4 2176.5,-312 2159.31,-290.49 2099.98,-276.65 2043.67,-268.11"/>
<polygon fill="midnightblue" stroke="midnightblue" points="2149.77,-397.47 2144.97,-406.91 2154.61,-402.52 2149.77,-397.47"/>
</g>
<!-- Node6&#45;&gt;Node7 -->
<g id="edge6" class="edge">
<title>Node6&#45;&gt;Node7</title>
<path fill="none" stroke="midnightblue" d="M1803.4,-232.73C1726.16,-219.6 1629.33,-203.13 1562.14,-191.71"/>
<polygon fill="midnightblue" stroke="midnightblue" points="1803.23,-236.25 1813.68,-234.48 1804.4,-229.35 1803.23,-236.25"/>
</g>
<!-- Node6&#45;&gt;Node15 -->
<g id="edge15" class="edge">
<title>Node6&#45;&gt;Node15</title>
<path fill="none" stroke="midnightblue" d="M2006.11,-231.7C2076.56,-211.56 2183.36,-181.3 2276.5,-156 2330.42,-141.35 2392.18,-125.27 2435.45,-114.11"/>
<polygon fill="midnightblue" stroke="midnightblue" points="2005.06,-228.36 1996.41,-234.47 2006.99,-235.09 2005.06,-228.36"/>
</g>
<!-- Node7&#45;&gt;Node8 -->
<g id="edge7" class="edge">
<title>Node7&#45;&gt;Node8</title>
<path fill="none" stroke="midnightblue" d="M1390.78,-168.29C1215.97,-153.43 835.01,-121.04 668.32,-106.87"/>
<polygon fill="midnightblue" stroke="midnightblue" points="1390.72,-171.8 1400.98,-169.16 1391.31,-164.82 1390.72,-171.8"/>
</g>
<!-- Node7&#45;&gt;Node15 -->
<g id="edge14" class="edge">
<title>Node7&#45;&gt;Node15</title>
<path fill="none" stroke="midnightblue" d="M1572.39,-169.15C1763.7,-154.74 2206.08,-121.42 2398.42,-106.94"/>
<polygon fill="midnightblue" stroke="midnightblue" points="1572.07,-165.67 1562.37,-169.91 1572.6,-172.65 1572.07,-165.67"/>
</g>
<!-- Node8&#45;&gt;Node9 -->
<g id="edge8" class="edge">
<title>Node8&#45;&gt;Node9</title>
<path fill="none" stroke="midnightblue" d="M496.68,-85.89C418.56,-75.21 302.92,-58.77 202.5,-42 199.45,-41.49 196.36,-40.96 193.23,-40.43"/>
<polygon fill="midnightblue" stroke="midnightblue" points="496.59,-89.41 506.97,-87.29 497.54,-82.47 496.59,-89.41"/>
</g>
<!-- Node8&#45;&gt;Node10 -->
<g id="edge9" class="edge">
<title>Node8&#45;&gt;Node10</title>
<path fill="none" stroke="midnightblue" d="M503,-75.86C461.52,-64.98 411.97,-52 371.93,-41.51"/>
<polygon fill="midnightblue" stroke="midnightblue" points="502.26,-79.28 512.82,-78.43 504.03,-72.51 502.26,-79.28"/>
</g>
<!-- Node8&#45;&gt;Node11 -->
<g id="edge10" class="edge">
<title>Node8&#45;&gt;Node11</title>
<path fill="none" stroke="midnightblue" d="M554.06,-72.06C541.15,-62.06 526.64,-50.8 514.65,-41.51"/>
<polygon fill="midnightblue" stroke="midnightblue" points="552.22,-75.07 562.26,-78.43 556.51,-69.53 552.22,-75.07"/>
</g>
<!-- Node8&#45;&gt;Node12 -->
<g id="edge11" class="edge">
<title>Node8&#45;&gt;Node12</title>
<path fill="none" stroke="midnightblue" d="M621.28,-72.06C634.32,-62.06 648.98,-50.8 661.09,-41.51"/>
<polygon fill="midnightblue" stroke="midnightblue" points="618.8,-69.56 612.99,-78.43 623.06,-75.11 618.8,-69.56"/>
</g>
<!-- Node8&#45;&gt;Node13 -->
<g id="edge12" class="edge">
<title>Node8&#45;&gt;Node13</title>
<path fill="none" stroke="midnightblue" d="M673.19,-75.92C715.44,-65.04 765.97,-52.02 806.79,-41.51"/>
<polygon fill="midnightblue" stroke="midnightblue" points="672.28,-72.54 663.47,-78.43 674.03,-79.32 672.28,-72.54"/>
</g>
<!-- Node8&#45;&gt;Node14 -->
<g id="edge13" class="edge">
<title>Node8&#45;&gt;Node14</title>
<path fill="none" stroke="midnightblue" d="M678.19,-86.56C757.59,-76.17 875.96,-59.79 978.5,-42 981.58,-41.47 984.71,-40.91 987.87,-40.33"/>
<polygon fill="midnightblue" stroke="midnightblue" points="677.68,-83.09 668.22,-87.85 678.59,-90.03 677.68,-83.09"/>
</g>
<!-- Node16&#45;&gt;Node6 -->
<g id="edge17" class="edge">
<title>Node16&#45;&gt;Node6</title>
<path fill="none" stroke="midnightblue" d="M1365.48,-317.34C1377.29,-315.42 1389.13,-313.6 1400.5,-312 1542.21,-292.05 1706.23,-275.7 1813.38,-265.92"/>
<polygon fill="midnightblue" stroke="midnightblue" points="1364.89,-313.9 1355.59,-318.98 1366.03,-320.8 1364.89,-313.9"/>
</g>
<!-- Node17&#45;&gt;Node16 -->
<g id="edge20" class="edge">
<title>Node17&#45;&gt;Node16</title>
<path fill="none" stroke="midnightblue" d="M1235.62,-397.16C1239.24,-386.66 1243.29,-374.92 1246.78,-364.79"/>
<polygon fill="midnightblue" stroke="midnightblue" points="1232.26,-396.16 1232.31,-406.76 1238.88,-398.45 1232.26,-396.16"/>
</g>
<!-- Node18&#45;&gt;Node6 -->
<g id="edge22" class="edge">
<title>Node18&#45;&gt;Node6</title>
<path fill="none" stroke="midnightblue" d="M1662.34,-315.76C1718.11,-303.24 1787.63,-287.63 1841.63,-275.5"/>
<polygon fill="midnightblue" stroke="midnightblue" points="1661.44,-312.37 1652.45,-317.98 1662.97,-319.2 1661.44,-312.37"/>
</g>
<!-- Node19&#45;&gt;Node16 -->
<g id="edge24" class="edge">
<title>Node19&#45;&gt;Node16</title>
<path fill="none" stroke="midnightblue" d="M1073.08,-398.28C1106.83,-387.4 1145.1,-375.07 1177.85,-364.52"/>
<polygon fill="midnightblue" stroke="midnightblue" points="1071.68,-395.05 1063.23,-401.45 1073.82,-401.72 1071.68,-395.05"/>
</g>
<!-- Node20&#45;&gt;Node6 -->
<g id="edge26" class="edge">
<title>Node20&#45;&gt;Node6</title>
<path fill="none" stroke="midnightblue" d="M1989.57,-404.62C2064.6,-387.3 2156.81,-365.87 2157.5,-365 2172.14,-346.54 2172.04,-330.53 2157.5,-312 2142.62,-293.05 2092.98,-279.68 2043.71,-270.77"/>
<polygon fill="midnightblue" stroke="midnightblue" points="1988.53,-401.27 1979.57,-406.93 1990.11,-408.09 1988.53,-401.27"/>
</g>
<!-- Node21&#45;&gt;Node6 -->
<g id="edge28" class="edge">
<title>Node21&#45;&gt;Node6</title>
<path fill="none" stroke="midnightblue" d="M1849.42,-312.04C1865.99,-300.3 1885.36,-286.57 1900.78,-275.64"/>
<polygon fill="midnightblue" stroke="midnightblue" points="1847.18,-309.34 1841.05,-317.98 1851.23,-315.05 1847.18,-309.34"/>
</g>
<!-- Node22&#45;&gt;Node6 -->
<g id="edge30" class="edge">
<title>Node22&#45;&gt;Node6</title>
<path fill="none" stroke="midnightblue" d="M2007.58,-312.04C1991.01,-300.3 1971.64,-286.57 1956.22,-275.64"/>
<polygon fill="midnightblue" stroke="midnightblue" points="2005.77,-315.05 2015.95,-317.98 2009.82,-309.34 2005.77,-315.05"/>
</g>
<!-- Node23&#45;&gt;Node16 -->
<g id="edge32" class="edge">
<title>Node23&#45;&gt;Node16</title>
<path fill="none" stroke="midnightblue" d="M1442.1,-403.67C1407.17,-391.66 1364.29,-376.91 1328.45,-364.58"/>
<polygon fill="midnightblue" stroke="midnightblue" points="1441.13,-407.03 1451.72,-406.98 1443.4,-400.41 1441.13,-407.03"/>
</g>
<!-- Node24&#45;&gt;Node4 -->
<g id="edge35" class="edge">
<title>Node24&#45;&gt;Node4</title>
<path fill="none" stroke="midnightblue" d="M1466.92,-562.35C1480.45,-552.27 1495.72,-540.89 1508.32,-531.51"/>
<polygon fill="midnightblue" stroke="midnightblue" points="1464.7,-559.65 1458.77,-568.43 1468.88,-565.26 1464.7,-559.65"/>
</g>
<!-- Node24&#45;&gt;Node5 -->
<g id="edge36" class="edge">
<title>Node24&#45;&gt;Node5</title>
<path fill="none" stroke="midnightblue" d="M1539.15,-566.64C1588.36,-556.54 1647.5,-544.08 1700.5,-532 1821.04,-504.53 1960.26,-469.47 2044,-448.02"/>
<polygon fill="midnightblue" stroke="midnightblue" points="1538.22,-563.25 1529.13,-568.69 1539.63,-570.11 1538.22,-563.25"/>
</g>
<!-- Node24&#45;&gt;Node17 -->
<g id="edge37" class="edge">
<title>Node24&#45;&gt;Node17</title>
<path fill="none" stroke="midnightblue" d="M1399,-562.19C1357.69,-530.35 1288.38,-476.95 1251.09,-448.22"/>
<polygon fill="midnightblue" stroke="midnightblue" points="1397.06,-565.11 1407.12,-568.44 1401.33,-559.57 1397.06,-565.11"/>
</g>
<!-- Node24&#45;&gt;Node19 -->
<g id="edge38" class="edge">
<title>Node24&#45;&gt;Node19</title>
<path fill="none" stroke="midnightblue" d="M1368.13,-565.03C1285.21,-535.44 1141.58,-484.19 1055.85,-453.6"/>
<polygon fill="midnightblue" stroke="midnightblue" points="1367.09,-568.38 1377.69,-568.44 1369.45,-561.78 1367.09,-568.38"/>
</g>
<!-- Node24&#45;&gt;Node20 -->
<g id="edge39" class="edge">
<title>Node24&#45;&gt;Node20</title>
<path fill="none" stroke="midnightblue" d="M1518.88,-565.73C1554.06,-556.13 1594.97,-544.29 1631.5,-532 1708.93,-505.94 1796.89,-470 1848.93,-448.05"/>
<polygon fill="midnightblue" stroke="midnightblue" points="1517.86,-562.38 1509.12,-568.37 1519.69,-569.13 1517.86,-562.38"/>
</g>
<!-- Node25&#45;&gt;Node5 -->
<g id="edge41" class="edge">
<title>Node25&#45;&gt;Node5</title>
<path fill="none" stroke="midnightblue" d="M2039.73,-484.54C2056.45,-472.8 2075.98,-459.07 2091.54,-448.14"/>
<polygon fill="midnightblue" stroke="midnightblue" points="2037.46,-481.87 2031.28,-490.48 2041.48,-487.59 2037.46,-481.87"/>
</g>
<!-- Node25&#45;&gt;Node6 -->
<g id="edge42" class="edge">
<title>Node25&#45;&gt;Node6</title>
<path fill="none" stroke="midnightblue" d="M2115.09,-489.2C2169.71,-477.89 2225.51,-464.17 2233.5,-454 2248.05,-435.48 2238.33,-424.06 2233.5,-401 2224.65,-358.73 2228.01,-339.24 2194.5,-312 2171.02,-292.91 2104.31,-278.89 2043.57,-269.66"/>
<polygon fill="midnightblue" stroke="midnightblue" points="2114.37,-485.78 2105.27,-491.21 2115.77,-492.63 2114.37,-485.78"/>
</g>
<!-- Node26&#45;&gt;Node15 -->
<g id="edge54" class="edge">
<title>Node26&#45;&gt;Node15</title>
<path fill="none" stroke="midnightblue" d="M2229.76,-482.74C2237.18,-474.04 2244.78,-464.05 2250.5,-454 2277.15,-407.14 2290.5,-393.4 2290.5,-339.5 2290.5,-339.5 2290.5,-339.5 2290.5,-254 2290.5,-178.08 2382.1,-134.38 2441.32,-114.07"/>
<polygon fill="midnightblue" stroke="midnightblue" points="2227.05,-480.52 2223.06,-490.33 2232.3,-485.15 2227.05,-480.52"/>
</g>
<!-- Node27 -->
<g id="node27" class="node">
<title>Node27</title>
<g id="a_node27"><a xlink:href="../../d8/dbb/_c_c_table_view_8h.html" target="_top" xlink:title=" ">
<polygon fill="none" stroke="black" points="2319,-407 2319,-448 2480,-448 2480,-407 2319,-407"/>
<text text-anchor="start" x="2327" y="-436" font-family="Helvetica,sans-Serif" font-size="10.00">/home/runner/work/cocos2d.h</text>
<text text-anchor="start" x="2327" y="-425" font-family="Helvetica,sans-Serif" font-size="10.00">/cocos2d.h/extensions/GUI</text>
<text text-anchor="middle" x="2399.5" y="-414" font-family="Helvetica,sans-Serif" font-size="10.00">/CCScrollView/CCTableView.h</text>
</a>
</g>
</g>
<!-- Node26&#45;&gt;Node27 -->
<g id="edge52" class="edge">
<title>Node26&#45;&gt;Node27</title>
<path fill="none" stroke="midnightblue" d="M2259.76,-486.61C2289.15,-474.39 2324.71,-459.6 2352.6,-448"/>
<polygon fill="midnightblue" stroke="midnightblue" points="2258.34,-483.41 2250.45,-490.48 2261.02,-489.87 2258.34,-483.41"/>
</g>
<!-- Node27&#45;&gt;Node15 -->
<g id="edge53" class="edge">
<title>Node27&#45;&gt;Node15</title>
<path fill="none" stroke="midnightblue" d="M2407.75,-396.9C2426.69,-328.94 2472.72,-163.79 2486.52,-114.27"/>
<polygon fill="midnightblue" stroke="midnightblue" points="2404.37,-395.99 2405.06,-406.57 2411.11,-397.87 2404.37,-395.99"/>
</g>
<!-- Node29 -->
<g id="node29" class="node">
<title>Node29</title>
<g id="a_node29"><a xlink:href="../../d1/dde/_c_c_table_view_cell_8h.html" target="_top" xlink:title=" ">
<polygon fill="none" stroke="black" points="2302.5,-490.5 2302.5,-531.5 2480.5,-531.5 2480.5,-490.5 2302.5,-490.5"/>
<text text-anchor="start" x="2310.5" y="-519.5" font-family="Helvetica,sans-Serif" font-size="10.00">/home/runner/work/cocos2d.h</text>
<text text-anchor="start" x="2310.5" y="-508.5" font-family="Helvetica,sans-Serif" font-size="10.00">/cocos2d.h/extensions/GUI</text>
<text text-anchor="middle" x="2391.5" y="-497.5" font-family="Helvetica,sans-Serif" font-size="10.00">/CCScrollView/CCTableViewCell.h</text>
</a>
</g>
</g>
<!-- Node28&#45;&gt;Node29 -->
<g id="edge56" class="edge">
<title>Node28&#45;&gt;Node29</title>
<path fill="none" stroke="midnightblue" d="M2367.14,-559.47C2371.93,-550.14 2377.13,-540.01 2381.49,-531.51"/>
<polygon fill="midnightblue" stroke="midnightblue" points="2364,-557.93 2362.54,-568.43 2370.22,-561.13 2364,-557.93"/>
</g>
<!-- Node29&#45;&gt;Node27 -->
<g id="edge57" class="edge">
<title>Node29&#45;&gt;Node27</title>
<path fill="none" stroke="midnightblue" d="M2394.44,-480.06C2395.49,-469.38 2396.64,-457.63 2397.58,-448.05"/>
<polygon fill="midnightblue" stroke="midnightblue" points="2390.93,-479.98 2393.44,-490.27 2397.9,-480.66 2390.93,-479.98"/>
</g>
<!-- Node30&#45;&gt;Node15 -->
<g id="edge60" class="edge">
<title>Node30&#45;&gt;Node15</title>
<path fill="none" stroke="midnightblue" d="M2573.25,-396.9C2554.31,-328.94 2508.28,-163.79 2494.48,-114.27"/>
<polygon fill="midnightblue" stroke="midnightblue" points="2569.89,-397.87 2575.94,-406.57 2576.63,-395.99 2569.89,-397.87"/>
</g>
<!-- Node31&#45;&gt;Node15 -->
<g id="edge62" class="edge">
<title>Node31&#45;&gt;Node15</title>
<path fill="none" stroke="midnightblue" d="M2620.73,-558.27C2622.62,-538.01 2627.26,-511.15 2638.5,-490 2649.12,-470.02 2664.24,-474.17 2674.5,-454 2697.86,-408.09 2692.5,-391.01 2692.5,-339.5 2692.5,-339.5 2692.5,-339.5 2692.5,-254 2692.5,-177.71 2600.25,-134.2 2540.43,-114.01"/>
<polygon fill="midnightblue" stroke="midnightblue" points="2617.22,-558.24 2619.95,-568.47 2624.2,-558.77 2617.22,-558.24"/>
</g>
<!-- Node31&#45;&gt;Node30 -->
<g id="edge63" class="edge">
<title>Node31&#45;&gt;Node30</title>
<path fill="none" stroke="midnightblue" d="M2612.01,-558.42C2609.87,-549.9 2607.57,-540.59 2605.5,-532 2598.5,-502.95 2590.75,-469.22 2586,-448.37"/>
<polygon fill="midnightblue" stroke="midnightblue" points="2608.66,-559.48 2614.49,-568.32 2615.45,-557.77 2608.66,-559.48"/>
</g>
<!-- Node31&#45;&gt;Node32 -->
<g id="edge64" class="edge">
<title>Node31&#45;&gt;Node32</title>
<path fill="none" stroke="midnightblue" d="M2656.55,-562.64C2671.37,-552.49 2688.17,-540.98 2702.01,-531.51"/>
<polygon fill="midnightblue" stroke="midnightblue" points="2654.36,-559.89 2648.09,-568.43 2658.31,-565.67 2654.36,-559.89"/>
</g>
<!-- Node32&#45;&gt;Node15 -->
<g id="edge65" class="edge">
<title>Node32&#45;&gt;Node15</title>
<path fill="none" stroke="midnightblue" d="M2730.5,-480.11C2730.5,-446.07 2730.5,-388.78 2730.5,-339.5 2730.5,-339.5 2730.5,-339.5 2730.5,-254 2730.5,-209.16 2737.99,-187.92 2706.5,-156 2688.65,-137.9 2632.32,-123.64 2581.67,-114.04"/>
<polygon fill="midnightblue" stroke="midnightblue" points="2727,-480.31 2730.5,-490.31 2734,-480.31 2727,-480.31"/>
</g>
<!-- Node32&#45;&gt;Node30 -->
<g id="edge66" class="edge">
<title>Node32&#45;&gt;Node30</title>
<path fill="none" stroke="midnightblue" d="M2685.98,-485.65C2663.99,-473.62 2637.81,-459.3 2617.16,-448"/>
<polygon fill="midnightblue" stroke="midnightblue" points="2684.36,-488.75 2694.81,-490.48 2687.72,-482.61 2684.36,-488.75"/>
</g>
</g>
</svg>
