<?xml version="1.0" encoding="UTF-8" standalone="no"?>
<!DOCTYPE svg PUBLIC "-//W3C//DTD SVG 1.1//EN"
 "http://www.w3.org/Graphics/SVG/1.1/DTD/svg11.dtd">
<!-- Generated by graphviz version 2.43.0 (0)
 -->
<!-- Title: /home/runner/work/cocos2d.h/cocos2d.h/extensions/ExtensionMacros.h Pages: 1 -->
<svg width="3044pt" height="687pt"
 viewBox="0.00 0.00 3044.00 687.00" xmlns="http://www.w3.org/2000/svg" xmlns:xlink="http://www.w3.org/1999/xlink">
<g id="graph0" class="graph" transform="scale(1 1) rotate(0) translate(4 683)">
<title>/home/runner/work/cocos2d.h/cocos2d.h/extensions/ExtensionMacros.h</title>
<!-- Node1 -->
<g id="node1" class="node">
<title>Node1</title>
<g id="a_node1"><a xlink:title=" ">
<polygon fill="#999999" stroke="#666666" points="1203.5,-679 1027.5,-679 1027.5,-638 1203.5,-638 1203.5,-679"/>
<text text-anchor="start" x="1035.5" y="-667" font-family="Helvetica,sans-Serif" font-size="10.00">/home/runner/work/cocos2d.h</text>
<text text-anchor="start" x="1035.5" y="-656" font-family="Helvetica,sans-Serif" font-size="10.00">/cocos2d.h/extensions/Extension</text>
<text text-anchor="middle" x="1115.5" y="-645" font-family="Helvetica,sans-Serif" font-size="10.00">Macros.h</text>
</a>
</g>
</g>
<!-- Node2 -->
<g id="node2" class="node">
<title>Node2</title>
<g id="a_node2"><a xlink:href="../../d3/db7/_assets_manager_8h.html" target="_top" xlink:title=" ">
<polygon fill="white" stroke="#666666" points="374,-602 171,-602 171,-561 374,-561 374,-602"/>
<text text-anchor="start" x="179" y="-590" font-family="Helvetica,sans-Serif" font-size="10.00">/home/runner/work/cocos2d.h</text>
<text text-anchor="start" x="179" y="-579" font-family="Helvetica,sans-Serif" font-size="10.00">/cocos2d.h/extensions/AssetsManager</text>
<text text-anchor="middle" x="272.5" y="-568" font-family="Helvetica,sans-Serif" font-size="10.00">/AssetsManager.h</text>
</a>
</g>
</g>
<!-- Node1&#45;&gt;Node2 -->
<g id="edge1" class="edge">
<title>Node1&#45;&gt;Node2</title>
<path fill="none" stroke="#63b8ff" d="M1017.13,-652.82C877.12,-645.51 612.52,-629.32 388.5,-602 383.84,-601.43 379.08,-600.81 374.27,-600.14"/>
<polygon fill="#63b8ff" stroke="#63b8ff" points="1017.23,-656.33 1027.4,-653.35 1017.59,-649.34 1017.23,-656.33"/>
</g>
<!-- Node3 -->
<g id="node3" class="node">
<title>Node3</title>
<g id="a_node3"><a xlink:href="../../d5/de1/_c_c_control_utils_8h.html" target="_top" xlink:title=" ">
<polygon fill="white" stroke="#666666" points="1215.5,-602 1015.5,-602 1015.5,-561 1215.5,-561 1215.5,-602"/>
<text text-anchor="start" x="1023.5" y="-590" font-family="Helvetica,sans-Serif" font-size="10.00">/home/runner/work/cocos2d.h</text>
<text text-anchor="start" x="1023.5" y="-579" font-family="Helvetica,sans-Serif" font-size="10.00">/cocos2d.h/extensions/GUI</text>
<text text-anchor="middle" x="1115.5" y="-568" font-family="Helvetica,sans-Serif" font-size="10.00">/CCControlExtension/CCControlUtils.h</text>
</a>
</g>
</g>
<!-- Node1&#45;&gt;Node3 -->
<g id="edge2" class="edge">
<title>Node1&#45;&gt;Node3</title>
<path fill="none" stroke="#63b8ff" d="M1115.5,-627.69C1115.5,-619.08 1115.5,-609.9 1115.5,-602.07"/>
<polygon fill="#63b8ff" stroke="#63b8ff" points="1112,-627.79 1115.5,-637.79 1119,-627.79 1112,-627.79"/>
</g>
<!-- Node7 -->
<g id="node7" class="node">
<title>Node7</title>
<g id="a_node7"><a xlink:href="../../dc/d4a/_c_c_edit_box_8h.html" target="_top" xlink:title=" ">
<polygon fill="white" stroke="#666666" points="1562,-195 1401,-195 1401,-154 1562,-154 1562,-195"/>
<text text-anchor="start" x="1409" y="-183" font-family="Helvetica,sans-Serif" font-size="10.00">/home/runner/work/cocos2d.h</text>
<text text-anchor="start" x="1409" y="-172" font-family="Helvetica,sans-Serif" font-size="10.00">/cocos2d.h/extensions/GUI</text>
<text text-anchor="middle" x="1481.5" y="-161" font-family="Helvetica,sans-Serif" font-size="10.00">/CCEditBox/CCEditBox.h</text>
</a>
</g>
</g>
<!-- Node1&#45;&gt;Node7 -->
<g id="edge43" class="edge">
<title>Node1&#45;&gt;Node7</title>
<path fill="none" stroke="#63b8ff" d="M1017.18,-653.86C934.13,-648.48 824.36,-635.12 796.5,-602 754.34,-551.87 745.42,-502.21 848.5,-396 999.86,-240.05 1267.24,-194.29 1400.83,-180.94"/>
<polygon fill="#63b8ff" stroke="#63b8ff" points="1016.97,-657.36 1027.17,-654.48 1017.41,-650.37 1016.97,-657.36"/>
</g>
<!-- Node8 -->
<g id="node8" class="node">
<title>Node8</title>
<g id="a_node8"><a xlink:href="../../db/da9/_c_c_edit_box_impl_8h.html" target="_top" xlink:title=" ">
<polygon fill="white" stroke="#666666" points="668,-118 507,-118 507,-77 668,-77 668,-118"/>
<text text-anchor="start" x="515" y="-106" font-family="Helvetica,sans-Serif" font-size="10.00">/home/runner/work/cocos2d.h</text>
<text text-anchor="start" x="515" y="-95" font-family="Helvetica,sans-Serif" font-size="10.00">/cocos2d.h/extensions/GUI</text>
<text text-anchor="middle" x="587.5" y="-84" font-family="Helvetica,sans-Serif" font-size="10.00">/CCEditBox/CCEditBoxImpl.h</text>
</a>
</g>
</g>
<!-- Node1&#45;&gt;Node8 -->
<g id="edge44" class="edge">
<title>Node1&#45;&gt;Node8</title>
<path fill="none" stroke="#63b8ff" d="M1016.95,-657.4C904.66,-655.18 730.47,-644.69 682.5,-602 649.49,-572.62 658.5,-549.7 658.5,-505.5 658.5,-505.5 658.5,-505.5 658.5,-250.5 658.5,-198.95 624.56,-146.02 603.61,-118.26"/>
<polygon fill="#63b8ff" stroke="#63b8ff" points="1017.22,-660.9 1027.28,-657.58 1017.35,-653.9 1017.22,-660.9"/>
</g>
<!-- Node9 -->
<g id="node9" class="node">
<title>Node9</title>
<g id="a_node9"><a xlink:href="../../d4/dd3/_c_c_edit_box_impl_android_8h.html" target="_top" xlink:title=" ">
<polygon fill="white" stroke="#666666" points="193,-41 0,-41 0,0 193,0 193,-41"/>
<text text-anchor="start" x="8" y="-29" font-family="Helvetica,sans-Serif" font-size="10.00">/home/runner/work/cocos2d.h</text>
<text text-anchor="start" x="8" y="-18" font-family="Helvetica,sans-Serif" font-size="10.00">/cocos2d.h/extensions/GUI</text>
<text text-anchor="middle" x="96.5" y="-7" font-family="Helvetica,sans-Serif" font-size="10.00">/CCEditBox/CCEditBoxImplAndroid.h</text>
</a>
</g>
</g>
<!-- Node1&#45;&gt;Node9 -->
<g id="edge45" class="edge">
<title>Node1&#45;&gt;Node9</title>
<path fill="none" stroke="#63b8ff" d="M1017.38,-654.38C844.72,-648.15 500.42,-632.1 454.5,-602 413.75,-575.29 402.5,-554.22 402.5,-505.5 402.5,-505.5 402.5,-505.5 402.5,-173.5 402.5,-121.08 256.63,-68.59 166.32,-41.11"/>
<polygon fill="#63b8ff" stroke="#63b8ff" points="1017.38,-657.89 1027.49,-654.74 1017.62,-650.89 1017.38,-657.89"/>
</g>
<!-- Node10 -->
<g id="node10" class="node">
<title>Node10</title>
<g id="a_node10"><a xlink:href="../../dd/dfd/_c_c_edit_box_impl_i_o_s_8h.html" target="_top" xlink:title=" ">
<polygon fill="white" stroke="#666666" points="383.5,-41 211.5,-41 211.5,0 383.5,0 383.5,-41"/>
<text text-anchor="start" x="219.5" y="-29" font-family="Helvetica,sans-Serif" font-size="10.00">/home/runner/work/cocos2d.h</text>
<text text-anchor="start" x="219.5" y="-18" font-family="Helvetica,sans-Serif" font-size="10.00">/cocos2d.h/extensions/GUI</text>
<text text-anchor="middle" x="297.5" y="-7" font-family="Helvetica,sans-Serif" font-size="10.00">/CCEditBox/CCEditBoxImplIOS.h</text>
</a>
</g>
</g>
<!-- Node1&#45;&gt;Node10 -->
<g id="edge46" class="edge">
<title>Node1&#45;&gt;Node10</title>
<path fill="none" stroke="#63b8ff" d="M1017.11,-657.5C870.32,-655.98 602.28,-646.89 518.5,-602 469.89,-575.96 440.5,-560.65 440.5,-505.5 440.5,-505.5 440.5,-505.5 440.5,-173.5 440.5,-129.3 444.6,-111.11 416.5,-77 403.38,-61.08 384.67,-49.48 365.95,-41.13"/>
<polygon fill="#63b8ff" stroke="#63b8ff" points="1017.43,-661 1027.47,-657.6 1017.5,-654 1017.43,-661"/>
</g>
<!-- Node11 -->
<g id="node11" class="node">
<title>Node11</title>
<g id="a_node11"><a xlink:href="../../d7/d4d/_c_c_edit_box_impl_mac_8h.html" target="_top" xlink:title=" ">
<polygon fill="white" stroke="#666666" points="577.5,-41 401.5,-41 401.5,0 577.5,0 577.5,-41"/>
<text text-anchor="start" x="409.5" y="-29" font-family="Helvetica,sans-Serif" font-size="10.00">/home/runner/work/cocos2d.h</text>
<text text-anchor="start" x="409.5" y="-18" font-family="Helvetica,sans-Serif" font-size="10.00">/cocos2d.h/extensions/GUI</text>
<text text-anchor="middle" x="489.5" y="-7" font-family="Helvetica,sans-Serif" font-size="10.00">/CCEditBox/CCEditBoxImplMac.h</text>
</a>
</g>
</g>
<!-- Node1&#45;&gt;Node11 -->
<g id="edge47" class="edge">
<title>Node1&#45;&gt;Node11</title>
<path fill="none" stroke="#63b8ff" d="M1017.06,-654.27C838.27,-645.7 478.5,-614.87 478.5,-505.5 478.5,-505.5 478.5,-505.5 478.5,-173.5 478.5,-125.88 483.94,-70.08 487.17,-41.14"/>
<polygon fill="#63b8ff" stroke="#63b8ff" points="1017.11,-657.77 1027.26,-654.74 1017.44,-650.78 1017.11,-657.77"/>
</g>
<!-- Node12 -->
<g id="node12" class="node">
<title>Node12</title>
<g id="a_node12"><a xlink:href="../../de/dac/_c_c_edit_box_impl_tizen_8h.html" target="_top" xlink:title=" ">
<polygon fill="white" stroke="#666666" points="777.5,-41 595.5,-41 595.5,0 777.5,0 777.5,-41"/>
<text text-anchor="start" x="603.5" y="-29" font-family="Helvetica,sans-Serif" font-size="10.00">/home/runner/work/cocos2d.h</text>
<text text-anchor="start" x="603.5" y="-18" font-family="Helvetica,sans-Serif" font-size="10.00">/cocos2d.h/extensions/GUI</text>
<text text-anchor="middle" x="686.5" y="-7" font-family="Helvetica,sans-Serif" font-size="10.00">/CCEditBox/CCEditBoxImplTizen.h</text>
</a>
</g>
</g>
<!-- Node1&#45;&gt;Node12 -->
<g id="edge48" class="edge">
<title>Node1&#45;&gt;Node12</title>
<path fill="none" stroke="#63b8ff" d="M1017.07,-654.07C919.31,-648.77 778.04,-635.41 735.5,-602 699.12,-573.42 696.5,-551.76 696.5,-505.5 696.5,-505.5 696.5,-505.5 696.5,-173.5 696.5,-125.9 691.56,-70.09 688.62,-41.15"/>
<polygon fill="#63b8ff" stroke="#63b8ff" points="1017.11,-657.57 1027.28,-654.6 1017.47,-650.58 1017.11,-657.57"/>
</g>
<!-- Node13 -->
<g id="node13" class="node">
<title>Node13</title>
<g id="a_node13"><a xlink:href="../../dd/d41/_c_c_edit_box_impl_win_8h.html" target="_top" xlink:title=" ">
<polygon fill="white" stroke="#666666" points="969.5,-41 795.5,-41 795.5,0 969.5,0 969.5,-41"/>
<text text-anchor="start" x="803.5" y="-29" font-family="Helvetica,sans-Serif" font-size="10.00">/home/runner/work/cocos2d.h</text>
<text text-anchor="start" x="803.5" y="-18" font-family="Helvetica,sans-Serif" font-size="10.00">/cocos2d.h/extensions/GUI</text>
<text text-anchor="middle" x="882.5" y="-7" font-family="Helvetica,sans-Serif" font-size="10.00">/CCEditBox/CCEditBoxImplWin.h</text>
</a>
</g>
</g>
<!-- Node1&#45;&gt;Node13 -->
<g id="edge49" class="edge">
<title>Node1&#45;&gt;Node13</title>
<path fill="none" stroke="#63b8ff" d="M1017.19,-652.84C928.13,-646.68 805.37,-632.77 768.5,-602 733.58,-572.87 734.5,-550.97 734.5,-505.5 734.5,-505.5 734.5,-505.5 734.5,-173.5 734.5,-111.62 798.24,-65.5 842.06,-41.1"/>
<polygon fill="#63b8ff" stroke="#63b8ff" points="1017.12,-656.34 1027.33,-653.51 1017.58,-649.35 1017.12,-656.34"/>
</g>
<!-- Node14 -->
<g id="node14" class="node">
<title>Node14</title>
<g id="a_node14"><a xlink:href="../../d4/d91/_c_c_edit_box_impl_wp8_8h.html" target="_top" xlink:title=" ">
<polygon fill="white" stroke="#666666" points="1165,-41 988,-41 988,0 1165,0 1165,-41"/>
<text text-anchor="start" x="996" y="-29" font-family="Helvetica,sans-Serif" font-size="10.00">/home/runner/work/cocos2d.h</text>
<text text-anchor="start" x="996" y="-18" font-family="Helvetica,sans-Serif" font-size="10.00">/cocos2d.h/extensions/GUI</text>
<text text-anchor="middle" x="1076.5" y="-7" font-family="Helvetica,sans-Serif" font-size="10.00">/CCEditBox/CCEditBoxImplWp8.h</text>
</a>
</g>
</g>
<!-- Node1&#45;&gt;Node14 -->
<g id="edge50" class="edge">
<title>Node1&#45;&gt;Node14</title>
<path fill="none" stroke="#63b8ff" d="M1017.38,-649.1C928.21,-635.44 810.5,-599.59 810.5,-505.5 810.5,-505.5 810.5,-505.5 810.5,-173.5 810.5,-125.63 942.01,-69.93 1020.09,-41.08"/>
<polygon fill="#63b8ff" stroke="#63b8ff" points="1016.88,-652.56 1027.28,-650.54 1017.89,-645.63 1016.88,-652.56"/>
</g>
<!-- Node15 -->
<g id="node15" class="node">
<title>Node15</title>
<g id="a_node15"><a xlink:href="../../d3/d58/cocos-ext_8h.html" target="_top" xlink:title=" ">
<polygon fill="white" stroke="#666666" points="2582.5,-112.5 2398.5,-112.5 2398.5,-82.5 2582.5,-82.5 2582.5,-112.5"/>
<text text-anchor="start" x="2406.5" y="-100.5" font-family="Helvetica,sans-Serif" font-size="10.00">/home/runner/work/cocos2d.h</text>
<text text-anchor="middle" x="2490.5" y="-89.5" font-family="Helvetica,sans-Serif" font-size="10.00">/cocos2d.h/extensions/cocos&#45;ext.h</text>
</a>
</g>
</g>
<!-- Node1&#45;&gt;Node15 -->
<g id="edge58" class="edge">
<title>Node1&#45;&gt;Node15</title>
<path fill="none" stroke="#63b8ff" d="M1214.13,-657.96C1543.79,-658.97 2594.57,-657.73 2735.5,-602 2794.75,-578.57 2841.5,-569.21 2841.5,-505.5 2841.5,-505.5 2841.5,-505.5 2841.5,-250.5 2841.5,-137.61 2686.72,-107.62 2582.72,-100.22"/>
<polygon fill="#63b8ff" stroke="#63b8ff" points="1213.66,-654.46 1203.65,-657.93 1213.64,-661.46 1213.66,-654.46"/>
</g>
<!-- Node24 -->
<g id="node24" class="node">
<title>Node24</title>
<g id="a_node24"><a xlink:href="../../d5/dad/_c_c_invocation_8h.html" target="_top" xlink:title=" ">
<polygon fill="white" stroke="#666666" points="1529,-602 1336,-602 1336,-561 1529,-561 1529,-602"/>
<text text-anchor="start" x="1344" y="-590" font-family="Helvetica,sans-Serif" font-size="10.00">/home/runner/work/cocos2d.h</text>
<text text-anchor="start" x="1344" y="-579" font-family="Helvetica,sans-Serif" font-size="10.00">/cocos2d.h/extensions/GUI</text>
<text text-anchor="middle" x="1432.5" y="-568" font-family="Helvetica,sans-Serif" font-size="10.00">/CCControlExtension/CCInvocation.h</text>
</a>
</g>
</g>
<!-- Node1&#45;&gt;Node24 -->
<g id="edge34" class="edge">
<title>Node1&#45;&gt;Node24</title>
<path fill="none" stroke="#63b8ff" d="M1207.71,-635.68C1252.66,-625.05 1306.3,-612.36 1349.9,-602.04"/>
<polygon fill="#63b8ff" stroke="#63b8ff" points="1206.89,-632.28 1197.96,-637.99 1208.5,-639.09 1206.89,-632.28"/>
</g>
<!-- Node25 -->
<g id="node25" class="node">
<title>Node25</title>
<g id="a_node25"><a xlink:href="../../db/d24/_c_c_scale9_sprite_8h.html" target="_top" xlink:title=" ">
<polygon fill="white" stroke="#666666" points="2105,-525 1902,-525 1902,-484 2105,-484 2105,-525"/>
<text text-anchor="start" x="1910" y="-513" font-family="Helvetica,sans-Serif" font-size="10.00">/home/runner/work/cocos2d.h</text>
<text text-anchor="start" x="1910" y="-502" font-family="Helvetica,sans-Serif" font-size="10.00">/cocos2d.h/extensions/GUI</text>
<text text-anchor="middle" x="2003.5" y="-491" font-family="Helvetica,sans-Serif" font-size="10.00">/CCControlExtension/CCScale9Sprite.h</text>
</a>
</g>
</g>
<!-- Node1&#45;&gt;Node25 -->
<g id="edge40" class="edge">
<title>Node1&#45;&gt;Node25</title>
<path fill="none" stroke="#63b8ff" d="M1213.86,-646.64C1299.58,-636.67 1427.11,-620.66 1537.5,-602 1671.3,-579.38 1825.24,-546.06 1918.39,-525.08"/>
<polygon fill="#63b8ff" stroke="#63b8ff" points="1213.41,-643.16 1203.88,-647.79 1214.22,-650.12 1213.41,-643.16"/>
</g>
<!-- Node26 -->
<g id="node26" class="node">
<title>Node26</title>
<g id="a_node26"><a xlink:href="../../de/d56/_c_c_scroll_view_8h.html" target="_top" xlink:title=" ">
<polygon fill="white" stroke="#666666" points="2284,-525 2123,-525 2123,-484 2284,-484 2284,-525"/>
<text text-anchor="start" x="2131" y="-513" font-family="Helvetica,sans-Serif" font-size="10.00">/home/runner/work/cocos2d.h</text>
<text text-anchor="start" x="2131" y="-502" font-family="Helvetica,sans-Serif" font-size="10.00">/cocos2d.h/extensions/GUI</text>
<text text-anchor="middle" x="2203.5" y="-491" font-family="Helvetica,sans-Serif" font-size="10.00">/CCScrollView/CCScrollView.h</text>
</a>
</g>
</g>
<!-- Node1&#45;&gt;Node26 -->
<g id="edge51" class="edge">
<title>Node1&#45;&gt;Node26</title>
<path fill="none" stroke="#63b8ff" d="M1214.18,-649.23C1322.44,-639.71 1501.2,-622.7 1654.5,-602 1859.92,-574.26 1910.97,-564.31 2114.5,-525 2117.14,-524.49 2119.82,-523.96 2122.53,-523.42"/>
<polygon fill="#63b8ff" stroke="#63b8ff" points="1213.59,-645.76 1203.93,-650.12 1214.2,-652.74 1213.59,-645.76"/>
</g>
<!-- Node28 -->
<g id="node28" class="node">
<title>Node28</title>
<g id="a_node28"><a xlink:href="../../dc/d52/_c_c_sorting_8h.html" target="_top" xlink:title=" ">
<polygon fill="white" stroke="#666666" points="2433,-602 2272,-602 2272,-561 2433,-561 2433,-602"/>
<text text-anchor="start" x="2280" y="-590" font-family="Helvetica,sans-Serif" font-size="10.00">/home/runner/work/cocos2d.h</text>
<text text-anchor="start" x="2280" y="-579" font-family="Helvetica,sans-Serif" font-size="10.00">/cocos2d.h/extensions/GUI</text>
<text text-anchor="middle" x="2352.5" y="-568" font-family="Helvetica,sans-Serif" font-size="10.00">/CCScrollView/CCSorting.h</text>
</a>
</g>
</g>
<!-- Node1&#45;&gt;Node28 -->
<g id="edge55" class="edge">
<title>Node1&#45;&gt;Node28</title>
<path fill="none" stroke="#63b8ff" d="M1213.75,-653.33C1395.85,-645.34 1798.08,-626.47 2136.5,-602 2181.28,-598.76 2231.21,-594.31 2271.78,-590.48"/>
<polygon fill="#63b8ff" stroke="#63b8ff" points="1213.49,-649.84 1203.66,-653.77 1213.8,-656.83 1213.49,-649.84"/>
</g>
<!-- Node30 -->
<g id="node30" class="node">
<title>Node30</title>
<g id="a_node30"><a xlink:href="../../d8/d12/_http_client_8h.html" target="_top" xlink:title=" ">
<polygon fill="white" stroke="#666666" points="2665,-442.5 2498,-442.5 2498,-401.5 2665,-401.5 2665,-442.5"/>
<text text-anchor="start" x="2506" y="-430.5" font-family="Helvetica,sans-Serif" font-size="10.00">/home/runner/work/cocos2d.h</text>
<text text-anchor="start" x="2506" y="-419.5" font-family="Helvetica,sans-Serif" font-size="10.00">/cocos2d.h/extensions/network</text>
<text text-anchor="middle" x="2581.5" y="-408.5" font-family="Helvetica,sans-Serif" font-size="10.00">/HttpClient.h</text>
</a>
</g>
</g>
<!-- Node1&#45;&gt;Node30 -->
<g id="edge59" class="edge">
<title>Node1&#45;&gt;Node30</title>
<path fill="none" stroke="#63b8ff" d="M1213.57,-658.12C1502.06,-659.31 2334.34,-657.79 2442.5,-602 2510.69,-566.83 2555.65,-481.38 2573.2,-442.66"/>
<polygon fill="#63b8ff" stroke="#63b8ff" points="1213.56,-654.62 1203.54,-658.08 1213.53,-661.62 1213.56,-654.62"/>
</g>
<!-- Node31 -->
<g id="node31" class="node">
<title>Node31</title>
<g id="a_node31"><a xlink:href="../../d3/d95/_http_request_8h.html" target="_top" xlink:title=" ">
<polygon fill="white" stroke="#666666" points="2703,-602 2536,-602 2536,-561 2703,-561 2703,-602"/>
<text text-anchor="start" x="2544" y="-590" font-family="Helvetica,sans-Serif" font-size="10.00">/home/runner/work/cocos2d.h</text>
<text text-anchor="start" x="2544" y="-579" font-family="Helvetica,sans-Serif" font-size="10.00">/cocos2d.h/extensions/network</text>
<text text-anchor="middle" x="2619.5" y="-568" font-family="Helvetica,sans-Serif" font-size="10.00">/HttpRequest.h</text>
</a>
</g>
</g>
<!-- Node1&#45;&gt;Node31 -->
<g id="edge61" class="edge">
<title>Node1&#45;&gt;Node31</title>
<path fill="none" stroke="#63b8ff" d="M1213.98,-655.65C1490.19,-650.15 2268.62,-632.33 2522.5,-602 2526.85,-601.48 2531.29,-600.87 2535.77,-600.19"/>
<polygon fill="#63b8ff" stroke="#63b8ff" points="1213.5,-652.16 1203.57,-655.86 1213.64,-659.16 1213.5,-652.16"/>
</g>
<!-- Node32 -->
<g id="node32" class="node">
<title>Node32</title>
<g id="a_node32"><a xlink:href="../../d1/d33/_http_response_8h.html" target="_top" xlink:title=" ">
<polygon fill="white" stroke="#666666" points="2814,-525 2647,-525 2647,-484 2814,-484 2814,-525"/>
<text text-anchor="start" x="2655" y="-513" font-family="Helvetica,sans-Serif" font-size="10.00">/home/runner/work/cocos2d.h</text>
<text text-anchor="start" x="2655" y="-502" font-family="Helvetica,sans-Serif" font-size="10.00">/cocos2d.h/extensions/network</text>
<text text-anchor="middle" x="2730.5" y="-491" font-family="Helvetica,sans-Serif" font-size="10.00">/HttpResponse.h</text>
</a>
</g>
</g>
<!-- Node1&#45;&gt;Node32 -->
<g id="edge67" class="edge">
<title>Node1&#45;&gt;Node32</title>
<path fill="none" stroke="#63b8ff" d="M1213.77,-657.44C1552.76,-656.81 2655.59,-650.97 2712.5,-602 2734.2,-583.32 2735.17,-547.6 2733.27,-525.25"/>
<polygon fill="#63b8ff" stroke="#63b8ff" points="1213.72,-653.94 1203.73,-657.46 1213.73,-660.94 1213.72,-653.94"/>
</g>
<!-- Node33 -->
<g id="node33" class="node">
<title>Node33</title>
<g id="a_node33"><a xlink:href="../../da/d1e/_web_socket_8h.html" target="_top" xlink:title=" ">
<polygon fill="white" stroke="#666666" points="3036,-602 2869,-602 2869,-561 3036,-561 3036,-602"/>
<text text-anchor="start" x="2877" y="-590" font-family="Helvetica,sans-Serif" font-size="10.00">/home/runner/work/cocos2d.h</text>
<text text-anchor="start" x="2877" y="-579" font-family="Helvetica,sans-Serif" font-size="10.00">/cocos2d.h/extensions/network</text>
<text text-anchor="middle" x="2952.5" y="-568" font-family="Helvetica,sans-Serif" font-size="10.00">/WebSocket.h</text>
</a>
</g>
</g>
<!-- Node1&#45;&gt;Node33 -->
<g id="edge68" class="edge">
<title>Node1&#45;&gt;Node33</title>
<path fill="none" stroke="#63b8ff" d="M1213.64,-656.52C1531.98,-653 2533.89,-639.19 2855.5,-602 2859.85,-601.5 2864.3,-600.9 2868.78,-600.23"/>
<polygon fill="#63b8ff" stroke="#63b8ff" points="1213.47,-653.02 1203.51,-656.63 1213.55,-660.02 1213.47,-653.02"/>
</g>
<!-- Node4 -->
<g id="node4" class="node">
<title>Node4</title>
<g id="a_node4"><a xlink:href="../../de/d8b/_c_c_control_8h.html" target="_top" xlink:title=" ">
<polygon fill="white" stroke="#666666" points="1623,-525 1446,-525 1446,-484 1623,-484 1623,-525"/>
<text text-anchor="start" x="1454" y="-513" font-family="Helvetica,sans-Serif" font-size="10.00">/home/runner/work/cocos2d.h</text>
<text text-anchor="start" x="1454" y="-502" font-family="Helvetica,sans-Serif" font-size="10.00">/cocos2d.h/extensions/GUI</text>
<text text-anchor="middle" x="1534.5" y="-491" font-family="Helvetica,sans-Serif" font-size="10.00">/CCControlExtension/CCControl.h</text>
</a>
</g>
</g>
<!-- Node3&#45;&gt;Node4 -->
<g id="edge3" class="edge">
<title>Node3&#45;&gt;Node4</title>
<path fill="none" stroke="#63b8ff" d="M1225.59,-560.79C1294.32,-548.49 1381.62,-532.86 1445.87,-521.36"/>
<polygon fill="#63b8ff" stroke="#63b8ff" points="1224.82,-557.38 1215.59,-562.58 1226.05,-564.27 1224.82,-557.38"/>
</g>
<!-- Node16 -->
<g id="node16" class="node">
<title>Node16</title>
<g id="a_node16"><a xlink:href="../../d3/db7/_c_c_control_colour_picker_8h.html" target="_top" xlink:title=" ">
<polygon fill="white" stroke="#666666" points="1355.5,-360 1155.5,-360 1155.5,-308 1355.5,-308 1355.5,-360"/>
<text text-anchor="start" x="1163.5" y="-348" font-family="Helvetica,sans-Serif" font-size="10.00">/home/runner/work/cocos2d.h</text>
<text text-anchor="start" x="1163.5" y="-337" font-family="Helvetica,sans-Serif" font-size="10.00">/cocos2d.h/extensions/GUI</text>
<text text-anchor="start" x="1163.5" y="-326" font-family="Helvetica,sans-Serif" font-size="10.00">/CCControlExtension/CCControlColour</text>
<text text-anchor="middle" x="1255.5" y="-315" font-family="Helvetica,sans-Serif" font-size="10.00">Picker.h</text>
</a>
</g>
</g>
<!-- Node3&#45;&gt;Node16 -->
<g id="edge33" class="edge">
<title>Node3&#45;&gt;Node16</title>
<path fill="none" stroke="#63b8ff" d="M1036.93,-557.73C943.33,-526.76 806.79,-467 867.5,-396 903.84,-353.5 1052.85,-340.42 1155.26,-336.51"/>
<polygon fill="#63b8ff" stroke="#63b8ff" points="1036.1,-561.14 1046.7,-560.91 1038.27,-554.48 1036.1,-561.14"/>
</g>
<!-- Node5 -->
<g id="node5" class="node">
<title>Node5</title>
<g id="a_node5"><a xlink:href="../../d0/d7e/_c_c_control_button_8h.html" target="_top" xlink:title=" ">
<polygon fill="white" stroke="#666666" points="2224,-442.5 2015,-442.5 2015,-401.5 2224,-401.5 2224,-442.5"/>
<text text-anchor="start" x="2023" y="-430.5" font-family="Helvetica,sans-Serif" font-size="10.00">/home/runner/work/cocos2d.h</text>
<text text-anchor="start" x="2023" y="-419.5" font-family="Helvetica,sans-Serif" font-size="10.00">/cocos2d.h/extensions/GUI</text>
<text text-anchor="middle" x="2119.5" y="-408.5" font-family="Helvetica,sans-Serif" font-size="10.00">/CCControlExtension/CCControlButton.h</text>
</a>
</g>
</g>
<!-- Node4&#45;&gt;Node5 -->
<g id="edge4" class="edge">
<title>Node4&#45;&gt;Node5</title>
<path fill="none" stroke="#63b8ff" d="M1633.65,-494.68C1729.24,-485.51 1877.8,-469.47 2005.5,-448 2014.99,-446.4 2024.89,-444.54 2034.71,-442.56"/>
<polygon fill="#63b8ff" stroke="#63b8ff" points="1633.04,-491.23 1623.42,-495.66 1633.7,-498.19 1633.04,-491.23"/>
</g>
<!-- Node6 -->
<g id="node6" class="node">
<title>Node6</title>
<g id="a_node6"><a xlink:href="../../d6/d86/_c_c_control_extensions_8h.html" target="_top" xlink:title=" ">
<polygon fill="white" stroke="#666666" points="2043.5,-272 1813.5,-272 1813.5,-231 2043.5,-231 2043.5,-272"/>
<text text-anchor="start" x="1821.5" y="-260" font-family="Helvetica,sans-Serif" font-size="10.00">/home/runner/work/cocos2d.h</text>
<text text-anchor="start" x="1821.5" y="-249" font-family="Helvetica,sans-Serif" font-size="10.00">/cocos2d.h/extensions/GUI</text>
<text text-anchor="middle" x="1928.5" y="-238" font-family="Helvetica,sans-Serif" font-size="10.00">/CCControlExtension/CCControlExtensions.h</text>
</a>
</g>
</g>
<!-- Node4&#45;&gt;Node6 -->
<g id="edge18" class="edge">
<title>Node4&#45;&gt;Node6</title>
<path fill="none" stroke="#63b8ff" d="M1598.91,-478.81C1611.52,-470.92 1623.11,-460.8 1630.5,-448 1642.05,-427.98 1645.3,-413.75 1630.5,-396 1573.5,-327.64 1490.5,-428.36 1433.5,-360 1418.7,-342.25 1418.1,-325.23 1433.5,-308 1458.39,-280.16 1675.09,-264.62 1813.4,-257.46"/>
<polygon fill="#63b8ff" stroke="#63b8ff" points="1596.97,-475.89 1590.06,-483.92 1600.47,-481.95 1596.97,-475.89"/>
</g>
<!-- Node4&#45;&gt;Node16 -->
<g id="edge16" class="edge">
<title>Node4&#45;&gt;Node16</title>
<path fill="none" stroke="#63b8ff" d="M1447.28,-480.44C1425.83,-472.31 1403.8,-461.68 1385.5,-448 1362.36,-430.7 1367.46,-415.88 1346.5,-396 1332.42,-382.65 1315.12,-370.25 1299.39,-360.17"/>
<polygon fill="#63b8ff" stroke="#63b8ff" points="1446.16,-483.76 1456.75,-483.89 1448.55,-477.18 1446.16,-483.76"/>
</g>
<!-- Node17 -->
<g id="node17" class="node">
<title>Node17</title>
<g id="a_node17"><a xlink:href="../../dd/d5a/_c_c_control_hue_picker_8h.html" target="_top" xlink:title=" ">
<polygon fill="white" stroke="#666666" points="1338,-442.5 1113,-442.5 1113,-401.5 1338,-401.5 1338,-442.5"/>
<text text-anchor="start" x="1121" y="-430.5" font-family="Helvetica,sans-Serif" font-size="10.00">/home/runner/work/cocos2d.h</text>
<text text-anchor="start" x="1121" y="-419.5" font-family="Helvetica,sans-Serif" font-size="10.00">/cocos2d.h/extensions/GUI</text>
<text text-anchor="middle" x="1225.5" y="-408.5" font-family="Helvetica,sans-Serif" font-size="10.00">/CCControlExtension/CCControlHuePicker.h</text>
</a>
</g>
</g>
<!-- Node4&#45;&gt;Node17 -->
<g id="edge19" class="edge">
<title>Node4&#45;&gt;Node17</title>
<path fill="none" stroke="#63b8ff" d="M1449.52,-481.36C1402.85,-469.2 1345.49,-454.26 1300.5,-442.54"/>
<polygon fill="#63b8ff" stroke="#63b8ff" points="1448.75,-484.78 1459.31,-483.91 1450.51,-478 1448.75,-484.78"/>
</g>
<!-- Node18 -->
<g id="node18" class="node">
<title>Node18</title>
<g id="a_node18"><a xlink:href="../../d2/d29/_c_c_control_potentiometer_8h.html" target="_top" xlink:title=" ">
<polygon fill="white" stroke="#666666" points="1688.5,-354.5 1442.5,-354.5 1442.5,-313.5 1688.5,-313.5 1688.5,-354.5"/>
<text text-anchor="start" x="1450.5" y="-342.5" font-family="Helvetica,sans-Serif" font-size="10.00">/home/runner/work/cocos2d.h</text>
<text text-anchor="start" x="1450.5" y="-331.5" font-family="Helvetica,sans-Serif" font-size="10.00">/cocos2d.h/extensions/GUI</text>
<text text-anchor="middle" x="1565.5" y="-320.5" font-family="Helvetica,sans-Serif" font-size="10.00">/CCControlExtension/CCControlPotentiometer.h</text>
</a>
</g>
</g>
<!-- Node4&#45;&gt;Node18 -->
<g id="edge21" class="edge">
<title>Node4&#45;&gt;Node18</title>
<path fill="none" stroke="#63b8ff" d="M1628.39,-479.44C1642.67,-471.7 1655.6,-461.48 1664.5,-448 1677.24,-428.71 1675.77,-416.18 1664.5,-396 1654.26,-377.67 1636.01,-364.16 1617.93,-354.59"/>
<polygon fill="#63b8ff" stroke="#63b8ff" points="1626.73,-476.36 1619.34,-483.95 1629.86,-482.62 1626.73,-476.36"/>
</g>
<!-- Node19 -->
<g id="node19" class="node">
<title>Node19</title>
<g id="a_node19"><a xlink:href="../../de/d08/_c_c_control_saturation_brightness_picker_8h.html" target="_top" xlink:title=" ">
<polygon fill="white" stroke="#666666" points="1094.5,-448 876.5,-448 876.5,-396 1094.5,-396 1094.5,-448"/>
<text text-anchor="start" x="884.5" y="-436" font-family="Helvetica,sans-Serif" font-size="10.00">/home/runner/work/cocos2d.h</text>
<text text-anchor="start" x="884.5" y="-425" font-family="Helvetica,sans-Serif" font-size="10.00">/cocos2d.h/extensions/GUI</text>
<text text-anchor="start" x="884.5" y="-414" font-family="Helvetica,sans-Serif" font-size="10.00">/CCControlExtension/CCControlSaturation</text>
<text text-anchor="middle" x="985.5" y="-403" font-family="Helvetica,sans-Serif" font-size="10.00">BrightnessPicker.h</text>
</a>
</g>
</g>
<!-- Node4&#45;&gt;Node19 -->
<g id="edge23" class="edge">
<title>Node4&#45;&gt;Node19</title>
<path fill="none" stroke="#63b8ff" d="M1435.67,-493.07C1348.1,-483.28 1216.9,-467.28 1103.5,-448 1100.61,-447.51 1097.68,-447 1094.73,-446.47"/>
<polygon fill="#63b8ff" stroke="#63b8ff" points="1435.54,-496.58 1445.87,-494.2 1436.31,-489.62 1435.54,-496.58"/>
</g>
<!-- Node20 -->
<g id="node20" class="node">
<title>Node20</title>
<g id="a_node20"><a xlink:href="../../d6/d7e/_c_c_control_slider_8h.html" target="_top" xlink:title=" ">
<polygon fill="white" stroke="#666666" points="1996.5,-442.5 1792.5,-442.5 1792.5,-401.5 1996.5,-401.5 1996.5,-442.5"/>
<text text-anchor="start" x="1800.5" y="-430.5" font-family="Helvetica,sans-Serif" font-size="10.00">/home/runner/work/cocos2d.h</text>
<text text-anchor="start" x="1800.5" y="-419.5" font-family="Helvetica,sans-Serif" font-size="10.00">/cocos2d.h/extensions/GUI</text>
<text text-anchor="middle" x="1894.5" y="-408.5" font-family="Helvetica,sans-Serif" font-size="10.00">/CCControlExtension/CCControlSlider.h</text>
</a>
</g>
</g>
<!-- Node4&#45;&gt;Node20 -->
<g id="edge25" class="edge">
<title>Node4&#45;&gt;Node20</title>
<path fill="none" stroke="#63b8ff" d="M1632.15,-481.67C1686.76,-469.45 1754.27,-454.36 1807.13,-442.54"/>
<polygon fill="#63b8ff" stroke="#63b8ff" points="1631.1,-478.31 1622.11,-483.91 1632.63,-485.14 1631.1,-478.31"/>
</g>
<!-- Node21 -->
<g id="node21" class="node">
<title>Node21</title>
<g id="a_node21"><a xlink:href="../../de/dba/_c_c_control_stepper_8h.html" target="_top" xlink:title=" ">
<polygon fill="white" stroke="#666666" points="1920.5,-354.5 1706.5,-354.5 1706.5,-313.5 1920.5,-313.5 1920.5,-354.5"/>
<text text-anchor="start" x="1714.5" y="-342.5" font-family="Helvetica,sans-Serif" font-size="10.00">/home/runner/work/cocos2d.h</text>
<text text-anchor="start" x="1714.5" y="-331.5" font-family="Helvetica,sans-Serif" font-size="10.00">/cocos2d.h/extensions/GUI</text>
<text text-anchor="middle" x="1813.5" y="-320.5" font-family="Helvetica,sans-Serif" font-size="10.00">/CCControlExtension/CCControlStepper.h</text>
</a>
</g>
</g>
<!-- Node4&#45;&gt;Node21 -->
<g id="edge27" class="edge">
<title>Node4&#45;&gt;Node21</title>
<path fill="none" stroke="#63b8ff" d="M1612.16,-480.52C1635.88,-471.96 1661.49,-461.07 1683.5,-448 1706.83,-434.14 1762.43,-383.13 1792.81,-354.62"/>
<polygon fill="#63b8ff" stroke="#63b8ff" points="1610.75,-477.31 1602.48,-483.93 1613.08,-483.91 1610.75,-477.31"/>
</g>
<!-- Node22 -->
<g id="node22" class="node">
<title>Node22</title>
<g id="a_node22"><a xlink:href="../../de/dc7/_c_c_control_switch_8h.html" target="_top" xlink:title=" ">
<polygon fill="white" stroke="#666666" points="2148,-354.5 1939,-354.5 1939,-313.5 2148,-313.5 2148,-354.5"/>
<text text-anchor="start" x="1947" y="-342.5" font-family="Helvetica,sans-Serif" font-size="10.00">/home/runner/work/cocos2d.h</text>
<text text-anchor="start" x="1947" y="-331.5" font-family="Helvetica,sans-Serif" font-size="10.00">/cocos2d.h/extensions/GUI</text>
<text text-anchor="middle" x="2043.5" y="-320.5" font-family="Helvetica,sans-Serif" font-size="10.00">/CCControlExtension/CCControlSwitch.h</text>
</a>
</g>
</g>
<!-- Node4&#45;&gt;Node22 -->
<g id="edge29" class="edge">
<title>Node4&#45;&gt;Node22</title>
<path fill="none" stroke="#63b8ff" d="M1627.91,-481.48C1668.8,-470.91 1711.53,-458.34 1729.5,-448 1758.38,-431.39 1754.24,-411.93 1783.5,-396 1791.3,-391.75 1882.94,-370.73 1955.24,-354.54"/>
<polygon fill="#63b8ff" stroke="#63b8ff" points="1626.95,-478.11 1618.13,-483.98 1628.68,-484.89 1626.95,-478.11"/>
</g>
<!-- Node23 -->
<g id="node23" class="node">
<title>Node23</title>
<g id="a_node23"><a xlink:href="../../d8/dec/_color_picker_delegate_8h.html" target="_top" xlink:title=" ">
<polygon fill="white" stroke="#666666" points="1622,-442.5 1395,-442.5 1395,-401.5 1622,-401.5 1622,-442.5"/>
<text text-anchor="start" x="1403" y="-430.5" font-family="Helvetica,sans-Serif" font-size="10.00">/home/runner/work/cocos2d.h</text>
<text text-anchor="start" x="1403" y="-419.5" font-family="Helvetica,sans-Serif" font-size="10.00">/cocos2d.h/extensions/GUI</text>
<text text-anchor="middle" x="1508.5" y="-408.5" font-family="Helvetica,sans-Serif" font-size="10.00">/CCControlExtension/ColorPickerDelegate.h</text>
</a>
</g>
</g>
<!-- Node4&#45;&gt;Node23 -->
<g id="edge31" class="edge">
<title>Node4&#45;&gt;Node23</title>
<path fill="none" stroke="#63b8ff" d="M1524.98,-474.01C1521.6,-463.57 1517.9,-452.09 1514.85,-442.67"/>
<polygon fill="#63b8ff" stroke="#63b8ff" points="1521.67,-475.16 1528.07,-483.6 1528.33,-473.01 1521.67,-475.16"/>
</g>
<!-- Node5&#45;&gt;Node6 -->
<g id="edge5" class="edge">
<title>Node5&#45;&gt;Node6</title>
<path fill="none" stroke="#63b8ff" d="M2152.59,-394.36C2162.17,-384.67 2171.41,-372.89 2176.5,-360 2184.98,-338.5 2190.95,-326.04 2176.5,-308 2159.3,-286.52 2099.97,-272.8 2043.66,-264.37"/>
<polygon fill="#63b8ff" stroke="#63b8ff" points="2150.09,-391.91 2145.26,-401.34 2154.92,-396.98 2150.09,-391.91"/>
</g>
<!-- Node6&#45;&gt;Node7 -->
<g id="edge6" class="edge">
<title>Node6&#45;&gt;Node7</title>
<path fill="none" stroke="#63b8ff" d="M1803.11,-229.46C1725.87,-216.5 1629.14,-200.27 1562.04,-189.01"/>
<polygon fill="#63b8ff" stroke="#63b8ff" points="1802.95,-232.98 1813.39,-231.19 1804.1,-226.08 1802.95,-232.98"/>
</g>
<!-- Node6&#45;&gt;Node15 -->
<g id="edge15" class="edge">
<title>Node6&#45;&gt;Node15</title>
<path fill="none" stroke="#63b8ff" d="M2007.44,-228.21C2077.9,-208.4 2183.96,-178.83 2276.5,-154 2330.44,-139.53 2392.19,-123.58 2435.45,-112.51"/>
<polygon fill="#63b8ff" stroke="#63b8ff" points="2006.41,-224.86 1997.73,-230.93 2008.31,-231.6 2006.41,-224.86"/>
</g>
<!-- Node7&#45;&gt;Node8 -->
<g id="edge7" class="edge">
<title>Node7&#45;&gt;Node8</title>
<path fill="none" stroke="#63b8ff" d="M1390.78,-165.89C1215.97,-151.22 835.01,-119.26 668.32,-105.28"/>
<polygon fill="#63b8ff" stroke="#63b8ff" points="1390.72,-169.4 1400.98,-166.75 1391.31,-162.42 1390.72,-169.4"/>
</g>
<!-- Node7&#45;&gt;Node15 -->
<g id="edge14" class="edge">
<title>Node7&#45;&gt;Node15</title>
<path fill="none" stroke="#63b8ff" d="M1572.39,-166.74C1763.7,-152.52 2206.08,-119.64 2398.42,-105.34"/>
<polygon fill="#63b8ff" stroke="#63b8ff" points="1572.08,-163.26 1562.37,-167.49 1572.6,-170.24 1572.08,-163.26"/>
</g>
<!-- Node8&#45;&gt;Node9 -->
<g id="edge8" class="edge">
<title>Node8&#45;&gt;Node9</title>
<path fill="none" stroke="#63b8ff" d="M496.7,-84.42C418.58,-73.79 302.95,-57.47 202.5,-41 199.45,-40.5 196.36,-39.98 193.24,-39.46"/>
<polygon fill="#63b8ff" stroke="#63b8ff" points="496.61,-87.94 506.99,-85.82 497.55,-81 496.61,-87.94"/>
</g>
<!-- Node8&#45;&gt;Node10 -->
<g id="edge9" class="edge">
<title>Node8&#45;&gt;Node10</title>
<path fill="none" stroke="#63b8ff" d="M502.37,-74.48C461.4,-63.89 412.7,-51.29 373.06,-41.04"/>
<polygon fill="#63b8ff" stroke="#63b8ff" points="501.51,-77.88 512.06,-76.99 503.26,-71.1 501.51,-77.88"/>
</g>
<!-- Node8&#45;&gt;Node11 -->
<g id="edge10" class="edge">
<title>Node8&#45;&gt;Node11</title>
<path fill="none" stroke="#63b8ff" d="M553.94,-70.82C541.26,-61.11 527.05,-50.24 515.21,-41.17"/>
<polygon fill="#63b8ff" stroke="#63b8ff" points="551.94,-73.69 562.01,-76.99 556.19,-68.13 551.94,-73.69"/>
</g>
<!-- Node8&#45;&gt;Node12 -->
<g id="edge11" class="edge">
<title>Node8&#45;&gt;Node12</title>
<path fill="none" stroke="#63b8ff" d="M621.4,-70.82C634.21,-61.11 648.57,-50.24 660.53,-41.17"/>
<polygon fill="#63b8ff" stroke="#63b8ff" points="619.11,-68.16 613.25,-76.99 623.34,-73.74 619.11,-68.16"/>
</g>
<!-- Node8&#45;&gt;Node13 -->
<g id="edge12" class="edge">
<title>Node8&#45;&gt;Node13</title>
<path fill="none" stroke="#63b8ff" d="M674.1,-74.48C715.77,-63.89 765.31,-51.29 805.63,-41.04"/>
<polygon fill="#63b8ff" stroke="#63b8ff" points="673.07,-71.13 664.24,-76.99 674.79,-77.92 673.07,-71.13"/>
</g>
<!-- Node8&#45;&gt;Node14 -->
<g id="edge13" class="edge">
<title>Node8&#45;&gt;Node14</title>
<path fill="none" stroke="#63b8ff" d="M678.17,-85.08C757.56,-74.73 875.93,-58.47 978.5,-41 981.58,-40.48 984.71,-39.93 987.87,-39.36"/>
<polygon fill="#63b8ff" stroke="#63b8ff" points="677.67,-81.61 668.2,-86.37 678.57,-88.56 677.67,-81.61"/>
</g>
<!-- Node16&#45;&gt;Node6 -->
<g id="edge17" class="edge">
<title>Node16&#45;&gt;Node6</title>
<path fill="none" stroke="#63b8ff" d="M1365.49,-313.25C1377.29,-311.37 1389.13,-309.58 1400.5,-308 1542.24,-288.35 1706.25,-272.12 1813.39,-262.39"/>
<polygon fill="#63b8ff" stroke="#63b8ff" points="1364.91,-309.8 1355.6,-314.85 1366.03,-316.71 1364.91,-309.8"/>
</g>
<!-- Node17&#45;&gt;Node16 -->
<g id="edge20" class="edge">
<title>Node17&#45;&gt;Node16</title>
<path fill="none" stroke="#63b8ff" d="M1235.7,-391.76C1239.26,-381.55 1243.23,-370.18 1246.67,-360.32"/>
<polygon fill="#63b8ff" stroke="#63b8ff" points="1232.3,-390.89 1232.31,-401.49 1238.91,-393.2 1232.3,-390.89"/>
</g>
<!-- Node18&#45;&gt;Node6 -->
<g id="edge22" class="edge">
<title>Node18&#45;&gt;Node6</title>
<path fill="none" stroke="#63b8ff" d="M1663.62,-311.24C1718.75,-299.02 1786.99,-283.88 1840.4,-272.04"/>
<polygon fill="#63b8ff" stroke="#63b8ff" points="1662.84,-307.83 1653.84,-313.41 1664.36,-314.66 1662.84,-307.83"/>
</g>
<!-- Node19&#45;&gt;Node16 -->
<g id="edge24" class="edge">
<title>Node19&#45;&gt;Node16</title>
<path fill="none" stroke="#63b8ff" d="M1073.99,-392.82C1107.08,-382.28 1144.41,-370.38 1176.58,-360.14"/>
<polygon fill="#63b8ff" stroke="#63b8ff" points="1072.79,-389.52 1064.32,-395.89 1074.91,-396.19 1072.79,-389.52"/>
</g>
<!-- Node20&#45;&gt;Node6 -->
<g id="edge26" class="edge">
<title>Node20&#45;&gt;Node6</title>
<path fill="none" stroke="#63b8ff" d="M1991.35,-399.26C2065.77,-382.44 2156.13,-361.72 2157.5,-360 2171.88,-341.91 2171.79,-326.16 2157.5,-308 2142.61,-289.07 2092.97,-275.81 2043.7,-267.01"/>
<polygon fill="#63b8ff" stroke="#63b8ff" points="1990.42,-395.88 1981.43,-401.5 1991.96,-402.71 1990.42,-395.88"/>
</g>
<!-- Node21&#45;&gt;Node6 -->
<g id="edge28" class="edge">
<title>Node21&#45;&gt;Node6</title>
<path fill="none" stroke="#63b8ff" d="M1849.87,-307.54C1866.16,-296.14 1885.07,-282.9 1900.26,-272.27"/>
<polygon fill="#63b8ff" stroke="#63b8ff" points="1847.82,-304.71 1841.63,-313.31 1851.83,-310.44 1847.82,-304.71"/>
</g>
<!-- Node22&#45;&gt;Node6 -->
<g id="edge30" class="edge">
<title>Node22&#45;&gt;Node6</title>
<path fill="none" stroke="#63b8ff" d="M2007.13,-307.54C1990.84,-296.14 1971.93,-282.9 1956.74,-272.27"/>
<polygon fill="#63b8ff" stroke="#63b8ff" points="2005.17,-310.44 2015.37,-313.31 2009.18,-304.71 2005.17,-310.44"/>
</g>
<!-- Node23&#45;&gt;Node16 -->
<g id="edge32" class="edge">
<title>Node23&#45;&gt;Node16</title>
<path fill="none" stroke="#63b8ff" d="M1441.58,-398.25C1407.1,-386.53 1364.96,-372.21 1329.51,-360.16"/>
<polygon fill="#63b8ff" stroke="#63b8ff" points="1440.5,-401.58 1451.09,-401.49 1442.75,-394.95 1440.5,-401.58"/>
</g>
<!-- Node24&#45;&gt;Node4 -->
<g id="edge35" class="edge">
<title>Node24&#45;&gt;Node4</title>
<path fill="none" stroke="#63b8ff" d="M1467.43,-554.82C1480.62,-545.11 1495.42,-534.24 1507.75,-525.17"/>
<polygon fill="#63b8ff" stroke="#63b8ff" points="1465.02,-552.25 1459.03,-560.99 1469.16,-557.89 1465.02,-552.25"/>
</g>
<!-- Node24&#45;&gt;Node5 -->
<g id="edge36" class="edge">
<title>Node24&#45;&gt;Node5</title>
<path fill="none" stroke="#63b8ff" d="M1539.14,-559.3C1588.35,-549.29 1647.48,-536.94 1700.5,-525 1820.47,-497.98 1958.97,-463.65 2042.85,-442.5"/>
<polygon fill="#63b8ff" stroke="#63b8ff" points="1538.22,-555.91 1529.12,-561.33 1539.61,-562.77 1538.22,-555.91"/>
</g>
<!-- Node24&#45;&gt;Node17 -->
<g id="edge37" class="edge">
<title>Node24&#45;&gt;Node17</title>
<path fill="none" stroke="#63b8ff" d="M1398.58,-554.69C1357.3,-523.28 1288.51,-470.94 1251.3,-442.63"/>
<polygon fill="#63b8ff" stroke="#63b8ff" points="1396.62,-557.6 1406.7,-560.87 1400.86,-552.03 1396.62,-557.6"/>
</g>
<!-- Node24&#45;&gt;Node19 -->
<g id="edge38" class="edge">
<title>Node24&#45;&gt;Node19</title>
<path fill="none" stroke="#63b8ff" d="M1367.24,-557.51C1284.46,-528.34 1142.2,-478.21 1056.69,-448.08"/>
<polygon fill="#63b8ff" stroke="#63b8ff" points="1366.2,-560.85 1376.79,-560.87 1368.52,-554.25 1366.2,-560.85"/>
</g>
<!-- Node24&#45;&gt;Node20 -->
<g id="edge39" class="edge">
<title>Node24&#45;&gt;Node20</title>
<path fill="none" stroke="#63b8ff" d="M1519.31,-558.27C1554.38,-548.78 1595.1,-537.1 1631.5,-525 1708.41,-499.43 1795.8,-464.29 1847.97,-442.64"/>
<polygon fill="#63b8ff" stroke="#63b8ff" points="1518.32,-554.91 1509.57,-560.89 1520.14,-561.67 1518.32,-554.91"/>
</g>
<!-- Node25&#45;&gt;Node5 -->
<g id="edge41" class="edge">
<title>Node25&#45;&gt;Node5</title>
<path fill="none" stroke="#63b8ff" d="M2040.19,-478.04C2056.62,-466.64 2075.69,-453.4 2091.01,-442.77"/>
<polygon fill="#63b8ff" stroke="#63b8ff" points="2038.1,-475.23 2031.88,-483.81 2042.09,-480.98 2038.1,-475.23"/>
</g>
<!-- Node25&#45;&gt;Node6 -->
<g id="edge42" class="edge">
<title>Node25&#45;&gt;Node6</title>
<path fill="none" stroke="#63b8ff" d="M2115.08,-482.95C2169.71,-471.76 2225.5,-458.16 2233.5,-448 2247.8,-429.84 2238.29,-418.61 2233.5,-396 2224.64,-354.15 2227.77,-334.89 2194.5,-308 2170.97,-288.99 2104.26,-275.09 2043.53,-265.96"/>
<polygon fill="#63b8ff" stroke="#63b8ff" points="2114.37,-479.52 2105.27,-484.94 2115.76,-486.38 2114.37,-479.52"/>
</g>
<!-- Node26&#45;&gt;Node15 -->
<g id="edge54" class="edge">
<title>Node26&#45;&gt;Node15</title>
<path fill="none" stroke="#63b8ff" d="M2229.93,-476.28C2237.29,-467.71 2244.82,-457.89 2250.5,-448 2277.04,-401.8 2290.5,-388.28 2290.5,-335 2290.5,-335 2290.5,-335 2290.5,-250.5 2290.5,-175.38 2381.05,-132.53 2440.29,-112.54"/>
<polygon fill="#63b8ff" stroke="#63b8ff" points="2227.31,-473.97 2223.28,-483.77 2232.54,-478.62 2227.31,-473.97"/>
</g>
<!-- Node27 -->
<g id="node27" class="node">
<title>Node27</title>
<g id="a_node27"><a xlink:href="../../d8/dbb/_c_c_table_view_8h.html" target="_top" xlink:title=" ">
<polygon fill="white" stroke="#666666" points="2480,-442.5 2319,-442.5 2319,-401.5 2480,-401.5 2480,-442.5"/>
<text text-anchor="start" x="2327" y="-430.5" font-family="Helvetica,sans-Serif" font-size="10.00">/home/runner/work/cocos2d.h</text>
<text text-anchor="start" x="2327" y="-419.5" font-family="Helvetica,sans-Serif" font-size="10.00">/cocos2d.h/extensions/GUI</text>
<text text-anchor="middle" x="2399.5" y="-408.5" font-family="Helvetica,sans-Serif" font-size="10.00">/CCScrollView/CCTableView.h</text>
</a>
</g>
</g>
<!-- Node26&#45;&gt;Node27 -->
<g id="edge52" class="edge">
<title>Node26&#45;&gt;Node27</title>
<path fill="none" stroke="#63b8ff" d="M2260.78,-479.98C2289.74,-468.08 2324.46,-453.82 2351.93,-442.54"/>
<polygon fill="#63b8ff" stroke="#63b8ff" points="2259.12,-476.87 2251.2,-483.91 2261.78,-483.35 2259.12,-476.87"/>
</g>
<!-- Node27&#45;&gt;Node15 -->
<g id="edge53" class="edge">
<title>Node27&#45;&gt;Node15</title>
<path fill="none" stroke="#63b8ff" d="M2407.87,-391.35C2426.88,-323.97 2472.75,-161.41 2486.52,-112.59"/>
<polygon fill="#63b8ff" stroke="#63b8ff" points="2404.4,-390.74 2405.06,-401.31 2411.14,-392.64 2404.4,-390.74"/>
</g>
<!-- Node29 -->
<g id="node29" class="node">
<title>Node29</title>
<g id="a_node29"><a xlink:href="../../d1/dde/_c_c_table_view_cell_8h.html" target="_top" xlink:title=" ">
<polygon fill="white" stroke="#666666" points="2480.5,-525 2302.5,-525 2302.5,-484 2480.5,-484 2480.5,-525"/>
<text text-anchor="start" x="2310.5" y="-513" font-family="Helvetica,sans-Serif" font-size="10.00">/home/runner/work/cocos2d.h</text>
<text text-anchor="start" x="2310.5" y="-502" font-family="Helvetica,sans-Serif" font-size="10.00">/cocos2d.h/extensions/GUI</text>
<text text-anchor="middle" x="2391.5" y="-491" font-family="Helvetica,sans-Serif" font-size="10.00">/CCScrollView/CCTableViewCell.h</text>
</a>
</g>
</g>
<!-- Node28&#45;&gt;Node29 -->
<g id="edge56" class="edge">
<title>Node28&#45;&gt;Node29</title>
<path fill="none" stroke="#63b8ff" d="M2367.41,-551.83C2372.06,-542.89 2377.08,-533.24 2381.32,-525.07"/>
<polygon fill="#63b8ff" stroke="#63b8ff" points="2364.26,-550.31 2362.75,-560.79 2370.47,-553.54 2364.26,-550.31"/>
</g>
<!-- Node29&#45;&gt;Node27 -->
<g id="edge57" class="edge">
<title>Node29&#45;&gt;Node27</title>
<path fill="none" stroke="#63b8ff" d="M2394.49,-473.37C2395.51,-463.1 2396.63,-451.9 2397.55,-442.67"/>
<polygon fill="#63b8ff" stroke="#63b8ff" points="2390.98,-473.3 2393.48,-483.6 2397.95,-474 2390.98,-473.3"/>
</g>
<!-- Node30&#45;&gt;Node15 -->
<g id="edge60" class="edge">
<title>Node30&#45;&gt;Node15</title>
<path fill="none" stroke="#63b8ff" d="M2573.13,-391.35C2554.12,-323.97 2508.25,-161.41 2494.48,-112.59"/>
<polygon fill="#63b8ff" stroke="#63b8ff" points="2569.86,-392.64 2575.94,-401.31 2576.6,-390.74 2569.86,-392.64"/>
</g>
<!-- Node31&#45;&gt;Node15 -->
<g id="edge62" class="edge">
<title>Node31&#45;&gt;Node15</title>
<path fill="none" stroke="#63b8ff" d="M2620.85,-550.85C2622.8,-530.95 2627.47,-504.69 2638.5,-484 2649.15,-464.03 2664.22,-468.16 2674.5,-448 2697.61,-402.7 2692.5,-385.86 2692.5,-335 2692.5,-335 2692.5,-335 2692.5,-250.5 2692.5,-175.12 2601.58,-132.47 2541.73,-112.56"/>
<polygon fill="#63b8ff" stroke="#63b8ff" points="2617.36,-550.65 2620.04,-560.9 2624.33,-551.21 2617.36,-550.65"/>
</g>
<!-- Node31&#45;&gt;Node30 -->
<g id="edge63" class="edge">
<title>Node31&#45;&gt;Node30</title>
<path fill="none" stroke="#63b8ff" d="M2612.01,-551.19C2609.88,-542.74 2607.57,-533.51 2605.5,-525 2598.52,-496.37 2590.76,-463.13 2586.01,-442.58"/>
<polygon fill="#63b8ff" stroke="#63b8ff" points="2608.65,-552.16 2614.5,-561 2615.43,-550.44 2608.65,-552.16"/>
</g>
<!-- Node31&#45;&gt;Node32 -->
<g id="edge64" class="edge">
<title>Node31&#45;&gt;Node32</title>
<path fill="none" stroke="#63b8ff" d="M2656.69,-555.37C2671.26,-545.53 2687.71,-534.41 2701.38,-525.17"/>
<polygon fill="#63b8ff" stroke="#63b8ff" points="2654.7,-552.49 2648.37,-560.99 2658.62,-558.29 2654.7,-552.49"/>
</g>
<!-- Node32&#45;&gt;Node15 -->
<g id="edge65" class="edge">
<title>Node32&#45;&gt;Node15</title>
<path fill="none" stroke="#63b8ff" d="M2730.5,-473.69C2730.5,-440.01 2730.5,-383.57 2730.5,-335 2730.5,-335 2730.5,-335 2730.5,-250.5 2730.5,-206.3 2737.63,-185.37 2706.5,-154 2688.71,-136.07 2632.92,-121.99 2582.51,-112.51"/>
<polygon fill="#63b8ff" stroke="#63b8ff" points="2727,-473.78 2730.5,-483.78 2734,-473.78 2727,-473.78"/>
</g>
<!-- Node32&#45;&gt;Node30 -->
<g id="edge66" class="edge">
<title>Node32&#45;&gt;Node30</title>
<path fill="none" stroke="#63b8ff" d="M2685.07,-478.96C2663.51,-467.31 2638.09,-453.57 2617.83,-442.63"/>
<polygon fill="#63b8ff" stroke="#63b8ff" points="2683.59,-482.13 2694.05,-483.81 2686.92,-475.97 2683.59,-482.13"/>
</g>
</g>
</svg>
