<?xml version="1.0" encoding="UTF-8" standalone="no"?>
<!DOCTYPE svg PUBLIC "-//W3C//DTD SVG 1.1//EN"
 "http://www.w3.org/Graphics/SVG/1.1/DTD/svg11.dtd">
<!-- Generated by graphviz version 2.43.0 (0)
 -->
<!-- Title: /home/runner/work/cocos2d.h/cocos2d.h/cocos2dx/platform/CCSAXParser.h Pages: 1 -->
<svg width="319pt" height="274pt"
 viewBox="0.00 0.00 318.50 274.00" xmlns="http://www.w3.org/2000/svg" xmlns:xlink="http://www.w3.org/1999/xlink">
<g id="graph0" class="graph" transform="scale(1 1) rotate(0) translate(4 270)">
<title>/home/runner/work/cocos2d.h/cocos2d.h/cocos2dx/platform/CCSAXParser.h</title>
<!-- Node1 -->
<g id="node1" class="node">
<title>Node1</title>
<g id="a_node1"><a xlink:title=" ">
<polygon fill="#bfbfbf" stroke="black" points="0,-224.5 0,-265.5 162,-265.5 162,-224.5 0,-224.5"/>
<text text-anchor="start" x="8" y="-253.5" font-family="Helvetica,sans-Serif" font-size="10.00">/home/runner/work/cocos2d.h</text>
<text text-anchor="start" x="8" y="-242.5" font-family="Helvetica,sans-Serif" font-size="10.00">/cocos2d.h/cocos2dx/platform</text>
<text text-anchor="middle" x="81" y="-231.5" font-family="Helvetica,sans-Serif" font-size="10.00">/CCSAXParser.h</text>
</a>
</g>
</g>
<!-- Node2 -->
<g id="node2" class="node">
<title>Node2</title>
<g id="a_node2"><a xlink:href="../../dd/d96/_c_c_platform_config_8h.html" target="_top" xlink:title=" ">
<polygon fill="none" stroke="black" points="28,-0.5 28,-19.5 140,-19.5 140,-0.5 28,-0.5"/>
<text text-anchor="middle" x="84" y="-7.5" font-family="Helvetica,sans-Serif" font-size="10.00">CCPlatformConfig.h</text>
</a>
</g>
</g>
<!-- Node1&#45;&gt;Node2 -->
<g id="edge1" class="edge">
<title>Node1&#45;&gt;Node2</title>
<path fill="none" stroke="midnightblue" d="M78.11,-224.35C76.64,-213.63 74.97,-200.11 74,-188 72.01,-163.17 72.44,-156.9 72,-132 71.84,-123.11 71.47,-120.87 72,-112 73.71,-83.13 78.14,-49.87 81.12,-29.64"/>
<polygon fill="midnightblue" stroke="midnightblue" points="84.6,-30.03 82.63,-19.62 77.67,-28.98 84.6,-30.03"/>
</g>
<!-- Node3 -->
<g id="node3" class="node">
<title>Node3</title>
<g id="a_node3"><a xlink:href="../../d5/d22/_c_c_common_8h.html" target="_top" xlink:title=" ">
<polygon fill="none" stroke="black" points="82.5,-168.5 82.5,-187.5 165.5,-187.5 165.5,-168.5 82.5,-168.5"/>
<text text-anchor="middle" x="124" y="-175.5" font-family="Helvetica,sans-Serif" font-size="10.00">CCCommon.h</text>
</a>
</g>
</g>
<!-- Node1&#45;&gt;Node3 -->
<g id="edge2" class="edge">
<title>Node1&#45;&gt;Node3</title>
<path fill="none" stroke="midnightblue" d="M93.9,-224.5C99.86,-215.49 106.87,-204.89 112.63,-196.19"/>
<polygon fill="midnightblue" stroke="midnightblue" points="115.68,-197.92 118.28,-187.65 109.84,-194.06 115.68,-197.92"/>
</g>
<!-- Node4 -->
<g id="node4" class="node">
<title>Node4</title>
<g id="a_node4"><a xlink:href="../../d3/d41/_c_c_platform_macros_8h.html" target="_top" xlink:title=" ">
<polygon fill="none" stroke="black" points="81,-112.5 81,-131.5 197,-131.5 197,-112.5 81,-112.5"/>
<text text-anchor="middle" x="139" y="-119.5" font-family="Helvetica,sans-Serif" font-size="10.00">CCPlatformMacros.h</text>
</a>
</g>
</g>
<!-- Node3&#45;&gt;Node4 -->
<g id="edge3" class="edge">
<title>Node3&#45;&gt;Node4</title>
<path fill="none" stroke="midnightblue" d="M126.48,-168.08C128.49,-160.85 131.39,-150.41 133.89,-141.4"/>
<polygon fill="midnightblue" stroke="midnightblue" points="137.26,-142.32 136.57,-131.75 130.52,-140.45 137.26,-142.32"/>
</g>
<!-- Node4&#45;&gt;Node2 -->
<g id="edge6" class="edge">
<title>Node4&#45;&gt;Node2</title>
<path fill="none" stroke="midnightblue" d="M130.71,-112.36C122.86,-103.76 111.22,-89.87 104,-76 96.34,-61.27 91.06,-43.11 87.86,-29.73"/>
<polygon fill="midnightblue" stroke="midnightblue" points="91.23,-28.8 85.65,-19.8 84.4,-30.32 91.23,-28.8"/>
</g>
<!-- Node5 -->
<g id="node5" class="node">
<title>Node5</title>
<g id="a_node5"><a xlink:href="../../db/d9f/cc_config_8h.html" target="_top" xlink:title="cocos2d (cc) configuration file">
<polygon fill="none" stroke="black" points="112.5,-56.5 112.5,-75.5 179.5,-75.5 179.5,-56.5 112.5,-56.5"/>
<text text-anchor="middle" x="146" y="-63.5" font-family="Helvetica,sans-Serif" font-size="10.00">ccConfig.h</text>
</a>
</g>
</g>
<!-- Node4&#45;&gt;Node5 -->
<g id="edge4" class="edge">
<title>Node4&#45;&gt;Node5</title>
<path fill="none" stroke="midnightblue" d="M140.16,-112.08C141.08,-104.93 142.42,-94.64 143.58,-85.69"/>
<polygon fill="midnightblue" stroke="midnightblue" points="147.05,-86.12 144.87,-75.75 140.11,-85.22 147.05,-86.12"/>
</g>
<!-- Node6 -->
<g id="node6" class="node">
<title>Node6</title>
<g id="a_node6"><a xlink:title=" ">
<polygon fill="none" stroke="#bfbfbf" points="197.5,-56.5 197.5,-75.5 310.5,-75.5 310.5,-56.5 197.5,-56.5"/>
<text text-anchor="middle" x="254" y="-63.5" font-family="Helvetica,sans-Serif" font-size="10.00">CCPlatformDefine.h</text>
</a>
</g>
</g>
<!-- Node4&#45;&gt;Node6 -->
<g id="edge7" class="edge">
<title>Node4&#45;&gt;Node6</title>
<path fill="none" stroke="midnightblue" d="M157.22,-112.44C175.9,-103.68 205.16,-89.94 226.62,-79.86"/>
<polygon fill="midnightblue" stroke="midnightblue" points="228.3,-82.93 235.86,-75.52 225.32,-76.6 228.3,-82.93"/>
</g>
<!-- Node5&#45;&gt;Node2 -->
<g id="edge5" class="edge">
<title>Node5&#45;&gt;Node2</title>
<path fill="none" stroke="midnightblue" d="M136.04,-56.32C126.87,-48.34 113.06,-36.31 101.97,-26.65"/>
<polygon fill="midnightblue" stroke="midnightblue" points="103.98,-23.76 94.14,-19.83 99.38,-29.04 103.98,-23.76"/>
</g>
</g>
</svg>
