<?xml version="1.0" encoding="UTF-8" standalone="no"?>
<!DOCTYPE svg PUBLIC "-//W3C//DTD SVG 1.1//EN"
 "http://www.w3.org/Graphics/SVG/1.1/DTD/svg11.dtd">
<!-- Generated by graphviz version 2.43.0 (0)
 -->
<!-- Title: /home/runner/work/cocos2d.h/cocos2d.h/cocos2dx/platform/CCSAXParser.h Pages: 1 -->
<svg width="319pt" height="269pt"
 viewBox="0.00 0.00 318.50 269.00" xmlns="http://www.w3.org/2000/svg" xmlns:xlink="http://www.w3.org/1999/xlink">
<g id="graph0" class="graph" transform="scale(1 1) rotate(0) translate(4 265)">
<title>/home/runner/work/cocos2d.h/cocos2d.h/cocos2dx/platform/CCSAXParser.h</title>
<!-- Node1 -->
<g id="node1" class="node">
<title>Node1</title>
<g id="a_node1"><a xlink:title=" ">
<polygon fill="#999999" stroke="#666666" points="162,-261 0,-261 0,-220 162,-220 162,-261"/>
<text text-anchor="start" x="8" y="-249" font-family="Helvetica,sans-Serif" font-size="10.00">/home/runner/work/cocos2d.h</text>
<text text-anchor="start" x="8" y="-238" font-family="Helvetica,sans-Serif" font-size="10.00">/cocos2d.h/cocos2dx/platform</text>
<text text-anchor="middle" x="81" y="-227" font-family="Helvetica,sans-Serif" font-size="10.00">/CCSAXParser.h</text>
</a>
</g>
</g>
<!-- Node2 -->
<g id="node2" class="node">
<title>Node2</title>
<g id="a_node2"><a xlink:href="../../dd/d96/_c_c_platform_config_8h.html" target="_top" xlink:title=" ">
<polygon fill="white" stroke="#666666" points="140,-19 28,-19 28,0 140,0 140,-19"/>
<text text-anchor="middle" x="84" y="-7" font-family="Helvetica,sans-Serif" font-size="10.00">CCPlatformConfig.h</text>
</a>
</g>
</g>
<!-- Node1&#45;&gt;Node2 -->
<g id="edge1" class="edge">
<title>Node1&#45;&gt;Node2</title>
<path fill="none" stroke="#63b8ff" d="M78.08,-219.77C76.62,-209.18 74.97,-195.91 74,-184 72.02,-159.62 72.44,-153.46 72,-129 71.85,-120.56 71.49,-118.43 72,-110 73.7,-81.7 78.1,-49.12 81.07,-29.17"/>
<polygon fill="#63b8ff" stroke="#63b8ff" points="84.53,-29.67 82.59,-19.25 77.61,-28.61 84.53,-29.67"/>
</g>
<!-- Node3 -->
<g id="node3" class="node">
<title>Node3</title>
<g id="a_node3"><a xlink:href="../../d5/d22/_c_c_common_8h.html" target="_top" xlink:title=" ">
<polygon fill="white" stroke="#666666" points="165.5,-184 82.5,-184 82.5,-165 165.5,-165 165.5,-184"/>
<text text-anchor="middle" x="124" y="-172" font-family="Helvetica,sans-Serif" font-size="10.00">CCCommon.h</text>
</a>
</g>
</g>
<!-- Node1&#45;&gt;Node3 -->
<g id="edge2" class="edge">
<title>Node1&#45;&gt;Node3</title>
<path fill="none" stroke="#63b8ff" d="M94.14,-219.95C99.95,-211.3 106.73,-201.2 112.36,-192.82"/>
<polygon fill="#63b8ff" stroke="#63b8ff" points="115.44,-194.51 118.11,-184.26 109.63,-190.61 115.44,-194.51"/>
</g>
<!-- Node4 -->
<g id="node4" class="node">
<title>Node4</title>
<g id="a_node4"><a xlink:href="../../d3/d41/_c_c_platform_macros_8h.html" target="_top" xlink:title=" ">
<polygon fill="white" stroke="#666666" points="197,-129 81,-129 81,-110 197,-110 197,-129"/>
<text text-anchor="middle" x="139" y="-117" font-family="Helvetica,sans-Serif" font-size="10.00">CCPlatformMacros.h</text>
</a>
</g>
</g>
<!-- Node3&#45;&gt;Node4 -->
<g id="edge3" class="edge">
<title>Node3&#45;&gt;Node4</title>
<path fill="none" stroke="#63b8ff" d="M126.48,-164.75C128.46,-157.72 131.32,-147.62 133.81,-138.84"/>
<polygon fill="#63b8ff" stroke="#63b8ff" points="137.21,-139.66 136.57,-129.09 130.48,-137.76 137.21,-139.66"/>
</g>
<!-- Node4&#45;&gt;Node2 -->
<g id="edge6" class="edge">
<title>Node4&#45;&gt;Node2</title>
<path fill="none" stroke="#63b8ff" d="M130.73,-109.97C122.88,-101.47 111.25,-87.73 104,-74 96.49,-59.77 91.23,-42.24 88,-29.2"/>
<polygon fill="#63b8ff" stroke="#63b8ff" points="91.33,-28.06 85.67,-19.1 84.51,-29.63 91.33,-28.06"/>
</g>
<!-- Node5 -->
<g id="node5" class="node">
<title>Node5</title>
<g id="a_node5"><a xlink:href="../../db/d9f/cc_config_8h.html" target="_top" xlink:title="cocos2d (cc) configuration file">
<polygon fill="white" stroke="#666666" points="179.5,-74 112.5,-74 112.5,-55 179.5,-55 179.5,-74"/>
<text text-anchor="middle" x="146" y="-62" font-family="Helvetica,sans-Serif" font-size="10.00">ccConfig.h</text>
</a>
</g>
</g>
<!-- Node4&#45;&gt;Node5 -->
<g id="edge4" class="edge">
<title>Node4&#45;&gt;Node5</title>
<path fill="none" stroke="#63b8ff" d="M140.16,-109.75C141.07,-102.8 142.39,-92.85 143.54,-84.13"/>
<polygon fill="#63b8ff" stroke="#63b8ff" points="147.03,-84.46 144.87,-74.09 140.09,-83.54 147.03,-84.46"/>
</g>
<!-- Node6 -->
<g id="node6" class="node">
<title>Node6</title>
<g id="a_node6"><a xlink:title=" ">
<polygon fill="#e0e0e0" stroke="#999999" points="310.5,-74 197.5,-74 197.5,-55 310.5,-55 310.5,-74"/>
<text text-anchor="middle" x="254" y="-62" font-family="Helvetica,sans-Serif" font-size="10.00">CCPlatformDefine.h</text>
</a>
</g>
</g>
<!-- Node4&#45;&gt;Node6 -->
<g id="edge7" class="edge">
<title>Node4&#45;&gt;Node6</title>
<path fill="none" stroke="#63b8ff" d="M157.48,-109.98C175.98,-101.46 204.68,-88.23 225.98,-78.41"/>
<polygon fill="#63b8ff" stroke="#63b8ff" points="227.57,-81.53 235.19,-74.17 224.64,-75.18 227.57,-81.53"/>
</g>
<!-- Node5&#45;&gt;Node2 -->
<g id="edge5" class="edge">
<title>Node5&#45;&gt;Node2</title>
<path fill="none" stroke="#63b8ff" d="M136.04,-54.98C126.87,-47.15 113.06,-35.34 101.97,-25.86"/>
<polygon fill="#63b8ff" stroke="#63b8ff" points="104.02,-23.01 94.14,-19.17 99.47,-28.33 104.02,-23.01"/>
</g>
</g>
</svg>
