<?xml version="1.0" encoding="UTF-8" standalone="no"?>
<!DOCTYPE svg PUBLIC "-//W3C//DTD SVG 1.1//EN"
 "http://www.w3.org/Graphics/SVG/1.1/DTD/svg11.dtd">
<!-- Generated by graphviz version 2.43.0 (0)
 -->
<!-- Title: /home/runner/work/cocos2d.h/cocos2d.h/cocos2dx/cocoa/CCNS.h Pages: 1 -->
<svg width="395pt" height="423pt"
 viewBox="0.00 0.00 395.00 423.00" xmlns="http://www.w3.org/2000/svg" xmlns:xlink="http://www.w3.org/1999/xlink">
<g id="graph0" class="graph" transform="scale(1 1) rotate(0) translate(4 419)">
<title>/home/runner/work/cocos2d.h/cocos2d.h/cocos2dx/cocoa/CCNS.h</title>
<!-- Node1 -->
<g id="node1" class="node">
<title>Node1</title>
<g id="a_node1"><a xlink:title=" ">
<polygon fill="#999999" stroke="#666666" points="188,-415 0,-415 0,-385 188,-385 188,-415"/>
<text text-anchor="start" x="8" y="-403" font-family="Helvetica,sans-Serif" font-size="10.00">/home/runner/work/cocos2d.h</text>
<text text-anchor="middle" x="94" y="-392" font-family="Helvetica,sans-Serif" font-size="10.00">/cocos2d.h/cocos2dx/cocoa/CCNS.h</text>
</a>
</g>
</g>
<!-- Node2 -->
<g id="node2" class="node">
<title>Node2</title>
<g id="a_node2"><a xlink:href="../../d6/d09/_c_c_geometry_8h.html" target="_top" xlink:title=" ">
<polygon fill="white" stroke="#666666" points="137,-349 51,-349 51,-330 137,-330 137,-349"/>
<text text-anchor="middle" x="94" y="-337" font-family="Helvetica,sans-Serif" font-size="10.00">CCGeometry.h</text>
</a>
</g>
</g>
<!-- Node1&#45;&gt;Node2 -->
<g id="edge1" class="edge">
<title>Node1&#45;&gt;Node2</title>
<path fill="none" stroke="#63b8ff" d="M94,-384.84C94,-377.21 94,-367.7 94,-359.45"/>
<polygon fill="#63b8ff" stroke="#63b8ff" points="97.5,-359.27 94,-349.27 90.5,-359.27 97.5,-359.27"/>
</g>
<!-- Node3 -->
<g id="node3" class="node">
<title>Node3</title>
<g id="a_node3"><a xlink:href="../../d3/d41/_c_c_platform_macros_8h.html" target="_top" xlink:title=" ">
<polygon fill="white" stroke="#666666" points="179.5,-129 18.5,-129 18.5,-110 179.5,-110 179.5,-129"/>
<text text-anchor="middle" x="99" y="-117" font-family="Helvetica,sans-Serif" font-size="10.00">platform/CCPlatformMacros.h</text>
</a>
</g>
</g>
<!-- Node2&#45;&gt;Node3 -->
<g id="edge2" class="edge">
<title>Node2&#45;&gt;Node3</title>
<path fill="none" stroke="#63b8ff" d="M81.68,-329.71C71.3,-321.63 56.92,-308.7 49,-294 33.23,-264.73 30.48,-252.39 38,-220 45.56,-187.46 68.69,-155.56 84.19,-136.97"/>
<polygon fill="#63b8ff" stroke="#63b8ff" points="87.02,-139.06 90.89,-129.2 81.71,-134.49 87.02,-139.06"/>
</g>
<!-- Node7 -->
<g id="node7" class="node">
<title>Node7</title>
<g id="a_node7"><a xlink:href="../../dd/d69/_c_c_object_8h.html" target="_top" xlink:title=" ">
<polygon fill="white" stroke="#666666" points="129.5,-294 58.5,-294 58.5,-275 129.5,-275 129.5,-294"/>
<text text-anchor="middle" x="94" y="-282" font-family="Helvetica,sans-Serif" font-size="10.00">CCObject.h</text>
</a>
</g>
</g>
<!-- Node2&#45;&gt;Node7 -->
<g id="edge7" class="edge">
<title>Node2&#45;&gt;Node7</title>
<path fill="none" stroke="#63b8ff" d="M94,-329.75C94,-322.8 94,-312.85 94,-304.13"/>
<polygon fill="#63b8ff" stroke="#63b8ff" points="97.5,-304.09 94,-294.09 90.5,-304.09 97.5,-304.09"/>
</g>
<!-- Node13 -->
<g id="node13" class="node">
<title>Node13</title>
<g id="a_node13"><a xlink:title=" ">
<polygon fill="#e0e0e0" stroke="#999999" points="198.5,-294 147.5,-294 147.5,-275 198.5,-275 198.5,-294"/>
<text text-anchor="middle" x="173" y="-282" font-family="Helvetica,sans-Serif" font-size="10.00">math.h</text>
</a>
</g>
</g>
<!-- Node2&#45;&gt;Node13 -->
<g id="edge16" class="edge">
<title>Node2&#45;&gt;Node13</title>
<path fill="none" stroke="#63b8ff" d="M106.69,-329.98C118.83,-321.84 137.36,-309.41 151.75,-299.76"/>
<polygon fill="#63b8ff" stroke="#63b8ff" points="153.72,-302.65 160.08,-294.17 149.82,-296.84 153.72,-302.65"/>
</g>
<!-- Node4 -->
<g id="node4" class="node">
<title>Node4</title>
<g id="a_node4"><a xlink:href="../../db/d9f/cc_config_8h.html" target="_top" xlink:title="cocos2d (cc) configuration file">
<polygon fill="white" stroke="#666666" points="283.5,-74 216.5,-74 216.5,-55 283.5,-55 283.5,-74"/>
<text text-anchor="middle" x="250" y="-62" font-family="Helvetica,sans-Serif" font-size="10.00">ccConfig.h</text>
</a>
</g>
</g>
<!-- Node3&#45;&gt;Node4 -->
<g id="edge3" class="edge">
<title>Node3&#45;&gt;Node4</title>
<path fill="none" stroke="#63b8ff" d="M123.26,-109.98C148.32,-101.19 187.63,-87.39 215.83,-77.49"/>
<polygon fill="#63b8ff" stroke="#63b8ff" points="217.02,-80.78 225.3,-74.17 214.7,-74.18 217.02,-80.78"/>
</g>
<!-- Node5 -->
<g id="node5" class="node">
<title>Node5</title>
<g id="a_node5"><a xlink:href="../../dd/d96/_c_c_platform_config_8h.html" target="_top" xlink:title=" ">
<polygon fill="white" stroke="#666666" points="231.5,-19 74.5,-19 74.5,0 231.5,0 231.5,-19"/>
<text text-anchor="middle" x="153" y="-7" font-family="Helvetica,sans-Serif" font-size="10.00">platform/CCPlatformConfig.h</text>
</a>
</g>
</g>
<!-- Node3&#45;&gt;Node5 -->
<g id="edge5" class="edge">
<title>Node3&#45;&gt;Node5</title>
<path fill="none" stroke="#63b8ff" d="M91.33,-109.87C81.11,-97.25 65.45,-73.28 76,-55 84.42,-40.41 99.65,-30.17 114.35,-23.23"/>
<polygon fill="#63b8ff" stroke="#63b8ff" points="116.07,-26.3 123.86,-19.13 113.29,-19.87 116.07,-26.3"/>
</g>
<!-- Node6 -->
<g id="node6" class="node">
<title>Node6</title>
<g id="a_node6"><a xlink:title=" ">
<polygon fill="#e0e0e0" stroke="#999999" points="198.5,-74 85.5,-74 85.5,-55 198.5,-55 198.5,-74"/>
<text text-anchor="middle" x="142" y="-62" font-family="Helvetica,sans-Serif" font-size="10.00">CCPlatformDefine.h</text>
</a>
</g>
</g>
<!-- Node3&#45;&gt;Node6 -->
<g id="edge6" class="edge">
<title>Node3&#45;&gt;Node6</title>
<path fill="none" stroke="#63b8ff" d="M106.1,-109.75C112.17,-102.26 121.09,-91.28 128.51,-82.13"/>
<polygon fill="#63b8ff" stroke="#63b8ff" points="131.45,-84.06 135.03,-74.09 126.01,-79.65 131.45,-84.06"/>
</g>
<!-- Node4&#45;&gt;Node5 -->
<g id="edge4" class="edge">
<title>Node4&#45;&gt;Node5</title>
<path fill="none" stroke="#63b8ff" d="M234.42,-54.98C219.23,-46.69 195.9,-33.94 178.1,-24.22"/>
<polygon fill="#63b8ff" stroke="#63b8ff" points="179.32,-20.89 168.87,-19.17 175.97,-27.04 179.32,-20.89"/>
</g>
<!-- Node8 -->
<g id="node8" class="node">
<title>Node8</title>
<g id="a_node8"><a xlink:href="../../d9/d2d/_c_c_data_visitor_8h.html" target="_top" xlink:title=" ">
<polygon fill="white" stroke="#666666" points="140.5,-239 47.5,-239 47.5,-220 140.5,-220 140.5,-239"/>
<text text-anchor="middle" x="94" y="-227" font-family="Helvetica,sans-Serif" font-size="10.00">CCDataVisitor.h</text>
</a>
</g>
</g>
<!-- Node7&#45;&gt;Node8 -->
<g id="edge8" class="edge">
<title>Node7&#45;&gt;Node8</title>
<path fill="none" stroke="#63b8ff" d="M94,-274.75C94,-267.8 94,-257.85 94,-249.13"/>
<polygon fill="#63b8ff" stroke="#63b8ff" points="97.5,-249.09 94,-239.09 90.5,-249.09 97.5,-249.09"/>
</g>
<!-- Node10 -->
<g id="node10" class="node">
<title>Node10</title>
<g id="a_node10"><a xlink:href="../../d9/dc8/cc_macros_8h.html" target="_top" xlink:title=" ">
<polygon fill="white" stroke="#666666" points="286.5,-239 215.5,-239 215.5,-220 286.5,-220 286.5,-239"/>
<text text-anchor="middle" x="251" y="-227" font-family="Helvetica,sans-Serif" font-size="10.00">ccMacros.h</text>
</a>
</g>
</g>
<!-- Node7&#45;&gt;Node10 -->
<g id="edge11" class="edge">
<title>Node7&#45;&gt;Node10</title>
<path fill="none" stroke="#63b8ff" d="M119.22,-274.98C145.36,-266.16 186.4,-252.31 215.73,-242.41"/>
<polygon fill="#63b8ff" stroke="#63b8ff" points="217.22,-245.6 225.58,-239.08 214.98,-238.96 217.22,-245.6"/>
</g>
<!-- Node8&#45;&gt;Node3 -->
<g id="edge9" class="edge">
<title>Node8&#45;&gt;Node3</title>
<path fill="none" stroke="#63b8ff" d="M86.7,-219.6C77.65,-207.44 64.09,-184.88 70,-165 72.98,-154.98 79,-145.11 84.79,-137.22"/>
<polygon fill="#63b8ff" stroke="#63b8ff" points="87.63,-139.28 91.06,-129.25 82.13,-134.95 87.63,-139.28"/>
</g>
<!-- Node9 -->
<g id="node9" class="node">
<title>Node9</title>
<g id="a_node9"><a xlink:title=" ">
<polygon fill="#e0e0e0" stroke="#999999" points="123,-184 79,-184 79,-165 123,-165 123,-184"/>
<text text-anchor="middle" x="101" y="-172" font-family="Helvetica,sans-Serif" font-size="10.00">string</text>
</a>
</g>
</g>
<!-- Node8&#45;&gt;Node9 -->
<g id="edge10" class="edge">
<title>Node8&#45;&gt;Node9</title>
<path fill="none" stroke="#63b8ff" d="M95.16,-219.75C96.07,-212.8 97.39,-202.85 98.54,-194.13"/>
<polygon fill="#63b8ff" stroke="#63b8ff" points="102.03,-194.46 99.87,-184.09 95.09,-193.54 102.03,-194.46"/>
</g>
<!-- Node10&#45;&gt;Node4 -->
<g id="edge15" class="edge">
<title>Node10&#45;&gt;Node4</title>
<path fill="none" stroke="#63b8ff" d="M258.15,-219.97C264.77,-211.48 274.15,-197.75 278,-184 287.92,-148.53 271.37,-106.46 259.78,-83.19"/>
<polygon fill="#63b8ff" stroke="#63b8ff" points="262.81,-81.42 255.07,-74.19 256.6,-84.67 262.81,-81.42"/>
</g>
<!-- Node11 -->
<g id="node11" class="node">
<title>Node11</title>
<g id="a_node11"><a xlink:href="../../d5/d22/_c_c_common_8h.html" target="_top" xlink:title=" ">
<polygon fill="white" stroke="#666666" points="269,-184 141,-184 141,-165 269,-165 269,-184"/>
<text text-anchor="middle" x="205" y="-172" font-family="Helvetica,sans-Serif" font-size="10.00">platform/CCCommon.h</text>
</a>
</g>
</g>
<!-- Node10&#45;&gt;Node11 -->
<g id="edge12" class="edge">
<title>Node10&#45;&gt;Node11</title>
<path fill="none" stroke="#63b8ff" d="M243.4,-219.75C236.84,-212.18 227.18,-201.05 219.19,-191.84"/>
<polygon fill="#63b8ff" stroke="#63b8ff" points="221.65,-189.35 212.45,-184.09 216.37,-193.94 221.65,-189.35"/>
</g>
<!-- Node12 -->
<g id="node12" class="node">
<title>Node12</title>
<g id="a_node12"><a xlink:title=" ">
<polygon fill="#e0e0e0" stroke="#999999" points="387,-184 325,-184 325,-165 387,-165 387,-184"/>
<text text-anchor="middle" x="356" y="-172" font-family="Helvetica,sans-Serif" font-size="10.00">CCStdC.h</text>
</a>
</g>
</g>
<!-- Node10&#45;&gt;Node12 -->
<g id="edge14" class="edge">
<title>Node10&#45;&gt;Node12</title>
<path fill="none" stroke="#63b8ff" d="M267.87,-219.98C284.61,-211.54 310.5,-198.47 329.89,-188.68"/>
<polygon fill="#63b8ff" stroke="#63b8ff" points="331.47,-191.8 338.82,-184.17 328.32,-185.55 331.47,-191.8"/>
</g>
<!-- Node11&#45;&gt;Node3 -->
<g id="edge13" class="edge">
<title>Node11&#45;&gt;Node3</title>
<path fill="none" stroke="#63b8ff" d="M187.97,-164.98C171.07,-156.54 144.94,-143.47 125.36,-133.68"/>
<polygon fill="#63b8ff" stroke="#63b8ff" points="126.85,-130.51 116.34,-129.17 123.72,-136.77 126.85,-130.51"/>
</g>
</g>
</svg>
