<?xml version="1.0" encoding="UTF-8" standalone="no"?>
<!DOCTYPE svg PUBLIC "-//W3C//DTD SVG 1.1//EN"
 "http://www.w3.org/Graphics/SVG/1.1/DTD/svg11.dtd">
<!-- Generated by graphviz version 2.43.0 (0)
 -->
<!-- Title: /home/runner/work/cocos2d.h/cocos2d.h/cocos2dx/cocoa/CCNS.h Pages: 1 -->
<svg width="395pt" height="431pt"
 viewBox="0.00 0.00 395.00 431.00" xmlns="http://www.w3.org/2000/svg" xmlns:xlink="http://www.w3.org/1999/xlink">
<g id="graph0" class="graph" transform="scale(1 1) rotate(0) translate(4 427)">
<title>/home/runner/work/cocos2d.h/cocos2d.h/cocos2dx/cocoa/CCNS.h</title>
<!-- Node1 -->
<g id="node1" class="node">
<title>Node1</title>
<g id="a_node1"><a xlink:title=" ">
<polygon fill="#bfbfbf" stroke="black" points="0,-392.5 0,-422.5 188,-422.5 188,-392.5 0,-392.5"/>
<text text-anchor="start" x="8" y="-410.5" font-family="Helvetica,sans-Serif" font-size="10.00">/home/runner/work/cocos2d.h</text>
<text text-anchor="middle" x="94" y="-399.5" font-family="Helvetica,sans-Serif" font-size="10.00">/cocos2d.h/cocos2dx/cocoa/CCNS.h</text>
</a>
</g>
</g>
<!-- Node2 -->
<g id="node2" class="node">
<title>Node2</title>
<g id="a_node2"><a xlink:href="../../d6/d09/_c_c_geometry_8h.html" target="_top" xlink:title=" ">
<polygon fill="none" stroke="black" points="51,-336.5 51,-355.5 137,-355.5 137,-336.5 51,-336.5"/>
<text text-anchor="middle" x="94" y="-343.5" font-family="Helvetica,sans-Serif" font-size="10.00">CCGeometry.h</text>
</a>
</g>
</g>
<!-- Node1&#45;&gt;Node2 -->
<g id="edge1" class="edge">
<title>Node1&#45;&gt;Node2</title>
<path fill="none" stroke="midnightblue" d="M94,-392.4C94,-384.47 94,-374.46 94,-365.86"/>
<polygon fill="midnightblue" stroke="midnightblue" points="97.5,-365.66 94,-355.66 90.5,-365.66 97.5,-365.66"/>
</g>
<!-- Node3 -->
<g id="node3" class="node">
<title>Node3</title>
<g id="a_node3"><a xlink:href="../../d3/d41/_c_c_platform_macros_8h.html" target="_top" xlink:title=" ">
<polygon fill="none" stroke="black" points="18.5,-112.5 18.5,-131.5 179.5,-131.5 179.5,-112.5 18.5,-112.5"/>
<text text-anchor="middle" x="99" y="-119.5" font-family="Helvetica,sans-Serif" font-size="10.00">platform/CCPlatformMacros.h</text>
</a>
</g>
</g>
<!-- Node2&#45;&gt;Node3 -->
<g id="edge2" class="edge">
<title>Node2&#45;&gt;Node3</title>
<path fill="none" stroke="midnightblue" d="M82.07,-336.41C71.66,-328.25 57,-315.02 49,-300 32.95,-269.88 30.4,-257.27 38,-224 45.6,-190.75 69.12,-158.03 84.63,-139.21"/>
<polygon fill="midnightblue" stroke="midnightblue" points="87.3,-141.48 91.11,-131.59 81.97,-136.94 87.3,-141.48"/>
</g>
<!-- Node7 -->
<g id="node7" class="node">
<title>Node7</title>
<g id="a_node7"><a xlink:href="../../dd/d69/_c_c_object_8h.html" target="_top" xlink:title=" ">
<polygon fill="none" stroke="black" points="58.5,-280.5 58.5,-299.5 129.5,-299.5 129.5,-280.5 58.5,-280.5"/>
<text text-anchor="middle" x="94" y="-287.5" font-family="Helvetica,sans-Serif" font-size="10.00">CCObject.h</text>
</a>
</g>
</g>
<!-- Node2&#45;&gt;Node7 -->
<g id="edge7" class="edge">
<title>Node2&#45;&gt;Node7</title>
<path fill="none" stroke="midnightblue" d="M94,-336.08C94,-329.01 94,-318.86 94,-309.99"/>
<polygon fill="midnightblue" stroke="midnightblue" points="97.5,-309.75 94,-299.75 90.5,-309.75 97.5,-309.75"/>
</g>
<!-- Node13 -->
<g id="node13" class="node">
<title>Node13</title>
<g id="a_node13"><a xlink:title=" ">
<polygon fill="none" stroke="#bfbfbf" points="147.5,-280.5 147.5,-299.5 198.5,-299.5 198.5,-280.5 147.5,-280.5"/>
<text text-anchor="middle" x="173" y="-287.5" font-family="Helvetica,sans-Serif" font-size="10.00">math.h</text>
</a>
</g>
</g>
<!-- Node2&#45;&gt;Node13 -->
<g id="edge16" class="edge">
<title>Node2&#45;&gt;Node13</title>
<path fill="none" stroke="midnightblue" d="M106.69,-336.32C118.9,-327.98 137.58,-315.21 152,-305.35"/>
<polygon fill="midnightblue" stroke="midnightblue" points="154.06,-308.19 160.34,-299.65 150.11,-302.41 154.06,-308.19"/>
</g>
<!-- Node4 -->
<g id="node4" class="node">
<title>Node4</title>
<g id="a_node4"><a xlink:href="../../db/d9f/cc_config_8h.html" target="_top" xlink:title="cocos2d (cc) configuration file">
<polygon fill="none" stroke="black" points="216.5,-56.5 216.5,-75.5 283.5,-75.5 283.5,-56.5 216.5,-56.5"/>
<text text-anchor="middle" x="250" y="-63.5" font-family="Helvetica,sans-Serif" font-size="10.00">ccConfig.h</text>
</a>
</g>
</g>
<!-- Node3&#45;&gt;Node4 -->
<g id="edge3" class="edge">
<title>Node3&#45;&gt;Node4</title>
<path fill="none" stroke="midnightblue" d="M122.93,-112.44C148.22,-103.4 188.3,-89.06 216.68,-78.92"/>
<polygon fill="midnightblue" stroke="midnightblue" points="217.95,-82.18 226.19,-75.52 215.59,-75.59 217.95,-82.18"/>
</g>
<!-- Node5 -->
<g id="node5" class="node">
<title>Node5</title>
<g id="a_node5"><a xlink:href="../../dd/d96/_c_c_platform_config_8h.html" target="_top" xlink:title=" ">
<polygon fill="none" stroke="black" points="74.5,-0.5 74.5,-19.5 231.5,-19.5 231.5,-0.5 74.5,-0.5"/>
<text text-anchor="middle" x="153" y="-7.5" font-family="Helvetica,sans-Serif" font-size="10.00">platform/CCPlatformConfig.h</text>
</a>
</g>
</g>
<!-- Node3&#45;&gt;Node5 -->
<g id="edge5" class="edge">
<title>Node3&#45;&gt;Node5</title>
<path fill="none" stroke="midnightblue" d="M91.29,-112.16C81,-99.23 65.28,-74.69 76,-56 84.62,-40.99 100.39,-30.5 115.43,-23.46"/>
<polygon fill="midnightblue" stroke="midnightblue" points="116.82,-26.67 124.63,-19.51 114.06,-20.24 116.82,-26.67"/>
</g>
<!-- Node6 -->
<g id="node6" class="node">
<title>Node6</title>
<g id="a_node6"><a xlink:title=" ">
<polygon fill="none" stroke="#bfbfbf" points="85.5,-56.5 85.5,-75.5 198.5,-75.5 198.5,-56.5 85.5,-56.5"/>
<text text-anchor="middle" x="142" y="-63.5" font-family="Helvetica,sans-Serif" font-size="10.00">CCPlatformDefine.h</text>
</a>
</g>
</g>
<!-- Node3&#45;&gt;Node6 -->
<g id="edge6" class="edge">
<title>Node3&#45;&gt;Node6</title>
<path fill="none" stroke="midnightblue" d="M106.1,-112.08C112.24,-104.38 121.27,-93.03 128.74,-83.65"/>
<polygon fill="midnightblue" stroke="midnightblue" points="131.54,-85.75 135.03,-75.75 126.06,-81.39 131.54,-85.75"/>
</g>
<!-- Node4&#45;&gt;Node5 -->
<g id="edge4" class="edge">
<title>Node4&#45;&gt;Node5</title>
<path fill="none" stroke="midnightblue" d="M234.42,-56.32C219,-47.74 195.19,-34.49 177.29,-24.52"/>
<polygon fill="midnightblue" stroke="midnightblue" points="178.99,-21.46 168.55,-19.65 175.58,-27.58 178.99,-21.46"/>
</g>
<!-- Node8 -->
<g id="node8" class="node">
<title>Node8</title>
<g id="a_node8"><a xlink:href="../../d9/d2d/_c_c_data_visitor_8h.html" target="_top" xlink:title=" ">
<polygon fill="none" stroke="black" points="47.5,-224.5 47.5,-243.5 140.5,-243.5 140.5,-224.5 47.5,-224.5"/>
<text text-anchor="middle" x="94" y="-231.5" font-family="Helvetica,sans-Serif" font-size="10.00">CCDataVisitor.h</text>
</a>
</g>
</g>
<!-- Node7&#45;&gt;Node8 -->
<g id="edge8" class="edge">
<title>Node7&#45;&gt;Node8</title>
<path fill="none" stroke="midnightblue" d="M94,-280.08C94,-273.01 94,-262.86 94,-253.99"/>
<polygon fill="midnightblue" stroke="midnightblue" points="97.5,-253.75 94,-243.75 90.5,-253.75 97.5,-253.75"/>
</g>
<!-- Node10 -->
<g id="node10" class="node">
<title>Node10</title>
<g id="a_node10"><a xlink:href="../../d9/dc8/cc_macros_8h.html" target="_top" xlink:title=" ">
<polygon fill="none" stroke="black" points="215.5,-224.5 215.5,-243.5 286.5,-243.5 286.5,-224.5 215.5,-224.5"/>
<text text-anchor="middle" x="251" y="-231.5" font-family="Helvetica,sans-Serif" font-size="10.00">ccMacros.h</text>
</a>
</g>
</g>
<!-- Node7&#45;&gt;Node10 -->
<g id="edge11" class="edge">
<title>Node7&#45;&gt;Node10</title>
<path fill="none" stroke="midnightblue" d="M118.88,-280.44C145.29,-271.36 187.22,-256.94 216.74,-246.78"/>
<polygon fill="midnightblue" stroke="midnightblue" points="217.92,-250.08 226.24,-243.52 215.64,-243.46 217.92,-250.08"/>
</g>
<!-- Node8&#45;&gt;Node3 -->
<g id="edge9" class="edge">
<title>Node8&#45;&gt;Node3</title>
<path fill="none" stroke="midnightblue" d="M86.99,-224.3C77.92,-211.94 63.95,-188.54 70,-168 73.01,-157.76 79.15,-147.66 85.01,-139.63"/>
<polygon fill="midnightblue" stroke="midnightblue" points="87.93,-141.58 91.33,-131.54 82.41,-137.27 87.93,-141.58"/>
</g>
<!-- Node9 -->
<g id="node9" class="node">
<title>Node9</title>
<g id="a_node9"><a xlink:title=" ">
<polygon fill="none" stroke="#bfbfbf" points="79,-168.5 79,-187.5 123,-187.5 123,-168.5 79,-168.5"/>
<text text-anchor="middle" x="101" y="-175.5" font-family="Helvetica,sans-Serif" font-size="10.00">string</text>
</a>
</g>
</g>
<!-- Node8&#45;&gt;Node9 -->
<g id="edge10" class="edge">
<title>Node8&#45;&gt;Node9</title>
<path fill="none" stroke="midnightblue" d="M95.16,-224.08C96.08,-216.93 97.42,-206.64 98.58,-197.69"/>
<polygon fill="midnightblue" stroke="midnightblue" points="102.05,-198.12 99.87,-187.75 95.11,-197.22 102.05,-198.12"/>
</g>
<!-- Node10&#45;&gt;Node4 -->
<g id="edge15" class="edge">
<title>Node10&#45;&gt;Node4</title>
<path fill="none" stroke="midnightblue" d="M258.15,-224.36C264.77,-215.76 274.16,-201.87 278,-188 288.08,-151.62 271.27,-108.4 259.64,-84.72"/>
<polygon fill="midnightblue" stroke="midnightblue" points="262.62,-82.85 254.92,-75.57 256.4,-86.06 262.62,-82.85"/>
</g>
<!-- Node11 -->
<g id="node11" class="node">
<title>Node11</title>
<g id="a_node11"><a xlink:href="../../d5/d22/_c_c_common_8h.html" target="_top" xlink:title=" ">
<polygon fill="none" stroke="black" points="141,-168.5 141,-187.5 269,-187.5 269,-168.5 141,-168.5"/>
<text text-anchor="middle" x="205" y="-175.5" font-family="Helvetica,sans-Serif" font-size="10.00">platform/CCCommon.h</text>
</a>
</g>
</g>
<!-- Node10&#45;&gt;Node11 -->
<g id="edge12" class="edge">
<title>Node10&#45;&gt;Node11</title>
<path fill="none" stroke="midnightblue" d="M243.4,-224.08C236.77,-216.3 226.98,-204.8 218.94,-195.37"/>
<polygon fill="midnightblue" stroke="midnightblue" points="221.6,-193.09 212.45,-187.75 216.27,-197.63 221.6,-193.09"/>
</g>
<!-- Node12 -->
<g id="node12" class="node">
<title>Node12</title>
<g id="a_node12"><a xlink:title=" ">
<polygon fill="none" stroke="#bfbfbf" points="325,-168.5 325,-187.5 387,-187.5 387,-168.5 325,-168.5"/>
<text text-anchor="middle" x="356" y="-175.5" font-family="Helvetica,sans-Serif" font-size="10.00">CCStdC.h</text>
</a>
</g>
</g>
<!-- Node10&#45;&gt;Node12 -->
<g id="edge14" class="edge">
<title>Node10&#45;&gt;Node12</title>
<path fill="none" stroke="midnightblue" d="M267.87,-224.32C284.71,-215.66 310.81,-202.24 330.24,-192.25"/>
<polygon fill="midnightblue" stroke="midnightblue" points="331.88,-195.34 339.17,-187.65 328.68,-189.12 331.88,-195.34"/>
</g>
<!-- Node11&#45;&gt;Node3 -->
<g id="edge13" class="edge">
<title>Node11&#45;&gt;Node3</title>
<path fill="none" stroke="midnightblue" d="M187.97,-168.32C170.97,-159.66 144.62,-146.24 125.01,-136.25"/>
<polygon fill="midnightblue" stroke="midnightblue" points="126.49,-133.08 115.99,-131.65 123.31,-139.31 126.49,-133.08"/>
</g>
</g>
</svg>
