<?xml version="1.0" encoding="UTF-8" standalone="no"?>
<!DOCTYPE svg PUBLIC "-//W3C//DTD SVG 1.1//EN"
 "http://www.w3.org/Graphics/SVG/1.1/DTD/svg11.dtd">
<!-- Generated by graphviz version 2.43.0 (0)
 -->
<!-- Title: /home/runner/work/cocos2d.h/cocos2d.h/cocos2dx/platform/winrt/DirectXBase.h Pages: 1 -->
<svg width="804pt" height="106pt"
 viewBox="0.00 0.00 804.00 106.00" xmlns="http://www.w3.org/2000/svg" xmlns:xlink="http://www.w3.org/1999/xlink">
<g id="graph0" class="graph" transform="scale(1 1) rotate(0) translate(4 102)">
<title>/home/runner/work/cocos2d.h/cocos2d.h/cocos2dx/platform/winrt/DirectXBase.h</title>
<!-- Node1 -->
<g id="node1" class="node">
<title>Node1</title>
<g id="a_node1"><a xlink:title=" ">
<polygon fill="#bfbfbf" stroke="black" points="307.5,-56.5 307.5,-97.5 469.5,-97.5 469.5,-56.5 307.5,-56.5"/>
<text text-anchor="start" x="315.5" y="-85.5" font-family="Helvetica,sans-Serif" font-size="10.00">/home/runner/work/cocos2d.h</text>
<text text-anchor="start" x="315.5" y="-74.5" font-family="Helvetica,sans-Serif" font-size="10.00">/cocos2d.h/cocos2dx/platform</text>
<text text-anchor="middle" x="388.5" y="-63.5" font-family="Helvetica,sans-Serif" font-size="10.00">/winrt/DirectXBase.h</text>
</a>
</g>
</g>
<!-- Node2 -->
<g id="node2" class="node">
<title>Node2</title>
<g id="a_node2"><a xlink:title=" ">
<polygon fill="none" stroke="#bfbfbf" points="0,-0.5 0,-19.5 71,-19.5 71,-0.5 0,-0.5"/>
<text text-anchor="middle" x="35.5" y="-7.5" font-family="Helvetica,sans-Serif" font-size="10.00">wrl/client.h</text>
</a>
</g>
</g>
<!-- Node1&#45;&gt;Node2 -->
<g id="edge1" class="edge">
<title>Node1&#45;&gt;Node2</title>
<path fill="none" stroke="midnightblue" d="M307.41,-61.82C247.46,-51.21 163.58,-36.13 81.08,-20.28"/>
<polygon fill="midnightblue" stroke="midnightblue" points="81.51,-16.79 71.03,-18.34 80.19,-23.67 81.51,-16.79"/>
</g>
<!-- Node3 -->
<g id="node3" class="node">
<title>Node3</title>
<g id="a_node3"><a xlink:title=" ">
<polygon fill="none" stroke="#bfbfbf" points="89,-0.5 89,-19.5 156,-19.5 156,-0.5 89,-0.5"/>
<text text-anchor="middle" x="122.5" y="-7.5" font-family="Helvetica,sans-Serif" font-size="10.00">d3d11_1.h</text>
</a>
</g>
</g>
<!-- Node1&#45;&gt;Node3 -->
<g id="edge2" class="edge">
<title>Node1&#45;&gt;Node3</title>
<path fill="none" stroke="midnightblue" d="M308.69,-56.5C261.91,-45.07 204.62,-31.07 166.05,-21.64"/>
<polygon fill="midnightblue" stroke="midnightblue" points="166.72,-18.2 156.17,-19.23 165.06,-25 166.72,-18.2"/>
</g>
<!-- Node4 -->
<g id="node4" class="node">
<title>Node4</title>
<g id="a_node4"><a xlink:title=" ">
<polygon fill="none" stroke="#bfbfbf" points="174,-0.5 174,-19.5 235,-19.5 235,-0.5 174,-0.5"/>
<text text-anchor="middle" x="204.5" y="-7.5" font-family="Helvetica,sans-Serif" font-size="10.00">d2d1_1.h</text>
</a>
</g>
</g>
<!-- Node1&#45;&gt;Node4 -->
<g id="edge3" class="edge">
<title>Node1&#45;&gt;Node4</title>
<path fill="none" stroke="midnightblue" d="M333.29,-56.5C302.51,-45.62 265.14,-32.42 238.6,-23.05"/>
<polygon fill="midnightblue" stroke="midnightblue" points="239.59,-19.68 228.99,-19.65 237.26,-26.28 239.59,-19.68"/>
</g>
<!-- Node5 -->
<g id="node5" class="node">
<title>Node5</title>
<g id="a_node5"><a xlink:title=" ">
<polygon fill="none" stroke="#bfbfbf" points="253,-0.5 253,-19.5 336,-19.5 336,-0.5 253,-0.5"/>
<text text-anchor="middle" x="294.5" y="-7.5" font-family="Helvetica,sans-Serif" font-size="10.00">d2d1effects.h</text>
</a>
</g>
</g>
<!-- Node1&#45;&gt;Node5 -->
<g id="edge4" class="edge">
<title>Node1&#45;&gt;Node5</title>
<path fill="none" stroke="midnightblue" d="M360.3,-56.5C345.88,-46.53 328.65,-34.61 315.44,-25.48"/>
<polygon fill="midnightblue" stroke="midnightblue" points="317.23,-22.46 307.01,-19.65 313.25,-28.22 317.23,-22.46"/>
</g>
<!-- Node6 -->
<g id="node6" class="node">
<title>Node6</title>
<g id="a_node6"><a xlink:title=" ">
<polygon fill="none" stroke="#bfbfbf" points="354.5,-0.5 354.5,-19.5 422.5,-19.5 422.5,-0.5 354.5,-0.5"/>
<text text-anchor="middle" x="388.5" y="-7.5" font-family="Helvetica,sans-Serif" font-size="10.00">dwrite_1.h</text>
</a>
</g>
</g>
<!-- Node1&#45;&gt;Node6 -->
<g id="edge5" class="edge">
<title>Node1&#45;&gt;Node6</title>
<path fill="none" stroke="midnightblue" d="M388.5,-56.5C388.5,-48.07 388.5,-38.24 388.5,-29.87"/>
<polygon fill="midnightblue" stroke="midnightblue" points="392,-29.65 388.5,-19.65 385,-29.65 392,-29.65"/>
</g>
<!-- Node7 -->
<g id="node7" class="node">
<title>Node7</title>
<g id="a_node7"><a xlink:title=" ">
<polygon fill="none" stroke="#bfbfbf" points="441,-0.5 441,-19.5 512,-19.5 512,-0.5 441,-0.5"/>
<text text-anchor="middle" x="476.5" y="-7.5" font-family="Helvetica,sans-Serif" font-size="10.00">wincodec.h</text>
</a>
</g>
</g>
<!-- Node1&#45;&gt;Node7 -->
<g id="edge6" class="edge">
<title>Node1&#45;&gt;Node7</title>
<path fill="none" stroke="midnightblue" d="M414.9,-56.5C428.27,-46.63 444.22,-34.84 456.54,-25.74"/>
<polygon fill="midnightblue" stroke="midnightblue" points="458.82,-28.41 464.79,-19.65 454.66,-22.78 458.82,-28.41"/>
</g>
<!-- Node8 -->
<g id="node8" class="node">
<title>Node8</title>
<g id="a_node8"><a xlink:title=" ">
<polygon fill="none" stroke="#bfbfbf" points="530.5,-0.5 530.5,-19.5 580.5,-19.5 580.5,-0.5 530.5,-0.5"/>
<text text-anchor="middle" x="555.5" y="-7.5" font-family="Helvetica,sans-Serif" font-size="10.00">agile.h</text>
</a>
</g>
</g>
<!-- Node1&#45;&gt;Node8 -->
<g id="edge7" class="edge">
<title>Node1&#45;&gt;Node8</title>
<path fill="none" stroke="midnightblue" d="M438.61,-56.5C466.3,-45.72 499.87,-32.65 523.91,-23.29"/>
<polygon fill="midnightblue" stroke="midnightblue" points="525.22,-26.54 533.27,-19.65 522.68,-20.02 525.22,-26.54"/>
</g>
<!-- Node9 -->
<g id="node9" class="node">
<title>Node9</title>
<g id="a_node9"><a xlink:title=" ">
<polygon fill="none" stroke="#bfbfbf" points="598.5,-0.5 598.5,-19.5 684.5,-19.5 684.5,-0.5 598.5,-0.5"/>
<text text-anchor="middle" x="641.5" y="-7.5" font-family="Helvetica,sans-Serif" font-size="10.00">DirectXMath.h</text>
</a>
</g>
</g>
<!-- Node1&#45;&gt;Node9 -->
<g id="edge8" class="edge">
<title>Node1&#45;&gt;Node9</title>
<path fill="none" stroke="midnightblue" d="M464.41,-56.5C508.18,-45.25 561.63,-31.52 598.28,-22.1"/>
<polygon fill="midnightblue" stroke="midnightblue" points="599.34,-25.45 608.15,-19.57 597.6,-18.67 599.34,-25.45"/>
</g>
<!-- Node10 -->
<g id="node10" class="node">
<title>Node10</title>
<g id="a_node10"><a xlink:href="../../d8/d31/_direct_x_helper_8h.html" target="_top" xlink:title=" ">
<polygon fill="none" stroke="black" points="703,-0.5 703,-19.5 796,-19.5 796,-0.5 703,-0.5"/>
<text text-anchor="middle" x="749.5" y="-7.5" font-family="Helvetica,sans-Serif" font-size="10.00">DirectXHelper.h</text>
</a>
</g>
</g>
<!-- Node1&#45;&gt;Node10 -->
<g id="edge9" class="edge">
<title>Node1&#45;&gt;Node10</title>
<path fill="none" stroke="midnightblue" d="M469.52,-61.41C537.51,-49.17 632.89,-32 692.92,-21.19"/>
<polygon fill="midnightblue" stroke="midnightblue" points="693.75,-24.59 702.97,-19.38 692.51,-17.71 693.75,-24.59"/>
</g>
</g>
</svg>
