<?xml version="1.0" encoding="UTF-8" standalone="no"?>
<!DOCTYPE svg PUBLIC "-//W3C//DTD SVG 1.1//EN"
 "http://www.w3.org/Graphics/SVG/1.1/DTD/svg11.dtd">
<!-- Generated by graphviz version 2.43.0 (0)
 -->
<!-- Title: /home/runner/work/cocos2d.h/cocos2d.h/cocos2dx/platform/winrt/DirectXBase.h Pages: 1 -->
<svg width="804pt" height="104pt"
 viewBox="0.00 0.00 804.00 104.00" xmlns="http://www.w3.org/2000/svg" xmlns:xlink="http://www.w3.org/1999/xlink">
<g id="graph0" class="graph" transform="scale(1 1) rotate(0) translate(4 100)">
<title>/home/runner/work/cocos2d.h/cocos2d.h/cocos2dx/platform/winrt/DirectXBase.h</title>
<!-- Node1 -->
<g id="node1" class="node">
<title>Node1</title>
<g id="a_node1"><a xlink:title=" ">
<polygon fill="#999999" stroke="#666666" points="469.5,-96 307.5,-96 307.5,-55 469.5,-55 469.5,-96"/>
<text text-anchor="start" x="315.5" y="-84" font-family="Helvetica,sans-Serif" font-size="10.00">/home/runner/work/cocos2d.h</text>
<text text-anchor="start" x="315.5" y="-73" font-family="Helvetica,sans-Serif" font-size="10.00">/cocos2d.h/cocos2dx/platform</text>
<text text-anchor="middle" x="388.5" y="-62" font-family="Helvetica,sans-Serif" font-size="10.00">/winrt/DirectXBase.h</text>
</a>
</g>
</g>
<!-- Node2 -->
<g id="node2" class="node">
<title>Node2</title>
<g id="a_node2"><a xlink:title=" ">
<polygon fill="#e0e0e0" stroke="#999999" points="71,-19 0,-19 0,0 71,0 71,-19"/>
<text text-anchor="middle" x="35.5" y="-7" font-family="Helvetica,sans-Serif" font-size="10.00">wrl/client.h</text>
</a>
</g>
</g>
<!-- Node1&#45;&gt;Node2 -->
<g id="edge1" class="edge">
<title>Node1&#45;&gt;Node2</title>
<path fill="none" stroke="#63b8ff" d="M307.45,-60.24C247.52,-49.63 163.65,-34.63 81.09,-19.28"/>
<polygon fill="#63b8ff" stroke="#63b8ff" points="81.51,-15.8 71.03,-17.41 80.22,-22.68 81.51,-15.8"/>
</g>
<!-- Node3 -->
<g id="node3" class="node">
<title>Node3</title>
<g id="a_node3"><a xlink:title=" ">
<polygon fill="#e0e0e0" stroke="#999999" points="156,-19 89,-19 89,0 156,0 156,-19"/>
<text text-anchor="middle" x="122.5" y="-7" font-family="Helvetica,sans-Serif" font-size="10.00">d3d11_1.h</text>
</a>
</g>
</g>
<!-- Node1&#45;&gt;Node3 -->
<g id="edge2" class="edge">
<title>Node1&#45;&gt;Node3</title>
<path fill="none" stroke="#63b8ff" d="M307.25,-54.95C260.68,-43.75 204.09,-30.13 165.91,-20.95"/>
<polygon fill="#63b8ff" stroke="#63b8ff" points="166.68,-17.53 156.14,-18.59 165.04,-24.34 166.68,-17.53"/>
</g>
<!-- Node4 -->
<g id="node4" class="node">
<title>Node4</title>
<g id="a_node4"><a xlink:title=" ">
<polygon fill="#e0e0e0" stroke="#999999" points="235,-19 174,-19 174,0 235,0 235,-19"/>
<text text-anchor="middle" x="204.5" y="-7" font-family="Helvetica,sans-Serif" font-size="10.00">d2d1_1.h</text>
</a>
</g>
</g>
<!-- Node1&#45;&gt;Node4 -->
<g id="edge3" class="edge">
<title>Node1&#45;&gt;Node4</title>
<path fill="none" stroke="#63b8ff" d="M332.29,-54.95C301.74,-44.32 264.95,-31.53 238.71,-22.4"/>
<polygon fill="#63b8ff" stroke="#63b8ff" points="239.8,-19.07 229.2,-19.09 237.5,-25.68 239.8,-19.07"/>
</g>
<!-- Node5 -->
<g id="node5" class="node">
<title>Node5</title>
<g id="a_node5"><a xlink:title=" ">
<polygon fill="#e0e0e0" stroke="#999999" points="336,-19 253,-19 253,0 336,0 336,-19"/>
<text text-anchor="middle" x="294.5" y="-7" font-family="Helvetica,sans-Serif" font-size="10.00">d2d1effects.h</text>
</a>
</g>
</g>
<!-- Node1&#45;&gt;Node5 -->
<g id="edge4" class="edge">
<title>Node1&#45;&gt;Node5</title>
<path fill="none" stroke="#63b8ff" d="M359.79,-54.95C345.57,-45.27 328.72,-33.8 315.69,-24.93"/>
<polygon fill="#63b8ff" stroke="#63b8ff" points="317.6,-22 307.37,-19.26 313.66,-27.78 317.6,-22"/>
</g>
<!-- Node6 -->
<g id="node6" class="node">
<title>Node6</title>
<g id="a_node6"><a xlink:title=" ">
<polygon fill="#e0e0e0" stroke="#999999" points="422.5,-19 354.5,-19 354.5,0 422.5,0 422.5,-19"/>
<text text-anchor="middle" x="388.5" y="-7" font-family="Helvetica,sans-Serif" font-size="10.00">dwrite_1.h</text>
</a>
</g>
</g>
<!-- Node1&#45;&gt;Node6 -->
<g id="edge5" class="edge">
<title>Node1&#45;&gt;Node6</title>
<path fill="none" stroke="#63b8ff" d="M388.5,-54.95C388.5,-46.85 388.5,-37.5 388.5,-29.47"/>
<polygon fill="#63b8ff" stroke="#63b8ff" points="392,-29.26 388.5,-19.26 385,-29.26 392,-29.26"/>
</g>
<!-- Node7 -->
<g id="node7" class="node">
<title>Node7</title>
<g id="a_node7"><a xlink:title=" ">
<polygon fill="#e0e0e0" stroke="#999999" points="512,-19 441,-19 441,0 512,0 512,-19"/>
<text text-anchor="middle" x="476.5" y="-7" font-family="Helvetica,sans-Serif" font-size="10.00">wincodec.h</text>
</a>
</g>
</g>
<!-- Node1&#45;&gt;Node7 -->
<g id="edge6" class="edge">
<title>Node1&#45;&gt;Node7</title>
<path fill="none" stroke="#63b8ff" d="M415.38,-54.95C428.56,-45.37 444.16,-34.02 456.31,-25.19"/>
<polygon fill="#63b8ff" stroke="#63b8ff" points="458.43,-27.97 464.45,-19.26 454.31,-22.31 458.43,-27.97"/>
</g>
<!-- Node8 -->
<g id="node8" class="node">
<title>Node8</title>
<g id="a_node8"><a xlink:title=" ">
<polygon fill="#e0e0e0" stroke="#999999" points="580.5,-19 530.5,-19 530.5,0 580.5,0 580.5,-19"/>
<text text-anchor="middle" x="555.5" y="-7" font-family="Helvetica,sans-Serif" font-size="10.00">agile.h</text>
</a>
</g>
</g>
<!-- Node1&#45;&gt;Node8 -->
<g id="edge7" class="edge">
<title>Node1&#45;&gt;Node8</title>
<path fill="none" stroke="#63b8ff" d="M439.51,-54.95C466.87,-44.46 499.75,-31.87 523.5,-22.76"/>
<polygon fill="#63b8ff" stroke="#63b8ff" points="525,-25.94 533.08,-19.09 522.49,-19.4 525,-25.94"/>
</g>
<!-- Node9 -->
<g id="node9" class="node">
<title>Node9</title>
<g id="a_node9"><a xlink:title=" ">
<polygon fill="#e0e0e0" stroke="#999999" points="684.5,-19 598.5,-19 598.5,0 684.5,0 684.5,-19"/>
<text text-anchor="middle" x="641.5" y="-7" font-family="Helvetica,sans-Serif" font-size="10.00">DirectXMath.h</text>
</a>
</g>
</g>
<!-- Node1&#45;&gt;Node9 -->
<g id="edge8" class="edge">
<title>Node1&#45;&gt;Node9</title>
<path fill="none" stroke="#63b8ff" d="M465.78,-54.95C509.22,-43.96 561.83,-30.65 598.09,-21.48"/>
<polygon fill="#63b8ff" stroke="#63b8ff" points="599.03,-24.85 607.87,-19.01 597.31,-18.07 599.03,-24.85"/>
</g>
<!-- Node10 -->
<g id="node10" class="node">
<title>Node10</title>
<g id="a_node10"><a xlink:href="../../d8/d31/_direct_x_helper_8h.html" target="_top" xlink:title=" ">
<polygon fill="white" stroke="#666666" points="796,-19 703,-19 703,0 796,0 796,-19"/>
<text text-anchor="middle" x="749.5" y="-7" font-family="Helvetica,sans-Serif" font-size="10.00">DirectXHelper.h</text>
</a>
</g>
</g>
<!-- Node1&#45;&gt;Node10 -->
<g id="edge9" class="edge">
<title>Node1&#45;&gt;Node10</title>
<path fill="none" stroke="#63b8ff" d="M469.52,-60.14C537.51,-48.08 632.89,-31.17 692.92,-20.53"/>
<polygon fill="#63b8ff" stroke="#63b8ff" points="693.74,-23.94 702.97,-18.75 692.52,-17.05 693.74,-23.94"/>
</g>
</g>
</svg>
