<?xml version="1.0" encoding="UTF-8" standalone="no"?>
<!DOCTYPE svg PUBLIC "-//W3C//DTD SVG 1.1//EN"
 "http://www.w3.org/Graphics/SVG/1.1/DTD/svg11.dtd">
<!-- Generated by graphviz version 2.43.0 (0)
 -->
<!-- Title: /home/runner/work/cocos2d.h/cocos2d.h/cocos2dx/shaders/CCShaderCache.h Pages: 1 -->
<svg width="2471pt" height="687pt"
 viewBox="0.00 0.00 2471.00 687.00" xmlns="http://www.w3.org/2000/svg" xmlns:xlink="http://www.w3.org/1999/xlink">
<g id="graph0" class="graph" transform="scale(1 1) rotate(0) translate(4 683)">
<title>/home/runner/work/cocos2d.h/cocos2d.h/cocos2dx/shaders/CCShaderCache.h</title>
<!-- Node1 -->
<g id="node1" class="node">
<title>Node1</title>
<g id="a_node1"><a xlink:title=" ">
<polygon fill="#999999" stroke="#666666" points="808,-679 647,-679 647,-638 808,-638 808,-679"/>
<text text-anchor="start" x="655" y="-667" font-family="Helvetica,sans-Serif" font-size="10.00">/home/runner/work/cocos2d.h</text>
<text text-anchor="start" x="655" y="-656" font-family="Helvetica,sans-Serif" font-size="10.00">/cocos2d.h/cocos2dx/shaders</text>
<text text-anchor="middle" x="727.5" y="-645" font-family="Helvetica,sans-Serif" font-size="10.00">/CCShaderCache.h</text>
</a>
</g>
</g>
<!-- Node2 -->
<g id="node2" class="node">
<title>Node2</title>
<g id="a_node2"><a xlink:href="../../dc/dfd/cocos2d_8h.html" target="_top" xlink:title=" ">
<polygon fill="white" stroke="#666666" points="808,-602 647,-602 647,-561 808,-561 808,-602"/>
<text text-anchor="start" x="655" y="-590" font-family="Helvetica,sans-Serif" font-size="10.00">/home/runner/work/cocos2d.h</text>
<text text-anchor="start" x="655" y="-579" font-family="Helvetica,sans-Serif" font-size="10.00">/cocos2d.h/cocos2dx/include</text>
<text text-anchor="middle" x="727.5" y="-568" font-family="Helvetica,sans-Serif" font-size="10.00">/cocos2d.h</text>
</a>
</g>
</g>
<!-- Node1&#45;&gt;Node2 -->
<g id="edge1" class="edge">
<title>Node1&#45;&gt;Node2</title>
<path fill="none" stroke="#63b8ff" d="M727.5,-627.69C727.5,-619.08 727.5,-609.9 727.5,-602.07"/>
<polygon fill="#63b8ff" stroke="#63b8ff" points="724,-627.79 727.5,-637.79 731,-627.79 724,-627.79"/>
</g>
<!-- Node3 -->
<g id="node3" class="node">
<title>Node3</title>
<g id="a_node3"><a xlink:href="../../d4/d5d/_d_s___dictionary_8h.html" target="_top" xlink:title=" ">
<polygon fill="white" stroke="#666666" points="164,-525 3,-525 3,-484 164,-484 164,-525"/>
<text text-anchor="start" x="11" y="-513" font-family="Helvetica,sans-Serif" font-size="10.00">/home/runner/work/cocos2d.h</text>
<text text-anchor="start" x="11" y="-502" font-family="Helvetica,sans-Serif" font-size="10.00">/cocos2d.h/cocos2dx/robtop</text>
<text text-anchor="middle" x="83.5" y="-491" font-family="Helvetica,sans-Serif" font-size="10.00">/xml/DS_Dictionary.h</text>
</a>
</g>
</g>
<!-- Node2&#45;&gt;Node3 -->
<g id="edge2" class="edge">
<title>Node2&#45;&gt;Node3</title>
<path fill="none" stroke="#63b8ff" d="M636.45,-575.09C524.52,-567.43 329.24,-551.34 163.75,-525.04"/>
<polygon fill="#63b8ff" stroke="#63b8ff" points="636.47,-578.6 646.69,-575.78 636.95,-571.62 636.47,-578.6"/>
</g>
<!-- Node4 -->
<g id="node4" class="node">
<title>Node4</title>
<g id="a_node4"><a xlink:href="../../d3/db7/_assets_manager_8h.html" target="_top" xlink:title=" ">
<polygon fill="white" stroke="#666666" points="385,-525 182,-525 182,-484 385,-484 385,-525"/>
<text text-anchor="start" x="190" y="-513" font-family="Helvetica,sans-Serif" font-size="10.00">/home/runner/work/cocos2d.h</text>
<text text-anchor="start" x="190" y="-502" font-family="Helvetica,sans-Serif" font-size="10.00">/cocos2d.h/extensions/AssetsManager</text>
<text text-anchor="middle" x="283.5" y="-491" font-family="Helvetica,sans-Serif" font-size="10.00">/AssetsManager.h</text>
</a>
</g>
</g>
<!-- Node2&#45;&gt;Node4 -->
<g id="edge4" class="edge">
<title>Node2&#45;&gt;Node4</title>
<path fill="none" stroke="#63b8ff" d="M636.72,-565.17C563.61,-552.82 460.88,-535.46 385.04,-522.65"/>
<polygon fill="#63b8ff" stroke="#63b8ff" points="636.39,-568.66 646.84,-566.87 637.56,-561.76 636.39,-568.66"/>
</g>
<!-- Node5 -->
<g id="node5" class="node">
<title>Node5</title>
<g id="a_node5"><a xlink:href="../../de/d8b/_c_c_control_8h.html" target="_top" xlink:title=" ">
<polygon fill="white" stroke="#666666" points="1610,-525 1433,-525 1433,-484 1610,-484 1610,-525"/>
<text text-anchor="start" x="1441" y="-513" font-family="Helvetica,sans-Serif" font-size="10.00">/home/runner/work/cocos2d.h</text>
<text text-anchor="start" x="1441" y="-502" font-family="Helvetica,sans-Serif" font-size="10.00">/cocos2d.h/extensions/GUI</text>
<text text-anchor="middle" x="1521.5" y="-491" font-family="Helvetica,sans-Serif" font-size="10.00">/CCControlExtension/CCControl.h</text>
</a>
</g>
</g>
<!-- Node2&#45;&gt;Node5 -->
<g id="edge5" class="edge">
<title>Node2&#45;&gt;Node5</title>
<path fill="none" stroke="#63b8ff" d="M818.34,-571.92C971.91,-557.41 1280.93,-528.22 1432.94,-513.87"/>
<polygon fill="#63b8ff" stroke="#63b8ff" points="817.63,-568.47 808,-572.9 818.29,-575.44 817.63,-568.47"/>
</g>
<!-- Node8 -->
<g id="node8" class="node">
<title>Node8</title>
<g id="a_node8"><a xlink:href="../../dc/d4a/_c_c_edit_box_8h.html" target="_top" xlink:title=" ">
<polygon fill="white" stroke="#666666" points="1218,-195 1057,-195 1057,-154 1218,-154 1218,-195"/>
<text text-anchor="start" x="1065" y="-183" font-family="Helvetica,sans-Serif" font-size="10.00">/home/runner/work/cocos2d.h</text>
<text text-anchor="start" x="1065" y="-172" font-family="Helvetica,sans-Serif" font-size="10.00">/cocos2d.h/extensions/GUI</text>
<text text-anchor="middle" x="1137.5" y="-161" font-family="Helvetica,sans-Serif" font-size="10.00">/CCEditBox/CCEditBox.h</text>
</a>
</g>
</g>
<!-- Node2&#45;&gt;Node8 -->
<g id="edge38" class="edge">
<title>Node2&#45;&gt;Node8</title>
<path fill="none" stroke="#63b8ff" d="M725.07,-550.89C722.23,-496.15 724.17,-378.34 784.5,-308 853.33,-227.76 975.8,-196.02 1056.84,-183.53"/>
<polygon fill="#63b8ff" stroke="#63b8ff" points="721.58,-551.19 725.68,-560.96 728.56,-550.77 721.58,-551.19"/>
</g>
<!-- Node9 -->
<g id="node9" class="node">
<title>Node9</title>
<g id="a_node9"><a xlink:href="../../db/da9/_c_c_edit_box_impl_8h.html" target="_top" xlink:title=" ">
<polygon fill="white" stroke="#666666" points="679,-118 518,-118 518,-77 679,-77 679,-118"/>
<text text-anchor="start" x="526" y="-106" font-family="Helvetica,sans-Serif" font-size="10.00">/home/runner/work/cocos2d.h</text>
<text text-anchor="start" x="526" y="-95" font-family="Helvetica,sans-Serif" font-size="10.00">/cocos2d.h/extensions/GUI</text>
<text text-anchor="middle" x="598.5" y="-84" font-family="Helvetica,sans-Serif" font-size="10.00">/CCEditBox/CCEditBoxImpl.h</text>
</a>
</g>
</g>
<!-- Node2&#45;&gt;Node9 -->
<g id="edge39" class="edge">
<title>Node2&#45;&gt;Node9</title>
<path fill="none" stroke="#63b8ff" d="M693.47,-554.2C660.83,-525.74 616.5,-477.12 616.5,-423 616.5,-423 616.5,-423 616.5,-250.5 616.5,-202.67 607.6,-146.95 602.32,-118.09"/>
<polygon fill="#63b8ff" stroke="#63b8ff" points="691.58,-557.19 701.48,-560.99 696.11,-551.85 691.58,-557.19"/>
</g>
<!-- Node10 -->
<g id="node10" class="node">
<title>Node10</title>
<g id="a_node10"><a xlink:href="../../d4/dd3/_c_c_edit_box_impl_android_8h.html" target="_top" xlink:title=" ">
<polygon fill="white" stroke="#666666" points="193,-41 0,-41 0,0 193,0 193,-41"/>
<text text-anchor="start" x="8" y="-29" font-family="Helvetica,sans-Serif" font-size="10.00">/home/runner/work/cocos2d.h</text>
<text text-anchor="start" x="8" y="-18" font-family="Helvetica,sans-Serif" font-size="10.00">/cocos2d.h/extensions/GUI</text>
<text text-anchor="middle" x="96.5" y="-7" font-family="Helvetica,sans-Serif" font-size="10.00">/CCEditBox/CCEditBoxImplAndroid.h</text>
</a>
</g>
</g>
<!-- Node2&#45;&gt;Node10 -->
<g id="edge40" class="edge">
<title>Node2&#45;&gt;Node10</title>
<path fill="none" stroke="#63b8ff" d="M636.5,-569.82C571.56,-560.64 491.19,-545.61 464.5,-525 424.38,-494.02 413.5,-473.68 413.5,-423 413.5,-423 413.5,-423 413.5,-173.5 413.5,-119.79 263.67,-68.09 170.02,-41.02"/>
<polygon fill="#63b8ff" stroke="#63b8ff" points="636.39,-573.34 646.78,-571.24 637.35,-566.4 636.39,-573.34"/>
</g>
<!-- Node11 -->
<g id="node11" class="node">
<title>Node11</title>
<g id="a_node11"><a xlink:href="../../dd/dfd/_c_c_edit_box_impl_i_o_s_8h.html" target="_top" xlink:title=" ">
<polygon fill="white" stroke="#666666" points="383.5,-41 211.5,-41 211.5,0 383.5,0 383.5,-41"/>
<text text-anchor="start" x="219.5" y="-29" font-family="Helvetica,sans-Serif" font-size="10.00">/home/runner/work/cocos2d.h</text>
<text text-anchor="start" x="219.5" y="-18" font-family="Helvetica,sans-Serif" font-size="10.00">/cocos2d.h/extensions/GUI</text>
<text text-anchor="middle" x="297.5" y="-7" font-family="Helvetica,sans-Serif" font-size="10.00">/CCEditBox/CCEditBoxImplIOS.h</text>
</a>
</g>
</g>
<!-- Node2&#45;&gt;Node11 -->
<g id="edge41" class="edge">
<title>Node2&#45;&gt;Node11</title>
<path fill="none" stroke="#63b8ff" d="M636.99,-573.46C595.11,-566.4 546.73,-552.45 510.5,-525 468.76,-493.37 451.5,-475.37 451.5,-423 451.5,-423 451.5,-423 451.5,-173.5 451.5,-129.3 456.16,-110.64 427.5,-77 413.74,-60.84 394.43,-49.26 374.9,-41.02"/>
<polygon fill="#63b8ff" stroke="#63b8ff" points="636.51,-576.93 646.93,-575.03 637.6,-570.01 636.51,-576.93"/>
</g>
<!-- Node12 -->
<g id="node12" class="node">
<title>Node12</title>
<g id="a_node12"><a xlink:href="../../d7/d4d/_c_c_edit_box_impl_mac_8h.html" target="_top" xlink:title=" ">
<polygon fill="white" stroke="#666666" points="577.5,-41 401.5,-41 401.5,0 577.5,0 577.5,-41"/>
<text text-anchor="start" x="409.5" y="-29" font-family="Helvetica,sans-Serif" font-size="10.00">/home/runner/work/cocos2d.h</text>
<text text-anchor="start" x="409.5" y="-18" font-family="Helvetica,sans-Serif" font-size="10.00">/cocos2d.h/extensions/GUI</text>
<text text-anchor="middle" x="489.5" y="-7" font-family="Helvetica,sans-Serif" font-size="10.00">/CCEditBox/CCEditBoxImplMac.h</text>
</a>
</g>
</g>
<!-- Node2&#45;&gt;Node12 -->
<g id="edge42" class="edge">
<title>Node2&#45;&gt;Node12</title>
<path fill="none" stroke="#63b8ff" d="M637.1,-559.51C569.79,-537.9 489.5,-496.67 489.5,-423 489.5,-423 489.5,-423 489.5,-173.5 489.5,-126 489.5,-70.15 489.5,-41.18"/>
<polygon fill="#63b8ff" stroke="#63b8ff" points="636.34,-562.94 646.92,-562.56 638.41,-556.25 636.34,-562.94"/>
</g>
<!-- Node13 -->
<g id="node13" class="node">
<title>Node13</title>
<g id="a_node13"><a xlink:href="../../de/dac/_c_c_edit_box_impl_tizen_8h.html" target="_top" xlink:title=" ">
<polygon fill="white" stroke="#666666" points="972.5,-41 790.5,-41 790.5,0 972.5,0 972.5,-41"/>
<text text-anchor="start" x="798.5" y="-29" font-family="Helvetica,sans-Serif" font-size="10.00">/home/runner/work/cocos2d.h</text>
<text text-anchor="start" x="798.5" y="-18" font-family="Helvetica,sans-Serif" font-size="10.00">/cocos2d.h/extensions/GUI</text>
<text text-anchor="middle" x="881.5" y="-7" font-family="Helvetica,sans-Serif" font-size="10.00">/CCEditBox/CCEditBoxImplTizen.h</text>
</a>
</g>
</g>
<!-- Node2&#45;&gt;Node13 -->
<g id="edge43" class="edge">
<title>Node2&#45;&gt;Node13</title>
<path fill="none" stroke="#63b8ff" d="M716.17,-551.58C704.97,-520.37 689.5,-468.94 689.5,-423 689.5,-423 689.5,-423 689.5,-333 689.5,-217.7 658.15,-165.96 731.5,-77 746.51,-58.79 768.1,-46.55 790.23,-38.33"/>
<polygon fill="#63b8ff" stroke="#63b8ff" points="712.88,-552.8 719.63,-560.98 719.45,-550.38 712.88,-552.8"/>
</g>
<!-- Node14 -->
<g id="node14" class="node">
<title>Node14</title>
<g id="a_node14"><a xlink:href="../../dd/d41/_c_c_edit_box_impl_win_8h.html" target="_top" xlink:title=" ">
<polygon fill="white" stroke="#666666" points="1164.5,-41 990.5,-41 990.5,0 1164.5,0 1164.5,-41"/>
<text text-anchor="start" x="998.5" y="-29" font-family="Helvetica,sans-Serif" font-size="10.00">/home/runner/work/cocos2d.h</text>
<text text-anchor="start" x="998.5" y="-18" font-family="Helvetica,sans-Serif" font-size="10.00">/cocos2d.h/extensions/GUI</text>
<text text-anchor="middle" x="1077.5" y="-7" font-family="Helvetica,sans-Serif" font-size="10.00">/CCEditBox/CCEditBoxImplWin.h</text>
</a>
</g>
</g>
<!-- Node2&#45;&gt;Node14 -->
<g id="edge44" class="edge">
<title>Node2&#45;&gt;Node14</title>
<path fill="none" stroke="#63b8ff" d="M728.16,-550.39C730.49,-497.98 740.69,-387.93 784.5,-308 851.53,-185.72 987.67,-82.74 1047.81,-41.19"/>
<polygon fill="#63b8ff" stroke="#63b8ff" points="724.65,-550.54 727.77,-560.67 731.65,-550.81 724.65,-550.54"/>
</g>
<!-- Node25 -->
<g id="node25" class="node">
<title>Node25</title>
<g id="a_node25"><a xlink:href="../../db/d24/_c_c_scale9_sprite_8h.html" target="_top" xlink:title=" ">
<polygon fill="white" stroke="#666666" points="1980,-525 1777,-525 1777,-484 1980,-484 1980,-525"/>
<text text-anchor="start" x="1785" y="-513" font-family="Helvetica,sans-Serif" font-size="10.00">/home/runner/work/cocos2d.h</text>
<text text-anchor="start" x="1785" y="-502" font-family="Helvetica,sans-Serif" font-size="10.00">/cocos2d.h/extensions/GUI</text>
<text text-anchor="middle" x="1878.5" y="-491" font-family="Helvetica,sans-Serif" font-size="10.00">/CCControlExtension/CCScale9Sprite.h</text>
</a>
</g>
</g>
<!-- Node2&#45;&gt;Node25 -->
<g id="edge35" class="edge">
<title>Node2&#45;&gt;Node25</title>
<path fill="none" stroke="#63b8ff" d="M818.66,-575.2C979.97,-565.75 1326.3,-545.06 1618.5,-525 1670.77,-521.41 1728.93,-517.08 1776.96,-513.41"/>
<polygon fill="#63b8ff" stroke="#63b8ff" points="818.08,-571.73 808.3,-575.81 818.49,-578.72 818.08,-571.73"/>
</g>
<!-- Node26 -->
<g id="node26" class="node">
<title>Node26</title>
<g id="a_node26"><a xlink:href="../../de/d56/_c_c_scroll_view_8h.html" target="_top" xlink:title=" ">
<polygon fill="white" stroke="#666666" points="2091,-272 1930,-272 1930,-231 2091,-231 2091,-272"/>
<text text-anchor="start" x="1938" y="-260" font-family="Helvetica,sans-Serif" font-size="10.00">/home/runner/work/cocos2d.h</text>
<text text-anchor="start" x="1938" y="-249" font-family="Helvetica,sans-Serif" font-size="10.00">/cocos2d.h/extensions/GUI</text>
<text text-anchor="middle" x="2010.5" y="-238" font-family="Helvetica,sans-Serif" font-size="10.00">/CCScrollView/CCScrollView.h</text>
</a>
</g>
</g>
<!-- Node2&#45;&gt;Node26 -->
<g id="edge45" class="edge">
<title>Node2&#45;&gt;Node26</title>
<path fill="none" stroke="#63b8ff" d="M818.33,-581.18C1090.56,-582.56 1887.27,-581.68 1988.5,-525 2006.52,-514.91 2034.46,-467.74 2040.5,-448 2059.64,-385.45 2033.68,-307.73 2019.15,-272.06"/>
<polygon fill="#63b8ff" stroke="#63b8ff" points="818.11,-577.68 808.09,-581.12 818.07,-584.68 818.11,-577.68"/>
</g>
<!-- Node28 -->
<g id="node28" class="node">
<title>Node28</title>
<g id="a_node28"><a xlink:href="../../d8/d12/_http_client_8h.html" target="_top" xlink:title=" ">
<polygon fill="white" stroke="#666666" points="2314,-354.5 2147,-354.5 2147,-313.5 2314,-313.5 2314,-354.5"/>
<text text-anchor="start" x="2155" y="-342.5" font-family="Helvetica,sans-Serif" font-size="10.00">/home/runner/work/cocos2d.h</text>
<text text-anchor="start" x="2155" y="-331.5" font-family="Helvetica,sans-Serif" font-size="10.00">/cocos2d.h/extensions/network</text>
<text text-anchor="middle" x="2230.5" y="-320.5" font-family="Helvetica,sans-Serif" font-size="10.00">/HttpClient.h</text>
</a>
</g>
</g>
<!-- Node2&#45;&gt;Node28 -->
<g id="edge49" class="edge">
<title>Node2&#45;&gt;Node28</title>
<path fill="none" stroke="#63b8ff" d="M818.58,-580.37C1133.77,-579.49 2161.72,-572.96 2212.5,-525 2259.47,-480.64 2245.33,-393.62 2235.92,-354.67"/>
<polygon fill="#63b8ff" stroke="#63b8ff" points="818.11,-576.87 808.12,-580.4 818.13,-583.87 818.11,-576.87"/>
</g>
<!-- Node29 -->
<g id="node29" class="node">
<title>Node29</title>
<g id="a_node29"><a xlink:href="../../d3/d95/_http_request_8h.html" target="_top" xlink:title=" ">
<polygon fill="white" stroke="#666666" points="2203,-525 2036,-525 2036,-484 2203,-484 2203,-525"/>
<text text-anchor="start" x="2044" y="-513" font-family="Helvetica,sans-Serif" font-size="10.00">/home/runner/work/cocos2d.h</text>
<text text-anchor="start" x="2044" y="-502" font-family="Helvetica,sans-Serif" font-size="10.00">/cocos2d.h/extensions/network</text>
<text text-anchor="middle" x="2119.5" y="-491" font-family="Helvetica,sans-Serif" font-size="10.00">/HttpRequest.h</text>
</a>
</g>
</g>
<!-- Node2&#45;&gt;Node29 -->
<g id="edge51" class="edge">
<title>Node2&#45;&gt;Node29</title>
<path fill="none" stroke="#63b8ff" d="M818.44,-578.44C1072.94,-572.4 1788.94,-553.31 2022.5,-525 2026.85,-524.47 2031.29,-523.86 2035.77,-523.18"/>
<polygon fill="#63b8ff" stroke="#63b8ff" points="818.04,-574.95 808.13,-578.69 818.21,-581.95 818.04,-574.95"/>
</g>
<!-- Node30 -->
<g id="node30" class="node">
<title>Node30</title>
<g id="a_node30"><a xlink:href="../../d1/d33/_http_response_8h.html" target="_top" xlink:title=" ">
<polygon fill="white" stroke="#666666" points="2425,-442.5 2258,-442.5 2258,-401.5 2425,-401.5 2425,-442.5"/>
<text text-anchor="start" x="2266" y="-430.5" font-family="Helvetica,sans-Serif" font-size="10.00">/home/runner/work/cocos2d.h</text>
<text text-anchor="start" x="2266" y="-419.5" font-family="Helvetica,sans-Serif" font-size="10.00">/cocos2d.h/extensions/network</text>
<text text-anchor="middle" x="2341.5" y="-408.5" font-family="Helvetica,sans-Serif" font-size="10.00">/HttpResponse.h</text>
</a>
</g>
</g>
<!-- Node2&#45;&gt;Node30 -->
<g id="edge57" class="edge">
<title>Node2&#45;&gt;Node30</title>
<path fill="none" stroke="#63b8ff" d="M818.32,-579.07C1135.66,-573.81 2179.36,-554.37 2244.5,-525 2254.58,-520.46 2298.9,-471.35 2324,-442.96"/>
<polygon fill="#63b8ff" stroke="#63b8ff" points="818.18,-575.57 808.24,-579.23 818.3,-582.57 818.18,-575.57"/>
</g>
<!-- Node31 -->
<g id="node31" class="node">
<title>Node31</title>
<g id="a_node31"><a xlink:href="../../da/d1e/_web_socket_8h.html" target="_top" xlink:title=" ">
<polygon fill="white" stroke="#666666" points="2463,-525 2296,-525 2296,-484 2463,-484 2463,-525"/>
<text text-anchor="start" x="2304" y="-513" font-family="Helvetica,sans-Serif" font-size="10.00">/home/runner/work/cocos2d.h</text>
<text text-anchor="start" x="2304" y="-502" font-family="Helvetica,sans-Serif" font-size="10.00">/cocos2d.h/extensions/network</text>
<text text-anchor="middle" x="2379.5" y="-491" font-family="Helvetica,sans-Serif" font-size="10.00">/WebSocket.h</text>
</a>
</g>
</g>
<!-- Node2&#45;&gt;Node31 -->
<g id="edge58" class="edge">
<title>Node2&#45;&gt;Node31</title>
<path fill="none" stroke="#63b8ff" d="M818.72,-579.19C1107,-574.76 1996.28,-558.65 2282.5,-525 2286.85,-524.49 2291.3,-523.89 2295.78,-523.21"/>
<polygon fill="#63b8ff" stroke="#63b8ff" points="818.25,-575.7 808.31,-579.35 818.36,-582.7 818.25,-575.7"/>
</g>
<!-- Node3&#45;&gt;Node2 -->
<g id="edge3" class="edge">
<title>Node3&#45;&gt;Node2</title>
<path fill="none" stroke="#63b8ff" d="M174.3,-523.8C176.72,-524.22 179.13,-524.62 181.5,-525 345.99,-551.15 539.98,-567.22 646.85,-574.94"/>
<polygon fill="#63b8ff" stroke="#63b8ff" points="174.69,-520.32 164.23,-521.97 173.44,-527.2 174.69,-520.32"/>
</g>
<!-- Node6 -->
<g id="node6" class="node">
<title>Node6</title>
<g id="a_node6"><a xlink:href="../../d0/d7e/_c_c_control_button_8h.html" target="_top" xlink:title=" ">
<polygon fill="white" stroke="#666666" points="2015,-442.5 1806,-442.5 1806,-401.5 2015,-401.5 2015,-442.5"/>
<text text-anchor="start" x="1814" y="-430.5" font-family="Helvetica,sans-Serif" font-size="10.00">/home/runner/work/cocos2d.h</text>
<text text-anchor="start" x="1814" y="-419.5" font-family="Helvetica,sans-Serif" font-size="10.00">/cocos2d.h/extensions/GUI</text>
<text text-anchor="middle" x="1910.5" y="-408.5" font-family="Helvetica,sans-Serif" font-size="10.00">/CCControlExtension/CCControlButton.h</text>
</a>
</g>
</g>
<!-- Node5&#45;&gt;Node6 -->
<g id="edge6" class="edge">
<title>Node5&#45;&gt;Node6</title>
<path fill="none" stroke="#63b8ff" d="M1620.34,-483.29C1671.45,-472.81 1734.84,-459.78 1791.5,-448 1799.97,-446.24 1808.79,-444.4 1817.61,-442.56"/>
<polygon fill="#63b8ff" stroke="#63b8ff" points="1619.39,-479.91 1610.29,-485.35 1620.79,-486.77 1619.39,-479.91"/>
</g>
<!-- Node7 -->
<g id="node7" class="node">
<title>Node7</title>
<g id="a_node7"><a xlink:href="../../d6/d86/_c_c_control_extensions_8h.html" target="_top" xlink:title=" ">
<polygon fill="white" stroke="#666666" points="1637.5,-272 1407.5,-272 1407.5,-231 1637.5,-231 1637.5,-272"/>
<text text-anchor="start" x="1415.5" y="-260" font-family="Helvetica,sans-Serif" font-size="10.00">/home/runner/work/cocos2d.h</text>
<text text-anchor="start" x="1415.5" y="-249" font-family="Helvetica,sans-Serif" font-size="10.00">/cocos2d.h/extensions/GUI</text>
<text text-anchor="middle" x="1522.5" y="-238" font-family="Helvetica,sans-Serif" font-size="10.00">/CCControlExtension/CCControlExtensions.h</text>
</a>
</g>
</g>
<!-- Node5&#45;&gt;Node7 -->
<g id="edge20" class="edge">
<title>Node5&#45;&gt;Node7</title>
<path fill="none" stroke="#63b8ff" d="M1422.72,-501.54C1260.39,-497.28 951.75,-484.45 918.5,-448 902.92,-430.93 905.44,-415.06 918.5,-396 943.55,-359.44 976.17,-386.76 1011.5,-360 1034.53,-342.56 1025.46,-322.41 1050.5,-308 1109.32,-274.15 1287.44,-260.89 1407.25,-255.73"/>
<polygon fill="#63b8ff" stroke="#63b8ff" points="1422.64,-505.04 1432.72,-501.8 1422.82,-498.04 1422.64,-505.04"/>
</g>
<!-- Node17 -->
<g id="node17" class="node">
<title>Node17</title>
<g id="a_node17"><a xlink:href="../../d3/db7/_c_c_control_colour_picker_8h.html" target="_top" xlink:title=" ">
<polygon fill="white" stroke="#666666" points="1259.5,-360 1059.5,-360 1059.5,-308 1259.5,-308 1259.5,-360"/>
<text text-anchor="start" x="1067.5" y="-348" font-family="Helvetica,sans-Serif" font-size="10.00">/home/runner/work/cocos2d.h</text>
<text text-anchor="start" x="1067.5" y="-337" font-family="Helvetica,sans-Serif" font-size="10.00">/cocos2d.h/extensions/GUI</text>
<text text-anchor="start" x="1067.5" y="-326" font-family="Helvetica,sans-Serif" font-size="10.00">/CCControlExtension/CCControlColour</text>
<text text-anchor="middle" x="1159.5" y="-315" font-family="Helvetica,sans-Serif" font-size="10.00">Picker.h</text>
</a>
</g>
</g>
<!-- Node5&#45;&gt;Node17 -->
<g id="edge18" class="edge">
<title>Node5&#45;&gt;Node17</title>
<path fill="none" stroke="#63b8ff" d="M1607.94,-479.44C1622.04,-471.68 1634.84,-461.45 1643.5,-448 1656.01,-428.57 1659.04,-413.11 1643.5,-396 1615.35,-365.02 1309.82,-366.69 1268.5,-360 1265.63,-359.53 1262.71,-359.04 1259.78,-358.51"/>
<polygon fill="#63b8ff" stroke="#63b8ff" points="1606.36,-476.32 1599.02,-483.97 1609.52,-482.57 1606.36,-476.32"/>
</g>
<!-- Node18 -->
<g id="node18" class="node">
<title>Node18</title>
<g id="a_node18"><a xlink:href="../../dd/d5a/_c_c_control_hue_picker_8h.html" target="_top" xlink:title=" ">
<polygon fill="white" stroke="#666666" points="1153,-442.5 928,-442.5 928,-401.5 1153,-401.5 1153,-442.5"/>
<text text-anchor="start" x="936" y="-430.5" font-family="Helvetica,sans-Serif" font-size="10.00">/home/runner/work/cocos2d.h</text>
<text text-anchor="start" x="936" y="-419.5" font-family="Helvetica,sans-Serif" font-size="10.00">/cocos2d.h/extensions/GUI</text>
<text text-anchor="middle" x="1040.5" y="-408.5" font-family="Helvetica,sans-Serif" font-size="10.00">/CCControlExtension/CCControlHuePicker.h</text>
</a>
</g>
</g>
<!-- Node5&#45;&gt;Node18 -->
<g id="edge21" class="edge">
<title>Node5&#45;&gt;Node18</title>
<path fill="none" stroke="#63b8ff" d="M1422.78,-489.56C1350.54,-479.04 1250.24,-463.76 1162.5,-448 1153.03,-446.3 1143.17,-444.43 1133.33,-442.51"/>
<polygon fill="#63b8ff" stroke="#63b8ff" points="1422.38,-493.04 1432.78,-491.01 1423.39,-486.11 1422.38,-493.04"/>
</g>
<!-- Node19 -->
<g id="node19" class="node">
<title>Node19</title>
<g id="a_node19"><a xlink:href="../../d2/d29/_c_c_control_potentiometer_8h.html" target="_top" xlink:title=" ">
<polygon fill="white" stroke="#666666" points="1523.5,-354.5 1277.5,-354.5 1277.5,-313.5 1523.5,-313.5 1523.5,-354.5"/>
<text text-anchor="start" x="1285.5" y="-342.5" font-family="Helvetica,sans-Serif" font-size="10.00">/home/runner/work/cocos2d.h</text>
<text text-anchor="start" x="1285.5" y="-331.5" font-family="Helvetica,sans-Serif" font-size="10.00">/cocos2d.h/extensions/GUI</text>
<text text-anchor="middle" x="1400.5" y="-320.5" font-family="Helvetica,sans-Serif" font-size="10.00">/CCControlExtension/CCControlPotentiometer.h</text>
</a>
</g>
</g>
<!-- Node5&#45;&gt;Node19 -->
<g id="edge23" class="edge">
<title>Node5&#45;&gt;Node19</title>
<path fill="none" stroke="#63b8ff" d="M1619.99,-488.46C1642.45,-480.22 1663.72,-467.52 1677.5,-448 1690.82,-429.12 1691.98,-414.01 1677.5,-396 1671.78,-388.89 1579.79,-369.56 1503.37,-354.54"/>
<polygon fill="#63b8ff" stroke="#63b8ff" points="1618.67,-485.22 1610.31,-491.73 1620.91,-491.85 1618.67,-485.22"/>
</g>
<!-- Node20 -->
<g id="node20" class="node">
<title>Node20</title>
<g id="a_node20"><a xlink:href="../../de/d08/_c_c_control_saturation_brightness_picker_8h.html" target="_top" xlink:title=" ">
<polygon fill="white" stroke="#666666" points="1389.5,-448 1171.5,-448 1171.5,-396 1389.5,-396 1389.5,-448"/>
<text text-anchor="start" x="1179.5" y="-436" font-family="Helvetica,sans-Serif" font-size="10.00">/home/runner/work/cocos2d.h</text>
<text text-anchor="start" x="1179.5" y="-425" font-family="Helvetica,sans-Serif" font-size="10.00">/cocos2d.h/extensions/GUI</text>
<text text-anchor="start" x="1179.5" y="-414" font-family="Helvetica,sans-Serif" font-size="10.00">/CCControlExtension/CCControlSaturation</text>
<text text-anchor="middle" x="1280.5" y="-403" font-family="Helvetica,sans-Serif" font-size="10.00">BrightnessPicker.h</text>
</a>
</g>
</g>
<!-- Node5&#45;&gt;Node20 -->
<g id="edge25" class="edge">
<title>Node5&#45;&gt;Node20</title>
<path fill="none" stroke="#63b8ff" d="M1453.16,-480.67C1422.68,-470.49 1386.68,-458.47 1355.46,-448.04"/>
<polygon fill="#63b8ff" stroke="#63b8ff" points="1452.26,-484.06 1462.85,-483.91 1454.48,-477.42 1452.26,-484.06"/>
</g>
<!-- Node21 -->
<g id="node21" class="node">
<title>Node21</title>
<g id="a_node21"><a xlink:href="../../d6/d7e/_c_c_control_slider_8h.html" target="_top" xlink:title=" ">
<polygon fill="white" stroke="#666666" points="1745.5,-354.5 1541.5,-354.5 1541.5,-313.5 1745.5,-313.5 1745.5,-354.5"/>
<text text-anchor="start" x="1549.5" y="-342.5" font-family="Helvetica,sans-Serif" font-size="10.00">/home/runner/work/cocos2d.h</text>
<text text-anchor="start" x="1549.5" y="-331.5" font-family="Helvetica,sans-Serif" font-size="10.00">/cocos2d.h/extensions/GUI</text>
<text text-anchor="middle" x="1643.5" y="-320.5" font-family="Helvetica,sans-Serif" font-size="10.00">/CCControlExtension/CCControlSlider.h</text>
</a>
</g>
</g>
<!-- Node5&#45;&gt;Node21 -->
<g id="edge27" class="edge">
<title>Node5&#45;&gt;Node21</title>
<path fill="none" stroke="#63b8ff" d="M1620.38,-494.66C1649.94,-486.85 1679.29,-472.84 1697.5,-448 1711.17,-429.36 1705.69,-417.61 1697.5,-396 1691.43,-380 1679.04,-365.49 1667.65,-354.65"/>
<polygon fill="#63b8ff" stroke="#63b8ff" points="1619.26,-491.33 1610.36,-497.08 1620.9,-498.13 1619.26,-491.33"/>
</g>
<!-- Node22 -->
<g id="node22" class="node">
<title>Node22</title>
<g id="a_node22"><a xlink:href="../../de/dba/_c_c_control_stepper_8h.html" target="_top" xlink:title=" ">
<polygon fill="white" stroke="#666666" points="1977.5,-354.5 1763.5,-354.5 1763.5,-313.5 1977.5,-313.5 1977.5,-354.5"/>
<text text-anchor="start" x="1771.5" y="-342.5" font-family="Helvetica,sans-Serif" font-size="10.00">/home/runner/work/cocos2d.h</text>
<text text-anchor="start" x="1771.5" y="-331.5" font-family="Helvetica,sans-Serif" font-size="10.00">/cocos2d.h/extensions/GUI</text>
<text text-anchor="middle" x="1870.5" y="-320.5" font-family="Helvetica,sans-Serif" font-size="10.00">/CCControlExtension/CCControlStepper.h</text>
</a>
</g>
</g>
<!-- Node5&#45;&gt;Node22 -->
<g id="edge29" class="edge">
<title>Node5&#45;&gt;Node22</title>
<path fill="none" stroke="#63b8ff" d="M1620.08,-482.74C1651.75,-474.17 1686.42,-462.72 1716.5,-448 1743.6,-434.73 1810.01,-383.22 1846.13,-354.54"/>
<polygon fill="#63b8ff" stroke="#63b8ff" points="1619.12,-479.37 1610.35,-485.31 1620.91,-486.14 1619.12,-479.37"/>
</g>
<!-- Node23 -->
<g id="node23" class="node">
<title>Node23</title>
<g id="a_node23"><a xlink:href="../../de/dc7/_c_c_control_switch_8h.html" target="_top" xlink:title=" ">
<polygon fill="white" stroke="#666666" points="1003,-354.5 794,-354.5 794,-313.5 1003,-313.5 1003,-354.5"/>
<text text-anchor="start" x="802" y="-342.5" font-family="Helvetica,sans-Serif" font-size="10.00">/home/runner/work/cocos2d.h</text>
<text text-anchor="start" x="802" y="-331.5" font-family="Helvetica,sans-Serif" font-size="10.00">/cocos2d.h/extensions/GUI</text>
<text text-anchor="middle" x="898.5" y="-320.5" font-family="Helvetica,sans-Serif" font-size="10.00">/CCControlExtension/CCControlSwitch.h</text>
</a>
</g>
</g>
<!-- Node5&#45;&gt;Node23 -->
<g id="edge31" class="edge">
<title>Node5&#45;&gt;Node23</title>
<path fill="none" stroke="#63b8ff" d="M1422.57,-502.05C1252.87,-498.54 921,-486.74 885.5,-448 862.28,-422.67 876.63,-379.57 888.21,-354.56"/>
<polygon fill="#63b8ff" stroke="#63b8ff" points="1422.69,-505.56 1432.76,-502.26 1422.83,-498.56 1422.69,-505.56"/>
</g>
<!-- Node24 -->
<g id="node24" class="node">
<title>Node24</title>
<g id="a_node24"><a xlink:href="../../d8/dec/_color_picker_delegate_8h.html" target="_top" xlink:title=" ">
<polygon fill="white" stroke="#666666" points="1635,-442.5 1408,-442.5 1408,-401.5 1635,-401.5 1635,-442.5"/>
<text text-anchor="start" x="1416" y="-430.5" font-family="Helvetica,sans-Serif" font-size="10.00">/home/runner/work/cocos2d.h</text>
<text text-anchor="start" x="1416" y="-419.5" font-family="Helvetica,sans-Serif" font-size="10.00">/cocos2d.h/extensions/GUI</text>
<text text-anchor="middle" x="1521.5" y="-408.5" font-family="Helvetica,sans-Serif" font-size="10.00">/CCControlExtension/ColorPickerDelegate.h</text>
</a>
</g>
</g>
<!-- Node5&#45;&gt;Node24 -->
<g id="edge33" class="edge">
<title>Node5&#45;&gt;Node24</title>
<path fill="none" stroke="#63b8ff" d="M1521.5,-473.37C1521.5,-463.1 1521.5,-451.9 1521.5,-442.67"/>
<polygon fill="#63b8ff" stroke="#63b8ff" points="1518,-473.6 1521.5,-483.6 1525,-473.6 1518,-473.6"/>
</g>
<!-- Node6&#45;&gt;Node7 -->
<g id="edge7" class="edge">
<title>Node6&#45;&gt;Node7</title>
<path fill="none" stroke="#63b8ff" d="M1955.54,-395.46C1967.88,-386.04 1979.72,-374.14 1986.5,-360 1996.49,-339.16 2001.84,-325.29 1986.5,-308 1963.66,-282.27 1767.38,-266.27 1637.52,-258.4"/>
<polygon fill="#63b8ff" stroke="#63b8ff" points="1953.49,-392.63 1947.41,-401.3 1957.58,-398.31 1953.49,-392.63"/>
</g>
<!-- Node7&#45;&gt;Node8 -->
<g id="edge8" class="edge">
<title>Node7&#45;&gt;Node8</title>
<path fill="none" stroke="#63b8ff" d="M1412.53,-229.08C1350.55,-217 1274.48,-202.18 1218.07,-191.2"/>
<polygon fill="#63b8ff" stroke="#63b8ff" points="1411.87,-232.51 1422.35,-230.99 1413.2,-225.64 1411.87,-232.51"/>
</g>
<!-- Node16 -->
<g id="node16" class="node">
<title>Node16</title>
<g id="a_node16"><a xlink:href="../../d3/d58/cocos-ext_8h.html" target="_top" xlink:title=" ">
<polygon fill="white" stroke="#666666" points="2173.5,-112.5 1989.5,-112.5 1989.5,-82.5 2173.5,-82.5 2173.5,-112.5"/>
<text text-anchor="start" x="1997.5" y="-100.5" font-family="Helvetica,sans-Serif" font-size="10.00">/home/runner/work/cocos2d.h</text>
<text text-anchor="middle" x="2081.5" y="-89.5" font-family="Helvetica,sans-Serif" font-size="10.00">/cocos2d.h/extensions/cocos&#45;ext.h</text>
</a>
</g>
</g>
<!-- Node7&#45;&gt;Node16 -->
<g id="edge17" class="edge">
<title>Node7&#45;&gt;Node16</title>
<path fill="none" stroke="#63b8ff" d="M1604.41,-228.23C1721.25,-196.46 1932.4,-139.04 2029.76,-112.57"/>
<polygon fill="#63b8ff" stroke="#63b8ff" points="1603.17,-224.94 1594.44,-230.94 1605,-231.69 1603.17,-224.94"/>
</g>
<!-- Node8&#45;&gt;Node9 -->
<g id="edge9" class="edge">
<title>Node8&#45;&gt;Node9</title>
<path fill="none" stroke="#63b8ff" d="M1046.75,-160.87C943.91,-146.56 777.83,-123.45 679.3,-109.74"/>
<polygon fill="#63b8ff" stroke="#63b8ff" points="1046.42,-164.36 1056.81,-162.27 1047.38,-157.43 1046.42,-164.36"/>
</g>
<!-- Node8&#45;&gt;Node16 -->
<g id="edge16" class="edge">
<title>Node8&#45;&gt;Node16</title>
<path fill="none" stroke="#63b8ff" d="M1228.63,-166.26C1408.7,-151.95 1808.32,-120.2 1989.28,-105.83"/>
<polygon fill="#63b8ff" stroke="#63b8ff" points="1228.08,-162.79 1218.39,-167.07 1228.64,-169.77 1228.08,-162.79"/>
</g>
<!-- Node9&#45;&gt;Node10 -->
<g id="edge10" class="edge">
<title>Node9&#45;&gt;Node10</title>
<path fill="none" stroke="#63b8ff" d="M507.87,-84.92C427.49,-74.38 306.99,-57.93 202.5,-41 199.45,-40.51 196.36,-40 193.23,-39.47"/>
<polygon fill="#63b8ff" stroke="#63b8ff" points="507.58,-88.41 517.95,-86.24 508.49,-81.47 507.58,-88.41"/>
</g>
<!-- Node9&#45;&gt;Node11 -->
<g id="edge11" class="edge">
<title>Node9&#45;&gt;Node11</title>
<path fill="none" stroke="#63b8ff" d="M510.41,-74.55C467.83,-63.94 417.16,-51.31 375.93,-41.04"/>
<polygon fill="#63b8ff" stroke="#63b8ff" points="509.65,-77.97 520.2,-76.99 511.34,-71.18 509.65,-77.97"/>
</g>
<!-- Node9&#45;&gt;Node12 -->
<g id="edge12" class="edge">
<title>Node9&#45;&gt;Node12</title>
<path fill="none" stroke="#63b8ff" d="M561.57,-71.09C547.37,-61.32 531.39,-50.32 518.09,-41.17"/>
<polygon fill="#63b8ff" stroke="#63b8ff" points="559.92,-74.21 570.15,-76.99 563.89,-68.44 559.92,-74.21"/>
</g>
<!-- Node9&#45;&gt;Node13 -->
<g id="edge13" class="edge">
<title>Node9&#45;&gt;Node13</title>
<path fill="none" stroke="#63b8ff" d="M681.83,-74.42C721.76,-63.84 769.16,-51.27 807.76,-41.04"/>
<polygon fill="#63b8ff" stroke="#63b8ff" points="680.89,-71.05 672.12,-76.99 682.68,-77.81 680.89,-71.05"/>
</g>
<!-- Node9&#45;&gt;Node14 -->
<g id="edge14" class="edge">
<title>Node9&#45;&gt;Node14</title>
<path fill="none" stroke="#63b8ff" d="M689.25,-83.16C703.39,-81.09 717.84,-78.98 731.5,-77 842.59,-60.86 870.89,-60.18 981.5,-41 984.43,-40.49 987.41,-39.96 990.42,-39.41"/>
<polygon fill="#63b8ff" stroke="#63b8ff" points="688.41,-79.75 679.03,-84.66 689.43,-86.67 688.41,-79.75"/>
</g>
<!-- Node15 -->
<g id="node15" class="node">
<title>Node15</title>
<g id="a_node15"><a xlink:href="../../d4/d91/_c_c_edit_box_impl_wp8_8h.html" target="_top" xlink:title=" ">
<polygon fill="white" stroke="#666666" points="772,-41 595,-41 595,0 772,0 772,-41"/>
<text text-anchor="start" x="603" y="-29" font-family="Helvetica,sans-Serif" font-size="10.00">/home/runner/work/cocos2d.h</text>
<text text-anchor="start" x="603" y="-18" font-family="Helvetica,sans-Serif" font-size="10.00">/cocos2d.h/extensions/GUI</text>
<text text-anchor="middle" x="683.5" y="-7" font-family="Helvetica,sans-Serif" font-size="10.00">/CCEditBox/CCEditBoxImplWp8.h</text>
</a>
</g>
</g>
<!-- Node9&#45;&gt;Node15 -->
<g id="edge15" class="edge">
<title>Node9&#45;&gt;Node15</title>
<path fill="none" stroke="#63b8ff" d="M628.45,-70.07C639.27,-60.52 651.28,-49.93 661.32,-41.07"/>
<polygon fill="#63b8ff" stroke="#63b8ff" points="626.02,-67.55 620.83,-76.79 630.65,-72.8 626.02,-67.55"/>
</g>
<!-- Node17&#45;&gt;Node7 -->
<g id="edge19" class="edge">
<title>Node17&#45;&gt;Node7</title>
<path fill="none" stroke="#63b8ff" d="M1269.54,-307.78C1329.05,-294.47 1385.99,-282.03 1431.93,-272.05"/>
<polygon fill="#63b8ff" stroke="#63b8ff" points="1268.57,-304.41 1259.57,-310 1270.1,-311.24 1268.57,-304.41"/>
</g>
<!-- Node18&#45;&gt;Node17 -->
<g id="edge22" class="edge">
<title>Node18&#45;&gt;Node17</title>
<path fill="none" stroke="#63b8ff" d="M1075.75,-395.53C1091.12,-384.41 1109.11,-371.41 1124.47,-360.32"/>
<polygon fill="#63b8ff" stroke="#63b8ff" points="1073.56,-392.79 1067.5,-401.49 1077.66,-398.46 1073.56,-392.79"/>
</g>
<!-- Node19&#45;&gt;Node7 -->
<g id="edge24" class="edge">
<title>Node19&#45;&gt;Node7</title>
<path fill="none" stroke="#63b8ff" d="M1439.09,-307.54C1456.36,-296.14 1476.42,-282.9 1492.54,-272.27"/>
<polygon fill="#63b8ff" stroke="#63b8ff" points="1436.76,-304.88 1430.34,-313.31 1440.62,-310.72 1436.76,-304.88"/>
</g>
<!-- Node20&#45;&gt;Node17 -->
<g id="edge26" class="edge">
<title>Node20&#45;&gt;Node17</title>
<path fill="none" stroke="#63b8ff" d="M1236.83,-389.96C1223.12,-380.22 1208.16,-369.58 1195.08,-360.29"/>
<polygon fill="#63b8ff" stroke="#63b8ff" points="1235,-392.95 1245.18,-395.89 1239.05,-387.25 1235,-392.95"/>
</g>
<!-- Node21&#45;&gt;Node7 -->
<g id="edge28" class="edge">
<title>Node21&#45;&gt;Node7</title>
<path fill="none" stroke="#63b8ff" d="M1605.23,-307.54C1588.09,-296.14 1568.2,-282.9 1552.21,-272.27"/>
<polygon fill="#63b8ff" stroke="#63b8ff" points="1603.64,-310.68 1613.9,-313.31 1607.51,-304.85 1603.64,-310.68"/>
</g>
<!-- Node22&#45;&gt;Node7 -->
<g id="edge30" class="edge">
<title>Node22&#45;&gt;Node7</title>
<path fill="none" stroke="#63b8ff" d="M1775.78,-311.09C1723.04,-298.89 1657.95,-283.83 1606.96,-272.04"/>
<polygon fill="#63b8ff" stroke="#63b8ff" points="1775.28,-314.57 1785.81,-313.41 1776.86,-307.75 1775.28,-314.57"/>
</g>
<!-- Node23&#45;&gt;Node7 -->
<g id="edge32" class="edge">
<title>Node23&#45;&gt;Node7</title>
<path fill="none" stroke="#63b8ff" d="M996.9,-311.55C1003.86,-310.27 1010.78,-309.07 1017.5,-308 1150.65,-286.75 1304.86,-271.09 1407.5,-261.92"/>
<polygon fill="#63b8ff" stroke="#63b8ff" points="995.88,-308.18 986.7,-313.47 997.18,-315.06 995.88,-308.18"/>
</g>
<!-- Node24&#45;&gt;Node17 -->
<g id="edge34" class="edge">
<title>Node24&#45;&gt;Node17</title>
<path fill="none" stroke="#63b8ff" d="M1429.5,-399.14C1377.66,-386.83 1312.84,-371.43 1259.71,-358.81"/>
<polygon fill="#63b8ff" stroke="#63b8ff" points="1428.82,-402.58 1439.36,-401.49 1430.44,-395.77 1428.82,-402.58"/>
</g>
<!-- Node25&#45;&gt;Node6 -->
<g id="edge36" class="edge">
<title>Node25&#45;&gt;Node6</title>
<path fill="none" stroke="#63b8ff" d="M1890.22,-474.01C1894.37,-463.57 1898.94,-452.09 1902.68,-442.67"/>
<polygon fill="#63b8ff" stroke="#63b8ff" points="1886.85,-473.02 1886.41,-483.6 1893.36,-475.6 1886.85,-473.02"/>
</g>
<!-- Node25&#45;&gt;Node7 -->
<g id="edge37" class="edge">
<title>Node25&#45;&gt;Node7</title>
<path fill="none" stroke="#63b8ff" d="M1987.63,-479.44C2002.14,-471.71 2015.19,-461.49 2024.5,-448 2043.79,-420.03 2006.19,-309.52 2004.5,-308 1977.69,-283.96 1771.64,-267.27 1637.76,-258.84"/>
<polygon fill="#63b8ff" stroke="#63b8ff" points="1985.87,-476.41 1978.43,-483.95 1988.95,-482.7 1985.87,-476.41"/>
</g>
<!-- Node26&#45;&gt;Node16 -->
<g id="edge48" class="edge">
<title>Node26&#45;&gt;Node16</title>
<path fill="none" stroke="#63b8ff" d="M2041.43,-223.54C2049.39,-215.14 2057.2,-205.35 2062.5,-195 2076.29,-168.1 2080.09,-132.27 2081.13,-112.71"/>
<polygon fill="#63b8ff" stroke="#63b8ff" points="2038.73,-221.29 2034.14,-230.83 2043.69,-226.23 2038.73,-221.29"/>
</g>
<!-- Node27 -->
<g id="node27" class="node">
<title>Node27</title>
<g id="a_node27"><a xlink:href="../../d8/dbb/_c_c_table_view_8h.html" target="_top" xlink:title=" ">
<polygon fill="white" stroke="#666666" points="2053,-195 1892,-195 1892,-154 2053,-154 2053,-195"/>
<text text-anchor="start" x="1900" y="-183" font-family="Helvetica,sans-Serif" font-size="10.00">/home/runner/work/cocos2d.h</text>
<text text-anchor="start" x="1900" y="-172" font-family="Helvetica,sans-Serif" font-size="10.00">/cocos2d.h/extensions/GUI</text>
<text text-anchor="middle" x="1972.5" y="-161" font-family="Helvetica,sans-Serif" font-size="10.00">/CCScrollView/CCTableView.h</text>
</a>
</g>
</g>
<!-- Node26&#45;&gt;Node27 -->
<g id="edge46" class="edge">
<title>Node26&#45;&gt;Node27</title>
<path fill="none" stroke="#63b8ff" d="M1995.97,-221.83C1991.44,-212.89 1986.55,-203.24 1982.42,-195.07"/>
<polygon fill="#63b8ff" stroke="#63b8ff" points="1992.87,-223.46 2000.52,-230.79 1999.12,-220.29 1992.87,-223.46"/>
</g>
<!-- Node27&#45;&gt;Node16 -->
<g id="edge47" class="edge">
<title>Node27&#45;&gt;Node16</title>
<path fill="none" stroke="#63b8ff" d="M2009.54,-148.01C2026.69,-136.22 2046.41,-122.65 2060.86,-112.7"/>
<polygon fill="#63b8ff" stroke="#63b8ff" points="2007.11,-145.44 2000.85,-153.99 2011.08,-151.21 2007.11,-145.44"/>
</g>
<!-- Node28&#45;&gt;Node16 -->
<g id="edge50" class="edge">
<title>Node28&#45;&gt;Node16</title>
<path fill="none" stroke="#63b8ff" d="M2217.68,-304.13C2200.83,-267.59 2169.18,-203.48 2133.5,-154 2122.53,-138.79 2107.73,-123.38 2096.73,-112.67"/>
<polygon fill="#63b8ff" stroke="#63b8ff" points="2214.5,-305.58 2221.83,-313.23 2220.86,-302.68 2214.5,-305.58"/>
</g>
<!-- Node29&#45;&gt;Node16 -->
<g id="edge52" class="edge">
<title>Node29&#45;&gt;Node16</title>
<path fill="none" stroke="#63b8ff" d="M2119.5,-473.69C2119.5,-440.01 2119.5,-383.57 2119.5,-335 2119.5,-335 2119.5,-335 2119.5,-250.5 2119.5,-198.55 2098.35,-139.51 2087.61,-112.87"/>
<polygon fill="#63b8ff" stroke="#63b8ff" points="2116,-473.78 2119.5,-483.78 2123,-473.78 2116,-473.78"/>
</g>
<!-- Node29&#45;&gt;Node28 -->
<g id="edge53" class="edge">
<title>Node29&#45;&gt;Node28</title>
<path fill="none" stroke="#63b8ff" d="M2138.12,-475.24C2160.66,-441.01 2198.05,-384.26 2217.63,-354.53"/>
<polygon fill="#63b8ff" stroke="#63b8ff" points="2135.03,-473.56 2132.45,-483.84 2140.87,-477.42 2135.03,-473.56"/>
</g>
<!-- Node29&#45;&gt;Node30 -->
<g id="edge54" class="edge">
<title>Node29&#45;&gt;Node30</title>
<path fill="none" stroke="#63b8ff" d="M2183.09,-480.44C2216.15,-468.45 2256.11,-453.97 2287.62,-442.54"/>
<polygon fill="#63b8ff" stroke="#63b8ff" points="2181.73,-477.21 2173.52,-483.91 2184.12,-483.79 2181.73,-477.21"/>
</g>
<!-- Node30&#45;&gt;Node16 -->
<g id="edge55" class="edge">
<title>Node30&#45;&gt;Node16</title>
<path fill="none" stroke="#63b8ff" d="M2341.91,-391.24C2341.07,-367.44 2337.18,-333.9 2323.5,-308 2273.16,-212.67 2160.14,-141.51 2108.35,-112.64"/>
<polygon fill="#63b8ff" stroke="#63b8ff" points="2338.42,-391.49 2342.11,-401.42 2345.42,-391.36 2338.42,-391.49"/>
</g>
<!-- Node30&#45;&gt;Node28 -->
<g id="edge56" class="edge">
<title>Node30&#45;&gt;Node28</title>
<path fill="none" stroke="#63b8ff" d="M2308.37,-395.33C2291.59,-382.33 2271.53,-366.79 2255.97,-354.74"/>
<polygon fill="#63b8ff" stroke="#63b8ff" points="2306.26,-398.13 2316.31,-401.49 2310.55,-392.59 2306.26,-398.13"/>
</g>
</g>
</svg>
