<?xml version="1.0" encoding="UTF-8" standalone="no"?>
<!DOCTYPE svg PUBLIC "-//W3C//DTD SVG 1.1//EN"
 "http://www.w3.org/Graphics/SVG/1.1/DTD/svg11.dtd">
<!-- Generated by graphviz version 2.43.0 (0)
 -->
<!-- Title: /home/runner/work/cocos2d.h/cocos2d.h/extensions/GUI/CCScrollView/CCSorting.h Pages: 1 -->
<svg width="243pt" height="170pt"
 viewBox="0.00 0.00 242.50 170.00" xmlns="http://www.w3.org/2000/svg" xmlns:xlink="http://www.w3.org/1999/xlink">
<g id="graph0" class="graph" transform="scale(1 1) rotate(0) translate(4 166)">
<title>/home/runner/work/cocos2d.h/cocos2d.h/extensions/GUI/CCScrollView/CCSorting.h</title>
<!-- Node1 -->
<g id="node1" class="node">
<title>Node1</title>
<g id="a_node1"><a xlink:title=" ">
<polygon fill="#999999" stroke="#666666" points="200.5,-162 39.5,-162 39.5,-121 200.5,-121 200.5,-162"/>
<text text-anchor="start" x="47.5" y="-150" font-family="Helvetica,sans-Serif" font-size="10.00">/home/runner/work/cocos2d.h</text>
<text text-anchor="start" x="47.5" y="-139" font-family="Helvetica,sans-Serif" font-size="10.00">/cocos2d.h/extensions/GUI</text>
<text text-anchor="middle" x="120" y="-128" font-family="Helvetica,sans-Serif" font-size="10.00">/CCScrollView/CCSorting.h</text>
</a>
</g>
</g>
<!-- Node2 -->
<g id="node2" class="node">
<title>Node2</title>
<g id="a_node2"><a xlink:href="../../da/d35/_c_c_array_8h.html" target="_top" xlink:title=" ">
<polygon fill="white" stroke="#666666" points="107.5,-85 12.5,-85 12.5,-66 107.5,-66 107.5,-85"/>
<text text-anchor="middle" x="60" y="-73" font-family="Helvetica,sans-Serif" font-size="10.00">cocoa/CCArray.h</text>
</a>
</g>
</g>
<!-- Node1&#45;&gt;Node2 -->
<g id="edge1" class="edge">
<title>Node1&#45;&gt;Node2</title>
<path fill="none" stroke="#63b8ff" d="M101.67,-120.95C93.21,-111.92 83.28,-101.33 75.24,-92.75"/>
<polygon fill="#63b8ff" stroke="#63b8ff" points="77.61,-90.16 68.21,-85.26 72.5,-94.95 77.61,-90.16"/>
</g>
<!-- Node4 -->
<g id="node4" class="node">
<title>Node4</title>
<g id="a_node4"><a xlink:href="../../d9/d9b/_extension_macros_8h.html" target="_top" xlink:title=" ">
<polygon fill="white" stroke="#666666" points="234.5,-85 125.5,-85 125.5,-66 234.5,-66 234.5,-85"/>
<text text-anchor="middle" x="180" y="-73" font-family="Helvetica,sans-Serif" font-size="10.00">ExtensionMacros.h</text>
</a>
</g>
</g>
<!-- Node1&#45;&gt;Node4 -->
<g id="edge3" class="edge">
<title>Node1&#45;&gt;Node4</title>
<path fill="none" stroke="#63b8ff" d="M138.33,-120.95C146.79,-111.92 156.72,-101.33 164.76,-92.75"/>
<polygon fill="#63b8ff" stroke="#63b8ff" points="167.5,-94.95 171.79,-85.26 162.39,-90.16 167.5,-94.95"/>
</g>
<!-- Node3 -->
<g id="node3" class="node">
<title>Node3</title>
<g id="a_node3"><a xlink:title=" ">
<polygon fill="#e0e0e0" stroke="#999999" points="120,-30 0,-30 0,0 120,0 120,-30"/>
<text text-anchor="start" x="8" y="-18" font-family="Helvetica,sans-Serif" font-size="10.00">support/data_support</text>
<text text-anchor="middle" x="60" y="-7" font-family="Helvetica,sans-Serif" font-size="10.00">/ccCArray.h</text>
</a>
</g>
</g>
<!-- Node2&#45;&gt;Node3 -->
<g id="edge2" class="edge">
<title>Node2&#45;&gt;Node3</title>
<path fill="none" stroke="#63b8ff" d="M60,-65.87C60,-59.11 60,-49.35 60,-40.26"/>
<polygon fill="#63b8ff" stroke="#63b8ff" points="63.5,-40.11 60,-30.11 56.5,-40.11 63.5,-40.11"/>
</g>
</g>
</svg>
