<?xml version="1.0" encoding="UTF-8" standalone="no"?>
<!DOCTYPE svg PUBLIC "-//W3C//DTD SVG 1.1//EN"
 "http://www.w3.org/Graphics/SVG/1.1/DTD/svg11.dtd">
<!-- Generated by graphviz version 2.43.0 (0)
 -->
<!-- Title: /home/runner/work/cocos2d.h/cocos2d.h/cocos2dx/text_input_node/CCIMEDispatcher.h Pages: 1 -->
<svg width="387pt" height="489pt"
 viewBox="0.00 0.00 386.50 489.00" xmlns="http://www.w3.org/2000/svg" xmlns:xlink="http://www.w3.org/1999/xlink">
<g id="graph0" class="graph" transform="scale(1 1) rotate(0) translate(4 485)">
<title>/home/runner/work/cocos2d.h/cocos2d.h/cocos2dx/text_input_node/CCIMEDispatcher.h</title>
<!-- Node1 -->
<g id="node1" class="node">
<title>Node1</title>
<g id="a_node1"><a xlink:title=" ">
<polygon fill="#999999" stroke="#666666" points="171,-481 0,-481 0,-440 171,-440 171,-481"/>
<text text-anchor="start" x="8" y="-469" font-family="Helvetica,sans-Serif" font-size="10.00">/home/runner/work/cocos2d.h</text>
<text text-anchor="start" x="8" y="-458" font-family="Helvetica,sans-Serif" font-size="10.00">/cocos2d.h/cocos2dx/text</text>
<text text-anchor="middle" x="85.5" y="-447" font-family="Helvetica,sans-Serif" font-size="10.00">_input_node/CCIMEDispatcher.h</text>
</a>
</g>
</g>
<!-- Node2 -->
<g id="node2" class="node">
<title>Node2</title>
<g id="a_node2"><a xlink:href="../../d4/d6f/_c_c_i_m_e_delegate_8h.html" target="_top" xlink:title=" ">
<polygon fill="white" stroke="#666666" points="136,-404 35,-404 35,-385 136,-385 136,-404"/>
<text text-anchor="middle" x="85.5" y="-392" font-family="Helvetica,sans-Serif" font-size="10.00">CCIMEDelegate.h</text>
</a>
</g>
</g>
<!-- Node1&#45;&gt;Node2 -->
<g id="edge1" class="edge">
<title>Node1&#45;&gt;Node2</title>
<path fill="none" stroke="#63b8ff" d="M85.5,-439.95C85.5,-431.85 85.5,-422.5 85.5,-414.47"/>
<polygon fill="#63b8ff" stroke="#63b8ff" points="89,-414.26 85.5,-404.26 82,-414.26 89,-414.26"/>
</g>
<!-- Node3 -->
<g id="node3" class="node">
<title>Node3</title>
<g id="a_node3"><a xlink:href="../../d6/d09/_c_c_geometry_8h.html" target="_top" xlink:title=" ">
<polygon fill="white" stroke="#666666" points="144.5,-349 26.5,-349 26.5,-330 144.5,-330 144.5,-349"/>
<text text-anchor="middle" x="85.5" y="-337" font-family="Helvetica,sans-Serif" font-size="10.00">cocoa/CCGeometry.h</text>
</a>
</g>
</g>
<!-- Node2&#45;&gt;Node3 -->
<g id="edge2" class="edge">
<title>Node2&#45;&gt;Node3</title>
<path fill="none" stroke="#63b8ff" d="M85.5,-384.75C85.5,-377.8 85.5,-367.85 85.5,-359.13"/>
<polygon fill="#63b8ff" stroke="#63b8ff" points="89,-359.09 85.5,-349.09 82,-359.09 89,-359.09"/>
</g>
<!-- Node4 -->
<g id="node4" class="node">
<title>Node4</title>
<g id="a_node4"><a xlink:href="../../d3/d41/_c_c_platform_macros_8h.html" target="_top" xlink:title=" ">
<polygon fill="white" stroke="#666666" points="171,-129 10,-129 10,-110 171,-110 171,-129"/>
<text text-anchor="middle" x="90.5" y="-117" font-family="Helvetica,sans-Serif" font-size="10.00">platform/CCPlatformMacros.h</text>
</a>
</g>
</g>
<!-- Node3&#45;&gt;Node4 -->
<g id="edge3" class="edge">
<title>Node3&#45;&gt;Node4</title>
<path fill="none" stroke="#63b8ff" d="M73.18,-329.71C62.8,-321.63 48.42,-308.7 40.5,-294 24.73,-264.73 21.98,-252.39 29.5,-220 37.06,-187.46 60.19,-155.56 75.69,-136.97"/>
<polygon fill="#63b8ff" stroke="#63b8ff" points="78.52,-139.06 82.39,-129.2 73.21,-134.49 78.52,-139.06"/>
</g>
<!-- Node8 -->
<g id="node8" class="node">
<title>Node8</title>
<g id="a_node8"><a xlink:href="../../dd/d69/_c_c_object_8h.html" target="_top" xlink:title=" ">
<polygon fill="white" stroke="#666666" points="121,-294 50,-294 50,-275 121,-275 121,-294"/>
<text text-anchor="middle" x="85.5" y="-282" font-family="Helvetica,sans-Serif" font-size="10.00">CCObject.h</text>
</a>
</g>
</g>
<!-- Node3&#45;&gt;Node8 -->
<g id="edge8" class="edge">
<title>Node3&#45;&gt;Node8</title>
<path fill="none" stroke="#63b8ff" d="M85.5,-329.75C85.5,-322.8 85.5,-312.85 85.5,-304.13"/>
<polygon fill="#63b8ff" stroke="#63b8ff" points="89,-304.09 85.5,-294.09 82,-304.09 89,-304.09"/>
</g>
<!-- Node14 -->
<g id="node14" class="node">
<title>Node14</title>
<g id="a_node14"><a xlink:title=" ">
<polygon fill="#e0e0e0" stroke="#999999" points="190,-294 139,-294 139,-275 190,-275 190,-294"/>
<text text-anchor="middle" x="164.5" y="-282" font-family="Helvetica,sans-Serif" font-size="10.00">math.h</text>
</a>
</g>
</g>
<!-- Node3&#45;&gt;Node14 -->
<g id="edge17" class="edge">
<title>Node3&#45;&gt;Node14</title>
<path fill="none" stroke="#63b8ff" d="M98.19,-329.98C110.33,-321.84 128.86,-309.41 143.25,-299.76"/>
<polygon fill="#63b8ff" stroke="#63b8ff" points="145.22,-302.65 151.58,-294.17 141.32,-296.84 145.22,-302.65"/>
</g>
<!-- Node5 -->
<g id="node5" class="node">
<title>Node5</title>
<g id="a_node5"><a xlink:href="../../db/d9f/cc_config_8h.html" target="_top" xlink:title="cocos2d (cc) configuration file">
<polygon fill="white" stroke="#666666" points="275,-74 208,-74 208,-55 275,-55 275,-74"/>
<text text-anchor="middle" x="241.5" y="-62" font-family="Helvetica,sans-Serif" font-size="10.00">ccConfig.h</text>
</a>
</g>
</g>
<!-- Node4&#45;&gt;Node5 -->
<g id="edge4" class="edge">
<title>Node4&#45;&gt;Node5</title>
<path fill="none" stroke="#63b8ff" d="M114.76,-109.98C139.82,-101.19 179.13,-87.39 207.33,-77.49"/>
<polygon fill="#63b8ff" stroke="#63b8ff" points="208.52,-80.78 216.8,-74.17 206.2,-74.18 208.52,-80.78"/>
</g>
<!-- Node6 -->
<g id="node6" class="node">
<title>Node6</title>
<g id="a_node6"><a xlink:href="../../dd/d96/_c_c_platform_config_8h.html" target="_top" xlink:title=" ">
<polygon fill="white" stroke="#666666" points="223,-19 66,-19 66,0 223,0 223,-19"/>
<text text-anchor="middle" x="144.5" y="-7" font-family="Helvetica,sans-Serif" font-size="10.00">platform/CCPlatformConfig.h</text>
</a>
</g>
</g>
<!-- Node4&#45;&gt;Node6 -->
<g id="edge6" class="edge">
<title>Node4&#45;&gt;Node6</title>
<path fill="none" stroke="#63b8ff" d="M82.83,-109.87C72.61,-97.25 56.95,-73.28 67.5,-55 75.92,-40.41 91.15,-30.17 105.85,-23.23"/>
<polygon fill="#63b8ff" stroke="#63b8ff" points="107.57,-26.3 115.36,-19.13 104.79,-19.87 107.57,-26.3"/>
</g>
<!-- Node7 -->
<g id="node7" class="node">
<title>Node7</title>
<g id="a_node7"><a xlink:title=" ">
<polygon fill="#e0e0e0" stroke="#999999" points="190,-74 77,-74 77,-55 190,-55 190,-74"/>
<text text-anchor="middle" x="133.5" y="-62" font-family="Helvetica,sans-Serif" font-size="10.00">CCPlatformDefine.h</text>
</a>
</g>
</g>
<!-- Node4&#45;&gt;Node7 -->
<g id="edge7" class="edge">
<title>Node4&#45;&gt;Node7</title>
<path fill="none" stroke="#63b8ff" d="M97.6,-109.75C103.67,-102.26 112.59,-91.28 120.01,-82.13"/>
<polygon fill="#63b8ff" stroke="#63b8ff" points="122.95,-84.06 126.53,-74.09 117.51,-79.65 122.95,-84.06"/>
</g>
<!-- Node5&#45;&gt;Node6 -->
<g id="edge5" class="edge">
<title>Node5&#45;&gt;Node6</title>
<path fill="none" stroke="#63b8ff" d="M225.92,-54.98C210.73,-46.69 187.4,-33.94 169.6,-24.22"/>
<polygon fill="#63b8ff" stroke="#63b8ff" points="170.82,-20.89 160.37,-19.17 167.47,-27.04 170.82,-20.89"/>
</g>
<!-- Node9 -->
<g id="node9" class="node">
<title>Node9</title>
<g id="a_node9"><a xlink:href="../../d9/d2d/_c_c_data_visitor_8h.html" target="_top" xlink:title=" ">
<polygon fill="white" stroke="#666666" points="132,-239 39,-239 39,-220 132,-220 132,-239"/>
<text text-anchor="middle" x="85.5" y="-227" font-family="Helvetica,sans-Serif" font-size="10.00">CCDataVisitor.h</text>
</a>
</g>
</g>
<!-- Node8&#45;&gt;Node9 -->
<g id="edge9" class="edge">
<title>Node8&#45;&gt;Node9</title>
<path fill="none" stroke="#63b8ff" d="M85.5,-274.75C85.5,-267.8 85.5,-257.85 85.5,-249.13"/>
<polygon fill="#63b8ff" stroke="#63b8ff" points="89,-249.09 85.5,-239.09 82,-249.09 89,-249.09"/>
</g>
<!-- Node11 -->
<g id="node11" class="node">
<title>Node11</title>
<g id="a_node11"><a xlink:href="../../d9/dc8/cc_macros_8h.html" target="_top" xlink:title=" ">
<polygon fill="white" stroke="#666666" points="278,-239 207,-239 207,-220 278,-220 278,-239"/>
<text text-anchor="middle" x="242.5" y="-227" font-family="Helvetica,sans-Serif" font-size="10.00">ccMacros.h</text>
</a>
</g>
</g>
<!-- Node8&#45;&gt;Node11 -->
<g id="edge12" class="edge">
<title>Node8&#45;&gt;Node11</title>
<path fill="none" stroke="#63b8ff" d="M110.72,-274.98C136.86,-266.16 177.9,-252.31 207.23,-242.41"/>
<polygon fill="#63b8ff" stroke="#63b8ff" points="208.72,-245.6 217.08,-239.08 206.48,-238.96 208.72,-245.6"/>
</g>
<!-- Node9&#45;&gt;Node4 -->
<g id="edge10" class="edge">
<title>Node9&#45;&gt;Node4</title>
<path fill="none" stroke="#63b8ff" d="M78.2,-219.6C69.15,-207.44 55.59,-184.88 61.5,-165 64.48,-154.98 70.5,-145.11 76.29,-137.22"/>
<polygon fill="#63b8ff" stroke="#63b8ff" points="79.13,-139.28 82.56,-129.25 73.63,-134.95 79.13,-139.28"/>
</g>
<!-- Node10 -->
<g id="node10" class="node">
<title>Node10</title>
<g id="a_node10"><a xlink:title=" ">
<polygon fill="#e0e0e0" stroke="#999999" points="114.5,-184 70.5,-184 70.5,-165 114.5,-165 114.5,-184"/>
<text text-anchor="middle" x="92.5" y="-172" font-family="Helvetica,sans-Serif" font-size="10.00">string</text>
</a>
</g>
</g>
<!-- Node9&#45;&gt;Node10 -->
<g id="edge11" class="edge">
<title>Node9&#45;&gt;Node10</title>
<path fill="none" stroke="#63b8ff" d="M86.66,-219.75C87.57,-212.8 88.89,-202.85 90.04,-194.13"/>
<polygon fill="#63b8ff" stroke="#63b8ff" points="93.53,-194.46 91.37,-184.09 86.59,-193.54 93.53,-194.46"/>
</g>
<!-- Node11&#45;&gt;Node5 -->
<g id="edge16" class="edge">
<title>Node11&#45;&gt;Node5</title>
<path fill="none" stroke="#63b8ff" d="M249.65,-219.97C256.27,-211.48 265.65,-197.75 269.5,-184 279.42,-148.53 262.87,-106.46 251.28,-83.19"/>
<polygon fill="#63b8ff" stroke="#63b8ff" points="254.31,-81.42 246.57,-74.19 248.1,-84.67 254.31,-81.42"/>
</g>
<!-- Node12 -->
<g id="node12" class="node">
<title>Node12</title>
<g id="a_node12"><a xlink:href="../../d5/d22/_c_c_common_8h.html" target="_top" xlink:title=" ">
<polygon fill="white" stroke="#666666" points="260.5,-184 132.5,-184 132.5,-165 260.5,-165 260.5,-184"/>
<text text-anchor="middle" x="196.5" y="-172" font-family="Helvetica,sans-Serif" font-size="10.00">platform/CCCommon.h</text>
</a>
</g>
</g>
<!-- Node11&#45;&gt;Node12 -->
<g id="edge13" class="edge">
<title>Node11&#45;&gt;Node12</title>
<path fill="none" stroke="#63b8ff" d="M234.9,-219.75C228.34,-212.18 218.68,-201.05 210.69,-191.84"/>
<polygon fill="#63b8ff" stroke="#63b8ff" points="213.15,-189.35 203.95,-184.09 207.87,-193.94 213.15,-189.35"/>
</g>
<!-- Node13 -->
<g id="node13" class="node">
<title>Node13</title>
<g id="a_node13"><a xlink:title=" ">
<polygon fill="#e0e0e0" stroke="#999999" points="378.5,-184 316.5,-184 316.5,-165 378.5,-165 378.5,-184"/>
<text text-anchor="middle" x="347.5" y="-172" font-family="Helvetica,sans-Serif" font-size="10.00">CCStdC.h</text>
</a>
</g>
</g>
<!-- Node11&#45;&gt;Node13 -->
<g id="edge15" class="edge">
<title>Node11&#45;&gt;Node13</title>
<path fill="none" stroke="#63b8ff" d="M259.37,-219.98C276.11,-211.54 302,-198.47 321.39,-188.68"/>
<polygon fill="#63b8ff" stroke="#63b8ff" points="322.97,-191.8 330.32,-184.17 319.82,-185.55 322.97,-191.8"/>
</g>
<!-- Node12&#45;&gt;Node4 -->
<g id="edge14" class="edge">
<title>Node12&#45;&gt;Node4</title>
<path fill="none" stroke="#63b8ff" d="M179.47,-164.98C162.57,-156.54 136.44,-143.47 116.86,-133.68"/>
<polygon fill="#63b8ff" stroke="#63b8ff" points="118.35,-130.51 107.84,-129.17 115.22,-136.77 118.35,-130.51"/>
</g>
</g>
</svg>
