<?xml version="1.0" encoding="UTF-8" standalone="no"?>
<!DOCTYPE svg PUBLIC "-//W3C//DTD SVG 1.1//EN"
 "http://www.w3.org/Graphics/SVG/1.1/DTD/svg11.dtd">
<!-- Generated by graphviz version 2.43.0 (0)
 -->
<!-- Title: /home/runner/work/cocos2d.h/cocos2d.h/cocos2dx/text_input_node/CCIMEDispatcher.h Pages: 1 -->
<svg width="387pt" height="498pt"
 viewBox="0.00 0.00 386.50 498.00" xmlns="http://www.w3.org/2000/svg" xmlns:xlink="http://www.w3.org/1999/xlink">
<g id="graph0" class="graph" transform="scale(1 1) rotate(0) translate(4 494)">
<title>/home/runner/work/cocos2d.h/cocos2d.h/cocos2dx/text_input_node/CCIMEDispatcher.h</title>
<!-- Node1 -->
<g id="node1" class="node">
<title>Node1</title>
<g id="a_node1"><a xlink:title=" ">
<polygon fill="#bfbfbf" stroke="black" points="0,-448.5 0,-489.5 171,-489.5 171,-448.5 0,-448.5"/>
<text text-anchor="start" x="8" y="-477.5" font-family="Helvetica,sans-Serif" font-size="10.00">/home/runner/work/cocos2d.h</text>
<text text-anchor="start" x="8" y="-466.5" font-family="Helvetica,sans-Serif" font-size="10.00">/cocos2d.h/cocos2dx/text</text>
<text text-anchor="middle" x="85.5" y="-455.5" font-family="Helvetica,sans-Serif" font-size="10.00">_input_node/CCIMEDispatcher.h</text>
</a>
</g>
</g>
<!-- Node2 -->
<g id="node2" class="node">
<title>Node2</title>
<g id="a_node2"><a xlink:href="../../d4/d6f/_c_c_i_m_e_delegate_8h.html" target="_top" xlink:title=" ">
<polygon fill="none" stroke="black" points="35,-392.5 35,-411.5 136,-411.5 136,-392.5 35,-392.5"/>
<text text-anchor="middle" x="85.5" y="-399.5" font-family="Helvetica,sans-Serif" font-size="10.00">CCIMEDelegate.h</text>
</a>
</g>
</g>
<!-- Node1&#45;&gt;Node2 -->
<g id="edge1" class="edge">
<title>Node1&#45;&gt;Node2</title>
<path fill="none" stroke="midnightblue" d="M85.5,-448.5C85.5,-440.07 85.5,-430.24 85.5,-421.87"/>
<polygon fill="midnightblue" stroke="midnightblue" points="89,-421.65 85.5,-411.65 82,-421.65 89,-421.65"/>
</g>
<!-- Node3 -->
<g id="node3" class="node">
<title>Node3</title>
<g id="a_node3"><a xlink:href="../../d6/d09/_c_c_geometry_8h.html" target="_top" xlink:title=" ">
<polygon fill="none" stroke="black" points="26.5,-336.5 26.5,-355.5 144.5,-355.5 144.5,-336.5 26.5,-336.5"/>
<text text-anchor="middle" x="85.5" y="-343.5" font-family="Helvetica,sans-Serif" font-size="10.00">cocoa/CCGeometry.h</text>
</a>
</g>
</g>
<!-- Node2&#45;&gt;Node3 -->
<g id="edge2" class="edge">
<title>Node2&#45;&gt;Node3</title>
<path fill="none" stroke="midnightblue" d="M85.5,-392.08C85.5,-385.01 85.5,-374.86 85.5,-365.99"/>
<polygon fill="midnightblue" stroke="midnightblue" points="89,-365.75 85.5,-355.75 82,-365.75 89,-365.75"/>
</g>
<!-- Node4 -->
<g id="node4" class="node">
<title>Node4</title>
<g id="a_node4"><a xlink:href="../../d3/d41/_c_c_platform_macros_8h.html" target="_top" xlink:title=" ">
<polygon fill="none" stroke="black" points="10,-112.5 10,-131.5 171,-131.5 171,-112.5 10,-112.5"/>
<text text-anchor="middle" x="90.5" y="-119.5" font-family="Helvetica,sans-Serif" font-size="10.00">platform/CCPlatformMacros.h</text>
</a>
</g>
</g>
<!-- Node3&#45;&gt;Node4 -->
<g id="edge3" class="edge">
<title>Node3&#45;&gt;Node4</title>
<path fill="none" stroke="midnightblue" d="M73.57,-336.41C63.16,-328.25 48.5,-315.02 40.5,-300 24.45,-269.88 21.9,-257.27 29.5,-224 37.1,-190.75 60.62,-158.03 76.13,-139.21"/>
<polygon fill="midnightblue" stroke="midnightblue" points="78.8,-141.48 82.61,-131.59 73.47,-136.94 78.8,-141.48"/>
</g>
<!-- Node8 -->
<g id="node8" class="node">
<title>Node8</title>
<g id="a_node8"><a xlink:href="../../dd/d69/_c_c_object_8h.html" target="_top" xlink:title=" ">
<polygon fill="none" stroke="black" points="50,-280.5 50,-299.5 121,-299.5 121,-280.5 50,-280.5"/>
<text text-anchor="middle" x="85.5" y="-287.5" font-family="Helvetica,sans-Serif" font-size="10.00">CCObject.h</text>
</a>
</g>
</g>
<!-- Node3&#45;&gt;Node8 -->
<g id="edge8" class="edge">
<title>Node3&#45;&gt;Node8</title>
<path fill="none" stroke="midnightblue" d="M85.5,-336.08C85.5,-329.01 85.5,-318.86 85.5,-309.99"/>
<polygon fill="midnightblue" stroke="midnightblue" points="89,-309.75 85.5,-299.75 82,-309.75 89,-309.75"/>
</g>
<!-- Node14 -->
<g id="node14" class="node">
<title>Node14</title>
<g id="a_node14"><a xlink:title=" ">
<polygon fill="none" stroke="#bfbfbf" points="139,-280.5 139,-299.5 190,-299.5 190,-280.5 139,-280.5"/>
<text text-anchor="middle" x="164.5" y="-287.5" font-family="Helvetica,sans-Serif" font-size="10.00">math.h</text>
</a>
</g>
</g>
<!-- Node3&#45;&gt;Node14 -->
<g id="edge17" class="edge">
<title>Node3&#45;&gt;Node14</title>
<path fill="none" stroke="midnightblue" d="M98.19,-336.32C110.4,-327.98 129.08,-315.21 143.5,-305.35"/>
<polygon fill="midnightblue" stroke="midnightblue" points="145.56,-308.19 151.84,-299.65 141.61,-302.41 145.56,-308.19"/>
</g>
<!-- Node5 -->
<g id="node5" class="node">
<title>Node5</title>
<g id="a_node5"><a xlink:href="../../db/d9f/cc_config_8h.html" target="_top" xlink:title="cocos2d (cc) configuration file">
<polygon fill="none" stroke="black" points="208,-56.5 208,-75.5 275,-75.5 275,-56.5 208,-56.5"/>
<text text-anchor="middle" x="241.5" y="-63.5" font-family="Helvetica,sans-Serif" font-size="10.00">ccConfig.h</text>
</a>
</g>
</g>
<!-- Node4&#45;&gt;Node5 -->
<g id="edge4" class="edge">
<title>Node4&#45;&gt;Node5</title>
<path fill="none" stroke="midnightblue" d="M114.43,-112.44C139.72,-103.4 179.8,-89.06 208.18,-78.92"/>
<polygon fill="midnightblue" stroke="midnightblue" points="209.45,-82.18 217.69,-75.52 207.09,-75.59 209.45,-82.18"/>
</g>
<!-- Node6 -->
<g id="node6" class="node">
<title>Node6</title>
<g id="a_node6"><a xlink:href="../../dd/d96/_c_c_platform_config_8h.html" target="_top" xlink:title=" ">
<polygon fill="none" stroke="black" points="66,-0.5 66,-19.5 223,-19.5 223,-0.5 66,-0.5"/>
<text text-anchor="middle" x="144.5" y="-7.5" font-family="Helvetica,sans-Serif" font-size="10.00">platform/CCPlatformConfig.h</text>
</a>
</g>
</g>
<!-- Node4&#45;&gt;Node6 -->
<g id="edge6" class="edge">
<title>Node4&#45;&gt;Node6</title>
<path fill="none" stroke="midnightblue" d="M82.79,-112.16C72.5,-99.23 56.78,-74.69 67.5,-56 76.12,-40.99 91.89,-30.5 106.93,-23.46"/>
<polygon fill="midnightblue" stroke="midnightblue" points="108.32,-26.67 116.13,-19.51 105.56,-20.24 108.32,-26.67"/>
</g>
<!-- Node7 -->
<g id="node7" class="node">
<title>Node7</title>
<g id="a_node7"><a xlink:title=" ">
<polygon fill="none" stroke="#bfbfbf" points="77,-56.5 77,-75.5 190,-75.5 190,-56.5 77,-56.5"/>
<text text-anchor="middle" x="133.5" y="-63.5" font-family="Helvetica,sans-Serif" font-size="10.00">CCPlatformDefine.h</text>
</a>
</g>
</g>
<!-- Node4&#45;&gt;Node7 -->
<g id="edge7" class="edge">
<title>Node4&#45;&gt;Node7</title>
<path fill="none" stroke="midnightblue" d="M97.6,-112.08C103.74,-104.38 112.77,-93.03 120.24,-83.65"/>
<polygon fill="midnightblue" stroke="midnightblue" points="123.04,-85.75 126.53,-75.75 117.56,-81.39 123.04,-85.75"/>
</g>
<!-- Node5&#45;&gt;Node6 -->
<g id="edge5" class="edge">
<title>Node5&#45;&gt;Node6</title>
<path fill="none" stroke="midnightblue" d="M225.92,-56.32C210.5,-47.74 186.69,-34.49 168.79,-24.52"/>
<polygon fill="midnightblue" stroke="midnightblue" points="170.49,-21.46 160.05,-19.65 167.08,-27.58 170.49,-21.46"/>
</g>
<!-- Node9 -->
<g id="node9" class="node">
<title>Node9</title>
<g id="a_node9"><a xlink:href="../../d9/d2d/_c_c_data_visitor_8h.html" target="_top" xlink:title=" ">
<polygon fill="none" stroke="black" points="39,-224.5 39,-243.5 132,-243.5 132,-224.5 39,-224.5"/>
<text text-anchor="middle" x="85.5" y="-231.5" font-family="Helvetica,sans-Serif" font-size="10.00">CCDataVisitor.h</text>
</a>
</g>
</g>
<!-- Node8&#45;&gt;Node9 -->
<g id="edge9" class="edge">
<title>Node8&#45;&gt;Node9</title>
<path fill="none" stroke="midnightblue" d="M85.5,-280.08C85.5,-273.01 85.5,-262.86 85.5,-253.99"/>
<polygon fill="midnightblue" stroke="midnightblue" points="89,-253.75 85.5,-243.75 82,-253.75 89,-253.75"/>
</g>
<!-- Node11 -->
<g id="node11" class="node">
<title>Node11</title>
<g id="a_node11"><a xlink:href="../../d9/dc8/cc_macros_8h.html" target="_top" xlink:title=" ">
<polygon fill="none" stroke="black" points="207,-224.5 207,-243.5 278,-243.5 278,-224.5 207,-224.5"/>
<text text-anchor="middle" x="242.5" y="-231.5" font-family="Helvetica,sans-Serif" font-size="10.00">ccMacros.h</text>
</a>
</g>
</g>
<!-- Node8&#45;&gt;Node11 -->
<g id="edge12" class="edge">
<title>Node8&#45;&gt;Node11</title>
<path fill="none" stroke="midnightblue" d="M110.38,-280.44C136.79,-271.36 178.72,-256.94 208.24,-246.78"/>
<polygon fill="midnightblue" stroke="midnightblue" points="209.42,-250.08 217.74,-243.52 207.14,-243.46 209.42,-250.08"/>
</g>
<!-- Node9&#45;&gt;Node4 -->
<g id="edge10" class="edge">
<title>Node9&#45;&gt;Node4</title>
<path fill="none" stroke="midnightblue" d="M78.49,-224.3C69.42,-211.94 55.45,-188.54 61.5,-168 64.51,-157.76 70.65,-147.66 76.51,-139.63"/>
<polygon fill="midnightblue" stroke="midnightblue" points="79.43,-141.58 82.83,-131.54 73.91,-137.27 79.43,-141.58"/>
</g>
<!-- Node10 -->
<g id="node10" class="node">
<title>Node10</title>
<g id="a_node10"><a xlink:title=" ">
<polygon fill="none" stroke="#bfbfbf" points="70.5,-168.5 70.5,-187.5 114.5,-187.5 114.5,-168.5 70.5,-168.5"/>
<text text-anchor="middle" x="92.5" y="-175.5" font-family="Helvetica,sans-Serif" font-size="10.00">string</text>
</a>
</g>
</g>
<!-- Node9&#45;&gt;Node10 -->
<g id="edge11" class="edge">
<title>Node9&#45;&gt;Node10</title>
<path fill="none" stroke="midnightblue" d="M86.66,-224.08C87.58,-216.93 88.92,-206.64 90.08,-197.69"/>
<polygon fill="midnightblue" stroke="midnightblue" points="93.55,-198.12 91.37,-187.75 86.61,-197.22 93.55,-198.12"/>
</g>
<!-- Node11&#45;&gt;Node5 -->
<g id="edge16" class="edge">
<title>Node11&#45;&gt;Node5</title>
<path fill="none" stroke="midnightblue" d="M249.65,-224.36C256.27,-215.76 265.66,-201.87 269.5,-188 279.58,-151.62 262.77,-108.4 251.14,-84.72"/>
<polygon fill="midnightblue" stroke="midnightblue" points="254.12,-82.85 246.42,-75.57 247.9,-86.06 254.12,-82.85"/>
</g>
<!-- Node12 -->
<g id="node12" class="node">
<title>Node12</title>
<g id="a_node12"><a xlink:href="../../d5/d22/_c_c_common_8h.html" target="_top" xlink:title=" ">
<polygon fill="none" stroke="black" points="132.5,-168.5 132.5,-187.5 260.5,-187.5 260.5,-168.5 132.5,-168.5"/>
<text text-anchor="middle" x="196.5" y="-175.5" font-family="Helvetica,sans-Serif" font-size="10.00">platform/CCCommon.h</text>
</a>
</g>
</g>
<!-- Node11&#45;&gt;Node12 -->
<g id="edge13" class="edge">
<title>Node11&#45;&gt;Node12</title>
<path fill="none" stroke="midnightblue" d="M234.9,-224.08C228.27,-216.3 218.48,-204.8 210.44,-195.37"/>
<polygon fill="midnightblue" stroke="midnightblue" points="213.1,-193.09 203.95,-187.75 207.77,-197.63 213.1,-193.09"/>
</g>
<!-- Node13 -->
<g id="node13" class="node">
<title>Node13</title>
<g id="a_node13"><a xlink:title=" ">
<polygon fill="none" stroke="#bfbfbf" points="316.5,-168.5 316.5,-187.5 378.5,-187.5 378.5,-168.5 316.5,-168.5"/>
<text text-anchor="middle" x="347.5" y="-175.5" font-family="Helvetica,sans-Serif" font-size="10.00">CCStdC.h</text>
</a>
</g>
</g>
<!-- Node11&#45;&gt;Node13 -->
<g id="edge15" class="edge">
<title>Node11&#45;&gt;Node13</title>
<path fill="none" stroke="midnightblue" d="M259.37,-224.32C276.21,-215.66 302.31,-202.24 321.74,-192.25"/>
<polygon fill="midnightblue" stroke="midnightblue" points="323.38,-195.34 330.67,-187.65 320.18,-189.12 323.38,-195.34"/>
</g>
<!-- Node12&#45;&gt;Node4 -->
<g id="edge14" class="edge">
<title>Node12&#45;&gt;Node4</title>
<path fill="none" stroke="midnightblue" d="M179.47,-168.32C162.47,-159.66 136.12,-146.24 116.51,-136.25"/>
<polygon fill="midnightblue" stroke="midnightblue" points="117.99,-133.08 107.49,-131.65 114.81,-139.31 117.99,-133.08"/>
</g>
</g>
</svg>
