<?xml version="1.0" encoding="UTF-8" standalone="no"?>
<!DOCTYPE svg PUBLIC "-//W3C//DTD SVG 1.1//EN"
 "http://www.w3.org/Graphics/SVG/1.1/DTD/svg11.dtd">
<!-- Generated by graphviz version 2.43.0 (0)
 -->
<!-- Title: /home/runner/work/cocos2d.h/cocos2d.h/extensions/GUI/CCScrollView/CCSorting.h Pages: 1 -->
<svg width="192pt" height="269pt"
 viewBox="0.00 0.00 192.00 269.00" xmlns="http://www.w3.org/2000/svg" xmlns:xlink="http://www.w3.org/1999/xlink">
<g id="graph0" class="graph" transform="scale(1 1) rotate(0) translate(4 265)">
<title>/home/runner/work/cocos2d.h/cocos2d.h/extensions/GUI/CCScrollView/CCSorting.h</title>
<!-- Node1 -->
<g id="node1" class="node">
<title>Node1</title>
<g id="a_node1"><a xlink:title=" ">
<polygon fill="#999999" stroke="#666666" points="172.5,-261 11.5,-261 11.5,-220 172.5,-220 172.5,-261"/>
<text text-anchor="start" x="19.5" y="-249" font-family="Helvetica,sans-Serif" font-size="10.00">/home/runner/work/cocos2d.h</text>
<text text-anchor="start" x="19.5" y="-238" font-family="Helvetica,sans-Serif" font-size="10.00">/cocos2d.h/extensions/GUI</text>
<text text-anchor="middle" x="92" y="-227" font-family="Helvetica,sans-Serif" font-size="10.00">/CCScrollView/CCSorting.h</text>
</a>
</g>
</g>
<!-- Node2 -->
<g id="node2" class="node">
<title>Node2</title>
<g id="a_node2"><a xlink:href="../../d1/dde/_c_c_table_view_cell_8h.html" target="_top" xlink:title=" ">
<polygon fill="white" stroke="#666666" points="181,-184 3,-184 3,-143 181,-143 181,-184"/>
<text text-anchor="start" x="11" y="-172" font-family="Helvetica,sans-Serif" font-size="10.00">/home/runner/work/cocos2d.h</text>
<text text-anchor="start" x="11" y="-161" font-family="Helvetica,sans-Serif" font-size="10.00">/cocos2d.h/extensions/GUI</text>
<text text-anchor="middle" x="92" y="-150" font-family="Helvetica,sans-Serif" font-size="10.00">/CCScrollView/CCTableViewCell.h</text>
</a>
</g>
</g>
<!-- Node1&#45;&gt;Node2 -->
<g id="edge1" class="edge">
<title>Node1&#45;&gt;Node2</title>
<path fill="none" stroke="#63b8ff" d="M92,-209.69C92,-201.08 92,-191.9 92,-184.07"/>
<polygon fill="#63b8ff" stroke="#63b8ff" points="88.5,-209.79 92,-219.79 95.5,-209.79 88.5,-209.79"/>
</g>
<!-- Node3 -->
<g id="node3" class="node">
<title>Node3</title>
<g id="a_node3"><a xlink:href="../../d8/dbb/_c_c_table_view_8h.html" target="_top" xlink:title=" ">
<polygon fill="white" stroke="#666666" points="172.5,-107 11.5,-107 11.5,-66 172.5,-66 172.5,-107"/>
<text text-anchor="start" x="19.5" y="-95" font-family="Helvetica,sans-Serif" font-size="10.00">/home/runner/work/cocos2d.h</text>
<text text-anchor="start" x="19.5" y="-84" font-family="Helvetica,sans-Serif" font-size="10.00">/cocos2d.h/extensions/GUI</text>
<text text-anchor="middle" x="92" y="-73" font-family="Helvetica,sans-Serif" font-size="10.00">/CCScrollView/CCTableView.h</text>
</a>
</g>
</g>
<!-- Node2&#45;&gt;Node3 -->
<g id="edge2" class="edge">
<title>Node2&#45;&gt;Node3</title>
<path fill="none" stroke="#63b8ff" d="M92,-132.69C92,-124.08 92,-114.9 92,-107.07"/>
<polygon fill="#63b8ff" stroke="#63b8ff" points="88.5,-132.79 92,-142.79 95.5,-132.79 88.5,-132.79"/>
</g>
<!-- Node4 -->
<g id="node4" class="node">
<title>Node4</title>
<g id="a_node4"><a xlink:href="../../d3/d58/cocos-ext_8h.html" target="_top" xlink:title=" ">
<polygon fill="white" stroke="#666666" points="184,-30 0,-30 0,0 184,0 184,-30"/>
<text text-anchor="start" x="8" y="-18" font-family="Helvetica,sans-Serif" font-size="10.00">/home/runner/work/cocos2d.h</text>
<text text-anchor="middle" x="92" y="-7" font-family="Helvetica,sans-Serif" font-size="10.00">/cocos2d.h/extensions/cocos&#45;ext.h</text>
</a>
</g>
</g>
<!-- Node3&#45;&gt;Node4 -->
<g id="edge3" class="edge">
<title>Node3&#45;&gt;Node4</title>
<path fill="none" stroke="#63b8ff" d="M92,-55.66C92,-46.76 92,-37.42 92,-30.04"/>
<polygon fill="#63b8ff" stroke="#63b8ff" points="88.5,-55.77 92,-65.77 95.5,-55.77 88.5,-55.77"/>
</g>
</g>
</svg>
