<?xml version="1.0" encoding="UTF-8" standalone="no"?>
<!DOCTYPE svg PUBLIC "-//W3C//DTD SVG 1.1//EN"
 "http://www.w3.org/Graphics/SVG/1.1/DTD/svg11.dtd">
<!-- Generated by graphviz version 2.43.0 (0)
 -->
<!-- Title: /home/runner/work/cocos2d.h/cocos2d.h/extensions/network/HttpRequest.h Pages: 1 -->
<svg width="286pt" height="269pt"
 viewBox="0.00 0.00 286.00 269.00" xmlns="http://www.w3.org/2000/svg" xmlns:xlink="http://www.w3.org/1999/xlink">
<g id="graph0" class="graph" transform="scale(1 1) rotate(0) translate(4 265)">
<title>/home/runner/work/cocos2d.h/cocos2d.h/extensions/network/HttpRequest.h</title>
<!-- Node1 -->
<g id="node1" class="node">
<title>Node1</title>
<g id="a_node1"><a xlink:title=" ">
<polygon fill="#999999" stroke="#666666" points="167,-261 0,-261 0,-220 167,-220 167,-261"/>
<text text-anchor="start" x="8" y="-249" font-family="Helvetica,sans-Serif" font-size="10.00">/home/runner/work/cocos2d.h</text>
<text text-anchor="start" x="8" y="-238" font-family="Helvetica,sans-Serif" font-size="10.00">/cocos2d.h/extensions/network</text>
<text text-anchor="middle" x="83.5" y="-227" font-family="Helvetica,sans-Serif" font-size="10.00">/HttpRequest.h</text>
</a>
</g>
</g>
<!-- Node2 -->
<g id="node2" class="node">
<title>Node2</title>
<g id="a_node2"><a xlink:href="../../d3/d58/cocos-ext_8h.html" target="_top" xlink:title=" ">
<polygon fill="white" stroke="#666666" points="212.5,-30 28.5,-30 28.5,0 212.5,0 212.5,-30"/>
<text text-anchor="start" x="36.5" y="-18" font-family="Helvetica,sans-Serif" font-size="10.00">/home/runner/work/cocos2d.h</text>
<text text-anchor="middle" x="120.5" y="-7" font-family="Helvetica,sans-Serif" font-size="10.00">/cocos2d.h/extensions/cocos&#45;ext.h</text>
</a>
</g>
</g>
<!-- Node1&#45;&gt;Node2 -->
<g id="edge1" class="edge">
<title>Node1&#45;&gt;Node2</title>
<path fill="none" stroke="#63b8ff" d="M61.03,-211.34C35.44,-175.59 0.58,-112.95 28.5,-66 38.44,-49.28 56.15,-37.8 73.38,-30.11"/>
<polygon fill="#63b8ff" stroke="#63b8ff" points="58.53,-213.85 67.29,-219.82 64.17,-209.7 58.53,-213.85"/>
</g>
<!-- Node3 -->
<g id="node3" class="node">
<title>Node3</title>
<g id="a_node3"><a xlink:href="../../d8/d12/_http_client_8h.html" target="_top" xlink:title=" ">
<polygon fill="white" stroke="#666666" points="204,-107 37,-107 37,-66 204,-66 204,-107"/>
<text text-anchor="start" x="45" y="-95" font-family="Helvetica,sans-Serif" font-size="10.00">/home/runner/work/cocos2d.h</text>
<text text-anchor="start" x="45" y="-84" font-family="Helvetica,sans-Serif" font-size="10.00">/cocos2d.h/extensions/network</text>
<text text-anchor="middle" x="120.5" y="-73" font-family="Helvetica,sans-Serif" font-size="10.00">/HttpClient.h</text>
</a>
</g>
</g>
<!-- Node1&#45;&gt;Node3 -->
<g id="edge2" class="edge">
<title>Node1&#45;&gt;Node3</title>
<path fill="none" stroke="#63b8ff" d="M88.4,-209.8C91.8,-190.61 96.74,-165.17 102.5,-143 105.63,-130.94 109.91,-117.66 113.51,-107.11"/>
<polygon fill="#63b8ff" stroke="#63b8ff" points="84.94,-209.3 86.68,-219.75 91.83,-210.5 84.94,-209.3"/>
</g>
<!-- Node4 -->
<g id="node4" class="node">
<title>Node4</title>
<g id="a_node4"><a xlink:href="../../d1/d33/_http_response_8h.html" target="_top" xlink:title=" ">
<polygon fill="white" stroke="#666666" points="278,-184 111,-184 111,-143 278,-143 278,-184"/>
<text text-anchor="start" x="119" y="-172" font-family="Helvetica,sans-Serif" font-size="10.00">/home/runner/work/cocos2d.h</text>
<text text-anchor="start" x="119" y="-161" font-family="Helvetica,sans-Serif" font-size="10.00">/cocos2d.h/extensions/network</text>
<text text-anchor="middle" x="194.5" y="-150" font-family="Helvetica,sans-Serif" font-size="10.00">/HttpResponse.h</text>
</a>
</g>
</g>
<!-- Node1&#45;&gt;Node4 -->
<g id="edge4" class="edge">
<title>Node1&#45;&gt;Node4</title>
<path fill="none" stroke="#63b8ff" d="M120.69,-214.37C135.26,-204.53 151.71,-193.41 165.38,-184.17"/>
<polygon fill="#63b8ff" stroke="#63b8ff" points="118.7,-211.49 112.37,-219.99 122.62,-217.29 118.7,-211.49"/>
</g>
<!-- Node3&#45;&gt;Node2 -->
<g id="edge3" class="edge">
<title>Node3&#45;&gt;Node2</title>
<path fill="none" stroke="#63b8ff" d="M120.5,-55.66C120.5,-46.76 120.5,-37.42 120.5,-30.04"/>
<polygon fill="#63b8ff" stroke="#63b8ff" points="117,-55.77 120.5,-65.77 124,-55.77 117,-55.77"/>
</g>
<!-- Node4&#45;&gt;Node2 -->
<g id="edge5" class="edge">
<title>Node4&#45;&gt;Node2</title>
<path fill="none" stroke="#63b8ff" d="M209.74,-133.68C218.16,-113.48 224.7,-86.52 212.5,-66 202.56,-49.28 184.85,-37.8 167.62,-30.11"/>
<polygon fill="#63b8ff" stroke="#63b8ff" points="206.45,-132.45 205.52,-143 212.83,-135.33 206.45,-132.45"/>
</g>
<!-- Node4&#45;&gt;Node3 -->
<g id="edge6" class="edge">
<title>Node4&#45;&gt;Node3</title>
<path fill="none" stroke="#63b8ff" d="M167.87,-135.51C158.6,-126.11 148.38,-115.76 139.81,-107.07"/>
<polygon fill="#63b8ff" stroke="#63b8ff" points="165.54,-138.13 175.06,-142.79 170.53,-133.22 165.54,-138.13"/>
</g>
</g>
</svg>
