<?xml version="1.0" encoding="UTF-8" standalone="no"?>
<!DOCTYPE svg PUBLIC "-//W3C//DTD SVG 1.1//EN"
 "http://www.w3.org/Graphics/SVG/1.1/DTD/svg11.dtd">
<!-- Generated by graphviz version 2.43.0 (0)
 -->
<!-- Title: /home/runner/work/cocos2d.h/cocos2d.h/extensions/network/HttpRequest.h Pages: 1 -->
<svg width="286pt" height="273pt"
 viewBox="0.00 0.00 286.00 273.00" xmlns="http://www.w3.org/2000/svg" xmlns:xlink="http://www.w3.org/1999/xlink">
<g id="graph0" class="graph" transform="scale(1 1) rotate(0) translate(4 269)">
<title>/home/runner/work/cocos2d.h/cocos2d.h/extensions/network/HttpRequest.h</title>
<!-- Node1 -->
<g id="node1" class="node">
<title>Node1</title>
<g id="a_node1"><a xlink:title=" ">
<polygon fill="#bfbfbf" stroke="black" points="0,-223.5 0,-264.5 167,-264.5 167,-223.5 0,-223.5"/>
<text text-anchor="start" x="8" y="-252.5" font-family="Helvetica,sans-Serif" font-size="10.00">/home/runner/work/cocos2d.h</text>
<text text-anchor="start" x="8" y="-241.5" font-family="Helvetica,sans-Serif" font-size="10.00">/cocos2d.h/extensions/network</text>
<text text-anchor="middle" x="83.5" y="-230.5" font-family="Helvetica,sans-Serif" font-size="10.00">/HttpRequest.h</text>
</a>
</g>
</g>
<!-- Node2 -->
<g id="node2" class="node">
<title>Node2</title>
<g id="a_node2"><a xlink:href="../../d3/d58/cocos-ext_8h.html" target="_top" xlink:title=" ">
<polygon fill="none" stroke="black" points="28.5,-0.5 28.5,-30.5 212.5,-30.5 212.5,-0.5 28.5,-0.5"/>
<text text-anchor="start" x="36.5" y="-18.5" font-family="Helvetica,sans-Serif" font-size="10.00">/home/runner/work/cocos2d.h</text>
<text text-anchor="middle" x="120.5" y="-7.5" font-family="Helvetica,sans-Serif" font-size="10.00">/cocos2d.h/extensions/cocos&#45;ext.h</text>
</a>
</g>
</g>
<!-- Node1&#45;&gt;Node2 -->
<g id="edge1" class="edge">
<title>Node1&#45;&gt;Node2</title>
<path fill="none" stroke="midnightblue" d="M61.47,-215.18C35.75,-179.05 0.12,-114.95 28.5,-67 38.52,-50.07 56.46,-38.43 73.86,-30.64"/>
<polygon fill="midnightblue" stroke="midnightblue" points="58.7,-217.31 67.43,-223.31 64.34,-213.17 58.7,-217.31"/>
</g>
<!-- Node3 -->
<g id="node3" class="node">
<title>Node3</title>
<g id="a_node3"><a xlink:href="../../d8/d12/_http_client_8h.html" target="_top" xlink:title=" ">
<polygon fill="none" stroke="black" points="37,-67.5 37,-108.5 204,-108.5 204,-67.5 37,-67.5"/>
<text text-anchor="start" x="45" y="-96.5" font-family="Helvetica,sans-Serif" font-size="10.00">/home/runner/work/cocos2d.h</text>
<text text-anchor="start" x="45" y="-85.5" font-family="Helvetica,sans-Serif" font-size="10.00">/cocos2d.h/extensions/network</text>
<text text-anchor="middle" x="120.5" y="-74.5" font-family="Helvetica,sans-Serif" font-size="10.00">/HttpClient.h</text>
</a>
</g>
</g>
<!-- Node1&#45;&gt;Node3 -->
<g id="edge2" class="edge">
<title>Node1&#45;&gt;Node3</title>
<path fill="none" stroke="midnightblue" d="M88.32,-213.2C91.72,-193.68 96.68,-167.66 102.5,-145 105.65,-132.73 109.97,-119.21 113.59,-108.53"/>
<polygon fill="midnightblue" stroke="midnightblue" points="84.83,-212.88 86.6,-223.32 91.73,-214.05 84.83,-212.88"/>
</g>
<!-- Node4 -->
<g id="node4" class="node">
<title>Node4</title>
<g id="a_node4"><a xlink:href="../../d1/d33/_http_response_8h.html" target="_top" xlink:title=" ">
<polygon fill="none" stroke="black" points="111,-145.5 111,-186.5 278,-186.5 278,-145.5 111,-145.5"/>
<text text-anchor="start" x="119" y="-174.5" font-family="Helvetica,sans-Serif" font-size="10.00">/home/runner/work/cocos2d.h</text>
<text text-anchor="start" x="119" y="-163.5" font-family="Helvetica,sans-Serif" font-size="10.00">/cocos2d.h/extensions/network</text>
<text text-anchor="middle" x="194.5" y="-152.5" font-family="Helvetica,sans-Serif" font-size="10.00">/HttpResponse.h</text>
</a>
</g>
</g>
<!-- Node1&#45;&gt;Node4 -->
<g id="edge4" class="edge">
<title>Node1&#45;&gt;Node4</title>
<path fill="none" stroke="midnightblue" d="M120.55,-217.64C135.37,-207.49 152.17,-195.98 166.01,-186.51"/>
<polygon fill="midnightblue" stroke="midnightblue" points="118.36,-214.89 112.09,-223.43 122.31,-220.67 118.36,-214.89"/>
</g>
<!-- Node3&#45;&gt;Node2 -->
<g id="edge3" class="edge">
<title>Node3&#45;&gt;Node2</title>
<path fill="none" stroke="midnightblue" d="M120.5,-57.08C120.5,-48.01 120.5,-38.45 120.5,-30.89"/>
<polygon fill="midnightblue" stroke="midnightblue" points="117,-57.36 120.5,-67.36 124,-57.36 117,-57.36"/>
</g>
<!-- Node4&#45;&gt;Node2 -->
<g id="edge5" class="edge">
<title>Node4&#45;&gt;Node2</title>
<path fill="none" stroke="midnightblue" d="M209.71,-136.02C218.23,-115.48 224.9,-87.95 212.5,-67 202.48,-50.07 184.54,-38.43 167.14,-30.64"/>
<polygon fill="midnightblue" stroke="midnightblue" points="206.49,-134.65 205.59,-145.2 212.87,-137.51 206.49,-134.65"/>
</g>
<!-- Node4&#45;&gt;Node3 -->
<g id="edge6" class="edge">
<title>Node4&#45;&gt;Node3</title>
<path fill="none" stroke="midnightblue" d="M168.41,-138.2C158.88,-128.42 148.29,-117.54 139.49,-108.51"/>
<polygon fill="midnightblue" stroke="midnightblue" points="165.96,-140.71 175.44,-145.43 170.97,-135.82 165.96,-140.71"/>
</g>
</g>
</svg>
