<?xml version="1.0" encoding="UTF-8" standalone="no"?>
<!DOCTYPE svg PUBLIC "-//W3C//DTD SVG 1.1//EN"
 "http://www.w3.org/Graphics/SVG/1.1/DTD/svg11.dtd">
<!-- Generated by graphviz version 2.43.0 (0)
 -->
<!-- Title: /home/runner/work/cocos2d.h/cocos2d.h/cocos2dx/textures/CCTextureETC.h Pages: 1 -->
<svg width="380pt" height="379pt"
 viewBox="0.00 0.00 379.50 379.00" xmlns="http://www.w3.org/2000/svg" xmlns:xlink="http://www.w3.org/1999/xlink">
<g id="graph0" class="graph" transform="scale(1 1) rotate(0) translate(4 375)">
<title>/home/runner/work/cocos2d.h/cocos2d.h/cocos2dx/textures/CCTextureETC.h</title>
<!-- Node1 -->
<g id="node1" class="node">
<title>Node1</title>
<g id="a_node1"><a xlink:title=" ">
<polygon fill="#999999" stroke="#666666" points="161,-371 0,-371 0,-330 161,-330 161,-371"/>
<text text-anchor="start" x="8" y="-359" font-family="Helvetica,sans-Serif" font-size="10.00">/home/runner/work/cocos2d.h</text>
<text text-anchor="start" x="8" y="-348" font-family="Helvetica,sans-Serif" font-size="10.00">/cocos2d.h/cocos2dx/textures</text>
<text text-anchor="middle" x="80.5" y="-337" font-family="Helvetica,sans-Serif" font-size="10.00">/CCTextureETC.h</text>
</a>
</g>
</g>
<!-- Node2 -->
<g id="node2" class="node">
<title>Node2</title>
<g id="a_node2"><a xlink:href="../../dd/d69/_c_c_object_8h.html" target="_top" xlink:title=" ">
<polygon fill="white" stroke="#666666" points="131.5,-294 29.5,-294 29.5,-275 131.5,-275 131.5,-294"/>
<text text-anchor="middle" x="80.5" y="-282" font-family="Helvetica,sans-Serif" font-size="10.00">cocoa/CCObject.h</text>
</a>
</g>
</g>
<!-- Node1&#45;&gt;Node2 -->
<g id="edge1" class="edge">
<title>Node1&#45;&gt;Node2</title>
<path fill="none" stroke="#63b8ff" d="M80.5,-329.95C80.5,-321.85 80.5,-312.5 80.5,-304.47"/>
<polygon fill="#63b8ff" stroke="#63b8ff" points="84,-304.26 80.5,-294.26 77,-304.26 84,-304.26"/>
</g>
<!-- Node4 -->
<g id="node4" class="node">
<title>Node4</title>
<g id="a_node4"><a xlink:href="../../d3/d41/_c_c_platform_macros_8h.html" target="_top" xlink:title=" ">
<polygon fill="white" stroke="#666666" points="164,-129 3,-129 3,-110 164,-110 164,-129"/>
<text text-anchor="middle" x="83.5" y="-117" font-family="Helvetica,sans-Serif" font-size="10.00">platform/CCPlatformMacros.h</text>
</a>
</g>
</g>
<!-- Node1&#45;&gt;Node4 -->
<g id="edge14" class="edge">
<title>Node1&#45;&gt;Node4</title>
<path fill="none" stroke="#63b8ff" d="M50.31,-329.89C38.71,-320.56 26.75,-308.3 20.5,-294 17.12,-286.26 20.19,-283.44 20.5,-275 21.39,-250.51 18.45,-243.75 24.5,-220 31.13,-193.98 35.71,-188.04 49.5,-165 55.3,-155.32 62.82,-145.27 69.32,-137.18"/>
<polygon fill="#63b8ff" stroke="#63b8ff" points="72.18,-139.22 75.84,-129.28 66.78,-134.77 72.18,-139.22"/>
</g>
<!-- Node12 -->
<g id="node12" class="node">
<title>Node12</title>
<g id="a_node12"><a xlink:title=" ">
<polygon fill="#e0e0e0" stroke="#999999" points="201.5,-294 149.5,-294 149.5,-275 201.5,-275 201.5,-294"/>
<text text-anchor="middle" x="175.5" y="-282" font-family="Helvetica,sans-Serif" font-size="10.00">CCGL.h</text>
</a>
</g>
</g>
<!-- Node1&#45;&gt;Node12 -->
<g id="edge15" class="edge">
<title>Node1&#45;&gt;Node12</title>
<path fill="none" stroke="#63b8ff" d="M109.52,-329.95C123.88,-320.27 140.92,-308.8 154.08,-299.93"/>
<polygon fill="#63b8ff" stroke="#63b8ff" points="156.16,-302.75 162.5,-294.26 152.25,-296.95 156.16,-302.75"/>
</g>
<!-- Node3 -->
<g id="node3" class="node">
<title>Node3</title>
<g id="a_node3"><a xlink:href="../../d9/d2d/_c_c_data_visitor_8h.html" target="_top" xlink:title=" ">
<polygon fill="white" stroke="#666666" points="127,-239 34,-239 34,-220 127,-220 127,-239"/>
<text text-anchor="middle" x="80.5" y="-227" font-family="Helvetica,sans-Serif" font-size="10.00">CCDataVisitor.h</text>
</a>
</g>
</g>
<!-- Node2&#45;&gt;Node3 -->
<g id="edge2" class="edge">
<title>Node2&#45;&gt;Node3</title>
<path fill="none" stroke="#63b8ff" d="M80.5,-274.75C80.5,-267.8 80.5,-257.85 80.5,-249.13"/>
<polygon fill="#63b8ff" stroke="#63b8ff" points="84,-249.09 80.5,-239.09 77,-249.09 84,-249.09"/>
</g>
<!-- Node9 -->
<g id="node9" class="node">
<title>Node9</title>
<g id="a_node9"><a xlink:href="../../d9/dc8/cc_macros_8h.html" target="_top" xlink:title=" ">
<polygon fill="white" stroke="#666666" points="271,-239 200,-239 200,-220 271,-220 271,-239"/>
<text text-anchor="middle" x="235.5" y="-227" font-family="Helvetica,sans-Serif" font-size="10.00">ccMacros.h</text>
</a>
</g>
</g>
<!-- Node2&#45;&gt;Node9 -->
<g id="edge9" class="edge">
<title>Node2&#45;&gt;Node9</title>
<path fill="none" stroke="#63b8ff" d="M105.4,-274.98C131.2,-266.16 171.72,-252.31 200.68,-242.41"/>
<polygon fill="#63b8ff" stroke="#63b8ff" points="202.07,-245.63 210.4,-239.08 199.81,-239.01 202.07,-245.63"/>
</g>
<!-- Node3&#45;&gt;Node4 -->
<g id="edge3" class="edge">
<title>Node3&#45;&gt;Node4</title>
<path fill="none" stroke="#63b8ff" d="M72.72,-219.66C63.06,-207.57 48.53,-185.1 54.5,-165 57.48,-154.98 63.5,-145.11 69.29,-137.22"/>
<polygon fill="#63b8ff" stroke="#63b8ff" points="72.13,-139.28 75.56,-129.25 66.63,-134.95 72.13,-139.28"/>
</g>
<!-- Node8 -->
<g id="node8" class="node">
<title>Node8</title>
<g id="a_node8"><a xlink:title=" ">
<polygon fill="#e0e0e0" stroke="#999999" points="107.5,-184 63.5,-184 63.5,-165 107.5,-165 107.5,-184"/>
<text text-anchor="middle" x="85.5" y="-172" font-family="Helvetica,sans-Serif" font-size="10.00">string</text>
</a>
</g>
</g>
<!-- Node3&#45;&gt;Node8 -->
<g id="edge8" class="edge">
<title>Node3&#45;&gt;Node8</title>
<path fill="none" stroke="#63b8ff" d="M81.33,-219.75C81.98,-212.8 82.92,-202.85 83.74,-194.13"/>
<polygon fill="#63b8ff" stroke="#63b8ff" points="87.23,-194.37 84.69,-184.09 80.27,-193.72 87.23,-194.37"/>
</g>
<!-- Node5 -->
<g id="node5" class="node">
<title>Node5</title>
<g id="a_node5"><a xlink:href="../../db/d9f/cc_config_8h.html" target="_top" xlink:title="cocos2d (cc) configuration file">
<polygon fill="white" stroke="#666666" points="268,-74 201,-74 201,-55 268,-55 268,-74"/>
<text text-anchor="middle" x="234.5" y="-62" font-family="Helvetica,sans-Serif" font-size="10.00">ccConfig.h</text>
</a>
</g>
</g>
<!-- Node4&#45;&gt;Node5 -->
<g id="edge4" class="edge">
<title>Node4&#45;&gt;Node5</title>
<path fill="none" stroke="#63b8ff" d="M107.76,-109.98C132.82,-101.19 172.13,-87.39 200.33,-77.49"/>
<polygon fill="#63b8ff" stroke="#63b8ff" points="201.52,-80.78 209.8,-74.17 199.2,-74.18 201.52,-80.78"/>
</g>
<!-- Node6 -->
<g id="node6" class="node">
<title>Node6</title>
<g id="a_node6"><a xlink:href="../../dd/d96/_c_c_platform_config_8h.html" target="_top" xlink:title=" ">
<polygon fill="white" stroke="#666666" points="216,-19 59,-19 59,0 216,0 216,-19"/>
<text text-anchor="middle" x="137.5" y="-7" font-family="Helvetica,sans-Serif" font-size="10.00">platform/CCPlatformConfig.h</text>
</a>
</g>
</g>
<!-- Node4&#45;&gt;Node6 -->
<g id="edge6" class="edge">
<title>Node4&#45;&gt;Node6</title>
<path fill="none" stroke="#63b8ff" d="M75.83,-109.87C65.61,-97.25 49.95,-73.28 60.5,-55 68.92,-40.41 84.15,-30.17 98.85,-23.23"/>
<polygon fill="#63b8ff" stroke="#63b8ff" points="100.57,-26.3 108.36,-19.13 97.79,-19.87 100.57,-26.3"/>
</g>
<!-- Node7 -->
<g id="node7" class="node">
<title>Node7</title>
<g id="a_node7"><a xlink:title=" ">
<polygon fill="#e0e0e0" stroke="#999999" points="183,-74 70,-74 70,-55 183,-55 183,-74"/>
<text text-anchor="middle" x="126.5" y="-62" font-family="Helvetica,sans-Serif" font-size="10.00">CCPlatformDefine.h</text>
</a>
</g>
</g>
<!-- Node4&#45;&gt;Node7 -->
<g id="edge7" class="edge">
<title>Node4&#45;&gt;Node7</title>
<path fill="none" stroke="#63b8ff" d="M90.6,-109.75C96.67,-102.26 105.59,-91.28 113.01,-82.13"/>
<polygon fill="#63b8ff" stroke="#63b8ff" points="115.95,-84.06 119.53,-74.09 110.51,-79.65 115.95,-84.06"/>
</g>
<!-- Node5&#45;&gt;Node6 -->
<g id="edge5" class="edge">
<title>Node5&#45;&gt;Node6</title>
<path fill="none" stroke="#63b8ff" d="M218.92,-54.98C203.73,-46.69 180.4,-33.94 162.6,-24.22"/>
<polygon fill="#63b8ff" stroke="#63b8ff" points="163.82,-20.89 153.37,-19.17 160.47,-27.04 163.82,-20.89"/>
</g>
<!-- Node9&#45;&gt;Node5 -->
<g id="edge13" class="edge">
<title>Node9&#45;&gt;Node5</title>
<path fill="none" stroke="#63b8ff" d="M242.65,-219.97C249.27,-211.48 258.65,-197.75 262.5,-184 272.42,-148.53 255.87,-106.46 244.28,-83.19"/>
<polygon fill="#63b8ff" stroke="#63b8ff" points="247.31,-81.42 239.57,-74.19 241.1,-84.67 247.31,-81.42"/>
</g>
<!-- Node10 -->
<g id="node10" class="node">
<title>Node10</title>
<g id="a_node10"><a xlink:href="../../d5/d22/_c_c_common_8h.html" target="_top" xlink:title=" ">
<polygon fill="white" stroke="#666666" points="253.5,-184 125.5,-184 125.5,-165 253.5,-165 253.5,-184"/>
<text text-anchor="middle" x="189.5" y="-172" font-family="Helvetica,sans-Serif" font-size="10.00">platform/CCCommon.h</text>
</a>
</g>
</g>
<!-- Node9&#45;&gt;Node10 -->
<g id="edge10" class="edge">
<title>Node9&#45;&gt;Node10</title>
<path fill="none" stroke="#63b8ff" d="M227.9,-219.75C221.34,-212.18 211.68,-201.05 203.69,-191.84"/>
<polygon fill="#63b8ff" stroke="#63b8ff" points="206.15,-189.35 196.95,-184.09 200.87,-193.94 206.15,-189.35"/>
</g>
<!-- Node11 -->
<g id="node11" class="node">
<title>Node11</title>
<g id="a_node11"><a xlink:title=" ">
<polygon fill="#e0e0e0" stroke="#999999" points="371.5,-184 309.5,-184 309.5,-165 371.5,-165 371.5,-184"/>
<text text-anchor="middle" x="340.5" y="-172" font-family="Helvetica,sans-Serif" font-size="10.00">CCStdC.h</text>
</a>
</g>
</g>
<!-- Node9&#45;&gt;Node11 -->
<g id="edge12" class="edge">
<title>Node9&#45;&gt;Node11</title>
<path fill="none" stroke="#63b8ff" d="M252.37,-219.98C269.11,-211.54 295,-198.47 314.39,-188.68"/>
<polygon fill="#63b8ff" stroke="#63b8ff" points="315.97,-191.8 323.32,-184.17 312.82,-185.55 315.97,-191.8"/>
</g>
<!-- Node10&#45;&gt;Node4 -->
<g id="edge11" class="edge">
<title>Node10&#45;&gt;Node4</title>
<path fill="none" stroke="#63b8ff" d="M172.47,-164.98C155.57,-156.54 129.44,-143.47 109.86,-133.68"/>
<polygon fill="#63b8ff" stroke="#63b8ff" points="111.35,-130.51 100.84,-129.17 108.22,-136.77 111.35,-130.51"/>
</g>
</g>
</svg>
