<?xml version="1.0" encoding="UTF-8" standalone="no"?>
<!DOCTYPE svg PUBLIC "-//W3C//DTD SVG 1.1//EN"
 "http://www.w3.org/Graphics/SVG/1.1/DTD/svg11.dtd">
<!-- Generated by graphviz version 2.43.0 (0)
 -->
<!-- Title: /home/runner/work/cocos2d.h/cocos2d.h/cocos2dx/textures/CCTextureETC.h Pages: 1 -->
<svg width="380pt" height="386pt"
 viewBox="0.00 0.00 379.50 386.00" xmlns="http://www.w3.org/2000/svg" xmlns:xlink="http://www.w3.org/1999/xlink">
<g id="graph0" class="graph" transform="scale(1 1) rotate(0) translate(4 382)">
<title>/home/runner/work/cocos2d.h/cocos2d.h/cocos2dx/textures/CCTextureETC.h</title>
<!-- Node1 -->
<g id="node1" class="node">
<title>Node1</title>
<g id="a_node1"><a xlink:title=" ">
<polygon fill="#bfbfbf" stroke="black" points="0,-336.5 0,-377.5 161,-377.5 161,-336.5 0,-336.5"/>
<text text-anchor="start" x="8" y="-365.5" font-family="Helvetica,sans-Serif" font-size="10.00">/home/runner/work/cocos2d.h</text>
<text text-anchor="start" x="8" y="-354.5" font-family="Helvetica,sans-Serif" font-size="10.00">/cocos2d.h/cocos2dx/textures</text>
<text text-anchor="middle" x="80.5" y="-343.5" font-family="Helvetica,sans-Serif" font-size="10.00">/CCTextureETC.h</text>
</a>
</g>
</g>
<!-- Node2 -->
<g id="node2" class="node">
<title>Node2</title>
<g id="a_node2"><a xlink:href="../../dd/d69/_c_c_object_8h.html" target="_top" xlink:title=" ">
<polygon fill="none" stroke="black" points="29.5,-280.5 29.5,-299.5 131.5,-299.5 131.5,-280.5 29.5,-280.5"/>
<text text-anchor="middle" x="80.5" y="-287.5" font-family="Helvetica,sans-Serif" font-size="10.00">cocoa/CCObject.h</text>
</a>
</g>
</g>
<!-- Node1&#45;&gt;Node2 -->
<g id="edge1" class="edge">
<title>Node1&#45;&gt;Node2</title>
<path fill="none" stroke="midnightblue" d="M80.5,-336.5C80.5,-328.07 80.5,-318.24 80.5,-309.87"/>
<polygon fill="midnightblue" stroke="midnightblue" points="84,-309.65 80.5,-299.65 77,-309.65 84,-309.65"/>
</g>
<!-- Node4 -->
<g id="node4" class="node">
<title>Node4</title>
<g id="a_node4"><a xlink:href="../../d3/d41/_c_c_platform_macros_8h.html" target="_top" xlink:title=" ">
<polygon fill="none" stroke="black" points="3,-112.5 3,-131.5 164,-131.5 164,-112.5 3,-112.5"/>
<text text-anchor="middle" x="83.5" y="-119.5" font-family="Helvetica,sans-Serif" font-size="10.00">platform/CCPlatformMacros.h</text>
</a>
</g>
</g>
<!-- Node1&#45;&gt;Node4 -->
<g id="edge14" class="edge">
<title>Node1&#45;&gt;Node4</title>
<path fill="none" stroke="midnightblue" d="M50.63,-336.42C38.92,-326.96 26.8,-314.51 20.5,-300 16.96,-291.85 20.18,-288.88 20.5,-280 21.39,-255.06 18.43,-248.2 24.5,-224 31.13,-197.56 35.64,-191.47 49.5,-168 55.41,-157.99 63.16,-147.58 69.76,-139.3"/>
<polygon fill="midnightblue" stroke="midnightblue" points="72.48,-141.5 76.1,-131.55 67.06,-137.07 72.48,-141.5"/>
</g>
<!-- Node12 -->
<g id="node12" class="node">
<title>Node12</title>
<g id="a_node12"><a xlink:title=" ">
<polygon fill="none" stroke="#bfbfbf" points="149.5,-280.5 149.5,-299.5 201.5,-299.5 201.5,-280.5 149.5,-280.5"/>
<text text-anchor="middle" x="175.5" y="-287.5" font-family="Helvetica,sans-Serif" font-size="10.00">CCGL.h</text>
</a>
</g>
</g>
<!-- Node1&#45;&gt;Node12 -->
<g id="edge15" class="edge">
<title>Node1&#45;&gt;Node12</title>
<path fill="none" stroke="midnightblue" d="M109,-336.5C123.57,-326.53 140.99,-314.61 154.34,-305.48"/>
<polygon fill="midnightblue" stroke="midnightblue" points="156.58,-308.19 162.85,-299.65 152.62,-302.41 156.58,-308.19"/>
</g>
<!-- Node3 -->
<g id="node3" class="node">
<title>Node3</title>
<g id="a_node3"><a xlink:href="../../d9/d2d/_c_c_data_visitor_8h.html" target="_top" xlink:title=" ">
<polygon fill="none" stroke="black" points="34,-224.5 34,-243.5 127,-243.5 127,-224.5 34,-224.5"/>
<text text-anchor="middle" x="80.5" y="-231.5" font-family="Helvetica,sans-Serif" font-size="10.00">CCDataVisitor.h</text>
</a>
</g>
</g>
<!-- Node2&#45;&gt;Node3 -->
<g id="edge2" class="edge">
<title>Node2&#45;&gt;Node3</title>
<path fill="none" stroke="midnightblue" d="M80.5,-280.08C80.5,-273.01 80.5,-262.86 80.5,-253.99"/>
<polygon fill="midnightblue" stroke="midnightblue" points="84,-253.75 80.5,-243.75 77,-253.75 84,-253.75"/>
</g>
<!-- Node9 -->
<g id="node9" class="node">
<title>Node9</title>
<g id="a_node9"><a xlink:href="../../d9/dc8/cc_macros_8h.html" target="_top" xlink:title=" ">
<polygon fill="none" stroke="black" points="200,-224.5 200,-243.5 271,-243.5 271,-224.5 200,-224.5"/>
<text text-anchor="middle" x="235.5" y="-231.5" font-family="Helvetica,sans-Serif" font-size="10.00">ccMacros.h</text>
</a>
</g>
</g>
<!-- Node2&#45;&gt;Node9 -->
<g id="edge9" class="edge">
<title>Node2&#45;&gt;Node9</title>
<path fill="none" stroke="midnightblue" d="M105.06,-280.44C131.02,-271.4 172.17,-257.06 201.3,-246.92"/>
<polygon fill="midnightblue" stroke="midnightblue" points="202.76,-250.11 211.05,-243.52 200.46,-243.5 202.76,-250.11"/>
</g>
<!-- Node3&#45;&gt;Node4 -->
<g id="edge3" class="edge">
<title>Node3&#45;&gt;Node4</title>
<path fill="none" stroke="midnightblue" d="M73.03,-224.35C63.35,-212.07 48.39,-188.75 54.5,-168 57.51,-157.76 63.65,-147.66 69.51,-139.63"/>
<polygon fill="midnightblue" stroke="midnightblue" points="72.43,-141.58 75.83,-131.54 66.91,-137.27 72.43,-141.58"/>
</g>
<!-- Node8 -->
<g id="node8" class="node">
<title>Node8</title>
<g id="a_node8"><a xlink:title=" ">
<polygon fill="none" stroke="#bfbfbf" points="63.5,-168.5 63.5,-187.5 107.5,-187.5 107.5,-168.5 63.5,-168.5"/>
<text text-anchor="middle" x="85.5" y="-175.5" font-family="Helvetica,sans-Serif" font-size="10.00">string</text>
</a>
</g>
</g>
<!-- Node3&#45;&gt;Node8 -->
<g id="edge8" class="edge">
<title>Node3&#45;&gt;Node8</title>
<path fill="none" stroke="midnightblue" d="M81.33,-224.08C81.98,-217.01 82.92,-206.86 83.74,-197.99"/>
<polygon fill="midnightblue" stroke="midnightblue" points="87.25,-198.03 84.69,-187.75 80.28,-197.39 87.25,-198.03"/>
</g>
<!-- Node5 -->
<g id="node5" class="node">
<title>Node5</title>
<g id="a_node5"><a xlink:href="../../db/d9f/cc_config_8h.html" target="_top" xlink:title="cocos2d (cc) configuration file">
<polygon fill="none" stroke="black" points="201,-56.5 201,-75.5 268,-75.5 268,-56.5 201,-56.5"/>
<text text-anchor="middle" x="234.5" y="-63.5" font-family="Helvetica,sans-Serif" font-size="10.00">ccConfig.h</text>
</a>
</g>
</g>
<!-- Node4&#45;&gt;Node5 -->
<g id="edge4" class="edge">
<title>Node4&#45;&gt;Node5</title>
<path fill="none" stroke="midnightblue" d="M107.43,-112.44C132.72,-103.4 172.8,-89.06 201.18,-78.92"/>
<polygon fill="midnightblue" stroke="midnightblue" points="202.45,-82.18 210.69,-75.52 200.09,-75.59 202.45,-82.18"/>
</g>
<!-- Node6 -->
<g id="node6" class="node">
<title>Node6</title>
<g id="a_node6"><a xlink:href="../../dd/d96/_c_c_platform_config_8h.html" target="_top" xlink:title=" ">
<polygon fill="none" stroke="black" points="59,-0.5 59,-19.5 216,-19.5 216,-0.5 59,-0.5"/>
<text text-anchor="middle" x="137.5" y="-7.5" font-family="Helvetica,sans-Serif" font-size="10.00">platform/CCPlatformConfig.h</text>
</a>
</g>
</g>
<!-- Node4&#45;&gt;Node6 -->
<g id="edge6" class="edge">
<title>Node4&#45;&gt;Node6</title>
<path fill="none" stroke="midnightblue" d="M75.79,-112.16C65.5,-99.23 49.78,-74.69 60.5,-56 69.12,-40.99 84.89,-30.5 99.93,-23.46"/>
<polygon fill="midnightblue" stroke="midnightblue" points="101.32,-26.67 109.13,-19.51 98.56,-20.24 101.32,-26.67"/>
</g>
<!-- Node7 -->
<g id="node7" class="node">
<title>Node7</title>
<g id="a_node7"><a xlink:title=" ">
<polygon fill="none" stroke="#bfbfbf" points="70,-56.5 70,-75.5 183,-75.5 183,-56.5 70,-56.5"/>
<text text-anchor="middle" x="126.5" y="-63.5" font-family="Helvetica,sans-Serif" font-size="10.00">CCPlatformDefine.h</text>
</a>
</g>
</g>
<!-- Node4&#45;&gt;Node7 -->
<g id="edge7" class="edge">
<title>Node4&#45;&gt;Node7</title>
<path fill="none" stroke="midnightblue" d="M90.6,-112.08C96.74,-104.38 105.77,-93.03 113.24,-83.65"/>
<polygon fill="midnightblue" stroke="midnightblue" points="116.04,-85.75 119.53,-75.75 110.56,-81.39 116.04,-85.75"/>
</g>
<!-- Node5&#45;&gt;Node6 -->
<g id="edge5" class="edge">
<title>Node5&#45;&gt;Node6</title>
<path fill="none" stroke="midnightblue" d="M218.92,-56.32C203.5,-47.74 179.69,-34.49 161.79,-24.52"/>
<polygon fill="midnightblue" stroke="midnightblue" points="163.49,-21.46 153.05,-19.65 160.08,-27.58 163.49,-21.46"/>
</g>
<!-- Node9&#45;&gt;Node5 -->
<g id="edge13" class="edge">
<title>Node9&#45;&gt;Node5</title>
<path fill="none" stroke="midnightblue" d="M242.65,-224.36C249.27,-215.76 258.66,-201.87 262.5,-188 272.58,-151.62 255.77,-108.4 244.14,-84.72"/>
<polygon fill="midnightblue" stroke="midnightblue" points="247.12,-82.85 239.42,-75.57 240.9,-86.06 247.12,-82.85"/>
</g>
<!-- Node10 -->
<g id="node10" class="node">
<title>Node10</title>
<g id="a_node10"><a xlink:href="../../d5/d22/_c_c_common_8h.html" target="_top" xlink:title=" ">
<polygon fill="none" stroke="black" points="125.5,-168.5 125.5,-187.5 253.5,-187.5 253.5,-168.5 125.5,-168.5"/>
<text text-anchor="middle" x="189.5" y="-175.5" font-family="Helvetica,sans-Serif" font-size="10.00">platform/CCCommon.h</text>
</a>
</g>
</g>
<!-- Node9&#45;&gt;Node10 -->
<g id="edge10" class="edge">
<title>Node9&#45;&gt;Node10</title>
<path fill="none" stroke="midnightblue" d="M227.9,-224.08C221.27,-216.3 211.48,-204.8 203.44,-195.37"/>
<polygon fill="midnightblue" stroke="midnightblue" points="206.1,-193.09 196.95,-187.75 200.77,-197.63 206.1,-193.09"/>
</g>
<!-- Node11 -->
<g id="node11" class="node">
<title>Node11</title>
<g id="a_node11"><a xlink:title=" ">
<polygon fill="none" stroke="#bfbfbf" points="309.5,-168.5 309.5,-187.5 371.5,-187.5 371.5,-168.5 309.5,-168.5"/>
<text text-anchor="middle" x="340.5" y="-175.5" font-family="Helvetica,sans-Serif" font-size="10.00">CCStdC.h</text>
</a>
</g>
</g>
<!-- Node9&#45;&gt;Node11 -->
<g id="edge12" class="edge">
<title>Node9&#45;&gt;Node11</title>
<path fill="none" stroke="midnightblue" d="M252.37,-224.32C269.21,-215.66 295.31,-202.24 314.74,-192.25"/>
<polygon fill="midnightblue" stroke="midnightblue" points="316.38,-195.34 323.67,-187.65 313.18,-189.12 316.38,-195.34"/>
</g>
<!-- Node10&#45;&gt;Node4 -->
<g id="edge11" class="edge">
<title>Node10&#45;&gt;Node4</title>
<path fill="none" stroke="midnightblue" d="M172.47,-168.32C155.47,-159.66 129.12,-146.24 109.51,-136.25"/>
<polygon fill="midnightblue" stroke="midnightblue" points="110.99,-133.08 100.49,-131.65 107.81,-139.31 110.99,-133.08"/>
</g>
</g>
</svg>
