<?xml version="1.0" encoding="UTF-8" standalone="no"?>
<!DOCTYPE svg PUBLIC "-//W3C//DTD SVG 1.1//EN"
 "http://www.w3.org/Graphics/SVG/1.1/DTD/svg11.dtd">
<!-- Generated by graphviz version 2.43.0 (0)
 -->
<!-- Title: /home/runner/work/cocos2d.h/cocos2d.h/extensions/GUI/CCScrollView/CCScrollView.h Pages: 1 -->
<svg width="235pt" height="192pt"
 viewBox="0.00 0.00 234.50 192.00" xmlns="http://www.w3.org/2000/svg" xmlns:xlink="http://www.w3.org/1999/xlink">
<g id="graph0" class="graph" transform="scale(1 1) rotate(0) translate(4 188)">
<title>/home/runner/work/cocos2d.h/cocos2d.h/extensions/GUI/CCScrollView/CCScrollView.h</title>
<!-- Node1 -->
<g id="node1" class="node">
<title>Node1</title>
<g id="a_node1"><a xlink:title=" ">
<polygon fill="#999999" stroke="#666666" points="215,-184 54,-184 54,-143 215,-143 215,-184"/>
<text text-anchor="start" x="62" y="-172" font-family="Helvetica,sans-Serif" font-size="10.00">/home/runner/work/cocos2d.h</text>
<text text-anchor="start" x="62" y="-161" font-family="Helvetica,sans-Serif" font-size="10.00">/cocos2d.h/extensions/GUI</text>
<text text-anchor="middle" x="134.5" y="-150" font-family="Helvetica,sans-Serif" font-size="10.00">/CCScrollView/CCScrollView.h</text>
</a>
</g>
</g>
<!-- Node2 -->
<g id="node2" class="node">
<title>Node2</title>
<g id="a_node2"><a xlink:href="../../d8/dbb/_c_c_table_view_8h.html" target="_top" xlink:title=" ">
<polygon fill="white" stroke="#666666" points="161,-107 0,-107 0,-66 161,-66 161,-107"/>
<text text-anchor="start" x="8" y="-95" font-family="Helvetica,sans-Serif" font-size="10.00">/home/runner/work/cocos2d.h</text>
<text text-anchor="start" x="8" y="-84" font-family="Helvetica,sans-Serif" font-size="10.00">/cocos2d.h/extensions/GUI</text>
<text text-anchor="middle" x="80.5" y="-73" font-family="Helvetica,sans-Serif" font-size="10.00">/CCScrollView/CCTableView.h</text>
</a>
</g>
</g>
<!-- Node1&#45;&gt;Node2 -->
<g id="edge1" class="edge">
<title>Node1&#45;&gt;Node2</title>
<path fill="none" stroke="#63b8ff" d="M114.46,-134.67C107.86,-125.5 100.66,-115.5 94.59,-107.07"/>
<polygon fill="#63b8ff" stroke="#63b8ff" points="111.63,-136.72 120.31,-142.79 117.31,-132.63 111.63,-136.72"/>
</g>
<!-- Node3 -->
<g id="node3" class="node">
<title>Node3</title>
<g id="a_node3"><a xlink:href="../../d3/d58/cocos-ext_8h.html" target="_top" xlink:title=" ">
<polygon fill="white" stroke="#666666" points="226.5,-30 42.5,-30 42.5,0 226.5,0 226.5,-30"/>
<text text-anchor="start" x="50.5" y="-18" font-family="Helvetica,sans-Serif" font-size="10.00">/home/runner/work/cocos2d.h</text>
<text text-anchor="middle" x="134.5" y="-7" font-family="Helvetica,sans-Serif" font-size="10.00">/cocos2d.h/extensions/cocos&#45;ext.h</text>
</a>
</g>
</g>
<!-- Node1&#45;&gt;Node3 -->
<g id="edge3" class="edge">
<title>Node1&#45;&gt;Node3</title>
<path fill="none" stroke="#63b8ff" d="M157.04,-134.57C162.53,-126.19 167.65,-116.64 170.5,-107 175.67,-89.53 176.09,-83.34 170.5,-66 166.17,-52.56 156.73,-39.69 148.61,-30.37"/>
<polygon fill="#63b8ff" stroke="#63b8ff" points="154.12,-132.63 151.25,-142.83 159.85,-136.65 154.12,-132.63"/>
</g>
<!-- Node2&#45;&gt;Node3 -->
<g id="edge2" class="edge">
<title>Node2&#45;&gt;Node3</title>
<path fill="none" stroke="#63b8ff" d="M102.11,-57.69C109.49,-48.19 117.42,-37.98 123.59,-30.04"/>
<polygon fill="#63b8ff" stroke="#63b8ff" points="99.2,-55.73 95.83,-65.77 104.73,-60.02 99.2,-55.73"/>
</g>
</g>
</svg>
