<?xml version="1.0" encoding="UTF-8" standalone="no"?>
<!DOCTYPE svg PUBLIC "-//W3C//DTD SVG 1.1//EN"
 "http://www.w3.org/Graphics/SVG/1.1/DTD/svg11.dtd">
<!-- Generated by graphviz version 2.43.0 (0)
 -->
<!-- Title: /home/runner/work/cocos2d.h/cocos2d.h/extensions/GUI/CCControlExtension/CCControlUtils.h Pages: 1 -->
<svg width="1389pt" height="618pt"
 viewBox="0.00 0.00 1388.68 618.00" xmlns="http://www.w3.org/2000/svg" xmlns:xlink="http://www.w3.org/1999/xlink">
<g id="graph0" class="graph" transform="scale(1 1) rotate(0) translate(4 614)">
<title>/home/runner/work/cocos2d.h/cocos2d.h/extensions/GUI/CCControlExtension/CCControlUtils.h</title>
<!-- Node1 -->
<g id="node1" class="node">
<title>Node1</title>
<g id="a_node1"><a xlink:title=" ">
<polygon fill="#bfbfbf" stroke="black" points="269.18,-568.5 269.18,-609.5 469.18,-609.5 469.18,-568.5 269.18,-568.5"/>
<text text-anchor="start" x="277.18" y="-597.5" font-family="Helvetica,sans-Serif" font-size="10.00">/home/runner/work/cocos2d.h</text>
<text text-anchor="start" x="277.18" y="-586.5" font-family="Helvetica,sans-Serif" font-size="10.00">/cocos2d.h/extensions/GUI</text>
<text text-anchor="middle" x="369.18" y="-575.5" font-family="Helvetica,sans-Serif" font-size="10.00">/CCControlExtension/CCControlUtils.h</text>
</a>
</g>
</g>
<!-- Node2 -->
<g id="node2" class="node">
<title>Node2</title>
<g id="a_node2"><a xlink:href="../../de/d8b/_c_c_control_8h.html" target="_top" xlink:title=" ">
<polygon fill="none" stroke="black" points="681.68,-490.5 681.68,-531.5 858.68,-531.5 858.68,-490.5 681.68,-490.5"/>
<text text-anchor="start" x="689.68" y="-519.5" font-family="Helvetica,sans-Serif" font-size="10.00">/home/runner/work/cocos2d.h</text>
<text text-anchor="start" x="689.68" y="-508.5" font-family="Helvetica,sans-Serif" font-size="10.00">/cocos2d.h/extensions/GUI</text>
<text text-anchor="middle" x="770.18" y="-497.5" font-family="Helvetica,sans-Serif" font-size="10.00">/CCControlExtension/CCControl.h</text>
</a>
</g>
</g>
<!-- Node1&#45;&gt;Node2 -->
<g id="edge1" class="edge">
<title>Node1&#45;&gt;Node2</title>
<path fill="none" stroke="midnightblue" d="M479.41,-567.11C543.02,-555.05 621.96,-540.09 681.53,-528.8"/>
<polygon fill="midnightblue" stroke="midnightblue" points="478.51,-563.72 469.33,-569.02 479.81,-570.59 478.51,-563.72"/>
</g>
<!-- Node14 -->
<g id="node14" class="node">
<title>Node14</title>
<g id="a_node14"><a xlink:href="../../d3/db7/_c_c_control_colour_picker_8h.html" target="_top" xlink:title=" ">
<polygon fill="none" stroke="black" points="88.18,-312.5 88.18,-364.5 288.18,-364.5 288.18,-312.5 88.18,-312.5"/>
<text text-anchor="start" x="96.18" y="-352.5" font-family="Helvetica,sans-Serif" font-size="10.00">/home/runner/work/cocos2d.h</text>
<text text-anchor="start" x="96.18" y="-341.5" font-family="Helvetica,sans-Serif" font-size="10.00">/cocos2d.h/extensions/GUI</text>
<text text-anchor="start" x="96.18" y="-330.5" font-family="Helvetica,sans-Serif" font-size="10.00">/CCControlExtension/CCControlColour</text>
<text text-anchor="middle" x="188.18" y="-319.5" font-family="Helvetica,sans-Serif" font-size="10.00">Picker.h</text>
</a>
</g>
</g>
<!-- Node1&#45;&gt;Node14 -->
<g id="edge31" class="edge">
<title>Node1&#45;&gt;Node14</title>
<path fill="none" stroke="midnightblue" d="M258.9,-579.38C175.35,-566.39 65.77,-534.09 10.18,-454 -3.25,-434.65 -3.49,-420.18 10.18,-401 28.39,-375.44 57.98,-360.4 87.84,-351.58"/>
<polygon fill="midnightblue" stroke="midnightblue" points="258.55,-582.87 268.95,-580.87 259.57,-575.94 258.55,-582.87"/>
</g>
<!-- Node3 -->
<g id="node3" class="node">
<title>Node3</title>
<g id="a_node3"><a xlink:href="../../d0/d7e/_c_c_control_button_8h.html" target="_top" xlink:title=" ">
<polygon fill="none" stroke="black" points="1140.68,-318 1140.68,-359 1349.68,-359 1349.68,-318 1140.68,-318"/>
<text text-anchor="start" x="1148.68" y="-347" font-family="Helvetica,sans-Serif" font-size="10.00">/home/runner/work/cocos2d.h</text>
<text text-anchor="start" x="1148.68" y="-336" font-family="Helvetica,sans-Serif" font-size="10.00">/cocos2d.h/extensions/GUI</text>
<text text-anchor="middle" x="1245.18" y="-325" font-family="Helvetica,sans-Serif" font-size="10.00">/CCControlExtension/CCControlButton.h</text>
</a>
</g>
</g>
<!-- Node2&#45;&gt;Node3 -->
<g id="edge2" class="edge">
<title>Node2&#45;&gt;Node3</title>
<path fill="none" stroke="midnightblue" d="M869.07,-501.15C958.34,-491.95 1082.21,-475.84 1126.18,-454 1171.62,-431.42 1211.11,-385.33 1231.16,-359.03"/>
<polygon fill="midnightblue" stroke="midnightblue" points="868.5,-497.69 858.91,-502.18 869.21,-504.65 868.5,-497.69"/>
</g>
<!-- Node4 -->
<g id="node4" class="node">
<title>Node4</title>
<g id="a_node4"><a xlink:href="../../d6/d86/_c_c_control_extensions_8h.html" target="_top" xlink:title=" ">
<polygon fill="none" stroke="black" points="824.18,-234.5 824.18,-275.5 1054.18,-275.5 1054.18,-234.5 824.18,-234.5"/>
<text text-anchor="start" x="832.18" y="-263.5" font-family="Helvetica,sans-Serif" font-size="10.00">/home/runner/work/cocos2d.h</text>
<text text-anchor="start" x="832.18" y="-252.5" font-family="Helvetica,sans-Serif" font-size="10.00">/cocos2d.h/extensions/GUI</text>
<text text-anchor="middle" x="939.18" y="-241.5" font-family="Helvetica,sans-Serif" font-size="10.00">/CCControlExtension/CCControlExtensions.h</text>
</a>
</g>
</g>
<!-- Node2&#45;&gt;Node4 -->
<g id="edge16" class="edge">
<title>Node2&#45;&gt;Node4</title>
<path fill="none" stroke="midnightblue" d="M868.94,-506.43C953.13,-501.07 1064.87,-487.63 1093.18,-454 1114.58,-428.56 1078.19,-317.97 1073.18,-312 1059.4,-295.58 1040,-283.89 1020.23,-275.6"/>
<polygon fill="midnightblue" stroke="midnightblue" points="868.58,-502.95 858.82,-507.05 869.01,-509.93 868.58,-502.95"/>
</g>
<!-- Node2&#45;&gt;Node14 -->
<g id="edge14" class="edge">
<title>Node2&#45;&gt;Node14</title>
<path fill="none" stroke="midnightblue" d="M671.52,-509.88C479.01,-508.61 68.24,-500.42 25.18,-454 9.16,-436.73 11.78,-420.37 25.18,-401 40.06,-379.48 63.49,-365.48 88,-356.38"/>
<polygon fill="midnightblue" stroke="midnightblue" points="671.62,-513.38 681.64,-509.94 671.66,-506.38 671.62,-513.38"/>
</g>
<!-- Node15 -->
<g id="node15" class="node">
<title>Node15</title>
<g id="a_node15"><a xlink:href="../../dd/d5a/_c_c_control_hue_picker_8h.html" target="_top" xlink:title=" ">
<polygon fill="none" stroke="black" points="34.68,-407 34.68,-448 259.68,-448 259.68,-407 34.68,-407"/>
<text text-anchor="start" x="42.68" y="-436" font-family="Helvetica,sans-Serif" font-size="10.00">/home/runner/work/cocos2d.h</text>
<text text-anchor="start" x="42.68" y="-425" font-family="Helvetica,sans-Serif" font-size="10.00">/cocos2d.h/extensions/GUI</text>
<text text-anchor="middle" x="147.18" y="-414" font-family="Helvetica,sans-Serif" font-size="10.00">/CCControlExtension/CCControlHuePicker.h</text>
</a>
</g>
</g>
<!-- Node2&#45;&gt;Node15 -->
<g id="edge17" class="edge">
<title>Node2&#45;&gt;Node15</title>
<path fill="none" stroke="midnightblue" d="M671.38,-501.74C570.06,-492.62 408.08,-476.23 269.18,-454 258.28,-452.26 246.88,-450.2 235.62,-448.01"/>
<polygon fill="midnightblue" stroke="midnightblue" points="671.33,-505.25 681.6,-502.66 671.95,-498.28 671.33,-505.25"/>
</g>
<!-- Node16 -->
<g id="node16" class="node">
<title>Node16</title>
<g id="a_node16"><a xlink:href="../../d2/d29/_c_c_control_potentiometer_8h.html" target="_top" xlink:title=" ">
<polygon fill="none" stroke="black" points="346.18,-318 346.18,-359 592.18,-359 592.18,-318 346.18,-318"/>
<text text-anchor="start" x="354.18" y="-347" font-family="Helvetica,sans-Serif" font-size="10.00">/home/runner/work/cocos2d.h</text>
<text text-anchor="start" x="354.18" y="-336" font-family="Helvetica,sans-Serif" font-size="10.00">/cocos2d.h/extensions/GUI</text>
<text text-anchor="middle" x="469.18" y="-325" font-family="Helvetica,sans-Serif" font-size="10.00">/CCControlExtension/CCControlPotentiometer.h</text>
</a>
</g>
</g>
<!-- Node2&#45;&gt;Node16 -->
<g id="edge19" class="edge">
<title>Node2&#45;&gt;Node16</title>
<path fill="none" stroke="midnightblue" d="M773.36,-480.03C774.21,-455.57 771.1,-421.78 751.18,-401 747.82,-397.5 645.15,-375.69 564.66,-359.03"/>
<polygon fill="midnightblue" stroke="midnightblue" points="769.86,-480.01 772.77,-490.2 776.84,-480.42 769.86,-480.01"/>
</g>
<!-- Node17 -->
<g id="node17" class="node">
<title>Node17</title>
<g id="a_node17"><a xlink:href="../../de/d08/_c_c_control_saturation_brightness_picker_8h.html" target="_top" xlink:title=" ">
<polygon fill="none" stroke="black" points="278.18,-401.5 278.18,-453.5 496.18,-453.5 496.18,-401.5 278.18,-401.5"/>
<text text-anchor="start" x="286.18" y="-441.5" font-family="Helvetica,sans-Serif" font-size="10.00">/home/runner/work/cocos2d.h</text>
<text text-anchor="start" x="286.18" y="-430.5" font-family="Helvetica,sans-Serif" font-size="10.00">/cocos2d.h/extensions/GUI</text>
<text text-anchor="start" x="286.18" y="-419.5" font-family="Helvetica,sans-Serif" font-size="10.00">/CCControlExtension/CCControlSaturation</text>
<text text-anchor="middle" x="387.18" y="-408.5" font-family="Helvetica,sans-Serif" font-size="10.00">BrightnessPicker.h</text>
</a>
</g>
</g>
<!-- Node2&#45;&gt;Node17 -->
<g id="edge21" class="edge">
<title>Node2&#45;&gt;Node17</title>
<path fill="none" stroke="midnightblue" d="M671.48,-489.12C621.88,-478.61 560.84,-465.65 506.18,-454 502.97,-453.32 499.72,-452.62 496.44,-451.92"/>
<polygon fill="midnightblue" stroke="midnightblue" points="671.06,-492.6 681.57,-491.25 672.51,-485.75 671.06,-492.6"/>
</g>
<!-- Node18 -->
<g id="node18" class="node">
<title>Node18</title>
<g id="a_node18"><a xlink:href="../../d6/d7e/_c_c_control_slider_8h.html" target="_top" xlink:title=" ">
<polygon fill="none" stroke="black" points="610.18,-318 610.18,-359 814.18,-359 814.18,-318 610.18,-318"/>
<text text-anchor="start" x="618.18" y="-347" font-family="Helvetica,sans-Serif" font-size="10.00">/home/runner/work/cocos2d.h</text>
<text text-anchor="start" x="618.18" y="-336" font-family="Helvetica,sans-Serif" font-size="10.00">/cocos2d.h/extensions/GUI</text>
<text text-anchor="middle" x="712.18" y="-325" font-family="Helvetica,sans-Serif" font-size="10.00">/CCControlExtension/CCControlSlider.h</text>
</a>
</g>
</g>
<!-- Node2&#45;&gt;Node18 -->
<g id="edge23" class="edge">
<title>Node2&#45;&gt;Node18</title>
<path fill="none" stroke="midnightblue" d="M782.25,-480.69C789.69,-457.96 795.8,-426.21 784.18,-401 776.19,-383.68 760.66,-369.43 746.06,-359.02"/>
<polygon fill="midnightblue" stroke="midnightblue" points="778.95,-479.53 778.91,-490.13 785.55,-481.87 778.95,-479.53"/>
</g>
<!-- Node19 -->
<g id="node19" class="node">
<title>Node19</title>
<g id="a_node19"><a xlink:href="../../de/dba/_c_c_control_stepper_8h.html" target="_top" xlink:title=" ">
<polygon fill="none" stroke="black" points="832.18,-318 832.18,-359 1046.18,-359 1046.18,-318 832.18,-318"/>
<text text-anchor="start" x="840.18" y="-347" font-family="Helvetica,sans-Serif" font-size="10.00">/home/runner/work/cocos2d.h</text>
<text text-anchor="start" x="840.18" y="-336" font-family="Helvetica,sans-Serif" font-size="10.00">/cocos2d.h/extensions/GUI</text>
<text text-anchor="middle" x="939.18" y="-325" font-family="Helvetica,sans-Serif" font-size="10.00">/CCControlExtension/CCControlStepper.h</text>
</a>
</g>
</g>
<!-- Node2&#45;&gt;Node19 -->
<g id="edge25" class="edge">
<title>Node2&#45;&gt;Node19</title>
<path fill="none" stroke="midnightblue" d="M792.5,-482.44C811.3,-459.77 839.37,-427.23 866.18,-401 881.34,-386.17 899.59,-370.79 914.05,-359.12"/>
<polygon fill="midnightblue" stroke="midnightblue" points="789.66,-480.37 786,-490.32 795.07,-484.83 789.66,-480.37"/>
</g>
<!-- Node20 -->
<g id="node20" class="node">
<title>Node20</title>
<g id="a_node20"><a xlink:href="../../de/dc7/_c_c_control_switch_8h.html" target="_top" xlink:title=" ">
<polygon fill="none" stroke="black" points="874.68,-407 874.68,-448 1083.68,-448 1083.68,-407 874.68,-407"/>
<text text-anchor="start" x="882.68" y="-436" font-family="Helvetica,sans-Serif" font-size="10.00">/home/runner/work/cocos2d.h</text>
<text text-anchor="start" x="882.68" y="-425" font-family="Helvetica,sans-Serif" font-size="10.00">/cocos2d.h/extensions/GUI</text>
<text text-anchor="middle" x="979.18" y="-414" font-family="Helvetica,sans-Serif" font-size="10.00">/CCControlExtension/CCControlSwitch.h</text>
</a>
</g>
</g>
<!-- Node2&#45;&gt;Node20 -->
<g id="edge27" class="edge">
<title>Node2&#45;&gt;Node20</title>
<path fill="none" stroke="midnightblue" d="M829.76,-486.77C861.18,-474.51 899.29,-459.65 929.16,-448"/>
<polygon fill="midnightblue" stroke="midnightblue" points="828.28,-483.58 820.24,-490.48 830.83,-490.11 828.28,-483.58"/>
</g>
<!-- Node21 -->
<g id="node21" class="node">
<title>Node21</title>
<g id="a_node21"><a xlink:href="../../d8/dec/_color_picker_delegate_8h.html" target="_top" xlink:title=" ">
<polygon fill="none" stroke="black" points="514.68,-407 514.68,-448 741.68,-448 741.68,-407 514.68,-407"/>
<text text-anchor="start" x="522.68" y="-436" font-family="Helvetica,sans-Serif" font-size="10.00">/home/runner/work/cocos2d.h</text>
<text text-anchor="start" x="522.68" y="-425" font-family="Helvetica,sans-Serif" font-size="10.00">/cocos2d.h/extensions/GUI</text>
<text text-anchor="middle" x="628.18" y="-414" font-family="Helvetica,sans-Serif" font-size="10.00">/CCControlExtension/ColorPickerDelegate.h</text>
</a>
</g>
</g>
<!-- Node2&#45;&gt;Node21 -->
<g id="edge29" class="edge">
<title>Node2&#45;&gt;Node21</title>
<path fill="none" stroke="midnightblue" d="M727.23,-485.35C706.46,-473.43 681.88,-459.32 662.4,-448.14"/>
<polygon fill="midnightblue" stroke="midnightblue" points="725.75,-488.54 736.16,-490.48 729.23,-482.47 725.75,-488.54"/>
</g>
<!-- Node3&#45;&gt;Node4 -->
<g id="edge3" class="edge">
<title>Node3&#45;&gt;Node4</title>
<path fill="none" stroke="midnightblue" d="M1162.08,-315.37C1115.32,-302.91 1057.45,-287.5 1012.4,-275.5"/>
<polygon fill="midnightblue" stroke="midnightblue" points="1161.32,-318.79 1171.88,-317.98 1163.12,-312.02 1161.32,-318.79"/>
</g>
<!-- Node5 -->
<g id="node5" class="node">
<title>Node5</title>
<g id="a_node5"><a xlink:href="../../dc/d4a/_c_c_edit_box_8h.html" target="_top" xlink:title=" ">
<polygon fill="none" stroke="black" points="804.68,-156.5 804.68,-197.5 965.68,-197.5 965.68,-156.5 804.68,-156.5"/>
<text text-anchor="start" x="812.68" y="-185.5" font-family="Helvetica,sans-Serif" font-size="10.00">/home/runner/work/cocos2d.h</text>
<text text-anchor="start" x="812.68" y="-174.5" font-family="Helvetica,sans-Serif" font-size="10.00">/cocos2d.h/extensions/GUI</text>
<text text-anchor="middle" x="885.18" y="-163.5" font-family="Helvetica,sans-Serif" font-size="10.00">/CCEditBox/CCEditBox.h</text>
</a>
</g>
</g>
<!-- Node4&#45;&gt;Node5 -->
<g id="edge4" class="edge">
<title>Node4&#45;&gt;Node5</title>
<path fill="none" stroke="midnightblue" d="M919.32,-226.05C912.58,-216.57 905.2,-206.18 899.04,-197.51"/>
<polygon fill="midnightblue" stroke="midnightblue" points="916.63,-228.3 925.27,-234.43 922.33,-224.25 916.63,-228.3"/>
</g>
<!-- Node13 -->
<g id="node13" class="node">
<title>Node13</title>
<g id="a_node13"><a xlink:href="../../d3/d58/cocos-ext_8h.html" target="_top" xlink:title=" ">
<polygon fill="none" stroke="black" points="902.18,-84 902.18,-114 1086.18,-114 1086.18,-84 902.18,-84"/>
<text text-anchor="start" x="910.18" y="-102" font-family="Helvetica,sans-Serif" font-size="10.00">/home/runner/work/cocos2d.h</text>
<text text-anchor="middle" x="994.18" y="-91" font-family="Helvetica,sans-Serif" font-size="10.00">/cocos2d.h/extensions/cocos&#45;ext.h</text>
</a>
</g>
</g>
<!-- Node4&#45;&gt;Node13 -->
<g id="edge13" class="edge">
<title>Node4&#45;&gt;Node13</title>
<path fill="none" stroke="midnightblue" d="M960.25,-225.81C965.82,-217.24 971.35,-207.55 975.18,-198 986.6,-169.53 991.31,-133.58 993.13,-114.1"/>
<polygon fill="midnightblue" stroke="midnightblue" points="957.22,-224.04 954.49,-234.28 963.01,-227.97 957.22,-224.04"/>
</g>
<!-- Node6 -->
<g id="node6" class="node">
<title>Node6</title>
<g id="a_node6"><a xlink:href="../../db/da9/_c_c_edit_box_impl_8h.html" target="_top" xlink:title=" ">
<polygon fill="none" stroke="black" points="722.68,-78.5 722.68,-119.5 883.68,-119.5 883.68,-78.5 722.68,-78.5"/>
<text text-anchor="start" x="730.68" y="-107.5" font-family="Helvetica,sans-Serif" font-size="10.00">/home/runner/work/cocos2d.h</text>
<text text-anchor="start" x="730.68" y="-96.5" font-family="Helvetica,sans-Serif" font-size="10.00">/cocos2d.h/extensions/GUI</text>
<text text-anchor="middle" x="803.18" y="-85.5" font-family="Helvetica,sans-Serif" font-size="10.00">/CCEditBox/CCEditBoxImpl.h</text>
</a>
</g>
</g>
<!-- Node5&#45;&gt;Node6 -->
<g id="edge5" class="edge">
<title>Node5&#45;&gt;Node6</title>
<path fill="none" stroke="midnightblue" d="M856.58,-149.49C845.94,-139.63 834.06,-128.63 824.22,-119.51"/>
<polygon fill="midnightblue" stroke="midnightblue" points="854.35,-152.2 864.06,-156.43 859.11,-147.06 854.35,-152.2"/>
</g>
<!-- Node5&#45;&gt;Node13 -->
<g id="edge12" class="edge">
<title>Node5&#45;&gt;Node13</title>
<path fill="none" stroke="midnightblue" d="M921.53,-150.66C938.92,-138.53 959.1,-124.45 973.78,-114.23"/>
<polygon fill="midnightblue" stroke="midnightblue" points="919.45,-147.84 913.25,-156.43 923.45,-153.58 919.45,-147.84"/>
</g>
<!-- Node7 -->
<g id="node7" class="node">
<title>Node7</title>
<g id="a_node7"><a xlink:href="../../d4/dd3/_c_c_edit_box_impl_android_8h.html" target="_top" xlink:title=" ">
<polygon fill="none" stroke="black" points="215.68,-0.5 215.68,-41.5 408.68,-41.5 408.68,-0.5 215.68,-0.5"/>
<text text-anchor="start" x="223.68" y="-29.5" font-family="Helvetica,sans-Serif" font-size="10.00">/home/runner/work/cocos2d.h</text>
<text text-anchor="start" x="223.68" y="-18.5" font-family="Helvetica,sans-Serif" font-size="10.00">/cocos2d.h/extensions/GUI</text>
<text text-anchor="middle" x="312.18" y="-7.5" font-family="Helvetica,sans-Serif" font-size="10.00">/CCEditBox/CCEditBoxImplAndroid.h</text>
</a>
</g>
</g>
<!-- Node6&#45;&gt;Node7 -->
<g id="edge6" class="edge">
<title>Node6&#45;&gt;Node7</title>
<path fill="none" stroke="midnightblue" d="M712.36,-85.89C634.24,-75.21 518.6,-58.77 418.18,-42 415.13,-41.49 412.03,-40.96 408.91,-40.43"/>
<polygon fill="midnightblue" stroke="midnightblue" points="712.27,-89.41 722.65,-87.29 713.21,-82.47 712.27,-89.41"/>
</g>
<!-- Node8 -->
<g id="node8" class="node">
<title>Node8</title>
<g id="a_node8"><a xlink:href="../../dd/dfd/_c_c_edit_box_impl_i_o_s_8h.html" target="_top" xlink:title=" ">
<polygon fill="none" stroke="black" points="427.18,-0.5 427.18,-41.5 599.18,-41.5 599.18,-0.5 427.18,-0.5"/>
<text text-anchor="start" x="435.18" y="-29.5" font-family="Helvetica,sans-Serif" font-size="10.00">/home/runner/work/cocos2d.h</text>
<text text-anchor="start" x="435.18" y="-18.5" font-family="Helvetica,sans-Serif" font-size="10.00">/cocos2d.h/extensions/GUI</text>
<text text-anchor="middle" x="513.18" y="-7.5" font-family="Helvetica,sans-Serif" font-size="10.00">/CCEditBox/CCEditBoxImplIOS.h</text>
</a>
</g>
</g>
<!-- Node6&#45;&gt;Node8 -->
<g id="edge7" class="edge">
<title>Node6&#45;&gt;Node8</title>
<path fill="none" stroke="midnightblue" d="M718.68,-75.86C677.19,-64.98 627.65,-52 587.61,-41.51"/>
<polygon fill="midnightblue" stroke="midnightblue" points="717.93,-79.28 728.5,-78.43 719.71,-72.51 717.93,-79.28"/>
</g>
<!-- Node9 -->
<g id="node9" class="node">
<title>Node9</title>
<g id="a_node9"><a xlink:href="../../d7/d4d/_c_c_edit_box_impl_mac_8h.html" target="_top" xlink:title=" ">
<polygon fill="none" stroke="black" points="617.18,-0.5 617.18,-41.5 793.18,-41.5 793.18,-0.5 617.18,-0.5"/>
<text text-anchor="start" x="625.18" y="-29.5" font-family="Helvetica,sans-Serif" font-size="10.00">/home/runner/work/cocos2d.h</text>
<text text-anchor="start" x="625.18" y="-18.5" font-family="Helvetica,sans-Serif" font-size="10.00">/cocos2d.h/extensions/GUI</text>
<text text-anchor="middle" x="705.18" y="-7.5" font-family="Helvetica,sans-Serif" font-size="10.00">/CCEditBox/CCEditBoxImplMac.h</text>
</a>
</g>
</g>
<!-- Node6&#45;&gt;Node9 -->
<g id="edge8" class="edge">
<title>Node6&#45;&gt;Node9</title>
<path fill="none" stroke="midnightblue" d="M769.73,-72.06C756.83,-62.06 742.32,-50.8 730.33,-41.51"/>
<polygon fill="midnightblue" stroke="midnightblue" points="767.89,-75.07 777.94,-78.43 772.18,-69.53 767.89,-75.07"/>
</g>
<!-- Node10 -->
<g id="node10" class="node">
<title>Node10</title>
<g id="a_node10"><a xlink:href="../../de/dac/_c_c_edit_box_impl_tizen_8h.html" target="_top" xlink:title=" ">
<polygon fill="none" stroke="black" points="811.18,-0.5 811.18,-41.5 993.18,-41.5 993.18,-0.5 811.18,-0.5"/>
<text text-anchor="start" x="819.18" y="-29.5" font-family="Helvetica,sans-Serif" font-size="10.00">/home/runner/work/cocos2d.h</text>
<text text-anchor="start" x="819.18" y="-18.5" font-family="Helvetica,sans-Serif" font-size="10.00">/cocos2d.h/extensions/GUI</text>
<text text-anchor="middle" x="902.18" y="-7.5" font-family="Helvetica,sans-Serif" font-size="10.00">/CCEditBox/CCEditBoxImplTizen.h</text>
</a>
</g>
</g>
<!-- Node6&#45;&gt;Node10 -->
<g id="edge9" class="edge">
<title>Node6&#45;&gt;Node10</title>
<path fill="none" stroke="midnightblue" d="M836.96,-72.06C850,-62.06 864.66,-50.8 876.77,-41.51"/>
<polygon fill="midnightblue" stroke="midnightblue" points="834.47,-69.56 828.67,-78.43 838.74,-75.11 834.47,-69.56"/>
</g>
<!-- Node11 -->
<g id="node11" class="node">
<title>Node11</title>
<g id="a_node11"><a xlink:href="../../dd/d41/_c_c_edit_box_impl_win_8h.html" target="_top" xlink:title=" ">
<polygon fill="none" stroke="black" points="1011.18,-0.5 1011.18,-41.5 1185.18,-41.5 1185.18,-0.5 1011.18,-0.5"/>
<text text-anchor="start" x="1019.18" y="-29.5" font-family="Helvetica,sans-Serif" font-size="10.00">/home/runner/work/cocos2d.h</text>
<text text-anchor="start" x="1019.18" y="-18.5" font-family="Helvetica,sans-Serif" font-size="10.00">/cocos2d.h/extensions/GUI</text>
<text text-anchor="middle" x="1098.18" y="-7.5" font-family="Helvetica,sans-Serif" font-size="10.00">/CCEditBox/CCEditBoxImplWin.h</text>
</a>
</g>
</g>
<!-- Node6&#45;&gt;Node11 -->
<g id="edge10" class="edge">
<title>Node6&#45;&gt;Node11</title>
<path fill="none" stroke="midnightblue" d="M888.86,-75.92C931.12,-65.04 981.64,-52.02 1022.47,-41.51"/>
<polygon fill="midnightblue" stroke="midnightblue" points="887.96,-72.54 879.15,-78.43 889.7,-79.32 887.96,-72.54"/>
</g>
<!-- Node12 -->
<g id="node12" class="node">
<title>Node12</title>
<g id="a_node12"><a xlink:href="../../d4/d91/_c_c_edit_box_impl_wp8_8h.html" target="_top" xlink:title=" ">
<polygon fill="none" stroke="black" points="1203.68,-0.5 1203.68,-41.5 1380.68,-41.5 1380.68,-0.5 1203.68,-0.5"/>
<text text-anchor="start" x="1211.68" y="-29.5" font-family="Helvetica,sans-Serif" font-size="10.00">/home/runner/work/cocos2d.h</text>
<text text-anchor="start" x="1211.68" y="-18.5" font-family="Helvetica,sans-Serif" font-size="10.00">/cocos2d.h/extensions/GUI</text>
<text text-anchor="middle" x="1292.18" y="-7.5" font-family="Helvetica,sans-Serif" font-size="10.00">/CCEditBox/CCEditBoxImplWp8.h</text>
</a>
</g>
</g>
<!-- Node6&#45;&gt;Node12 -->
<g id="edge11" class="edge">
<title>Node6&#45;&gt;Node12</title>
<path fill="none" stroke="midnightblue" d="M894.26,-77.91C1027.77,-55.74 1064.42,-62.96 1194.18,-42 1197.26,-41.5 1200.4,-40.97 1203.56,-40.42"/>
<polygon fill="midnightblue" stroke="midnightblue" points="893.33,-74.51 884.06,-79.63 894.5,-81.42 893.33,-74.51"/>
</g>
<!-- Node14&#45;&gt;Node4 -->
<g id="edge15" class="edge">
<title>Node14&#45;&gt;Node4</title>
<path fill="none" stroke="midnightblue" d="M298.2,-317.69C311.31,-315.62 324.53,-313.67 337.18,-312 506.02,-289.73 702.66,-273.2 824.04,-264.07"/>
<polygon fill="midnightblue" stroke="midnightblue" points="297.52,-314.26 288.2,-319.3 298.63,-321.17 297.52,-314.26"/>
</g>
<!-- Node15&#45;&gt;Node14 -->
<g id="edge18" class="edge">
<title>Node15&#45;&gt;Node14</title>
<path fill="none" stroke="midnightblue" d="M160.85,-397.48C165.84,-386.9 171.44,-375.02 176.26,-364.79"/>
<polygon fill="midnightblue" stroke="midnightblue" points="157.58,-396.22 156.48,-406.76 163.91,-399.2 157.58,-396.22"/>
</g>
<!-- Node16&#45;&gt;Node4 -->
<g id="edge20" class="edge">
<title>Node16&#45;&gt;Node4</title>
<path fill="none" stroke="midnightblue" d="M578.88,-316.08C586.42,-314.67 593.91,-313.3 601.18,-312 675.24,-298.71 758.64,-284.88 824.06,-274.29"/>
<polygon fill="midnightblue" stroke="midnightblue" points="578.13,-312.66 568.95,-317.93 579.42,-319.54 578.13,-312.66"/>
</g>
<!-- Node17&#45;&gt;Node14 -->
<g id="edge22" class="edge">
<title>Node17&#45;&gt;Node14</title>
<path fill="none" stroke="midnightblue" d="M320.7,-397.44C296.3,-386.77 268.92,-374.8 245.41,-364.52"/>
<polygon fill="midnightblue" stroke="midnightblue" points="319.32,-400.65 329.89,-401.45 322.12,-394.24 319.32,-400.65"/>
</g>
<!-- Node18&#45;&gt;Node4 -->
<g id="edge24" class="edge">
<title>Node18&#45;&gt;Node4</title>
<path fill="none" stroke="midnightblue" d="M776.01,-314.58C810.3,-302.27 852.13,-287.25 884.86,-275.5"/>
<polygon fill="midnightblue" stroke="midnightblue" points="774.78,-311.31 766.55,-317.98 777.14,-317.89 774.78,-311.31"/>
</g>
<!-- Node19&#45;&gt;Node4 -->
<g id="edge26" class="edge">
<title>Node19&#45;&gt;Node4</title>
<path fill="none" stroke="midnightblue" d="M939.18,-307.56C939.18,-296.88 939.18,-285.13 939.18,-275.55"/>
<polygon fill="midnightblue" stroke="midnightblue" points="935.68,-307.77 939.18,-317.77 942.68,-307.77 935.68,-307.77"/>
</g>
<!-- Node20&#45;&gt;Node4 -->
<g id="edge28" class="edge">
<title>Node20&#45;&gt;Node4</title>
<path fill="none" stroke="midnightblue" d="M1023.9,-400.94C1036.36,-391.39 1048.34,-379.33 1055.18,-365 1065.32,-343.74 1067.7,-331.95 1055.18,-312 1044.89,-295.62 1028.32,-283.91 1010.87,-275.59"/>
<polygon fill="midnightblue" stroke="midnightblue" points="1021.77,-398.16 1015.7,-406.84 1025.86,-403.84 1021.77,-398.16"/>
</g>
<!-- Node21&#45;&gt;Node14 -->
<g id="edge30" class="edge">
<title>Node21&#45;&gt;Node14</title>
<path fill="none" stroke="midnightblue" d="M524.32,-404.87C517.84,-403.55 511.42,-402.25 505.18,-401 432.62,-386.44 350.61,-370.55 288.18,-358.56"/>
<polygon fill="midnightblue" stroke="midnightblue" points="524.02,-408.38 534.52,-406.95 525.42,-401.52 524.02,-408.38"/>
</g>
</g>
</svg>
