<?xml version="1.0" encoding="UTF-8" standalone="no"?>
<!DOCTYPE svg PUBLIC "-//W3C//DTD SVG 1.1//EN"
 "http://www.w3.org/Graphics/SVG/1.1/DTD/svg11.dtd">
<!-- Generated by graphviz version 2.43.0 (0)
 -->
<!-- Title: /home/runner/work/cocos2d.h/cocos2d.h/extensions/GUI/CCControlExtension/CCControlUtils.h Pages: 1 -->
<svg width="1387pt" height="610pt"
 viewBox="0.00 0.00 1387.50 610.00" xmlns="http://www.w3.org/2000/svg" xmlns:xlink="http://www.w3.org/1999/xlink">
<g id="graph0" class="graph" transform="scale(1 1) rotate(0) translate(4 606)">
<title>/home/runner/work/cocos2d.h/cocos2d.h/extensions/GUI/CCControlExtension/CCControlUtils.h</title>
<!-- Node1 -->
<g id="node1" class="node">
<title>Node1</title>
<g id="a_node1"><a xlink:title=" ">
<polygon fill="#999999" stroke="#666666" points="468,-602 268,-602 268,-561 468,-561 468,-602"/>
<text text-anchor="start" x="276" y="-590" font-family="Helvetica,sans-Serif" font-size="10.00">/home/runner/work/cocos2d.h</text>
<text text-anchor="start" x="276" y="-579" font-family="Helvetica,sans-Serif" font-size="10.00">/cocos2d.h/extensions/GUI</text>
<text text-anchor="middle" x="368" y="-568" font-family="Helvetica,sans-Serif" font-size="10.00">/CCControlExtension/CCControlUtils.h</text>
</a>
</g>
</g>
<!-- Node2 -->
<g id="node2" class="node">
<title>Node2</title>
<g id="a_node2"><a xlink:href="../../de/d8b/_c_c_control_8h.html" target="_top" xlink:title=" ">
<polygon fill="white" stroke="#666666" points="857.5,-525 680.5,-525 680.5,-484 857.5,-484 857.5,-525"/>
<text text-anchor="start" x="688.5" y="-513" font-family="Helvetica,sans-Serif" font-size="10.00">/home/runner/work/cocos2d.h</text>
<text text-anchor="start" x="688.5" y="-502" font-family="Helvetica,sans-Serif" font-size="10.00">/cocos2d.h/extensions/GUI</text>
<text text-anchor="middle" x="769" y="-491" font-family="Helvetica,sans-Serif" font-size="10.00">/CCControlExtension/CCControl.h</text>
</a>
</g>
</g>
<!-- Node1&#45;&gt;Node2 -->
<g id="edge1" class="edge">
<title>Node1&#45;&gt;Node2</title>
<path fill="none" stroke="#63b8ff" d="M478.22,-559.88C541.84,-547.99 620.78,-533.22 680.35,-522.08"/>
<polygon fill="#63b8ff" stroke="#63b8ff" points="477.34,-556.49 468.15,-561.77 478.62,-563.37 477.34,-556.49"/>
</g>
<!-- Node14 -->
<g id="node14" class="node">
<title>Node14</title>
<g id="a_node14"><a xlink:href="../../d3/db7/_c_c_control_colour_picker_8h.html" target="_top" xlink:title=" ">
<polygon fill="white" stroke="#666666" points="287,-360 87,-360 87,-308 287,-308 287,-360"/>
<text text-anchor="start" x="95" y="-348" font-family="Helvetica,sans-Serif" font-size="10.00">/home/runner/work/cocos2d.h</text>
<text text-anchor="start" x="95" y="-337" font-family="Helvetica,sans-Serif" font-size="10.00">/cocos2d.h/extensions/GUI</text>
<text text-anchor="start" x="95" y="-326" font-family="Helvetica,sans-Serif" font-size="10.00">/CCControlExtension/CCControlColour</text>
<text text-anchor="middle" x="187" y="-315" font-family="Helvetica,sans-Serif" font-size="10.00">Picker.h</text>
</a>
</g>
</g>
<!-- Node1&#45;&gt;Node14 -->
<g id="edge31" class="edge">
<title>Node1&#45;&gt;Node14</title>
<path fill="none" stroke="#63b8ff" d="M257.64,-572.2C174.4,-559.47 65.4,-527.57 10,-448 -3.21,-429.03 -3.42,-414.82 10,-396 28.02,-370.73 57.23,-355.82 86.77,-347.06"/>
<polygon fill="#63b8ff" stroke="#63b8ff" points="257.26,-575.68 267.66,-573.66 258.27,-568.75 257.26,-575.68"/>
</g>
<!-- Node3 -->
<g id="node3" class="node">
<title>Node3</title>
<g id="a_node3"><a xlink:href="../../d0/d7e/_c_c_control_button_8h.html" target="_top" xlink:title=" ">
<polygon fill="white" stroke="#666666" points="1348.5,-354.5 1139.5,-354.5 1139.5,-313.5 1348.5,-313.5 1348.5,-354.5"/>
<text text-anchor="start" x="1147.5" y="-342.5" font-family="Helvetica,sans-Serif" font-size="10.00">/home/runner/work/cocos2d.h</text>
<text text-anchor="start" x="1147.5" y="-331.5" font-family="Helvetica,sans-Serif" font-size="10.00">/cocos2d.h/extensions/GUI</text>
<text text-anchor="middle" x="1244" y="-320.5" font-family="Helvetica,sans-Serif" font-size="10.00">/CCControlExtension/CCControlButton.h</text>
</a>
</g>
</g>
<!-- Node2&#45;&gt;Node3 -->
<g id="edge2" class="edge">
<title>Node2&#45;&gt;Node3</title>
<path fill="none" stroke="#63b8ff" d="M867.85,-494.73C957.1,-485.63 1080.95,-469.66 1125,-448 1169.99,-425.87 1209.36,-380.76 1229.58,-354.73"/>
<polygon fill="#63b8ff" stroke="#63b8ff" points="867.3,-491.27 857.7,-495.76 868,-498.24 867.3,-491.27"/>
</g>
<!-- Node4 -->
<g id="node4" class="node">
<title>Node4</title>
<g id="a_node4"><a xlink:href="../../d6/d86/_c_c_control_extensions_8h.html" target="_top" xlink:title=" ">
<polygon fill="white" stroke="#666666" points="1053,-272 823,-272 823,-231 1053,-231 1053,-272"/>
<text text-anchor="start" x="831" y="-260" font-family="Helvetica,sans-Serif" font-size="10.00">/home/runner/work/cocos2d.h</text>
<text text-anchor="start" x="831" y="-249" font-family="Helvetica,sans-Serif" font-size="10.00">/cocos2d.h/extensions/GUI</text>
<text text-anchor="middle" x="938" y="-238" font-family="Helvetica,sans-Serif" font-size="10.00">/CCControlExtension/CCControlExtensions.h</text>
</a>
</g>
</g>
<!-- Node2&#45;&gt;Node4 -->
<g id="edge16" class="edge">
<title>Node2&#45;&gt;Node4</title>
<path fill="none" stroke="#63b8ff" d="M867.75,-500.09C951.93,-494.86 1063.68,-481.6 1092,-448 1113.31,-422.71 1077.2,-314.17 1072,-308 1058.36,-291.83 1039.24,-280.3 1019.71,-272.1"/>
<polygon fill="#63b8ff" stroke="#63b8ff" points="867.4,-496.61 857.63,-500.69 867.82,-503.59 867.4,-496.61"/>
</g>
<!-- Node2&#45;&gt;Node14 -->
<g id="edge14" class="edge">
<title>Node2&#45;&gt;Node14</title>
<path fill="none" stroke="#63b8ff" d="M670.34,-503.45C477.84,-502.31 67.07,-494.4 24,-448 8.27,-431.06 10.83,-414.99 24,-396 38.89,-374.52 62.33,-360.6 86.84,-351.57"/>
<polygon fill="#63b8ff" stroke="#63b8ff" points="670.44,-506.95 680.46,-503.5 670.48,-499.95 670.44,-506.95"/>
</g>
<!-- Node15 -->
<g id="node15" class="node">
<title>Node15</title>
<g id="a_node15"><a xlink:href="../../dd/d5a/_c_c_control_hue_picker_8h.html" target="_top" xlink:title=" ">
<polygon fill="white" stroke="#666666" points="258.5,-442.5 33.5,-442.5 33.5,-401.5 258.5,-401.5 258.5,-442.5"/>
<text text-anchor="start" x="41.5" y="-430.5" font-family="Helvetica,sans-Serif" font-size="10.00">/home/runner/work/cocos2d.h</text>
<text text-anchor="start" x="41.5" y="-419.5" font-family="Helvetica,sans-Serif" font-size="10.00">/cocos2d.h/extensions/GUI</text>
<text text-anchor="middle" x="146" y="-408.5" font-family="Helvetica,sans-Serif" font-size="10.00">/CCControlExtension/CCControlHuePicker.h</text>
</a>
</g>
</g>
<!-- Node2&#45;&gt;Node15 -->
<g id="edge17" class="edge">
<title>Node2&#45;&gt;Node15</title>
<path fill="none" stroke="#63b8ff" d="M670.21,-495.25C568.91,-486.17 406.94,-469.88 268,-448 257.85,-446.4 247.27,-444.54 236.77,-442.56"/>
<polygon fill="#63b8ff" stroke="#63b8ff" points="670.16,-498.76 680.43,-496.17 670.78,-491.79 670.16,-498.76"/>
</g>
<!-- Node16 -->
<g id="node16" class="node">
<title>Node16</title>
<g id="a_node16"><a xlink:href="../../d2/d29/_c_c_control_potentiometer_8h.html" target="_top" xlink:title=" ">
<polygon fill="white" stroke="#666666" points="591,-354.5 345,-354.5 345,-313.5 591,-313.5 591,-354.5"/>
<text text-anchor="start" x="353" y="-342.5" font-family="Helvetica,sans-Serif" font-size="10.00">/home/runner/work/cocos2d.h</text>
<text text-anchor="start" x="353" y="-331.5" font-family="Helvetica,sans-Serif" font-size="10.00">/cocos2d.h/extensions/GUI</text>
<text text-anchor="middle" x="468" y="-320.5" font-family="Helvetica,sans-Serif" font-size="10.00">/CCControlExtension/CCControlPotentiometer.h</text>
</a>
</g>
</g>
<!-- Node2&#45;&gt;Node16 -->
<g id="edge19" class="edge">
<title>Node2&#45;&gt;Node16</title>
<path fill="none" stroke="#63b8ff" d="M772.07,-473.92C772.84,-449.79 769.69,-416.46 750,-396 743.53,-389.28 649.06,-369.72 571.22,-354.54"/>
<polygon fill="#63b8ff" stroke="#63b8ff" points="768.57,-473.78 771.5,-483.96 775.56,-474.17 768.57,-473.78"/>
</g>
<!-- Node17 -->
<g id="node17" class="node">
<title>Node17</title>
<g id="a_node17"><a xlink:href="../../de/d08/_c_c_control_saturation_brightness_picker_8h.html" target="_top" xlink:title=" ">
<polygon fill="white" stroke="#666666" points="495,-448 277,-448 277,-396 495,-396 495,-448"/>
<text text-anchor="start" x="285" y="-436" font-family="Helvetica,sans-Serif" font-size="10.00">/home/runner/work/cocos2d.h</text>
<text text-anchor="start" x="285" y="-425" font-family="Helvetica,sans-Serif" font-size="10.00">/cocos2d.h/extensions/GUI</text>
<text text-anchor="start" x="285" y="-414" font-family="Helvetica,sans-Serif" font-size="10.00">/CCControlExtension/CCControlSaturation</text>
<text text-anchor="middle" x="386" y="-403" font-family="Helvetica,sans-Serif" font-size="10.00">BrightnessPicker.h</text>
</a>
</g>
</g>
<!-- Node2&#45;&gt;Node17 -->
<g id="edge21" class="edge">
<title>Node2&#45;&gt;Node17</title>
<path fill="none" stroke="#63b8ff" d="M670.31,-482.76C616.73,-471.5 550.34,-457.54 495.2,-445.95"/>
<polygon fill="#63b8ff" stroke="#63b8ff" points="669.66,-486.2 680.17,-484.83 671.1,-479.35 669.66,-486.2"/>
</g>
<!-- Node18 -->
<g id="node18" class="node">
<title>Node18</title>
<g id="a_node18"><a xlink:href="../../d6/d7e/_c_c_control_slider_8h.html" target="_top" xlink:title=" ">
<polygon fill="white" stroke="#666666" points="813,-354.5 609,-354.5 609,-313.5 813,-313.5 813,-354.5"/>
<text text-anchor="start" x="617" y="-342.5" font-family="Helvetica,sans-Serif" font-size="10.00">/home/runner/work/cocos2d.h</text>
<text text-anchor="start" x="617" y="-331.5" font-family="Helvetica,sans-Serif" font-size="10.00">/cocos2d.h/extensions/GUI</text>
<text text-anchor="middle" x="711" y="-320.5" font-family="Helvetica,sans-Serif" font-size="10.00">/CCControlExtension/CCControlSlider.h</text>
</a>
</g>
</g>
<!-- Node2&#45;&gt;Node18 -->
<g id="edge23" class="edge">
<title>Node2&#45;&gt;Node18</title>
<path fill="none" stroke="#63b8ff" d="M781.11,-474.28C788.47,-451.88 794.46,-420.73 783,-396 775.08,-378.91 759.74,-364.86 745.25,-354.57"/>
<polygon fill="#63b8ff" stroke="#63b8ff" points="777.74,-473.3 777.69,-483.9 784.34,-475.65 777.74,-473.3"/>
</g>
<!-- Node19 -->
<g id="node19" class="node">
<title>Node19</title>
<g id="a_node19"><a xlink:href="../../de/dba/_c_c_control_stepper_8h.html" target="_top" xlink:title=" ">
<polygon fill="white" stroke="#666666" points="1045,-354.5 831,-354.5 831,-313.5 1045,-313.5 1045,-354.5"/>
<text text-anchor="start" x="839" y="-342.5" font-family="Helvetica,sans-Serif" font-size="10.00">/home/runner/work/cocos2d.h</text>
<text text-anchor="start" x="839" y="-331.5" font-family="Helvetica,sans-Serif" font-size="10.00">/cocos2d.h/extensions/GUI</text>
<text text-anchor="middle" x="938" y="-320.5" font-family="Helvetica,sans-Serif" font-size="10.00">/CCControlExtension/CCControlStepper.h</text>
</a>
</g>
</g>
<!-- Node2&#45;&gt;Node19 -->
<g id="edge25" class="edge">
<title>Node2&#45;&gt;Node19</title>
<path fill="none" stroke="#63b8ff" d="M791.69,-475.92C810.52,-453.59 838.41,-421.72 865,-396 880.07,-381.41 898.15,-366.29 912.55,-354.75"/>
<polygon fill="#63b8ff" stroke="#63b8ff" points="788.92,-473.78 785.18,-483.69 794.29,-478.27 788.92,-473.78"/>
</g>
<!-- Node20 -->
<g id="node20" class="node">
<title>Node20</title>
<g id="a_node20"><a xlink:href="../../de/dc7/_c_c_control_switch_8h.html" target="_top" xlink:title=" ">
<polygon fill="white" stroke="#666666" points="1082.5,-442.5 873.5,-442.5 873.5,-401.5 1082.5,-401.5 1082.5,-442.5"/>
<text text-anchor="start" x="881.5" y="-430.5" font-family="Helvetica,sans-Serif" font-size="10.00">/home/runner/work/cocos2d.h</text>
<text text-anchor="start" x="881.5" y="-419.5" font-family="Helvetica,sans-Serif" font-size="10.00">/cocos2d.h/extensions/GUI</text>
<text text-anchor="middle" x="978" y="-408.5" font-family="Helvetica,sans-Serif" font-size="10.00">/CCControlExtension/CCControlSwitch.h</text>
</a>
</g>
</g>
<!-- Node2&#45;&gt;Node20 -->
<g id="edge27" class="edge">
<title>Node2&#45;&gt;Node20</title>
<path fill="none" stroke="#63b8ff" d="M829.27,-480.29C860.31,-468.33 897.73,-453.92 927.27,-442.54"/>
<polygon fill="#63b8ff" stroke="#63b8ff" points="827.93,-477.05 819.86,-483.91 830.45,-483.58 827.93,-477.05"/>
</g>
<!-- Node21 -->
<g id="node21" class="node">
<title>Node21</title>
<g id="a_node21"><a xlink:href="../../d8/dec/_color_picker_delegate_8h.html" target="_top" xlink:title=" ">
<polygon fill="white" stroke="#666666" points="740.5,-442.5 513.5,-442.5 513.5,-401.5 740.5,-401.5 740.5,-442.5"/>
<text text-anchor="start" x="521.5" y="-430.5" font-family="Helvetica,sans-Serif" font-size="10.00">/home/runner/work/cocos2d.h</text>
<text text-anchor="start" x="521.5" y="-419.5" font-family="Helvetica,sans-Serif" font-size="10.00">/cocos2d.h/extensions/GUI</text>
<text text-anchor="middle" x="627" y="-408.5" font-family="Helvetica,sans-Serif" font-size="10.00">/CCControlExtension/ColorPickerDelegate.h</text>
</a>
</g>
</g>
<!-- Node2&#45;&gt;Node21 -->
<g id="edge29" class="edge">
<title>Node2&#45;&gt;Node21</title>
<path fill="none" stroke="#63b8ff" d="M725.46,-478.82C705.05,-467.25 681.06,-453.65 661.87,-442.77"/>
<polygon fill="#63b8ff" stroke="#63b8ff" points="723.83,-481.92 734.26,-483.81 727.29,-475.83 723.83,-481.92"/>
</g>
<!-- Node3&#45;&gt;Node4 -->
<g id="edge3" class="edge">
<title>Node3&#45;&gt;Node4</title>
<path fill="none" stroke="#63b8ff" d="M1159.84,-310.86C1113.62,-298.7 1056.82,-283.76 1012.26,-272.04"/>
<polygon fill="#63b8ff" stroke="#63b8ff" points="1158.97,-314.25 1169.53,-313.41 1160.75,-307.48 1158.97,-314.25"/>
</g>
<!-- Node5 -->
<g id="node5" class="node">
<title>Node5</title>
<g id="a_node5"><a xlink:href="../../dc/d4a/_c_c_edit_box_8h.html" target="_top" xlink:title=" ">
<polygon fill="white" stroke="#666666" points="964.5,-195 803.5,-195 803.5,-154 964.5,-154 964.5,-195"/>
<text text-anchor="start" x="811.5" y="-183" font-family="Helvetica,sans-Serif" font-size="10.00">/home/runner/work/cocos2d.h</text>
<text text-anchor="start" x="811.5" y="-172" font-family="Helvetica,sans-Serif" font-size="10.00">/cocos2d.h/extensions/GUI</text>
<text text-anchor="middle" x="884" y="-161" font-family="Helvetica,sans-Serif" font-size="10.00">/CCEditBox/CCEditBox.h</text>
</a>
</g>
</g>
<!-- Node4&#45;&gt;Node5 -->
<g id="edge4" class="edge">
<title>Node4&#45;&gt;Node5</title>
<path fill="none" stroke="#63b8ff" d="M917.96,-222.67C911.36,-213.5 904.16,-203.5 898.09,-195.07"/>
<polygon fill="#63b8ff" stroke="#63b8ff" points="915.13,-224.72 923.81,-230.79 920.81,-220.63 915.13,-224.72"/>
</g>
<!-- Node13 -->
<g id="node13" class="node">
<title>Node13</title>
<g id="a_node13"><a xlink:href="../../d3/d58/cocos-ext_8h.html" target="_top" xlink:title=" ">
<polygon fill="white" stroke="#666666" points="1085,-112.5 901,-112.5 901,-82.5 1085,-82.5 1085,-112.5"/>
<text text-anchor="start" x="909" y="-100.5" font-family="Helvetica,sans-Serif" font-size="10.00">/home/runner/work/cocos2d.h</text>
<text text-anchor="middle" x="993" y="-89.5" font-family="Helvetica,sans-Serif" font-size="10.00">/cocos2d.h/extensions/cocos&#45;ext.h</text>
</a>
</g>
</g>
<!-- Node4&#45;&gt;Node13 -->
<g id="edge13" class="edge">
<title>Node4&#45;&gt;Node13</title>
<path fill="none" stroke="#63b8ff" d="M959.06,-222.57C964.63,-214.08 970.16,-204.48 974,-195 985.28,-167.15 990.03,-131.98 991.9,-112.72"/>
<polygon fill="#63b8ff" stroke="#63b8ff" points="956.07,-220.74 953.3,-230.97 961.84,-224.7 956.07,-220.74"/>
</g>
<!-- Node6 -->
<g id="node6" class="node">
<title>Node6</title>
<g id="a_node6"><a xlink:href="../../db/da9/_c_c_edit_box_impl_8h.html" target="_top" xlink:title=" ">
<polygon fill="white" stroke="#666666" points="882.5,-118 721.5,-118 721.5,-77 882.5,-77 882.5,-118"/>
<text text-anchor="start" x="729.5" y="-106" font-family="Helvetica,sans-Serif" font-size="10.00">/home/runner/work/cocos2d.h</text>
<text text-anchor="start" x="729.5" y="-95" font-family="Helvetica,sans-Serif" font-size="10.00">/cocos2d.h/extensions/GUI</text>
<text text-anchor="middle" x="802" y="-84" font-family="Helvetica,sans-Serif" font-size="10.00">/CCEditBox/CCEditBoxImpl.h</text>
</a>
</g>
</g>
<!-- Node5&#45;&gt;Node6 -->
<g id="edge5" class="edge">
<title>Node5&#45;&gt;Node6</title>
<path fill="none" stroke="#63b8ff" d="M854.8,-146.79C844.44,-137.32 832.98,-126.84 823.4,-118.07"/>
<polygon fill="#63b8ff" stroke="#63b8ff" points="852.71,-149.63 862.45,-153.79 857.44,-144.46 852.71,-149.63"/>
</g>
<!-- Node5&#45;&gt;Node13 -->
<g id="edge12" class="edge">
<title>Node5&#45;&gt;Node13</title>
<path fill="none" stroke="#63b8ff" d="M921.04,-148.01C938.18,-136.22 957.9,-122.65 972.36,-112.7"/>
<polygon fill="#63b8ff" stroke="#63b8ff" points="918.61,-145.44 912.35,-153.99 922.57,-151.21 918.61,-145.44"/>
</g>
<!-- Node7 -->
<g id="node7" class="node">
<title>Node7</title>
<g id="a_node7"><a xlink:href="../../d4/dd3/_c_c_edit_box_impl_android_8h.html" target="_top" xlink:title=" ">
<polygon fill="white" stroke="#666666" points="407.5,-41 214.5,-41 214.5,0 407.5,0 407.5,-41"/>
<text text-anchor="start" x="222.5" y="-29" font-family="Helvetica,sans-Serif" font-size="10.00">/home/runner/work/cocos2d.h</text>
<text text-anchor="start" x="222.5" y="-18" font-family="Helvetica,sans-Serif" font-size="10.00">/cocos2d.h/extensions/GUI</text>
<text text-anchor="middle" x="311" y="-7" font-family="Helvetica,sans-Serif" font-size="10.00">/CCEditBox/CCEditBoxImplAndroid.h</text>
</a>
</g>
</g>
<!-- Node6&#45;&gt;Node7 -->
<g id="edge6" class="edge">
<title>Node6&#45;&gt;Node7</title>
<path fill="none" stroke="#63b8ff" d="M711.19,-84.42C633.08,-73.79 517.45,-57.47 417,-41 413.95,-40.5 410.86,-39.98 407.73,-39.46"/>
<polygon fill="#63b8ff" stroke="#63b8ff" points="711.1,-87.94 721.48,-85.82 712.04,-81 711.1,-87.94"/>
</g>
<!-- Node8 -->
<g id="node8" class="node">
<title>Node8</title>
<g id="a_node8"><a xlink:href="../../dd/dfd/_c_c_edit_box_impl_i_o_s_8h.html" target="_top" xlink:title=" ">
<polygon fill="white" stroke="#666666" points="598,-41 426,-41 426,0 598,0 598,-41"/>
<text text-anchor="start" x="434" y="-29" font-family="Helvetica,sans-Serif" font-size="10.00">/home/runner/work/cocos2d.h</text>
<text text-anchor="start" x="434" y="-18" font-family="Helvetica,sans-Serif" font-size="10.00">/cocos2d.h/extensions/GUI</text>
<text text-anchor="middle" x="512" y="-7" font-family="Helvetica,sans-Serif" font-size="10.00">/CCEditBox/CCEditBoxImplIOS.h</text>
</a>
</g>
</g>
<!-- Node6&#45;&gt;Node8 -->
<g id="edge7" class="edge">
<title>Node6&#45;&gt;Node8</title>
<path fill="none" stroke="#63b8ff" d="M716.86,-74.48C675.9,-63.89 627.2,-51.29 587.56,-41.04"/>
<polygon fill="#63b8ff" stroke="#63b8ff" points="716,-77.88 726.56,-76.99 717.75,-71.1 716,-77.88"/>
</g>
<!-- Node9 -->
<g id="node9" class="node">
<title>Node9</title>
<g id="a_node9"><a xlink:href="../../d7/d4d/_c_c_edit_box_impl_mac_8h.html" target="_top" xlink:title=" ">
<polygon fill="white" stroke="#666666" points="792,-41 616,-41 616,0 792,0 792,-41"/>
<text text-anchor="start" x="624" y="-29" font-family="Helvetica,sans-Serif" font-size="10.00">/home/runner/work/cocos2d.h</text>
<text text-anchor="start" x="624" y="-18" font-family="Helvetica,sans-Serif" font-size="10.00">/cocos2d.h/extensions/GUI</text>
<text text-anchor="middle" x="704" y="-7" font-family="Helvetica,sans-Serif" font-size="10.00">/CCEditBox/CCEditBoxImplMac.h</text>
</a>
</g>
</g>
<!-- Node6&#45;&gt;Node9 -->
<g id="edge8" class="edge">
<title>Node6&#45;&gt;Node9</title>
<path fill="none" stroke="#63b8ff" d="M768.44,-70.82C755.76,-61.11 741.55,-50.24 729.7,-41.17"/>
<polygon fill="#63b8ff" stroke="#63b8ff" points="766.44,-73.69 776.5,-76.99 770.69,-68.13 766.44,-73.69"/>
</g>
<!-- Node10 -->
<g id="node10" class="node">
<title>Node10</title>
<g id="a_node10"><a xlink:href="../../de/dac/_c_c_edit_box_impl_tizen_8h.html" target="_top" xlink:title=" ">
<polygon fill="white" stroke="#666666" points="992,-41 810,-41 810,0 992,0 992,-41"/>
<text text-anchor="start" x="818" y="-29" font-family="Helvetica,sans-Serif" font-size="10.00">/home/runner/work/cocos2d.h</text>
<text text-anchor="start" x="818" y="-18" font-family="Helvetica,sans-Serif" font-size="10.00">/cocos2d.h/extensions/GUI</text>
<text text-anchor="middle" x="901" y="-7" font-family="Helvetica,sans-Serif" font-size="10.00">/CCEditBox/CCEditBoxImplTizen.h</text>
</a>
</g>
</g>
<!-- Node6&#45;&gt;Node10 -->
<g id="edge9" class="edge">
<title>Node6&#45;&gt;Node10</title>
<path fill="none" stroke="#63b8ff" d="M835.9,-70.82C848.71,-61.11 863.06,-50.24 875.03,-41.17"/>
<polygon fill="#63b8ff" stroke="#63b8ff" points="833.61,-68.16 827.75,-76.99 837.83,-73.74 833.61,-68.16"/>
</g>
<!-- Node11 -->
<g id="node11" class="node">
<title>Node11</title>
<g id="a_node11"><a xlink:href="../../dd/d41/_c_c_edit_box_impl_win_8h.html" target="_top" xlink:title=" ">
<polygon fill="white" stroke="#666666" points="1184,-41 1010,-41 1010,0 1184,0 1184,-41"/>
<text text-anchor="start" x="1018" y="-29" font-family="Helvetica,sans-Serif" font-size="10.00">/home/runner/work/cocos2d.h</text>
<text text-anchor="start" x="1018" y="-18" font-family="Helvetica,sans-Serif" font-size="10.00">/cocos2d.h/extensions/GUI</text>
<text text-anchor="middle" x="1097" y="-7" font-family="Helvetica,sans-Serif" font-size="10.00">/CCEditBox/CCEditBoxImplWin.h</text>
</a>
</g>
</g>
<!-- Node6&#45;&gt;Node11 -->
<g id="edge10" class="edge">
<title>Node6&#45;&gt;Node11</title>
<path fill="none" stroke="#63b8ff" d="M888.6,-74.48C930.27,-63.89 979.81,-51.29 1020.13,-41.04"/>
<polygon fill="#63b8ff" stroke="#63b8ff" points="887.56,-71.13 878.73,-76.99 889.29,-77.92 887.56,-71.13"/>
</g>
<!-- Node12 -->
<g id="node12" class="node">
<title>Node12</title>
<g id="a_node12"><a xlink:href="../../d4/d91/_c_c_edit_box_impl_wp8_8h.html" target="_top" xlink:title=" ">
<polygon fill="white" stroke="#666666" points="1379.5,-41 1202.5,-41 1202.5,0 1379.5,0 1379.5,-41"/>
<text text-anchor="start" x="1210.5" y="-29" font-family="Helvetica,sans-Serif" font-size="10.00">/home/runner/work/cocos2d.h</text>
<text text-anchor="start" x="1210.5" y="-18" font-family="Helvetica,sans-Serif" font-size="10.00">/cocos2d.h/extensions/GUI</text>
<text text-anchor="middle" x="1291" y="-7" font-family="Helvetica,sans-Serif" font-size="10.00">/CCEditBox/CCEditBoxImplWp8.h</text>
</a>
</g>
</g>
<!-- Node6&#45;&gt;Node12 -->
<g id="edge11" class="edge">
<title>Node6&#45;&gt;Node12</title>
<path fill="none" stroke="#63b8ff" d="M893.09,-76.9C1026.64,-55.06 1063.19,-61.65 1193,-41 1196.08,-40.51 1199.22,-39.99 1202.38,-39.45"/>
<polygon fill="#63b8ff" stroke="#63b8ff" points="892.17,-73.51 882.88,-78.6 893.32,-80.41 892.17,-73.51"/>
</g>
<!-- Node14&#45;&gt;Node4 -->
<g id="edge15" class="edge">
<title>Node14&#45;&gt;Node4</title>
<path fill="none" stroke="#63b8ff" d="M297.03,-313.59C310.14,-311.56 323.35,-309.64 336,-308 504.87,-286.08 701.5,-269.65 822.87,-260.56"/>
<polygon fill="#63b8ff" stroke="#63b8ff" points="296.36,-310.15 287.03,-315.17 297.45,-317.07 296.36,-310.15"/>
</g>
<!-- Node15&#45;&gt;Node14 -->
<g id="edge18" class="edge">
<title>Node15&#45;&gt;Node14</title>
<path fill="none" stroke="#63b8ff" d="M159.63,-392.4C164.58,-382.02 170.13,-370.39 174.93,-360.32"/>
<polygon fill="#63b8ff" stroke="#63b8ff" points="156.44,-390.95 155.3,-401.49 162.76,-393.96 156.44,-390.95"/>
</g>
<!-- Node16&#45;&gt;Node4 -->
<g id="edge20" class="edge">
<title>Node16&#45;&gt;Node4</title>
<path fill="none" stroke="#63b8ff" d="M579.91,-311.61C586.7,-310.37 593.44,-309.16 600,-308 674.07,-294.91 757.47,-281.2 822.89,-270.69"/>
<polygon fill="#63b8ff" stroke="#63b8ff" points="579.13,-308.19 569.92,-313.44 580.39,-315.08 579.13,-308.19"/>
</g>
<!-- Node17&#45;&gt;Node14 -->
<g id="edge22" class="edge">
<title>Node17&#45;&gt;Node14</title>
<path fill="none" stroke="#63b8ff" d="M318.57,-391.86C294.74,-381.56 268.16,-370.08 245.16,-360.14"/>
<polygon fill="#63b8ff" stroke="#63b8ff" points="317.33,-395.14 327.9,-395.89 320.11,-388.71 317.33,-395.14"/>
</g>
<!-- Node18&#45;&gt;Node4 -->
<g id="edge24" class="edge">
<title>Node18&#45;&gt;Node4</title>
<path fill="none" stroke="#63b8ff" d="M776.02,-309.94C809.82,-297.95 850.68,-283.47 882.9,-272.04"/>
<polygon fill="#63b8ff" stroke="#63b8ff" points="774.49,-306.77 766.24,-313.41 776.83,-313.37 774.49,-306.77"/>
</g>
<!-- Node19&#45;&gt;Node4 -->
<g id="edge26" class="edge">
<title>Node19&#45;&gt;Node4</title>
<path fill="none" stroke="#63b8ff" d="M938,-302.87C938,-292.6 938,-281.4 938,-272.17"/>
<polygon fill="#63b8ff" stroke="#63b8ff" points="934.5,-303.1 938,-313.1 941.5,-303.1 934.5,-303.1"/>
</g>
<!-- Node20&#45;&gt;Node4 -->
<g id="edge28" class="edge">
<title>Node20&#45;&gt;Node4</title>
<path fill="none" stroke="#63b8ff" d="M1023.04,-395.46C1035.38,-386.04 1047.21,-374.14 1054,-360 1063.99,-339.16 1066.32,-327.55 1054,-308 1043.82,-291.85 1027.5,-280.3 1010.28,-272.07"/>
<polygon fill="#63b8ff" stroke="#63b8ff" points="1020.99,-392.63 1014.91,-401.3 1025.07,-398.31 1020.99,-392.63"/>
</g>
<!-- Node21&#45;&gt;Node14 -->
<g id="edge30" class="edge">
<title>Node21&#45;&gt;Node14</title>
<path fill="none" stroke="#63b8ff" d="M521.39,-399.46C515.51,-398.28 509.68,-397.12 504,-396 431.56,-381.67 349.72,-365.93 287.34,-354.03"/>
<polygon fill="#63b8ff" stroke="#63b8ff" points="520.84,-402.92 531.33,-401.45 522.21,-396.06 520.84,-402.92"/>
</g>
</g>
</svg>
