<?xml version="1.0" encoding="UTF-8" standalone="no"?>
<!DOCTYPE svg PUBLIC "-//W3C//DTD SVG 1.1//EN"
 "http://www.w3.org/Graphics/SVG/1.1/DTD/svg11.dtd">
<!-- Generated by graphviz version 2.43.0 (0)
 -->
<!-- Title: /home/runner/work/cocos2d.h/cocos2d.h/cocos2dx/cocoa/CCSet.h Pages: 1 -->
<svg width="358pt" height="379pt"
 viewBox="0.00 0.00 357.50 379.00" xmlns="http://www.w3.org/2000/svg" xmlns:xlink="http://www.w3.org/1999/xlink">
<g id="graph0" class="graph" transform="scale(1 1) rotate(0) translate(4 375)">
<title>/home/runner/work/cocos2d.h/cocos2d.h/cocos2dx/cocoa/CCSet.h</title>
<!-- Node1 -->
<g id="node1" class="node">
<title>Node1</title>
<g id="a_node1"><a xlink:title=" ">
<polygon fill="#999999" stroke="#666666" points="161,-371 0,-371 0,-330 161,-330 161,-371"/>
<text text-anchor="start" x="8" y="-359" font-family="Helvetica,sans-Serif" font-size="10.00">/home/runner/work/cocos2d.h</text>
<text text-anchor="start" x="8" y="-348" font-family="Helvetica,sans-Serif" font-size="10.00">/cocos2d.h/cocos2dx/cocoa</text>
<text text-anchor="middle" x="80.5" y="-337" font-family="Helvetica,sans-Serif" font-size="10.00">/CCSet.h</text>
</a>
</g>
</g>
<!-- Node2 -->
<g id="node2" class="node">
<title>Node2</title>
<g id="a_node2"><a xlink:title=" ">
<polygon fill="#e0e0e0" stroke="#999999" points="61.5,-294 29.5,-294 29.5,-275 61.5,-275 61.5,-294"/>
<text text-anchor="middle" x="45.5" y="-282" font-family="Helvetica,sans-Serif" font-size="10.00">set</text>
</a>
</g>
</g>
<!-- Node1&#45;&gt;Node2 -->
<g id="edge1" class="edge">
<title>Node1&#45;&gt;Node2</title>
<path fill="none" stroke="#63b8ff" d="M69.81,-329.95C65.13,-321.39 59.68,-311.42 55.12,-303.1"/>
<polygon fill="#63b8ff" stroke="#63b8ff" points="58.16,-301.35 50.29,-294.26 52.02,-304.71 58.16,-301.35"/>
</g>
<!-- Node3 -->
<g id="node3" class="node">
<title>Node3</title>
<g id="a_node3"><a xlink:href="../../dd/d69/_c_c_object_8h.html" target="_top" xlink:title=" ">
<polygon fill="white" stroke="#666666" points="151,-294 80,-294 80,-275 151,-275 151,-294"/>
<text text-anchor="middle" x="115.5" y="-282" font-family="Helvetica,sans-Serif" font-size="10.00">CCObject.h</text>
</a>
</g>
</g>
<!-- Node1&#45;&gt;Node3 -->
<g id="edge2" class="edge">
<title>Node1&#45;&gt;Node3</title>
<path fill="none" stroke="#63b8ff" d="M91.19,-329.95C95.87,-321.39 101.32,-311.42 105.88,-303.1"/>
<polygon fill="#63b8ff" stroke="#63b8ff" points="108.98,-304.71 110.71,-294.26 102.84,-301.35 108.98,-304.71"/>
</g>
<!-- Node4 -->
<g id="node4" class="node">
<title>Node4</title>
<g id="a_node4"><a xlink:href="../../d9/d2d/_c_c_data_visitor_8h.html" target="_top" xlink:title=" ">
<polygon fill="white" stroke="#666666" points="110,-239 17,-239 17,-220 110,-220 110,-239"/>
<text text-anchor="middle" x="63.5" y="-227" font-family="Helvetica,sans-Serif" font-size="10.00">CCDataVisitor.h</text>
</a>
</g>
</g>
<!-- Node3&#45;&gt;Node4 -->
<g id="edge3" class="edge">
<title>Node3&#45;&gt;Node4</title>
<path fill="none" stroke="#63b8ff" d="M106.91,-274.75C99.34,-267.03 88.12,-255.6 78.99,-246.28"/>
<polygon fill="#63b8ff" stroke="#63b8ff" points="81.43,-243.78 71.93,-239.09 76.43,-248.68 81.43,-243.78"/>
</g>
<!-- Node10 -->
<g id="node10" class="node">
<title>Node10</title>
<g id="a_node10"><a xlink:href="../../d9/dc8/cc_macros_8h.html" target="_top" xlink:title=" ">
<polygon fill="white" stroke="#666666" points="249,-239 178,-239 178,-220 249,-220 249,-239"/>
<text text-anchor="middle" x="213.5" y="-227" font-family="Helvetica,sans-Serif" font-size="10.00">ccMacros.h</text>
</a>
</g>
</g>
<!-- Node3&#45;&gt;Node10 -->
<g id="edge10" class="edge">
<title>Node3&#45;&gt;Node10</title>
<path fill="none" stroke="#63b8ff" d="M131.25,-274.98C146.73,-266.61 170.59,-253.7 188.64,-243.95"/>
<polygon fill="#63b8ff" stroke="#63b8ff" points="190.34,-247.01 197.47,-239.17 187.01,-240.85 190.34,-247.01"/>
</g>
<!-- Node5 -->
<g id="node5" class="node">
<title>Node5</title>
<g id="a_node5"><a xlink:href="../../d3/d41/_c_c_platform_macros_8h.html" target="_top" xlink:title=" ">
<polygon fill="white" stroke="#666666" points="231,-129 70,-129 70,-110 231,-110 231,-129"/>
<text text-anchor="middle" x="150.5" y="-117" font-family="Helvetica,sans-Serif" font-size="10.00">platform/CCPlatformMacros.h</text>
</a>
</g>
</g>
<!-- Node4&#45;&gt;Node5 -->
<g id="edge4" class="edge">
<title>Node4&#45;&gt;Node5</title>
<path fill="none" stroke="#63b8ff" d="M53.6,-219.84C40.37,-207.18 19.94,-183.16 32.5,-165 43.58,-148.98 61.22,-138.71 79.51,-132.15"/>
<polygon fill="#63b8ff" stroke="#63b8ff" points="80.67,-135.45 89.11,-129.04 78.52,-128.79 80.67,-135.45"/>
</g>
<!-- Node9 -->
<g id="node9" class="node">
<title>Node9</title>
<g id="a_node9"><a xlink:title=" ">
<polygon fill="#e0e0e0" stroke="#999999" points="85.5,-184 41.5,-184 41.5,-165 85.5,-165 85.5,-184"/>
<text text-anchor="middle" x="63.5" y="-172" font-family="Helvetica,sans-Serif" font-size="10.00">string</text>
</a>
</g>
</g>
<!-- Node4&#45;&gt;Node9 -->
<g id="edge9" class="edge">
<title>Node4&#45;&gt;Node9</title>
<path fill="none" stroke="#63b8ff" d="M63.5,-219.75C63.5,-212.8 63.5,-202.85 63.5,-194.13"/>
<polygon fill="#63b8ff" stroke="#63b8ff" points="67,-194.09 63.5,-184.09 60,-194.09 67,-194.09"/>
</g>
<!-- Node6 -->
<g id="node6" class="node">
<title>Node6</title>
<g id="a_node6"><a xlink:href="../../db/d9f/cc_config_8h.html" target="_top" xlink:title="cocos2d (cc) configuration file">
<polygon fill="white" stroke="#666666" points="293,-74 226,-74 226,-55 293,-55 293,-74"/>
<text text-anchor="middle" x="259.5" y="-62" font-family="Helvetica,sans-Serif" font-size="10.00">ccConfig.h</text>
</a>
</g>
</g>
<!-- Node5&#45;&gt;Node6 -->
<g id="edge5" class="edge">
<title>Node5&#45;&gt;Node6</title>
<path fill="none" stroke="#63b8ff" d="M168.01,-109.98C185.47,-101.5 212.51,-88.35 232.67,-78.54"/>
<polygon fill="#63b8ff" stroke="#63b8ff" points="234.21,-81.69 241.67,-74.17 231.14,-75.4 234.21,-81.69"/>
</g>
<!-- Node7 -->
<g id="node7" class="node">
<title>Node7</title>
<g id="a_node7"><a xlink:href="../../dd/d96/_c_c_platform_config_8h.html" target="_top" xlink:title=" ">
<polygon fill="white" stroke="#666666" points="241,-19 84,-19 84,0 241,0 241,-19"/>
<text text-anchor="middle" x="162.5" y="-7" font-family="Helvetica,sans-Serif" font-size="10.00">platform/CCPlatformConfig.h</text>
</a>
</g>
</g>
<!-- Node5&#45;&gt;Node7 -->
<g id="edge7" class="edge">
<title>Node5&#45;&gt;Node7</title>
<path fill="none" stroke="#63b8ff" d="M129.3,-109.87C105.55,-98.85 72.02,-78.37 85.5,-55 93.92,-40.41 109.15,-30.17 123.85,-23.23"/>
<polygon fill="#63b8ff" stroke="#63b8ff" points="125.57,-26.3 133.36,-19.13 122.79,-19.87 125.57,-26.3"/>
</g>
<!-- Node8 -->
<g id="node8" class="node">
<title>Node8</title>
<g id="a_node8"><a xlink:title=" ">
<polygon fill="#e0e0e0" stroke="#999999" points="208,-74 95,-74 95,-55 208,-55 208,-74"/>
<text text-anchor="middle" x="151.5" y="-62" font-family="Helvetica,sans-Serif" font-size="10.00">CCPlatformDefine.h</text>
</a>
</g>
</g>
<!-- Node5&#45;&gt;Node8 -->
<g id="edge8" class="edge">
<title>Node5&#45;&gt;Node8</title>
<path fill="none" stroke="#63b8ff" d="M150.67,-109.75C150.8,-102.8 150.98,-92.85 151.15,-84.13"/>
<polygon fill="#63b8ff" stroke="#63b8ff" points="154.65,-84.15 151.34,-74.09 147.65,-84.02 154.65,-84.15"/>
</g>
<!-- Node6&#45;&gt;Node7 -->
<g id="edge6" class="edge">
<title>Node6&#45;&gt;Node7</title>
<path fill="none" stroke="#63b8ff" d="M243.92,-54.98C228.73,-46.69 205.4,-33.94 187.6,-24.22"/>
<polygon fill="#63b8ff" stroke="#63b8ff" points="188.82,-20.89 178.37,-19.17 185.47,-27.04 188.82,-20.89"/>
</g>
<!-- Node10&#45;&gt;Node6 -->
<g id="edge14" class="edge">
<title>Node10&#45;&gt;Node6</title>
<path fill="none" stroke="#63b8ff" d="M220.18,-219.82C226.44,-211.21 235.58,-197.4 240.5,-184 252.91,-150.22 257.23,-108.07 258.72,-84.23"/>
<polygon fill="#63b8ff" stroke="#63b8ff" points="262.22,-84.28 259.25,-74.12 255.23,-83.92 262.22,-84.28"/>
</g>
<!-- Node11 -->
<g id="node11" class="node">
<title>Node11</title>
<g id="a_node11"><a xlink:href="../../d5/d22/_c_c_common_8h.html" target="_top" xlink:title=" ">
<polygon fill="white" stroke="#666666" points="231.5,-184 103.5,-184 103.5,-165 231.5,-165 231.5,-184"/>
<text text-anchor="middle" x="167.5" y="-172" font-family="Helvetica,sans-Serif" font-size="10.00">platform/CCCommon.h</text>
</a>
</g>
</g>
<!-- Node10&#45;&gt;Node11 -->
<g id="edge11" class="edge">
<title>Node10&#45;&gt;Node11</title>
<path fill="none" stroke="#63b8ff" d="M205.9,-219.75C199.34,-212.18 189.68,-201.05 181.69,-191.84"/>
<polygon fill="#63b8ff" stroke="#63b8ff" points="184.15,-189.35 174.95,-184.09 178.87,-193.94 184.15,-189.35"/>
</g>
<!-- Node12 -->
<g id="node12" class="node">
<title>Node12</title>
<g id="a_node12"><a xlink:title=" ">
<polygon fill="#e0e0e0" stroke="#999999" points="349.5,-184 287.5,-184 287.5,-165 349.5,-165 349.5,-184"/>
<text text-anchor="middle" x="318.5" y="-172" font-family="Helvetica,sans-Serif" font-size="10.00">CCStdC.h</text>
</a>
</g>
</g>
<!-- Node10&#45;&gt;Node12 -->
<g id="edge13" class="edge">
<title>Node10&#45;&gt;Node12</title>
<path fill="none" stroke="#63b8ff" d="M230.37,-219.98C247.11,-211.54 273,-198.47 292.39,-188.68"/>
<polygon fill="#63b8ff" stroke="#63b8ff" points="293.97,-191.8 301.32,-184.17 290.82,-185.55 293.97,-191.8"/>
</g>
<!-- Node11&#45;&gt;Node5 -->
<g id="edge12" class="edge">
<title>Node11&#45;&gt;Node5</title>
<path fill="none" stroke="#63b8ff" d="M164.69,-164.75C162.44,-157.72 159.2,-147.62 156.38,-138.84"/>
<polygon fill="#63b8ff" stroke="#63b8ff" points="159.64,-137.54 153.25,-129.09 152.98,-139.68 159.64,-137.54"/>
</g>
</g>
</svg>
