<?xml version="1.0" encoding="UTF-8" standalone="no"?>
<!DOCTYPE svg PUBLIC "-//W3C//DTD SVG 1.1//EN"
 "http://www.w3.org/Graphics/SVG/1.1/DTD/svg11.dtd">
<!-- Generated by graphviz version 2.43.0 (0)
 -->
<!-- Title: /home/runner/work/cocos2d.h/cocos2d.h/cocos2dx/cocoa/CCSet.h Pages: 1 -->
<svg width="358pt" height="386pt"
 viewBox="0.00 0.00 357.50 386.00" xmlns="http://www.w3.org/2000/svg" xmlns:xlink="http://www.w3.org/1999/xlink">
<g id="graph0" class="graph" transform="scale(1 1) rotate(0) translate(4 382)">
<title>/home/runner/work/cocos2d.h/cocos2d.h/cocos2dx/cocoa/CCSet.h</title>
<!-- Node1 -->
<g id="node1" class="node">
<title>Node1</title>
<g id="a_node1"><a xlink:title=" ">
<polygon fill="#bfbfbf" stroke="black" points="0,-336.5 0,-377.5 161,-377.5 161,-336.5 0,-336.5"/>
<text text-anchor="start" x="8" y="-365.5" font-family="Helvetica,sans-Serif" font-size="10.00">/home/runner/work/cocos2d.h</text>
<text text-anchor="start" x="8" y="-354.5" font-family="Helvetica,sans-Serif" font-size="10.00">/cocos2d.h/cocos2dx/cocoa</text>
<text text-anchor="middle" x="80.5" y="-343.5" font-family="Helvetica,sans-Serif" font-size="10.00">/CCSet.h</text>
</a>
</g>
</g>
<!-- Node2 -->
<g id="node2" class="node">
<title>Node2</title>
<g id="a_node2"><a xlink:title=" ">
<polygon fill="none" stroke="#bfbfbf" points="29.5,-280.5 29.5,-299.5 61.5,-299.5 61.5,-280.5 29.5,-280.5"/>
<text text-anchor="middle" x="45.5" y="-287.5" font-family="Helvetica,sans-Serif" font-size="10.00">set</text>
</a>
</g>
</g>
<!-- Node1&#45;&gt;Node2 -->
<g id="edge1" class="edge">
<title>Node1&#45;&gt;Node2</title>
<path fill="none" stroke="midnightblue" d="M70,-336.5C65.2,-327.59 59.56,-317.11 54.9,-308.46"/>
<polygon fill="midnightblue" stroke="midnightblue" points="57.98,-306.8 50.16,-299.65 51.82,-310.12 57.98,-306.8"/>
</g>
<!-- Node3 -->
<g id="node3" class="node">
<title>Node3</title>
<g id="a_node3"><a xlink:href="../../dd/d69/_c_c_object_8h.html" target="_top" xlink:title=" ">
<polygon fill="none" stroke="black" points="80,-280.5 80,-299.5 151,-299.5 151,-280.5 80,-280.5"/>
<text text-anchor="middle" x="115.5" y="-287.5" font-family="Helvetica,sans-Serif" font-size="10.00">CCObject.h</text>
</a>
</g>
</g>
<!-- Node1&#45;&gt;Node3 -->
<g id="edge2" class="edge">
<title>Node1&#45;&gt;Node3</title>
<path fill="none" stroke="midnightblue" d="M91,-336.5C95.8,-327.59 101.44,-317.11 106.1,-308.46"/>
<polygon fill="midnightblue" stroke="midnightblue" points="109.18,-310.12 110.84,-299.65 103.02,-306.8 109.18,-310.12"/>
</g>
<!-- Node4 -->
<g id="node4" class="node">
<title>Node4</title>
<g id="a_node4"><a xlink:href="../../d9/d2d/_c_c_data_visitor_8h.html" target="_top" xlink:title=" ">
<polygon fill="none" stroke="black" points="17,-224.5 17,-243.5 110,-243.5 110,-224.5 17,-224.5"/>
<text text-anchor="middle" x="63.5" y="-231.5" font-family="Helvetica,sans-Serif" font-size="10.00">CCDataVisitor.h</text>
</a>
</g>
</g>
<!-- Node3&#45;&gt;Node4 -->
<g id="edge3" class="edge">
<title>Node3&#45;&gt;Node4</title>
<path fill="none" stroke="midnightblue" d="M106.91,-280.08C99.34,-272.22 88.12,-260.57 78.99,-251.08"/>
<polygon fill="midnightblue" stroke="midnightblue" points="81.38,-248.53 71.93,-243.75 76.34,-253.38 81.38,-248.53"/>
</g>
<!-- Node10 -->
<g id="node10" class="node">
<title>Node10</title>
<g id="a_node10"><a xlink:href="../../d9/dc8/cc_macros_8h.html" target="_top" xlink:title=" ">
<polygon fill="none" stroke="black" points="178,-224.5 178,-243.5 249,-243.5 249,-224.5 178,-224.5"/>
<text text-anchor="middle" x="213.5" y="-231.5" font-family="Helvetica,sans-Serif" font-size="10.00">ccMacros.h</text>
</a>
</g>
</g>
<!-- Node3&#45;&gt;Node10 -->
<g id="edge10" class="edge">
<title>Node3&#45;&gt;Node10</title>
<path fill="none" stroke="midnightblue" d="M131.25,-280.32C146.82,-271.74 170.88,-258.49 188.96,-248.52"/>
<polygon fill="midnightblue" stroke="midnightblue" points="190.72,-251.55 197.79,-243.65 187.35,-245.42 190.72,-251.55"/>
</g>
<!-- Node5 -->
<g id="node5" class="node">
<title>Node5</title>
<g id="a_node5"><a xlink:href="../../d3/d41/_c_c_platform_macros_8h.html" target="_top" xlink:title=" ">
<polygon fill="none" stroke="black" points="70,-112.5 70,-131.5 231,-131.5 231,-112.5 70,-112.5"/>
<text text-anchor="middle" x="150.5" y="-119.5" font-family="Helvetica,sans-Serif" font-size="10.00">platform/CCPlatformMacros.h</text>
</a>
</g>
</g>
<!-- Node4&#45;&gt;Node5 -->
<g id="edge4" class="edge">
<title>Node4&#45;&gt;Node5</title>
<path fill="none" stroke="midnightblue" d="M53.55,-224.12C40.25,-211.14 19.73,-186.53 32.5,-168 43.73,-151.7 61.71,-141.3 80.28,-134.67"/>
<polygon fill="midnightblue" stroke="midnightblue" points="81.57,-137.93 90.02,-131.53 79.43,-131.27 81.57,-137.93"/>
</g>
<!-- Node9 -->
<g id="node9" class="node">
<title>Node9</title>
<g id="a_node9"><a xlink:title=" ">
<polygon fill="none" stroke="#bfbfbf" points="41.5,-168.5 41.5,-187.5 85.5,-187.5 85.5,-168.5 41.5,-168.5"/>
<text text-anchor="middle" x="63.5" y="-175.5" font-family="Helvetica,sans-Serif" font-size="10.00">string</text>
</a>
</g>
</g>
<!-- Node4&#45;&gt;Node9 -->
<g id="edge9" class="edge">
<title>Node4&#45;&gt;Node9</title>
<path fill="none" stroke="midnightblue" d="M63.5,-224.08C63.5,-217.01 63.5,-206.86 63.5,-197.99"/>
<polygon fill="midnightblue" stroke="midnightblue" points="67,-197.75 63.5,-187.75 60,-197.75 67,-197.75"/>
</g>
<!-- Node6 -->
<g id="node6" class="node">
<title>Node6</title>
<g id="a_node6"><a xlink:href="../../db/d9f/cc_config_8h.html" target="_top" xlink:title="cocos2d (cc) configuration file">
<polygon fill="none" stroke="black" points="226,-56.5 226,-75.5 293,-75.5 293,-56.5 226,-56.5"/>
<text text-anchor="middle" x="259.5" y="-63.5" font-family="Helvetica,sans-Serif" font-size="10.00">ccConfig.h</text>
</a>
</g>
</g>
<!-- Node5&#45;&gt;Node6 -->
<g id="edge5" class="edge">
<title>Node5&#45;&gt;Node6</title>
<path fill="none" stroke="midnightblue" d="M168.01,-112.32C185.57,-103.62 212.83,-90.12 233.03,-80.11"/>
<polygon fill="midnightblue" stroke="midnightblue" points="234.62,-83.23 242.03,-75.65 231.52,-76.96 234.62,-83.23"/>
</g>
<!-- Node7 -->
<g id="node7" class="node">
<title>Node7</title>
<g id="a_node7"><a xlink:href="../../dd/d96/_c_c_platform_config_8h.html" target="_top" xlink:title=" ">
<polygon fill="none" stroke="black" points="84,-0.5 84,-19.5 241,-19.5 241,-0.5 84,-0.5"/>
<text text-anchor="middle" x="162.5" y="-7.5" font-family="Helvetica,sans-Serif" font-size="10.00">platform/CCPlatformConfig.h</text>
</a>
</g>
</g>
<!-- Node5&#45;&gt;Node7 -->
<g id="edge7" class="edge">
<title>Node5&#45;&gt;Node7</title>
<path fill="none" stroke="midnightblue" d="M130.1,-112.48C106.27,-101.21 71.76,-79.95 85.5,-56 94.12,-40.99 109.89,-30.5 124.93,-23.46"/>
<polygon fill="midnightblue" stroke="midnightblue" points="126.32,-26.67 134.13,-19.51 123.56,-20.24 126.32,-26.67"/>
</g>
<!-- Node8 -->
<g id="node8" class="node">
<title>Node8</title>
<g id="a_node8"><a xlink:title=" ">
<polygon fill="none" stroke="#bfbfbf" points="95,-56.5 95,-75.5 208,-75.5 208,-56.5 95,-56.5"/>
<text text-anchor="middle" x="151.5" y="-63.5" font-family="Helvetica,sans-Serif" font-size="10.00">CCPlatformDefine.h</text>
</a>
</g>
</g>
<!-- Node5&#45;&gt;Node8 -->
<g id="edge8" class="edge">
<title>Node5&#45;&gt;Node8</title>
<path fill="none" stroke="midnightblue" d="M150.67,-112.08C150.8,-105.01 150.98,-94.86 151.15,-85.99"/>
<polygon fill="midnightblue" stroke="midnightblue" points="154.65,-85.81 151.34,-75.75 147.65,-85.68 154.65,-85.81"/>
</g>
<!-- Node6&#45;&gt;Node7 -->
<g id="edge6" class="edge">
<title>Node6&#45;&gt;Node7</title>
<path fill="none" stroke="midnightblue" d="M243.92,-56.32C228.5,-47.74 204.69,-34.49 186.79,-24.52"/>
<polygon fill="midnightblue" stroke="midnightblue" points="188.49,-21.46 178.05,-19.65 185.08,-27.58 188.49,-21.46"/>
</g>
<!-- Node10&#45;&gt;Node6 -->
<g id="edge14" class="edge">
<title>Node10&#45;&gt;Node6</title>
<path fill="none" stroke="midnightblue" d="M220.18,-224.21C226.46,-215.5 235.59,-201.53 240.5,-188 253.09,-153.32 257.34,-110.06 258.77,-85.79"/>
<polygon fill="midnightblue" stroke="midnightblue" points="262.27,-85.95 259.26,-75.79 255.28,-85.61 262.27,-85.95"/>
</g>
<!-- Node11 -->
<g id="node11" class="node">
<title>Node11</title>
<g id="a_node11"><a xlink:href="../../d5/d22/_c_c_common_8h.html" target="_top" xlink:title=" ">
<polygon fill="none" stroke="black" points="103.5,-168.5 103.5,-187.5 231.5,-187.5 231.5,-168.5 103.5,-168.5"/>
<text text-anchor="middle" x="167.5" y="-175.5" font-family="Helvetica,sans-Serif" font-size="10.00">platform/CCCommon.h</text>
</a>
</g>
</g>
<!-- Node10&#45;&gt;Node11 -->
<g id="edge11" class="edge">
<title>Node10&#45;&gt;Node11</title>
<path fill="none" stroke="midnightblue" d="M205.9,-224.08C199.27,-216.3 189.48,-204.8 181.44,-195.37"/>
<polygon fill="midnightblue" stroke="midnightblue" points="184.1,-193.09 174.95,-187.75 178.77,-197.63 184.1,-193.09"/>
</g>
<!-- Node12 -->
<g id="node12" class="node">
<title>Node12</title>
<g id="a_node12"><a xlink:title=" ">
<polygon fill="none" stroke="#bfbfbf" points="287.5,-168.5 287.5,-187.5 349.5,-187.5 349.5,-168.5 287.5,-168.5"/>
<text text-anchor="middle" x="318.5" y="-175.5" font-family="Helvetica,sans-Serif" font-size="10.00">CCStdC.h</text>
</a>
</g>
</g>
<!-- Node10&#45;&gt;Node12 -->
<g id="edge13" class="edge">
<title>Node10&#45;&gt;Node12</title>
<path fill="none" stroke="midnightblue" d="M230.37,-224.32C247.21,-215.66 273.31,-202.24 292.74,-192.25"/>
<polygon fill="midnightblue" stroke="midnightblue" points="294.38,-195.34 301.67,-187.65 291.18,-189.12 294.38,-195.34"/>
</g>
<!-- Node11&#45;&gt;Node5 -->
<g id="edge12" class="edge">
<title>Node11&#45;&gt;Node5</title>
<path fill="none" stroke="midnightblue" d="M164.69,-168.08C162.42,-160.85 159.13,-150.41 156.29,-141.4"/>
<polygon fill="midnightblue" stroke="midnightblue" points="159.6,-140.24 153.25,-131.75 152.92,-142.34 159.6,-140.24"/>
</g>
</g>
</svg>
