<?xml version="1.0" encoding="UTF-8" standalone="no"?>
<!DOCTYPE svg PUBLIC "-//W3C//DTD SVG 1.1//EN"
 "http://www.w3.org/Graphics/SVG/1.1/DTD/svg11.dtd">
<!-- Generated by graphviz version 2.43.0 (0)
 -->
<!-- Title: /home/runner/work/cocos2d.h/cocos2d.h/cocos2dx/sprite_nodes/CCSprite.h Pages: 1 -->
<svg width="1989pt" height="841pt"
 viewBox="0.00 0.00 1989.00 841.00" xmlns="http://www.w3.org/2000/svg" xmlns:xlink="http://www.w3.org/1999/xlink">
<g id="graph0" class="graph" transform="scale(1 1) rotate(0) translate(4 837)">
<title>/home/runner/work/cocos2d.h/cocos2d.h/cocos2dx/sprite_nodes/CCSprite.h</title>
<!-- Node1 -->
<g id="node1" class="node">
<title>Node1</title>
<g id="a_node1"><a xlink:title=" ">
<polygon fill="#999999" stroke="#666666" points="1335.5,-833 1174.5,-833 1174.5,-792 1335.5,-792 1335.5,-833"/>
<text text-anchor="start" x="1182.5" y="-821" font-family="Helvetica,sans-Serif" font-size="10.00">/home/runner/work/cocos2d.h</text>
<text text-anchor="start" x="1182.5" y="-810" font-family="Helvetica,sans-Serif" font-size="10.00">/cocos2d.h/cocos2dx/sprite</text>
<text text-anchor="middle" x="1255" y="-799" font-family="Helvetica,sans-Serif" font-size="10.00">_nodes/CCSprite.h</text>
</a>
</g>
</g>
<!-- Node2 -->
<g id="node2" class="node">
<title>Node2</title>
<g id="a_node2"><a xlink:href="../../dc/dfd/cocos2d_8h.html" target="_top" xlink:title=" ">
<polygon fill="white" stroke="#666666" points="1425.5,-602 1264.5,-602 1264.5,-561 1425.5,-561 1425.5,-602"/>
<text text-anchor="start" x="1272.5" y="-590" font-family="Helvetica,sans-Serif" font-size="10.00">/home/runner/work/cocos2d.h</text>
<text text-anchor="start" x="1272.5" y="-579" font-family="Helvetica,sans-Serif" font-size="10.00">/cocos2d.h/cocos2dx/include</text>
<text text-anchor="middle" x="1345" y="-568" font-family="Helvetica,sans-Serif" font-size="10.00">/cocos2d.h</text>
</a>
</g>
</g>
<!-- Node1&#45;&gt;Node2 -->
<g id="edge1" class="edge">
<title>Node1&#45;&gt;Node2</title>
<path fill="none" stroke="#63b8ff" d="M1314.88,-786.47C1326.92,-778.55 1338.02,-768.51 1345,-756 1372.6,-706.55 1359.66,-636.16 1350.84,-602.25"/>
<polygon fill="#63b8ff" stroke="#63b8ff" points="1312.72,-783.68 1305.98,-791.86 1316.35,-789.67 1312.72,-783.68"/>
</g>
<!-- Node32 -->
<g id="node32" class="node">
<title>Node32</title>
<g id="a_node32"><a xlink:href="../../df/dc3/_c_c_label_t_t_f_8h.html" target="_top" xlink:title=" ">
<polygon fill="white" stroke="#666666" points="1335.5,-756 1174.5,-756 1174.5,-715 1335.5,-715 1335.5,-756"/>
<text text-anchor="start" x="1182.5" y="-744" font-family="Helvetica,sans-Serif" font-size="10.00">/home/runner/work/cocos2d.h</text>
<text text-anchor="start" x="1182.5" y="-733" font-family="Helvetica,sans-Serif" font-size="10.00">/cocos2d.h/cocos2dx/label</text>
<text text-anchor="middle" x="1255" y="-722" font-family="Helvetica,sans-Serif" font-size="10.00">_nodes/CCLabelTTF.h</text>
</a>
</g>
</g>
<!-- Node1&#45;&gt;Node32 -->
<g id="edge59" class="edge">
<title>Node1&#45;&gt;Node32</title>
<path fill="none" stroke="#63b8ff" d="M1255,-781.69C1255,-773.08 1255,-763.9 1255,-756.07"/>
<polygon fill="#63b8ff" stroke="#63b8ff" points="1251.5,-781.79 1255,-791.79 1258.5,-781.79 1251.5,-781.79"/>
</g>
<!-- Node34 -->
<g id="node34" class="node">
<title>Node34</title>
<g id="a_node34"><a xlink:href="../../d0/da9/_c_c_progress_timer_8h.html" target="_top" xlink:title=" ">
<polygon fill="white" stroke="#666666" points="1553.5,-679 1392.5,-679 1392.5,-638 1553.5,-638 1553.5,-679"/>
<text text-anchor="start" x="1400.5" y="-667" font-family="Helvetica,sans-Serif" font-size="10.00">/home/runner/work/cocos2d.h</text>
<text text-anchor="start" x="1400.5" y="-656" font-family="Helvetica,sans-Serif" font-size="10.00">/cocos2d.h/cocos2dx/misc</text>
<text text-anchor="middle" x="1473" y="-645" font-family="Helvetica,sans-Serif" font-size="10.00">_nodes/CCProgressTimer.h</text>
</a>
</g>
</g>
<!-- Node1&#45;&gt;Node34 -->
<g id="edge63" class="edge">
<title>Node1&#45;&gt;Node34</title>
<path fill="none" stroke="#63b8ff" d="M1318.93,-787.99C1338.7,-779.34 1360,-768.54 1378,-756 1409.83,-733.82 1440.09,-700.15 1457.59,-679.01"/>
<polygon fill="#63b8ff" stroke="#63b8ff" points="1317.5,-784.79 1309.67,-791.93 1320.25,-791.23 1317.5,-784.79"/>
</g>
<!-- Node35 -->
<g id="node35" class="node">
<title>Node35</title>
<g id="a_node35"><a xlink:href="../../dd/d1f/_c_c_render_texture_8h.html" target="_top" xlink:title=" ">
<polygon fill="white" stroke="#666666" points="1156.5,-756 995.5,-756 995.5,-715 1156.5,-715 1156.5,-756"/>
<text text-anchor="start" x="1003.5" y="-744" font-family="Helvetica,sans-Serif" font-size="10.00">/home/runner/work/cocos2d.h</text>
<text text-anchor="start" x="1003.5" y="-733" font-family="Helvetica,sans-Serif" font-size="10.00">/cocos2d.h/cocos2dx/misc</text>
<text text-anchor="middle" x="1076" y="-722" font-family="Helvetica,sans-Serif" font-size="10.00">_nodes/CCRenderTexture.h</text>
</a>
</g>
</g>
<!-- Node1&#45;&gt;Node35 -->
<g id="edge65" class="edge">
<title>Node1&#45;&gt;Node35</title>
<path fill="none" stroke="#63b8ff" d="M1198.9,-788C1174.39,-777.72 1145.97,-765.82 1122.64,-756.04"/>
<polygon fill="#63b8ff" stroke="#63b8ff" points="1197.86,-791.35 1208.44,-791.99 1200.57,-784.9 1197.86,-791.35"/>
</g>
<!-- Node36 -->
<g id="node36" class="node">
<title>Node36</title>
<g id="a_node36"><a xlink:href="../../d5/de1/_c_c_control_utils_8h.html" target="_top" xlink:title=" ">
<polygon fill="white" stroke="#666666" points="979,-602 779,-602 779,-561 979,-561 979,-602"/>
<text text-anchor="start" x="787" y="-590" font-family="Helvetica,sans-Serif" font-size="10.00">/home/runner/work/cocos2d.h</text>
<text text-anchor="start" x="787" y="-579" font-family="Helvetica,sans-Serif" font-size="10.00">/cocos2d.h/extensions/GUI</text>
<text text-anchor="middle" x="879" y="-568" font-family="Helvetica,sans-Serif" font-size="10.00">/CCControlExtension/CCControlUtils.h</text>
</a>
</g>
</g>
<!-- Node1&#45;&gt;Node36 -->
<g id="edge67" class="edge">
<title>Node1&#45;&gt;Node36</title>
<path fill="none" stroke="#63b8ff" d="M1164.16,-800.58C1097.73,-791.16 1014.47,-775.93 986,-756 930.19,-716.93 897.81,-638.51 885.18,-602.02"/>
<polygon fill="#63b8ff" stroke="#63b8ff" points="1163.86,-804.07 1174.25,-801.98 1164.83,-797.14 1163.86,-804.07"/>
</g>
<!-- Node3 -->
<g id="node3" class="node">
<title>Node3</title>
<g id="a_node3"><a xlink:href="../../d4/d5d/_d_s___dictionary_8h.html" target="_top" xlink:title=" ">
<polygon fill="white" stroke="#666666" points="1812.5,-525 1651.5,-525 1651.5,-484 1812.5,-484 1812.5,-525"/>
<text text-anchor="start" x="1659.5" y="-513" font-family="Helvetica,sans-Serif" font-size="10.00">/home/runner/work/cocos2d.h</text>
<text text-anchor="start" x="1659.5" y="-502" font-family="Helvetica,sans-Serif" font-size="10.00">/cocos2d.h/cocos2dx/robtop</text>
<text text-anchor="middle" x="1732" y="-491" font-family="Helvetica,sans-Serif" font-size="10.00">/xml/DS_Dictionary.h</text>
</a>
</g>
</g>
<!-- Node2&#45;&gt;Node3 -->
<g id="edge2" class="edge">
<title>Node2&#45;&gt;Node3</title>
<path fill="none" stroke="#63b8ff" d="M1435.59,-562.97C1492.59,-552.42 1567.58,-538.46 1634,-525 1639.58,-523.87 1645.35,-522.67 1651.18,-521.45"/>
<polygon fill="#63b8ff" stroke="#63b8ff" points="1434.72,-559.57 1425.52,-564.84 1435.99,-566.46 1434.72,-559.57"/>
</g>
<!-- Node4 -->
<g id="node4" class="node">
<title>Node4</title>
<g id="a_node4"><a xlink:href="../../d3/db7/_assets_manager_8h.html" target="_top" xlink:title=" ">
<polygon fill="white" stroke="#666666" points="431.5,-525 228.5,-525 228.5,-484 431.5,-484 431.5,-525"/>
<text text-anchor="start" x="236.5" y="-513" font-family="Helvetica,sans-Serif" font-size="10.00">/home/runner/work/cocos2d.h</text>
<text text-anchor="start" x="236.5" y="-502" font-family="Helvetica,sans-Serif" font-size="10.00">/cocos2d.h/extensions/AssetsManager</text>
<text text-anchor="middle" x="330" y="-491" font-family="Helvetica,sans-Serif" font-size="10.00">/AssetsManager.h</text>
</a>
</g>
</g>
<!-- Node2&#45;&gt;Node4 -->
<g id="edge4" class="edge">
<title>Node2&#45;&gt;Node4</title>
<path fill="none" stroke="#63b8ff" d="M1254.11,-575.43C1041.68,-563.51 524.67,-534.02 446,-525 441.33,-524.47 436.57,-523.87 431.76,-523.23"/>
<polygon fill="#63b8ff" stroke="#63b8ff" points="1254.12,-578.94 1264.3,-576 1254.51,-571.95 1254.12,-578.94"/>
</g>
<!-- Node5 -->
<g id="node5" class="node">
<title>Node5</title>
<g id="a_node5"><a xlink:href="../../de/d8b/_c_c_control_8h.html" target="_top" xlink:title=" ">
<polygon fill="white" stroke="#666666" points="967.5,-525 790.5,-525 790.5,-484 967.5,-484 967.5,-525"/>
<text text-anchor="start" x="798.5" y="-513" font-family="Helvetica,sans-Serif" font-size="10.00">/home/runner/work/cocos2d.h</text>
<text text-anchor="start" x="798.5" y="-502" font-family="Helvetica,sans-Serif" font-size="10.00">/cocos2d.h/extensions/GUI</text>
<text text-anchor="middle" x="879" y="-491" font-family="Helvetica,sans-Serif" font-size="10.00">/CCControlExtension/CCControl.h</text>
</a>
</g>
</g>
<!-- Node2&#45;&gt;Node5 -->
<g id="edge5" class="edge">
<title>Node2&#45;&gt;Node5</title>
<path fill="none" stroke="#63b8ff" d="M1254.13,-568C1179.53,-557.45 1071.22,-541.47 977,-525 973.92,-524.46 970.8,-523.9 967.64,-523.33"/>
<polygon fill="#63b8ff" stroke="#63b8ff" points="1254.03,-571.52 1264.42,-569.45 1255.01,-564.59 1254.03,-571.52"/>
</g>
<!-- Node8 -->
<g id="node8" class="node">
<title>Node8</title>
<g id="a_node8"><a xlink:href="../../dc/d4a/_c_c_edit_box_8h.html" target="_top" xlink:title=" ">
<polygon fill="white" stroke="#666666" points="1061.5,-195 900.5,-195 900.5,-154 1061.5,-154 1061.5,-195"/>
<text text-anchor="start" x="908.5" y="-183" font-family="Helvetica,sans-Serif" font-size="10.00">/home/runner/work/cocos2d.h</text>
<text text-anchor="start" x="908.5" y="-172" font-family="Helvetica,sans-Serif" font-size="10.00">/cocos2d.h/extensions/GUI</text>
<text text-anchor="middle" x="981" y="-161" font-family="Helvetica,sans-Serif" font-size="10.00">/CCEditBox/CCEditBox.h</text>
</a>
</g>
</g>
<!-- Node2&#45;&gt;Node8 -->
<g id="edge38" class="edge">
<title>Node2&#45;&gt;Node8</title>
<path fill="none" stroke="#63b8ff" d="M1253.89,-572.7C1142.28,-562.88 947.5,-544.86 781,-525 750.42,-521.35 259.96,-460.92 232,-448 178.56,-423.3 157.12,-413.7 133,-360 123.53,-338.92 117.97,-325.56 133,-308 231.47,-192.95 708.11,-177.07 900.37,-175.4"/>
<polygon fill="#63b8ff" stroke="#63b8ff" points="1253.83,-576.21 1264.1,-573.6 1254.44,-569.23 1253.83,-576.21"/>
</g>
<!-- Node9 -->
<g id="node9" class="node">
<title>Node9</title>
<g id="a_node9"><a xlink:href="../../db/da9/_c_c_edit_box_impl_8h.html" target="_top" xlink:title=" ">
<polygon fill="white" stroke="#666666" points="1061.5,-118 900.5,-118 900.5,-77 1061.5,-77 1061.5,-118"/>
<text text-anchor="start" x="908.5" y="-106" font-family="Helvetica,sans-Serif" font-size="10.00">/home/runner/work/cocos2d.h</text>
<text text-anchor="start" x="908.5" y="-95" font-family="Helvetica,sans-Serif" font-size="10.00">/cocos2d.h/extensions/GUI</text>
<text text-anchor="middle" x="981" y="-84" font-family="Helvetica,sans-Serif" font-size="10.00">/CCEditBox/CCEditBoxImpl.h</text>
</a>
</g>
</g>
<!-- Node2&#45;&gt;Node9 -->
<g id="edge39" class="edge">
<title>Node2&#45;&gt;Node9</title>
<path fill="none" stroke="#63b8ff" d="M1253.78,-575.32C1181.65,-571.27 1078.4,-565.58 988,-561 817.14,-552.33 380.67,-580.95 219,-525 145.23,-499.47 76,-501.07 76,-423 76,-423 76,-423 76,-250.5 76,-167.31 678.48,-118.68 900.29,-103.6"/>
<polygon fill="#63b8ff" stroke="#63b8ff" points="1254.01,-578.84 1264.19,-575.91 1254.4,-571.85 1254.01,-578.84"/>
</g>
<!-- Node10 -->
<g id="node10" class="node">
<title>Node10</title>
<g id="a_node10"><a xlink:href="../../d4/dd3/_c_c_edit_box_impl_android_8h.html" target="_top" xlink:title=" ">
<polygon fill="white" stroke="#666666" points="1671.5,-41 1478.5,-41 1478.5,0 1671.5,0 1671.5,-41"/>
<text text-anchor="start" x="1486.5" y="-29" font-family="Helvetica,sans-Serif" font-size="10.00">/home/runner/work/cocos2d.h</text>
<text text-anchor="start" x="1486.5" y="-18" font-family="Helvetica,sans-Serif" font-size="10.00">/cocos2d.h/extensions/GUI</text>
<text text-anchor="middle" x="1575" y="-7" font-family="Helvetica,sans-Serif" font-size="10.00">/CCEditBox/CCEditBoxImplAndroid.h</text>
</a>
</g>
</g>
<!-- Node2&#45;&gt;Node10 -->
<g id="edge40" class="edge">
<title>Node2&#45;&gt;Node10</title>
<path fill="none" stroke="#63b8ff" d="M1435.64,-581.27C1566.59,-580.67 1800.42,-572.67 1868,-525 1909.1,-496.01 1917,-473.29 1917,-423 1917,-423 1917,-423 1917,-173.5 1917,-65.48 1772.77,-33.65 1671.63,-24.62"/>
<polygon fill="#63b8ff" stroke="#63b8ff" points="1435.61,-577.77 1425.62,-581.3 1435.63,-584.77 1435.61,-577.77"/>
</g>
<!-- Node11 -->
<g id="node11" class="node">
<title>Node11</title>
<g id="a_node11"><a xlink:href="../../dd/dfd/_c_c_edit_box_impl_i_o_s_8h.html" target="_top" xlink:title=" ">
<polygon fill="white" stroke="#666666" points="1981,-41 1809,-41 1809,0 1981,0 1981,-41"/>
<text text-anchor="start" x="1817" y="-29" font-family="Helvetica,sans-Serif" font-size="10.00">/home/runner/work/cocos2d.h</text>
<text text-anchor="start" x="1817" y="-18" font-family="Helvetica,sans-Serif" font-size="10.00">/cocos2d.h/extensions/GUI</text>
<text text-anchor="middle" x="1895" y="-7" font-family="Helvetica,sans-Serif" font-size="10.00">/CCEditBox/CCEditBoxImplIOS.h</text>
</a>
</g>
</g>
<!-- Node2&#45;&gt;Node11 -->
<g id="edge41" class="edge">
<title>Node2&#45;&gt;Node11</title>
<path fill="none" stroke="#63b8ff" d="M1436.17,-576.09C1584,-568.25 1863.36,-550.3 1901,-525 1943.57,-496.39 1955,-474.29 1955,-423 1955,-423 1955,-423 1955,-173.5 1955,-123 1925.99,-69.24 1908.32,-41.17"/>
<polygon fill="#63b8ff" stroke="#63b8ff" points="1435.56,-572.62 1425.76,-576.64 1435.93,-579.61 1435.56,-572.62"/>
</g>
<!-- Node12 -->
<g id="node12" class="node">
<title>Node12</title>
<g id="a_node12"><a xlink:href="../../d7/d4d/_c_c_edit_box_impl_mac_8h.html" target="_top" xlink:title=" ">
<polygon fill="white" stroke="#666666" points="1391,-41 1215,-41 1215,0 1391,0 1391,-41"/>
<text text-anchor="start" x="1223" y="-29" font-family="Helvetica,sans-Serif" font-size="10.00">/home/runner/work/cocos2d.h</text>
<text text-anchor="start" x="1223" y="-18" font-family="Helvetica,sans-Serif" font-size="10.00">/cocos2d.h/extensions/GUI</text>
<text text-anchor="middle" x="1303" y="-7" font-family="Helvetica,sans-Serif" font-size="10.00">/CCEditBox/CCEditBoxImplMac.h</text>
</a>
</g>
</g>
<!-- Node2&#45;&gt;Node12 -->
<g id="edge42" class="edge">
<title>Node2&#45;&gt;Node12</title>
<path fill="none" stroke="#63b8ff" d="M1366.79,-552.85C1372.73,-544.3 1378.7,-534.59 1383,-525 1418.59,-445.62 1430,-421.99 1430,-335 1430,-335 1430,-335 1430,-173.5 1430,-114.7 1373.33,-66.63 1335.71,-41.2"/>
<polygon fill="#63b8ff" stroke="#63b8ff" points="1363.94,-550.82 1360.93,-560.98 1369.62,-554.92 1363.94,-550.82"/>
</g>
<!-- Node13 -->
<g id="node13" class="node">
<title>Node13</title>
<g id="a_node13"><a xlink:href="../../de/dac/_c_c_edit_box_impl_tizen_8h.html" target="_top" xlink:title=" ">
<polygon fill="white" stroke="#666666" points="239,-41 57,-41 57,0 239,0 239,-41"/>
<text text-anchor="start" x="65" y="-29" font-family="Helvetica,sans-Serif" font-size="10.00">/home/runner/work/cocos2d.h</text>
<text text-anchor="start" x="65" y="-18" font-family="Helvetica,sans-Serif" font-size="10.00">/cocos2d.h/extensions/GUI</text>
<text text-anchor="middle" x="148" y="-7" font-family="Helvetica,sans-Serif" font-size="10.00">/CCEditBox/CCEditBoxImplTizen.h</text>
</a>
</g>
</g>
<!-- Node2&#45;&gt;Node13 -->
<g id="edge43" class="edge">
<title>Node2&#45;&gt;Node13</title>
<path fill="none" stroke="#63b8ff" d="M1253.79,-575.11C1181.67,-570.94 1078.42,-565.2 988,-561 935.85,-558.58 92.65,-553.64 49,-525 6.95,-497.41 0,-473.29 0,-423 0,-423 0,-423 0,-173.5 0,-111.62 63.74,-65.5 107.56,-41.1"/>
<polygon fill="#63b8ff" stroke="#63b8ff" points="1254.02,-578.63 1264.2,-575.71 1254.42,-571.64 1254.02,-578.63"/>
</g>
<!-- Node14 -->
<g id="node14" class="node">
<title>Node14</title>
<g id="a_node14"><a xlink:href="../../dd/d41/_c_c_edit_box_impl_win_8h.html" target="_top" xlink:title=" ">
<polygon fill="white" stroke="#666666" points="726,-41 552,-41 552,0 726,0 726,-41"/>
<text text-anchor="start" x="560" y="-29" font-family="Helvetica,sans-Serif" font-size="10.00">/home/runner/work/cocos2d.h</text>
<text text-anchor="start" x="560" y="-18" font-family="Helvetica,sans-Serif" font-size="10.00">/cocos2d.h/extensions/GUI</text>
<text text-anchor="middle" x="639" y="-7" font-family="Helvetica,sans-Serif" font-size="10.00">/CCEditBox/CCEditBoxImplWin.h</text>
</a>
</g>
</g>
<!-- Node2&#45;&gt;Node14 -->
<g id="edge44" class="edge">
<title>Node2&#45;&gt;Node14</title>
<path fill="none" stroke="#63b8ff" d="M1253.79,-575.17C1181.67,-571.03 1078.42,-565.31 988,-561 889.59,-556.31 187.23,-574.43 102,-525 55.7,-498.15 38,-476.52 38,-423 38,-423 38,-423 38,-173.5 38,-68.77 385.37,-35.43 551.93,-25.46"/>
<polygon fill="#63b8ff" stroke="#63b8ff" points="1254.01,-578.69 1264.2,-575.76 1254.42,-571.7 1254.01,-578.69"/>
</g>
<!-- Node25 -->
<g id="node25" class="node">
<title>Node25</title>
<g id="a_node25"><a xlink:href="../../db/d24/_c_c_scale9_sprite_8h.html" target="_top" xlink:title=" ">
<polygon fill="white" stroke="#666666" points="1188.5,-525 985.5,-525 985.5,-484 1188.5,-484 1188.5,-525"/>
<text text-anchor="start" x="993.5" y="-513" font-family="Helvetica,sans-Serif" font-size="10.00">/home/runner/work/cocos2d.h</text>
<text text-anchor="start" x="993.5" y="-502" font-family="Helvetica,sans-Serif" font-size="10.00">/cocos2d.h/extensions/GUI</text>
<text text-anchor="middle" x="1087" y="-491" font-family="Helvetica,sans-Serif" font-size="10.00">/CCControlExtension/CCScale9Sprite.h</text>
</a>
</g>
</g>
<!-- Node2&#45;&gt;Node25 -->
<g id="edge35" class="edge">
<title>Node2&#45;&gt;Node25</title>
<path fill="none" stroke="#63b8ff" d="M1267.87,-558.08C1231.72,-547.57 1189.04,-535.16 1154.22,-525.04"/>
<polygon fill="#63b8ff" stroke="#63b8ff" points="1267.31,-561.56 1277.89,-560.99 1269.26,-554.84 1267.31,-561.56"/>
</g>
<!-- Node26 -->
<g id="node26" class="node">
<title>Node26</title>
<g id="a_node26"><a xlink:href="../../de/d56/_c_c_scroll_view_8h.html" target="_top" xlink:title=" ">
<polygon fill="white" stroke="#666666" points="1888.5,-272 1727.5,-272 1727.5,-231 1888.5,-231 1888.5,-272"/>
<text text-anchor="start" x="1735.5" y="-260" font-family="Helvetica,sans-Serif" font-size="10.00">/home/runner/work/cocos2d.h</text>
<text text-anchor="start" x="1735.5" y="-249" font-family="Helvetica,sans-Serif" font-size="10.00">/cocos2d.h/extensions/GUI</text>
<text text-anchor="middle" x="1808" y="-238" font-family="Helvetica,sans-Serif" font-size="10.00">/CCScrollView/CCScrollView.h</text>
</a>
</g>
</g>
<!-- Node2&#45;&gt;Node26 -->
<g id="edge45" class="edge">
<title>Node2&#45;&gt;Node26</title>
<path fill="none" stroke="#63b8ff" d="M1435.73,-576.83C1571.97,-570.37 1816.38,-554.75 1843,-525 1908.04,-452.31 1846.83,-321.86 1819.58,-272.32"/>
<polygon fill="#63b8ff" stroke="#63b8ff" points="1435.53,-573.33 1425.71,-577.29 1435.86,-580.32 1435.53,-573.33"/>
</g>
<!-- Node28 -->
<g id="node28" class="node">
<title>Node28</title>
<g id="a_node28"><a xlink:href="../../d8/d12/_http_client_8h.html" target="_top" xlink:title=" ">
<polygon fill="white" stroke="#666666" points="1662.5,-354.5 1495.5,-354.5 1495.5,-313.5 1662.5,-313.5 1662.5,-354.5"/>
<text text-anchor="start" x="1503.5" y="-342.5" font-family="Helvetica,sans-Serif" font-size="10.00">/home/runner/work/cocos2d.h</text>
<text text-anchor="start" x="1503.5" y="-331.5" font-family="Helvetica,sans-Serif" font-size="10.00">/cocos2d.h/extensions/network</text>
<text text-anchor="middle" x="1579" y="-320.5" font-family="Helvetica,sans-Serif" font-size="10.00">/HttpClient.h</text>
</a>
</g>
</g>
<!-- Node2&#45;&gt;Node28 -->
<g id="edge49" class="edge">
<title>Node2&#45;&gt;Node28</title>
<path fill="none" stroke="#63b8ff" d="M1435.71,-576.34C1566.92,-569.39 1796.81,-553.29 1822,-525 1887.26,-451.71 1734.58,-385.99 1642.53,-354.55"/>
<polygon fill="#63b8ff" stroke="#63b8ff" points="1435.47,-572.85 1425.67,-576.87 1435.83,-579.84 1435.47,-572.85"/>
</g>
<!-- Node29 -->
<g id="node29" class="node">
<title>Node29</title>
<g id="a_node29"><a xlink:href="../../d3/d95/_http_request_8h.html" target="_top" xlink:title=" ">
<polygon fill="white" stroke="#666666" points="1633.5,-525 1466.5,-525 1466.5,-484 1633.5,-484 1633.5,-525"/>
<text text-anchor="start" x="1474.5" y="-513" font-family="Helvetica,sans-Serif" font-size="10.00">/home/runner/work/cocos2d.h</text>
<text text-anchor="start" x="1474.5" y="-502" font-family="Helvetica,sans-Serif" font-size="10.00">/cocos2d.h/extensions/network</text>
<text text-anchor="middle" x="1550" y="-491" font-family="Helvetica,sans-Serif" font-size="10.00">/HttpRequest.h</text>
</a>
</g>
</g>
<!-- Node2&#45;&gt;Node29 -->
<g id="edge51" class="edge">
<title>Node2&#45;&gt;Node29</title>
<path fill="none" stroke="#63b8ff" d="M1407.76,-557.54C1436.17,-547.15 1469.39,-534.99 1496.59,-525.04"/>
<polygon fill="#63b8ff" stroke="#63b8ff" points="1406.51,-554.27 1398.33,-560.99 1408.92,-560.84 1406.51,-554.27"/>
</g>
<!-- Node30 -->
<g id="node30" class="node">
<title>Node30</title>
<g id="a_node30"><a xlink:href="../../d1/d33/_http_response_8h.html" target="_top" xlink:title=" ">
<polygon fill="white" stroke="#666666" points="1624.5,-442.5 1457.5,-442.5 1457.5,-401.5 1624.5,-401.5 1624.5,-442.5"/>
<text text-anchor="start" x="1465.5" y="-430.5" font-family="Helvetica,sans-Serif" font-size="10.00">/home/runner/work/cocos2d.h</text>
<text text-anchor="start" x="1465.5" y="-419.5" font-family="Helvetica,sans-Serif" font-size="10.00">/cocos2d.h/extensions/network</text>
<text text-anchor="middle" x="1541" y="-408.5" font-family="Helvetica,sans-Serif" font-size="10.00">/HttpResponse.h</text>
</a>
</g>
</g>
<!-- Node2&#45;&gt;Node30 -->
<g id="edge57" class="edge">
<title>Node2&#45;&gt;Node30</title>
<path fill="none" stroke="#63b8ff" d="M1379.2,-554.4C1390.75,-545.31 1403.61,-534.91 1415,-525 1434.92,-507.67 1437.76,-500.96 1458,-484 1475.4,-469.41 1495.97,-454.28 1512.27,-442.74"/>
<polygon fill="#63b8ff" stroke="#63b8ff" points="1376.79,-551.84 1371.06,-560.75 1381.09,-557.36 1376.79,-551.84"/>
</g>
<!-- Node31 -->
<g id="node31" class="node">
<title>Node31</title>
<g id="a_node31"><a xlink:href="../../da/d1e/_web_socket_8h.html" target="_top" xlink:title=" ">
<polygon fill="white" stroke="#666666" points="1373.5,-525 1206.5,-525 1206.5,-484 1373.5,-484 1373.5,-525"/>
<text text-anchor="start" x="1214.5" y="-513" font-family="Helvetica,sans-Serif" font-size="10.00">/home/runner/work/cocos2d.h</text>
<text text-anchor="start" x="1214.5" y="-502" font-family="Helvetica,sans-Serif" font-size="10.00">/cocos2d.h/extensions/network</text>
<text text-anchor="middle" x="1290" y="-491" font-family="Helvetica,sans-Serif" font-size="10.00">/WebSocket.h</text>
</a>
</g>
</g>
<!-- Node2&#45;&gt;Node31 -->
<g id="edge58" class="edge">
<title>Node2&#45;&gt;Node31</title>
<path fill="none" stroke="#63b8ff" d="M1324.59,-552.67C1317.87,-543.5 1310.53,-533.5 1304.35,-525.07"/>
<polygon fill="#63b8ff" stroke="#63b8ff" points="1321.81,-554.8 1330.55,-560.79 1327.46,-550.66 1321.81,-554.8"/>
</g>
<!-- Node3&#45;&gt;Node2 -->
<g id="edge3" class="edge">
<title>Node3&#45;&gt;Node2</title>
<path fill="none" stroke="#63b8ff" d="M1641.65,-527.09C1567.71,-541.93 1484.91,-557.14 1425.55,-567.51"/>
<polygon fill="#63b8ff" stroke="#63b8ff" points="1642.44,-530.5 1651.55,-525.09 1641.06,-523.64 1642.44,-530.5"/>
</g>
<!-- Node6 -->
<g id="node6" class="node">
<title>Node6</title>
<g id="a_node6"><a xlink:href="../../d0/d7e/_c_c_control_button_8h.html" target="_top" xlink:title=" ">
<polygon fill="white" stroke="#666666" points="1353.5,-442.5 1144.5,-442.5 1144.5,-401.5 1353.5,-401.5 1353.5,-442.5"/>
<text text-anchor="start" x="1152.5" y="-430.5" font-family="Helvetica,sans-Serif" font-size="10.00">/home/runner/work/cocos2d.h</text>
<text text-anchor="start" x="1152.5" y="-419.5" font-family="Helvetica,sans-Serif" font-size="10.00">/cocos2d.h/extensions/GUI</text>
<text text-anchor="middle" x="1249" y="-408.5" font-family="Helvetica,sans-Serif" font-size="10.00">/CCControlExtension/CCControlButton.h</text>
</a>
</g>
</g>
<!-- Node5&#45;&gt;Node6 -->
<g id="edge6" class="edge">
<title>Node5&#45;&gt;Node6</title>
<path fill="none" stroke="#63b8ff" d="M977.63,-482.04C1034.05,-469.77 1104.29,-454.48 1159.17,-442.54"/>
<polygon fill="#63b8ff" stroke="#63b8ff" points="976.65,-478.67 967.62,-484.22 978.14,-485.51 976.65,-478.67"/>
</g>
<!-- Node7 -->
<g id="node7" class="node">
<title>Node7</title>
<g id="a_node7"><a xlink:href="../../d6/d86/_c_c_control_extensions_8h.html" target="_top" xlink:title=" ">
<polygon fill="white" stroke="#666666" points="1096,-272 866,-272 866,-231 1096,-231 1096,-272"/>
<text text-anchor="start" x="874" y="-260" font-family="Helvetica,sans-Serif" font-size="10.00">/home/runner/work/cocos2d.h</text>
<text text-anchor="start" x="874" y="-249" font-family="Helvetica,sans-Serif" font-size="10.00">/cocos2d.h/extensions/GUI</text>
<text text-anchor="middle" x="981" y="-238" font-family="Helvetica,sans-Serif" font-size="10.00">/CCControlExtension/CCControlExtensions.h</text>
</a>
</g>
</g>
<!-- Node5&#45;&gt;Node7 -->
<g id="edge20" class="edge">
<title>Node5&#45;&gt;Node7</title>
<path fill="none" stroke="#63b8ff" d="M977.1,-482.58C994.01,-474.54 1009.5,-463.41 1020,-448 1102.65,-326.65 876.13,-393.43 849,-360 834.44,-342.05 836.21,-327.25 849,-308 859.8,-291.75 876.39,-280.24 894.2,-272.1"/>
<polygon fill="#63b8ff" stroke="#63b8ff" points="975.34,-479.53 967.57,-486.74 978.14,-485.95 975.34,-479.53"/>
</g>
<!-- Node17 -->
<g id="node17" class="node">
<title>Node17</title>
<g id="a_node17"><a xlink:href="../../d3/db7/_c_c_control_colour_picker_8h.html" target="_top" xlink:title=" ">
<polygon fill="white" stroke="#666666" points="802,-360 602,-360 602,-308 802,-308 802,-360"/>
<text text-anchor="start" x="610" y="-348" font-family="Helvetica,sans-Serif" font-size="10.00">/home/runner/work/cocos2d.h</text>
<text text-anchor="start" x="610" y="-337" font-family="Helvetica,sans-Serif" font-size="10.00">/cocos2d.h/extensions/GUI</text>
<text text-anchor="start" x="610" y="-326" font-family="Helvetica,sans-Serif" font-size="10.00">/CCControlExtension/CCControlColour</text>
<text text-anchor="middle" x="702" y="-315" font-family="Helvetica,sans-Serif" font-size="10.00">Picker.h</text>
</a>
</g>
</g>
<!-- Node5&#45;&gt;Node17 -->
<g id="edge18" class="edge">
<title>Node5&#45;&gt;Node17</title>
<path fill="none" stroke="#63b8ff" d="M780.21,-497.55C617.91,-487.3 311.09,-465.69 295,-448 214.06,-359 335.79,-404.52 592,-360 595.28,-359.43 598.61,-358.83 601.97,-358.19"/>
<polygon fill="#63b8ff" stroke="#63b8ff" points="780.01,-501.04 790.21,-498.18 780.45,-494.06 780.01,-501.04"/>
</g>
<!-- Node18 -->
<g id="node18" class="node">
<title>Node18</title>
<g id="a_node18"><a xlink:href="../../dd/d5a/_c_c_control_hue_picker_8h.html" target="_top" xlink:title=" ">
<polygon fill="white" stroke="#666666" points="529.5,-442.5 304.5,-442.5 304.5,-401.5 529.5,-401.5 529.5,-442.5"/>
<text text-anchor="start" x="312.5" y="-430.5" font-family="Helvetica,sans-Serif" font-size="10.00">/home/runner/work/cocos2d.h</text>
<text text-anchor="start" x="312.5" y="-419.5" font-family="Helvetica,sans-Serif" font-size="10.00">/cocos2d.h/extensions/GUI</text>
<text text-anchor="middle" x="417" y="-408.5" font-family="Helvetica,sans-Serif" font-size="10.00">/CCControlExtension/CCControlHuePicker.h</text>
</a>
</g>
</g>
<!-- Node5&#45;&gt;Node18 -->
<g id="edge21" class="edge">
<title>Node5&#45;&gt;Node18</title>
<path fill="none" stroke="#63b8ff" d="M780.15,-488.44C712.21,-477.83 619.99,-462.9 539,-448 529.75,-446.3 520.12,-444.45 510.51,-442.56"/>
<polygon fill="#63b8ff" stroke="#63b8ff" points="780,-491.96 790.42,-490.04 781.08,-485.04 780,-491.96"/>
</g>
<!-- Node19 -->
<g id="node19" class="node">
<title>Node19</title>
<g id="a_node19"><a xlink:href="../../d2/d29/_c_c_control_potentiometer_8h.html" target="_top" xlink:title=" ">
<polygon fill="white" stroke="#666666" points="1104,-354.5 858,-354.5 858,-313.5 1104,-313.5 1104,-354.5"/>
<text text-anchor="start" x="866" y="-342.5" font-family="Helvetica,sans-Serif" font-size="10.00">/home/runner/work/cocos2d.h</text>
<text text-anchor="start" x="866" y="-331.5" font-family="Helvetica,sans-Serif" font-size="10.00">/cocos2d.h/extensions/GUI</text>
<text text-anchor="middle" x="981" y="-320.5" font-family="Helvetica,sans-Serif" font-size="10.00">/CCControlExtension/CCControlPotentiometer.h</text>
</a>
</g>
</g>
<!-- Node5&#45;&gt;Node19 -->
<g id="edge23" class="edge">
<title>Node5&#45;&gt;Node19</title>
<path fill="none" stroke="#63b8ff" d="M977.22,-483.07C1011.46,-473.8 1043.89,-461.81 1054,-448 1067.65,-429.35 1063.79,-416.94 1054,-396 1046.03,-378.94 1030.68,-364.98 1016.1,-354.74"/>
<polygon fill="#63b8ff" stroke="#63b8ff" points="976.32,-479.69 967.53,-485.61 978.09,-486.46 976.32,-479.69"/>
</g>
<!-- Node20 -->
<g id="node20" class="node">
<title>Node20</title>
<g id="a_node20"><a xlink:href="../../de/d08/_c_c_control_saturation_brightness_picker_8h.html" target="_top" xlink:title=" ">
<polygon fill="white" stroke="#666666" points="766,-448 548,-448 548,-396 766,-396 766,-448"/>
<text text-anchor="start" x="556" y="-436" font-family="Helvetica,sans-Serif" font-size="10.00">/home/runner/work/cocos2d.h</text>
<text text-anchor="start" x="556" y="-425" font-family="Helvetica,sans-Serif" font-size="10.00">/cocos2d.h/extensions/GUI</text>
<text text-anchor="start" x="556" y="-414" font-family="Helvetica,sans-Serif" font-size="10.00">/CCControlExtension/CCControlSaturation</text>
<text text-anchor="middle" x="657" y="-403" font-family="Helvetica,sans-Serif" font-size="10.00">BrightnessPicker.h</text>
</a>
</g>
</g>
<!-- Node5&#45;&gt;Node20 -->
<g id="edge25" class="edge">
<title>Node5&#45;&gt;Node20</title>
<path fill="none" stroke="#63b8ff" d="M815.32,-480.41C787.4,-470.28 754.56,-458.38 726.05,-448.04"/>
<polygon fill="#63b8ff" stroke="#63b8ff" points="814.38,-483.79 824.98,-483.91 816.77,-477.21 814.38,-483.79"/>
</g>
<!-- Node21 -->
<g id="node21" class="node">
<title>Node21</title>
<g id="a_node21"><a xlink:href="../../d6/d7e/_c_c_control_slider_8h.html" target="_top" xlink:title=" ">
<polygon fill="white" stroke="#666666" points="1326,-354.5 1122,-354.5 1122,-313.5 1326,-313.5 1326,-354.5"/>
<text text-anchor="start" x="1130" y="-342.5" font-family="Helvetica,sans-Serif" font-size="10.00">/home/runner/work/cocos2d.h</text>
<text text-anchor="start" x="1130" y="-331.5" font-family="Helvetica,sans-Serif" font-size="10.00">/cocos2d.h/extensions/GUI</text>
<text text-anchor="middle" x="1224" y="-320.5" font-family="Helvetica,sans-Serif" font-size="10.00">/CCControlExtension/CCControlSlider.h</text>
</a>
</g>
</g>
<!-- Node5&#45;&gt;Node21 -->
<g id="edge27" class="edge">
<title>Node5&#45;&gt;Node21</title>
<path fill="none" stroke="#63b8ff" d="M977.58,-483.69C1009.13,-475.17 1043.5,-463.52 1073,-448 1105.13,-431.1 1107.06,-417.92 1136,-396 1154.97,-381.64 1176.97,-366.39 1194.23,-354.73"/>
<polygon fill="#63b8ff" stroke="#63b8ff" points="976.67,-480.3 967.89,-486.23 978.45,-487.08 976.67,-480.3"/>
</g>
<!-- Node22 -->
<g id="node22" class="node">
<title>Node22</title>
<g id="a_node22"><a xlink:href="../../de/dba/_c_c_control_stepper_8h.html" target="_top" xlink:title=" ">
<polygon fill="white" stroke="#666666" points="356,-354.5 142,-354.5 142,-313.5 356,-313.5 356,-354.5"/>
<text text-anchor="start" x="150" y="-342.5" font-family="Helvetica,sans-Serif" font-size="10.00">/home/runner/work/cocos2d.h</text>
<text text-anchor="start" x="150" y="-331.5" font-family="Helvetica,sans-Serif" font-size="10.00">/cocos2d.h/extensions/GUI</text>
<text text-anchor="middle" x="249" y="-320.5" font-family="Helvetica,sans-Serif" font-size="10.00">/CCControlExtension/CCControlStepper.h</text>
</a>
</g>
</g>
<!-- Node5&#45;&gt;Node22 -->
<g id="edge29" class="edge">
<title>Node5&#45;&gt;Node22</title>
<path fill="none" stroke="#63b8ff" d="M780.25,-498.18C608.16,-488.42 269.82,-466.96 252,-448 228.61,-423.12 235.63,-379.86 242.53,-354.7"/>
<polygon fill="#63b8ff" stroke="#63b8ff" points="780.15,-501.68 790.33,-498.74 780.54,-494.69 780.15,-501.68"/>
</g>
<!-- Node23 -->
<g id="node23" class="node">
<title>Node23</title>
<g id="a_node23"><a xlink:href="../../de/dc7/_c_c_control_switch_8h.html" target="_top" xlink:title=" ">
<polygon fill="white" stroke="#666666" points="583.5,-354.5 374.5,-354.5 374.5,-313.5 583.5,-313.5 583.5,-354.5"/>
<text text-anchor="start" x="382.5" y="-342.5" font-family="Helvetica,sans-Serif" font-size="10.00">/home/runner/work/cocos2d.h</text>
<text text-anchor="start" x="382.5" y="-331.5" font-family="Helvetica,sans-Serif" font-size="10.00">/cocos2d.h/extensions/GUI</text>
<text text-anchor="middle" x="479" y="-320.5" font-family="Helvetica,sans-Serif" font-size="10.00">/CCControlExtension/CCControlSwitch.h</text>
</a>
</g>
</g>
<!-- Node5&#45;&gt;Node23 -->
<g id="edge31" class="edge">
<title>Node5&#45;&gt;Node23</title>
<path fill="none" stroke="#63b8ff" d="M780.35,-498.01C611.63,-488.13 284.05,-466.67 267,-448 251.41,-430.94 253.1,-414.46 267,-396 275.08,-385.27 337.93,-367.99 393.12,-354.56"/>
<polygon fill="#63b8ff" stroke="#63b8ff" points="780.3,-501.51 790.49,-498.6 780.71,-494.52 780.3,-501.51"/>
</g>
<!-- Node24 -->
<g id="node24" class="node">
<title>Node24</title>
<g id="a_node24"><a xlink:href="../../d8/dec/_color_picker_delegate_8h.html" target="_top" xlink:title=" ">
<polygon fill="white" stroke="#666666" points="1011.5,-442.5 784.5,-442.5 784.5,-401.5 1011.5,-401.5 1011.5,-442.5"/>
<text text-anchor="start" x="792.5" y="-430.5" font-family="Helvetica,sans-Serif" font-size="10.00">/home/runner/work/cocos2d.h</text>
<text text-anchor="start" x="792.5" y="-419.5" font-family="Helvetica,sans-Serif" font-size="10.00">/cocos2d.h/extensions/GUI</text>
<text text-anchor="middle" x="898" y="-408.5" font-family="Helvetica,sans-Serif" font-size="10.00">/CCControlExtension/ColorPickerDelegate.h</text>
</a>
</g>
</g>
<!-- Node5&#45;&gt;Node24 -->
<g id="edge33" class="edge">
<title>Node5&#45;&gt;Node24</title>
<path fill="none" stroke="#63b8ff" d="M886.04,-473.69C888.48,-463.34 891.16,-452 893.36,-442.67"/>
<polygon fill="#63b8ff" stroke="#63b8ff" points="882.59,-473.06 883.7,-483.6 889.4,-474.67 882.59,-473.06"/>
</g>
<!-- Node6&#45;&gt;Node7 -->
<g id="edge7" class="edge">
<title>Node6&#45;&gt;Node7</title>
<path fill="none" stroke="#63b8ff" d="M1300.93,-395.86C1314.49,-386.59 1327.42,-374.68 1335,-360 1345.61,-339.47 1350.02,-325.56 1335,-308 1304.57,-272.43 1187.57,-259.5 1096.31,-254.88"/>
<polygon fill="#63b8ff" stroke="#63b8ff" points="1298.98,-392.95 1292.44,-401.29 1302.75,-398.85 1298.98,-392.95"/>
</g>
<!-- Node7&#45;&gt;Node8 -->
<g id="edge8" class="edge">
<title>Node7&#45;&gt;Node8</title>
<path fill="none" stroke="#63b8ff" d="M981,-220.69C981,-212.08 981,-202.9 981,-195.07"/>
<polygon fill="#63b8ff" stroke="#63b8ff" points="977.5,-220.79 981,-230.79 984.5,-220.79 977.5,-220.79"/>
</g>
<!-- Node16 -->
<g id="node16" class="node">
<title>Node16</title>
<g id="a_node16"><a xlink:href="../../d3/d58/cocos-ext_8h.html" target="_top" xlink:title=" ">
<polygon fill="white" stroke="#666666" points="1671,-112.5 1487,-112.5 1487,-82.5 1671,-82.5 1671,-112.5"/>
<text text-anchor="start" x="1495" y="-100.5" font-family="Helvetica,sans-Serif" font-size="10.00">/home/runner/work/cocos2d.h</text>
<text text-anchor="middle" x="1579" y="-89.5" font-family="Helvetica,sans-Serif" font-size="10.00">/cocos2d.h/extensions/cocos&#45;ext.h</text>
</a>
</g>
</g>
<!-- Node7&#45;&gt;Node16 -->
<g id="edge17" class="edge">
<title>Node7&#45;&gt;Node16</title>
<path fill="none" stroke="#63b8ff" d="M1067.87,-228.42C1192.71,-196.69 1419.29,-139.09 1523.65,-112.57"/>
<polygon fill="#63b8ff" stroke="#63b8ff" points="1066.78,-225.08 1057.95,-230.94 1068.51,-231.87 1066.78,-225.08"/>
</g>
<!-- Node8&#45;&gt;Node9 -->
<g id="edge9" class="edge">
<title>Node8&#45;&gt;Node9</title>
<path fill="none" stroke="#63b8ff" d="M981,-143.69C981,-135.08 981,-125.9 981,-118.07"/>
<polygon fill="#63b8ff" stroke="#63b8ff" points="977.5,-143.79 981,-153.79 984.5,-143.79 977.5,-143.79"/>
</g>
<!-- Node8&#45;&gt;Node16 -->
<g id="edge16" class="edge">
<title>Node8&#45;&gt;Node16</title>
<path fill="none" stroke="#63b8ff" d="M1071.59,-162.14C1183.82,-148.06 1373.99,-124.21 1486.91,-110.05"/>
<polygon fill="#63b8ff" stroke="#63b8ff" points="1071.14,-158.67 1061.65,-163.39 1072.01,-165.61 1071.14,-158.67"/>
</g>
<!-- Node9&#45;&gt;Node10 -->
<g id="edge10" class="edge">
<title>Node9&#45;&gt;Node10</title>
<path fill="none" stroke="#63b8ff" d="M1071.8,-85.04C1181.71,-71.16 1366.01,-47.89 1478.45,-33.69"/>
<polygon fill="#63b8ff" stroke="#63b8ff" points="1071.21,-81.58 1061.73,-86.31 1072.09,-88.53 1071.21,-81.58"/>
</g>
<!-- Node9&#45;&gt;Node11 -->
<g id="edge11" class="edge">
<title>Node9&#45;&gt;Node11</title>
<path fill="none" stroke="#63b8ff" d="M1071.78,-89.64C1205.29,-79.49 1462.43,-59.62 1681,-41 1723.1,-37.41 1769.83,-33.18 1808.86,-29.58"/>
<polygon fill="#63b8ff" stroke="#63b8ff" points="1071.31,-86.17 1061.6,-90.42 1071.84,-93.15 1071.31,-86.17"/>
</g>
<!-- Node9&#45;&gt;Node12 -->
<g id="edge12" class="edge">
<title>Node9&#45;&gt;Node12</title>
<path fill="none" stroke="#63b8ff" d="M1071.85,-75.34C1118.05,-64.58 1173.84,-51.58 1219.04,-41.06"/>
<polygon fill="#63b8ff" stroke="#63b8ff" points="1070.78,-71.99 1061.84,-77.67 1072.37,-78.81 1070.78,-71.99"/>
</g>
<!-- Node9&#45;&gt;Node13 -->
<g id="edge13" class="edge">
<title>Node9&#45;&gt;Node13</title>
<path fill="none" stroke="#63b8ff" d="M890.07,-88.31C729.9,-73.89 399.28,-44.12 239.04,-29.7"/>
<polygon fill="#63b8ff" stroke="#63b8ff" points="890.1,-91.83 900.37,-89.24 890.73,-84.86 890.1,-91.83"/>
</g>
<!-- Node9&#45;&gt;Node14 -->
<g id="edge14" class="edge">
<title>Node9&#45;&gt;Node14</title>
<path fill="none" stroke="#63b8ff" d="M890.39,-76.63C839.59,-65.49 776.52,-51.66 726.26,-40.64"/>
<polygon fill="#63b8ff" stroke="#63b8ff" points="889.87,-80.1 900.38,-78.82 891.37,-73.26 889.87,-80.1"/>
</g>
<!-- Node15 -->
<g id="node15" class="node">
<title>Node15</title>
<g id="a_node15"><a xlink:href="../../d4/d91/_c_c_edit_box_impl_wp8_8h.html" target="_top" xlink:title=" ">
<polygon fill="white" stroke="#666666" points="1069.5,-41 892.5,-41 892.5,0 1069.5,0 1069.5,-41"/>
<text text-anchor="start" x="900.5" y="-29" font-family="Helvetica,sans-Serif" font-size="10.00">/home/runner/work/cocos2d.h</text>
<text text-anchor="start" x="900.5" y="-18" font-family="Helvetica,sans-Serif" font-size="10.00">/cocos2d.h/extensions/GUI</text>
<text text-anchor="middle" x="981" y="-7" font-family="Helvetica,sans-Serif" font-size="10.00">/CCEditBox/CCEditBoxImplWp8.h</text>
</a>
</g>
</g>
<!-- Node9&#45;&gt;Node15 -->
<g id="edge15" class="edge">
<title>Node9&#45;&gt;Node15</title>
<path fill="none" stroke="#63b8ff" d="M981,-66.69C981,-58.08 981,-48.9 981,-41.07"/>
<polygon fill="#63b8ff" stroke="#63b8ff" points="977.5,-66.79 981,-76.79 984.5,-66.79 977.5,-66.79"/>
</g>
<!-- Node17&#45;&gt;Node7 -->
<g id="edge19" class="edge">
<title>Node17&#45;&gt;Node7</title>
<path fill="none" stroke="#63b8ff" d="M798.76,-305.08C836.54,-294.18 878.96,-281.94 913.36,-272.02"/>
<polygon fill="#63b8ff" stroke="#63b8ff" points="797.39,-301.84 788.75,-307.97 799.33,-308.56 797.39,-301.84"/>
</g>
<!-- Node18&#45;&gt;Node17 -->
<g id="edge22" class="edge">
<title>Node18&#45;&gt;Node17</title>
<path fill="none" stroke="#63b8ff" d="M491.41,-398.55C530.52,-386.75 578.57,-372.25 618.89,-360.08"/>
<polygon fill="#63b8ff" stroke="#63b8ff" points="490.23,-395.25 481.67,-401.49 492.26,-401.95 490.23,-395.25"/>
</g>
<!-- Node19&#45;&gt;Node7 -->
<g id="edge24" class="edge">
<title>Node19&#45;&gt;Node7</title>
<path fill="none" stroke="#63b8ff" d="M981,-302.87C981,-292.6 981,-281.4 981,-272.17"/>
<polygon fill="#63b8ff" stroke="#63b8ff" points="977.5,-303.1 981,-313.1 984.5,-303.1 977.5,-303.1"/>
</g>
<!-- Node20&#45;&gt;Node17 -->
<g id="edge26" class="edge">
<title>Node20&#45;&gt;Node17</title>
<path fill="none" stroke="#63b8ff" d="M674.96,-386.68C679.59,-377.82 684.5,-368.45 688.84,-360.16"/>
<polygon fill="#63b8ff" stroke="#63b8ff" points="671.79,-385.18 670.26,-395.66 678,-388.42 671.79,-385.18"/>
</g>
<!-- Node21&#45;&gt;Node7 -->
<g id="edge28" class="edge">
<title>Node21&#45;&gt;Node7</title>
<path fill="none" stroke="#63b8ff" d="M1155.32,-310.25C1118.96,-298.2 1074.77,-283.56 1039.98,-272.04"/>
<polygon fill="#63b8ff" stroke="#63b8ff" points="1154.27,-313.59 1164.87,-313.41 1156.47,-306.94 1154.27,-313.59"/>
</g>
<!-- Node22&#45;&gt;Node7 -->
<g id="edge30" class="edge">
<title>Node22&#45;&gt;Node7</title>
<path fill="none" stroke="#63b8ff" d="M343.55,-311.63C350.79,-310.3 358,-309.07 365,-308 538.56,-281.58 741.69,-266.27 865.83,-258.65"/>
<polygon fill="#63b8ff" stroke="#63b8ff" points="342.84,-308.2 333.67,-313.5 344.15,-315.08 342.84,-308.2"/>
</g>
<!-- Node23&#45;&gt;Node7 -->
<g id="edge32" class="edge">
<title>Node23&#45;&gt;Node7</title>
<path fill="none" stroke="#63b8ff" d="M574.57,-311.5C580.8,-310.27 586.98,-309.09 593,-308 684.23,-291.49 788.26,-276.84 865.62,-266.74"/>
<polygon fill="#63b8ff" stroke="#63b8ff" points="573.88,-308.07 564.77,-313.48 575.26,-314.93 573.88,-308.07"/>
</g>
<!-- Node24&#45;&gt;Node17 -->
<g id="edge34" class="edge">
<title>Node24&#45;&gt;Node17</title>
<path fill="none" stroke="#63b8ff" d="M844.09,-397.35C817.77,-385.8 786.1,-371.9 759.34,-360.16"/>
<polygon fill="#63b8ff" stroke="#63b8ff" points="842.96,-400.67 853.52,-401.49 845.77,-394.26 842.96,-400.67"/>
</g>
<!-- Node25&#45;&gt;Node6 -->
<g id="edge36" class="edge">
<title>Node25&#45;&gt;Node6</title>
<path fill="none" stroke="#63b8ff" d="M1135.77,-479.27C1159.34,-467.55 1187.28,-453.67 1209.5,-442.63"/>
<polygon fill="#63b8ff" stroke="#63b8ff" points="1134.03,-476.22 1126.63,-483.81 1137.14,-482.49 1134.03,-476.22"/>
</g>
<!-- Node25&#45;&gt;Node7 -->
<g id="edge37" class="edge">
<title>Node25&#45;&gt;Node7</title>
<path fill="none" stroke="#63b8ff" d="M1198.74,-482.68C1274.06,-468.38 1360.23,-451.39 1363,-448 1378.96,-428.51 1364.24,-319.64 1353,-308 1318.3,-272.07 1192.2,-259.26 1096.35,-254.77"/>
<polygon fill="#63b8ff" stroke="#63b8ff" points="1197.84,-479.28 1188.67,-484.58 1199.14,-486.16 1197.84,-479.28"/>
</g>
<!-- Node26&#45;&gt;Node16 -->
<g id="edge48" class="edge">
<title>Node26&#45;&gt;Node16</title>
<path fill="none" stroke="#63b8ff" d="M1839.03,-223.53C1858.7,-203.17 1877.43,-175.21 1860,-154 1836.28,-125.14 1743.61,-111.04 1671.09,-104.31"/>
<polygon fill="#63b8ff" stroke="#63b8ff" points="1836.46,-221.14 1831.8,-230.66 1841.38,-226.12 1836.46,-221.14"/>
</g>
<!-- Node27 -->
<g id="node27" class="node">
<title>Node27</title>
<g id="a_node27"><a xlink:href="../../d8/dbb/_c_c_table_view_8h.html" target="_top" xlink:title=" ">
<polygon fill="white" stroke="#666666" points="1850.5,-195 1689.5,-195 1689.5,-154 1850.5,-154 1850.5,-195"/>
<text text-anchor="start" x="1697.5" y="-183" font-family="Helvetica,sans-Serif" font-size="10.00">/home/runner/work/cocos2d.h</text>
<text text-anchor="start" x="1697.5" y="-172" font-family="Helvetica,sans-Serif" font-size="10.00">/cocos2d.h/extensions/GUI</text>
<text text-anchor="middle" x="1770" y="-161" font-family="Helvetica,sans-Serif" font-size="10.00">/CCScrollView/CCTableView.h</text>
</a>
</g>
</g>
<!-- Node26&#45;&gt;Node27 -->
<g id="edge46" class="edge">
<title>Node26&#45;&gt;Node27</title>
<path fill="none" stroke="#63b8ff" d="M1793.47,-221.83C1788.94,-212.89 1784.05,-203.24 1779.92,-195.07"/>
<polygon fill="#63b8ff" stroke="#63b8ff" points="1790.37,-223.46 1798.02,-230.79 1796.62,-220.29 1790.37,-223.46"/>
</g>
<!-- Node27&#45;&gt;Node16 -->
<g id="edge47" class="edge">
<title>Node27&#45;&gt;Node16</title>
<path fill="none" stroke="#63b8ff" d="M1710.79,-150.25C1679.38,-137.92 1641.83,-123.17 1614.86,-112.58"/>
<polygon fill="#63b8ff" stroke="#63b8ff" points="1709.73,-153.59 1720.32,-153.99 1712.29,-147.08 1709.73,-153.59"/>
</g>
<!-- Node28&#45;&gt;Node16 -->
<g id="edge50" class="edge">
<title>Node28&#45;&gt;Node16</title>
<path fill="none" stroke="#63b8ff" d="M1579,-303.36C1579,-252.4 1579,-150.06 1579,-112.63"/>
<polygon fill="#63b8ff" stroke="#63b8ff" points="1575.5,-303.41 1579,-313.41 1582.5,-303.41 1575.5,-303.41"/>
</g>
<!-- Node29&#45;&gt;Node16 -->
<g id="edge52" class="edge">
<title>Node29&#45;&gt;Node16</title>
<path fill="none" stroke="#63b8ff" d="M1613.21,-479.27C1627.4,-471.22 1641.16,-460.91 1651,-448 1675.38,-416.02 1667.3,-399.93 1672,-360 1674.7,-337.05 1676.79,-330.61 1672,-308 1655.41,-229.75 1607.54,-145.23 1587.74,-112.52"/>
<polygon fill="#63b8ff" stroke="#63b8ff" points="1611.52,-476.2 1604.35,-483.99 1614.82,-482.38 1611.52,-476.2"/>
</g>
<!-- Node29&#45;&gt;Node28 -->
<g id="edge53" class="edge">
<title>Node29&#45;&gt;Node28</title>
<path fill="none" stroke="#63b8ff" d="M1604.92,-478.47C1616.56,-470.47 1627.34,-460.39 1634,-448 1644.95,-427.65 1642.29,-417.57 1634,-396 1627.81,-379.89 1615.19,-365.39 1603.59,-354.56"/>
<polygon fill="#63b8ff" stroke="#63b8ff" points="1602.89,-475.62 1596.34,-483.94 1606.65,-481.52 1602.89,-475.62"/>
</g>
<!-- Node29&#45;&gt;Node30 -->
<g id="edge54" class="edge">
<title>Node29&#45;&gt;Node30</title>
<path fill="none" stroke="#63b8ff" d="M1546.63,-473.37C1545.48,-463.1 1544.23,-451.9 1543.2,-442.67"/>
<polygon fill="#63b8ff" stroke="#63b8ff" points="1543.19,-474.05 1547.78,-483.6 1550.14,-473.27 1543.19,-474.05"/>
</g>
<!-- Node30&#45;&gt;Node16 -->
<g id="edge55" class="edge">
<title>Node30&#45;&gt;Node16</title>
<path fill="none" stroke="#63b8ff" d="M1509.58,-394.02C1500.51,-384.32 1491.79,-372.63 1487,-360 1478.81,-338.39 1482.25,-330.62 1487,-308 1503.4,-229.86 1550.76,-145.27 1570.36,-112.53"/>
<polygon fill="#63b8ff" stroke="#63b8ff" points="1507.32,-396.72 1516.85,-401.35 1512.29,-391.79 1507.32,-396.72"/>
</g>
<!-- Node30&#45;&gt;Node28 -->
<g id="edge56" class="edge">
<title>Node30&#45;&gt;Node28</title>
<path fill="none" stroke="#63b8ff" d="M1553.77,-392.09C1559.2,-379.81 1565.39,-365.8 1570.28,-354.74"/>
<polygon fill="#63b8ff" stroke="#63b8ff" points="1550.46,-390.92 1549.62,-401.49 1556.87,-393.75 1550.46,-390.92"/>
</g>
<!-- Node32&#45;&gt;Node2 -->
<g id="edge60" class="edge">
<title>Node32&#45;&gt;Node2</title>
<path fill="none" stroke="#63b8ff" d="M1283.88,-707.78C1292.1,-699.16 1300.56,-689.18 1307,-679 1322.59,-654.35 1333.67,-622.25 1339.7,-602.01"/>
<polygon fill="#63b8ff" stroke="#63b8ff" points="1281.31,-705.41 1276.78,-714.98 1286.29,-710.32 1281.31,-705.41"/>
</g>
<!-- Node33 -->
<g id="node33" class="node">
<title>Node33</title>
<g id="a_node33"><a xlink:href="../../dd/d10/_c_c_text_field_t_t_f_8h.html" target="_top" xlink:title=" ">
<polygon fill="white" stroke="#666666" points="1297.5,-679 1136.5,-679 1136.5,-638 1297.5,-638 1297.5,-679"/>
<text text-anchor="start" x="1144.5" y="-667" font-family="Helvetica,sans-Serif" font-size="10.00">/home/runner/work/cocos2d.h</text>
<text text-anchor="start" x="1144.5" y="-656" font-family="Helvetica,sans-Serif" font-size="10.00">/cocos2d.h/cocos2dx/text</text>
<text text-anchor="middle" x="1217" y="-645" font-family="Helvetica,sans-Serif" font-size="10.00">_input_node/CCTextFieldTTF.h</text>
</a>
</g>
</g>
<!-- Node32&#45;&gt;Node33 -->
<g id="edge61" class="edge">
<title>Node32&#45;&gt;Node33</title>
<path fill="none" stroke="#63b8ff" d="M1240.47,-705.83C1235.94,-696.89 1231.05,-687.24 1226.92,-679.07"/>
<polygon fill="#63b8ff" stroke="#63b8ff" points="1237.37,-707.46 1245.02,-714.79 1243.62,-704.29 1237.37,-707.46"/>
</g>
<!-- Node33&#45;&gt;Node2 -->
<g id="edge62" class="edge">
<title>Node33&#45;&gt;Node2</title>
<path fill="none" stroke="#63b8ff" d="M1258.95,-632.92C1275.97,-622.95 1295.37,-611.58 1311.43,-602.17"/>
<polygon fill="#63b8ff" stroke="#63b8ff" points="1257.15,-629.92 1250.3,-637.99 1260.69,-635.95 1257.15,-629.92"/>
</g>
<!-- Node34&#45;&gt;Node2 -->
<g id="edge64" class="edge">
<title>Node34&#45;&gt;Node2</title>
<path fill="none" stroke="#63b8ff" d="M1431.05,-632.92C1414.03,-622.95 1394.63,-611.58 1378.57,-602.17"/>
<polygon fill="#63b8ff" stroke="#63b8ff" points="1429.31,-635.95 1439.7,-637.99 1432.85,-629.92 1429.31,-635.95"/>
</g>
<!-- Node35&#45;&gt;Node2 -->
<g id="edge66" class="edge">
<title>Node35&#45;&gt;Node2</title>
<path fill="none" stroke="#63b8ff" d="M1084.72,-705.02C1092.62,-683.37 1106.38,-654.9 1128,-638 1166.76,-607.71 1220.2,-593.8 1264.34,-587.48"/>
<polygon fill="#63b8ff" stroke="#63b8ff" points="1081.33,-704.12 1081.41,-714.72 1087.95,-706.39 1081.33,-704.12"/>
</g>
<!-- Node36&#45;&gt;Node5 -->
<g id="edge68" class="edge">
<title>Node36&#45;&gt;Node5</title>
<path fill="none" stroke="#63b8ff" d="M879,-550.69C879,-542.08 879,-532.9 879,-525.07"/>
<polygon fill="#63b8ff" stroke="#63b8ff" points="875.5,-550.79 879,-560.79 882.5,-550.79 875.5,-550.79"/>
</g>
<!-- Node36&#45;&gt;Node17 -->
<g id="edge69" class="edge">
<title>Node36&#45;&gt;Node17</title>
<path fill="none" stroke="#63b8ff" d="M768.57,-579.2C590.32,-575.93 255.36,-564.55 219,-525 182.24,-485.02 249.86,-407.5 267,-396 327.34,-355.52 520.35,-372.07 592,-360 595.28,-359.45 598.62,-358.86 601.98,-358.24"/>
<polygon fill="#63b8ff" stroke="#63b8ff" points="768.71,-582.7 778.77,-579.38 768.83,-575.7 768.71,-582.7"/>
</g>
</g>
</svg>
