<?xml version="1.0" encoding="UTF-8" standalone="no"?>
<!DOCTYPE svg PUBLIC "-//W3C//DTD SVG 1.1//EN"
 "http://www.w3.org/Graphics/SVG/1.1/DTD/svg11.dtd">
<!-- Generated by graphviz version 2.43.0 (0)
 -->
<!-- Title: /home/runner/work/cocos2d.h/cocos2d.h/extensions/GUI/CCControlExtension/CCControl.h Pages: 1 -->
<svg width="1439pt" height="533pt"
 viewBox="0.00 0.00 1439.00 533.00" xmlns="http://www.w3.org/2000/svg" xmlns:xlink="http://www.w3.org/1999/xlink">
<g id="graph0" class="graph" transform="scale(1 1) rotate(0) translate(4 529)">
<title>/home/runner/work/cocos2d.h/cocos2d.h/extensions/GUI/CCControlExtension/CCControl.h</title>
<!-- Node1 -->
<g id="node1" class="node">
<title>Node1</title>
<g id="a_node1"><a xlink:title=" ">
<polygon fill="#999999" stroke="#666666" points="933,-525 756,-525 756,-484 933,-484 933,-525"/>
<text text-anchor="start" x="764" y="-513" font-family="Helvetica,sans-Serif" font-size="10.00">/home/runner/work/cocos2d.h</text>
<text text-anchor="start" x="764" y="-502" font-family="Helvetica,sans-Serif" font-size="10.00">/cocos2d.h/extensions/GUI</text>
<text text-anchor="middle" x="844.5" y="-491" font-family="Helvetica,sans-Serif" font-size="10.00">/CCControlExtension/CCControl.h</text>
</a>
</g>
</g>
<!-- Node2 -->
<g id="node2" class="node">
<title>Node2</title>
<g id="a_node2"><a xlink:href="../../d0/d7e/_c_c_control_button_8h.html" target="_top" xlink:title=" ">
<polygon fill="white" stroke="#666666" points="277,-354.5 68,-354.5 68,-313.5 277,-313.5 277,-354.5"/>
<text text-anchor="start" x="76" y="-342.5" font-family="Helvetica,sans-Serif" font-size="10.00">/home/runner/work/cocos2d.h</text>
<text text-anchor="start" x="76" y="-331.5" font-family="Helvetica,sans-Serif" font-size="10.00">/cocos2d.h/extensions/GUI</text>
<text text-anchor="middle" x="172.5" y="-320.5" font-family="Helvetica,sans-Serif" font-size="10.00">/CCControlExtension/CCControlButton.h</text>
</a>
</g>
</g>
<!-- Node1&#45;&gt;Node2 -->
<g id="edge1" class="edge">
<title>Node1&#45;&gt;Node2</title>
<path fill="none" stroke="#63b8ff" d="M745.86,-501.22C609.14,-496.78 370.01,-483.99 291.5,-448 245.66,-426.99 206.32,-381.01 186.41,-354.64"/>
<polygon fill="#63b8ff" stroke="#63b8ff" points="745.82,-504.73 755.93,-501.54 746.04,-497.73 745.82,-504.73"/>
</g>
<!-- Node3 -->
<g id="node3" class="node">
<title>Node3</title>
<g id="a_node3"><a xlink:href="../../d6/d86/_c_c_control_extensions_8h.html" target="_top" xlink:title=" ">
<polygon fill="white" stroke="#666666" points="838.5,-272 608.5,-272 608.5,-231 838.5,-231 838.5,-272"/>
<text text-anchor="start" x="616.5" y="-260" font-family="Helvetica,sans-Serif" font-size="10.00">/home/runner/work/cocos2d.h</text>
<text text-anchor="start" x="616.5" y="-249" font-family="Helvetica,sans-Serif" font-size="10.00">/cocos2d.h/extensions/GUI</text>
<text text-anchor="middle" x="723.5" y="-238" font-family="Helvetica,sans-Serif" font-size="10.00">/CCControlExtension/CCControlExtensions.h</text>
</a>
</g>
</g>
<!-- Node1&#45;&gt;Node3 -->
<g id="edge15" class="edge">
<title>Node1&#45;&gt;Node3</title>
<path fill="none" stroke="#63b8ff" d="M745.9,-499.4C608.82,-492.67 374.47,-477.04 348.5,-448 323.24,-419.75 368.71,-312.25 373.5,-308 407.67,-277.69 519.97,-263.87 608.26,-257.6"/>
<polygon fill="#63b8ff" stroke="#63b8ff" points="745.84,-502.9 756,-499.89 746.18,-495.91 745.84,-502.9"/>
</g>
<!-- Node13 -->
<g id="node13" class="node">
<title>Node13</title>
<g id="a_node13"><a xlink:href="../../d3/db7/_c_c_control_colour_picker_8h.html" target="_top" xlink:title=" ">
<polygon fill="white" stroke="#666666" points="582.5,-360 382.5,-360 382.5,-308 582.5,-308 582.5,-360"/>
<text text-anchor="start" x="390.5" y="-348" font-family="Helvetica,sans-Serif" font-size="10.00">/home/runner/work/cocos2d.h</text>
<text text-anchor="start" x="390.5" y="-337" font-family="Helvetica,sans-Serif" font-size="10.00">/cocos2d.h/extensions/GUI</text>
<text text-anchor="start" x="390.5" y="-326" font-family="Helvetica,sans-Serif" font-size="10.00">/CCControlExtension/CCControlColour</text>
<text text-anchor="middle" x="482.5" y="-315" font-family="Helvetica,sans-Serif" font-size="10.00">Picker.h</text>
</a>
</g>
</g>
<!-- Node1&#45;&gt;Node13 -->
<g id="edge13" class="edge">
<title>Node1&#45;&gt;Node13</title>
<path fill="none" stroke="#63b8ff" d="M745.75,-499.02C612.4,-491.93 388.46,-476 363.5,-448 348.12,-430.75 351.45,-415.72 363.5,-396 372.94,-380.55 387.68,-368.85 403.61,-360.05"/>
<polygon fill="#63b8ff" stroke="#63b8ff" points="745.81,-502.52 755.98,-499.55 746.18,-495.53 745.81,-502.52"/>
</g>
<!-- Node14 -->
<g id="node14" class="node">
<title>Node14</title>
<g id="a_node14"><a xlink:href="../../dd/d5a/_c_c_control_hue_picker_8h.html" target="_top" xlink:title=" ">
<polygon fill="white" stroke="#666666" points="597,-442.5 372,-442.5 372,-401.5 597,-401.5 597,-442.5"/>
<text text-anchor="start" x="380" y="-430.5" font-family="Helvetica,sans-Serif" font-size="10.00">/home/runner/work/cocos2d.h</text>
<text text-anchor="start" x="380" y="-419.5" font-family="Helvetica,sans-Serif" font-size="10.00">/cocos2d.h/extensions/GUI</text>
<text text-anchor="middle" x="484.5" y="-408.5" font-family="Helvetica,sans-Serif" font-size="10.00">/CCControlExtension/CCControlHuePicker.h</text>
</a>
</g>
</g>
<!-- Node1&#45;&gt;Node14 -->
<g id="edge16" class="edge">
<title>Node1&#45;&gt;Node14</title>
<path fill="none" stroke="#63b8ff" d="M746.85,-481.67C692.24,-469.45 624.73,-454.36 571.87,-442.54"/>
<polygon fill="#63b8ff" stroke="#63b8ff" points="746.37,-485.14 756.89,-483.91 747.9,-478.31 746.37,-485.14"/>
</g>
<!-- Node15 -->
<g id="node15" class="node">
<title>Node15</title>
<g id="a_node15"><a xlink:href="../../d2/d29/_c_c_control_potentiometer_8h.html" target="_top" xlink:title=" ">
<polygon fill="white" stroke="#666666" points="846.5,-354.5 600.5,-354.5 600.5,-313.5 846.5,-313.5 846.5,-354.5"/>
<text text-anchor="start" x="608.5" y="-342.5" font-family="Helvetica,sans-Serif" font-size="10.00">/home/runner/work/cocos2d.h</text>
<text text-anchor="start" x="608.5" y="-331.5" font-family="Helvetica,sans-Serif" font-size="10.00">/cocos2d.h/extensions/GUI</text>
<text text-anchor="middle" x="723.5" y="-320.5" font-family="Helvetica,sans-Serif" font-size="10.00">/CCControlExtension/CCControlPotentiometer.h</text>
</a>
</g>
</g>
<!-- Node1&#45;&gt;Node15 -->
<g id="edge18" class="edge">
<title>Node1&#45;&gt;Node15</title>
<path fill="none" stroke="#63b8ff" d="M943.39,-493.5C1002.71,-485.24 1070.12,-471.03 1088.5,-448 1102.92,-429.94 1103.54,-413.55 1088.5,-396 1054.4,-356.23 907.13,-368.88 855.5,-360 845.5,-358.28 835.09,-356.42 824.69,-354.53"/>
<polygon fill="#63b8ff" stroke="#63b8ff" points="942.63,-490.08 933.18,-494.88 943.56,-497.01 942.63,-490.08"/>
</g>
<!-- Node16 -->
<g id="node16" class="node">
<title>Node16</title>
<g id="a_node16"><a xlink:href="../../de/d08/_c_c_control_saturation_brightness_picker_8h.html" target="_top" xlink:title=" ">
<polygon fill="white" stroke="#666666" points="833.5,-448 615.5,-448 615.5,-396 833.5,-396 833.5,-448"/>
<text text-anchor="start" x="623.5" y="-436" font-family="Helvetica,sans-Serif" font-size="10.00">/home/runner/work/cocos2d.h</text>
<text text-anchor="start" x="623.5" y="-425" font-family="Helvetica,sans-Serif" font-size="10.00">/cocos2d.h/extensions/GUI</text>
<text text-anchor="start" x="623.5" y="-414" font-family="Helvetica,sans-Serif" font-size="10.00">/CCControlExtension/CCControlSaturation</text>
<text text-anchor="middle" x="724.5" y="-403" font-family="Helvetica,sans-Serif" font-size="10.00">BrightnessPicker.h</text>
</a>
</g>
</g>
<!-- Node1&#45;&gt;Node16 -->
<g id="edge20" class="edge">
<title>Node1&#45;&gt;Node16</title>
<path fill="none" stroke="#63b8ff" d="M806.6,-478.08C792.42,-468.57 776.34,-457.77 762.18,-448.28"/>
<polygon fill="#63b8ff" stroke="#63b8ff" points="804.89,-481.14 815.14,-483.81 808.79,-475.33 804.89,-481.14"/>
</g>
<!-- Node17 -->
<g id="node17" class="node">
<title>Node17</title>
<g id="a_node17"><a xlink:href="../../d6/d7e/_c_c_control_slider_8h.html" target="_top" xlink:title=" ">
<polygon fill="white" stroke="#666666" points="1068.5,-354.5 864.5,-354.5 864.5,-313.5 1068.5,-313.5 1068.5,-354.5"/>
<text text-anchor="start" x="872.5" y="-342.5" font-family="Helvetica,sans-Serif" font-size="10.00">/home/runner/work/cocos2d.h</text>
<text text-anchor="start" x="872.5" y="-331.5" font-family="Helvetica,sans-Serif" font-size="10.00">/cocos2d.h/extensions/GUI</text>
<text text-anchor="middle" x="966.5" y="-320.5" font-family="Helvetica,sans-Serif" font-size="10.00">/CCControlExtension/CCControlSlider.h</text>
</a>
</g>
</g>
<!-- Node1&#45;&gt;Node17 -->
<g id="edge22" class="edge">
<title>Node1&#45;&gt;Node17</title>
<path fill="none" stroke="#63b8ff" d="M943.14,-495.47C1008.82,-487.84 1086.74,-473.6 1107.5,-448 1122.06,-430.05 1120.19,-415.32 1107.5,-396 1094.91,-376.83 1074.86,-363.65 1053.79,-354.61"/>
<polygon fill="#63b8ff" stroke="#63b8ff" points="942.68,-492 933.13,-496.6 943.46,-498.96 942.68,-492"/>
</g>
<!-- Node18 -->
<g id="node18" class="node">
<title>Node18</title>
<g id="a_node18"><a xlink:href="../../de/dba/_c_c_control_stepper_8h.html" target="_top" xlink:title=" ">
<polygon fill="white" stroke="#666666" points="1300.5,-354.5 1086.5,-354.5 1086.5,-313.5 1300.5,-313.5 1300.5,-354.5"/>
<text text-anchor="start" x="1094.5" y="-342.5" font-family="Helvetica,sans-Serif" font-size="10.00">/home/runner/work/cocos2d.h</text>
<text text-anchor="start" x="1094.5" y="-331.5" font-family="Helvetica,sans-Serif" font-size="10.00">/cocos2d.h/extensions/GUI</text>
<text text-anchor="middle" x="1193.5" y="-320.5" font-family="Helvetica,sans-Serif" font-size="10.00">/CCControlExtension/CCControlStepper.h</text>
</a>
</g>
</g>
<!-- Node1&#45;&gt;Node18 -->
<g id="edge24" class="edge">
<title>Node1&#45;&gt;Node18</title>
<path fill="none" stroke="#63b8ff" d="M943.15,-492.72C1012.26,-483.58 1097.27,-468.65 1126.5,-448 1159.1,-424.97 1178.44,-380.62 1187.41,-354.86"/>
<polygon fill="#63b8ff" stroke="#63b8ff" points="942.55,-489.27 933.08,-494.03 943.45,-496.21 942.55,-489.27"/>
</g>
<!-- Node19 -->
<g id="node19" class="node">
<title>Node19</title>
<g id="a_node19"><a xlink:href="../../de/dc7/_c_c_control_switch_8h.html" target="_top" xlink:title=" ">
<polygon fill="white" stroke="#666666" points="1431,-442.5 1222,-442.5 1222,-401.5 1431,-401.5 1431,-442.5"/>
<text text-anchor="start" x="1230" y="-430.5" font-family="Helvetica,sans-Serif" font-size="10.00">/home/runner/work/cocos2d.h</text>
<text text-anchor="start" x="1230" y="-419.5" font-family="Helvetica,sans-Serif" font-size="10.00">/cocos2d.h/extensions/GUI</text>
<text text-anchor="middle" x="1326.5" y="-408.5" font-family="Helvetica,sans-Serif" font-size="10.00">/CCControlExtension/CCControlSwitch.h</text>
</a>
</g>
</g>
<!-- Node1&#45;&gt;Node19 -->
<g id="edge26" class="edge">
<title>Node1&#45;&gt;Node19</title>
<path fill="none" stroke="#63b8ff" d="M943.22,-489.52C1015.45,-478.98 1115.75,-463.69 1203.5,-448 1213.05,-446.29 1222.99,-444.42 1232.9,-442.5"/>
<polygon fill="#63b8ff" stroke="#63b8ff" points="942.61,-486.07 933.21,-490.97 943.61,-493 942.61,-486.07"/>
</g>
<!-- Node20 -->
<g id="node20" class="node">
<title>Node20</title>
<g id="a_node20"><a xlink:href="../../d8/dec/_color_picker_delegate_8h.html" target="_top" xlink:title=" ">
<polygon fill="white" stroke="#666666" points="1079,-442.5 852,-442.5 852,-401.5 1079,-401.5 1079,-442.5"/>
<text text-anchor="start" x="860" y="-430.5" font-family="Helvetica,sans-Serif" font-size="10.00">/home/runner/work/cocos2d.h</text>
<text text-anchor="start" x="860" y="-419.5" font-family="Helvetica,sans-Serif" font-size="10.00">/cocos2d.h/extensions/GUI</text>
<text text-anchor="middle" x="965.5" y="-408.5" font-family="Helvetica,sans-Serif" font-size="10.00">/CCControlExtension/ColorPickerDelegate.h</text>
</a>
</g>
</g>
<!-- Node1&#45;&gt;Node20 -->
<g id="edge28" class="edge">
<title>Node1&#45;&gt;Node20</title>
<path fill="none" stroke="#63b8ff" d="M882.77,-478.04C899.91,-466.64 919.8,-453.4 935.79,-442.77"/>
<polygon fill="#63b8ff" stroke="#63b8ff" points="880.49,-475.35 874.1,-483.81 884.36,-481.18 880.49,-475.35"/>
</g>
<!-- Node2&#45;&gt;Node3 -->
<g id="edge2" class="edge">
<title>Node2&#45;&gt;Node3</title>
<path fill="none" stroke="#63b8ff" d="M271.58,-311.57C278.31,-310.3 285,-309.1 291.5,-308 398.31,-289.95 520.85,-274.72 608.07,-264.81"/>
<polygon fill="#63b8ff" stroke="#63b8ff" points="270.86,-308.14 261.7,-313.46 272.18,-315.02 270.86,-308.14"/>
</g>
<!-- Node4 -->
<g id="node4" class="node">
<title>Node4</title>
<g id="a_node4"><a xlink:href="../../dc/d4a/_c_c_edit_box_8h.html" target="_top" xlink:title=" ">
<polygon fill="white" stroke="#666666" points="750,-195 589,-195 589,-154 750,-154 750,-195"/>
<text text-anchor="start" x="597" y="-183" font-family="Helvetica,sans-Serif" font-size="10.00">/home/runner/work/cocos2d.h</text>
<text text-anchor="start" x="597" y="-172" font-family="Helvetica,sans-Serif" font-size="10.00">/cocos2d.h/extensions/GUI</text>
<text text-anchor="middle" x="669.5" y="-161" font-family="Helvetica,sans-Serif" font-size="10.00">/CCEditBox/CCEditBox.h</text>
</a>
</g>
</g>
<!-- Node3&#45;&gt;Node4 -->
<g id="edge3" class="edge">
<title>Node3&#45;&gt;Node4</title>
<path fill="none" stroke="#63b8ff" d="M703.46,-222.67C696.86,-213.5 689.66,-203.5 683.59,-195.07"/>
<polygon fill="#63b8ff" stroke="#63b8ff" points="700.63,-224.72 709.31,-230.79 706.31,-220.63 700.63,-224.72"/>
</g>
<!-- Node12 -->
<g id="node12" class="node">
<title>Node12</title>
<g id="a_node12"><a xlink:href="../../d3/d58/cocos-ext_8h.html" target="_top" xlink:title=" ">
<polygon fill="white" stroke="#666666" points="870.5,-112.5 686.5,-112.5 686.5,-82.5 870.5,-82.5 870.5,-112.5"/>
<text text-anchor="start" x="694.5" y="-100.5" font-family="Helvetica,sans-Serif" font-size="10.00">/home/runner/work/cocos2d.h</text>
<text text-anchor="middle" x="778.5" y="-89.5" font-family="Helvetica,sans-Serif" font-size="10.00">/cocos2d.h/extensions/cocos&#45;ext.h</text>
</a>
</g>
</g>
<!-- Node3&#45;&gt;Node12 -->
<g id="edge12" class="edge">
<title>Node3&#45;&gt;Node12</title>
<path fill="none" stroke="#63b8ff" d="M744.56,-222.57C750.13,-214.08 755.66,-204.48 759.5,-195 770.78,-167.15 775.53,-131.98 777.4,-112.72"/>
<polygon fill="#63b8ff" stroke="#63b8ff" points="741.57,-220.74 738.8,-230.97 747.35,-224.7 741.57,-220.74"/>
</g>
<!-- Node5 -->
<g id="node5" class="node">
<title>Node5</title>
<g id="a_node5"><a xlink:href="../../db/da9/_c_c_edit_box_impl_8h.html" target="_top" xlink:title=" ">
<polygon fill="white" stroke="#666666" points="668,-118 507,-118 507,-77 668,-77 668,-118"/>
<text text-anchor="start" x="515" y="-106" font-family="Helvetica,sans-Serif" font-size="10.00">/home/runner/work/cocos2d.h</text>
<text text-anchor="start" x="515" y="-95" font-family="Helvetica,sans-Serif" font-size="10.00">/cocos2d.h/extensions/GUI</text>
<text text-anchor="middle" x="587.5" y="-84" font-family="Helvetica,sans-Serif" font-size="10.00">/CCEditBox/CCEditBoxImpl.h</text>
</a>
</g>
</g>
<!-- Node4&#45;&gt;Node5 -->
<g id="edge4" class="edge">
<title>Node4&#45;&gt;Node5</title>
<path fill="none" stroke="#63b8ff" d="M640.3,-146.79C629.94,-137.32 618.49,-126.84 608.9,-118.07"/>
<polygon fill="#63b8ff" stroke="#63b8ff" points="638.21,-149.63 647.96,-153.79 642.94,-144.46 638.21,-149.63"/>
</g>
<!-- Node4&#45;&gt;Node12 -->
<g id="edge11" class="edge">
<title>Node4&#45;&gt;Node12</title>
<path fill="none" stroke="#63b8ff" d="M706.54,-148.01C723.69,-136.22 743.41,-122.65 757.86,-112.7"/>
<polygon fill="#63b8ff" stroke="#63b8ff" points="704.11,-145.44 697.85,-153.99 708.08,-151.21 704.11,-145.44"/>
</g>
<!-- Node6 -->
<g id="node6" class="node">
<title>Node6</title>
<g id="a_node6"><a xlink:href="../../d4/dd3/_c_c_edit_box_impl_android_8h.html" target="_top" xlink:title=" ">
<polygon fill="white" stroke="#666666" points="193,-41 0,-41 0,0 193,0 193,-41"/>
<text text-anchor="start" x="8" y="-29" font-family="Helvetica,sans-Serif" font-size="10.00">/home/runner/work/cocos2d.h</text>
<text text-anchor="start" x="8" y="-18" font-family="Helvetica,sans-Serif" font-size="10.00">/cocos2d.h/extensions/GUI</text>
<text text-anchor="middle" x="96.5" y="-7" font-family="Helvetica,sans-Serif" font-size="10.00">/CCEditBox/CCEditBoxImplAndroid.h</text>
</a>
</g>
</g>
<!-- Node5&#45;&gt;Node6 -->
<g id="edge5" class="edge">
<title>Node5&#45;&gt;Node6</title>
<path fill="none" stroke="#63b8ff" d="M496.7,-84.42C418.58,-73.79 302.95,-57.47 202.5,-41 199.45,-40.5 196.36,-39.98 193.24,-39.46"/>
<polygon fill="#63b8ff" stroke="#63b8ff" points="496.61,-87.94 506.99,-85.82 497.55,-81 496.61,-87.94"/>
</g>
<!-- Node7 -->
<g id="node7" class="node">
<title>Node7</title>
<g id="a_node7"><a xlink:href="../../dd/dfd/_c_c_edit_box_impl_i_o_s_8h.html" target="_top" xlink:title=" ">
<polygon fill="white" stroke="#666666" points="383.5,-41 211.5,-41 211.5,0 383.5,0 383.5,-41"/>
<text text-anchor="start" x="219.5" y="-29" font-family="Helvetica,sans-Serif" font-size="10.00">/home/runner/work/cocos2d.h</text>
<text text-anchor="start" x="219.5" y="-18" font-family="Helvetica,sans-Serif" font-size="10.00">/cocos2d.h/extensions/GUI</text>
<text text-anchor="middle" x="297.5" y="-7" font-family="Helvetica,sans-Serif" font-size="10.00">/CCEditBox/CCEditBoxImplIOS.h</text>
</a>
</g>
</g>
<!-- Node5&#45;&gt;Node7 -->
<g id="edge6" class="edge">
<title>Node5&#45;&gt;Node7</title>
<path fill="none" stroke="#63b8ff" d="M502.37,-74.48C461.4,-63.89 412.7,-51.29 373.06,-41.04"/>
<polygon fill="#63b8ff" stroke="#63b8ff" points="501.51,-77.88 512.06,-76.99 503.26,-71.1 501.51,-77.88"/>
</g>
<!-- Node8 -->
<g id="node8" class="node">
<title>Node8</title>
<g id="a_node8"><a xlink:href="../../d7/d4d/_c_c_edit_box_impl_mac_8h.html" target="_top" xlink:title=" ">
<polygon fill="white" stroke="#666666" points="577.5,-41 401.5,-41 401.5,0 577.5,0 577.5,-41"/>
<text text-anchor="start" x="409.5" y="-29" font-family="Helvetica,sans-Serif" font-size="10.00">/home/runner/work/cocos2d.h</text>
<text text-anchor="start" x="409.5" y="-18" font-family="Helvetica,sans-Serif" font-size="10.00">/cocos2d.h/extensions/GUI</text>
<text text-anchor="middle" x="489.5" y="-7" font-family="Helvetica,sans-Serif" font-size="10.00">/CCEditBox/CCEditBoxImplMac.h</text>
</a>
</g>
</g>
<!-- Node5&#45;&gt;Node8 -->
<g id="edge7" class="edge">
<title>Node5&#45;&gt;Node8</title>
<path fill="none" stroke="#63b8ff" d="M553.94,-70.82C541.26,-61.11 527.05,-50.24 515.21,-41.17"/>
<polygon fill="#63b8ff" stroke="#63b8ff" points="551.94,-73.69 562.01,-76.99 556.19,-68.13 551.94,-73.69"/>
</g>
<!-- Node9 -->
<g id="node9" class="node">
<title>Node9</title>
<g id="a_node9"><a xlink:href="../../de/dac/_c_c_edit_box_impl_tizen_8h.html" target="_top" xlink:title=" ">
<polygon fill="white" stroke="#666666" points="777.5,-41 595.5,-41 595.5,0 777.5,0 777.5,-41"/>
<text text-anchor="start" x="603.5" y="-29" font-family="Helvetica,sans-Serif" font-size="10.00">/home/runner/work/cocos2d.h</text>
<text text-anchor="start" x="603.5" y="-18" font-family="Helvetica,sans-Serif" font-size="10.00">/cocos2d.h/extensions/GUI</text>
<text text-anchor="middle" x="686.5" y="-7" font-family="Helvetica,sans-Serif" font-size="10.00">/CCEditBox/CCEditBoxImplTizen.h</text>
</a>
</g>
</g>
<!-- Node5&#45;&gt;Node9 -->
<g id="edge8" class="edge">
<title>Node5&#45;&gt;Node9</title>
<path fill="none" stroke="#63b8ff" d="M621.4,-70.82C634.21,-61.11 648.57,-50.24 660.53,-41.17"/>
<polygon fill="#63b8ff" stroke="#63b8ff" points="619.11,-68.16 613.25,-76.99 623.34,-73.74 619.11,-68.16"/>
</g>
<!-- Node10 -->
<g id="node10" class="node">
<title>Node10</title>
<g id="a_node10"><a xlink:href="../../dd/d41/_c_c_edit_box_impl_win_8h.html" target="_top" xlink:title=" ">
<polygon fill="white" stroke="#666666" points="969.5,-41 795.5,-41 795.5,0 969.5,0 969.5,-41"/>
<text text-anchor="start" x="803.5" y="-29" font-family="Helvetica,sans-Serif" font-size="10.00">/home/runner/work/cocos2d.h</text>
<text text-anchor="start" x="803.5" y="-18" font-family="Helvetica,sans-Serif" font-size="10.00">/cocos2d.h/extensions/GUI</text>
<text text-anchor="middle" x="882.5" y="-7" font-family="Helvetica,sans-Serif" font-size="10.00">/CCEditBox/CCEditBoxImplWin.h</text>
</a>
</g>
</g>
<!-- Node5&#45;&gt;Node10 -->
<g id="edge9" class="edge">
<title>Node5&#45;&gt;Node10</title>
<path fill="none" stroke="#63b8ff" d="M674.1,-74.48C715.77,-63.89 765.31,-51.29 805.63,-41.04"/>
<polygon fill="#63b8ff" stroke="#63b8ff" points="673.07,-71.13 664.24,-76.99 674.79,-77.92 673.07,-71.13"/>
</g>
<!-- Node11 -->
<g id="node11" class="node">
<title>Node11</title>
<g id="a_node11"><a xlink:href="../../d4/d91/_c_c_edit_box_impl_wp8_8h.html" target="_top" xlink:title=" ">
<polygon fill="white" stroke="#666666" points="1165,-41 988,-41 988,0 1165,0 1165,-41"/>
<text text-anchor="start" x="996" y="-29" font-family="Helvetica,sans-Serif" font-size="10.00">/home/runner/work/cocos2d.h</text>
<text text-anchor="start" x="996" y="-18" font-family="Helvetica,sans-Serif" font-size="10.00">/cocos2d.h/extensions/GUI</text>
<text text-anchor="middle" x="1076.5" y="-7" font-family="Helvetica,sans-Serif" font-size="10.00">/CCEditBox/CCEditBoxImplWp8.h</text>
</a>
</g>
</g>
<!-- Node5&#45;&gt;Node11 -->
<g id="edge10" class="edge">
<title>Node5&#45;&gt;Node11</title>
<path fill="none" stroke="#63b8ff" d="M678.6,-76.9C812.15,-55.06 848.69,-61.65 978.5,-41 981.58,-40.51 984.72,-39.99 987.88,-39.45"/>
<polygon fill="#63b8ff" stroke="#63b8ff" points="677.68,-73.51 668.38,-78.6 678.82,-80.41 677.68,-73.51"/>
</g>
<!-- Node13&#45;&gt;Node3 -->
<g id="edge14" class="edge">
<title>Node13&#45;&gt;Node3</title>
<path fill="none" stroke="#63b8ff" d="M567.33,-304.66C599.65,-293.87 635.74,-281.81 665.07,-272.02"/>
<polygon fill="#63b8ff" stroke="#63b8ff" points="565.81,-301.48 557.43,-307.97 568.03,-308.12 565.81,-301.48"/>
</g>
<!-- Node14&#45;&gt;Node13 -->
<g id="edge17" class="edge">
<title>Node14&#45;&gt;Node13</title>
<path fill="none" stroke="#63b8ff" d="M483.81,-391.44C483.58,-381.31 483.32,-370.08 483.09,-360.32"/>
<polygon fill="#63b8ff" stroke="#63b8ff" points="480.31,-391.57 484.05,-401.49 487.31,-391.41 480.31,-391.57"/>
</g>
<!-- Node15&#45;&gt;Node3 -->
<g id="edge19" class="edge">
<title>Node15&#45;&gt;Node3</title>
<path fill="none" stroke="#63b8ff" d="M723.5,-302.87C723.5,-292.6 723.5,-281.4 723.5,-272.17"/>
<polygon fill="#63b8ff" stroke="#63b8ff" points="720,-303.1 723.5,-313.1 727,-303.1 720,-303.1"/>
</g>
<!-- Node16&#45;&gt;Node13 -->
<g id="edge21" class="edge">
<title>Node16&#45;&gt;Node13</title>
<path fill="none" stroke="#63b8ff" d="M644.43,-392.54C614.96,-382.07 581.82,-370.3 553.23,-360.14"/>
<polygon fill="#63b8ff" stroke="#63b8ff" points="643.26,-395.84 653.85,-395.89 645.6,-389.25 643.26,-395.84"/>
</g>
<!-- Node17&#45;&gt;Node3 -->
<g id="edge23" class="edge">
<title>Node17&#45;&gt;Node3</title>
<path fill="none" stroke="#63b8ff" d="M897.82,-310.25C861.46,-298.2 817.27,-283.56 782.48,-272.04"/>
<polygon fill="#63b8ff" stroke="#63b8ff" points="896.77,-313.59 907.37,-313.41 898.97,-306.94 896.77,-313.59"/>
</g>
<!-- Node18&#45;&gt;Node3 -->
<g id="edge25" class="edge">
<title>Node18&#45;&gt;Node3</title>
<path fill="none" stroke="#63b8ff" d="M1095.17,-311.41C1089.2,-310.22 1083.27,-309.07 1077.5,-308 997.99,-293.21 907.95,-279.13 838.57,-268.85"/>
<polygon fill="#63b8ff" stroke="#63b8ff" points="1094.76,-314.89 1105.25,-313.44 1096.14,-308.03 1094.76,-314.89"/>
</g>
<!-- Node19&#45;&gt;Node3 -->
<g id="edge27" class="edge">
<title>Node19&#45;&gt;Node3</title>
<path fill="none" stroke="#63b8ff" d="M1331.13,-391.38C1333.33,-365.54 1331.66,-328.98 1309.5,-308 1276.08,-276.37 999.58,-261.77 838.61,-255.9"/>
<polygon fill="#63b8ff" stroke="#63b8ff" points="1327.64,-391.07 1330.04,-401.39 1334.6,-391.82 1327.64,-391.07"/>
</g>
<!-- Node20&#45;&gt;Node13 -->
<g id="edge29" class="edge">
<title>Node20&#45;&gt;Node13</title>
<path fill="none" stroke="#63b8ff" d="M862.39,-399.59C855.67,-398.33 848.99,-397.12 842.5,-396 731.46,-376.77 702.3,-380.61 591.5,-360 588.54,-359.45 585.54,-358.87 582.52,-358.28"/>
<polygon fill="#63b8ff" stroke="#63b8ff" points="861.78,-403.03 872.26,-401.46 863.08,-396.16 861.78,-403.03"/>
</g>
</g>
</svg>
