<?xml version="1.0" encoding="UTF-8" standalone="no"?>
<!DOCTYPE svg PUBLIC "-//W3C//DTD SVG 1.1//EN"
 "http://www.w3.org/Graphics/SVG/1.1/DTD/svg11.dtd">
<!-- Generated by graphviz version 2.43.0 (0)
 -->
<!-- Title: /home/runner/work/cocos2d.h/cocos2d.h/extensions/GUI/CCControlExtension/CCControl.h Pages: 1 -->
<svg width="1439pt" height="540pt"
 viewBox="0.00 0.00 1439.00 540.00" xmlns="http://www.w3.org/2000/svg" xmlns:xlink="http://www.w3.org/1999/xlink">
<g id="graph0" class="graph" transform="scale(1 1) rotate(0) translate(4 536)">
<title>/home/runner/work/cocos2d.h/cocos2d.h/extensions/GUI/CCControlExtension/CCControl.h</title>
<!-- Node1 -->
<g id="node1" class="node">
<title>Node1</title>
<g id="a_node1"><a xlink:title=" ">
<polygon fill="#bfbfbf" stroke="black" points="756,-490.5 756,-531.5 933,-531.5 933,-490.5 756,-490.5"/>
<text text-anchor="start" x="764" y="-519.5" font-family="Helvetica,sans-Serif" font-size="10.00">/home/runner/work/cocos2d.h</text>
<text text-anchor="start" x="764" y="-508.5" font-family="Helvetica,sans-Serif" font-size="10.00">/cocos2d.h/extensions/GUI</text>
<text text-anchor="middle" x="844.5" y="-497.5" font-family="Helvetica,sans-Serif" font-size="10.00">/CCControlExtension/CCControl.h</text>
</a>
</g>
</g>
<!-- Node2 -->
<g id="node2" class="node">
<title>Node2</title>
<g id="a_node2"><a xlink:href="../../d0/d7e/_c_c_control_button_8h.html" target="_top" xlink:title=" ">
<polygon fill="none" stroke="black" points="68,-318 68,-359 277,-359 277,-318 68,-318"/>
<text text-anchor="start" x="76" y="-347" font-family="Helvetica,sans-Serif" font-size="10.00">/home/runner/work/cocos2d.h</text>
<text text-anchor="start" x="76" y="-336" font-family="Helvetica,sans-Serif" font-size="10.00">/cocos2d.h/extensions/GUI</text>
<text text-anchor="middle" x="172.5" y="-325" font-family="Helvetica,sans-Serif" font-size="10.00">/CCControlExtension/CCControlButton.h</text>
</a>
</g>
</g>
<!-- Node1&#45;&gt;Node2 -->
<g id="edge1" class="edge">
<title>Node1&#45;&gt;Node2</title>
<path fill="none" stroke="midnightblue" d="M745.83,-507.7C609.07,-503.21 369.88,-490.28 291.5,-454 245.45,-432.68 206.19,-386.11 186.35,-359.39"/>
<polygon fill="midnightblue" stroke="midnightblue" points="745.79,-511.2 755.9,-508.02 746.01,-504.2 745.79,-511.2"/>
</g>
<!-- Node3 -->
<g id="node3" class="node">
<title>Node3</title>
<g id="a_node3"><a xlink:href="../../d6/d86/_c_c_control_extensions_8h.html" target="_top" xlink:title=" ">
<polygon fill="none" stroke="black" points="608.5,-234.5 608.5,-275.5 838.5,-275.5 838.5,-234.5 608.5,-234.5"/>
<text text-anchor="start" x="616.5" y="-263.5" font-family="Helvetica,sans-Serif" font-size="10.00">/home/runner/work/cocos2d.h</text>
<text text-anchor="start" x="616.5" y="-252.5" font-family="Helvetica,sans-Serif" font-size="10.00">/cocos2d.h/extensions/GUI</text>
<text text-anchor="middle" x="723.5" y="-241.5" font-family="Helvetica,sans-Serif" font-size="10.00">/CCControlExtension/CCControlExtensions.h</text>
</a>
</g>
</g>
<!-- Node1&#45;&gt;Node3 -->
<g id="edge15" class="edge">
<title>Node1&#45;&gt;Node3</title>
<path fill="none" stroke="midnightblue" d="M745.89,-505.8C608.81,-498.93 374.46,-483.06 348.5,-454 323.13,-425.6 368.95,-316.05 373.5,-312 407.61,-281.6 519.92,-267.63 608.23,-261.25"/>
<polygon fill="midnightblue" stroke="midnightblue" points="745.84,-509.3 756,-506.3 746.18,-502.31 745.84,-509.3"/>
</g>
<!-- Node13 -->
<g id="node13" class="node">
<title>Node13</title>
<g id="a_node13"><a xlink:href="../../d3/db7/_c_c_control_colour_picker_8h.html" target="_top" xlink:title=" ">
<polygon fill="none" stroke="black" points="382.5,-312.5 382.5,-364.5 582.5,-364.5 582.5,-312.5 382.5,-312.5"/>
<text text-anchor="start" x="390.5" y="-352.5" font-family="Helvetica,sans-Serif" font-size="10.00">/home/runner/work/cocos2d.h</text>
<text text-anchor="start" x="390.5" y="-341.5" font-family="Helvetica,sans-Serif" font-size="10.00">/cocos2d.h/extensions/GUI</text>
<text text-anchor="start" x="390.5" y="-330.5" font-family="Helvetica,sans-Serif" font-size="10.00">/CCControlExtension/CCControlColour</text>
<text text-anchor="middle" x="482.5" y="-319.5" font-family="Helvetica,sans-Serif" font-size="10.00">Picker.h</text>
</a>
</g>
</g>
<!-- Node1&#45;&gt;Node13 -->
<g id="edge13" class="edge">
<title>Node1&#45;&gt;Node13</title>
<path fill="none" stroke="midnightblue" d="M745.75,-505.41C612.4,-498.19 388.44,-482.02 363.5,-454 347.84,-436.41 351.25,-421.12 363.5,-401 373.05,-385.31 388.04,-373.44 404.2,-364.54"/>
<polygon fill="midnightblue" stroke="midnightblue" points="745.81,-508.92 755.98,-505.96 746.18,-501.93 745.81,-508.92"/>
</g>
<!-- Node14 -->
<g id="node14" class="node">
<title>Node14</title>
<g id="a_node14"><a xlink:href="../../dd/d5a/_c_c_control_hue_picker_8h.html" target="_top" xlink:title=" ">
<polygon fill="none" stroke="black" points="372,-407 372,-448 597,-448 597,-407 372,-407"/>
<text text-anchor="start" x="380" y="-436" font-family="Helvetica,sans-Serif" font-size="10.00">/home/runner/work/cocos2d.h</text>
<text text-anchor="start" x="380" y="-425" font-family="Helvetica,sans-Serif" font-size="10.00">/cocos2d.h/extensions/GUI</text>
<text text-anchor="middle" x="484.5" y="-414" font-family="Helvetica,sans-Serif" font-size="10.00">/CCControlExtension/CCControlHuePicker.h</text>
</a>
</g>
</g>
<!-- Node1&#45;&gt;Node14 -->
<g id="edge16" class="edge">
<title>Node1&#45;&gt;Node14</title>
<path fill="none" stroke="midnightblue" d="M748.46,-488.26C693.15,-475.74 624.2,-460.13 570.65,-448"/>
<polygon fill="midnightblue" stroke="midnightblue" points="747.75,-491.68 758.27,-490.48 749.29,-484.86 747.75,-491.68"/>
</g>
<!-- Node15 -->
<g id="node15" class="node">
<title>Node15</title>
<g id="a_node15"><a xlink:href="../../d2/d29/_c_c_control_potentiometer_8h.html" target="_top" xlink:title=" ">
<polygon fill="none" stroke="black" points="600.5,-318 600.5,-359 846.5,-359 846.5,-318 600.5,-318"/>
<text text-anchor="start" x="608.5" y="-347" font-family="Helvetica,sans-Serif" font-size="10.00">/home/runner/work/cocos2d.h</text>
<text text-anchor="start" x="608.5" y="-336" font-family="Helvetica,sans-Serif" font-size="10.00">/cocos2d.h/extensions/GUI</text>
<text text-anchor="middle" x="723.5" y="-325" font-family="Helvetica,sans-Serif" font-size="10.00">/CCControlExtension/CCControlPotentiometer.h</text>
</a>
</g>
</g>
<!-- Node1&#45;&gt;Node15 -->
<g id="edge18" class="edge">
<title>Node1&#45;&gt;Node15</title>
<path fill="none" stroke="midnightblue" d="M943.4,-499.8C1002.72,-491.4 1070.13,-477.06 1088.5,-454 1103.18,-435.57 1103.83,-418.88 1088.5,-401 1054.4,-361.23 907.12,-373.97 855.5,-365 844.81,-363.14 833.64,-361.12 822.53,-359.05"/>
<polygon fill="midnightblue" stroke="midnightblue" points="942.62,-496.37 933.19,-501.19 943.57,-503.3 942.62,-496.37"/>
</g>
<!-- Node16 -->
<g id="node16" class="node">
<title>Node16</title>
<g id="a_node16"><a xlink:href="../../de/d08/_c_c_control_saturation_brightness_picker_8h.html" target="_top" xlink:title=" ">
<polygon fill="none" stroke="black" points="615.5,-401.5 615.5,-453.5 833.5,-453.5 833.5,-401.5 615.5,-401.5"/>
<text text-anchor="start" x="623.5" y="-441.5" font-family="Helvetica,sans-Serif" font-size="10.00">/home/runner/work/cocos2d.h</text>
<text text-anchor="start" x="623.5" y="-430.5" font-family="Helvetica,sans-Serif" font-size="10.00">/cocos2d.h/extensions/GUI</text>
<text text-anchor="start" x="623.5" y="-419.5" font-family="Helvetica,sans-Serif" font-size="10.00">/CCControlExtension/CCControlSaturation</text>
<text text-anchor="middle" x="724.5" y="-408.5" font-family="Helvetica,sans-Serif" font-size="10.00">BrightnessPicker.h</text>
</a>
</g>
</g>
<!-- Node1&#45;&gt;Node16 -->
<g id="edge20" class="edge">
<title>Node1&#45;&gt;Node16</title>
<path fill="none" stroke="midnightblue" d="M807.46,-484.84C792.9,-474.96 776.22,-463.62 761.65,-453.73"/>
<polygon fill="midnightblue" stroke="midnightblue" points="805.52,-487.76 815.76,-490.48 809.45,-481.96 805.52,-487.76"/>
</g>
<!-- Node17 -->
<g id="node17" class="node">
<title>Node17</title>
<g id="a_node17"><a xlink:href="../../d6/d7e/_c_c_control_slider_8h.html" target="_top" xlink:title=" ">
<polygon fill="none" stroke="black" points="864.5,-318 864.5,-359 1068.5,-359 1068.5,-318 864.5,-318"/>
<text text-anchor="start" x="872.5" y="-347" font-family="Helvetica,sans-Serif" font-size="10.00">/home/runner/work/cocos2d.h</text>
<text text-anchor="start" x="872.5" y="-336" font-family="Helvetica,sans-Serif" font-size="10.00">/cocos2d.h/extensions/GUI</text>
<text text-anchor="middle" x="966.5" y="-325" font-family="Helvetica,sans-Serif" font-size="10.00">/CCControlExtension/CCControlSlider.h</text>
</a>
</g>
</g>
<!-- Node1&#45;&gt;Node17 -->
<g id="edge22" class="edge">
<title>Node1&#45;&gt;Node17</title>
<path fill="none" stroke="midnightblue" d="M943.15,-501.78C1008.84,-494.02 1086.76,-479.63 1107.5,-454 1122.32,-435.69 1120.4,-420.71 1107.5,-401 1094.77,-381.56 1074.41,-368.23 1053.07,-359.11"/>
<polygon fill="midnightblue" stroke="midnightblue" points="942.68,-498.31 933.14,-502.92 943.47,-505.26 942.68,-498.31"/>
</g>
<!-- Node18 -->
<g id="node18" class="node">
<title>Node18</title>
<g id="a_node18"><a xlink:href="../../de/dba/_c_c_control_stepper_8h.html" target="_top" xlink:title=" ">
<polygon fill="none" stroke="black" points="1086.5,-318 1086.5,-359 1300.5,-359 1300.5,-318 1086.5,-318"/>
<text text-anchor="start" x="1094.5" y="-347" font-family="Helvetica,sans-Serif" font-size="10.00">/home/runner/work/cocos2d.h</text>
<text text-anchor="start" x="1094.5" y="-336" font-family="Helvetica,sans-Serif" font-size="10.00">/cocos2d.h/extensions/GUI</text>
<text text-anchor="middle" x="1193.5" y="-325" font-family="Helvetica,sans-Serif" font-size="10.00">/CCControlExtension/CCControlStepper.h</text>
</a>
</g>
</g>
<!-- Node1&#45;&gt;Node18 -->
<g id="edge24" class="edge">
<title>Node1&#45;&gt;Node18</title>
<path fill="none" stroke="midnightblue" d="M943.19,-499.08C1012.31,-489.84 1097.34,-474.76 1126.5,-454 1159.52,-430.49 1178.81,-385.19 1187.63,-359.17"/>
<polygon fill="midnightblue" stroke="midnightblue" points="942.58,-495.63 933.12,-500.41 943.49,-502.58 942.58,-495.63"/>
</g>
<!-- Node19 -->
<g id="node19" class="node">
<title>Node19</title>
<g id="a_node19"><a xlink:href="../../de/dc7/_c_c_control_switch_8h.html" target="_top" xlink:title=" ">
<polygon fill="none" stroke="black" points="1222,-407 1222,-448 1431,-448 1431,-407 1222,-407"/>
<text text-anchor="start" x="1230" y="-436" font-family="Helvetica,sans-Serif" font-size="10.00">/home/runner/work/cocos2d.h</text>
<text text-anchor="start" x="1230" y="-425" font-family="Helvetica,sans-Serif" font-size="10.00">/cocos2d.h/extensions/GUI</text>
<text text-anchor="middle" x="1326.5" y="-414" font-family="Helvetica,sans-Serif" font-size="10.00">/CCControlExtension/CCControlSwitch.h</text>
</a>
</g>
</g>
<!-- Node1&#45;&gt;Node19 -->
<g id="edge26" class="edge">
<title>Node1&#45;&gt;Node19</title>
<path fill="none" stroke="midnightblue" d="M943.23,-495.95C1015.47,-485.34 1115.77,-469.93 1203.5,-454 1213.69,-452.15 1224.34,-450.11 1234.92,-448.01"/>
<polygon fill="midnightblue" stroke="midnightblue" points="942.61,-492.5 933.23,-497.41 943.63,-499.43 942.61,-492.5"/>
</g>
<!-- Node20 -->
<g id="node20" class="node">
<title>Node20</title>
<g id="a_node20"><a xlink:href="../../d8/dec/_color_picker_delegate_8h.html" target="_top" xlink:title=" ">
<polygon fill="none" stroke="black" points="852,-407 852,-448 1079,-448 1079,-407 852,-407"/>
<text text-anchor="start" x="860" y="-436" font-family="Helvetica,sans-Serif" font-size="10.00">/home/runner/work/cocos2d.h</text>
<text text-anchor="start" x="860" y="-425" font-family="Helvetica,sans-Serif" font-size="10.00">/cocos2d.h/extensions/GUI</text>
<text text-anchor="middle" x="965.5" y="-414" font-family="Helvetica,sans-Serif" font-size="10.00">/CCControlExtension/ColorPickerDelegate.h</text>
</a>
</g>
</g>
<!-- Node1&#45;&gt;Node20 -->
<g id="edge28" class="edge">
<title>Node1&#45;&gt;Node20</title>
<path fill="none" stroke="midnightblue" d="M881.82,-484.87C899.36,-473.05 919.96,-459.17 936.33,-448.14"/>
<polygon fill="midnightblue" stroke="midnightblue" points="879.82,-481.99 873.48,-490.48 883.73,-487.8 879.82,-481.99"/>
</g>
<!-- Node2&#45;&gt;Node3 -->
<g id="edge2" class="edge">
<title>Node2&#45;&gt;Node3</title>
<path fill="none" stroke="midnightblue" d="M269.77,-315.98C277.11,-314.56 284.41,-313.22 291.5,-312 398.27,-293.67 520.82,-278.32 608.05,-268.35"/>
<polygon fill="midnightblue" stroke="midnightblue" points="268.89,-312.58 259.75,-317.95 270.24,-319.45 268.89,-312.58"/>
</g>
<!-- Node4 -->
<g id="node4" class="node">
<title>Node4</title>
<g id="a_node4"><a xlink:href="../../dc/d4a/_c_c_edit_box_8h.html" target="_top" xlink:title=" ">
<polygon fill="none" stroke="black" points="589,-156.5 589,-197.5 750,-197.5 750,-156.5 589,-156.5"/>
<text text-anchor="start" x="597" y="-185.5" font-family="Helvetica,sans-Serif" font-size="10.00">/home/runner/work/cocos2d.h</text>
<text text-anchor="start" x="597" y="-174.5" font-family="Helvetica,sans-Serif" font-size="10.00">/cocos2d.h/extensions/GUI</text>
<text text-anchor="middle" x="669.5" y="-163.5" font-family="Helvetica,sans-Serif" font-size="10.00">/CCEditBox/CCEditBox.h</text>
</a>
</g>
</g>
<!-- Node3&#45;&gt;Node4 -->
<g id="edge3" class="edge">
<title>Node3&#45;&gt;Node4</title>
<path fill="none" stroke="midnightblue" d="M703.64,-226.05C696.9,-216.57 689.53,-206.18 683.36,-197.51"/>
<polygon fill="midnightblue" stroke="midnightblue" points="700.95,-228.3 709.59,-234.43 706.65,-224.25 700.95,-228.3"/>
</g>
<!-- Node12 -->
<g id="node12" class="node">
<title>Node12</title>
<g id="a_node12"><a xlink:href="../../d3/d58/cocos-ext_8h.html" target="_top" xlink:title=" ">
<polygon fill="none" stroke="black" points="686.5,-84 686.5,-114 870.5,-114 870.5,-84 686.5,-84"/>
<text text-anchor="start" x="694.5" y="-102" font-family="Helvetica,sans-Serif" font-size="10.00">/home/runner/work/cocos2d.h</text>
<text text-anchor="middle" x="778.5" y="-91" font-family="Helvetica,sans-Serif" font-size="10.00">/cocos2d.h/extensions/cocos&#45;ext.h</text>
</a>
</g>
</g>
<!-- Node3&#45;&gt;Node12 -->
<g id="edge12" class="edge">
<title>Node3&#45;&gt;Node12</title>
<path fill="none" stroke="midnightblue" d="M744.57,-225.81C750.15,-217.24 755.67,-207.55 759.5,-198 770.92,-169.53 775.63,-133.58 777.45,-114.1"/>
<polygon fill="midnightblue" stroke="midnightblue" points="741.54,-224.04 738.81,-234.28 747.33,-227.97 741.54,-224.04"/>
</g>
<!-- Node5 -->
<g id="node5" class="node">
<title>Node5</title>
<g id="a_node5"><a xlink:href="../../db/da9/_c_c_edit_box_impl_8h.html" target="_top" xlink:title=" ">
<polygon fill="none" stroke="black" points="507,-78.5 507,-119.5 668,-119.5 668,-78.5 507,-78.5"/>
<text text-anchor="start" x="515" y="-107.5" font-family="Helvetica,sans-Serif" font-size="10.00">/home/runner/work/cocos2d.h</text>
<text text-anchor="start" x="515" y="-96.5" font-family="Helvetica,sans-Serif" font-size="10.00">/cocos2d.h/extensions/GUI</text>
<text text-anchor="middle" x="587.5" y="-85.5" font-family="Helvetica,sans-Serif" font-size="10.00">/CCEditBox/CCEditBoxImpl.h</text>
</a>
</g>
</g>
<!-- Node4&#45;&gt;Node5 -->
<g id="edge4" class="edge">
<title>Node4&#45;&gt;Node5</title>
<path fill="none" stroke="midnightblue" d="M640.9,-149.49C630.26,-139.63 618.39,-128.63 608.55,-119.51"/>
<polygon fill="midnightblue" stroke="midnightblue" points="638.67,-152.2 648.38,-156.43 643.43,-147.06 638.67,-152.2"/>
</g>
<!-- Node4&#45;&gt;Node12 -->
<g id="edge11" class="edge">
<title>Node4&#45;&gt;Node12</title>
<path fill="none" stroke="midnightblue" d="M705.85,-150.66C723.25,-138.53 743.43,-124.45 758.1,-114.23"/>
<polygon fill="midnightblue" stroke="midnightblue" points="703.77,-147.84 697.57,-156.43 707.77,-153.58 703.77,-147.84"/>
</g>
<!-- Node6 -->
<g id="node6" class="node">
<title>Node6</title>
<g id="a_node6"><a xlink:href="../../d4/dd3/_c_c_edit_box_impl_android_8h.html" target="_top" xlink:title=" ">
<polygon fill="none" stroke="black" points="0,-0.5 0,-41.5 193,-41.5 193,-0.5 0,-0.5"/>
<text text-anchor="start" x="8" y="-29.5" font-family="Helvetica,sans-Serif" font-size="10.00">/home/runner/work/cocos2d.h</text>
<text text-anchor="start" x="8" y="-18.5" font-family="Helvetica,sans-Serif" font-size="10.00">/cocos2d.h/extensions/GUI</text>
<text text-anchor="middle" x="96.5" y="-7.5" font-family="Helvetica,sans-Serif" font-size="10.00">/CCEditBox/CCEditBoxImplAndroid.h</text>
</a>
</g>
</g>
<!-- Node5&#45;&gt;Node6 -->
<g id="edge5" class="edge">
<title>Node5&#45;&gt;Node6</title>
<path fill="none" stroke="midnightblue" d="M496.68,-85.89C418.56,-75.21 302.92,-58.77 202.5,-42 199.45,-41.49 196.36,-40.96 193.23,-40.43"/>
<polygon fill="midnightblue" stroke="midnightblue" points="496.59,-89.41 506.97,-87.29 497.54,-82.47 496.59,-89.41"/>
</g>
<!-- Node7 -->
<g id="node7" class="node">
<title>Node7</title>
<g id="a_node7"><a xlink:href="../../dd/dfd/_c_c_edit_box_impl_i_o_s_8h.html" target="_top" xlink:title=" ">
<polygon fill="none" stroke="black" points="211.5,-0.5 211.5,-41.5 383.5,-41.5 383.5,-0.5 211.5,-0.5"/>
<text text-anchor="start" x="219.5" y="-29.5" font-family="Helvetica,sans-Serif" font-size="10.00">/home/runner/work/cocos2d.h</text>
<text text-anchor="start" x="219.5" y="-18.5" font-family="Helvetica,sans-Serif" font-size="10.00">/cocos2d.h/extensions/GUI</text>
<text text-anchor="middle" x="297.5" y="-7.5" font-family="Helvetica,sans-Serif" font-size="10.00">/CCEditBox/CCEditBoxImplIOS.h</text>
</a>
</g>
</g>
<!-- Node5&#45;&gt;Node7 -->
<g id="edge6" class="edge">
<title>Node5&#45;&gt;Node7</title>
<path fill="none" stroke="midnightblue" d="M503,-75.86C461.52,-64.98 411.97,-52 371.93,-41.51"/>
<polygon fill="midnightblue" stroke="midnightblue" points="502.26,-79.28 512.82,-78.43 504.03,-72.51 502.26,-79.28"/>
</g>
<!-- Node8 -->
<g id="node8" class="node">
<title>Node8</title>
<g id="a_node8"><a xlink:href="../../d7/d4d/_c_c_edit_box_impl_mac_8h.html" target="_top" xlink:title=" ">
<polygon fill="none" stroke="black" points="401.5,-0.5 401.5,-41.5 577.5,-41.5 577.5,-0.5 401.5,-0.5"/>
<text text-anchor="start" x="409.5" y="-29.5" font-family="Helvetica,sans-Serif" font-size="10.00">/home/runner/work/cocos2d.h</text>
<text text-anchor="start" x="409.5" y="-18.5" font-family="Helvetica,sans-Serif" font-size="10.00">/cocos2d.h/extensions/GUI</text>
<text text-anchor="middle" x="489.5" y="-7.5" font-family="Helvetica,sans-Serif" font-size="10.00">/CCEditBox/CCEditBoxImplMac.h</text>
</a>
</g>
</g>
<!-- Node5&#45;&gt;Node8 -->
<g id="edge7" class="edge">
<title>Node5&#45;&gt;Node8</title>
<path fill="none" stroke="midnightblue" d="M554.06,-72.06C541.15,-62.06 526.64,-50.8 514.65,-41.51"/>
<polygon fill="midnightblue" stroke="midnightblue" points="552.22,-75.07 562.26,-78.43 556.51,-69.53 552.22,-75.07"/>
</g>
<!-- Node9 -->
<g id="node9" class="node">
<title>Node9</title>
<g id="a_node9"><a xlink:href="../../de/dac/_c_c_edit_box_impl_tizen_8h.html" target="_top" xlink:title=" ">
<polygon fill="none" stroke="black" points="595.5,-0.5 595.5,-41.5 777.5,-41.5 777.5,-0.5 595.5,-0.5"/>
<text text-anchor="start" x="603.5" y="-29.5" font-family="Helvetica,sans-Serif" font-size="10.00">/home/runner/work/cocos2d.h</text>
<text text-anchor="start" x="603.5" y="-18.5" font-family="Helvetica,sans-Serif" font-size="10.00">/cocos2d.h/extensions/GUI</text>
<text text-anchor="middle" x="686.5" y="-7.5" font-family="Helvetica,sans-Serif" font-size="10.00">/CCEditBox/CCEditBoxImplTizen.h</text>
</a>
</g>
</g>
<!-- Node5&#45;&gt;Node9 -->
<g id="edge8" class="edge">
<title>Node5&#45;&gt;Node9</title>
<path fill="none" stroke="midnightblue" d="M621.28,-72.06C634.32,-62.06 648.98,-50.8 661.09,-41.51"/>
<polygon fill="midnightblue" stroke="midnightblue" points="618.8,-69.56 612.99,-78.43 623.06,-75.11 618.8,-69.56"/>
</g>
<!-- Node10 -->
<g id="node10" class="node">
<title>Node10</title>
<g id="a_node10"><a xlink:href="../../dd/d41/_c_c_edit_box_impl_win_8h.html" target="_top" xlink:title=" ">
<polygon fill="none" stroke="black" points="795.5,-0.5 795.5,-41.5 969.5,-41.5 969.5,-0.5 795.5,-0.5"/>
<text text-anchor="start" x="803.5" y="-29.5" font-family="Helvetica,sans-Serif" font-size="10.00">/home/runner/work/cocos2d.h</text>
<text text-anchor="start" x="803.5" y="-18.5" font-family="Helvetica,sans-Serif" font-size="10.00">/cocos2d.h/extensions/GUI</text>
<text text-anchor="middle" x="882.5" y="-7.5" font-family="Helvetica,sans-Serif" font-size="10.00">/CCEditBox/CCEditBoxImplWin.h</text>
</a>
</g>
</g>
<!-- Node5&#45;&gt;Node10 -->
<g id="edge9" class="edge">
<title>Node5&#45;&gt;Node10</title>
<path fill="none" stroke="midnightblue" d="M673.19,-75.92C715.44,-65.04 765.97,-52.02 806.79,-41.51"/>
<polygon fill="midnightblue" stroke="midnightblue" points="672.28,-72.54 663.47,-78.43 674.03,-79.32 672.28,-72.54"/>
</g>
<!-- Node11 -->
<g id="node11" class="node">
<title>Node11</title>
<g id="a_node11"><a xlink:href="../../d4/d91/_c_c_edit_box_impl_wp8_8h.html" target="_top" xlink:title=" ">
<polygon fill="none" stroke="black" points="988,-0.5 988,-41.5 1165,-41.5 1165,-0.5 988,-0.5"/>
<text text-anchor="start" x="996" y="-29.5" font-family="Helvetica,sans-Serif" font-size="10.00">/home/runner/work/cocos2d.h</text>
<text text-anchor="start" x="996" y="-18.5" font-family="Helvetica,sans-Serif" font-size="10.00">/cocos2d.h/extensions/GUI</text>
<text text-anchor="middle" x="1076.5" y="-7.5" font-family="Helvetica,sans-Serif" font-size="10.00">/CCEditBox/CCEditBoxImplWp8.h</text>
</a>
</g>
</g>
<!-- Node5&#45;&gt;Node11 -->
<g id="edge10" class="edge">
<title>Node5&#45;&gt;Node11</title>
<path fill="none" stroke="midnightblue" d="M678.59,-77.91C812.09,-55.74 848.74,-62.96 978.5,-42 981.59,-41.5 984.72,-40.97 987.89,-40.42"/>
<polygon fill="midnightblue" stroke="midnightblue" points="677.66,-74.51 668.38,-79.63 678.82,-81.42 677.66,-74.51"/>
</g>
<!-- Node13&#45;&gt;Node3 -->
<g id="edge14" class="edge">
<title>Node13&#45;&gt;Node3</title>
<path fill="none" stroke="midnightblue" d="M566.06,-309.24C598.96,-298.12 635.92,-285.62 665.77,-275.52"/>
<polygon fill="midnightblue" stroke="midnightblue" points="564.8,-305.97 556.45,-312.49 567.04,-312.61 564.8,-305.97"/>
</g>
<!-- Node14&#45;&gt;Node13 -->
<g id="edge17" class="edge">
<title>Node14&#45;&gt;Node13</title>
<path fill="none" stroke="midnightblue" d="M483.81,-396.51C483.57,-386.17 483.31,-374.71 483.08,-364.79"/>
<polygon fill="midnightblue" stroke="midnightblue" points="480.32,-396.84 484.05,-406.76 487.32,-396.68 480.32,-396.84"/>
</g>
<!-- Node15&#45;&gt;Node3 -->
<g id="edge19" class="edge">
<title>Node15&#45;&gt;Node3</title>
<path fill="none" stroke="midnightblue" d="M723.5,-307.56C723.5,-296.88 723.5,-285.13 723.5,-275.55"/>
<polygon fill="midnightblue" stroke="midnightblue" points="720,-307.77 723.5,-317.77 727,-307.77 720,-307.77"/>
</g>
<!-- Node16&#45;&gt;Node13 -->
<g id="edge21" class="edge">
<title>Node16&#45;&gt;Node13</title>
<path fill="none" stroke="midnightblue" d="M645.22,-398C615.16,-387.19 581.2,-374.98 552.1,-364.52"/>
<polygon fill="midnightblue" stroke="midnightblue" points="644.23,-401.36 654.83,-401.45 646.6,-394.78 644.23,-401.36"/>
</g>
<!-- Node17&#45;&gt;Node3 -->
<g id="edge23" class="edge">
<title>Node17&#45;&gt;Node3</title>
<path fill="none" stroke="midnightblue" d="M898.64,-314.74C861.84,-302.4 816.83,-287.3 781.65,-275.5"/>
<polygon fill="midnightblue" stroke="midnightblue" points="897.7,-318.12 908.3,-317.98 899.93,-311.48 897.7,-318.12"/>
</g>
<!-- Node18&#45;&gt;Node3 -->
<g id="edge25" class="edge">
<title>Node18&#45;&gt;Node3</title>
<path fill="none" stroke="midnightblue" d="M1097.53,-315.94C1090.76,-314.56 1084.03,-313.23 1077.5,-312 998.02,-296.99 907.97,-282.78 838.59,-272.44"/>
<polygon fill="midnightblue" stroke="midnightblue" points="1096.97,-319.4 1107.47,-317.99 1098.38,-312.54 1096.97,-319.4"/>
</g>
<!-- Node19&#45;&gt;Node3 -->
<g id="edge27" class="edge">
<title>Node19&#45;&gt;Node3</title>
<path fill="none" stroke="midnightblue" d="M1331.25,-396.5C1333.54,-370.32 1331.92,-333.28 1309.5,-312 1276.12,-280.32 999.6,-265.49 838.62,-259.49"/>
<polygon fill="midnightblue" stroke="midnightblue" points="1327.75,-396.31 1330.13,-406.64 1334.71,-397.08 1327.75,-396.31"/>
</g>
<!-- Node20&#45;&gt;Node13 -->
<g id="edge29" class="edge">
<title>Node20&#45;&gt;Node13</title>
<path fill="none" stroke="midnightblue" d="M864.72,-405.08C857.21,-403.65 849.74,-402.27 842.5,-401 731.49,-381.55 702.25,-385.86 591.5,-365 588.54,-364.44 585.54,-363.86 582.51,-363.25"/>
<polygon fill="midnightblue" stroke="midnightblue" points="864.12,-408.53 874.61,-407 865.45,-401.66 864.12,-408.53"/>
</g>
</g>
</svg>
