<?xml version="1.0" encoding="UTF-8" standalone="no"?>
<!DOCTYPE svg PUBLIC "-//W3C//DTD SVG 1.1//EN"
 "http://www.w3.org/Graphics/SVG/1.1/DTD/svg11.dtd">
<!-- Generated by graphviz version 2.43.0 (0)
 -->
<!-- Title: /home/runner/work/cocos2d.h/cocos2d.h/cocos2dx/text_input_node/CCIMEDelegate.h Pages: 1 -->
<svg width="383pt" height="434pt"
 viewBox="0.00 0.00 383.00 434.00" xmlns="http://www.w3.org/2000/svg" xmlns:xlink="http://www.w3.org/1999/xlink">
<g id="graph0" class="graph" transform="scale(1 1) rotate(0) translate(4 430)">
<title>/home/runner/work/cocos2d.h/cocos2d.h/cocos2dx/text_input_node/CCIMEDelegate.h</title>
<!-- Node1 -->
<g id="node1" class="node">
<title>Node1</title>
<g id="a_node1"><a xlink:title=" ">
<polygon fill="#999999" stroke="#666666" points="164,-426 0,-426 0,-385 164,-385 164,-426"/>
<text text-anchor="start" x="8" y="-414" font-family="Helvetica,sans-Serif" font-size="10.00">/home/runner/work/cocos2d.h</text>
<text text-anchor="start" x="8" y="-403" font-family="Helvetica,sans-Serif" font-size="10.00">/cocos2d.h/cocos2dx/text</text>
<text text-anchor="middle" x="82" y="-392" font-family="Helvetica,sans-Serif" font-size="10.00">_input_node/CCIMEDelegate.h</text>
</a>
</g>
</g>
<!-- Node2 -->
<g id="node2" class="node">
<title>Node2</title>
<g id="a_node2"><a xlink:href="../../d6/d09/_c_c_geometry_8h.html" target="_top" xlink:title=" ">
<polygon fill="white" stroke="#666666" points="141,-349 23,-349 23,-330 141,-330 141,-349"/>
<text text-anchor="middle" x="82" y="-337" font-family="Helvetica,sans-Serif" font-size="10.00">cocoa/CCGeometry.h</text>
</a>
</g>
</g>
<!-- Node1&#45;&gt;Node2 -->
<g id="edge1" class="edge">
<title>Node1&#45;&gt;Node2</title>
<path fill="none" stroke="#63b8ff" d="M82,-384.95C82,-376.85 82,-367.5 82,-359.47"/>
<polygon fill="#63b8ff" stroke="#63b8ff" points="85.5,-359.26 82,-349.26 78.5,-359.26 85.5,-359.26"/>
</g>
<!-- Node3 -->
<g id="node3" class="node">
<title>Node3</title>
<g id="a_node3"><a xlink:href="../../d3/d41/_c_c_platform_macros_8h.html" target="_top" xlink:title=" ">
<polygon fill="white" stroke="#666666" points="167.5,-129 6.5,-129 6.5,-110 167.5,-110 167.5,-129"/>
<text text-anchor="middle" x="87" y="-117" font-family="Helvetica,sans-Serif" font-size="10.00">platform/CCPlatformMacros.h</text>
</a>
</g>
</g>
<!-- Node2&#45;&gt;Node3 -->
<g id="edge2" class="edge">
<title>Node2&#45;&gt;Node3</title>
<path fill="none" stroke="#63b8ff" d="M69.68,-329.71C59.3,-321.63 44.92,-308.7 37,-294 21.23,-264.73 18.48,-252.39 26,-220 33.56,-187.46 56.69,-155.56 72.19,-136.97"/>
<polygon fill="#63b8ff" stroke="#63b8ff" points="75.02,-139.06 78.89,-129.2 69.71,-134.49 75.02,-139.06"/>
</g>
<!-- Node7 -->
<g id="node7" class="node">
<title>Node7</title>
<g id="a_node7"><a xlink:href="../../dd/d69/_c_c_object_8h.html" target="_top" xlink:title=" ">
<polygon fill="white" stroke="#666666" points="117.5,-294 46.5,-294 46.5,-275 117.5,-275 117.5,-294"/>
<text text-anchor="middle" x="82" y="-282" font-family="Helvetica,sans-Serif" font-size="10.00">CCObject.h</text>
</a>
</g>
</g>
<!-- Node2&#45;&gt;Node7 -->
<g id="edge7" class="edge">
<title>Node2&#45;&gt;Node7</title>
<path fill="none" stroke="#63b8ff" d="M82,-329.75C82,-322.8 82,-312.85 82,-304.13"/>
<polygon fill="#63b8ff" stroke="#63b8ff" points="85.5,-304.09 82,-294.09 78.5,-304.09 85.5,-304.09"/>
</g>
<!-- Node13 -->
<g id="node13" class="node">
<title>Node13</title>
<g id="a_node13"><a xlink:title=" ">
<polygon fill="#e0e0e0" stroke="#999999" points="186.5,-294 135.5,-294 135.5,-275 186.5,-275 186.5,-294"/>
<text text-anchor="middle" x="161" y="-282" font-family="Helvetica,sans-Serif" font-size="10.00">math.h</text>
</a>
</g>
</g>
<!-- Node2&#45;&gt;Node13 -->
<g id="edge16" class="edge">
<title>Node2&#45;&gt;Node13</title>
<path fill="none" stroke="#63b8ff" d="M94.69,-329.98C106.83,-321.84 125.36,-309.41 139.75,-299.76"/>
<polygon fill="#63b8ff" stroke="#63b8ff" points="141.72,-302.65 148.08,-294.17 137.82,-296.84 141.72,-302.65"/>
</g>
<!-- Node4 -->
<g id="node4" class="node">
<title>Node4</title>
<g id="a_node4"><a xlink:href="../../db/d9f/cc_config_8h.html" target="_top" xlink:title="cocos2d (cc) configuration file">
<polygon fill="white" stroke="#666666" points="271.5,-74 204.5,-74 204.5,-55 271.5,-55 271.5,-74"/>
<text text-anchor="middle" x="238" y="-62" font-family="Helvetica,sans-Serif" font-size="10.00">ccConfig.h</text>
</a>
</g>
</g>
<!-- Node3&#45;&gt;Node4 -->
<g id="edge3" class="edge">
<title>Node3&#45;&gt;Node4</title>
<path fill="none" stroke="#63b8ff" d="M111.26,-109.98C136.32,-101.19 175.63,-87.39 203.83,-77.49"/>
<polygon fill="#63b8ff" stroke="#63b8ff" points="205.02,-80.78 213.3,-74.17 202.7,-74.18 205.02,-80.78"/>
</g>
<!-- Node5 -->
<g id="node5" class="node">
<title>Node5</title>
<g id="a_node5"><a xlink:href="../../dd/d96/_c_c_platform_config_8h.html" target="_top" xlink:title=" ">
<polygon fill="white" stroke="#666666" points="219.5,-19 62.5,-19 62.5,0 219.5,0 219.5,-19"/>
<text text-anchor="middle" x="141" y="-7" font-family="Helvetica,sans-Serif" font-size="10.00">platform/CCPlatformConfig.h</text>
</a>
</g>
</g>
<!-- Node3&#45;&gt;Node5 -->
<g id="edge5" class="edge">
<title>Node3&#45;&gt;Node5</title>
<path fill="none" stroke="#63b8ff" d="M79.33,-109.87C69.11,-97.25 53.45,-73.28 64,-55 72.42,-40.41 87.65,-30.17 102.35,-23.23"/>
<polygon fill="#63b8ff" stroke="#63b8ff" points="104.07,-26.3 111.86,-19.13 101.29,-19.87 104.07,-26.3"/>
</g>
<!-- Node6 -->
<g id="node6" class="node">
<title>Node6</title>
<g id="a_node6"><a xlink:title=" ">
<polygon fill="#e0e0e0" stroke="#999999" points="186.5,-74 73.5,-74 73.5,-55 186.5,-55 186.5,-74"/>
<text text-anchor="middle" x="130" y="-62" font-family="Helvetica,sans-Serif" font-size="10.00">CCPlatformDefine.h</text>
</a>
</g>
</g>
<!-- Node3&#45;&gt;Node6 -->
<g id="edge6" class="edge">
<title>Node3&#45;&gt;Node6</title>
<path fill="none" stroke="#63b8ff" d="M94.1,-109.75C100.17,-102.26 109.09,-91.28 116.51,-82.13"/>
<polygon fill="#63b8ff" stroke="#63b8ff" points="119.45,-84.06 123.03,-74.09 114.01,-79.65 119.45,-84.06"/>
</g>
<!-- Node4&#45;&gt;Node5 -->
<g id="edge4" class="edge">
<title>Node4&#45;&gt;Node5</title>
<path fill="none" stroke="#63b8ff" d="M222.42,-54.98C207.23,-46.69 183.9,-33.94 166.1,-24.22"/>
<polygon fill="#63b8ff" stroke="#63b8ff" points="167.32,-20.89 156.87,-19.17 163.97,-27.04 167.32,-20.89"/>
</g>
<!-- Node8 -->
<g id="node8" class="node">
<title>Node8</title>
<g id="a_node8"><a xlink:href="../../d9/d2d/_c_c_data_visitor_8h.html" target="_top" xlink:title=" ">
<polygon fill="white" stroke="#666666" points="128.5,-239 35.5,-239 35.5,-220 128.5,-220 128.5,-239"/>
<text text-anchor="middle" x="82" y="-227" font-family="Helvetica,sans-Serif" font-size="10.00">CCDataVisitor.h</text>
</a>
</g>
</g>
<!-- Node7&#45;&gt;Node8 -->
<g id="edge8" class="edge">
<title>Node7&#45;&gt;Node8</title>
<path fill="none" stroke="#63b8ff" d="M82,-274.75C82,-267.8 82,-257.85 82,-249.13"/>
<polygon fill="#63b8ff" stroke="#63b8ff" points="85.5,-249.09 82,-239.09 78.5,-249.09 85.5,-249.09"/>
</g>
<!-- Node10 -->
<g id="node10" class="node">
<title>Node10</title>
<g id="a_node10"><a xlink:href="../../d9/dc8/cc_macros_8h.html" target="_top" xlink:title=" ">
<polygon fill="white" stroke="#666666" points="274.5,-239 203.5,-239 203.5,-220 274.5,-220 274.5,-239"/>
<text text-anchor="middle" x="239" y="-227" font-family="Helvetica,sans-Serif" font-size="10.00">ccMacros.h</text>
</a>
</g>
</g>
<!-- Node7&#45;&gt;Node10 -->
<g id="edge11" class="edge">
<title>Node7&#45;&gt;Node10</title>
<path fill="none" stroke="#63b8ff" d="M107.22,-274.98C133.36,-266.16 174.4,-252.31 203.73,-242.41"/>
<polygon fill="#63b8ff" stroke="#63b8ff" points="205.22,-245.6 213.58,-239.08 202.98,-238.96 205.22,-245.6"/>
</g>
<!-- Node8&#45;&gt;Node3 -->
<g id="edge9" class="edge">
<title>Node8&#45;&gt;Node3</title>
<path fill="none" stroke="#63b8ff" d="M74.7,-219.6C65.65,-207.44 52.09,-184.88 58,-165 60.98,-154.98 67,-145.11 72.79,-137.22"/>
<polygon fill="#63b8ff" stroke="#63b8ff" points="75.63,-139.28 79.06,-129.25 70.13,-134.95 75.63,-139.28"/>
</g>
<!-- Node9 -->
<g id="node9" class="node">
<title>Node9</title>
<g id="a_node9"><a xlink:title=" ">
<polygon fill="#e0e0e0" stroke="#999999" points="111,-184 67,-184 67,-165 111,-165 111,-184"/>
<text text-anchor="middle" x="89" y="-172" font-family="Helvetica,sans-Serif" font-size="10.00">string</text>
</a>
</g>
</g>
<!-- Node8&#45;&gt;Node9 -->
<g id="edge10" class="edge">
<title>Node8&#45;&gt;Node9</title>
<path fill="none" stroke="#63b8ff" d="M83.16,-219.75C84.07,-212.8 85.39,-202.85 86.54,-194.13"/>
<polygon fill="#63b8ff" stroke="#63b8ff" points="90.03,-194.46 87.87,-184.09 83.09,-193.54 90.03,-194.46"/>
</g>
<!-- Node10&#45;&gt;Node4 -->
<g id="edge15" class="edge">
<title>Node10&#45;&gt;Node4</title>
<path fill="none" stroke="#63b8ff" d="M246.15,-219.97C252.77,-211.48 262.15,-197.75 266,-184 275.92,-148.53 259.37,-106.46 247.78,-83.19"/>
<polygon fill="#63b8ff" stroke="#63b8ff" points="250.81,-81.42 243.07,-74.19 244.6,-84.67 250.81,-81.42"/>
</g>
<!-- Node11 -->
<g id="node11" class="node">
<title>Node11</title>
<g id="a_node11"><a xlink:href="../../d5/d22/_c_c_common_8h.html" target="_top" xlink:title=" ">
<polygon fill="white" stroke="#666666" points="257,-184 129,-184 129,-165 257,-165 257,-184"/>
<text text-anchor="middle" x="193" y="-172" font-family="Helvetica,sans-Serif" font-size="10.00">platform/CCCommon.h</text>
</a>
</g>
</g>
<!-- Node10&#45;&gt;Node11 -->
<g id="edge12" class="edge">
<title>Node10&#45;&gt;Node11</title>
<path fill="none" stroke="#63b8ff" d="M231.4,-219.75C224.84,-212.18 215.18,-201.05 207.19,-191.84"/>
<polygon fill="#63b8ff" stroke="#63b8ff" points="209.65,-189.35 200.45,-184.09 204.37,-193.94 209.65,-189.35"/>
</g>
<!-- Node12 -->
<g id="node12" class="node">
<title>Node12</title>
<g id="a_node12"><a xlink:title=" ">
<polygon fill="#e0e0e0" stroke="#999999" points="375,-184 313,-184 313,-165 375,-165 375,-184"/>
<text text-anchor="middle" x="344" y="-172" font-family="Helvetica,sans-Serif" font-size="10.00">CCStdC.h</text>
</a>
</g>
</g>
<!-- Node10&#45;&gt;Node12 -->
<g id="edge14" class="edge">
<title>Node10&#45;&gt;Node12</title>
<path fill="none" stroke="#63b8ff" d="M255.87,-219.98C272.61,-211.54 298.5,-198.47 317.89,-188.68"/>
<polygon fill="#63b8ff" stroke="#63b8ff" points="319.47,-191.8 326.82,-184.17 316.32,-185.55 319.47,-191.8"/>
</g>
<!-- Node11&#45;&gt;Node3 -->
<g id="edge13" class="edge">
<title>Node11&#45;&gt;Node3</title>
<path fill="none" stroke="#63b8ff" d="M175.97,-164.98C159.07,-156.54 132.94,-143.47 113.36,-133.68"/>
<polygon fill="#63b8ff" stroke="#63b8ff" points="114.85,-130.51 104.34,-129.17 111.72,-136.77 114.85,-130.51"/>
</g>
</g>
</svg>
