<?xml version="1.0" encoding="UTF-8" standalone="no"?>
<!DOCTYPE svg PUBLIC "-//W3C//DTD SVG 1.1//EN"
 "http://www.w3.org/Graphics/SVG/1.1/DTD/svg11.dtd">
<!-- Generated by graphviz version 2.43.0 (0)
 -->
<!-- Title: /home/runner/work/cocos2d.h/cocos2d.h/cocos2dx/text_input_node/CCIMEDelegate.h Pages: 1 -->
<svg width="383pt" height="442pt"
 viewBox="0.00 0.00 383.00 442.00" xmlns="http://www.w3.org/2000/svg" xmlns:xlink="http://www.w3.org/1999/xlink">
<g id="graph0" class="graph" transform="scale(1 1) rotate(0) translate(4 438)">
<title>/home/runner/work/cocos2d.h/cocos2d.h/cocos2dx/text_input_node/CCIMEDelegate.h</title>
<!-- Node1 -->
<g id="node1" class="node">
<title>Node1</title>
<g id="a_node1"><a xlink:title=" ">
<polygon fill="#bfbfbf" stroke="black" points="0,-392.5 0,-433.5 164,-433.5 164,-392.5 0,-392.5"/>
<text text-anchor="start" x="8" y="-421.5" font-family="Helvetica,sans-Serif" font-size="10.00">/home/runner/work/cocos2d.h</text>
<text text-anchor="start" x="8" y="-410.5" font-family="Helvetica,sans-Serif" font-size="10.00">/cocos2d.h/cocos2dx/text</text>
<text text-anchor="middle" x="82" y="-399.5" font-family="Helvetica,sans-Serif" font-size="10.00">_input_node/CCIMEDelegate.h</text>
</a>
</g>
</g>
<!-- Node2 -->
<g id="node2" class="node">
<title>Node2</title>
<g id="a_node2"><a xlink:href="../../d6/d09/_c_c_geometry_8h.html" target="_top" xlink:title=" ">
<polygon fill="none" stroke="black" points="23,-336.5 23,-355.5 141,-355.5 141,-336.5 23,-336.5"/>
<text text-anchor="middle" x="82" y="-343.5" font-family="Helvetica,sans-Serif" font-size="10.00">cocoa/CCGeometry.h</text>
</a>
</g>
</g>
<!-- Node1&#45;&gt;Node2 -->
<g id="edge1" class="edge">
<title>Node1&#45;&gt;Node2</title>
<path fill="none" stroke="midnightblue" d="M82,-392.5C82,-384.07 82,-374.24 82,-365.87"/>
<polygon fill="midnightblue" stroke="midnightblue" points="85.5,-365.65 82,-355.65 78.5,-365.65 85.5,-365.65"/>
</g>
<!-- Node3 -->
<g id="node3" class="node">
<title>Node3</title>
<g id="a_node3"><a xlink:href="../../d3/d41/_c_c_platform_macros_8h.html" target="_top" xlink:title=" ">
<polygon fill="none" stroke="black" points="6.5,-112.5 6.5,-131.5 167.5,-131.5 167.5,-112.5 6.5,-112.5"/>
<text text-anchor="middle" x="87" y="-119.5" font-family="Helvetica,sans-Serif" font-size="10.00">platform/CCPlatformMacros.h</text>
</a>
</g>
</g>
<!-- Node2&#45;&gt;Node3 -->
<g id="edge2" class="edge">
<title>Node2&#45;&gt;Node3</title>
<path fill="none" stroke="midnightblue" d="M70.07,-336.41C59.66,-328.25 45,-315.02 37,-300 20.95,-269.88 18.4,-257.27 26,-224 33.6,-190.75 57.12,-158.03 72.63,-139.21"/>
<polygon fill="midnightblue" stroke="midnightblue" points="75.3,-141.48 79.11,-131.59 69.97,-136.94 75.3,-141.48"/>
</g>
<!-- Node7 -->
<g id="node7" class="node">
<title>Node7</title>
<g id="a_node7"><a xlink:href="../../dd/d69/_c_c_object_8h.html" target="_top" xlink:title=" ">
<polygon fill="none" stroke="black" points="46.5,-280.5 46.5,-299.5 117.5,-299.5 117.5,-280.5 46.5,-280.5"/>
<text text-anchor="middle" x="82" y="-287.5" font-family="Helvetica,sans-Serif" font-size="10.00">CCObject.h</text>
</a>
</g>
</g>
<!-- Node2&#45;&gt;Node7 -->
<g id="edge7" class="edge">
<title>Node2&#45;&gt;Node7</title>
<path fill="none" stroke="midnightblue" d="M82,-336.08C82,-329.01 82,-318.86 82,-309.99"/>
<polygon fill="midnightblue" stroke="midnightblue" points="85.5,-309.75 82,-299.75 78.5,-309.75 85.5,-309.75"/>
</g>
<!-- Node13 -->
<g id="node13" class="node">
<title>Node13</title>
<g id="a_node13"><a xlink:title=" ">
<polygon fill="none" stroke="#bfbfbf" points="135.5,-280.5 135.5,-299.5 186.5,-299.5 186.5,-280.5 135.5,-280.5"/>
<text text-anchor="middle" x="161" y="-287.5" font-family="Helvetica,sans-Serif" font-size="10.00">math.h</text>
</a>
</g>
</g>
<!-- Node2&#45;&gt;Node13 -->
<g id="edge16" class="edge">
<title>Node2&#45;&gt;Node13</title>
<path fill="none" stroke="midnightblue" d="M94.69,-336.32C106.9,-327.98 125.58,-315.21 140,-305.35"/>
<polygon fill="midnightblue" stroke="midnightblue" points="142.06,-308.19 148.34,-299.65 138.11,-302.41 142.06,-308.19"/>
</g>
<!-- Node4 -->
<g id="node4" class="node">
<title>Node4</title>
<g id="a_node4"><a xlink:href="../../db/d9f/cc_config_8h.html" target="_top" xlink:title="cocos2d (cc) configuration file">
<polygon fill="none" stroke="black" points="204.5,-56.5 204.5,-75.5 271.5,-75.5 271.5,-56.5 204.5,-56.5"/>
<text text-anchor="middle" x="238" y="-63.5" font-family="Helvetica,sans-Serif" font-size="10.00">ccConfig.h</text>
</a>
</g>
</g>
<!-- Node3&#45;&gt;Node4 -->
<g id="edge3" class="edge">
<title>Node3&#45;&gt;Node4</title>
<path fill="none" stroke="midnightblue" d="M110.93,-112.44C136.22,-103.4 176.3,-89.06 204.68,-78.92"/>
<polygon fill="midnightblue" stroke="midnightblue" points="205.95,-82.18 214.19,-75.52 203.59,-75.59 205.95,-82.18"/>
</g>
<!-- Node5 -->
<g id="node5" class="node">
<title>Node5</title>
<g id="a_node5"><a xlink:href="../../dd/d96/_c_c_platform_config_8h.html" target="_top" xlink:title=" ">
<polygon fill="none" stroke="black" points="62.5,-0.5 62.5,-19.5 219.5,-19.5 219.5,-0.5 62.5,-0.5"/>
<text text-anchor="middle" x="141" y="-7.5" font-family="Helvetica,sans-Serif" font-size="10.00">platform/CCPlatformConfig.h</text>
</a>
</g>
</g>
<!-- Node3&#45;&gt;Node5 -->
<g id="edge5" class="edge">
<title>Node3&#45;&gt;Node5</title>
<path fill="none" stroke="midnightblue" d="M79.29,-112.16C69,-99.23 53.28,-74.69 64,-56 72.62,-40.99 88.39,-30.5 103.43,-23.46"/>
<polygon fill="midnightblue" stroke="midnightblue" points="104.82,-26.67 112.63,-19.51 102.06,-20.24 104.82,-26.67"/>
</g>
<!-- Node6 -->
<g id="node6" class="node">
<title>Node6</title>
<g id="a_node6"><a xlink:title=" ">
<polygon fill="none" stroke="#bfbfbf" points="73.5,-56.5 73.5,-75.5 186.5,-75.5 186.5,-56.5 73.5,-56.5"/>
<text text-anchor="middle" x="130" y="-63.5" font-family="Helvetica,sans-Serif" font-size="10.00">CCPlatformDefine.h</text>
</a>
</g>
</g>
<!-- Node3&#45;&gt;Node6 -->
<g id="edge6" class="edge">
<title>Node3&#45;&gt;Node6</title>
<path fill="none" stroke="midnightblue" d="M94.1,-112.08C100.24,-104.38 109.27,-93.03 116.74,-83.65"/>
<polygon fill="midnightblue" stroke="midnightblue" points="119.54,-85.75 123.03,-75.75 114.06,-81.39 119.54,-85.75"/>
</g>
<!-- Node4&#45;&gt;Node5 -->
<g id="edge4" class="edge">
<title>Node4&#45;&gt;Node5</title>
<path fill="none" stroke="midnightblue" d="M222.42,-56.32C207,-47.74 183.19,-34.49 165.29,-24.52"/>
<polygon fill="midnightblue" stroke="midnightblue" points="166.99,-21.46 156.55,-19.65 163.58,-27.58 166.99,-21.46"/>
</g>
<!-- Node8 -->
<g id="node8" class="node">
<title>Node8</title>
<g id="a_node8"><a xlink:href="../../d9/d2d/_c_c_data_visitor_8h.html" target="_top" xlink:title=" ">
<polygon fill="none" stroke="black" points="35.5,-224.5 35.5,-243.5 128.5,-243.5 128.5,-224.5 35.5,-224.5"/>
<text text-anchor="middle" x="82" y="-231.5" font-family="Helvetica,sans-Serif" font-size="10.00">CCDataVisitor.h</text>
</a>
</g>
</g>
<!-- Node7&#45;&gt;Node8 -->
<g id="edge8" class="edge">
<title>Node7&#45;&gt;Node8</title>
<path fill="none" stroke="midnightblue" d="M82,-280.08C82,-273.01 82,-262.86 82,-253.99"/>
<polygon fill="midnightblue" stroke="midnightblue" points="85.5,-253.75 82,-243.75 78.5,-253.75 85.5,-253.75"/>
</g>
<!-- Node10 -->
<g id="node10" class="node">
<title>Node10</title>
<g id="a_node10"><a xlink:href="../../d9/dc8/cc_macros_8h.html" target="_top" xlink:title=" ">
<polygon fill="none" stroke="black" points="203.5,-224.5 203.5,-243.5 274.5,-243.5 274.5,-224.5 203.5,-224.5"/>
<text text-anchor="middle" x="239" y="-231.5" font-family="Helvetica,sans-Serif" font-size="10.00">ccMacros.h</text>
</a>
</g>
</g>
<!-- Node7&#45;&gt;Node10 -->
<g id="edge11" class="edge">
<title>Node7&#45;&gt;Node10</title>
<path fill="none" stroke="midnightblue" d="M106.88,-280.44C133.29,-271.36 175.22,-256.94 204.74,-246.78"/>
<polygon fill="midnightblue" stroke="midnightblue" points="205.92,-250.08 214.24,-243.52 203.64,-243.46 205.92,-250.08"/>
</g>
<!-- Node8&#45;&gt;Node3 -->
<g id="edge9" class="edge">
<title>Node8&#45;&gt;Node3</title>
<path fill="none" stroke="midnightblue" d="M74.99,-224.3C65.92,-211.94 51.95,-188.54 58,-168 61.01,-157.76 67.15,-147.66 73.01,-139.63"/>
<polygon fill="midnightblue" stroke="midnightblue" points="75.93,-141.58 79.33,-131.54 70.41,-137.27 75.93,-141.58"/>
</g>
<!-- Node9 -->
<g id="node9" class="node">
<title>Node9</title>
<g id="a_node9"><a xlink:title=" ">
<polygon fill="none" stroke="#bfbfbf" points="67,-168.5 67,-187.5 111,-187.5 111,-168.5 67,-168.5"/>
<text text-anchor="middle" x="89" y="-175.5" font-family="Helvetica,sans-Serif" font-size="10.00">string</text>
</a>
</g>
</g>
<!-- Node8&#45;&gt;Node9 -->
<g id="edge10" class="edge">
<title>Node8&#45;&gt;Node9</title>
<path fill="none" stroke="midnightblue" d="M83.16,-224.08C84.08,-216.93 85.42,-206.64 86.58,-197.69"/>
<polygon fill="midnightblue" stroke="midnightblue" points="90.05,-198.12 87.87,-187.75 83.11,-197.22 90.05,-198.12"/>
</g>
<!-- Node10&#45;&gt;Node4 -->
<g id="edge15" class="edge">
<title>Node10&#45;&gt;Node4</title>
<path fill="none" stroke="midnightblue" d="M246.15,-224.36C252.77,-215.76 262.16,-201.87 266,-188 276.08,-151.62 259.27,-108.4 247.64,-84.72"/>
<polygon fill="midnightblue" stroke="midnightblue" points="250.62,-82.85 242.92,-75.57 244.4,-86.06 250.62,-82.85"/>
</g>
<!-- Node11 -->
<g id="node11" class="node">
<title>Node11</title>
<g id="a_node11"><a xlink:href="../../d5/d22/_c_c_common_8h.html" target="_top" xlink:title=" ">
<polygon fill="none" stroke="black" points="129,-168.5 129,-187.5 257,-187.5 257,-168.5 129,-168.5"/>
<text text-anchor="middle" x="193" y="-175.5" font-family="Helvetica,sans-Serif" font-size="10.00">platform/CCCommon.h</text>
</a>
</g>
</g>
<!-- Node10&#45;&gt;Node11 -->
<g id="edge12" class="edge">
<title>Node10&#45;&gt;Node11</title>
<path fill="none" stroke="midnightblue" d="M231.4,-224.08C224.77,-216.3 214.98,-204.8 206.94,-195.37"/>
<polygon fill="midnightblue" stroke="midnightblue" points="209.6,-193.09 200.45,-187.75 204.27,-197.63 209.6,-193.09"/>
</g>
<!-- Node12 -->
<g id="node12" class="node">
<title>Node12</title>
<g id="a_node12"><a xlink:title=" ">
<polygon fill="none" stroke="#bfbfbf" points="313,-168.5 313,-187.5 375,-187.5 375,-168.5 313,-168.5"/>
<text text-anchor="middle" x="344" y="-175.5" font-family="Helvetica,sans-Serif" font-size="10.00">CCStdC.h</text>
</a>
</g>
</g>
<!-- Node10&#45;&gt;Node12 -->
<g id="edge14" class="edge">
<title>Node10&#45;&gt;Node12</title>
<path fill="none" stroke="midnightblue" d="M255.87,-224.32C272.71,-215.66 298.81,-202.24 318.24,-192.25"/>
<polygon fill="midnightblue" stroke="midnightblue" points="319.88,-195.34 327.17,-187.65 316.68,-189.12 319.88,-195.34"/>
</g>
<!-- Node11&#45;&gt;Node3 -->
<g id="edge13" class="edge">
<title>Node11&#45;&gt;Node3</title>
<path fill="none" stroke="midnightblue" d="M175.97,-168.32C158.97,-159.66 132.62,-146.24 113.01,-136.25"/>
<polygon fill="midnightblue" stroke="midnightblue" points="114.49,-133.08 103.99,-131.65 111.31,-139.31 114.49,-133.08"/>
</g>
</g>
</svg>
