<?xml version="1.0" encoding="UTF-8" standalone="no"?>
<!DOCTYPE svg PUBLIC "-//W3C//DTD SVG 1.1//EN"
 "http://www.w3.org/Graphics/SVG/1.1/DTD/svg11.dtd">
<!-- Generated by graphviz version 2.43.0 (0)
 -->
<!-- Title: /home/runner/work/cocos2d.h/cocos2d.h/cocos2dx/platform/winrt/CCStdC.h Pages: 1 -->
<svg width="894pt" height="214pt"
 viewBox="0.00 0.00 893.50 214.00" xmlns="http://www.w3.org/2000/svg" xmlns:xlink="http://www.w3.org/1999/xlink">
<g id="graph0" class="graph" transform="scale(1 1) rotate(0) translate(4 210)">
<title>/home/runner/work/cocos2d.h/cocos2d.h/cocos2dx/platform/winrt/CCStdC.h</title>
<!-- Node1 -->
<g id="node1" class="node">
<title>Node1</title>
<g id="a_node1"><a xlink:title=" ">
<polygon fill="#999999" stroke="#666666" points="557.5,-206 395.5,-206 395.5,-165 557.5,-165 557.5,-206"/>
<text text-anchor="start" x="403.5" y="-194" font-family="Helvetica,sans-Serif" font-size="10.00">/home/runner/work/cocos2d.h</text>
<text text-anchor="start" x="403.5" y="-183" font-family="Helvetica,sans-Serif" font-size="10.00">/cocos2d.h/cocos2dx/platform</text>
<text text-anchor="middle" x="476.5" y="-172" font-family="Helvetica,sans-Serif" font-size="10.00">/winrt/CCStdC.h</text>
</a>
</g>
</g>
<!-- Node2 -->
<g id="node2" class="node">
<title>Node2</title>
<g id="a_node2"><a xlink:href="../../d3/d41/_c_c_platform_macros_8h.html" target="_top" xlink:title=" ">
<polygon fill="white" stroke="#666666" points="190,-129 29,-129 29,-110 190,-110 190,-129"/>
<text text-anchor="middle" x="109.5" y="-117" font-family="Helvetica,sans-Serif" font-size="10.00">platform/CCPlatformMacros.h</text>
</a>
</g>
</g>
<!-- Node1&#45;&gt;Node2 -->
<g id="edge1" class="edge">
<title>Node1&#45;&gt;Node2</title>
<path fill="none" stroke="#63b8ff" d="M395.05,-170.3C326.34,-158.31 229.63,-141.45 168.27,-130.75"/>
<polygon fill="#63b8ff" stroke="#63b8ff" points="168.81,-127.29 158.36,-129.02 167.61,-134.19 168.81,-127.29"/>
</g>
<!-- Node6 -->
<g id="node6" class="node">
<title>Node6</title>
<g id="a_node6"><a xlink:title=" ">
<polygon fill="#e0e0e0" stroke="#999999" points="255,-129 208,-129 208,-110 255,-110 255,-129"/>
<text text-anchor="middle" x="231.5" y="-117" font-family="Helvetica,sans-Serif" font-size="10.00">float.h</text>
</a>
</g>
</g>
<!-- Node1&#45;&gt;Node6 -->
<g id="edge6" class="edge">
<title>Node1&#45;&gt;Node6</title>
<path fill="none" stroke="#63b8ff" d="M401.07,-164.94C362.78,-154.99 315.3,-142.61 265.02,-129.39"/>
<polygon fill="#63b8ff" stroke="#63b8ff" points="265.82,-125.98 255.26,-126.83 264.04,-132.75 265.82,-125.98"/>
</g>
<!-- Node7 -->
<g id="node7" class="node">
<title>Node7</title>
<g id="a_node7"><a xlink:title=" ">
<polygon fill="#e0e0e0" stroke="#999999" points="324,-129 273,-129 273,-110 324,-110 324,-129"/>
<text text-anchor="middle" x="298.5" y="-117" font-family="Helvetica,sans-Serif" font-size="10.00">math.h</text>
</a>
</g>
</g>
<!-- Node1&#45;&gt;Node7 -->
<g id="edge7" class="edge">
<title>Node1&#45;&gt;Node7</title>
<path fill="none" stroke="#63b8ff" d="M422.13,-164.95C392.7,-154.37 357.3,-141.64 331.93,-132.52"/>
<polygon fill="#63b8ff" stroke="#63b8ff" points="332.99,-129.18 322.4,-129.09 330.62,-135.77 332.99,-129.18"/>
</g>
<!-- Node8 -->
<g id="node8" class="node">
<title>Node8</title>
<g id="a_node8"><a xlink:title=" ">
<polygon fill="#e0e0e0" stroke="#999999" points="395,-129 342,-129 342,-110 395,-110 395,-129"/>
<text text-anchor="middle" x="368.5" y="-117" font-family="Helvetica,sans-Serif" font-size="10.00">string.h</text>
</a>
</g>
</g>
<!-- Node1&#45;&gt;Node8 -->
<g id="edge8" class="edge">
<title>Node1&#45;&gt;Node8</title>
<path fill="none" stroke="#63b8ff" d="M443.51,-164.95C426.76,-155.03 406.82,-143.21 391.71,-134.25"/>
<polygon fill="#63b8ff" stroke="#63b8ff" points="393.39,-131.18 383,-129.09 389.82,-137.2 393.39,-131.18"/>
</g>
<!-- Node9 -->
<g id="node9" class="node">
<title>Node9</title>
<g id="a_node9"><a xlink:title=" ">
<polygon fill="#e0e0e0" stroke="#999999" points="469.5,-129 413.5,-129 413.5,-110 469.5,-110 469.5,-129"/>
<text text-anchor="middle" x="441.5" y="-117" font-family="Helvetica,sans-Serif" font-size="10.00">stdarg.h</text>
</a>
</g>
</g>
<!-- Node1&#45;&gt;Node9 -->
<g id="edge9" class="edge">
<title>Node1&#45;&gt;Node9</title>
<path fill="none" stroke="#63b8ff" d="M465.81,-164.95C461.13,-156.39 455.68,-146.42 451.12,-138.1"/>
<polygon fill="#63b8ff" stroke="#63b8ff" points="454.16,-136.35 446.29,-129.26 448.02,-139.71 454.16,-136.35"/>
</g>
<!-- Node10 -->
<g id="node10" class="node">
<title>Node10</title>
<g id="a_node10"><a xlink:title=" ">
<polygon fill="#e0e0e0" stroke="#999999" points="537.5,-129 487.5,-129 487.5,-110 537.5,-110 537.5,-129"/>
<text text-anchor="middle" x="512.5" y="-117" font-family="Helvetica,sans-Serif" font-size="10.00">stdio.h</text>
</a>
</g>
</g>
<!-- Node1&#45;&gt;Node10 -->
<g id="edge10" class="edge">
<title>Node1&#45;&gt;Node10</title>
<path fill="none" stroke="#63b8ff" d="M487.5,-164.95C492.31,-156.39 497.92,-146.42 502.6,-138.1"/>
<polygon fill="#63b8ff" stroke="#63b8ff" points="505.72,-139.69 507.57,-129.26 499.62,-136.26 505.72,-139.69"/>
</g>
<!-- Node11 -->
<g id="node11" class="node">
<title>Node11</title>
<g id="a_node11"><a xlink:title=" ">
<polygon fill="#e0e0e0" stroke="#999999" points="609,-129 556,-129 556,-110 609,-110 609,-129"/>
<text text-anchor="middle" x="582.5" y="-117" font-family="Helvetica,sans-Serif" font-size="10.00">stdlib.h</text>
</a>
</g>
</g>
<!-- Node1&#45;&gt;Node11 -->
<g id="edge11" class="edge">
<title>Node1&#45;&gt;Node11</title>
<path fill="none" stroke="#63b8ff" d="M508.88,-164.95C525.16,-155.12 544.52,-143.43 559.3,-134.51"/>
<polygon fill="#63b8ff" stroke="#63b8ff" points="561.52,-137.26 568.27,-129.09 557.9,-131.26 561.52,-137.26"/>
</g>
<!-- Node12 -->
<g id="node12" class="node">
<title>Node12</title>
<g id="a_node12"><a xlink:title=" ">
<polygon fill="#e0e0e0" stroke="#999999" points="675.5,-129 627.5,-129 627.5,-110 675.5,-110 675.5,-129"/>
<text text-anchor="middle" x="651.5" y="-117" font-family="Helvetica,sans-Serif" font-size="10.00">time.h</text>
</a>
</g>
</g>
<!-- Node1&#45;&gt;Node12 -->
<g id="edge12" class="edge">
<title>Node1&#45;&gt;Node12</title>
<path fill="none" stroke="#63b8ff" d="M529.96,-164.95C558.76,-154.42 593.39,-141.75 618.3,-132.64"/>
<polygon fill="#63b8ff" stroke="#63b8ff" points="619.82,-135.81 628.01,-129.09 617.41,-129.24 619.82,-135.81"/>
</g>
<!-- Node13 -->
<g id="node13" class="node">
<title>Node13</title>
<g id="a_node13"><a xlink:href="../../db/de0/winrt_2compat_2stdint_8h.html" target="_top" xlink:title=" ">
<polygon fill="white" stroke="#666666" points="793,-129 694,-129 694,-110 793,-110 793,-129"/>
<text text-anchor="middle" x="743.5" y="-117" font-family="Helvetica,sans-Serif" font-size="10.00">./compat/stdint.h</text>
</a>
</g>
</g>
<!-- Node1&#45;&gt;Node13 -->
<g id="edge13" class="edge">
<title>Node1&#45;&gt;Node13</title>
<path fill="none" stroke="#63b8ff" d="M557.7,-165.04C603.75,-154 659.67,-140.59 698.05,-131.39"/>
<polygon fill="#63b8ff" stroke="#63b8ff" points="699,-134.77 707.91,-129.03 697.37,-127.96 699,-134.77"/>
</g>
<!-- Node16 -->
<g id="node16" class="node">
<title>Node16</title>
<g id="a_node16"><a xlink:title=" ">
<polygon fill="#e0e0e0" stroke="#999999" points="885.5,-129 811.5,-129 811.5,-110 885.5,-110 885.5,-129"/>
<text text-anchor="middle" x="848.5" y="-117" font-family="Helvetica,sans-Serif" font-size="10.00">WinSock2.h</text>
</a>
</g>
</g>
<!-- Node1&#45;&gt;Node16 -->
<g id="edge16" class="edge">
<title>Node1&#45;&gt;Node16</title>
<path fill="none" stroke="#63b8ff" d="M557.61,-171.02C621.22,-160.37 712.26,-144.96 801.34,-129.19"/>
<polygon fill="#63b8ff" stroke="#63b8ff" points="802.12,-132.6 811.35,-127.41 800.89,-125.71 802.12,-132.6"/>
</g>
<!-- Node3 -->
<g id="node3" class="node">
<title>Node3</title>
<g id="a_node3"><a xlink:href="../../db/d9f/cc_config_8h.html" target="_top" xlink:title="cocos2d (cc) configuration file">
<polygon fill="white" stroke="#666666" points="81,-74 14,-74 14,-55 81,-55 81,-74"/>
<text text-anchor="middle" x="47.5" y="-62" font-family="Helvetica,sans-Serif" font-size="10.00">ccConfig.h</text>
</a>
</g>
</g>
<!-- Node2&#45;&gt;Node3 -->
<g id="edge2" class="edge">
<title>Node2&#45;&gt;Node3</title>
<path fill="none" stroke="#63b8ff" d="M99.54,-109.98C90.37,-102.15 76.56,-90.34 65.47,-80.86"/>
<polygon fill="#63b8ff" stroke="#63b8ff" points="67.52,-78.01 57.64,-74.17 62.97,-83.33 67.52,-78.01"/>
</g>
<!-- Node4 -->
<g id="node4" class="node">
<title>Node4</title>
<g id="a_node4"><a xlink:href="../../dd/d96/_c_c_platform_config_8h.html" target="_top" xlink:title=" ">
<polygon fill="white" stroke="#666666" points="157,-19 0,-19 0,0 157,0 157,-19"/>
<text text-anchor="middle" x="78.5" y="-7" font-family="Helvetica,sans-Serif" font-size="10.00">platform/CCPlatformConfig.h</text>
</a>
</g>
</g>
<!-- Node2&#45;&gt;Node4 -->
<g id="edge4" class="edge">
<title>Node2&#45;&gt;Node4</title>
<path fill="none" stroke="#63b8ff" d="M106.96,-109.66C101.92,-92.09 90.54,-52.45 83.8,-28.95"/>
<polygon fill="#63b8ff" stroke="#63b8ff" points="87.11,-27.8 80.99,-19.16 80.38,-29.74 87.11,-27.8"/>
</g>
<!-- Node5 -->
<g id="node5" class="node">
<title>Node5</title>
<g id="a_node5"><a xlink:title=" ">
<polygon fill="#e0e0e0" stroke="#999999" points="251,-74 138,-74 138,-55 251,-55 251,-74"/>
<text text-anchor="middle" x="194.5" y="-62" font-family="Helvetica,sans-Serif" font-size="10.00">CCPlatformDefine.h</text>
</a>
</g>
</g>
<!-- Node2&#45;&gt;Node5 -->
<g id="edge5" class="edge">
<title>Node2&#45;&gt;Node5</title>
<path fill="none" stroke="#63b8ff" d="M123.16,-109.98C136.34,-101.77 156.53,-89.18 172.07,-79.49"/>
<polygon fill="#63b8ff" stroke="#63b8ff" points="173.96,-82.43 180.59,-74.17 170.26,-76.49 173.96,-82.43"/>
</g>
<!-- Node3&#45;&gt;Node4 -->
<g id="edge3" class="edge">
<title>Node3&#45;&gt;Node4</title>
<path fill="none" stroke="#63b8ff" d="M52.62,-54.75C56.86,-47.49 63.03,-36.95 68.28,-27.98"/>
<polygon fill="#63b8ff" stroke="#63b8ff" points="71.45,-29.49 73.48,-19.09 65.41,-25.95 71.45,-29.49"/>
</g>
<!-- Node14 -->
<g id="node14" class="node">
<title>Node14</title>
<g id="a_node14"><a xlink:title=" ">
<polygon fill="#e0e0e0" stroke="#999999" points="734,-74 681,-74 681,-55 734,-55 734,-74"/>
<text text-anchor="middle" x="707.5" y="-62" font-family="Helvetica,sans-Serif" font-size="10.00">limits.h</text>
</a>
</g>
</g>
<!-- Node13&#45;&gt;Node14 -->
<g id="edge14" class="edge">
<title>Node13&#45;&gt;Node14</title>
<path fill="none" stroke="#63b8ff" d="M737.56,-109.75C732.52,-102.34 725.16,-91.5 718.99,-82.41"/>
<polygon fill="#63b8ff" stroke="#63b8ff" points="721.85,-80.39 713.33,-74.09 716.06,-84.33 721.85,-80.39"/>
</g>
<!-- Node15 -->
<g id="node15" class="node">
<title>Node15</title>
<g id="a_node15"><a xlink:title=" ">
<polygon fill="#e0e0e0" stroke="#999999" points="806.5,-74 752.5,-74 752.5,-55 806.5,-55 806.5,-74"/>
<text text-anchor="middle" x="779.5" y="-62" font-family="Helvetica,sans-Serif" font-size="10.00">wchar.h</text>
</a>
</g>
</g>
<!-- Node13&#45;&gt;Node15 -->
<g id="edge15" class="edge">
<title>Node13&#45;&gt;Node15</title>
<path fill="none" stroke="#63b8ff" d="M749.44,-109.75C754.48,-102.34 761.84,-91.5 768.01,-82.41"/>
<polygon fill="#63b8ff" stroke="#63b8ff" points="770.94,-84.33 773.67,-74.09 765.15,-80.39 770.94,-84.33"/>
</g>
</g>
</svg>
