<?xml version="1.0" encoding="UTF-8" standalone="no"?>
<!DOCTYPE svg PUBLIC "-//W3C//DTD SVG 1.1//EN"
 "http://www.w3.org/Graphics/SVG/1.1/DTD/svg11.dtd">
<!-- Generated by graphviz version 2.43.0 (0)
 -->
<!-- Title: /home/runner/work/cocos2d.h/cocos2d.h/cocos2dx/platform/winrt/CCGL_Angle.h Pages: 1 -->
<svg width="425pt" height="126pt"
 viewBox="0.00 0.00 425.00 126.00" xmlns="http://www.w3.org/2000/svg" xmlns:xlink="http://www.w3.org/1999/xlink">
<g id="graph0" class="graph" transform="scale(1 1) rotate(0) translate(4 122)">
<title>/home/runner/work/cocos2d.h/cocos2d.h/cocos2dx/platform/winrt/CCGL_Angle.h</title>
<!-- Node1 -->
<g id="node1" class="node">
<title>Node1</title>
<g id="a_node1"><a xlink:title=" ">
<polygon fill="#999999" stroke="#666666" points="277.5,-118 115.5,-118 115.5,-77 277.5,-77 277.5,-118"/>
<text text-anchor="start" x="123.5" y="-106" font-family="Helvetica,sans-Serif" font-size="10.00">/home/runner/work/cocos2d.h</text>
<text text-anchor="start" x="123.5" y="-95" font-family="Helvetica,sans-Serif" font-size="10.00">/cocos2d.h/cocos2dx/platform</text>
<text text-anchor="middle" x="196.5" y="-84" font-family="Helvetica,sans-Serif" font-size="10.00">/winrt/CCGL_Angle.h</text>
</a>
</g>
</g>
<!-- Node2 -->
<g id="node2" class="node">
<title>Node2</title>
<g id="a_node2"><a xlink:title=" ">
<polygon fill="#e0e0e0" stroke="#999999" points="119,-41 0,-41 0,0 119,0 119,-41"/>
<text text-anchor="start" x="8" y="-29" font-family="Helvetica,sans-Serif" font-size="10.00">../third_party/winrt</text>
<text text-anchor="start" x="8" y="-18" font-family="Helvetica,sans-Serif" font-size="10.00">/angleproject/include</text>
<text text-anchor="middle" x="59.5" y="-7" font-family="Helvetica,sans-Serif" font-size="10.00">/GLES2/gl2.h</text>
</a>
</g>
</g>
<!-- Node1&#45;&gt;Node2 -->
<g id="edge1" class="edge">
<title>Node1&#45;&gt;Node2</title>
<path fill="none" stroke="#63b8ff" d="M160.86,-76.99C143.56,-67.52 122.58,-56.03 104.22,-45.98"/>
<polygon fill="#63b8ff" stroke="#63b8ff" points="105.89,-42.9 95.43,-41.17 102.53,-49.04 105.89,-42.9"/>
</g>
<!-- Node3 -->
<g id="node3" class="node">
<title>Node3</title>
<g id="a_node3"><a xlink:title=" ">
<polygon fill="#e0e0e0" stroke="#999999" points="256,-41 137,-41 137,0 256,0 256,-41"/>
<text text-anchor="start" x="145" y="-29" font-family="Helvetica,sans-Serif" font-size="10.00">../third_party/winrt</text>
<text text-anchor="start" x="145" y="-18" font-family="Helvetica,sans-Serif" font-size="10.00">/angleproject/include</text>
<text text-anchor="middle" x="196.5" y="-7" font-family="Helvetica,sans-Serif" font-size="10.00">/GLES2/gl2ext.h</text>
</a>
</g>
</g>
<!-- Node1&#45;&gt;Node3 -->
<g id="edge2" class="edge">
<title>Node1&#45;&gt;Node3</title>
<path fill="none" stroke="#63b8ff" d="M196.5,-76.79C196.5,-68.96 196.5,-59.77 196.5,-51.16"/>
<polygon fill="#63b8ff" stroke="#63b8ff" points="200,-51.07 196.5,-41.07 193,-51.07 200,-51.07"/>
</g>
<!-- Node4 -->
<g id="node4" class="node">
<title>Node4</title>
<g id="a_node4"><a xlink:title=" ">
<polygon fill="#e0e0e0" stroke="#999999" points="417,-41 274,-41 274,0 417,0 417,-41"/>
<text text-anchor="start" x="282" y="-29" font-family="Helvetica,sans-Serif" font-size="10.00">../third_party/winrt</text>
<text text-anchor="start" x="282" y="-18" font-family="Helvetica,sans-Serif" font-size="10.00">/angleproject/src/common</text>
<text text-anchor="middle" x="345.5" y="-7" font-family="Helvetica,sans-Serif" font-size="10.00">/winrtangle.h</text>
</a>
</g>
</g>
<!-- Node1&#45;&gt;Node4 -->
<g id="edge3" class="edge">
<title>Node1&#45;&gt;Node4</title>
<path fill="none" stroke="#63b8ff" d="M235.26,-76.99C254.33,-67.39 277.49,-55.73 297.65,-45.59"/>
<polygon fill="#63b8ff" stroke="#63b8ff" points="299.32,-48.66 306.68,-41.04 296.17,-42.41 299.32,-48.66"/>
</g>
</g>
</svg>
