<?xml version="1.0" encoding="UTF-8" standalone="no"?>
<!DOCTYPE svg PUBLIC "-//W3C//DTD SVG 1.1//EN"
 "http://www.w3.org/Graphics/SVG/1.1/DTD/svg11.dtd">
<!-- Generated by graphviz version 2.43.0 (0)
 -->
<!-- Title: /home/runner/work/cocos2d.h/cocos2d.h/cocos2dx/cocoa/CCGeometry.h Pages: 1 -->
<svg width="382pt" height="379pt"
 viewBox="0.00 0.00 381.50 379.00" xmlns="http://www.w3.org/2000/svg" xmlns:xlink="http://www.w3.org/1999/xlink">
<g id="graph0" class="graph" transform="scale(1 1) rotate(0) translate(4 375)">
<title>/home/runner/work/cocos2d.h/cocos2d.h/cocos2dx/cocoa/CCGeometry.h</title>
<!-- Node1 -->
<g id="node1" class="node">
<title>Node1</title>
<g id="a_node1"><a xlink:title=" ">
<polygon fill="#999999" stroke="#666666" points="161,-371 0,-371 0,-330 161,-330 161,-371"/>
<text text-anchor="start" x="8" y="-359" font-family="Helvetica,sans-Serif" font-size="10.00">/home/runner/work/cocos2d.h</text>
<text text-anchor="start" x="8" y="-348" font-family="Helvetica,sans-Serif" font-size="10.00">/cocos2d.h/cocos2dx/cocoa</text>
<text text-anchor="middle" x="80.5" y="-337" font-family="Helvetica,sans-Serif" font-size="10.00">/CCGeometry.h</text>
</a>
</g>
</g>
<!-- Node2 -->
<g id="node2" class="node">
<title>Node2</title>
<g id="a_node2"><a xlink:href="../../d3/d41/_c_c_platform_macros_8h.html" target="_top" xlink:title=" ">
<polygon fill="white" stroke="#666666" points="166,-129 5,-129 5,-110 166,-110 166,-129"/>
<text text-anchor="middle" x="85.5" y="-117" font-family="Helvetica,sans-Serif" font-size="10.00">platform/CCPlatformMacros.h</text>
</a>
</g>
</g>
<!-- Node1&#45;&gt;Node2 -->
<g id="edge1" class="edge">
<title>Node1&#45;&gt;Node2</title>
<path fill="none" stroke="#63b8ff" d="M60.57,-329.8C51.6,-319.86 41.67,-307.14 35.5,-294 21.36,-263.91 16.98,-252.39 24.5,-220 32.06,-187.46 55.19,-155.56 70.69,-136.97"/>
<polygon fill="#63b8ff" stroke="#63b8ff" points="73.52,-139.06 77.39,-129.2 68.21,-134.49 73.52,-139.06"/>
</g>
<!-- Node6 -->
<g id="node6" class="node">
<title>Node6</title>
<g id="a_node6"><a xlink:href="../../dd/d69/_c_c_object_8h.html" target="_top" xlink:title=" ">
<polygon fill="white" stroke="#666666" points="116,-294 45,-294 45,-275 116,-275 116,-294"/>
<text text-anchor="middle" x="80.5" y="-282" font-family="Helvetica,sans-Serif" font-size="10.00">CCObject.h</text>
</a>
</g>
</g>
<!-- Node1&#45;&gt;Node6 -->
<g id="edge6" class="edge">
<title>Node1&#45;&gt;Node6</title>
<path fill="none" stroke="#63b8ff" d="M80.5,-329.95C80.5,-321.85 80.5,-312.5 80.5,-304.47"/>
<polygon fill="#63b8ff" stroke="#63b8ff" points="84,-304.26 80.5,-294.26 77,-304.26 84,-304.26"/>
</g>
<!-- Node12 -->
<g id="node12" class="node">
<title>Node12</title>
<g id="a_node12"><a xlink:title=" ">
<polygon fill="#e0e0e0" stroke="#999999" points="185,-294 134,-294 134,-275 185,-275 185,-294"/>
<text text-anchor="middle" x="159.5" y="-282" font-family="Helvetica,sans-Serif" font-size="10.00">math.h</text>
</a>
</g>
</g>
<!-- Node1&#45;&gt;Node12 -->
<g id="edge15" class="edge">
<title>Node1&#45;&gt;Node12</title>
<path fill="none" stroke="#63b8ff" d="M104.63,-329.95C116.23,-320.55 129.93,-309.46 140.73,-300.7"/>
<polygon fill="#63b8ff" stroke="#63b8ff" points="143.12,-303.27 148.69,-294.26 138.71,-297.84 143.12,-303.27"/>
</g>
<!-- Node3 -->
<g id="node3" class="node">
<title>Node3</title>
<g id="a_node3"><a xlink:href="../../db/d9f/cc_config_8h.html" target="_top" xlink:title="cocos2d (cc) configuration file">
<polygon fill="white" stroke="#666666" points="270,-74 203,-74 203,-55 270,-55 270,-74"/>
<text text-anchor="middle" x="236.5" y="-62" font-family="Helvetica,sans-Serif" font-size="10.00">ccConfig.h</text>
</a>
</g>
</g>
<!-- Node2&#45;&gt;Node3 -->
<g id="edge2" class="edge">
<title>Node2&#45;&gt;Node3</title>
<path fill="none" stroke="#63b8ff" d="M109.76,-109.98C134.82,-101.19 174.13,-87.39 202.33,-77.49"/>
<polygon fill="#63b8ff" stroke="#63b8ff" points="203.52,-80.78 211.8,-74.17 201.2,-74.18 203.52,-80.78"/>
</g>
<!-- Node4 -->
<g id="node4" class="node">
<title>Node4</title>
<g id="a_node4"><a xlink:href="../../dd/d96/_c_c_platform_config_8h.html" target="_top" xlink:title=" ">
<polygon fill="white" stroke="#666666" points="218,-19 61,-19 61,0 218,0 218,-19"/>
<text text-anchor="middle" x="139.5" y="-7" font-family="Helvetica,sans-Serif" font-size="10.00">platform/CCPlatformConfig.h</text>
</a>
</g>
</g>
<!-- Node2&#45;&gt;Node4 -->
<g id="edge4" class="edge">
<title>Node2&#45;&gt;Node4</title>
<path fill="none" stroke="#63b8ff" d="M77.83,-109.87C67.61,-97.25 51.95,-73.28 62.5,-55 70.92,-40.41 86.15,-30.17 100.85,-23.23"/>
<polygon fill="#63b8ff" stroke="#63b8ff" points="102.57,-26.3 110.36,-19.13 99.79,-19.87 102.57,-26.3"/>
</g>
<!-- Node5 -->
<g id="node5" class="node">
<title>Node5</title>
<g id="a_node5"><a xlink:title=" ">
<polygon fill="#e0e0e0" stroke="#999999" points="185,-74 72,-74 72,-55 185,-55 185,-74"/>
<text text-anchor="middle" x="128.5" y="-62" font-family="Helvetica,sans-Serif" font-size="10.00">CCPlatformDefine.h</text>
</a>
</g>
</g>
<!-- Node2&#45;&gt;Node5 -->
<g id="edge5" class="edge">
<title>Node2&#45;&gt;Node5</title>
<path fill="none" stroke="#63b8ff" d="M92.6,-109.75C98.67,-102.26 107.59,-91.28 115.01,-82.13"/>
<polygon fill="#63b8ff" stroke="#63b8ff" points="117.95,-84.06 121.53,-74.09 112.51,-79.65 117.95,-84.06"/>
</g>
<!-- Node3&#45;&gt;Node4 -->
<g id="edge3" class="edge">
<title>Node3&#45;&gt;Node4</title>
<path fill="none" stroke="#63b8ff" d="M220.92,-54.98C205.73,-46.69 182.4,-33.94 164.6,-24.22"/>
<polygon fill="#63b8ff" stroke="#63b8ff" points="165.82,-20.89 155.37,-19.17 162.47,-27.04 165.82,-20.89"/>
</g>
<!-- Node7 -->
<g id="node7" class="node">
<title>Node7</title>
<g id="a_node7"><a xlink:href="../../d9/d2d/_c_c_data_visitor_8h.html" target="_top" xlink:title=" ">
<polygon fill="white" stroke="#666666" points="127,-239 34,-239 34,-220 127,-220 127,-239"/>
<text text-anchor="middle" x="80.5" y="-227" font-family="Helvetica,sans-Serif" font-size="10.00">CCDataVisitor.h</text>
</a>
</g>
</g>
<!-- Node6&#45;&gt;Node7 -->
<g id="edge7" class="edge">
<title>Node6&#45;&gt;Node7</title>
<path fill="none" stroke="#63b8ff" d="M80.5,-274.75C80.5,-267.8 80.5,-257.85 80.5,-249.13"/>
<polygon fill="#63b8ff" stroke="#63b8ff" points="84,-249.09 80.5,-239.09 77,-249.09 84,-249.09"/>
</g>
<!-- Node9 -->
<g id="node9" class="node">
<title>Node9</title>
<g id="a_node9"><a xlink:href="../../d9/dc8/cc_macros_8h.html" target="_top" xlink:title=" ">
<polygon fill="white" stroke="#666666" points="273,-239 202,-239 202,-220 273,-220 273,-239"/>
<text text-anchor="middle" x="237.5" y="-227" font-family="Helvetica,sans-Serif" font-size="10.00">ccMacros.h</text>
</a>
</g>
</g>
<!-- Node6&#45;&gt;Node9 -->
<g id="edge10" class="edge">
<title>Node6&#45;&gt;Node9</title>
<path fill="none" stroke="#63b8ff" d="M105.72,-274.98C131.86,-266.16 172.9,-252.31 202.23,-242.41"/>
<polygon fill="#63b8ff" stroke="#63b8ff" points="203.72,-245.6 212.08,-239.08 201.48,-238.96 203.72,-245.6"/>
</g>
<!-- Node7&#45;&gt;Node2 -->
<g id="edge8" class="edge">
<title>Node7&#45;&gt;Node2</title>
<path fill="none" stroke="#63b8ff" d="M73.2,-219.6C64.15,-207.44 50.59,-184.88 56.5,-165 59.48,-154.98 65.5,-145.11 71.29,-137.22"/>
<polygon fill="#63b8ff" stroke="#63b8ff" points="74.13,-139.28 77.56,-129.25 68.63,-134.95 74.13,-139.28"/>
</g>
<!-- Node8 -->
<g id="node8" class="node">
<title>Node8</title>
<g id="a_node8"><a xlink:title=" ">
<polygon fill="#e0e0e0" stroke="#999999" points="109.5,-184 65.5,-184 65.5,-165 109.5,-165 109.5,-184"/>
<text text-anchor="middle" x="87.5" y="-172" font-family="Helvetica,sans-Serif" font-size="10.00">string</text>
</a>
</g>
</g>
<!-- Node7&#45;&gt;Node8 -->
<g id="edge9" class="edge">
<title>Node7&#45;&gt;Node8</title>
<path fill="none" stroke="#63b8ff" d="M81.66,-219.75C82.57,-212.8 83.89,-202.85 85.04,-194.13"/>
<polygon fill="#63b8ff" stroke="#63b8ff" points="88.53,-194.46 86.37,-184.09 81.59,-193.54 88.53,-194.46"/>
</g>
<!-- Node9&#45;&gt;Node3 -->
<g id="edge14" class="edge">
<title>Node9&#45;&gt;Node3</title>
<path fill="none" stroke="#63b8ff" d="M244.65,-219.97C251.27,-211.48 260.65,-197.75 264.5,-184 274.42,-148.53 257.87,-106.46 246.28,-83.19"/>
<polygon fill="#63b8ff" stroke="#63b8ff" points="249.31,-81.42 241.57,-74.19 243.1,-84.67 249.31,-81.42"/>
</g>
<!-- Node10 -->
<g id="node10" class="node">
<title>Node10</title>
<g id="a_node10"><a xlink:href="../../d5/d22/_c_c_common_8h.html" target="_top" xlink:title=" ">
<polygon fill="white" stroke="#666666" points="255.5,-184 127.5,-184 127.5,-165 255.5,-165 255.5,-184"/>
<text text-anchor="middle" x="191.5" y="-172" font-family="Helvetica,sans-Serif" font-size="10.00">platform/CCCommon.h</text>
</a>
</g>
</g>
<!-- Node9&#45;&gt;Node10 -->
<g id="edge11" class="edge">
<title>Node9&#45;&gt;Node10</title>
<path fill="none" stroke="#63b8ff" d="M229.9,-219.75C223.34,-212.18 213.68,-201.05 205.69,-191.84"/>
<polygon fill="#63b8ff" stroke="#63b8ff" points="208.15,-189.35 198.95,-184.09 202.87,-193.94 208.15,-189.35"/>
</g>
<!-- Node11 -->
<g id="node11" class="node">
<title>Node11</title>
<g id="a_node11"><a xlink:title=" ">
<polygon fill="#e0e0e0" stroke="#999999" points="373.5,-184 311.5,-184 311.5,-165 373.5,-165 373.5,-184"/>
<text text-anchor="middle" x="342.5" y="-172" font-family="Helvetica,sans-Serif" font-size="10.00">CCStdC.h</text>
</a>
</g>
</g>
<!-- Node9&#45;&gt;Node11 -->
<g id="edge13" class="edge">
<title>Node9&#45;&gt;Node11</title>
<path fill="none" stroke="#63b8ff" d="M254.37,-219.98C271.11,-211.54 297,-198.47 316.39,-188.68"/>
<polygon fill="#63b8ff" stroke="#63b8ff" points="317.97,-191.8 325.32,-184.17 314.82,-185.55 317.97,-191.8"/>
</g>
<!-- Node10&#45;&gt;Node2 -->
<g id="edge12" class="edge">
<title>Node10&#45;&gt;Node2</title>
<path fill="none" stroke="#63b8ff" d="M174.47,-164.98C157.57,-156.54 131.44,-143.47 111.86,-133.68"/>
<polygon fill="#63b8ff" stroke="#63b8ff" points="113.35,-130.51 102.84,-129.17 110.22,-136.77 113.35,-130.51"/>
</g>
</g>
</svg>
