<?xml version="1.0" encoding="UTF-8" standalone="no"?>
<!DOCTYPE svg PUBLIC "-//W3C//DTD SVG 1.1//EN"
 "http://www.w3.org/Graphics/SVG/1.1/DTD/svg11.dtd">
<!-- Generated by graphviz version 2.43.0 (0)
 -->
<!-- Title: /home/runner/work/cocos2d.h/cocos2d.h/cocos2dx/cocoa/CCGeometry.h Pages: 1 -->
<svg width="382pt" height="386pt"
 viewBox="0.00 0.00 381.50 386.00" xmlns="http://www.w3.org/2000/svg" xmlns:xlink="http://www.w3.org/1999/xlink">
<g id="graph0" class="graph" transform="scale(1 1) rotate(0) translate(4 382)">
<title>/home/runner/work/cocos2d.h/cocos2d.h/cocos2dx/cocoa/CCGeometry.h</title>
<!-- Node1 -->
<g id="node1" class="node">
<title>Node1</title>
<g id="a_node1"><a xlink:title=" ">
<polygon fill="#bfbfbf" stroke="black" points="0,-336.5 0,-377.5 161,-377.5 161,-336.5 0,-336.5"/>
<text text-anchor="start" x="8" y="-365.5" font-family="Helvetica,sans-Serif" font-size="10.00">/home/runner/work/cocos2d.h</text>
<text text-anchor="start" x="8" y="-354.5" font-family="Helvetica,sans-Serif" font-size="10.00">/cocos2d.h/cocos2dx/cocoa</text>
<text text-anchor="middle" x="80.5" y="-343.5" font-family="Helvetica,sans-Serif" font-size="10.00">/CCGeometry.h</text>
</a>
</g>
</g>
<!-- Node2 -->
<g id="node2" class="node">
<title>Node2</title>
<g id="a_node2"><a xlink:href="../../d3/d41/_c_c_platform_macros_8h.html" target="_top" xlink:title=" ">
<polygon fill="none" stroke="black" points="5,-112.5 5,-131.5 166,-131.5 166,-112.5 5,-112.5"/>
<text text-anchor="middle" x="85.5" y="-119.5" font-family="Helvetica,sans-Serif" font-size="10.00">platform/CCPlatformMacros.h</text>
</a>
</g>
</g>
<!-- Node1&#45;&gt;Node2 -->
<g id="edge1" class="edge">
<title>Node1&#45;&gt;Node2</title>
<path fill="none" stroke="midnightblue" d="M60.78,-336.36C51.75,-326.28 41.71,-313.34 35.5,-300 21.1,-269.06 16.9,-257.27 24.5,-224 32.1,-190.75 55.62,-158.03 71.13,-139.21"/>
<polygon fill="midnightblue" stroke="midnightblue" points="73.8,-141.48 77.61,-131.59 68.47,-136.94 73.8,-141.48"/>
</g>
<!-- Node6 -->
<g id="node6" class="node">
<title>Node6</title>
<g id="a_node6"><a xlink:href="../../dd/d69/_c_c_object_8h.html" target="_top" xlink:title=" ">
<polygon fill="none" stroke="black" points="45,-280.5 45,-299.5 116,-299.5 116,-280.5 45,-280.5"/>
<text text-anchor="middle" x="80.5" y="-287.5" font-family="Helvetica,sans-Serif" font-size="10.00">CCObject.h</text>
</a>
</g>
</g>
<!-- Node1&#45;&gt;Node6 -->
<g id="edge6" class="edge">
<title>Node1&#45;&gt;Node6</title>
<path fill="none" stroke="midnightblue" d="M80.5,-336.5C80.5,-328.07 80.5,-318.24 80.5,-309.87"/>
<polygon fill="midnightblue" stroke="midnightblue" points="84,-309.65 80.5,-299.65 77,-309.65 84,-309.65"/>
</g>
<!-- Node12 -->
<g id="node12" class="node">
<title>Node12</title>
<g id="a_node12"><a xlink:title=" ">
<polygon fill="none" stroke="#bfbfbf" points="134,-280.5 134,-299.5 185,-299.5 185,-280.5 134,-280.5"/>
<text text-anchor="middle" x="159.5" y="-287.5" font-family="Helvetica,sans-Serif" font-size="10.00">math.h</text>
</a>
</g>
</g>
<!-- Node1&#45;&gt;Node12 -->
<g id="edge15" class="edge">
<title>Node1&#45;&gt;Node12</title>
<path fill="none" stroke="midnightblue" d="M104.2,-336.5C116.08,-326.72 130.24,-315.07 141.26,-306.01"/>
<polygon fill="midnightblue" stroke="midnightblue" points="143.49,-308.71 148.98,-299.65 139.04,-303.3 143.49,-308.71"/>
</g>
<!-- Node3 -->
<g id="node3" class="node">
<title>Node3</title>
<g id="a_node3"><a xlink:href="../../db/d9f/cc_config_8h.html" target="_top" xlink:title="cocos2d (cc) configuration file">
<polygon fill="none" stroke="black" points="203,-56.5 203,-75.5 270,-75.5 270,-56.5 203,-56.5"/>
<text text-anchor="middle" x="236.5" y="-63.5" font-family="Helvetica,sans-Serif" font-size="10.00">ccConfig.h</text>
</a>
</g>
</g>
<!-- Node2&#45;&gt;Node3 -->
<g id="edge2" class="edge">
<title>Node2&#45;&gt;Node3</title>
<path fill="none" stroke="midnightblue" d="M109.43,-112.44C134.72,-103.4 174.8,-89.06 203.18,-78.92"/>
<polygon fill="midnightblue" stroke="midnightblue" points="204.45,-82.18 212.69,-75.52 202.09,-75.59 204.45,-82.18"/>
</g>
<!-- Node4 -->
<g id="node4" class="node">
<title>Node4</title>
<g id="a_node4"><a xlink:href="../../dd/d96/_c_c_platform_config_8h.html" target="_top" xlink:title=" ">
<polygon fill="none" stroke="black" points="61,-0.5 61,-19.5 218,-19.5 218,-0.5 61,-0.5"/>
<text text-anchor="middle" x="139.5" y="-7.5" font-family="Helvetica,sans-Serif" font-size="10.00">platform/CCPlatformConfig.h</text>
</a>
</g>
</g>
<!-- Node2&#45;&gt;Node4 -->
<g id="edge4" class="edge">
<title>Node2&#45;&gt;Node4</title>
<path fill="none" stroke="midnightblue" d="M77.79,-112.16C67.5,-99.23 51.78,-74.69 62.5,-56 71.12,-40.99 86.89,-30.5 101.93,-23.46"/>
<polygon fill="midnightblue" stroke="midnightblue" points="103.32,-26.67 111.13,-19.51 100.56,-20.24 103.32,-26.67"/>
</g>
<!-- Node5 -->
<g id="node5" class="node">
<title>Node5</title>
<g id="a_node5"><a xlink:title=" ">
<polygon fill="none" stroke="#bfbfbf" points="72,-56.5 72,-75.5 185,-75.5 185,-56.5 72,-56.5"/>
<text text-anchor="middle" x="128.5" y="-63.5" font-family="Helvetica,sans-Serif" font-size="10.00">CCPlatformDefine.h</text>
</a>
</g>
</g>
<!-- Node2&#45;&gt;Node5 -->
<g id="edge5" class="edge">
<title>Node2&#45;&gt;Node5</title>
<path fill="none" stroke="midnightblue" d="M92.6,-112.08C98.74,-104.38 107.77,-93.03 115.24,-83.65"/>
<polygon fill="midnightblue" stroke="midnightblue" points="118.04,-85.75 121.53,-75.75 112.56,-81.39 118.04,-85.75"/>
</g>
<!-- Node3&#45;&gt;Node4 -->
<g id="edge3" class="edge">
<title>Node3&#45;&gt;Node4</title>
<path fill="none" stroke="midnightblue" d="M220.92,-56.32C205.5,-47.74 181.69,-34.49 163.79,-24.52"/>
<polygon fill="midnightblue" stroke="midnightblue" points="165.49,-21.46 155.05,-19.65 162.08,-27.58 165.49,-21.46"/>
</g>
<!-- Node7 -->
<g id="node7" class="node">
<title>Node7</title>
<g id="a_node7"><a xlink:href="../../d9/d2d/_c_c_data_visitor_8h.html" target="_top" xlink:title=" ">
<polygon fill="none" stroke="black" points="34,-224.5 34,-243.5 127,-243.5 127,-224.5 34,-224.5"/>
<text text-anchor="middle" x="80.5" y="-231.5" font-family="Helvetica,sans-Serif" font-size="10.00">CCDataVisitor.h</text>
</a>
</g>
</g>
<!-- Node6&#45;&gt;Node7 -->
<g id="edge7" class="edge">
<title>Node6&#45;&gt;Node7</title>
<path fill="none" stroke="midnightblue" d="M80.5,-280.08C80.5,-273.01 80.5,-262.86 80.5,-253.99"/>
<polygon fill="midnightblue" stroke="midnightblue" points="84,-253.75 80.5,-243.75 77,-253.75 84,-253.75"/>
</g>
<!-- Node9 -->
<g id="node9" class="node">
<title>Node9</title>
<g id="a_node9"><a xlink:href="../../d9/dc8/cc_macros_8h.html" target="_top" xlink:title=" ">
<polygon fill="none" stroke="black" points="202,-224.5 202,-243.5 273,-243.5 273,-224.5 202,-224.5"/>
<text text-anchor="middle" x="237.5" y="-231.5" font-family="Helvetica,sans-Serif" font-size="10.00">ccMacros.h</text>
</a>
</g>
</g>
<!-- Node6&#45;&gt;Node9 -->
<g id="edge10" class="edge">
<title>Node6&#45;&gt;Node9</title>
<path fill="none" stroke="midnightblue" d="M105.38,-280.44C131.79,-271.36 173.72,-256.94 203.24,-246.78"/>
<polygon fill="midnightblue" stroke="midnightblue" points="204.42,-250.08 212.74,-243.52 202.14,-243.46 204.42,-250.08"/>
</g>
<!-- Node7&#45;&gt;Node2 -->
<g id="edge8" class="edge">
<title>Node7&#45;&gt;Node2</title>
<path fill="none" stroke="midnightblue" d="M73.49,-224.3C64.42,-211.94 50.45,-188.54 56.5,-168 59.51,-157.76 65.65,-147.66 71.51,-139.63"/>
<polygon fill="midnightblue" stroke="midnightblue" points="74.43,-141.58 77.83,-131.54 68.91,-137.27 74.43,-141.58"/>
</g>
<!-- Node8 -->
<g id="node8" class="node">
<title>Node8</title>
<g id="a_node8"><a xlink:title=" ">
<polygon fill="none" stroke="#bfbfbf" points="65.5,-168.5 65.5,-187.5 109.5,-187.5 109.5,-168.5 65.5,-168.5"/>
<text text-anchor="middle" x="87.5" y="-175.5" font-family="Helvetica,sans-Serif" font-size="10.00">string</text>
</a>
</g>
</g>
<!-- Node7&#45;&gt;Node8 -->
<g id="edge9" class="edge">
<title>Node7&#45;&gt;Node8</title>
<path fill="none" stroke="midnightblue" d="M81.66,-224.08C82.58,-216.93 83.92,-206.64 85.08,-197.69"/>
<polygon fill="midnightblue" stroke="midnightblue" points="88.55,-198.12 86.37,-187.75 81.61,-197.22 88.55,-198.12"/>
</g>
<!-- Node9&#45;&gt;Node3 -->
<g id="edge14" class="edge">
<title>Node9&#45;&gt;Node3</title>
<path fill="none" stroke="midnightblue" d="M244.65,-224.36C251.27,-215.76 260.66,-201.87 264.5,-188 274.58,-151.62 257.77,-108.4 246.14,-84.72"/>
<polygon fill="midnightblue" stroke="midnightblue" points="249.12,-82.85 241.42,-75.57 242.9,-86.06 249.12,-82.85"/>
</g>
<!-- Node10 -->
<g id="node10" class="node">
<title>Node10</title>
<g id="a_node10"><a xlink:href="../../d5/d22/_c_c_common_8h.html" target="_top" xlink:title=" ">
<polygon fill="none" stroke="black" points="127.5,-168.5 127.5,-187.5 255.5,-187.5 255.5,-168.5 127.5,-168.5"/>
<text text-anchor="middle" x="191.5" y="-175.5" font-family="Helvetica,sans-Serif" font-size="10.00">platform/CCCommon.h</text>
</a>
</g>
</g>
<!-- Node9&#45;&gt;Node10 -->
<g id="edge11" class="edge">
<title>Node9&#45;&gt;Node10</title>
<path fill="none" stroke="midnightblue" d="M229.9,-224.08C223.27,-216.3 213.48,-204.8 205.44,-195.37"/>
<polygon fill="midnightblue" stroke="midnightblue" points="208.1,-193.09 198.95,-187.75 202.77,-197.63 208.1,-193.09"/>
</g>
<!-- Node11 -->
<g id="node11" class="node">
<title>Node11</title>
<g id="a_node11"><a xlink:title=" ">
<polygon fill="none" stroke="#bfbfbf" points="311.5,-168.5 311.5,-187.5 373.5,-187.5 373.5,-168.5 311.5,-168.5"/>
<text text-anchor="middle" x="342.5" y="-175.5" font-family="Helvetica,sans-Serif" font-size="10.00">CCStdC.h</text>
</a>
</g>
</g>
<!-- Node9&#45;&gt;Node11 -->
<g id="edge13" class="edge">
<title>Node9&#45;&gt;Node11</title>
<path fill="none" stroke="midnightblue" d="M254.37,-224.32C271.21,-215.66 297.31,-202.24 316.74,-192.25"/>
<polygon fill="midnightblue" stroke="midnightblue" points="318.38,-195.34 325.67,-187.65 315.18,-189.12 318.38,-195.34"/>
</g>
<!-- Node10&#45;&gt;Node2 -->
<g id="edge12" class="edge">
<title>Node10&#45;&gt;Node2</title>
<path fill="none" stroke="midnightblue" d="M174.47,-168.32C157.47,-159.66 131.12,-146.24 111.51,-136.25"/>
<polygon fill="midnightblue" stroke="midnightblue" points="112.99,-133.08 102.49,-131.65 109.81,-139.31 112.99,-133.08"/>
</g>
</g>
</svg>
