<?xml version="1.0" encoding="UTF-8" standalone="no"?>
<!DOCTYPE svg PUBLIC "-//W3C//DTD SVG 1.1//EN"
 "http://www.w3.org/Graphics/SVG/1.1/DTD/svg11.dtd">
<!-- Generated by graphviz version 2.43.0 (0)
 -->
<!-- Title: /home/runner/work/cocos2d.h/cocos2d.h/cocos2dx/robtop/xml/DS_Dictionary.h Pages: 1 -->
<svg width="2600pt" height="696pt"
 viewBox="0.00 0.00 2600.00 696.00" xmlns="http://www.w3.org/2000/svg" xmlns:xlink="http://www.w3.org/1999/xlink">
<g id="graph0" class="graph" transform="scale(1 1) rotate(0) translate(4 692)">
<title>/home/runner/work/cocos2d.h/cocos2d.h/cocos2dx/robtop/xml/DS_Dictionary.h</title>
<!-- Node1 -->
<g id="node1" class="node">
<title>Node1</title>
<g id="a_node1"><a xlink:title=" ">
<polygon fill="#bfbfbf" stroke="black" points="741,-646.5 741,-687.5 902,-687.5 902,-646.5 741,-646.5"/>
<text text-anchor="start" x="749" y="-675.5" font-family="Helvetica,sans-Serif" font-size="10.00">/home/runner/work/cocos2d.h</text>
<text text-anchor="start" x="749" y="-664.5" font-family="Helvetica,sans-Serif" font-size="10.00">/cocos2d.h/cocos2dx/robtop</text>
<text text-anchor="middle" x="821.5" y="-653.5" font-family="Helvetica,sans-Serif" font-size="10.00">/xml/DS_Dictionary.h</text>
</a>
</g>
</g>
<!-- Node2 -->
<g id="node2" class="node">
<title>Node2</title>
<g id="a_node2"><a xlink:href="../../dc/dfd/cocos2d_8h.html" target="_top" xlink:title=" ">
<polygon fill="none" stroke="black" points="741,-568.5 741,-609.5 902,-609.5 902,-568.5 741,-568.5"/>
<text text-anchor="start" x="749" y="-597.5" font-family="Helvetica,sans-Serif" font-size="10.00">/home/runner/work/cocos2d.h</text>
<text text-anchor="start" x="749" y="-586.5" font-family="Helvetica,sans-Serif" font-size="10.00">/cocos2d.h/cocos2dx/include</text>
<text text-anchor="middle" x="821.5" y="-575.5" font-family="Helvetica,sans-Serif" font-size="10.00">/cocos2d.h</text>
</a>
</g>
</g>
<!-- Node1&#45;&gt;Node2 -->
<g id="edge1" class="edge">
<title>Node1&#45;&gt;Node2</title>
<path fill="none" stroke="midnightblue" d="M814.9,-636.3C814.58,-627.3 814.78,-617.65 815.52,-609.51"/>
<polygon fill="midnightblue" stroke="midnightblue" points="811.41,-636.66 815.51,-646.43 818.4,-636.23 811.41,-636.66"/>
</g>
<!-- Node2&#45;&gt;Node1 -->
<g id="edge2" class="edge">
<title>Node2&#45;&gt;Node1</title>
<path fill="none" stroke="midnightblue" d="M828.1,-619.63C828.42,-628.62 828.22,-638.27 827.49,-646.43"/>
<polygon fill="midnightblue" stroke="midnightblue" points="831.59,-619.27 827.48,-609.51 824.6,-619.7 831.59,-619.27"/>
</g>
<!-- Node3 -->
<g id="node3" class="node">
<title>Node3</title>
<g id="a_node3"><a xlink:href="../../d3/db7/_assets_manager_8h.html" target="_top" xlink:title=" ">
<polygon fill="none" stroke="black" points="182,-490.5 182,-531.5 385,-531.5 385,-490.5 182,-490.5"/>
<text text-anchor="start" x="190" y="-519.5" font-family="Helvetica,sans-Serif" font-size="10.00">/home/runner/work/cocos2d.h</text>
<text text-anchor="start" x="190" y="-508.5" font-family="Helvetica,sans-Serif" font-size="10.00">/cocos2d.h/extensions/AssetsManager</text>
<text text-anchor="middle" x="283.5" y="-497.5" font-family="Helvetica,sans-Serif" font-size="10.00">/AssetsManager.h</text>
</a>
</g>
</g>
<!-- Node2&#45;&gt;Node3 -->
<g id="edge3" class="edge">
<title>Node2&#45;&gt;Node3</title>
<path fill="none" stroke="midnightblue" d="M730.92,-577.01C645.37,-566.39 513.53,-549.39 399.5,-532 394.85,-531.29 390.11,-530.55 385.31,-529.78"/>
<polygon fill="midnightblue" stroke="midnightblue" points="730.51,-580.49 740.86,-578.24 731.37,-573.54 730.51,-580.49"/>
</g>
<!-- Node4 -->
<g id="node4" class="node">
<title>Node4</title>
<g id="a_node4"><a xlink:href="../../de/d8b/_c_c_control_8h.html" target="_top" xlink:title=" ">
<polygon fill="none" stroke="black" points="1451,-490.5 1451,-531.5 1628,-531.5 1628,-490.5 1451,-490.5"/>
<text text-anchor="start" x="1459" y="-519.5" font-family="Helvetica,sans-Serif" font-size="10.00">/home/runner/work/cocos2d.h</text>
<text text-anchor="start" x="1459" y="-508.5" font-family="Helvetica,sans-Serif" font-size="10.00">/cocos2d.h/extensions/GUI</text>
<text text-anchor="middle" x="1539.5" y="-497.5" font-family="Helvetica,sans-Serif" font-size="10.00">/CCControlExtension/CCControl.h</text>
</a>
</g>
</g>
<!-- Node2&#45;&gt;Node4 -->
<g id="edge4" class="edge">
<title>Node2&#45;&gt;Node4</title>
<path fill="none" stroke="midnightblue" d="M912.29,-578.39C1050.89,-563.72 1313.6,-535.91 1450.89,-521.38"/>
<polygon fill="midnightblue" stroke="midnightblue" points="911.7,-574.93 902.12,-579.47 912.43,-581.89 911.7,-574.93"/>
</g>
<!-- Node7 -->
<g id="node7" class="node">
<title>Node7</title>
<g id="a_node7"><a xlink:href="../../dc/d4a/_c_c_edit_box_8h.html" target="_top" xlink:title=" ">
<polygon fill="none" stroke="black" points="1057,-156.5 1057,-197.5 1218,-197.5 1218,-156.5 1057,-156.5"/>
<text text-anchor="start" x="1065" y="-185.5" font-family="Helvetica,sans-Serif" font-size="10.00">/home/runner/work/cocos2d.h</text>
<text text-anchor="start" x="1065" y="-174.5" font-family="Helvetica,sans-Serif" font-size="10.00">/cocos2d.h/extensions/GUI</text>
<text text-anchor="middle" x="1137.5" y="-163.5" font-family="Helvetica,sans-Serif" font-size="10.00">/CCEditBox/CCEditBox.h</text>
</a>
</g>
</g>
<!-- Node2&#45;&gt;Node7 -->
<g id="edge37" class="edge">
<title>Node2&#45;&gt;Node7</title>
<path fill="none" stroke="midnightblue" d="M810.17,-558.7C798.97,-527.08 783.5,-474.99 783.5,-428.5 783.5,-428.5 783.5,-428.5 783.5,-337.5 783.5,-218.36 952.25,-187.7 1056.73,-180.14"/>
<polygon fill="midnightblue" stroke="midnightblue" points="806.92,-560.02 813.63,-568.22 813.5,-557.62 806.92,-560.02"/>
</g>
<!-- Node8 -->
<g id="node8" class="node">
<title>Node8</title>
<g id="a_node8"><a xlink:href="../../db/da9/_c_c_edit_box_impl_8h.html" target="_top" xlink:title=" ">
<polygon fill="none" stroke="black" points="518,-78.5 518,-119.5 679,-119.5 679,-78.5 518,-78.5"/>
<text text-anchor="start" x="526" y="-107.5" font-family="Helvetica,sans-Serif" font-size="10.00">/home/runner/work/cocos2d.h</text>
<text text-anchor="start" x="526" y="-96.5" font-family="Helvetica,sans-Serif" font-size="10.00">/cocos2d.h/extensions/GUI</text>
<text text-anchor="middle" x="598.5" y="-85.5" font-family="Helvetica,sans-Serif" font-size="10.00">/CCEditBox/CCEditBoxImpl.h</text>
</a>
</g>
</g>
<!-- Node2&#45;&gt;Node8 -->
<g id="edge38" class="edge">
<title>Node2&#45;&gt;Node8</title>
<path fill="none" stroke="midnightblue" d="M745.92,-564.41C727.37,-556.19 708.54,-545.53 693.5,-532 654.13,-496.59 634.5,-481.45 634.5,-428.5 634.5,-428.5 634.5,-428.5 634.5,-254 634.5,-204.58 616.7,-148.52 606.13,-119.59"/>
<polygon fill="midnightblue" stroke="midnightblue" points="744.7,-567.7 755.28,-568.37 747.43,-561.25 744.7,-567.7"/>
</g>
<!-- Node9 -->
<g id="node9" class="node">
<title>Node9</title>
<g id="a_node9"><a xlink:href="../../d4/dd3/_c_c_edit_box_impl_android_8h.html" target="_top" xlink:title=" ">
<polygon fill="none" stroke="black" points="0,-0.5 0,-41.5 193,-41.5 193,-0.5 0,-0.5"/>
<text text-anchor="start" x="8" y="-29.5" font-family="Helvetica,sans-Serif" font-size="10.00">/home/runner/work/cocos2d.h</text>
<text text-anchor="start" x="8" y="-18.5" font-family="Helvetica,sans-Serif" font-size="10.00">/cocos2d.h/extensions/GUI</text>
<text text-anchor="middle" x="96.5" y="-7.5" font-family="Helvetica,sans-Serif" font-size="10.00">/CCEditBox/CCEditBoxImplAndroid.h</text>
</a>
</g>
</g>
<!-- Node2&#45;&gt;Node9 -->
<g id="edge39" class="edge">
<title>Node2&#45;&gt;Node9</title>
<path fill="none" stroke="midnightblue" d="M730.43,-583.52C637.99,-577.3 502.78,-563.08 461.5,-532 420.99,-501.5 413.5,-479.21 413.5,-428.5 413.5,-428.5 413.5,-428.5 413.5,-176 413.5,-121.93 262.39,-69.11 168.83,-41.59"/>
<polygon fill="midnightblue" stroke="midnightblue" points="730.43,-587.03 740.64,-584.18 730.89,-580.04 730.43,-587.03"/>
</g>
<!-- Node10 -->
<g id="node10" class="node">
<title>Node10</title>
<g id="a_node10"><a xlink:href="../../dd/dfd/_c_c_edit_box_impl_i_o_s_8h.html" target="_top" xlink:title=" ">
<polygon fill="none" stroke="black" points="211.5,-0.5 211.5,-41.5 383.5,-41.5 383.5,-0.5 211.5,-0.5"/>
<text text-anchor="start" x="219.5" y="-29.5" font-family="Helvetica,sans-Serif" font-size="10.00">/home/runner/work/cocos2d.h</text>
<text text-anchor="start" x="219.5" y="-18.5" font-family="Helvetica,sans-Serif" font-size="10.00">/cocos2d.h/extensions/GUI</text>
<text text-anchor="middle" x="297.5" y="-7.5" font-family="Helvetica,sans-Serif" font-size="10.00">/CCEditBox/CCEditBoxImplIOS.h</text>
</a>
</g>
</g>
<!-- Node2&#45;&gt;Node10 -->
<g id="edge40" class="edge">
<title>Node2&#45;&gt;Node10</title>
<path fill="none" stroke="midnightblue" d="M730.93,-580.47C651.5,-572.32 543.4,-557.03 508.5,-532 465.83,-501.39 451.5,-481.01 451.5,-428.5 451.5,-428.5 451.5,-428.5 451.5,-176 451.5,-131.16 456.46,-112.24 427.5,-78 413.61,-61.58 394.03,-49.85 374.27,-41.51"/>
<polygon fill="midnightblue" stroke="midnightblue" points="730.66,-583.96 740.96,-581.47 731.36,-576.99 730.66,-583.96"/>
</g>
<!-- Node11 -->
<g id="node11" class="node">
<title>Node11</title>
<g id="a_node11"><a xlink:href="../../d7/d4d/_c_c_edit_box_impl_mac_8h.html" target="_top" xlink:title=" ">
<polygon fill="none" stroke="black" points="401.5,-0.5 401.5,-41.5 577.5,-41.5 577.5,-0.5 401.5,-0.5"/>
<text text-anchor="start" x="409.5" y="-29.5" font-family="Helvetica,sans-Serif" font-size="10.00">/home/runner/work/cocos2d.h</text>
<text text-anchor="start" x="409.5" y="-18.5" font-family="Helvetica,sans-Serif" font-size="10.00">/cocos2d.h/extensions/GUI</text>
<text text-anchor="middle" x="489.5" y="-7.5" font-family="Helvetica,sans-Serif" font-size="10.00">/CCEditBox/CCEditBoxImplMac.h</text>
</a>
</g>
</g>
<!-- Node2&#45;&gt;Node11 -->
<g id="edge41" class="edge">
<title>Node2&#45;&gt;Node11</title>
<path fill="none" stroke="midnightblue" d="M730.75,-582.49C632.45,-571.04 489.5,-535.92 489.5,-428.5 489.5,-428.5 489.5,-428.5 489.5,-176 489.5,-127.88 489.5,-71.29 489.5,-41.93"/>
<polygon fill="midnightblue" stroke="midnightblue" points="730.38,-585.98 740.71,-583.59 731.15,-579.02 730.38,-585.98"/>
</g>
<!-- Node12 -->
<g id="node12" class="node">
<title>Node12</title>
<g id="a_node12"><a xlink:href="../../de/dac/_c_c_edit_box_impl_tizen_8h.html" target="_top" xlink:title=" ">
<polygon fill="none" stroke="black" points="790.5,-0.5 790.5,-41.5 972.5,-41.5 972.5,-0.5 790.5,-0.5"/>
<text text-anchor="start" x="798.5" y="-29.5" font-family="Helvetica,sans-Serif" font-size="10.00">/home/runner/work/cocos2d.h</text>
<text text-anchor="start" x="798.5" y="-18.5" font-family="Helvetica,sans-Serif" font-size="10.00">/cocos2d.h/extensions/GUI</text>
<text text-anchor="middle" x="881.5" y="-7.5" font-family="Helvetica,sans-Serif" font-size="10.00">/CCEditBox/CCEditBoxImplTizen.h</text>
</a>
</g>
</g>
<!-- Node2&#45;&gt;Node12 -->
<g id="edge42" class="edge">
<title>Node2&#45;&gt;Node12</title>
<path fill="none" stroke="midnightblue" d="M786.97,-561.83C753.42,-533.15 707.5,-483.8 707.5,-428.5 707.5,-428.5 707.5,-428.5 707.5,-176 707.5,-131.16 701.7,-111.51 731.5,-78 747.02,-60.55 768.5,-48.52 790.36,-40.24"/>
<polygon fill="midnightblue" stroke="midnightblue" points="784.85,-564.62 794.77,-568.32 789.32,-559.24 784.85,-564.62"/>
</g>
<!-- Node13 -->
<g id="node13" class="node">
<title>Node13</title>
<g id="a_node13"><a xlink:href="../../dd/d41/_c_c_edit_box_impl_win_8h.html" target="_top" xlink:title=" ">
<polygon fill="none" stroke="black" points="990.5,-0.5 990.5,-41.5 1164.5,-41.5 1164.5,-0.5 990.5,-0.5"/>
<text text-anchor="start" x="998.5" y="-29.5" font-family="Helvetica,sans-Serif" font-size="10.00">/home/runner/work/cocos2d.h</text>
<text text-anchor="start" x="998.5" y="-18.5" font-family="Helvetica,sans-Serif" font-size="10.00">/cocos2d.h/extensions/GUI</text>
<text text-anchor="middle" x="1077.5" y="-7.5" font-family="Helvetica,sans-Serif" font-size="10.00">/CCEditBox/CCEditBoxImplWin.h</text>
</a>
</g>
</g>
<!-- Node2&#45;&gt;Node13 -->
<g id="edge43" class="edge">
<title>Node2&#45;&gt;Node13</title>
<path fill="none" stroke="midnightblue" d="M810.09,-558.66C788.87,-501.4 745.5,-370.35 745.5,-256 745.5,-256 745.5,-256 745.5,-176 745.5,-120.25 901.53,-68.56 999.66,-41.57"/>
<polygon fill="midnightblue" stroke="midnightblue" points="806.86,-560.02 813.65,-568.15 813.41,-557.56 806.86,-560.02"/>
</g>
<!-- Node24 -->
<g id="node24" class="node">
<title>Node24</title>
<g id="a_node24"><a xlink:href="../../db/d24/_c_c_scale9_sprite_8h.html" target="_top" xlink:title=" ">
<polygon fill="none" stroke="black" points="1827,-490.5 1827,-531.5 2030,-531.5 2030,-490.5 1827,-490.5"/>
<text text-anchor="start" x="1835" y="-519.5" font-family="Helvetica,sans-Serif" font-size="10.00">/home/runner/work/cocos2d.h</text>
<text text-anchor="start" x="1835" y="-508.5" font-family="Helvetica,sans-Serif" font-size="10.00">/cocos2d.h/extensions/GUI</text>
<text text-anchor="middle" x="1928.5" y="-497.5" font-family="Helvetica,sans-Serif" font-size="10.00">/CCControlExtension/CCScale9Sprite.h</text>
</a>
</g>
</g>
<!-- Node2&#45;&gt;Node24 -->
<g id="edge34" class="edge">
<title>Node2&#45;&gt;Node24</title>
<path fill="none" stroke="midnightblue" d="M912.1,-581.78C1116.47,-567.75 1612.16,-533.72 1826.71,-518.99"/>
<polygon fill="midnightblue" stroke="midnightblue" points="911.74,-578.3 902,-582.47 912.22,-585.28 911.74,-578.3"/>
</g>
<!-- Node25 -->
<g id="node25" class="node">
<title>Node25</title>
<g id="a_node25"><a xlink:href="../../de/d56/_c_c_scroll_view_8h.html" target="_top" xlink:title=" ">
<polygon fill="none" stroke="black" points="1948,-234.5 1948,-275.5 2109,-275.5 2109,-234.5 1948,-234.5"/>
<text text-anchor="start" x="1956" y="-263.5" font-family="Helvetica,sans-Serif" font-size="10.00">/home/runner/work/cocos2d.h</text>
<text text-anchor="start" x="1956" y="-252.5" font-family="Helvetica,sans-Serif" font-size="10.00">/cocos2d.h/extensions/GUI</text>
<text text-anchor="middle" x="2028.5" y="-241.5" font-family="Helvetica,sans-Serif" font-size="10.00">/CCScrollView/CCScrollView.h</text>
</a>
</g>
</g>
<!-- Node2&#45;&gt;Node25 -->
<g id="edge44" class="edge">
<title>Node2&#45;&gt;Node25</title>
<path fill="none" stroke="midnightblue" d="M912.43,-586.57C1187.28,-581.87 1993.38,-565.32 2038.5,-532 2117.36,-473.76 2082,-406.1 2054.5,-312 2050.83,-299.45 2044.75,-286.14 2039.4,-275.65"/>
<polygon fill="midnightblue" stroke="midnightblue" points="912.03,-583.07 902.09,-586.74 912.15,-590.07 912.03,-583.07"/>
</g>
<!-- Node27 -->
<g id="node27" class="node">
<title>Node27</title>
<g id="a_node27"><a xlink:href="../../d8/d12/_http_client_8h.html" target="_top" xlink:title=" ">
<polygon fill="none" stroke="black" points="2165,-318 2165,-359 2332,-359 2332,-318 2165,-318"/>
<text text-anchor="start" x="2173" y="-347" font-family="Helvetica,sans-Serif" font-size="10.00">/home/runner/work/cocos2d.h</text>
<text text-anchor="start" x="2173" y="-336" font-family="Helvetica,sans-Serif" font-size="10.00">/cocos2d.h/extensions/network</text>
<text text-anchor="middle" x="2248.5" y="-325" font-family="Helvetica,sans-Serif" font-size="10.00">/HttpClient.h</text>
</a>
</g>
</g>
<!-- Node2&#45;&gt;Node27 -->
<g id="edge48" class="edge">
<title>Node2&#45;&gt;Node27</title>
<path fill="none" stroke="midnightblue" d="M912.56,-588.15C1236.97,-588.26 2319.71,-584.66 2370.5,-532 2423.38,-477.18 2327.75,-395.96 2277.05,-359.04"/>
<polygon fill="midnightblue" stroke="midnightblue" points="912.26,-584.65 902.26,-588.15 912.26,-591.65 912.26,-584.65"/>
</g>
<!-- Node28 -->
<g id="node28" class="node">
<title>Node28</title>
<g id="a_node28"><a xlink:href="../../d3/d95/_http_request_8h.html" target="_top" xlink:title=" ">
<polygon fill="none" stroke="black" points="2194,-490.5 2194,-531.5 2361,-531.5 2361,-490.5 2194,-490.5"/>
<text text-anchor="start" x="2202" y="-519.5" font-family="Helvetica,sans-Serif" font-size="10.00">/home/runner/work/cocos2d.h</text>
<text text-anchor="start" x="2202" y="-508.5" font-family="Helvetica,sans-Serif" font-size="10.00">/cocos2d.h/extensions/network</text>
<text text-anchor="middle" x="2277.5" y="-497.5" font-family="Helvetica,sans-Serif" font-size="10.00">/HttpRequest.h</text>
</a>
</g>
</g>
<!-- Node2&#45;&gt;Node28 -->
<g id="edge50" class="edge">
<title>Node2&#45;&gt;Node28</title>
<path fill="none" stroke="midnightblue" d="M912.25,-588.24C1128.96,-587.92 1693.43,-581.92 2161.5,-532 2171.97,-530.88 2182.91,-529.41 2193.73,-527.76"/>
<polygon fill="midnightblue" stroke="midnightblue" points="912.19,-584.74 902.2,-588.25 912.2,-591.74 912.19,-584.74"/>
</g>
<!-- Node29 -->
<g id="node29" class="node">
<title>Node29</title>
<g id="a_node29"><a xlink:href="../../d1/d33/_http_response_8h.html" target="_top" xlink:title=" ">
<polygon fill="none" stroke="black" points="2127,-407 2127,-448 2294,-448 2294,-407 2127,-407"/>
<text text-anchor="start" x="2135" y="-436" font-family="Helvetica,sans-Serif" font-size="10.00">/home/runner/work/cocos2d.h</text>
<text text-anchor="start" x="2135" y="-425" font-family="Helvetica,sans-Serif" font-size="10.00">/cocos2d.h/extensions/network</text>
<text text-anchor="middle" x="2210.5" y="-414" font-family="Helvetica,sans-Serif" font-size="10.00">/HttpResponse.h</text>
</a>
</g>
</g>
<!-- Node2&#45;&gt;Node29 -->
<g id="edge56" class="edge">
<title>Node2&#45;&gt;Node29</title>
<path fill="none" stroke="midnightblue" d="M912.72,-588.01C1189.16,-587.48 2005.29,-581.7 2113.5,-532 2152.44,-514.12 2183.26,-472.73 2199,-448.05"/>
<polygon fill="midnightblue" stroke="midnightblue" points="912.32,-584.51 902.33,-588.03 912.33,-591.51 912.32,-584.51"/>
</g>
<!-- Node30 -->
<g id="node30" class="node">
<title>Node30</title>
<g id="a_node30"><a xlink:href="../../da/d1e/_web_socket_8h.html" target="_top" xlink:title=" ">
<polygon fill="none" stroke="black" points="2425,-490.5 2425,-531.5 2592,-531.5 2592,-490.5 2425,-490.5"/>
<text text-anchor="start" x="2433" y="-519.5" font-family="Helvetica,sans-Serif" font-size="10.00">/home/runner/work/cocos2d.h</text>
<text text-anchor="start" x="2433" y="-508.5" font-family="Helvetica,sans-Serif" font-size="10.00">/cocos2d.h/extensions/network</text>
<text text-anchor="middle" x="2508.5" y="-497.5" font-family="Helvetica,sans-Serif" font-size="10.00">/WebSocket.h</text>
</a>
</g>
</g>
<!-- Node2&#45;&gt;Node30 -->
<g id="edge57" class="edge">
<title>Node2&#45;&gt;Node30</title>
<path fill="none" stroke="midnightblue" d="M912.31,-586.81C1204.45,-582.67 2118.1,-567.16 2411.5,-532 2415.85,-531.48 2420.3,-530.86 2424.78,-530.18"/>
<polygon fill="midnightblue" stroke="midnightblue" points="912.13,-583.31 902.18,-586.95 912.23,-590.31 912.13,-583.31"/>
</g>
<!-- Node5 -->
<g id="node5" class="node">
<title>Node5</title>
<g id="a_node5"><a xlink:href="../../d0/d7e/_c_c_control_button_8h.html" target="_top" xlink:title=" ">
<polygon fill="none" stroke="black" points="1824,-407 1824,-448 2033,-448 2033,-407 1824,-407"/>
<text text-anchor="start" x="1832" y="-436" font-family="Helvetica,sans-Serif" font-size="10.00">/home/runner/work/cocos2d.h</text>
<text text-anchor="start" x="1832" y="-425" font-family="Helvetica,sans-Serif" font-size="10.00">/cocos2d.h/extensions/GUI</text>
<text text-anchor="middle" x="1928.5" y="-414" font-family="Helvetica,sans-Serif" font-size="10.00">/CCControlExtension/CCControlButton.h</text>
</a>
</g>
</g>
<!-- Node4&#45;&gt;Node5 -->
<g id="edge5" class="edge">
<title>Node4&#45;&gt;Node5</title>
<path fill="none" stroke="midnightblue" d="M1638.36,-489.66C1689.47,-479.1 1752.85,-465.94 1809.5,-454 1818.6,-452.08 1828.08,-450.07 1837.55,-448.05"/>
<polygon fill="midnightblue" stroke="midnightblue" points="1637.39,-486.28 1628.3,-491.73 1638.8,-493.14 1637.39,-486.28"/>
</g>
<!-- Node6 -->
<g id="node6" class="node">
<title>Node6</title>
<g id="a_node6"><a xlink:href="../../d6/d86/_c_c_control_extensions_8h.html" target="_top" xlink:title=" ">
<polygon fill="none" stroke="black" points="1425.5,-234.5 1425.5,-275.5 1655.5,-275.5 1655.5,-234.5 1425.5,-234.5"/>
<text text-anchor="start" x="1433.5" y="-263.5" font-family="Helvetica,sans-Serif" font-size="10.00">/home/runner/work/cocos2d.h</text>
<text text-anchor="start" x="1433.5" y="-252.5" font-family="Helvetica,sans-Serif" font-size="10.00">/cocos2d.h/extensions/GUI</text>
<text text-anchor="middle" x="1540.5" y="-241.5" font-family="Helvetica,sans-Serif" font-size="10.00">/CCControlExtension/CCControlExtensions.h</text>
</a>
</g>
</g>
<!-- Node4&#45;&gt;Node6 -->
<g id="edge19" class="edge">
<title>Node4&#45;&gt;Node6</title>
<path fill="none" stroke="midnightblue" d="M1440.72,-507.95C1278.38,-503.56 969.73,-490.46 936.5,-454 920.63,-436.59 923.19,-420.43 936.5,-401 961.55,-364.44 994.29,-391.92 1029.5,-365 1052.73,-347.23 1043.23,-326.72 1068.5,-312 1127.2,-277.82 1305.59,-264.44 1425.46,-259.25"/>
<polygon fill="midnightblue" stroke="midnightblue" points="1440.63,-511.45 1450.72,-508.22 1440.82,-504.46 1440.63,-511.45"/>
</g>
<!-- Node16 -->
<g id="node16" class="node">
<title>Node16</title>
<g id="a_node16"><a xlink:href="../../d3/db7/_c_c_control_colour_picker_8h.html" target="_top" xlink:title=" ">
<polygon fill="none" stroke="black" points="1077.5,-312.5 1077.5,-364.5 1277.5,-364.5 1277.5,-312.5 1077.5,-312.5"/>
<text text-anchor="start" x="1085.5" y="-352.5" font-family="Helvetica,sans-Serif" font-size="10.00">/home/runner/work/cocos2d.h</text>
<text text-anchor="start" x="1085.5" y="-341.5" font-family="Helvetica,sans-Serif" font-size="10.00">/cocos2d.h/extensions/GUI</text>
<text text-anchor="start" x="1085.5" y="-330.5" font-family="Helvetica,sans-Serif" font-size="10.00">/CCControlExtension/CCControlColour</text>
<text text-anchor="middle" x="1177.5" y="-319.5" font-family="Helvetica,sans-Serif" font-size="10.00">Picker.h</text>
</a>
</g>
</g>
<!-- Node4&#45;&gt;Node16 -->
<g id="edge17" class="edge">
<title>Node4&#45;&gt;Node16</title>
<path fill="none" stroke="midnightblue" d="M1625.45,-485.87C1639.74,-478.01 1652.75,-467.65 1661.5,-454 1674.22,-434.17 1677.34,-418.43 1661.5,-401 1633.35,-370.02 1327.81,-371.78 1286.5,-365 1283.62,-364.53 1280.71,-364.02 1277.77,-363.49"/>
<polygon fill="midnightblue" stroke="midnightblue" points="1623.74,-482.81 1616.4,-490.45 1626.91,-489.06 1623.74,-482.81"/>
</g>
<!-- Node17 -->
<g id="node17" class="node">
<title>Node17</title>
<g id="a_node17"><a xlink:href="../../dd/d5a/_c_c_control_hue_picker_8h.html" target="_top" xlink:title=" ">
<polygon fill="none" stroke="black" points="946,-407 946,-448 1171,-448 1171,-407 946,-407"/>
<text text-anchor="start" x="954" y="-436" font-family="Helvetica,sans-Serif" font-size="10.00">/home/runner/work/cocos2d.h</text>
<text text-anchor="start" x="954" y="-425" font-family="Helvetica,sans-Serif" font-size="10.00">/cocos2d.h/extensions/GUI</text>
<text text-anchor="middle" x="1058.5" y="-414" font-family="Helvetica,sans-Serif" font-size="10.00">/CCControlExtension/CCControlHuePicker.h</text>
</a>
</g>
</g>
<!-- Node4&#45;&gt;Node17 -->
<g id="edge20" class="edge">
<title>Node4&#45;&gt;Node17</title>
<path fill="none" stroke="midnightblue" d="M1440.76,-495.99C1368.52,-485.4 1268.22,-470 1180.5,-454 1170.39,-452.16 1159.83,-450.12 1149.34,-448.02"/>
<polygon fill="midnightblue" stroke="midnightblue" points="1440.37,-499.47 1450.77,-497.45 1441.38,-492.54 1440.37,-499.47"/>
</g>
<!-- Node18 -->
<g id="node18" class="node">
<title>Node18</title>
<g id="a_node18"><a xlink:href="../../d2/d29/_c_c_control_potentiometer_8h.html" target="_top" xlink:title=" ">
<polygon fill="none" stroke="black" points="1295.5,-318 1295.5,-359 1541.5,-359 1541.5,-318 1295.5,-318"/>
<text text-anchor="start" x="1303.5" y="-347" font-family="Helvetica,sans-Serif" font-size="10.00">/home/runner/work/cocos2d.h</text>
<text text-anchor="start" x="1303.5" y="-336" font-family="Helvetica,sans-Serif" font-size="10.00">/cocos2d.h/extensions/GUI</text>
<text text-anchor="middle" x="1418.5" y="-325" font-family="Helvetica,sans-Serif" font-size="10.00">/CCControlExtension/CCControlPotentiometer.h</text>
</a>
</g>
</g>
<!-- Node4&#45;&gt;Node18 -->
<g id="edge22" class="edge">
<title>Node4&#45;&gt;Node18</title>
<path fill="none" stroke="midnightblue" d="M1638.01,-494.64C1660.46,-486.33 1681.74,-473.56 1695.5,-454 1709.05,-434.73 1710.24,-419.37 1695.5,-401 1689.77,-393.86 1597.18,-374.25 1520.6,-359.08"/>
<polygon fill="midnightblue" stroke="midnightblue" points="1636.67,-491.4 1628.33,-497.94 1638.93,-498.03 1636.67,-491.4"/>
</g>
<!-- Node19 -->
<g id="node19" class="node">
<title>Node19</title>
<g id="a_node19"><a xlink:href="../../de/d08/_c_c_control_saturation_brightness_picker_8h.html" target="_top" xlink:title=" ">
<polygon fill="none" stroke="black" points="1189.5,-401.5 1189.5,-453.5 1407.5,-453.5 1407.5,-401.5 1189.5,-401.5"/>
<text text-anchor="start" x="1197.5" y="-441.5" font-family="Helvetica,sans-Serif" font-size="10.00">/home/runner/work/cocos2d.h</text>
<text text-anchor="start" x="1197.5" y="-430.5" font-family="Helvetica,sans-Serif" font-size="10.00">/cocos2d.h/extensions/GUI</text>
<text text-anchor="start" x="1197.5" y="-419.5" font-family="Helvetica,sans-Serif" font-size="10.00">/CCControlExtension/CCControlSaturation</text>
<text text-anchor="middle" x="1298.5" y="-408.5" font-family="Helvetica,sans-Serif" font-size="10.00">BrightnessPicker.h</text>
</a>
</g>
</g>
<!-- Node4&#45;&gt;Node19 -->
<g id="edge24" class="edge">
<title>Node4&#45;&gt;Node19</title>
<path fill="none" stroke="midnightblue" d="M1471.96,-487.16C1441.04,-476.7 1404.33,-464.29 1372.65,-453.58"/>
<polygon fill="midnightblue" stroke="midnightblue" points="1471.18,-490.59 1481.77,-490.48 1473.42,-483.96 1471.18,-490.59"/>
</g>
<!-- Node20 -->
<g id="node20" class="node">
<title>Node20</title>
<g id="a_node20"><a xlink:href="../../d6/d7e/_c_c_control_slider_8h.html" target="_top" xlink:title=" ">
<polygon fill="none" stroke="black" points="1559.5,-318 1559.5,-359 1763.5,-359 1763.5,-318 1559.5,-318"/>
<text text-anchor="start" x="1567.5" y="-347" font-family="Helvetica,sans-Serif" font-size="10.00">/home/runner/work/cocos2d.h</text>
<text text-anchor="start" x="1567.5" y="-336" font-family="Helvetica,sans-Serif" font-size="10.00">/cocos2d.h/extensions/GUI</text>
<text text-anchor="middle" x="1661.5" y="-325" font-family="Helvetica,sans-Serif" font-size="10.00">/CCControlExtension/CCControlSlider.h</text>
</a>
</g>
</g>
<!-- Node4&#45;&gt;Node20 -->
<g id="edge26" class="edge">
<title>Node4&#45;&gt;Node20</title>
<path fill="none" stroke="midnightblue" d="M1638.4,-500.87C1667.96,-492.97 1697.31,-478.88 1715.5,-454 1729.4,-434.99 1723.8,-423.04 1715.5,-401 1709.39,-384.78 1696.84,-370.05 1685.37,-359.08"/>
<polygon fill="midnightblue" stroke="midnightblue" points="1637.26,-497.54 1628.38,-503.32 1638.93,-504.34 1637.26,-497.54"/>
</g>
<!-- Node21 -->
<g id="node21" class="node">
<title>Node21</title>
<g id="a_node21"><a xlink:href="../../de/dba/_c_c_control_stepper_8h.html" target="_top" xlink:title=" ">
<polygon fill="none" stroke="black" points="1781.5,-318 1781.5,-359 1995.5,-359 1995.5,-318 1781.5,-318"/>
<text text-anchor="start" x="1789.5" y="-347" font-family="Helvetica,sans-Serif" font-size="10.00">/home/runner/work/cocos2d.h</text>
<text text-anchor="start" x="1789.5" y="-336" font-family="Helvetica,sans-Serif" font-size="10.00">/cocos2d.h/extensions/GUI</text>
<text text-anchor="middle" x="1888.5" y="-325" font-family="Helvetica,sans-Serif" font-size="10.00">/CCControlExtension/CCControlStepper.h</text>
</a>
</g>
</g>
<!-- Node4&#45;&gt;Node21 -->
<g id="edge28" class="edge">
<title>Node4&#45;&gt;Node21</title>
<path fill="none" stroke="midnightblue" d="M1638.13,-489.06C1669.81,-480.42 1704.46,-468.86 1734.5,-454 1761.75,-440.52 1828.41,-388.07 1864.44,-359.06"/>
<polygon fill="midnightblue" stroke="midnightblue" points="1637.16,-485.7 1628.4,-491.65 1638.96,-492.46 1637.16,-485.7"/>
</g>
<!-- Node22 -->
<g id="node22" class="node">
<title>Node22</title>
<g id="a_node22"><a xlink:href="../../de/dc7/_c_c_control_switch_8h.html" target="_top" xlink:title=" ">
<polygon fill="none" stroke="black" points="812,-318 812,-359 1021,-359 1021,-318 812,-318"/>
<text text-anchor="start" x="820" y="-347" font-family="Helvetica,sans-Serif" font-size="10.00">/home/runner/work/cocos2d.h</text>
<text text-anchor="start" x="820" y="-336" font-family="Helvetica,sans-Serif" font-size="10.00">/cocos2d.h/extensions/GUI</text>
<text text-anchor="middle" x="916.5" y="-325" font-family="Helvetica,sans-Serif" font-size="10.00">/CCControlExtension/CCControlSwitch.h</text>
</a>
</g>
</g>
<!-- Node4&#45;&gt;Node22 -->
<g id="edge30" class="edge">
<title>Node4&#45;&gt;Node22</title>
<path fill="none" stroke="midnightblue" d="M1440.57,-508.47C1270.86,-504.82 938.99,-492.75 903.5,-454 879.99,-428.33 894.44,-384.66 906.12,-359.32"/>
<polygon fill="midnightblue" stroke="midnightblue" points="1440.69,-511.98 1450.76,-508.69 1440.84,-504.98 1440.69,-511.98"/>
</g>
<!-- Node23 -->
<g id="node23" class="node">
<title>Node23</title>
<g id="a_node23"><a xlink:href="../../d8/dec/_color_picker_delegate_8h.html" target="_top" xlink:title=" ">
<polygon fill="none" stroke="black" points="1426,-407 1426,-448 1653,-448 1653,-407 1426,-407"/>
<text text-anchor="start" x="1434" y="-436" font-family="Helvetica,sans-Serif" font-size="10.00">/home/runner/work/cocos2d.h</text>
<text text-anchor="start" x="1434" y="-425" font-family="Helvetica,sans-Serif" font-size="10.00">/cocos2d.h/extensions/GUI</text>
<text text-anchor="middle" x="1539.5" y="-414" font-family="Helvetica,sans-Serif" font-size="10.00">/CCControlExtension/ColorPickerDelegate.h</text>
</a>
</g>
</g>
<!-- Node4&#45;&gt;Node23 -->
<g id="edge32" class="edge">
<title>Node4&#45;&gt;Node23</title>
<path fill="none" stroke="midnightblue" d="M1539.5,-480.06C1539.5,-469.38 1539.5,-457.63 1539.5,-448.05"/>
<polygon fill="midnightblue" stroke="midnightblue" points="1536,-480.27 1539.5,-490.27 1543,-480.27 1536,-480.27"/>
</g>
<!-- Node5&#45;&gt;Node6 -->
<g id="edge6" class="edge">
<title>Node5&#45;&gt;Node6</title>
<path fill="none" stroke="midnightblue" d="M1973.22,-400.94C1985.68,-391.39 1997.66,-379.33 2004.5,-365 2014.64,-343.74 2020.13,-329.63 2004.5,-312 1981.67,-286.25 1785.38,-270.04 1655.53,-262.03"/>
<polygon fill="midnightblue" stroke="midnightblue" points="1971.09,-398.16 1965.02,-406.84 1975.18,-403.84 1971.09,-398.16"/>
</g>
<!-- Node6&#45;&gt;Node7 -->
<g id="edge7" class="edge">
<title>Node6&#45;&gt;Node7</title>
<path fill="none" stroke="midnightblue" d="M1426.87,-232.57C1360.36,-220.03 1277.98,-204.49 1218.14,-193.21"/>
<polygon fill="midnightblue" stroke="midnightblue" points="1426.5,-236.06 1436.98,-234.48 1427.8,-229.18 1426.5,-236.06"/>
</g>
<!-- Node15 -->
<g id="node15" class="node">
<title>Node15</title>
<g id="a_node15"><a xlink:href="../../d3/d58/cocos-ext_8h.html" target="_top" xlink:title=" ">
<polygon fill="none" stroke="black" points="2007.5,-84 2007.5,-114 2191.5,-114 2191.5,-84 2007.5,-84"/>
<text text-anchor="start" x="2015.5" y="-102" font-family="Helvetica,sans-Serif" font-size="10.00">/home/runner/work/cocos2d.h</text>
<text text-anchor="middle" x="2099.5" y="-91" font-family="Helvetica,sans-Serif" font-size="10.00">/cocos2d.h/extensions/cocos&#45;ext.h</text>
</a>
</g>
</g>
<!-- Node6&#45;&gt;Node15 -->
<g id="edge16" class="edge">
<title>Node6&#45;&gt;Node15</title>
<path fill="none" stroke="midnightblue" d="M1621.26,-231.75C1738.08,-199.57 1950.86,-140.95 2048.3,-114.11"/>
<polygon fill="midnightblue" stroke="midnightblue" points="1620.01,-228.47 1611.3,-234.5 1621.87,-235.21 1620.01,-228.47"/>
</g>
<!-- Node7&#45;&gt;Node8 -->
<g id="edge8" class="edge">
<title>Node7&#45;&gt;Node8</title>
<path fill="none" stroke="midnightblue" d="M1046.75,-163.2C943.91,-148.7 777.83,-125.29 679.3,-111.39"/>
<polygon fill="midnightblue" stroke="midnightblue" points="1046.42,-166.69 1056.81,-164.62 1047.39,-159.76 1046.42,-166.69"/>
</g>
<!-- Node7&#45;&gt;Node15 -->
<g id="edge15" class="edge">
<title>Node7&#45;&gt;Node15</title>
<path fill="none" stroke="midnightblue" d="M1228.42,-168.82C1411.55,-154.35 1823.04,-121.84 2007.26,-107.29"/>
<polygon fill="midnightblue" stroke="midnightblue" points="1227.97,-165.34 1218.28,-169.62 1228.52,-172.32 1227.97,-165.34"/>
</g>
<!-- Node8&#45;&gt;Node9 -->
<g id="edge9" class="edge">
<title>Node8&#45;&gt;Node9</title>
<path fill="none" stroke="midnightblue" d="M507.85,-86.39C427.47,-75.8 306.96,-59.23 202.5,-42 199.45,-41.5 196.36,-40.98 193.23,-40.44"/>
<polygon fill="midnightblue" stroke="midnightblue" points="507.57,-89.88 517.94,-87.71 508.48,-82.94 507.57,-89.88"/>
</g>
<!-- Node8&#45;&gt;Node10 -->
<g id="edge10" class="edge">
<title>Node8&#45;&gt;Node10</title>
<path fill="none" stroke="midnightblue" d="M511.07,-75.92C467.95,-65.04 416.4,-52.02 374.75,-41.51"/>
<polygon fill="midnightblue" stroke="midnightblue" points="510.43,-79.37 520.99,-78.43 512.15,-72.59 510.43,-79.37"/>
</g>
<!-- Node8&#45;&gt;Node11 -->
<g id="edge11" class="edge">
<title>Node8&#45;&gt;Node11</title>
<path fill="none" stroke="midnightblue" d="M562.12,-72.64C547.57,-62.49 531.07,-50.98 517.48,-41.51"/>
<polygon fill="midnightblue" stroke="midnightblue" points="560.23,-75.58 570.43,-78.43 564.23,-69.84 560.23,-75.58"/>
</g>
<!-- Node8&#45;&gt;Node12 -->
<g id="edge12" class="edge">
<title>Node8&#45;&gt;Node12</title>
<path fill="none" stroke="midnightblue" d="M681.21,-75.79C721.65,-64.93 769.87,-51.98 808.87,-41.51"/>
<polygon fill="midnightblue" stroke="midnightblue" points="680.13,-72.45 671.38,-78.43 681.95,-79.21 680.13,-72.45"/>
</g>
<!-- Node8&#45;&gt;Node13 -->
<g id="edge13" class="edge">
<title>Node8&#45;&gt;Node13</title>
<path fill="none" stroke="midnightblue" d="M689.25,-84.28C703.39,-82.16 717.84,-80.01 731.5,-78 842.56,-61.65 870.94,-61.46 981.5,-42 984.43,-41.48 987.42,-40.94 990.42,-40.39"/>
<polygon fill="midnightblue" stroke="midnightblue" points="688.39,-80.87 679.02,-85.81 689.43,-87.79 688.39,-80.87"/>
</g>
<!-- Node14 -->
<g id="node14" class="node">
<title>Node14</title>
<g id="a_node14"><a xlink:href="../../d4/d91/_c_c_edit_box_impl_wp8_8h.html" target="_top" xlink:title=" ">
<polygon fill="none" stroke="black" points="595,-0.5 595,-41.5 772,-41.5 772,-0.5 595,-0.5"/>
<text text-anchor="start" x="603" y="-29.5" font-family="Helvetica,sans-Serif" font-size="10.00">/home/runner/work/cocos2d.h</text>
<text text-anchor="start" x="603" y="-18.5" font-family="Helvetica,sans-Serif" font-size="10.00">/cocos2d.h/extensions/GUI</text>
<text text-anchor="middle" x="683.5" y="-7.5" font-family="Helvetica,sans-Serif" font-size="10.00">/CCEditBox/CCEditBoxImplWp8.h</text>
</a>
</g>
</g>
<!-- Node8&#45;&gt;Node14 -->
<g id="edge14" class="edge">
<title>Node8&#45;&gt;Node14</title>
<path fill="none" stroke="midnightblue" d="M628.15,-71.49C639.18,-61.63 651.48,-50.63 661.68,-41.51"/>
<polygon fill="midnightblue" stroke="midnightblue" points="625.51,-69.15 620.39,-78.43 630.18,-74.37 625.51,-69.15"/>
</g>
<!-- Node16&#45;&gt;Node6 -->
<g id="edge18" class="edge">
<title>Node16&#45;&gt;Node6</title>
<path fill="none" stroke="midnightblue" d="M1287.57,-311.77C1347.28,-298.23 1404.47,-285.62 1450.51,-275.55"/>
<polygon fill="midnightblue" stroke="midnightblue" points="1286.55,-308.41 1277.57,-314.04 1288.1,-315.24 1286.55,-308.41"/>
</g>
<!-- Node17&#45;&gt;Node16 -->
<g id="edge21" class="edge">
<title>Node17&#45;&gt;Node16</title>
<path fill="none" stroke="midnightblue" d="M1093.59,-400.85C1109.24,-389.4 1127.63,-375.96 1143.19,-364.58"/>
<polygon fill="midnightblue" stroke="midnightblue" points="1091.21,-398.25 1085.21,-406.98 1095.34,-403.9 1091.21,-398.25"/>
</g>
<!-- Node18&#45;&gt;Node6 -->
<g id="edge23" class="edge">
<title>Node18&#45;&gt;Node6</title>
<path fill="none" stroke="midnightblue" d="M1456.12,-312.37C1473.81,-300.55 1494.58,-286.67 1511.09,-275.64"/>
<polygon fill="midnightblue" stroke="midnightblue" points="1454.09,-309.51 1447.72,-317.98 1457.98,-315.33 1454.09,-309.51"/>
</g>
<!-- Node19&#45;&gt;Node16 -->
<g id="edge25" class="edge">
<title>Node19&#45;&gt;Node16</title>
<path fill="none" stroke="midnightblue" d="M1254.99,-395.22C1241.01,-385.16 1225.71,-374.16 1212.42,-364.61"/>
<polygon fill="midnightblue" stroke="midnightblue" points="1253.34,-398.34 1263.5,-401.34 1257.43,-392.66 1253.34,-398.34"/>
</g>
<!-- Node20&#45;&gt;Node6 -->
<g id="edge27" class="edge">
<title>Node20&#45;&gt;Node6</title>
<path fill="none" stroke="midnightblue" d="M1624.18,-312.37C1606.64,-300.55 1586.04,-286.67 1569.67,-275.64"/>
<polygon fill="midnightblue" stroke="midnightblue" points="1622.27,-315.3 1632.52,-317.98 1626.18,-309.49 1622.27,-315.3"/>
</g>
<!-- Node21&#45;&gt;Node6 -->
<g id="edge29" class="edge">
<title>Node21&#45;&gt;Node6</title>
<path fill="none" stroke="midnightblue" d="M1795.33,-315.68C1741.92,-303.17 1675.44,-287.6 1623.78,-275.5"/>
<polygon fill="midnightblue" stroke="midnightblue" points="1794.61,-319.11 1805.15,-317.98 1796.21,-312.29 1794.61,-319.11"/>
</g>
<!-- Node22&#45;&gt;Node6 -->
<g id="edge31" class="edge">
<title>Node22&#45;&gt;Node6</title>
<path fill="none" stroke="midnightblue" d="M1012.82,-316C1020.47,-314.56 1028.1,-313.2 1035.5,-312 1168.61,-290.41 1322.83,-274.64 1425.48,-265.43"/>
<polygon fill="midnightblue" stroke="midnightblue" points="1011.9,-312.61 1002.75,-317.95 1013.23,-319.49 1011.9,-312.61"/>
</g>
<!-- Node23&#45;&gt;Node16 -->
<g id="edge33" class="edge">
<title>Node23&#45;&gt;Node16</title>
<path fill="none" stroke="midnightblue" d="M1448.37,-404.6C1396.32,-392.09 1330.99,-376.39 1277.52,-363.54"/>
<polygon fill="midnightblue" stroke="midnightblue" points="1447.72,-408.04 1458.26,-406.98 1449.35,-401.24 1447.72,-408.04"/>
</g>
<!-- Node24&#45;&gt;Node5 -->
<g id="edge35" class="edge">
<title>Node24&#45;&gt;Node5</title>
<path fill="none" stroke="midnightblue" d="M1928.5,-480.06C1928.5,-469.38 1928.5,-457.63 1928.5,-448.05"/>
<polygon fill="midnightblue" stroke="midnightblue" points="1925,-480.27 1928.5,-490.27 1932,-480.27 1925,-480.27"/>
</g>
<!-- Node24&#45;&gt;Node6 -->
<g id="edge36" class="edge">
<title>Node24&#45;&gt;Node6</title>
<path fill="none" stroke="midnightblue" d="M2007.64,-485.61C2021.49,-477.74 2034.13,-467.43 2042.5,-454 2076.2,-399.9 2069.88,-354.63 2022.5,-312 1995.73,-287.91 1789.66,-271.02 1655.77,-262.45"/>
<polygon fill="midnightblue" stroke="midnightblue" points="2005.63,-482.71 1998.39,-490.44 2008.88,-488.91 2005.63,-482.71"/>
</g>
<!-- Node25&#45;&gt;Node15 -->
<g id="edge47" class="edge">
<title>Node25&#45;&gt;Node15</title>
<path fill="none" stroke="midnightblue" d="M2058.99,-227.25C2067.11,-218.67 2075.11,-208.61 2080.5,-198 2094.47,-170.5 2098.2,-133.86 2099.17,-114.09"/>
<polygon fill="midnightblue" stroke="midnightblue" points="2056.46,-224.83 2051.89,-234.39 2061.43,-229.76 2056.46,-224.83"/>
</g>
<!-- Node26 -->
<g id="node26" class="node">
<title>Node26</title>
<g id="a_node26"><a xlink:href="../../d8/dbb/_c_c_table_view_8h.html" target="_top" xlink:title=" ">
<polygon fill="none" stroke="black" points="1910,-156.5 1910,-197.5 2071,-197.5 2071,-156.5 1910,-156.5"/>
<text text-anchor="start" x="1918" y="-185.5" font-family="Helvetica,sans-Serif" font-size="10.00">/home/runner/work/cocos2d.h</text>
<text text-anchor="start" x="1918" y="-174.5" font-family="Helvetica,sans-Serif" font-size="10.00">/cocos2d.h/extensions/GUI</text>
<text text-anchor="middle" x="1990.5" y="-163.5" font-family="Helvetica,sans-Serif" font-size="10.00">/CCScrollView/CCTableView.h</text>
</a>
</g>
</g>
<!-- Node25&#45;&gt;Node26 -->
<g id="edge45" class="edge">
<title>Node25&#45;&gt;Node26</title>
<path fill="none" stroke="midnightblue" d="M2014.23,-225.47C2009.57,-216.14 2004.5,-206.01 2000.25,-197.51"/>
<polygon fill="midnightblue" stroke="midnightblue" points="2011.11,-227.05 2018.71,-234.43 2017.37,-223.92 2011.11,-227.05"/>
</g>
<!-- Node26&#45;&gt;Node15 -->
<g id="edge46" class="edge">
<title>Node26&#45;&gt;Node15</title>
<path fill="none" stroke="midnightblue" d="M2026.85,-150.66C2044.25,-138.53 2064.43,-124.45 2079.1,-114.23"/>
<polygon fill="midnightblue" stroke="midnightblue" points="2024.77,-147.84 2018.57,-156.43 2028.77,-153.58 2024.77,-147.84"/>
</g>
<!-- Node27&#45;&gt;Node15 -->
<g id="edge49" class="edge">
<title>Node27&#45;&gt;Node15</title>
<path fill="none" stroke="midnightblue" d="M2235.85,-308.53C2219.09,-271.54 2187.4,-206.33 2151.5,-156 2140.56,-140.66 2125.76,-125.11 2114.74,-114.3"/>
<polygon fill="midnightblue" stroke="midnightblue" points="2232.7,-310.04 2239.98,-317.73 2239.08,-307.18 2232.7,-310.04"/>
</g>
<!-- Node28&#45;&gt;Node15 -->
<g id="edge51" class="edge">
<title>Node28&#45;&gt;Node15</title>
<path fill="none" stroke="midnightblue" d="M2300.31,-482.44C2324.58,-450.24 2359.5,-394.38 2359.5,-339.5 2359.5,-339.5 2359.5,-339.5 2359.5,-254 2359.5,-171.24 2260.77,-132 2184.99,-114.07"/>
<polygon fill="midnightblue" stroke="midnightblue" points="2297.44,-480.43 2294.09,-490.48 2302.98,-484.71 2297.44,-480.43"/>
</g>
<!-- Node28&#45;&gt;Node27 -->
<g id="edge52" class="edge">
<title>Node28&#45;&gt;Node27</title>
<path fill="none" stroke="midnightblue" d="M2293.69,-480.97C2303.94,-458.65 2313.54,-427.28 2303.5,-401 2297.32,-384.81 2284.69,-370.18 2273.09,-359.26"/>
<polygon fill="midnightblue" stroke="midnightblue" points="2290.4,-479.72 2289.15,-490.24 2296.69,-482.8 2290.4,-479.72"/>
</g>
<!-- Node28&#45;&gt;Node29 -->
<g id="edge53" class="edge">
<title>Node28&#45;&gt;Node29</title>
<path fill="none" stroke="midnightblue" d="M2254.8,-482.38C2245.53,-471.11 2235.02,-458.33 2226.57,-448.05"/>
<polygon fill="midnightblue" stroke="midnightblue" points="2252.23,-484.77 2261.28,-490.27 2257.63,-480.32 2252.23,-484.77"/>
</g>
<!-- Node29&#45;&gt;Node15 -->
<g id="edge54" class="edge">
<title>Node29&#45;&gt;Node15</title>
<path fill="none" stroke="midnightblue" d="M2181.56,-399.6C2172.3,-389.56 2162.81,-377.54 2156.5,-365 2133.65,-319.6 2108.78,-162.16 2101.57,-114.06"/>
<polygon fill="midnightblue" stroke="midnightblue" points="2179.1,-402.08 2188.55,-406.86 2184.14,-397.23 2179.1,-402.08"/>
</g>
<!-- Node29&#45;&gt;Node27 -->
<g id="edge55" class="edge">
<title>Node29&#45;&gt;Node27</title>
<path fill="none" stroke="midnightblue" d="M2223.14,-397.56C2228.65,-384.95 2234.96,-370.5 2239.91,-359.16"/>
<polygon fill="midnightblue" stroke="midnightblue" points="2219.92,-396.19 2219.12,-406.76 2226.33,-399 2219.92,-396.19"/>
</g>
</g>
</svg>
