<?xml version="1.0" encoding="UTF-8" standalone="no"?>
<!DOCTYPE svg PUBLIC "-//W3C//DTD SVG 1.1//EN"
 "http://www.w3.org/Graphics/SVG/1.1/DTD/svg11.dtd">
<!-- Generated by graphviz version 2.43.0 (0)
 -->
<!-- Title: /home/runner/work/cocos2d.h/cocos2d.h/cocos2dx/robtop/xml/DS_Dictionary.h Pages: 1 -->
<svg width="2600pt" height="687pt"
 viewBox="0.00 0.00 2600.00 687.00" xmlns="http://www.w3.org/2000/svg" xmlns:xlink="http://www.w3.org/1999/xlink">
<g id="graph0" class="graph" transform="scale(1 1) rotate(0) translate(4 683)">
<title>/home/runner/work/cocos2d.h/cocos2d.h/cocos2dx/robtop/xml/DS_Dictionary.h</title>
<!-- Node1 -->
<g id="node1" class="node">
<title>Node1</title>
<g id="a_node1"><a xlink:title=" ">
<polygon fill="#999999" stroke="#666666" points="902,-679 741,-679 741,-638 902,-638 902,-679"/>
<text text-anchor="start" x="749" y="-667" font-family="Helvetica,sans-Serif" font-size="10.00">/home/runner/work/cocos2d.h</text>
<text text-anchor="start" x="749" y="-656" font-family="Helvetica,sans-Serif" font-size="10.00">/cocos2d.h/cocos2dx/robtop</text>
<text text-anchor="middle" x="821.5" y="-645" font-family="Helvetica,sans-Serif" font-size="10.00">/xml/DS_Dictionary.h</text>
</a>
</g>
</g>
<!-- Node2 -->
<g id="node2" class="node">
<title>Node2</title>
<g id="a_node2"><a xlink:href="../../dc/dfd/cocos2d_8h.html" target="_top" xlink:title=" ">
<polygon fill="white" stroke="#666666" points="902,-602 741,-602 741,-561 902,-561 902,-602"/>
<text text-anchor="start" x="749" y="-590" font-family="Helvetica,sans-Serif" font-size="10.00">/home/runner/work/cocos2d.h</text>
<text text-anchor="start" x="749" y="-579" font-family="Helvetica,sans-Serif" font-size="10.00">/cocos2d.h/cocos2dx/include</text>
<text text-anchor="middle" x="821.5" y="-568" font-family="Helvetica,sans-Serif" font-size="10.00">/cocos2d.h</text>
</a>
</g>
</g>
<!-- Node1&#45;&gt;Node2 -->
<g id="edge1" class="edge">
<title>Node1&#45;&gt;Node2</title>
<path fill="none" stroke="#63b8ff" d="M814.88,-627.69C814.59,-619.08 814.79,-609.9 815.49,-602.07"/>
<polygon fill="#63b8ff" stroke="#63b8ff" points="811.39,-628.02 815.48,-637.79 818.38,-627.6 811.39,-628.02"/>
</g>
<!-- Node2&#45;&gt;Node1 -->
<g id="edge2" class="edge">
<title>Node2&#45;&gt;Node1</title>
<path fill="none" stroke="#63b8ff" d="M828.12,-612.16C828.41,-620.77 828.21,-629.96 827.52,-637.79"/>
<polygon fill="#63b8ff" stroke="#63b8ff" points="831.6,-611.85 827.51,-602.07 824.62,-612.27 831.6,-611.85"/>
</g>
<!-- Node3 -->
<g id="node3" class="node">
<title>Node3</title>
<g id="a_node3"><a xlink:href="../../d3/db7/_assets_manager_8h.html" target="_top" xlink:title=" ">
<polygon fill="white" stroke="#666666" points="385,-525 182,-525 182,-484 385,-484 385,-525"/>
<text text-anchor="start" x="190" y="-513" font-family="Helvetica,sans-Serif" font-size="10.00">/home/runner/work/cocos2d.h</text>
<text text-anchor="start" x="190" y="-502" font-family="Helvetica,sans-Serif" font-size="10.00">/cocos2d.h/extensions/AssetsManager</text>
<text text-anchor="middle" x="283.5" y="-491" font-family="Helvetica,sans-Serif" font-size="10.00">/AssetsManager.h</text>
</a>
</g>
</g>
<!-- Node2&#45;&gt;Node3 -->
<g id="edge3" class="edge">
<title>Node2&#45;&gt;Node3</title>
<path fill="none" stroke="#63b8ff" d="M730.93,-569.54C645.39,-558.96 513.56,-542.08 399.5,-525 394.75,-524.29 389.9,-523.54 385,-522.78"/>
<polygon fill="#63b8ff" stroke="#63b8ff" points="730.52,-573.02 740.87,-570.77 731.38,-566.07 730.52,-573.02"/>
</g>
<!-- Node4 -->
<g id="node4" class="node">
<title>Node4</title>
<g id="a_node4"><a xlink:href="../../de/d8b/_c_c_control_8h.html" target="_top" xlink:title=" ">
<polygon fill="white" stroke="#666666" points="1628,-525 1451,-525 1451,-484 1628,-484 1628,-525"/>
<text text-anchor="start" x="1459" y="-513" font-family="Helvetica,sans-Serif" font-size="10.00">/home/runner/work/cocos2d.h</text>
<text text-anchor="start" x="1459" y="-502" font-family="Helvetica,sans-Serif" font-size="10.00">/cocos2d.h/extensions/GUI</text>
<text text-anchor="middle" x="1539.5" y="-491" font-family="Helvetica,sans-Serif" font-size="10.00">/CCControlExtension/CCControl.h</text>
</a>
</g>
</g>
<!-- Node2&#45;&gt;Node4 -->
<g id="edge4" class="edge">
<title>Node2&#45;&gt;Node4</title>
<path fill="none" stroke="#63b8ff" d="M912.29,-571.02C1050.89,-556.54 1313.6,-529.1 1450.89,-514.76"/>
<polygon fill="#63b8ff" stroke="#63b8ff" points="911.7,-567.56 902.12,-572.08 912.43,-574.52 911.7,-567.56"/>
</g>
<!-- Node7 -->
<g id="node7" class="node">
<title>Node7</title>
<g id="a_node7"><a xlink:href="../../dc/d4a/_c_c_edit_box_8h.html" target="_top" xlink:title=" ">
<polygon fill="white" stroke="#666666" points="1218,-195 1057,-195 1057,-154 1218,-154 1218,-195"/>
<text text-anchor="start" x="1065" y="-183" font-family="Helvetica,sans-Serif" font-size="10.00">/home/runner/work/cocos2d.h</text>
<text text-anchor="start" x="1065" y="-172" font-family="Helvetica,sans-Serif" font-size="10.00">/cocos2d.h/extensions/GUI</text>
<text text-anchor="middle" x="1137.5" y="-161" font-family="Helvetica,sans-Serif" font-size="10.00">/CCEditBox/CCEditBox.h</text>
</a>
</g>
</g>
<!-- Node2&#45;&gt;Node7 -->
<g id="edge37" class="edge">
<title>Node2&#45;&gt;Node7</title>
<path fill="none" stroke="#63b8ff" d="M810.17,-551.58C798.97,-520.37 783.5,-468.94 783.5,-423 783.5,-423 783.5,-423 783.5,-333 783.5,-214.11 952.25,-184.31 1056.73,-177.25"/>
<polygon fill="#63b8ff" stroke="#63b8ff" points="806.88,-552.8 813.63,-560.98 813.45,-550.38 806.88,-552.8"/>
</g>
<!-- Node8 -->
<g id="node8" class="node">
<title>Node8</title>
<g id="a_node8"><a xlink:href="../../db/da9/_c_c_edit_box_impl_8h.html" target="_top" xlink:title=" ">
<polygon fill="white" stroke="#666666" points="679,-118 518,-118 518,-77 679,-77 679,-118"/>
<text text-anchor="start" x="526" y="-106" font-family="Helvetica,sans-Serif" font-size="10.00">/home/runner/work/cocos2d.h</text>
<text text-anchor="start" x="526" y="-95" font-family="Helvetica,sans-Serif" font-size="10.00">/cocos2d.h/extensions/GUI</text>
<text text-anchor="middle" x="598.5" y="-84" font-family="Helvetica,sans-Serif" font-size="10.00">/CCEditBox/CCEditBoxImpl.h</text>
</a>
</g>
</g>
<!-- Node2&#45;&gt;Node8 -->
<g id="edge38" class="edge">
<title>Node2&#45;&gt;Node8</title>
<path fill="none" stroke="#63b8ff" d="M745.69,-557.03C727.23,-548.9 708.51,-538.37 693.5,-525 654.4,-490.16 634.5,-475.37 634.5,-423 634.5,-423 634.5,-423 634.5,-250.5 634.5,-201.96 616.9,-146.98 606.31,-118.31"/>
<polygon fill="#63b8ff" stroke="#63b8ff" points="744.43,-560.3 755.01,-560.95 747.15,-553.85 744.43,-560.3"/>
</g>
<!-- Node9 -->
<g id="node9" class="node">
<title>Node9</title>
<g id="a_node9"><a xlink:href="../../d4/dd3/_c_c_edit_box_impl_android_8h.html" target="_top" xlink:title=" ">
<polygon fill="white" stroke="#666666" points="193,-41 0,-41 0,0 193,0 193,-41"/>
<text text-anchor="start" x="8" y="-29" font-family="Helvetica,sans-Serif" font-size="10.00">/home/runner/work/cocos2d.h</text>
<text text-anchor="start" x="8" y="-18" font-family="Helvetica,sans-Serif" font-size="10.00">/cocos2d.h/extensions/GUI</text>
<text text-anchor="middle" x="96.5" y="-7" font-family="Helvetica,sans-Serif" font-size="10.00">/CCEditBox/CCEditBoxImplAndroid.h</text>
</a>
</g>
</g>
<!-- Node2&#45;&gt;Node9 -->
<g id="edge39" class="edge">
<title>Node2&#45;&gt;Node9</title>
<path fill="none" stroke="#63b8ff" d="M730.47,-576.11C638.06,-569.99 502.87,-555.93 461.5,-525 421.37,-495 413.5,-473.1 413.5,-423 413.5,-423 413.5,-423 413.5,-173.5 413.5,-119.79 263.67,-68.09 170.02,-41.02"/>
<polygon fill="#63b8ff" stroke="#63b8ff" points="730.47,-579.62 740.67,-576.76 730.92,-572.63 730.47,-579.62"/>
</g>
<!-- Node10 -->
<g id="node10" class="node">
<title>Node10</title>
<g id="a_node10"><a xlink:href="../../dd/dfd/_c_c_edit_box_impl_i_o_s_8h.html" target="_top" xlink:title=" ">
<polygon fill="white" stroke="#666666" points="383.5,-41 211.5,-41 211.5,0 383.5,0 383.5,-41"/>
<text text-anchor="start" x="219.5" y="-29" font-family="Helvetica,sans-Serif" font-size="10.00">/home/runner/work/cocos2d.h</text>
<text text-anchor="start" x="219.5" y="-18" font-family="Helvetica,sans-Serif" font-size="10.00">/cocos2d.h/extensions/GUI</text>
<text text-anchor="middle" x="297.5" y="-7" font-family="Helvetica,sans-Serif" font-size="10.00">/CCEditBox/CCEditBoxImplIOS.h</text>
</a>
</g>
</g>
<!-- Node2&#45;&gt;Node10 -->
<g id="edge40" class="edge">
<title>Node2&#45;&gt;Node10</title>
<path fill="none" stroke="#63b8ff" d="M730.97,-573.07C651.57,-565.03 543.48,-549.89 508.5,-525 466.18,-494.9 451.5,-474.93 451.5,-423 451.5,-423 451.5,-423 451.5,-173.5 451.5,-129.3 456.16,-110.64 427.5,-77 413.74,-60.84 394.43,-49.26 374.9,-41.02"/>
<polygon fill="#63b8ff" stroke="#63b8ff" points="730.7,-576.56 740.99,-574.06 731.39,-569.59 730.7,-576.56"/>
</g>
<!-- Node11 -->
<g id="node11" class="node">
<title>Node11</title>
<g id="a_node11"><a xlink:href="../../d7/d4d/_c_c_edit_box_impl_mac_8h.html" target="_top" xlink:title=" ">
<polygon fill="white" stroke="#666666" points="577.5,-41 401.5,-41 401.5,0 577.5,0 577.5,-41"/>
<text text-anchor="start" x="409.5" y="-29" font-family="Helvetica,sans-Serif" font-size="10.00">/home/runner/work/cocos2d.h</text>
<text text-anchor="start" x="409.5" y="-18" font-family="Helvetica,sans-Serif" font-size="10.00">/cocos2d.h/extensions/GUI</text>
<text text-anchor="middle" x="489.5" y="-7" font-family="Helvetica,sans-Serif" font-size="10.00">/CCEditBox/CCEditBoxImplMac.h</text>
</a>
</g>
</g>
<!-- Node2&#45;&gt;Node11 -->
<g id="edge41" class="edge">
<title>Node2&#45;&gt;Node11</title>
<path fill="none" stroke="#63b8ff" d="M730.75,-575.45C632.45,-564.51 489.5,-530.17 489.5,-423 489.5,-423 489.5,-423 489.5,-173.5 489.5,-126 489.5,-70.15 489.5,-41.18"/>
<polygon fill="#63b8ff" stroke="#63b8ff" points="730.4,-578.93 740.71,-576.5 731.13,-571.97 730.4,-578.93"/>
</g>
<!-- Node12 -->
<g id="node12" class="node">
<title>Node12</title>
<g id="a_node12"><a xlink:href="../../de/dac/_c_c_edit_box_impl_tizen_8h.html" target="_top" xlink:title=" ">
<polygon fill="white" stroke="#666666" points="972.5,-41 790.5,-41 790.5,0 972.5,0 972.5,-41"/>
<text text-anchor="start" x="798.5" y="-29" font-family="Helvetica,sans-Serif" font-size="10.00">/home/runner/work/cocos2d.h</text>
<text text-anchor="start" x="798.5" y="-18" font-family="Helvetica,sans-Serif" font-size="10.00">/cocos2d.h/extensions/GUI</text>
<text text-anchor="middle" x="881.5" y="-7" font-family="Helvetica,sans-Serif" font-size="10.00">/CCEditBox/CCEditBoxImplTizen.h</text>
</a>
</g>
</g>
<!-- Node2&#45;&gt;Node12 -->
<g id="edge42" class="edge">
<title>Node2&#45;&gt;Node12</title>
<path fill="none" stroke="#63b8ff" d="M786.68,-554.51C753.16,-526.24 707.5,-477.69 707.5,-423 707.5,-423 707.5,-423 707.5,-173.5 707.5,-129.3 702.02,-109.93 731.5,-77 747.06,-59.62 768.55,-47.67 790.42,-39.46"/>
<polygon fill="#63b8ff" stroke="#63b8ff" points="784.53,-557.28 794.48,-560.92 788.98,-551.87 784.53,-557.28"/>
</g>
<!-- Node13 -->
<g id="node13" class="node">
<title>Node13</title>
<g id="a_node13"><a xlink:href="../../dd/d41/_c_c_edit_box_impl_win_8h.html" target="_top" xlink:title=" ">
<polygon fill="white" stroke="#666666" points="1164.5,-41 990.5,-41 990.5,0 1164.5,0 1164.5,-41"/>
<text text-anchor="start" x="998.5" y="-29" font-family="Helvetica,sans-Serif" font-size="10.00">/home/runner/work/cocos2d.h</text>
<text text-anchor="start" x="998.5" y="-18" font-family="Helvetica,sans-Serif" font-size="10.00">/cocos2d.h/extensions/GUI</text>
<text text-anchor="middle" x="1077.5" y="-7" font-family="Helvetica,sans-Serif" font-size="10.00">/CCEditBox/CCEditBoxImplWin.h</text>
</a>
</g>
</g>
<!-- Node2&#45;&gt;Node13 -->
<g id="edge43" class="edge">
<title>Node2&#45;&gt;Node13</title>
<path fill="none" stroke="#63b8ff" d="M810.09,-551.52C788.87,-494.97 745.5,-365.54 745.5,-252.5 745.5,-252.5 745.5,-252.5 745.5,-173.5 745.5,-118.19 899.76,-67.66 997.98,-41.09"/>
<polygon fill="#63b8ff" stroke="#63b8ff" points="806.83,-552.8 813.65,-560.9 813.37,-550.31 806.83,-552.8"/>
</g>
<!-- Node24 -->
<g id="node24" class="node">
<title>Node24</title>
<g id="a_node24"><a xlink:href="../../db/d24/_c_c_scale9_sprite_8h.html" target="_top" xlink:title=" ">
<polygon fill="white" stroke="#666666" points="2030,-525 1827,-525 1827,-484 2030,-484 2030,-525"/>
<text text-anchor="start" x="1835" y="-513" font-family="Helvetica,sans-Serif" font-size="10.00">/home/runner/work/cocos2d.h</text>
<text text-anchor="start" x="1835" y="-502" font-family="Helvetica,sans-Serif" font-size="10.00">/cocos2d.h/extensions/GUI</text>
<text text-anchor="middle" x="1928.5" y="-491" font-family="Helvetica,sans-Serif" font-size="10.00">/CCControlExtension/CCScale9Sprite.h</text>
</a>
</g>
</g>
<!-- Node2&#45;&gt;Node24 -->
<g id="edge34" class="edge">
<title>Node2&#45;&gt;Node24</title>
<path fill="none" stroke="#63b8ff" d="M912.1,-574.36C1116.47,-560.52 1612.16,-526.93 1826.71,-512.4"/>
<polygon fill="#63b8ff" stroke="#63b8ff" points="911.74,-570.88 902,-575.05 912.22,-577.86 911.74,-570.88"/>
</g>
<!-- Node25 -->
<g id="node25" class="node">
<title>Node25</title>
<g id="a_node25"><a xlink:href="../../de/d56/_c_c_scroll_view_8h.html" target="_top" xlink:title=" ">
<polygon fill="white" stroke="#666666" points="2109,-272 1948,-272 1948,-231 2109,-231 2109,-272"/>
<text text-anchor="start" x="1956" y="-260" font-family="Helvetica,sans-Serif" font-size="10.00">/home/runner/work/cocos2d.h</text>
<text text-anchor="start" x="1956" y="-249" font-family="Helvetica,sans-Serif" font-size="10.00">/cocos2d.h/extensions/GUI</text>
<text text-anchor="middle" x="2028.5" y="-238" font-family="Helvetica,sans-Serif" font-size="10.00">/CCScrollView/CCScrollView.h</text>
</a>
</g>
</g>
<!-- Node2&#45;&gt;Node25 -->
<g id="edge44" class="edge">
<title>Node2&#45;&gt;Node25</title>
<path fill="none" stroke="#63b8ff" d="M912.44,-579.12C1187.32,-574.58 1993.5,-558.48 2038.5,-525 2116.09,-467.28 2081.34,-400.91 2054.5,-308 2050.93,-295.63 2044.92,-282.56 2039.58,-272.2"/>
<polygon fill="#63b8ff" stroke="#63b8ff" points="912.04,-575.63 902.1,-579.29 912.16,-582.62 912.04,-575.63"/>
</g>
<!-- Node27 -->
<g id="node27" class="node">
<title>Node27</title>
<g id="a_node27"><a xlink:href="../../d8/d12/_http_client_8h.html" target="_top" xlink:title=" ">
<polygon fill="white" stroke="#666666" points="2332,-354.5 2165,-354.5 2165,-313.5 2332,-313.5 2332,-354.5"/>
<text text-anchor="start" x="2173" y="-342.5" font-family="Helvetica,sans-Serif" font-size="10.00">/home/runner/work/cocos2d.h</text>
<text text-anchor="start" x="2173" y="-331.5" font-family="Helvetica,sans-Serif" font-size="10.00">/cocos2d.h/extensions/network</text>
<text text-anchor="middle" x="2248.5" y="-320.5" font-family="Helvetica,sans-Serif" font-size="10.00">/HttpClient.h</text>
</a>
</g>
</g>
<!-- Node2&#45;&gt;Node27 -->
<g id="edge48" class="edge">
<title>Node2&#45;&gt;Node27</title>
<path fill="none" stroke="#63b8ff" d="M912.56,-580.68C1236.97,-580.9 2319.7,-577.65 2370.5,-525 2422.76,-470.83 2328,-391.04 2277.36,-354.53"/>
<polygon fill="#63b8ff" stroke="#63b8ff" points="912.27,-577.18 902.26,-580.68 912.26,-584.18 912.27,-577.18"/>
</g>
<!-- Node28 -->
<g id="node28" class="node">
<title>Node28</title>
<g id="a_node28"><a xlink:href="../../d3/d95/_http_request_8h.html" target="_top" xlink:title=" ">
<polygon fill="white" stroke="#666666" points="2361,-525 2194,-525 2194,-484 2361,-484 2361,-525"/>
<text text-anchor="start" x="2202" y="-513" font-family="Helvetica,sans-Serif" font-size="10.00">/home/runner/work/cocos2d.h</text>
<text text-anchor="start" x="2202" y="-502" font-family="Helvetica,sans-Serif" font-size="10.00">/cocos2d.h/extensions/network</text>
<text text-anchor="middle" x="2277.5" y="-491" font-family="Helvetica,sans-Serif" font-size="10.00">/HttpRequest.h</text>
</a>
</g>
</g>
<!-- Node2&#45;&gt;Node28 -->
<g id="edge50" class="edge">
<title>Node2&#45;&gt;Node28</title>
<path fill="none" stroke="#63b8ff" d="M912.24,-580.65C1128.91,-580.16 1693.32,-573.85 2161.5,-525 2171.96,-523.91 2182.91,-522.47 2193.72,-520.86"/>
<polygon fill="#63b8ff" stroke="#63b8ff" points="912.18,-577.15 902.18,-580.67 912.19,-584.15 912.18,-577.15"/>
</g>
<!-- Node29 -->
<g id="node29" class="node">
<title>Node29</title>
<g id="a_node29"><a xlink:href="../../d1/d33/_http_response_8h.html" target="_top" xlink:title=" ">
<polygon fill="white" stroke="#666666" points="2294,-442.5 2127,-442.5 2127,-401.5 2294,-401.5 2294,-442.5"/>
<text text-anchor="start" x="2135" y="-430.5" font-family="Helvetica,sans-Serif" font-size="10.00">/home/runner/work/cocos2d.h</text>
<text text-anchor="start" x="2135" y="-419.5" font-family="Helvetica,sans-Serif" font-size="10.00">/cocos2d.h/extensions/network</text>
<text text-anchor="middle" x="2210.5" y="-408.5" font-family="Helvetica,sans-Serif" font-size="10.00">/HttpResponse.h</text>
</a>
</g>
</g>
<!-- Node2&#45;&gt;Node29 -->
<g id="edge56" class="edge">
<title>Node2&#45;&gt;Node29</title>
<path fill="none" stroke="#63b8ff" d="M912.71,-580.51C1189.09,-580 2005.1,-574.28 2113.5,-525 2151.99,-507.5 2182.75,-467.07 2198.66,-442.7"/>
<polygon fill="#63b8ff" stroke="#63b8ff" points="912.31,-577.01 902.31,-580.53 912.32,-584.01 912.31,-577.01"/>
</g>
<!-- Node30 -->
<g id="node30" class="node">
<title>Node30</title>
<g id="a_node30"><a xlink:href="../../da/d1e/_web_socket_8h.html" target="_top" xlink:title=" ">
<polygon fill="white" stroke="#666666" points="2592,-525 2425,-525 2425,-484 2592,-484 2592,-525"/>
<text text-anchor="start" x="2433" y="-513" font-family="Helvetica,sans-Serif" font-size="10.00">/home/runner/work/cocos2d.h</text>
<text text-anchor="start" x="2433" y="-502" font-family="Helvetica,sans-Serif" font-size="10.00">/cocos2d.h/extensions/network</text>
<text text-anchor="middle" x="2508.5" y="-491" font-family="Helvetica,sans-Serif" font-size="10.00">/WebSocket.h</text>
</a>
</g>
</g>
<!-- Node2&#45;&gt;Node30 -->
<g id="edge57" class="edge">
<title>Node2&#45;&gt;Node30</title>
<path fill="none" stroke="#63b8ff" d="M912.3,-579.28C1204.42,-575.06 2118.01,-559.39 2411.5,-525 2415.85,-524.49 2420.3,-523.89 2424.78,-523.22"/>
<polygon fill="#63b8ff" stroke="#63b8ff" points="912.12,-575.79 902.17,-579.43 912.22,-582.79 912.12,-575.79"/>
</g>
<!-- Node5 -->
<g id="node5" class="node">
<title>Node5</title>
<g id="a_node5"><a xlink:href="../../d0/d7e/_c_c_control_button_8h.html" target="_top" xlink:title=" ">
<polygon fill="white" stroke="#666666" points="2033,-442.5 1824,-442.5 1824,-401.5 2033,-401.5 2033,-442.5"/>
<text text-anchor="start" x="1832" y="-430.5" font-family="Helvetica,sans-Serif" font-size="10.00">/home/runner/work/cocos2d.h</text>
<text text-anchor="start" x="1832" y="-419.5" font-family="Helvetica,sans-Serif" font-size="10.00">/cocos2d.h/extensions/GUI</text>
<text text-anchor="middle" x="1928.5" y="-408.5" font-family="Helvetica,sans-Serif" font-size="10.00">/CCControlExtension/CCControlButton.h</text>
</a>
</g>
</g>
<!-- Node4&#45;&gt;Node5 -->
<g id="edge5" class="edge">
<title>Node4&#45;&gt;Node5</title>
<path fill="none" stroke="#63b8ff" d="M1638.34,-483.29C1689.45,-472.81 1752.84,-459.78 1809.5,-448 1817.97,-446.24 1826.79,-444.4 1835.61,-442.56"/>
<polygon fill="#63b8ff" stroke="#63b8ff" points="1637.39,-479.91 1628.29,-485.35 1638.79,-486.77 1637.39,-479.91"/>
</g>
<!-- Node6 -->
<g id="node6" class="node">
<title>Node6</title>
<g id="a_node6"><a xlink:href="../../d6/d86/_c_c_control_extensions_8h.html" target="_top" xlink:title=" ">
<polygon fill="white" stroke="#666666" points="1655.5,-272 1425.5,-272 1425.5,-231 1655.5,-231 1655.5,-272"/>
<text text-anchor="start" x="1433.5" y="-260" font-family="Helvetica,sans-Serif" font-size="10.00">/home/runner/work/cocos2d.h</text>
<text text-anchor="start" x="1433.5" y="-249" font-family="Helvetica,sans-Serif" font-size="10.00">/cocos2d.h/extensions/GUI</text>
<text text-anchor="middle" x="1540.5" y="-238" font-family="Helvetica,sans-Serif" font-size="10.00">/CCControlExtension/CCControlExtensions.h</text>
</a>
</g>
</g>
<!-- Node4&#45;&gt;Node6 -->
<g id="edge19" class="edge">
<title>Node4&#45;&gt;Node6</title>
<path fill="none" stroke="#63b8ff" d="M1440.72,-501.54C1278.39,-497.28 969.75,-484.45 936.5,-448 920.92,-430.93 923.44,-415.06 936.5,-396 961.55,-359.44 994.17,-386.76 1029.5,-360 1052.53,-342.56 1043.46,-322.41 1068.5,-308 1127.32,-274.15 1305.44,-260.89 1425.25,-255.73"/>
<polygon fill="#63b8ff" stroke="#63b8ff" points="1440.64,-505.04 1450.72,-501.8 1440.82,-498.04 1440.64,-505.04"/>
</g>
<!-- Node16 -->
<g id="node16" class="node">
<title>Node16</title>
<g id="a_node16"><a xlink:href="../../d3/db7/_c_c_control_colour_picker_8h.html" target="_top" xlink:title=" ">
<polygon fill="white" stroke="#666666" points="1277.5,-360 1077.5,-360 1077.5,-308 1277.5,-308 1277.5,-360"/>
<text text-anchor="start" x="1085.5" y="-348" font-family="Helvetica,sans-Serif" font-size="10.00">/home/runner/work/cocos2d.h</text>
<text text-anchor="start" x="1085.5" y="-337" font-family="Helvetica,sans-Serif" font-size="10.00">/cocos2d.h/extensions/GUI</text>
<text text-anchor="start" x="1085.5" y="-326" font-family="Helvetica,sans-Serif" font-size="10.00">/CCControlExtension/CCControlColour</text>
<text text-anchor="middle" x="1177.5" y="-315" font-family="Helvetica,sans-Serif" font-size="10.00">Picker.h</text>
</a>
</g>
</g>
<!-- Node4&#45;&gt;Node16 -->
<g id="edge17" class="edge">
<title>Node4&#45;&gt;Node16</title>
<path fill="none" stroke="#63b8ff" d="M1625.94,-479.44C1640.04,-471.68 1652.84,-461.45 1661.5,-448 1674.01,-428.57 1677.04,-413.11 1661.5,-396 1633.35,-365.02 1327.82,-366.69 1286.5,-360 1283.63,-359.53 1280.71,-359.04 1277.78,-358.51"/>
<polygon fill="#63b8ff" stroke="#63b8ff" points="1624.36,-476.32 1617.02,-483.97 1627.52,-482.57 1624.36,-476.32"/>
</g>
<!-- Node17 -->
<g id="node17" class="node">
<title>Node17</title>
<g id="a_node17"><a xlink:href="../../dd/d5a/_c_c_control_hue_picker_8h.html" target="_top" xlink:title=" ">
<polygon fill="white" stroke="#666666" points="1171,-442.5 946,-442.5 946,-401.5 1171,-401.5 1171,-442.5"/>
<text text-anchor="start" x="954" y="-430.5" font-family="Helvetica,sans-Serif" font-size="10.00">/home/runner/work/cocos2d.h</text>
<text text-anchor="start" x="954" y="-419.5" font-family="Helvetica,sans-Serif" font-size="10.00">/cocos2d.h/extensions/GUI</text>
<text text-anchor="middle" x="1058.5" y="-408.5" font-family="Helvetica,sans-Serif" font-size="10.00">/CCControlExtension/CCControlHuePicker.h</text>
</a>
</g>
</g>
<!-- Node4&#45;&gt;Node17 -->
<g id="edge20" class="edge">
<title>Node4&#45;&gt;Node17</title>
<path fill="none" stroke="#63b8ff" d="M1440.78,-489.56C1368.54,-479.04 1268.24,-463.76 1180.5,-448 1171.03,-446.3 1161.17,-444.43 1151.33,-442.51"/>
<polygon fill="#63b8ff" stroke="#63b8ff" points="1440.38,-493.04 1450.78,-491.01 1441.39,-486.11 1440.38,-493.04"/>
</g>
<!-- Node18 -->
<g id="node18" class="node">
<title>Node18</title>
<g id="a_node18"><a xlink:href="../../d2/d29/_c_c_control_potentiometer_8h.html" target="_top" xlink:title=" ">
<polygon fill="white" stroke="#666666" points="1541.5,-354.5 1295.5,-354.5 1295.5,-313.5 1541.5,-313.5 1541.5,-354.5"/>
<text text-anchor="start" x="1303.5" y="-342.5" font-family="Helvetica,sans-Serif" font-size="10.00">/home/runner/work/cocos2d.h</text>
<text text-anchor="start" x="1303.5" y="-331.5" font-family="Helvetica,sans-Serif" font-size="10.00">/cocos2d.h/extensions/GUI</text>
<text text-anchor="middle" x="1418.5" y="-320.5" font-family="Helvetica,sans-Serif" font-size="10.00">/CCControlExtension/CCControlPotentiometer.h</text>
</a>
</g>
</g>
<!-- Node4&#45;&gt;Node18 -->
<g id="edge22" class="edge">
<title>Node4&#45;&gt;Node18</title>
<path fill="none" stroke="#63b8ff" d="M1637.99,-488.46C1660.45,-480.22 1681.72,-467.52 1695.5,-448 1708.82,-429.12 1709.98,-414.01 1695.5,-396 1689.78,-388.89 1597.79,-369.56 1521.37,-354.54"/>
<polygon fill="#63b8ff" stroke="#63b8ff" points="1636.67,-485.22 1628.31,-491.73 1638.91,-491.85 1636.67,-485.22"/>
</g>
<!-- Node19 -->
<g id="node19" class="node">
<title>Node19</title>
<g id="a_node19"><a xlink:href="../../de/d08/_c_c_control_saturation_brightness_picker_8h.html" target="_top" xlink:title=" ">
<polygon fill="white" stroke="#666666" points="1407.5,-448 1189.5,-448 1189.5,-396 1407.5,-396 1407.5,-448"/>
<text text-anchor="start" x="1197.5" y="-436" font-family="Helvetica,sans-Serif" font-size="10.00">/home/runner/work/cocos2d.h</text>
<text text-anchor="start" x="1197.5" y="-425" font-family="Helvetica,sans-Serif" font-size="10.00">/cocos2d.h/extensions/GUI</text>
<text text-anchor="start" x="1197.5" y="-414" font-family="Helvetica,sans-Serif" font-size="10.00">/CCControlExtension/CCControlSaturation</text>
<text text-anchor="middle" x="1298.5" y="-403" font-family="Helvetica,sans-Serif" font-size="10.00">BrightnessPicker.h</text>
</a>
</g>
</g>
<!-- Node4&#45;&gt;Node19 -->
<g id="edge24" class="edge">
<title>Node4&#45;&gt;Node19</title>
<path fill="none" stroke="#63b8ff" d="M1471.16,-480.67C1440.68,-470.49 1404.68,-458.47 1373.46,-448.04"/>
<polygon fill="#63b8ff" stroke="#63b8ff" points="1470.26,-484.06 1480.85,-483.91 1472.48,-477.42 1470.26,-484.06"/>
</g>
<!-- Node20 -->
<g id="node20" class="node">
<title>Node20</title>
<g id="a_node20"><a xlink:href="../../d6/d7e/_c_c_control_slider_8h.html" target="_top" xlink:title=" ">
<polygon fill="white" stroke="#666666" points="1763.5,-354.5 1559.5,-354.5 1559.5,-313.5 1763.5,-313.5 1763.5,-354.5"/>
<text text-anchor="start" x="1567.5" y="-342.5" font-family="Helvetica,sans-Serif" font-size="10.00">/home/runner/work/cocos2d.h</text>
<text text-anchor="start" x="1567.5" y="-331.5" font-family="Helvetica,sans-Serif" font-size="10.00">/cocos2d.h/extensions/GUI</text>
<text text-anchor="middle" x="1661.5" y="-320.5" font-family="Helvetica,sans-Serif" font-size="10.00">/CCControlExtension/CCControlSlider.h</text>
</a>
</g>
</g>
<!-- Node4&#45;&gt;Node20 -->
<g id="edge26" class="edge">
<title>Node4&#45;&gt;Node20</title>
<path fill="none" stroke="#63b8ff" d="M1638.38,-494.66C1667.94,-486.85 1697.29,-472.84 1715.5,-448 1729.17,-429.36 1723.69,-417.61 1715.5,-396 1709.43,-380 1697.04,-365.49 1685.65,-354.65"/>
<polygon fill="#63b8ff" stroke="#63b8ff" points="1637.26,-491.33 1628.36,-497.08 1638.9,-498.13 1637.26,-491.33"/>
</g>
<!-- Node21 -->
<g id="node21" class="node">
<title>Node21</title>
<g id="a_node21"><a xlink:href="../../de/dba/_c_c_control_stepper_8h.html" target="_top" xlink:title=" ">
<polygon fill="white" stroke="#666666" points="1995.5,-354.5 1781.5,-354.5 1781.5,-313.5 1995.5,-313.5 1995.5,-354.5"/>
<text text-anchor="start" x="1789.5" y="-342.5" font-family="Helvetica,sans-Serif" font-size="10.00">/home/runner/work/cocos2d.h</text>
<text text-anchor="start" x="1789.5" y="-331.5" font-family="Helvetica,sans-Serif" font-size="10.00">/cocos2d.h/extensions/GUI</text>
<text text-anchor="middle" x="1888.5" y="-320.5" font-family="Helvetica,sans-Serif" font-size="10.00">/CCControlExtension/CCControlStepper.h</text>
</a>
</g>
</g>
<!-- Node4&#45;&gt;Node21 -->
<g id="edge28" class="edge">
<title>Node4&#45;&gt;Node21</title>
<path fill="none" stroke="#63b8ff" d="M1638.08,-482.74C1669.75,-474.17 1704.42,-462.72 1734.5,-448 1761.6,-434.73 1828.01,-383.22 1864.13,-354.54"/>
<polygon fill="#63b8ff" stroke="#63b8ff" points="1637.12,-479.37 1628.35,-485.31 1638.91,-486.14 1637.12,-479.37"/>
</g>
<!-- Node22 -->
<g id="node22" class="node">
<title>Node22</title>
<g id="a_node22"><a xlink:href="../../de/dc7/_c_c_control_switch_8h.html" target="_top" xlink:title=" ">
<polygon fill="white" stroke="#666666" points="1021,-354.5 812,-354.5 812,-313.5 1021,-313.5 1021,-354.5"/>
<text text-anchor="start" x="820" y="-342.5" font-family="Helvetica,sans-Serif" font-size="10.00">/home/runner/work/cocos2d.h</text>
<text text-anchor="start" x="820" y="-331.5" font-family="Helvetica,sans-Serif" font-size="10.00">/cocos2d.h/extensions/GUI</text>
<text text-anchor="middle" x="916.5" y="-320.5" font-family="Helvetica,sans-Serif" font-size="10.00">/CCControlExtension/CCControlSwitch.h</text>
</a>
</g>
</g>
<!-- Node4&#45;&gt;Node22 -->
<g id="edge30" class="edge">
<title>Node4&#45;&gt;Node22</title>
<path fill="none" stroke="#63b8ff" d="M1440.57,-502.05C1270.87,-498.54 939,-486.74 903.5,-448 880.28,-422.67 894.63,-379.57 906.21,-354.56"/>
<polygon fill="#63b8ff" stroke="#63b8ff" points="1440.69,-505.56 1450.76,-502.26 1440.83,-498.56 1440.69,-505.56"/>
</g>
<!-- Node23 -->
<g id="node23" class="node">
<title>Node23</title>
<g id="a_node23"><a xlink:href="../../d8/dec/_color_picker_delegate_8h.html" target="_top" xlink:title=" ">
<polygon fill="white" stroke="#666666" points="1653,-442.5 1426,-442.5 1426,-401.5 1653,-401.5 1653,-442.5"/>
<text text-anchor="start" x="1434" y="-430.5" font-family="Helvetica,sans-Serif" font-size="10.00">/home/runner/work/cocos2d.h</text>
<text text-anchor="start" x="1434" y="-419.5" font-family="Helvetica,sans-Serif" font-size="10.00">/cocos2d.h/extensions/GUI</text>
<text text-anchor="middle" x="1539.5" y="-408.5" font-family="Helvetica,sans-Serif" font-size="10.00">/CCControlExtension/ColorPickerDelegate.h</text>
</a>
</g>
</g>
<!-- Node4&#45;&gt;Node23 -->
<g id="edge32" class="edge">
<title>Node4&#45;&gt;Node23</title>
<path fill="none" stroke="#63b8ff" d="M1539.5,-473.37C1539.5,-463.1 1539.5,-451.9 1539.5,-442.67"/>
<polygon fill="#63b8ff" stroke="#63b8ff" points="1536,-473.6 1539.5,-483.6 1543,-473.6 1536,-473.6"/>
</g>
<!-- Node5&#45;&gt;Node6 -->
<g id="edge6" class="edge">
<title>Node5&#45;&gt;Node6</title>
<path fill="none" stroke="#63b8ff" d="M1973.54,-395.46C1985.88,-386.04 1997.72,-374.14 2004.5,-360 2014.49,-339.16 2019.84,-325.29 2004.5,-308 1981.66,-282.27 1785.38,-266.27 1655.52,-258.4"/>
<polygon fill="#63b8ff" stroke="#63b8ff" points="1971.49,-392.63 1965.41,-401.3 1975.58,-398.31 1971.49,-392.63"/>
</g>
<!-- Node6&#45;&gt;Node7 -->
<g id="edge7" class="edge">
<title>Node6&#45;&gt;Node7</title>
<path fill="none" stroke="#63b8ff" d="M1425.6,-229.12C1359.36,-216.79 1277.71,-201.59 1218.27,-190.53"/>
<polygon fill="#63b8ff" stroke="#63b8ff" points="1425.2,-232.6 1435.67,-230.99 1426.48,-225.72 1425.2,-232.6"/>
</g>
<!-- Node15 -->
<g id="node15" class="node">
<title>Node15</title>
<g id="a_node15"><a xlink:href="../../d3/d58/cocos-ext_8h.html" target="_top" xlink:title=" ">
<polygon fill="white" stroke="#666666" points="2191.5,-112.5 2007.5,-112.5 2007.5,-82.5 2191.5,-82.5 2191.5,-112.5"/>
<text text-anchor="start" x="2015.5" y="-100.5" font-family="Helvetica,sans-Serif" font-size="10.00">/home/runner/work/cocos2d.h</text>
<text text-anchor="middle" x="2099.5" y="-89.5" font-family="Helvetica,sans-Serif" font-size="10.00">/cocos2d.h/extensions/cocos&#45;ext.h</text>
</a>
</g>
</g>
<!-- Node6&#45;&gt;Node15 -->
<g id="edge16" class="edge">
<title>Node6&#45;&gt;Node15</title>
<path fill="none" stroke="#63b8ff" d="M1622.41,-228.23C1739.25,-196.46 1950.4,-139.04 2047.76,-112.57"/>
<polygon fill="#63b8ff" stroke="#63b8ff" points="1621.17,-224.94 1612.44,-230.94 1623,-231.69 1621.17,-224.94"/>
</g>
<!-- Node7&#45;&gt;Node8 -->
<g id="edge8" class="edge">
<title>Node7&#45;&gt;Node8</title>
<path fill="none" stroke="#63b8ff" d="M1046.75,-160.87C943.91,-146.56 777.83,-123.45 679.3,-109.74"/>
<polygon fill="#63b8ff" stroke="#63b8ff" points="1046.42,-164.36 1056.81,-162.27 1047.38,-157.43 1046.42,-164.36"/>
</g>
<!-- Node7&#45;&gt;Node15 -->
<g id="edge15" class="edge">
<title>Node7&#45;&gt;Node15</title>
<path fill="none" stroke="#63b8ff" d="M1228.42,-166.41C1411.55,-152.13 1823.04,-120.05 2007.26,-105.69"/>
<polygon fill="#63b8ff" stroke="#63b8ff" points="1227.97,-162.94 1218.28,-167.2 1228.52,-169.91 1227.97,-162.94"/>
</g>
<!-- Node8&#45;&gt;Node9 -->
<g id="edge9" class="edge">
<title>Node8&#45;&gt;Node9</title>
<path fill="none" stroke="#63b8ff" d="M507.87,-84.92C427.49,-74.38 306.99,-57.93 202.5,-41 199.45,-40.51 196.36,-40 193.23,-39.47"/>
<polygon fill="#63b8ff" stroke="#63b8ff" points="507.58,-88.41 517.95,-86.24 508.49,-81.47 507.58,-88.41"/>
</g>
<!-- Node8&#45;&gt;Node10 -->
<g id="edge10" class="edge">
<title>Node8&#45;&gt;Node10</title>
<path fill="none" stroke="#63b8ff" d="M510.41,-74.55C467.83,-63.94 417.16,-51.31 375.93,-41.04"/>
<polygon fill="#63b8ff" stroke="#63b8ff" points="509.65,-77.97 520.2,-76.99 511.34,-71.18 509.65,-77.97"/>
</g>
<!-- Node8&#45;&gt;Node11 -->
<g id="edge11" class="edge">
<title>Node8&#45;&gt;Node11</title>
<path fill="none" stroke="#63b8ff" d="M561.57,-71.09C547.37,-61.32 531.39,-50.32 518.09,-41.17"/>
<polygon fill="#63b8ff" stroke="#63b8ff" points="559.92,-74.21 570.15,-76.99 563.89,-68.44 559.92,-74.21"/>
</g>
<!-- Node8&#45;&gt;Node12 -->
<g id="edge12" class="edge">
<title>Node8&#45;&gt;Node12</title>
<path fill="none" stroke="#63b8ff" d="M681.83,-74.42C721.76,-63.84 769.16,-51.27 807.76,-41.04"/>
<polygon fill="#63b8ff" stroke="#63b8ff" points="680.89,-71.05 672.12,-76.99 682.68,-77.81 680.89,-71.05"/>
</g>
<!-- Node8&#45;&gt;Node13 -->
<g id="edge13" class="edge">
<title>Node8&#45;&gt;Node13</title>
<path fill="none" stroke="#63b8ff" d="M689.25,-83.16C703.39,-81.09 717.84,-78.98 731.5,-77 842.59,-60.86 870.89,-60.18 981.5,-41 984.43,-40.49 987.41,-39.96 990.42,-39.41"/>
<polygon fill="#63b8ff" stroke="#63b8ff" points="688.41,-79.75 679.03,-84.66 689.43,-86.67 688.41,-79.75"/>
</g>
<!-- Node14 -->
<g id="node14" class="node">
<title>Node14</title>
<g id="a_node14"><a xlink:href="../../d4/d91/_c_c_edit_box_impl_wp8_8h.html" target="_top" xlink:title=" ">
<polygon fill="white" stroke="#666666" points="772,-41 595,-41 595,0 772,0 772,-41"/>
<text text-anchor="start" x="603" y="-29" font-family="Helvetica,sans-Serif" font-size="10.00">/home/runner/work/cocos2d.h</text>
<text text-anchor="start" x="603" y="-18" font-family="Helvetica,sans-Serif" font-size="10.00">/cocos2d.h/extensions/GUI</text>
<text text-anchor="middle" x="683.5" y="-7" font-family="Helvetica,sans-Serif" font-size="10.00">/CCEditBox/CCEditBoxImplWp8.h</text>
</a>
</g>
</g>
<!-- Node8&#45;&gt;Node14 -->
<g id="edge14" class="edge">
<title>Node8&#45;&gt;Node14</title>
<path fill="none" stroke="#63b8ff" d="M628.45,-70.07C639.27,-60.52 651.28,-49.93 661.32,-41.07"/>
<polygon fill="#63b8ff" stroke="#63b8ff" points="626.02,-67.55 620.83,-76.79 630.65,-72.8 626.02,-67.55"/>
</g>
<!-- Node16&#45;&gt;Node6 -->
<g id="edge18" class="edge">
<title>Node16&#45;&gt;Node6</title>
<path fill="none" stroke="#63b8ff" d="M1287.54,-307.78C1347.05,-294.47 1403.99,-282.03 1449.93,-272.05"/>
<polygon fill="#63b8ff" stroke="#63b8ff" points="1286.57,-304.41 1277.57,-310 1288.1,-311.24 1286.57,-304.41"/>
</g>
<!-- Node17&#45;&gt;Node16 -->
<g id="edge21" class="edge">
<title>Node17&#45;&gt;Node16</title>
<path fill="none" stroke="#63b8ff" d="M1093.75,-395.53C1109.12,-384.41 1127.11,-371.41 1142.47,-360.32"/>
<polygon fill="#63b8ff" stroke="#63b8ff" points="1091.56,-392.79 1085.5,-401.49 1095.66,-398.46 1091.56,-392.79"/>
</g>
<!-- Node18&#45;&gt;Node6 -->
<g id="edge23" class="edge">
<title>Node18&#45;&gt;Node6</title>
<path fill="none" stroke="#63b8ff" d="M1457.09,-307.54C1474.36,-296.14 1494.42,-282.9 1510.54,-272.27"/>
<polygon fill="#63b8ff" stroke="#63b8ff" points="1454.76,-304.88 1448.34,-313.31 1458.62,-310.72 1454.76,-304.88"/>
</g>
<!-- Node19&#45;&gt;Node16 -->
<g id="edge25" class="edge">
<title>Node19&#45;&gt;Node16</title>
<path fill="none" stroke="#63b8ff" d="M1254.83,-389.96C1241.12,-380.22 1226.16,-369.58 1213.08,-360.29"/>
<polygon fill="#63b8ff" stroke="#63b8ff" points="1253,-392.95 1263.18,-395.89 1257.05,-387.25 1253,-392.95"/>
</g>
<!-- Node20&#45;&gt;Node6 -->
<g id="edge27" class="edge">
<title>Node20&#45;&gt;Node6</title>
<path fill="none" stroke="#63b8ff" d="M1623.23,-307.54C1606.09,-296.14 1586.2,-282.9 1570.21,-272.27"/>
<polygon fill="#63b8ff" stroke="#63b8ff" points="1621.64,-310.68 1631.9,-313.31 1625.51,-304.85 1621.64,-310.68"/>
</g>
<!-- Node21&#45;&gt;Node6 -->
<g id="edge29" class="edge">
<title>Node21&#45;&gt;Node6</title>
<path fill="none" stroke="#63b8ff" d="M1793.78,-311.09C1741.04,-298.89 1675.95,-283.83 1624.96,-272.04"/>
<polygon fill="#63b8ff" stroke="#63b8ff" points="1793.28,-314.57 1803.81,-313.41 1794.86,-307.75 1793.28,-314.57"/>
</g>
<!-- Node22&#45;&gt;Node6 -->
<g id="edge31" class="edge">
<title>Node22&#45;&gt;Node6</title>
<path fill="none" stroke="#63b8ff" d="M1014.9,-311.55C1021.86,-310.27 1028.78,-309.07 1035.5,-308 1168.65,-286.75 1322.86,-271.09 1425.5,-261.92"/>
<polygon fill="#63b8ff" stroke="#63b8ff" points="1013.88,-308.18 1004.7,-313.47 1015.18,-315.06 1013.88,-308.18"/>
</g>
<!-- Node23&#45;&gt;Node16 -->
<g id="edge33" class="edge">
<title>Node23&#45;&gt;Node16</title>
<path fill="none" stroke="#63b8ff" d="M1447.5,-399.14C1395.66,-386.83 1330.84,-371.43 1277.71,-358.81"/>
<polygon fill="#63b8ff" stroke="#63b8ff" points="1446.82,-402.58 1457.36,-401.49 1448.44,-395.77 1446.82,-402.58"/>
</g>
<!-- Node24&#45;&gt;Node5 -->
<g id="edge35" class="edge">
<title>Node24&#45;&gt;Node5</title>
<path fill="none" stroke="#63b8ff" d="M1928.5,-473.37C1928.5,-463.1 1928.5,-451.9 1928.5,-442.67"/>
<polygon fill="#63b8ff" stroke="#63b8ff" points="1925,-473.6 1928.5,-483.6 1932,-473.6 1925,-473.6"/>
</g>
<!-- Node24&#45;&gt;Node6 -->
<g id="edge36" class="edge">
<title>Node24&#45;&gt;Node6</title>
<path fill="none" stroke="#63b8ff" d="M2008.1,-479.19C2021.77,-471.41 2034.22,-461.24 2042.5,-448 2075.83,-394.71 2069.3,-349.96 2022.5,-308 1995.69,-283.96 1789.64,-267.27 1655.76,-258.84"/>
<polygon fill="#63b8ff" stroke="#63b8ff" points="2006.21,-476.22 1998.97,-483.96 2009.45,-482.43 2006.21,-476.22"/>
</g>
<!-- Node25&#45;&gt;Node15 -->
<g id="edge47" class="edge">
<title>Node25&#45;&gt;Node15</title>
<path fill="none" stroke="#63b8ff" d="M2059.43,-223.54C2067.39,-215.14 2075.2,-205.35 2080.5,-195 2094.29,-168.1 2098.09,-132.27 2099.13,-112.71"/>
<polygon fill="#63b8ff" stroke="#63b8ff" points="2056.73,-221.29 2052.14,-230.83 2061.69,-226.23 2056.73,-221.29"/>
</g>
<!-- Node26 -->
<g id="node26" class="node">
<title>Node26</title>
<g id="a_node26"><a xlink:href="../../d8/dbb/_c_c_table_view_8h.html" target="_top" xlink:title=" ">
<polygon fill="white" stroke="#666666" points="2071,-195 1910,-195 1910,-154 2071,-154 2071,-195"/>
<text text-anchor="start" x="1918" y="-183" font-family="Helvetica,sans-Serif" font-size="10.00">/home/runner/work/cocos2d.h</text>
<text text-anchor="start" x="1918" y="-172" font-family="Helvetica,sans-Serif" font-size="10.00">/cocos2d.h/extensions/GUI</text>
<text text-anchor="middle" x="1990.5" y="-161" font-family="Helvetica,sans-Serif" font-size="10.00">/CCScrollView/CCTableView.h</text>
</a>
</g>
</g>
<!-- Node25&#45;&gt;Node26 -->
<g id="edge45" class="edge">
<title>Node25&#45;&gt;Node26</title>
<path fill="none" stroke="#63b8ff" d="M2013.97,-221.83C2009.44,-212.89 2004.55,-203.24 2000.42,-195.07"/>
<polygon fill="#63b8ff" stroke="#63b8ff" points="2010.87,-223.46 2018.52,-230.79 2017.12,-220.29 2010.87,-223.46"/>
</g>
<!-- Node26&#45;&gt;Node15 -->
<g id="edge46" class="edge">
<title>Node26&#45;&gt;Node15</title>
<path fill="none" stroke="#63b8ff" d="M2027.54,-148.01C2044.69,-136.22 2064.41,-122.65 2078.86,-112.7"/>
<polygon fill="#63b8ff" stroke="#63b8ff" points="2025.11,-145.44 2018.85,-153.99 2029.08,-151.21 2025.11,-145.44"/>
</g>
<!-- Node27&#45;&gt;Node15 -->
<g id="edge49" class="edge">
<title>Node27&#45;&gt;Node15</title>
<path fill="none" stroke="#63b8ff" d="M2235.68,-304.13C2218.83,-267.59 2187.18,-203.48 2151.5,-154 2140.53,-138.79 2125.73,-123.38 2114.73,-112.67"/>
<polygon fill="#63b8ff" stroke="#63b8ff" points="2232.5,-305.58 2239.83,-313.23 2238.86,-302.68 2232.5,-305.58"/>
</g>
<!-- Node28&#45;&gt;Node15 -->
<g id="edge51" class="edge">
<title>Node28&#45;&gt;Node15</title>
<path fill="none" stroke="#63b8ff" d="M2300.71,-475.78C2324.96,-443.92 2359.5,-389.06 2359.5,-335 2359.5,-335 2359.5,-335 2359.5,-250.5 2359.5,-168.8 2262.64,-130.21 2187.16,-112.54"/>
<polygon fill="#63b8ff" stroke="#63b8ff" points="2297.88,-473.71 2294.49,-483.75 2303.4,-478.02 2297.88,-473.71"/>
</g>
<!-- Node28&#45;&gt;Node27 -->
<g id="edge52" class="edge">
<title>Node28&#45;&gt;Node27</title>
<path fill="none" stroke="#63b8ff" d="M2293.83,-474.47C2303.99,-452.48 2313.4,-421.76 2303.5,-396 2297.31,-379.89 2284.69,-365.39 2273.09,-354.56"/>
<polygon fill="#63b8ff" stroke="#63b8ff" points="2290.6,-473.1 2289.33,-483.62 2296.88,-476.19 2290.6,-473.1"/>
</g>
<!-- Node28&#45;&gt;Node29 -->
<g id="edge53" class="edge">
<title>Node28&#45;&gt;Node29</title>
<path fill="none" stroke="#63b8ff" d="M2254.29,-475.62C2245.26,-464.76 2235.12,-452.58 2226.87,-442.67"/>
<polygon fill="#63b8ff" stroke="#63b8ff" points="2251.85,-478.15 2260.94,-483.6 2257.23,-473.68 2251.85,-478.15"/>
</g>
<!-- Node29&#45;&gt;Node15 -->
<g id="edge54" class="edge">
<title>Node29&#45;&gt;Node15</title>
<path fill="none" stroke="#63b8ff" d="M2181.08,-393.81C2171.98,-383.97 2162.71,-372.24 2156.5,-360 2133.84,-315.35 2108.94,-160.57 2101.63,-112.71"/>
<polygon fill="#63b8ff" stroke="#63b8ff" points="2178.83,-396.51 2188.29,-401.28 2183.86,-391.65 2178.83,-396.51"/>
</g>
<!-- Node29&#45;&gt;Node27 -->
<g id="edge55" class="edge">
<title>Node29&#45;&gt;Node27</title>
<path fill="none" stroke="#63b8ff" d="M2223.27,-392.09C2228.7,-379.81 2234.89,-365.8 2239.78,-354.74"/>
<polygon fill="#63b8ff" stroke="#63b8ff" points="2219.96,-390.92 2219.12,-401.49 2226.37,-393.75 2219.96,-390.92"/>
</g>
</g>
</svg>
