<?xml version="1.0" encoding="UTF-8" standalone="no"?>
<!DOCTYPE svg PUBLIC "-//W3C//DTD SVG 1.1//EN"
 "http://www.w3.org/Graphics/SVG/1.1/DTD/svg11.dtd">
<!-- Generated by graphviz version 2.43.0 (0)
 -->
<!-- Title: /home/runner/work/cocos2d.h/cocos2d.h/extensions/GUI/CCControlExtension/CCInvocation.h Pages: 1 -->
<svg width="1573pt" height="618pt"
 viewBox="0.00 0.00 1572.50 618.00" xmlns="http://www.w3.org/2000/svg" xmlns:xlink="http://www.w3.org/1999/xlink">
<g id="graph0" class="graph" transform="scale(1 1) rotate(0) translate(4 614)">
<title>/home/runner/work/cocos2d.h/cocos2d.h/extensions/GUI/CCControlExtension/CCInvocation.h</title>
<!-- Node1 -->
<g id="node1" class="node">
<title>Node1</title>
<g id="a_node1"><a xlink:title=" ">
<polygon fill="#bfbfbf" stroke="black" points="897,-568.5 897,-609.5 1090,-609.5 1090,-568.5 897,-568.5"/>
<text text-anchor="start" x="905" y="-597.5" font-family="Helvetica,sans-Serif" font-size="10.00">/home/runner/work/cocos2d.h</text>
<text text-anchor="start" x="905" y="-586.5" font-family="Helvetica,sans-Serif" font-size="10.00">/cocos2d.h/extensions/GUI</text>
<text text-anchor="middle" x="993.5" y="-575.5" font-family="Helvetica,sans-Serif" font-size="10.00">/CCControlExtension/CCInvocation.h</text>
</a>
</g>
</g>
<!-- Node2 -->
<g id="node2" class="node">
<title>Node2</title>
<g id="a_node2"><a xlink:href="../../de/d8b/_c_c_control_8h.html" target="_top" xlink:title=" ">
<polygon fill="none" stroke="black" points="519,-490.5 519,-531.5 696,-531.5 696,-490.5 519,-490.5"/>
<text text-anchor="start" x="527" y="-519.5" font-family="Helvetica,sans-Serif" font-size="10.00">/home/runner/work/cocos2d.h</text>
<text text-anchor="start" x="527" y="-508.5" font-family="Helvetica,sans-Serif" font-size="10.00">/cocos2d.h/extensions/GUI</text>
<text text-anchor="middle" x="607.5" y="-497.5" font-family="Helvetica,sans-Serif" font-size="10.00">/CCControlExtension/CCControl.h</text>
</a>
</g>
</g>
<!-- Node1&#45;&gt;Node2 -->
<g id="edge1" class="edge">
<title>Node1&#45;&gt;Node2</title>
<path fill="none" stroke="midnightblue" d="M886.72,-566.98C826.79,-555.18 752.89,-540.63 696.18,-529.46"/>
<polygon fill="midnightblue" stroke="midnightblue" points="886.11,-570.42 896.59,-568.92 887.46,-563.55 886.11,-570.42"/>
</g>
<!-- Node3 -->
<g id="node3" class="node">
<title>Node3</title>
<g id="a_node3"><a xlink:href="../../d0/d7e/_c_c_control_button_8h.html" target="_top" xlink:title=" ">
<polygon fill="none" stroke="black" points="145,-407 145,-448 354,-448 354,-407 145,-407"/>
<text text-anchor="start" x="153" y="-436" font-family="Helvetica,sans-Serif" font-size="10.00">/home/runner/work/cocos2d.h</text>
<text text-anchor="start" x="153" y="-425" font-family="Helvetica,sans-Serif" font-size="10.00">/cocos2d.h/extensions/GUI</text>
<text text-anchor="middle" x="249.5" y="-414" font-family="Helvetica,sans-Serif" font-size="10.00">/CCControlExtension/CCControlButton.h</text>
</a>
</g>
</g>
<!-- Node1&#45;&gt;Node3 -->
<g id="edge31" class="edge">
<title>Node1&#45;&gt;Node3</title>
<path fill="none" stroke="midnightblue" d="M886.86,-583.66C788.02,-577.75 637.53,-563.96 510.5,-532 429.19,-511.54 339.32,-471.85 289.1,-448.01"/>
<polygon fill="midnightblue" stroke="midnightblue" points="886.67,-587.15 896.86,-584.24 887.08,-580.16 886.67,-587.15"/>
</g>
<!-- Node15 -->
<g id="node15" class="node">
<title>Node15</title>
<g id="a_node15"><a xlink:href="../../dd/d5a/_c_c_control_hue_picker_8h.html" target="_top" xlink:title=" ">
<polygon fill="none" stroke="black" points="881,-407 881,-448 1106,-448 1106,-407 881,-407"/>
<text text-anchor="start" x="889" y="-436" font-family="Helvetica,sans-Serif" font-size="10.00">/home/runner/work/cocos2d.h</text>
<text text-anchor="start" x="889" y="-425" font-family="Helvetica,sans-Serif" font-size="10.00">/cocos2d.h/extensions/GUI</text>
<text text-anchor="middle" x="993.5" y="-414" font-family="Helvetica,sans-Serif" font-size="10.00">/CCControlExtension/CCControlHuePicker.h</text>
</a>
</g>
</g>
<!-- Node1&#45;&gt;Node15 -->
<g id="edge32" class="edge">
<title>Node1&#45;&gt;Node15</title>
<path fill="none" stroke="midnightblue" d="M993.5,-558.3C993.5,-526.16 993.5,-475.81 993.5,-448.22"/>
<polygon fill="midnightblue" stroke="midnightblue" points="990,-558.44 993.5,-568.44 997,-558.44 990,-558.44"/>
</g>
<!-- Node17 -->
<g id="node17" class="node">
<title>Node17</title>
<g id="a_node17"><a xlink:href="../../de/d08/_c_c_control_saturation_brightness_picker_8h.html" target="_top" xlink:title=" ">
<polygon fill="none" stroke="black" points="1124.5,-401.5 1124.5,-453.5 1342.5,-453.5 1342.5,-401.5 1124.5,-401.5"/>
<text text-anchor="start" x="1132.5" y="-441.5" font-family="Helvetica,sans-Serif" font-size="10.00">/home/runner/work/cocos2d.h</text>
<text text-anchor="start" x="1132.5" y="-430.5" font-family="Helvetica,sans-Serif" font-size="10.00">/cocos2d.h/extensions/GUI</text>
<text text-anchor="start" x="1132.5" y="-419.5" font-family="Helvetica,sans-Serif" font-size="10.00">/CCControlExtension/CCControlSaturation</text>
<text text-anchor="middle" x="1233.5" y="-408.5" font-family="Helvetica,sans-Serif" font-size="10.00">BrightnessPicker.h</text>
</a>
</g>
</g>
<!-- Node1&#45;&gt;Node17 -->
<g id="edge33" class="edge">
<title>Node1&#45;&gt;Node17</title>
<path fill="none" stroke="midnightblue" d="M1031.5,-562.75C1076.39,-532.91 1150.64,-483.57 1195.52,-453.74"/>
<polygon fill="midnightblue" stroke="midnightblue" points="1029.32,-559.99 1022.93,-568.44 1033.19,-565.82 1029.32,-559.99"/>
</g>
<!-- Node18 -->
<g id="node18" class="node">
<title>Node18</title>
<g id="a_node18"><a xlink:href="../../d6/d7e/_c_c_control_slider_8h.html" target="_top" xlink:title=" ">
<polygon fill="none" stroke="black" points="1360.5,-407 1360.5,-448 1564.5,-448 1564.5,-407 1360.5,-407"/>
<text text-anchor="start" x="1368.5" y="-436" font-family="Helvetica,sans-Serif" font-size="10.00">/home/runner/work/cocos2d.h</text>
<text text-anchor="start" x="1368.5" y="-425" font-family="Helvetica,sans-Serif" font-size="10.00">/cocos2d.h/extensions/GUI</text>
<text text-anchor="middle" x="1462.5" y="-414" font-family="Helvetica,sans-Serif" font-size="10.00">/CCControlExtension/CCControlSlider.h</text>
</a>
</g>
</g>
<!-- Node1&#45;&gt;Node18 -->
<g id="edge34" class="edge">
<title>Node1&#45;&gt;Node18</title>
<path fill="none" stroke="midnightblue" d="M1060.54,-565.2C1152.91,-533.79 1317.77,-477.72 1404.89,-448.09"/>
<polygon fill="midnightblue" stroke="midnightblue" points="1059.35,-561.91 1051.01,-568.44 1061.6,-568.54 1059.35,-561.91"/>
</g>
<!-- Node2&#45;&gt;Node3 -->
<g id="edge2" class="edge">
<title>Node2&#45;&gt;Node3</title>
<path fill="none" stroke="midnightblue" d="M512,-488.26C456.99,-475.74 388.43,-460.13 335.17,-448"/>
<polygon fill="midnightblue" stroke="midnightblue" points="511.22,-491.67 521.75,-490.48 512.78,-484.85 511.22,-491.67"/>
</g>
<!-- Node4 -->
<g id="node4" class="node">
<title>Node4</title>
<g id="a_node4"><a xlink:href="../../d6/d86/_c_c_control_extensions_8h.html" target="_top" xlink:title=" ">
<polygon fill="none" stroke="black" points="608.5,-234.5 608.5,-275.5 838.5,-275.5 838.5,-234.5 608.5,-234.5"/>
<text text-anchor="start" x="616.5" y="-263.5" font-family="Helvetica,sans-Serif" font-size="10.00">/home/runner/work/cocos2d.h</text>
<text text-anchor="start" x="616.5" y="-252.5" font-family="Helvetica,sans-Serif" font-size="10.00">/cocos2d.h/extensions/GUI</text>
<text text-anchor="middle" x="723.5" y="-241.5" font-family="Helvetica,sans-Serif" font-size="10.00">/CCControlExtension/CCControlExtensions.h</text>
</a>
</g>
</g>
<!-- Node2&#45;&gt;Node4 -->
<g id="edge16" class="edge">
<title>Node2&#45;&gt;Node4</title>
<path fill="none" stroke="midnightblue" d="M541.68,-486.8C453.88,-452.36 316.21,-384 377.5,-312 406.88,-277.48 519.27,-264.17 608.09,-259.08"/>
<polygon fill="midnightblue" stroke="midnightblue" points="540.48,-490.08 551.07,-490.42 543,-483.55 540.48,-490.08"/>
</g>
<!-- Node14 -->
<g id="node14" class="node">
<title>Node14</title>
<g id="a_node14"><a xlink:href="../../d3/db7/_c_c_control_colour_picker_8h.html" target="_top" xlink:title=" ">
<polygon fill="none" stroke="black" points="1110.5,-312.5 1110.5,-364.5 1310.5,-364.5 1310.5,-312.5 1110.5,-312.5"/>
<text text-anchor="start" x="1118.5" y="-352.5" font-family="Helvetica,sans-Serif" font-size="10.00">/home/runner/work/cocos2d.h</text>
<text text-anchor="start" x="1118.5" y="-341.5" font-family="Helvetica,sans-Serif" font-size="10.00">/cocos2d.h/extensions/GUI</text>
<text text-anchor="start" x="1118.5" y="-330.5" font-family="Helvetica,sans-Serif" font-size="10.00">/CCControlExtension/CCControlColour</text>
<text text-anchor="middle" x="1210.5" y="-319.5" font-family="Helvetica,sans-Serif" font-size="10.00">Picker.h</text>
</a>
</g>
</g>
<!-- Node2&#45;&gt;Node14 -->
<g id="edge14" class="edge">
<title>Node2&#45;&gt;Node14</title>
<path fill="none" stroke="midnightblue" d="M603.94,-480.02C602.81,-455.03 605.85,-420.48 627.5,-401 666.77,-365.68 1049.3,-373.04 1101.5,-365 1104.38,-364.56 1107.3,-364.08 1110.24,-363.57"/>
<polygon fill="midnightblue" stroke="midnightblue" points="600.46,-480.34 604.64,-490.08 607.44,-479.86 600.46,-480.34"/>
</g>
<!-- Node2&#45;&gt;Node15 -->
<g id="edge17" class="edge">
<title>Node2&#45;&gt;Node15</title>
<path fill="none" stroke="midnightblue" d="M705.92,-489.22C765.91,-476.55 842.1,-460.47 900.99,-448.03"/>
<polygon fill="midnightblue" stroke="midnightblue" points="705.12,-485.81 696.06,-491.3 706.56,-492.66 705.12,-485.81"/>
</g>
<!-- Node16 -->
<g id="node16" class="node">
<title>Node16</title>
<g id="a_node16"><a xlink:href="../../d2/d29/_c_c_control_potentiometer_8h.html" target="_top" xlink:title=" ">
<polygon fill="none" stroke="black" points="846.5,-318 846.5,-359 1092.5,-359 1092.5,-318 846.5,-318"/>
<text text-anchor="start" x="854.5" y="-347" font-family="Helvetica,sans-Serif" font-size="10.00">/home/runner/work/cocos2d.h</text>
<text text-anchor="start" x="854.5" y="-336" font-family="Helvetica,sans-Serif" font-size="10.00">/cocos2d.h/extensions/GUI</text>
<text text-anchor="middle" x="969.5" y="-325" font-family="Helvetica,sans-Serif" font-size="10.00">/CCControlExtension/CCControlPotentiometer.h</text>
</a>
</g>
</g>
<!-- Node2&#45;&gt;Node16 -->
<g id="edge19" class="edge">
<title>Node2&#45;&gt;Node16</title>
<path fill="none" stroke="midnightblue" d="M592.73,-480.7C582.85,-456.49 574.76,-422.71 593.5,-401 629.32,-359.51 783.47,-374.2 837.5,-365 848.31,-363.16 859.61,-361.13 870.84,-359.06"/>
<polygon fill="midnightblue" stroke="midnightblue" points="589.63,-482.34 596.84,-490.1 596.04,-479.53 589.63,-482.34"/>
</g>
<!-- Node2&#45;&gt;Node17 -->
<g id="edge21" class="edge">
<title>Node2&#45;&gt;Node17</title>
<path fill="none" stroke="midnightblue" d="M706.48,-502.13C809.16,-493.25 974.17,-477 1115.5,-454 1118.4,-453.53 1121.33,-453.03 1124.28,-452.52"/>
<polygon fill="midnightblue" stroke="midnightblue" points="706.1,-498.65 696.43,-502.99 706.7,-505.62 706.1,-498.65"/>
</g>
<!-- Node2&#45;&gt;Node18 -->
<g id="edge23" class="edge">
<title>Node2&#45;&gt;Node18</title>
<path fill="none" stroke="midnightblue" d="M706.24,-507.3C849.24,-502.32 1122,-488.8 1351.5,-454 1362.15,-452.38 1373.3,-450.3 1384.25,-448.02"/>
<polygon fill="midnightblue" stroke="midnightblue" points="706.05,-503.8 696.17,-507.64 706.29,-510.8 706.05,-503.8"/>
</g>
<!-- Node19 -->
<g id="node19" class="node">
<title>Node19</title>
<g id="a_node19"><a xlink:href="../../de/dba/_c_c_control_stepper_8h.html" target="_top" xlink:title=" ">
<polygon fill="none" stroke="black" points="386.5,-318 386.5,-359 600.5,-359 600.5,-318 386.5,-318"/>
<text text-anchor="start" x="394.5" y="-347" font-family="Helvetica,sans-Serif" font-size="10.00">/home/runner/work/cocos2d.h</text>
<text text-anchor="start" x="394.5" y="-336" font-family="Helvetica,sans-Serif" font-size="10.00">/cocos2d.h/extensions/GUI</text>
<text text-anchor="middle" x="493.5" y="-325" font-family="Helvetica,sans-Serif" font-size="10.00">/CCControlExtension/CCControlStepper.h</text>
</a>
</g>
</g>
<!-- Node2&#45;&gt;Node19 -->
<g id="edge25" class="edge">
<title>Node2&#45;&gt;Node19</title>
<path fill="none" stroke="midnightblue" d="M551.68,-484.95C538.76,-476.77 526.24,-466.5 517.5,-454 497.48,-425.37 493.53,-383.53 493.09,-359.15"/>
<polygon fill="midnightblue" stroke="midnightblue" points="550.27,-488.19 560.66,-490.28 553.85,-482.17 550.27,-488.19"/>
</g>
<!-- Node20 -->
<g id="node20" class="node">
<title>Node20</title>
<g id="a_node20"><a xlink:href="../../de/dc7/_c_c_control_switch_8h.html" target="_top" xlink:title=" ">
<polygon fill="none" stroke="black" points="619,-318 619,-359 828,-359 828,-318 619,-318"/>
<text text-anchor="start" x="627" y="-347" font-family="Helvetica,sans-Serif" font-size="10.00">/home/runner/work/cocos2d.h</text>
<text text-anchor="start" x="627" y="-336" font-family="Helvetica,sans-Serif" font-size="10.00">/cocos2d.h/extensions/GUI</text>
<text text-anchor="middle" x="723.5" y="-325" font-family="Helvetica,sans-Serif" font-size="10.00">/CCControlExtension/CCControlSwitch.h</text>
</a>
</g>
</g>
<!-- Node2&#45;&gt;Node20 -->
<g id="edge27" class="edge">
<title>Node2&#45;&gt;Node20</title>
<path fill="none" stroke="midnightblue" d="M575.03,-483.14C567.12,-474.72 559.73,-464.78 555.5,-454 546.89,-432.07 542.01,-420.31 555.5,-401 566.53,-385.22 606.29,-370.29 644.36,-359.1"/>
<polygon fill="midnightblue" stroke="midnightblue" points="572.79,-485.85 582.35,-490.42 577.73,-480.89 572.79,-485.85"/>
</g>
<!-- Node21 -->
<g id="node21" class="node">
<title>Node21</title>
<g id="a_node21"><a xlink:href="../../d8/dec/_color_picker_delegate_8h.html" target="_top" xlink:title=" ">
<polygon fill="none" stroke="black" points="636,-407 636,-448 863,-448 863,-407 636,-407"/>
<text text-anchor="start" x="644" y="-436" font-family="Helvetica,sans-Serif" font-size="10.00">/home/runner/work/cocos2d.h</text>
<text text-anchor="start" x="644" y="-425" font-family="Helvetica,sans-Serif" font-size="10.00">/cocos2d.h/extensions/GUI</text>
<text text-anchor="middle" x="749.5" y="-414" font-family="Helvetica,sans-Serif" font-size="10.00">/CCControlExtension/ColorPickerDelegate.h</text>
</a>
</g>
</g>
<!-- Node2&#45;&gt;Node21 -->
<g id="edge29" class="edge">
<title>Node2&#45;&gt;Node21</title>
<path fill="none" stroke="midnightblue" d="M650.45,-485.35C671.22,-473.43 695.79,-459.32 715.27,-448.14"/>
<polygon fill="midnightblue" stroke="midnightblue" points="648.44,-482.47 641.51,-490.48 651.93,-488.54 648.44,-482.47"/>
</g>
<!-- Node3&#45;&gt;Node4 -->
<g id="edge3" class="edge">
<title>Node3&#45;&gt;Node4</title>
<path fill="none" stroke="midnightblue" d="M264.87,-397.97C280.96,-371.1 308.86,-332.05 344.5,-312 388.56,-287.21 513.91,-272.12 608.49,-263.95"/>
<polygon fill="midnightblue" stroke="midnightblue" points="261.67,-396.52 259.67,-406.92 267.72,-400.03 261.67,-396.52"/>
</g>
<!-- Node5 -->
<g id="node5" class="node">
<title>Node5</title>
<g id="a_node5"><a xlink:href="../../dc/d4a/_c_c_edit_box_8h.html" target="_top" xlink:title=" ">
<polygon fill="none" stroke="black" points="589,-156.5 589,-197.5 750,-197.5 750,-156.5 589,-156.5"/>
<text text-anchor="start" x="597" y="-185.5" font-family="Helvetica,sans-Serif" font-size="10.00">/home/runner/work/cocos2d.h</text>
<text text-anchor="start" x="597" y="-174.5" font-family="Helvetica,sans-Serif" font-size="10.00">/cocos2d.h/extensions/GUI</text>
<text text-anchor="middle" x="669.5" y="-163.5" font-family="Helvetica,sans-Serif" font-size="10.00">/CCEditBox/CCEditBox.h</text>
</a>
</g>
</g>
<!-- Node4&#45;&gt;Node5 -->
<g id="edge4" class="edge">
<title>Node4&#45;&gt;Node5</title>
<path fill="none" stroke="midnightblue" d="M703.64,-226.05C696.9,-216.57 689.53,-206.18 683.36,-197.51"/>
<polygon fill="midnightblue" stroke="midnightblue" points="700.95,-228.3 709.59,-234.43 706.65,-224.25 700.95,-228.3"/>
</g>
<!-- Node13 -->
<g id="node13" class="node">
<title>Node13</title>
<g id="a_node13"><a xlink:href="../../d3/d58/cocos-ext_8h.html" target="_top" xlink:title=" ">
<polygon fill="none" stroke="black" points="686.5,-84 686.5,-114 870.5,-114 870.5,-84 686.5,-84"/>
<text text-anchor="start" x="694.5" y="-102" font-family="Helvetica,sans-Serif" font-size="10.00">/home/runner/work/cocos2d.h</text>
<text text-anchor="middle" x="778.5" y="-91" font-family="Helvetica,sans-Serif" font-size="10.00">/cocos2d.h/extensions/cocos&#45;ext.h</text>
</a>
</g>
</g>
<!-- Node4&#45;&gt;Node13 -->
<g id="edge13" class="edge">
<title>Node4&#45;&gt;Node13</title>
<path fill="none" stroke="midnightblue" d="M744.57,-225.81C750.15,-217.24 755.67,-207.55 759.5,-198 770.92,-169.53 775.63,-133.58 777.45,-114.1"/>
<polygon fill="midnightblue" stroke="midnightblue" points="741.54,-224.04 738.81,-234.28 747.33,-227.97 741.54,-224.04"/>
</g>
<!-- Node6 -->
<g id="node6" class="node">
<title>Node6</title>
<g id="a_node6"><a xlink:href="../../db/da9/_c_c_edit_box_impl_8h.html" target="_top" xlink:title=" ">
<polygon fill="none" stroke="black" points="507,-78.5 507,-119.5 668,-119.5 668,-78.5 507,-78.5"/>
<text text-anchor="start" x="515" y="-107.5" font-family="Helvetica,sans-Serif" font-size="10.00">/home/runner/work/cocos2d.h</text>
<text text-anchor="start" x="515" y="-96.5" font-family="Helvetica,sans-Serif" font-size="10.00">/cocos2d.h/extensions/GUI</text>
<text text-anchor="middle" x="587.5" y="-85.5" font-family="Helvetica,sans-Serif" font-size="10.00">/CCEditBox/CCEditBoxImpl.h</text>
</a>
</g>
</g>
<!-- Node5&#45;&gt;Node6 -->
<g id="edge5" class="edge">
<title>Node5&#45;&gt;Node6</title>
<path fill="none" stroke="midnightblue" d="M640.9,-149.49C630.26,-139.63 618.39,-128.63 608.55,-119.51"/>
<polygon fill="midnightblue" stroke="midnightblue" points="638.67,-152.2 648.38,-156.43 643.43,-147.06 638.67,-152.2"/>
</g>
<!-- Node5&#45;&gt;Node13 -->
<g id="edge12" class="edge">
<title>Node5&#45;&gt;Node13</title>
<path fill="none" stroke="midnightblue" d="M705.85,-150.66C723.25,-138.53 743.43,-124.45 758.1,-114.23"/>
<polygon fill="midnightblue" stroke="midnightblue" points="703.77,-147.84 697.57,-156.43 707.77,-153.58 703.77,-147.84"/>
</g>
<!-- Node7 -->
<g id="node7" class="node">
<title>Node7</title>
<g id="a_node7"><a xlink:href="../../d4/dd3/_c_c_edit_box_impl_android_8h.html" target="_top" xlink:title=" ">
<polygon fill="none" stroke="black" points="0,-0.5 0,-41.5 193,-41.5 193,-0.5 0,-0.5"/>
<text text-anchor="start" x="8" y="-29.5" font-family="Helvetica,sans-Serif" font-size="10.00">/home/runner/work/cocos2d.h</text>
<text text-anchor="start" x="8" y="-18.5" font-family="Helvetica,sans-Serif" font-size="10.00">/cocos2d.h/extensions/GUI</text>
<text text-anchor="middle" x="96.5" y="-7.5" font-family="Helvetica,sans-Serif" font-size="10.00">/CCEditBox/CCEditBoxImplAndroid.h</text>
</a>
</g>
</g>
<!-- Node6&#45;&gt;Node7 -->
<g id="edge6" class="edge">
<title>Node6&#45;&gt;Node7</title>
<path fill="none" stroke="midnightblue" d="M496.68,-85.89C418.56,-75.21 302.92,-58.77 202.5,-42 199.45,-41.49 196.36,-40.96 193.23,-40.43"/>
<polygon fill="midnightblue" stroke="midnightblue" points="496.59,-89.41 506.97,-87.29 497.54,-82.47 496.59,-89.41"/>
</g>
<!-- Node8 -->
<g id="node8" class="node">
<title>Node8</title>
<g id="a_node8"><a xlink:href="../../dd/dfd/_c_c_edit_box_impl_i_o_s_8h.html" target="_top" xlink:title=" ">
<polygon fill="none" stroke="black" points="211.5,-0.5 211.5,-41.5 383.5,-41.5 383.5,-0.5 211.5,-0.5"/>
<text text-anchor="start" x="219.5" y="-29.5" font-family="Helvetica,sans-Serif" font-size="10.00">/home/runner/work/cocos2d.h</text>
<text text-anchor="start" x="219.5" y="-18.5" font-family="Helvetica,sans-Serif" font-size="10.00">/cocos2d.h/extensions/GUI</text>
<text text-anchor="middle" x="297.5" y="-7.5" font-family="Helvetica,sans-Serif" font-size="10.00">/CCEditBox/CCEditBoxImplIOS.h</text>
</a>
</g>
</g>
<!-- Node6&#45;&gt;Node8 -->
<g id="edge7" class="edge">
<title>Node6&#45;&gt;Node8</title>
<path fill="none" stroke="midnightblue" d="M503,-75.86C461.52,-64.98 411.97,-52 371.93,-41.51"/>
<polygon fill="midnightblue" stroke="midnightblue" points="502.26,-79.28 512.82,-78.43 504.03,-72.51 502.26,-79.28"/>
</g>
<!-- Node9 -->
<g id="node9" class="node">
<title>Node9</title>
<g id="a_node9"><a xlink:href="../../d7/d4d/_c_c_edit_box_impl_mac_8h.html" target="_top" xlink:title=" ">
<polygon fill="none" stroke="black" points="401.5,-0.5 401.5,-41.5 577.5,-41.5 577.5,-0.5 401.5,-0.5"/>
<text text-anchor="start" x="409.5" y="-29.5" font-family="Helvetica,sans-Serif" font-size="10.00">/home/runner/work/cocos2d.h</text>
<text text-anchor="start" x="409.5" y="-18.5" font-family="Helvetica,sans-Serif" font-size="10.00">/cocos2d.h/extensions/GUI</text>
<text text-anchor="middle" x="489.5" y="-7.5" font-family="Helvetica,sans-Serif" font-size="10.00">/CCEditBox/CCEditBoxImplMac.h</text>
</a>
</g>
</g>
<!-- Node6&#45;&gt;Node9 -->
<g id="edge8" class="edge">
<title>Node6&#45;&gt;Node9</title>
<path fill="none" stroke="midnightblue" d="M554.06,-72.06C541.15,-62.06 526.64,-50.8 514.65,-41.51"/>
<polygon fill="midnightblue" stroke="midnightblue" points="552.22,-75.07 562.26,-78.43 556.51,-69.53 552.22,-75.07"/>
</g>
<!-- Node10 -->
<g id="node10" class="node">
<title>Node10</title>
<g id="a_node10"><a xlink:href="../../de/dac/_c_c_edit_box_impl_tizen_8h.html" target="_top" xlink:title=" ">
<polygon fill="none" stroke="black" points="595.5,-0.5 595.5,-41.5 777.5,-41.5 777.5,-0.5 595.5,-0.5"/>
<text text-anchor="start" x="603.5" y="-29.5" font-family="Helvetica,sans-Serif" font-size="10.00">/home/runner/work/cocos2d.h</text>
<text text-anchor="start" x="603.5" y="-18.5" font-family="Helvetica,sans-Serif" font-size="10.00">/cocos2d.h/extensions/GUI</text>
<text text-anchor="middle" x="686.5" y="-7.5" font-family="Helvetica,sans-Serif" font-size="10.00">/CCEditBox/CCEditBoxImplTizen.h</text>
</a>
</g>
</g>
<!-- Node6&#45;&gt;Node10 -->
<g id="edge9" class="edge">
<title>Node6&#45;&gt;Node10</title>
<path fill="none" stroke="midnightblue" d="M621.28,-72.06C634.32,-62.06 648.98,-50.8 661.09,-41.51"/>
<polygon fill="midnightblue" stroke="midnightblue" points="618.8,-69.56 612.99,-78.43 623.06,-75.11 618.8,-69.56"/>
</g>
<!-- Node11 -->
<g id="node11" class="node">
<title>Node11</title>
<g id="a_node11"><a xlink:href="../../dd/d41/_c_c_edit_box_impl_win_8h.html" target="_top" xlink:title=" ">
<polygon fill="none" stroke="black" points="795.5,-0.5 795.5,-41.5 969.5,-41.5 969.5,-0.5 795.5,-0.5"/>
<text text-anchor="start" x="803.5" y="-29.5" font-family="Helvetica,sans-Serif" font-size="10.00">/home/runner/work/cocos2d.h</text>
<text text-anchor="start" x="803.5" y="-18.5" font-family="Helvetica,sans-Serif" font-size="10.00">/cocos2d.h/extensions/GUI</text>
<text text-anchor="middle" x="882.5" y="-7.5" font-family="Helvetica,sans-Serif" font-size="10.00">/CCEditBox/CCEditBoxImplWin.h</text>
</a>
</g>
</g>
<!-- Node6&#45;&gt;Node11 -->
<g id="edge10" class="edge">
<title>Node6&#45;&gt;Node11</title>
<path fill="none" stroke="midnightblue" d="M673.19,-75.92C715.44,-65.04 765.97,-52.02 806.79,-41.51"/>
<polygon fill="midnightblue" stroke="midnightblue" points="672.28,-72.54 663.47,-78.43 674.03,-79.32 672.28,-72.54"/>
</g>
<!-- Node12 -->
<g id="node12" class="node">
<title>Node12</title>
<g id="a_node12"><a xlink:href="../../d4/d91/_c_c_edit_box_impl_wp8_8h.html" target="_top" xlink:title=" ">
<polygon fill="none" stroke="black" points="988,-0.5 988,-41.5 1165,-41.5 1165,-0.5 988,-0.5"/>
<text text-anchor="start" x="996" y="-29.5" font-family="Helvetica,sans-Serif" font-size="10.00">/home/runner/work/cocos2d.h</text>
<text text-anchor="start" x="996" y="-18.5" font-family="Helvetica,sans-Serif" font-size="10.00">/cocos2d.h/extensions/GUI</text>
<text text-anchor="middle" x="1076.5" y="-7.5" font-family="Helvetica,sans-Serif" font-size="10.00">/CCEditBox/CCEditBoxImplWp8.h</text>
</a>
</g>
</g>
<!-- Node6&#45;&gt;Node12 -->
<g id="edge11" class="edge">
<title>Node6&#45;&gt;Node12</title>
<path fill="none" stroke="midnightblue" d="M678.59,-77.91C812.09,-55.74 848.74,-62.96 978.5,-42 981.59,-41.5 984.72,-40.97 987.89,-40.42"/>
<polygon fill="midnightblue" stroke="midnightblue" points="677.66,-74.51 668.38,-79.63 678.82,-81.42 677.66,-74.51"/>
</g>
<!-- Node14&#45;&gt;Node4 -->
<g id="edge15" class="edge">
<title>Node14&#45;&gt;Node4</title>
<path fill="none" stroke="midnightblue" d="M1100.57,-311.88C1007.05,-294.29 911.39,-280.33 838.89,-270.57"/>
<polygon fill="midnightblue" stroke="midnightblue" points="1100.01,-315.34 1110.49,-313.76 1101.31,-308.46 1100.01,-315.34"/>
</g>
<!-- Node15&#45;&gt;Node14 -->
<g id="edge18" class="edge">
<title>Node15&#45;&gt;Node14</title>
<path fill="none" stroke="midnightblue" d="M1051.61,-403.2C1081.35,-391.28 1117.58,-376.75 1147.93,-364.58"/>
<polygon fill="midnightblue" stroke="midnightblue" points="1050.18,-400.01 1042.2,-406.98 1052.78,-406.5 1050.18,-400.01"/>
</g>
<!-- Node16&#45;&gt;Node4 -->
<g id="edge20" class="edge">
<title>Node16&#45;&gt;Node4</title>
<path fill="none" stroke="midnightblue" d="M900.8,-314.74C863.55,-302.4 817.98,-287.3 782.37,-275.5"/>
<polygon fill="midnightblue" stroke="midnightblue" points="899.98,-318.16 910.58,-317.98 902.19,-311.51 899.98,-318.16"/>
</g>
<!-- Node17&#45;&gt;Node14 -->
<g id="edge22" class="edge">
<title>Node17&#45;&gt;Node14</title>
<path fill="none" stroke="midnightblue" d="M1224.24,-391.48C1221.86,-382.49 1219.35,-372.99 1217.14,-364.61"/>
<polygon fill="midnightblue" stroke="midnightblue" points="1220.91,-392.56 1226.85,-401.34 1227.68,-390.77 1220.91,-392.56"/>
</g>
<!-- Node18&#45;&gt;Node4 -->
<g id="edge24" class="edge">
<title>Node18&#45;&gt;Node4</title>
<path fill="none" stroke="midnightblue" d="M1438.03,-399.23C1411.72,-371.94 1367.2,-331.3 1319.5,-312 1235.08,-277.85 986.94,-264.21 838.79,-259.01"/>
<polygon fill="midnightblue" stroke="midnightblue" points="1435.54,-401.69 1444.96,-406.55 1440.63,-396.88 1435.54,-401.69"/>
</g>
<!-- Node19&#45;&gt;Node4 -->
<g id="edge26" class="edge">
<title>Node19&#45;&gt;Node4</title>
<path fill="none" stroke="midnightblue" d="M558.17,-314.58C592.92,-302.27 635.31,-287.25 668.46,-275.5"/>
<polygon fill="midnightblue" stroke="midnightblue" points="556.85,-311.34 548.59,-317.98 559.19,-317.94 556.85,-311.34"/>
</g>
<!-- Node20&#45;&gt;Node4 -->
<g id="edge28" class="edge">
<title>Node20&#45;&gt;Node4</title>
<path fill="none" stroke="midnightblue" d="M723.5,-307.56C723.5,-296.88 723.5,-285.13 723.5,-275.55"/>
<polygon fill="midnightblue" stroke="midnightblue" points="720,-307.77 723.5,-317.77 727,-307.77 720,-307.77"/>
</g>
<!-- Node21&#45;&gt;Node14 -->
<g id="edge30" class="edge">
<title>Node21&#45;&gt;Node14</title>
<path fill="none" stroke="midnightblue" d="M851.24,-405.01C858.43,-403.61 865.57,-402.26 872.5,-401 973.86,-382.54 1000.38,-384.75 1101.5,-365 1104.46,-364.42 1107.45,-363.82 1110.48,-363.2"/>
<polygon fill="midnightblue" stroke="midnightblue" points="850.56,-401.57 841.42,-406.94 851.91,-408.44 850.56,-401.57"/>
</g>
</g>
</svg>
