<?xml version="1.0" encoding="UTF-8" standalone="no"?>
<!DOCTYPE svg PUBLIC "-//W3C//DTD SVG 1.1//EN"
 "http://www.w3.org/Graphics/SVG/1.1/DTD/svg11.dtd">
<!-- Generated by graphviz version 2.43.0 (0)
 -->
<!-- Title: /home/runner/work/cocos2d.h/cocos2d.h/cocos2dx/actions/CCActionGrid.h Pages: 1 -->
<svg width="2471pt" height="852pt"
 viewBox="0.00 0.00 2471.00 852.00" xmlns="http://www.w3.org/2000/svg" xmlns:xlink="http://www.w3.org/1999/xlink">
<g id="graph0" class="graph" transform="scale(1 1) rotate(0) translate(4 848)">
<title>/home/runner/work/cocos2d.h/cocos2d.h/cocos2dx/actions/CCActionGrid.h</title>
<!-- Node1 -->
<g id="node1" class="node">
<title>Node1</title>
<g id="a_node1"><a xlink:title=" ">
<polygon fill="#bfbfbf" stroke="black" points="683,-802.5 683,-843.5 844,-843.5 844,-802.5 683,-802.5"/>
<text text-anchor="start" x="691" y="-831.5" font-family="Helvetica,sans-Serif" font-size="10.00">/home/runner/work/cocos2d.h</text>
<text text-anchor="start" x="691" y="-820.5" font-family="Helvetica,sans-Serif" font-size="10.00">/cocos2d.h/cocos2dx/actions</text>
<text text-anchor="middle" x="763.5" y="-809.5" font-family="Helvetica,sans-Serif" font-size="10.00">/CCActionGrid.h</text>
</a>
</g>
</g>
<!-- Node2 -->
<g id="node2" class="node">
<title>Node2</title>
<g id="a_node2"><a xlink:href="../../d0/da2/_c_c_action_grid3_d_8h.html" target="_top" xlink:title=" ">
<polygon fill="none" stroke="black" points="683,-724.5 683,-765.5 844,-765.5 844,-724.5 683,-724.5"/>
<text text-anchor="start" x="691" y="-753.5" font-family="Helvetica,sans-Serif" font-size="10.00">/home/runner/work/cocos2d.h</text>
<text text-anchor="start" x="691" y="-742.5" font-family="Helvetica,sans-Serif" font-size="10.00">/cocos2d.h/cocos2dx/actions</text>
<text text-anchor="middle" x="763.5" y="-731.5" font-family="Helvetica,sans-Serif" font-size="10.00">/CCActionGrid3D.h</text>
</a>
</g>
</g>
<!-- Node1&#45;&gt;Node2 -->
<g id="edge1" class="edge">
<title>Node1&#45;&gt;Node2</title>
<path fill="none" stroke="midnightblue" d="M763.5,-792.3C763.5,-783.3 763.5,-773.65 763.5,-765.51"/>
<polygon fill="midnightblue" stroke="midnightblue" points="760,-792.43 763.5,-802.43 767,-792.43 760,-792.43"/>
</g>
<!-- Node4 -->
<g id="node4" class="node">
<title>Node4</title>
<g id="a_node4"><a xlink:href="../../dc/dfd/cocos2d_8h.html" target="_top" xlink:title=" ">
<polygon fill="none" stroke="black" points="647,-568.5 647,-609.5 808,-609.5 808,-568.5 647,-568.5"/>
<text text-anchor="start" x="655" y="-597.5" font-family="Helvetica,sans-Serif" font-size="10.00">/home/runner/work/cocos2d.h</text>
<text text-anchor="start" x="655" y="-586.5" font-family="Helvetica,sans-Serif" font-size="10.00">/cocos2d.h/cocos2dx/include</text>
<text text-anchor="middle" x="727.5" y="-575.5" font-family="Helvetica,sans-Serif" font-size="10.00">/cocos2d.h</text>
</a>
</g>
</g>
<!-- Node1&#45;&gt;Node4 -->
<g id="edge64" class="edge">
<title>Node1&#45;&gt;Node4</title>
<path fill="none" stroke="midnightblue" d="M704.34,-797.12C692.01,-789.07 680.62,-778.81 673.5,-766 662.11,-745.49 680.41,-655.75 684.5,-646 690.1,-632.66 699.67,-619.72 708.37,-609.65"/>
<polygon fill="midnightblue" stroke="midnightblue" points="702.61,-800.17 712.98,-802.35 706.24,-794.18 702.61,-800.17"/>
</g>
<!-- Node34 -->
<g id="node34" class="node">
<title>Node34</title>
<g id="a_node34"><a xlink:href="../../d3/ddb/_c_c_action_tiled_grid_8h.html" target="_top" xlink:title=" ">
<polygon fill="none" stroke="black" points="881,-646.5 881,-687.5 1042,-687.5 1042,-646.5 881,-646.5"/>
<text text-anchor="start" x="889" y="-675.5" font-family="Helvetica,sans-Serif" font-size="10.00">/home/runner/work/cocos2d.h</text>
<text text-anchor="start" x="889" y="-664.5" font-family="Helvetica,sans-Serif" font-size="10.00">/cocos2d.h/cocos2dx/actions</text>
<text text-anchor="middle" x="961.5" y="-653.5" font-family="Helvetica,sans-Serif" font-size="10.00">/CCActionTiledGrid.h</text>
</a>
</g>
</g>
<!-- Node1&#45;&gt;Node34 -->
<g id="edge62" class="edge">
<title>Node1&#45;&gt;Node34</title>
<path fill="none" stroke="midnightblue" d="M806.91,-797.17C822.05,-787.95 838.89,-777.03 853.5,-766 886.44,-741.13 921.21,-708.2 942.14,-687.56"/>
<polygon fill="midnightblue" stroke="midnightblue" points="804.99,-794.24 798.22,-802.39 808.6,-800.24 804.99,-794.24"/>
</g>
<!-- Node3 -->
<g id="node3" class="node">
<title>Node3</title>
<g id="a_node3"><a xlink:href="../../d9/dd9/_c_c_action_page_turn3_d_8h.html" target="_top" xlink:title=" ">
<polygon fill="none" stroke="black" points="702,-646.5 702,-687.5 863,-687.5 863,-646.5 702,-646.5"/>
<text text-anchor="start" x="710" y="-675.5" font-family="Helvetica,sans-Serif" font-size="10.00">/home/runner/work/cocos2d.h</text>
<text text-anchor="start" x="710" y="-664.5" font-family="Helvetica,sans-Serif" font-size="10.00">/cocos2d.h/cocos2dx/actions</text>
<text text-anchor="middle" x="782.5" y="-653.5" font-family="Helvetica,sans-Serif" font-size="10.00">/CCActionPageTurn3D.h</text>
</a>
</g>
</g>
<!-- Node2&#45;&gt;Node3 -->
<g id="edge2" class="edge">
<title>Node2&#45;&gt;Node3</title>
<path fill="none" stroke="midnightblue" d="M770.85,-714.59C773.12,-705.51 775.56,-695.74 777.62,-687.51"/>
<polygon fill="midnightblue" stroke="midnightblue" points="767.42,-713.88 768.39,-724.43 774.21,-715.58 767.42,-713.88"/>
</g>
<!-- Node2&#45;&gt;Node4 -->
<g id="edge61" class="edge">
<title>Node2&#45;&gt;Node4</title>
<path fill="none" stroke="midnightblue" d="M718.08,-718.09C707.79,-709.89 698.23,-699.82 692.5,-688 679.81,-661.83 696.92,-629.81 711.37,-609.66"/>
<polygon fill="midnightblue" stroke="midnightblue" points="716.3,-721.13 726.42,-724.27 720.46,-715.51 716.3,-721.13"/>
</g>
<!-- Node3&#45;&gt;Node4 -->
<g id="edge3" class="edge">
<title>Node3&#45;&gt;Node4</title>
<path fill="none" stroke="midnightblue" d="M762.27,-638.05C755.41,-628.57 747.9,-618.18 741.62,-609.51"/>
<polygon fill="midnightblue" stroke="midnightblue" points="759.64,-640.38 768.34,-646.43 765.31,-636.27 759.64,-640.38"/>
</g>
<!-- Node5 -->
<g id="node5" class="node">
<title>Node5</title>
<g id="a_node5"><a xlink:href="../../d4/d5d/_d_s___dictionary_8h.html" target="_top" xlink:title=" ">
<polygon fill="none" stroke="black" points="3,-490.5 3,-531.5 164,-531.5 164,-490.5 3,-490.5"/>
<text text-anchor="start" x="11" y="-519.5" font-family="Helvetica,sans-Serif" font-size="10.00">/home/runner/work/cocos2d.h</text>
<text text-anchor="start" x="11" y="-508.5" font-family="Helvetica,sans-Serif" font-size="10.00">/cocos2d.h/cocos2dx/robtop</text>
<text text-anchor="middle" x="83.5" y="-497.5" font-family="Helvetica,sans-Serif" font-size="10.00">/xml/DS_Dictionary.h</text>
</a>
</g>
</g>
<!-- Node4&#45;&gt;Node5 -->
<g id="edge4" class="edge">
<title>Node4&#45;&gt;Node5</title>
<path fill="none" stroke="midnightblue" d="M636.43,-582.63C524.41,-574.99 328.97,-558.84 163.5,-532 162.56,-531.85 161.62,-531.69 160.67,-531.53"/>
<polygon fill="midnightblue" stroke="midnightblue" points="636.46,-586.14 646.67,-583.32 636.93,-579.16 636.46,-586.14"/>
</g>
<!-- Node6 -->
<g id="node6" class="node">
<title>Node6</title>
<g id="a_node6"><a xlink:href="../../d3/db7/_assets_manager_8h.html" target="_top" xlink:title=" ">
<polygon fill="none" stroke="black" points="182,-490.5 182,-531.5 385,-531.5 385,-490.5 182,-490.5"/>
<text text-anchor="start" x="190" y="-519.5" font-family="Helvetica,sans-Serif" font-size="10.00">/home/runner/work/cocos2d.h</text>
<text text-anchor="start" x="190" y="-508.5" font-family="Helvetica,sans-Serif" font-size="10.00">/cocos2d.h/extensions/AssetsManager</text>
<text text-anchor="middle" x="283.5" y="-497.5" font-family="Helvetica,sans-Serif" font-size="10.00">/AssetsManager.h</text>
</a>
</g>
</g>
<!-- Node4&#45;&gt;Node6 -->
<g id="edge6" class="edge">
<title>Node4&#45;&gt;Node6</title>
<path fill="none" stroke="midnightblue" d="M637.02,-572.59C571.14,-561.37 479.79,-545.78 399.5,-532 394.77,-531.19 389.92,-530.36 385.03,-529.52"/>
<polygon fill="midnightblue" stroke="midnightblue" points="636.51,-576.06 646.95,-574.29 637.68,-569.16 636.51,-576.06"/>
</g>
<!-- Node7 -->
<g id="node7" class="node">
<title>Node7</title>
<g id="a_node7"><a xlink:href="../../de/d8b/_c_c_control_8h.html" target="_top" xlink:title=" ">
<polygon fill="none" stroke="black" points="1433,-490.5 1433,-531.5 1610,-531.5 1610,-490.5 1433,-490.5"/>
<text text-anchor="start" x="1441" y="-519.5" font-family="Helvetica,sans-Serif" font-size="10.00">/home/runner/work/cocos2d.h</text>
<text text-anchor="start" x="1441" y="-508.5" font-family="Helvetica,sans-Serif" font-size="10.00">/cocos2d.h/extensions/GUI</text>
<text text-anchor="middle" x="1521.5" y="-497.5" font-family="Helvetica,sans-Serif" font-size="10.00">/CCControlExtension/CCControl.h</text>
</a>
</g>
</g>
<!-- Node4&#45;&gt;Node7 -->
<g id="edge7" class="edge">
<title>Node4&#45;&gt;Node7</title>
<path fill="none" stroke="midnightblue" d="M818.34,-579.31C971.91,-564.61 1280.93,-535.03 1432.94,-520.48"/>
<polygon fill="midnightblue" stroke="midnightblue" points="817.62,-575.86 808,-580.29 818.29,-582.83 817.62,-575.86"/>
</g>
<!-- Node10 -->
<g id="node10" class="node">
<title>Node10</title>
<g id="a_node10"><a xlink:href="../../dc/d4a/_c_c_edit_box_8h.html" target="_top" xlink:title=" ">
<polygon fill="none" stroke="black" points="1177,-156.5 1177,-197.5 1338,-197.5 1338,-156.5 1177,-156.5"/>
<text text-anchor="start" x="1185" y="-185.5" font-family="Helvetica,sans-Serif" font-size="10.00">/home/runner/work/cocos2d.h</text>
<text text-anchor="start" x="1185" y="-174.5" font-family="Helvetica,sans-Serif" font-size="10.00">/cocos2d.h/extensions/GUI</text>
<text text-anchor="middle" x="1257.5" y="-163.5" font-family="Helvetica,sans-Serif" font-size="10.00">/CCEditBox/CCEditBox.h</text>
</a>
</g>
</g>
<!-- Node4&#45;&gt;Node10 -->
<g id="edge40" class="edge">
<title>Node4&#45;&gt;Node10</title>
<path fill="none" stroke="midnightblue" d="M724.55,-557.93C720.81,-501.86 721.31,-380.81 785.5,-312 838.59,-255.08 1056.42,-211.14 1176.72,-190.65"/>
<polygon fill="midnightblue" stroke="midnightblue" points="721.09,-558.54 725.34,-568.24 728.07,-558 721.09,-558.54"/>
</g>
<!-- Node11 -->
<g id="node11" class="node">
<title>Node11</title>
<g id="a_node11"><a xlink:href="../../db/da9/_c_c_edit_box_impl_8h.html" target="_top" xlink:title=" ">
<polygon fill="none" stroke="black" points="518,-78.5 518,-119.5 679,-119.5 679,-78.5 518,-78.5"/>
<text text-anchor="start" x="526" y="-107.5" font-family="Helvetica,sans-Serif" font-size="10.00">/home/runner/work/cocos2d.h</text>
<text text-anchor="start" x="526" y="-96.5" font-family="Helvetica,sans-Serif" font-size="10.00">/cocos2d.h/extensions/GUI</text>
<text text-anchor="middle" x="598.5" y="-85.5" font-family="Helvetica,sans-Serif" font-size="10.00">/CCEditBox/CCEditBoxImpl.h</text>
</a>
</g>
</g>
<!-- Node4&#45;&gt;Node11 -->
<g id="edge41" class="edge">
<title>Node4&#45;&gt;Node11</title>
<path fill="none" stroke="midnightblue" d="M694.16,-561.88C661.47,-533.08 616.5,-483.47 616.5,-428.5 616.5,-428.5 616.5,-428.5 616.5,-254 616.5,-205.55 607.6,-149.1 602.32,-119.85"/>
<polygon fill="midnightblue" stroke="midnightblue" points="691.89,-564.55 701.76,-568.4 696.45,-559.23 691.89,-564.55"/>
</g>
<!-- Node12 -->
<g id="node12" class="node">
<title>Node12</title>
<g id="a_node12"><a xlink:href="../../d4/dd3/_c_c_edit_box_impl_android_8h.html" target="_top" xlink:title=" ">
<polygon fill="none" stroke="black" points="0,-0.5 0,-41.5 193,-41.5 193,-0.5 0,-0.5"/>
<text text-anchor="start" x="8" y="-29.5" font-family="Helvetica,sans-Serif" font-size="10.00">/home/runner/work/cocos2d.h</text>
<text text-anchor="start" x="8" y="-18.5" font-family="Helvetica,sans-Serif" font-size="10.00">/cocos2d.h/extensions/GUI</text>
<text text-anchor="middle" x="96.5" y="-7.5" font-family="Helvetica,sans-Serif" font-size="10.00">/CCEditBox/CCEditBoxImplAndroid.h</text>
</a>
</g>
</g>
<!-- Node4&#45;&gt;Node12 -->
<g id="edge42" class="edge">
<title>Node4&#45;&gt;Node12</title>
<path fill="none" stroke="midnightblue" d="M636.46,-577.18C571.5,-567.89 491.12,-552.72 464.5,-532 424.03,-500.5 413.5,-479.78 413.5,-428.5 413.5,-428.5 413.5,-428.5 413.5,-176 413.5,-121.93 262.39,-69.11 168.83,-41.59"/>
<polygon fill="midnightblue" stroke="midnightblue" points="636.35,-580.7 646.74,-578.62 637.32,-573.76 636.35,-580.7"/>
</g>
<!-- Node13 -->
<g id="node13" class="node">
<title>Node13</title>
<g id="a_node13"><a xlink:href="../../dd/dfd/_c_c_edit_box_impl_i_o_s_8h.html" target="_top" xlink:title=" ">
<polygon fill="none" stroke="black" points="211.5,-0.5 211.5,-41.5 383.5,-41.5 383.5,-0.5 211.5,-0.5"/>
<text text-anchor="start" x="219.5" y="-29.5" font-family="Helvetica,sans-Serif" font-size="10.00">/home/runner/work/cocos2d.h</text>
<text text-anchor="start" x="219.5" y="-18.5" font-family="Helvetica,sans-Serif" font-size="10.00">/cocos2d.h/extensions/GUI</text>
<text text-anchor="middle" x="297.5" y="-7.5" font-family="Helvetica,sans-Serif" font-size="10.00">/CCEditBox/CCEditBoxImplIOS.h</text>
</a>
</g>
</g>
<!-- Node4&#45;&gt;Node13 -->
<g id="edge43" class="edge">
<title>Node4&#45;&gt;Node13</title>
<path fill="none" stroke="midnightblue" d="M636.91,-580.83C595,-573.69 546.63,-559.62 510.5,-532 468.43,-499.85 451.5,-481.45 451.5,-428.5 451.5,-428.5 451.5,-428.5 451.5,-176 451.5,-131.16 456.46,-112.24 427.5,-78 413.61,-61.58 394.03,-49.85 374.27,-41.51"/>
<polygon fill="midnightblue" stroke="midnightblue" points="636.42,-584.29 646.85,-582.41 637.53,-577.38 636.42,-584.29"/>
</g>
<!-- Node14 -->
<g id="node14" class="node">
<title>Node14</title>
<g id="a_node14"><a xlink:href="../../d7/d4d/_c_c_edit_box_impl_mac_8h.html" target="_top" xlink:title=" ">
<polygon fill="none" stroke="black" points="401.5,-0.5 401.5,-41.5 577.5,-41.5 577.5,-0.5 401.5,-0.5"/>
<text text-anchor="start" x="409.5" y="-29.5" font-family="Helvetica,sans-Serif" font-size="10.00">/home/runner/work/cocos2d.h</text>
<text text-anchor="start" x="409.5" y="-18.5" font-family="Helvetica,sans-Serif" font-size="10.00">/cocos2d.h/extensions/GUI</text>
<text text-anchor="middle" x="489.5" y="-7.5" font-family="Helvetica,sans-Serif" font-size="10.00">/CCEditBox/CCEditBoxImplMac.h</text>
</a>
</g>
</g>
<!-- Node4&#45;&gt;Node14 -->
<g id="edge44" class="edge">
<title>Node4&#45;&gt;Node14</title>
<path fill="none" stroke="midnightblue" d="M637.1,-566.4C569.79,-544.31 489.5,-502.46 489.5,-428.5 489.5,-428.5 489.5,-428.5 489.5,-176 489.5,-127.88 489.5,-71.29 489.5,-41.93"/>
<polygon fill="midnightblue" stroke="midnightblue" points="636.33,-569.83 646.92,-569.52 638.45,-563.16 636.33,-569.83"/>
</g>
<!-- Node15 -->
<g id="node15" class="node">
<title>Node15</title>
<g id="a_node15"><a xlink:href="../../de/dac/_c_c_edit_box_impl_tizen_8h.html" target="_top" xlink:title=" ">
<polygon fill="none" stroke="black" points="790.5,-0.5 790.5,-41.5 972.5,-41.5 972.5,-0.5 790.5,-0.5"/>
<text text-anchor="start" x="798.5" y="-29.5" font-family="Helvetica,sans-Serif" font-size="10.00">/home/runner/work/cocos2d.h</text>
<text text-anchor="start" x="798.5" y="-18.5" font-family="Helvetica,sans-Serif" font-size="10.00">/cocos2d.h/extensions/GUI</text>
<text text-anchor="middle" x="881.5" y="-7.5" font-family="Helvetica,sans-Serif" font-size="10.00">/CCEditBox/CCEditBoxImplTizen.h</text>
</a>
</g>
</g>
<!-- Node4&#45;&gt;Node15 -->
<g id="edge45" class="edge">
<title>Node4&#45;&gt;Node15</title>
<path fill="none" stroke="midnightblue" d="M716.17,-558.7C704.97,-527.08 689.5,-474.99 689.5,-428.5 689.5,-428.5 689.5,-428.5 689.5,-337.5 689.5,-220.67 657.4,-168.33 731.5,-78 746.48,-59.73 768.06,-47.42 790.19,-39.13"/>
<polygon fill="midnightblue" stroke="midnightblue" points="712.92,-560.02 719.63,-568.22 719.5,-557.62 712.92,-560.02"/>
</g>
<!-- Node16 -->
<g id="node16" class="node">
<title>Node16</title>
<g id="a_node16"><a xlink:href="../../dd/d41/_c_c_edit_box_impl_win_8h.html" target="_top" xlink:title=" ">
<polygon fill="none" stroke="black" points="990.5,-0.5 990.5,-41.5 1164.5,-41.5 1164.5,-0.5 990.5,-0.5"/>
<text text-anchor="start" x="998.5" y="-29.5" font-family="Helvetica,sans-Serif" font-size="10.00">/home/runner/work/cocos2d.h</text>
<text text-anchor="start" x="998.5" y="-18.5" font-family="Helvetica,sans-Serif" font-size="10.00">/cocos2d.h/extensions/GUI</text>
<text text-anchor="middle" x="1077.5" y="-7.5" font-family="Helvetica,sans-Serif" font-size="10.00">/CCEditBox/CCEditBoxImplWin.h</text>
</a>
</g>
</g>
<!-- Node4&#45;&gt;Node16 -->
<g id="edge46" class="edge">
<title>Node4&#45;&gt;Node16</title>
<path fill="none" stroke="midnightblue" d="M728.24,-558.26C730.7,-505.52 741.19,-393.49 785.5,-312 852.56,-188.66 988.71,-83.8 1048.38,-41.73"/>
<polygon fill="midnightblue" stroke="midnightblue" points="724.74,-558.16 727.84,-568.29 731.73,-558.44 724.74,-558.16"/>
</g>
<!-- Node27 -->
<g id="node27" class="node">
<title>Node27</title>
<g id="a_node27"><a xlink:href="../../db/d24/_c_c_scale9_sprite_8h.html" target="_top" xlink:title=" ">
<polygon fill="none" stroke="black" points="1777,-490.5 1777,-531.5 1980,-531.5 1980,-490.5 1777,-490.5"/>
<text text-anchor="start" x="1785" y="-519.5" font-family="Helvetica,sans-Serif" font-size="10.00">/home/runner/work/cocos2d.h</text>
<text text-anchor="start" x="1785" y="-508.5" font-family="Helvetica,sans-Serif" font-size="10.00">/cocos2d.h/extensions/GUI</text>
<text text-anchor="middle" x="1878.5" y="-497.5" font-family="Helvetica,sans-Serif" font-size="10.00">/CCControlExtension/CCScale9Sprite.h</text>
</a>
</g>
</g>
<!-- Node4&#45;&gt;Node27 -->
<g id="edge37" class="edge">
<title>Node4&#45;&gt;Node27</title>
<path fill="none" stroke="midnightblue" d="M818.45,-582.72C979.82,-573.26 1326.8,-552.49 1619.5,-532 1671.35,-528.37 1729.01,-523.96 1776.74,-520.2"/>
<polygon fill="midnightblue" stroke="midnightblue" points="817.87,-579.25 808.09,-583.33 818.28,-586.24 817.87,-579.25"/>
</g>
<!-- Node28 -->
<g id="node28" class="node">
<title>Node28</title>
<g id="a_node28"><a xlink:href="../../de/d56/_c_c_scroll_view_8h.html" target="_top" xlink:title=" ">
<polygon fill="none" stroke="black" points="1930,-234.5 1930,-275.5 2091,-275.5 2091,-234.5 1930,-234.5"/>
<text text-anchor="start" x="1938" y="-263.5" font-family="Helvetica,sans-Serif" font-size="10.00">/home/runner/work/cocos2d.h</text>
<text text-anchor="start" x="1938" y="-252.5" font-family="Helvetica,sans-Serif" font-size="10.00">/cocos2d.h/extensions/GUI</text>
<text text-anchor="middle" x="2010.5" y="-241.5" font-family="Helvetica,sans-Serif" font-size="10.00">/CCScrollView/CCScrollView.h</text>
</a>
</g>
</g>
<!-- Node4&#45;&gt;Node28 -->
<g id="edge47" class="edge">
<title>Node4&#45;&gt;Node28</title>
<path fill="none" stroke="midnightblue" d="M818.58,-586.23C1099.84,-580.46 1938.8,-560.9 1989.5,-532 2007.49,-521.75 2034.59,-473.85 2040.5,-454 2059.46,-390.36 2033.43,-311.46 2018.99,-275.5"/>
<polygon fill="midnightblue" stroke="midnightblue" points="818.34,-582.73 808.41,-586.44 818.48,-589.73 818.34,-582.73"/>
</g>
<!-- Node30 -->
<g id="node30" class="node">
<title>Node30</title>
<g id="a_node30"><a xlink:href="../../d8/d12/_http_client_8h.html" target="_top" xlink:title=" ">
<polygon fill="none" stroke="black" points="2147,-318 2147,-359 2314,-359 2314,-318 2147,-318"/>
<text text-anchor="start" x="2155" y="-347" font-family="Helvetica,sans-Serif" font-size="10.00">/home/runner/work/cocos2d.h</text>
<text text-anchor="start" x="2155" y="-336" font-family="Helvetica,sans-Serif" font-size="10.00">/cocos2d.h/extensions/network</text>
<text text-anchor="middle" x="2230.5" y="-325" font-family="Helvetica,sans-Serif" font-size="10.00">/HttpClient.h</text>
</a>
</g>
</g>
<!-- Node4&#45;&gt;Node30 -->
<g id="edge51" class="edge">
<title>Node4&#45;&gt;Node30</title>
<path fill="none" stroke="midnightblue" d="M818.58,-587.84C1133.78,-586.86 2161.75,-580 2212.5,-532 2260.17,-486.91 2245.53,-398.42 2235.95,-359.12"/>
<polygon fill="midnightblue" stroke="midnightblue" points="818.11,-584.34 808.12,-587.87 818.13,-591.34 818.11,-584.34"/>
</g>
<!-- Node31 -->
<g id="node31" class="node">
<title>Node31</title>
<g id="a_node31"><a xlink:href="../../d3/d95/_http_request_8h.html" target="_top" xlink:title=" ">
<polygon fill="none" stroke="black" points="2036,-490.5 2036,-531.5 2203,-531.5 2203,-490.5 2036,-490.5"/>
<text text-anchor="start" x="2044" y="-519.5" font-family="Helvetica,sans-Serif" font-size="10.00">/home/runner/work/cocos2d.h</text>
<text text-anchor="start" x="2044" y="-508.5" font-family="Helvetica,sans-Serif" font-size="10.00">/cocos2d.h/extensions/network</text>
<text text-anchor="middle" x="2119.5" y="-497.5" font-family="Helvetica,sans-Serif" font-size="10.00">/HttpRequest.h</text>
</a>
</g>
</g>
<!-- Node4&#45;&gt;Node31 -->
<g id="edge53" class="edge">
<title>Node4&#45;&gt;Node31</title>
<path fill="none" stroke="midnightblue" d="M818.45,-585.96C1072.97,-579.96 1789.01,-560.93 2022.5,-532 2026.85,-531.46 2031.3,-530.83 2035.78,-530.13"/>
<polygon fill="midnightblue" stroke="midnightblue" points="818.05,-582.47 808.14,-586.21 818.22,-589.47 818.05,-582.47"/>
</g>
<!-- Node32 -->
<g id="node32" class="node">
<title>Node32</title>
<g id="a_node32"><a xlink:href="../../d1/d33/_http_response_8h.html" target="_top" xlink:title=" ">
<polygon fill="none" stroke="black" points="2258,-407 2258,-448 2425,-448 2425,-407 2258,-407"/>
<text text-anchor="start" x="2266" y="-436" font-family="Helvetica,sans-Serif" font-size="10.00">/home/runner/work/cocos2d.h</text>
<text text-anchor="start" x="2266" y="-425" font-family="Helvetica,sans-Serif" font-size="10.00">/cocos2d.h/extensions/network</text>
<text text-anchor="middle" x="2341.5" y="-414" font-family="Helvetica,sans-Serif" font-size="10.00">/HttpResponse.h</text>
</a>
</g>
</g>
<!-- Node4&#45;&gt;Node32 -->
<g id="edge59" class="edge">
<title>Node4&#45;&gt;Node32</title>
<path fill="none" stroke="midnightblue" d="M818.33,-586.55C1135.69,-581.25 2179.47,-561.61 2244.5,-532 2254.7,-527.36 2299.42,-477 2324.43,-448.28"/>
<polygon fill="midnightblue" stroke="midnightblue" points="818.19,-583.05 808.25,-586.72 818.3,-590.05 818.19,-583.05"/>
</g>
<!-- Node33 -->
<g id="node33" class="node">
<title>Node33</title>
<g id="a_node33"><a xlink:href="../../da/d1e/_web_socket_8h.html" target="_top" xlink:title=" ">
<polygon fill="none" stroke="black" points="2296,-490.5 2296,-531.5 2463,-531.5 2463,-490.5 2296,-490.5"/>
<text text-anchor="start" x="2304" y="-519.5" font-family="Helvetica,sans-Serif" font-size="10.00">/home/runner/work/cocos2d.h</text>
<text text-anchor="start" x="2304" y="-508.5" font-family="Helvetica,sans-Serif" font-size="10.00">/cocos2d.h/extensions/network</text>
<text text-anchor="middle" x="2379.5" y="-497.5" font-family="Helvetica,sans-Serif" font-size="10.00">/WebSocket.h</text>
</a>
</g>
</g>
<!-- Node4&#45;&gt;Node33 -->
<g id="edge60" class="edge">
<title>Node4&#45;&gt;Node33</title>
<path fill="none" stroke="midnightblue" d="M818.72,-586.72C1107.03,-582.36 1996.37,-566.4 2282.5,-532 2286.85,-531.48 2291.3,-530.86 2295.78,-530.17"/>
<polygon fill="midnightblue" stroke="midnightblue" points="818.26,-583.23 808.31,-586.88 818.36,-590.23 818.26,-583.23"/>
</g>
<!-- Node5&#45;&gt;Node4 -->
<g id="edge5" class="edge">
<title>Node5&#45;&gt;Node4</title>
<path fill="none" stroke="midnightblue" d="M174.29,-530.77C176.72,-531.21 179.13,-531.61 181.5,-532 345.92,-558.67 539.94,-574.78 646.83,-582.48"/>
<polygon fill="midnightblue" stroke="midnightblue" points="174.69,-527.29 164.22,-528.9 173.41,-534.17 174.69,-527.29"/>
</g>
<!-- Node8 -->
<g id="node8" class="node">
<title>Node8</title>
<g id="a_node8"><a xlink:href="../../d0/d7e/_c_c_control_button_8h.html" target="_top" xlink:title=" ">
<polygon fill="none" stroke="black" points="1806,-407 1806,-448 2015,-448 2015,-407 1806,-407"/>
<text text-anchor="start" x="1814" y="-436" font-family="Helvetica,sans-Serif" font-size="10.00">/home/runner/work/cocos2d.h</text>
<text text-anchor="start" x="1814" y="-425" font-family="Helvetica,sans-Serif" font-size="10.00">/cocos2d.h/extensions/GUI</text>
<text text-anchor="middle" x="1910.5" y="-414" font-family="Helvetica,sans-Serif" font-size="10.00">/CCControlExtension/CCControlButton.h</text>
</a>
</g>
</g>
<!-- Node7&#45;&gt;Node8 -->
<g id="edge8" class="edge">
<title>Node7&#45;&gt;Node8</title>
<path fill="none" stroke="midnightblue" d="M1620.36,-489.66C1671.47,-479.1 1734.85,-465.94 1791.5,-454 1800.6,-452.08 1810.08,-450.07 1819.55,-448.05"/>
<polygon fill="midnightblue" stroke="midnightblue" points="1619.39,-486.28 1610.3,-491.73 1620.8,-493.14 1619.39,-486.28"/>
</g>
<!-- Node9 -->
<g id="node9" class="node">
<title>Node9</title>
<g id="a_node9"><a xlink:href="../../d6/d86/_c_c_control_extensions_8h.html" target="_top" xlink:title=" ">
<polygon fill="none" stroke="black" points="1406.5,-234.5 1406.5,-275.5 1636.5,-275.5 1636.5,-234.5 1406.5,-234.5"/>
<text text-anchor="start" x="1414.5" y="-263.5" font-family="Helvetica,sans-Serif" font-size="10.00">/home/runner/work/cocos2d.h</text>
<text text-anchor="start" x="1414.5" y="-252.5" font-family="Helvetica,sans-Serif" font-size="10.00">/cocos2d.h/extensions/GUI</text>
<text text-anchor="middle" x="1521.5" y="-241.5" font-family="Helvetica,sans-Serif" font-size="10.00">/CCControlExtension/CCControlExtensions.h</text>
</a>
</g>
</g>
<!-- Node7&#45;&gt;Node9 -->
<g id="edge22" class="edge">
<title>Node7&#45;&gt;Node9</title>
<path fill="none" stroke="midnightblue" d="M1422.4,-507.93C1260.2,-503.5 952.64,-490.37 919.5,-454 903.63,-436.59 906.19,-420.43 919.5,-401 944.55,-364.44 977.46,-392.14 1012.5,-365 1035.41,-347.25 1025.54,-326.74 1050.5,-312 1108.82,-277.55 1286.67,-264.25 1406.35,-259.15"/>
<polygon fill="midnightblue" stroke="midnightblue" points="1422.78,-511.44 1432.87,-508.21 1422.97,-504.44 1422.78,-511.44"/>
</g>
<!-- Node19 -->
<g id="node19" class="node">
<title>Node19</title>
<g id="a_node19"><a xlink:href="../../d3/db7/_c_c_control_colour_picker_8h.html" target="_top" xlink:title=" ">
<polygon fill="none" stroke="black" points="1059.5,-312.5 1059.5,-364.5 1259.5,-364.5 1259.5,-312.5 1059.5,-312.5"/>
<text text-anchor="start" x="1067.5" y="-352.5" font-family="Helvetica,sans-Serif" font-size="10.00">/home/runner/work/cocos2d.h</text>
<text text-anchor="start" x="1067.5" y="-341.5" font-family="Helvetica,sans-Serif" font-size="10.00">/cocos2d.h/extensions/GUI</text>
<text text-anchor="start" x="1067.5" y="-330.5" font-family="Helvetica,sans-Serif" font-size="10.00">/CCControlExtension/CCControlColour</text>
<text text-anchor="middle" x="1159.5" y="-319.5" font-family="Helvetica,sans-Serif" font-size="10.00">Picker.h</text>
</a>
</g>
</g>
<!-- Node7&#45;&gt;Node19 -->
<g id="edge20" class="edge">
<title>Node7&#45;&gt;Node19</title>
<path fill="none" stroke="midnightblue" d="M1608.39,-485.86C1622.71,-478 1635.72,-467.64 1644.5,-454 1657.25,-434.19 1660.34,-418.43 1644.5,-401 1616.27,-369.94 1309.92,-371.8 1268.5,-365 1265.62,-364.53 1262.71,-364.02 1259.77,-363.49"/>
<polygon fill="midnightblue" stroke="midnightblue" points="1606.69,-482.8 1599.34,-490.43 1609.84,-489.05 1606.69,-482.8"/>
</g>
<!-- Node20 -->
<g id="node20" class="node">
<title>Node20</title>
<g id="a_node20"><a xlink:href="../../dd/d5a/_c_c_control_hue_picker_8h.html" target="_top" xlink:title=" ">
<polygon fill="none" stroke="black" points="928,-407 928,-448 1153,-448 1153,-407 928,-407"/>
<text text-anchor="start" x="936" y="-436" font-family="Helvetica,sans-Serif" font-size="10.00">/home/runner/work/cocos2d.h</text>
<text text-anchor="start" x="936" y="-425" font-family="Helvetica,sans-Serif" font-size="10.00">/cocos2d.h/extensions/GUI</text>
<text text-anchor="middle" x="1040.5" y="-414" font-family="Helvetica,sans-Serif" font-size="10.00">/CCControlExtension/CCControlHuePicker.h</text>
</a>
</g>
</g>
<!-- Node7&#45;&gt;Node20 -->
<g id="edge23" class="edge">
<title>Node7&#45;&gt;Node20</title>
<path fill="none" stroke="midnightblue" d="M1422.76,-495.99C1350.52,-485.4 1250.22,-470 1162.5,-454 1152.39,-452.16 1141.83,-450.12 1131.34,-448.02"/>
<polygon fill="midnightblue" stroke="midnightblue" points="1422.37,-499.47 1432.77,-497.45 1423.38,-492.54 1422.37,-499.47"/>
</g>
<!-- Node21 -->
<g id="node21" class="node">
<title>Node21</title>
<g id="a_node21"><a xlink:href="../../d2/d29/_c_c_control_potentiometer_8h.html" target="_top" xlink:title=" ">
<polygon fill="none" stroke="black" points="1277.5,-318 1277.5,-359 1523.5,-359 1523.5,-318 1277.5,-318"/>
<text text-anchor="start" x="1285.5" y="-347" font-family="Helvetica,sans-Serif" font-size="10.00">/home/runner/work/cocos2d.h</text>
<text text-anchor="start" x="1285.5" y="-336" font-family="Helvetica,sans-Serif" font-size="10.00">/cocos2d.h/extensions/GUI</text>
<text text-anchor="middle" x="1400.5" y="-325" font-family="Helvetica,sans-Serif" font-size="10.00">/CCControlExtension/CCControlPotentiometer.h</text>
</a>
</g>
</g>
<!-- Node7&#45;&gt;Node21 -->
<g id="edge25" class="edge">
<title>Node7&#45;&gt;Node21</title>
<path fill="none" stroke="midnightblue" d="M1620.01,-494.64C1642.46,-486.33 1663.74,-473.56 1677.5,-454 1691.05,-434.73 1692.24,-419.37 1677.5,-401 1671.77,-393.86 1579.18,-374.25 1502.6,-359.08"/>
<polygon fill="midnightblue" stroke="midnightblue" points="1618.67,-491.4 1610.33,-497.94 1620.93,-498.03 1618.67,-491.4"/>
</g>
<!-- Node22 -->
<g id="node22" class="node">
<title>Node22</title>
<g id="a_node22"><a xlink:href="../../de/d08/_c_c_control_saturation_brightness_picker_8h.html" target="_top" xlink:title=" ">
<polygon fill="none" stroke="black" points="1171.5,-401.5 1171.5,-453.5 1389.5,-453.5 1389.5,-401.5 1171.5,-401.5"/>
<text text-anchor="start" x="1179.5" y="-441.5" font-family="Helvetica,sans-Serif" font-size="10.00">/home/runner/work/cocos2d.h</text>
<text text-anchor="start" x="1179.5" y="-430.5" font-family="Helvetica,sans-Serif" font-size="10.00">/cocos2d.h/extensions/GUI</text>
<text text-anchor="start" x="1179.5" y="-419.5" font-family="Helvetica,sans-Serif" font-size="10.00">/CCControlExtension/CCControlSaturation</text>
<text text-anchor="middle" x="1280.5" y="-408.5" font-family="Helvetica,sans-Serif" font-size="10.00">BrightnessPicker.h</text>
</a>
</g>
</g>
<!-- Node7&#45;&gt;Node22 -->
<g id="edge27" class="edge">
<title>Node7&#45;&gt;Node22</title>
<path fill="none" stroke="midnightblue" d="M1453.96,-487.16C1423.04,-476.7 1386.33,-464.29 1354.65,-453.58"/>
<polygon fill="midnightblue" stroke="midnightblue" points="1453.18,-490.59 1463.77,-490.48 1455.42,-483.96 1453.18,-490.59"/>
</g>
<!-- Node23 -->
<g id="node23" class="node">
<title>Node23</title>
<g id="a_node23"><a xlink:href="../../d6/d7e/_c_c_control_slider_8h.html" target="_top" xlink:title=" ">
<polygon fill="none" stroke="black" points="1541.5,-318 1541.5,-359 1745.5,-359 1745.5,-318 1541.5,-318"/>
<text text-anchor="start" x="1549.5" y="-347" font-family="Helvetica,sans-Serif" font-size="10.00">/home/runner/work/cocos2d.h</text>
<text text-anchor="start" x="1549.5" y="-336" font-family="Helvetica,sans-Serif" font-size="10.00">/cocos2d.h/extensions/GUI</text>
<text text-anchor="middle" x="1643.5" y="-325" font-family="Helvetica,sans-Serif" font-size="10.00">/CCControlExtension/CCControlSlider.h</text>
</a>
</g>
</g>
<!-- Node7&#45;&gt;Node23 -->
<g id="edge29" class="edge">
<title>Node7&#45;&gt;Node23</title>
<path fill="none" stroke="midnightblue" d="M1620.26,-500.63C1649.51,-492.7 1678.5,-478.65 1696.5,-454 1710.39,-434.97 1704.7,-423.08 1696.5,-401 1690.51,-384.88 1678.19,-370.16 1666.94,-359.16"/>
<polygon fill="midnightblue" stroke="midnightblue" points="1619.21,-497.28 1610.35,-503.09 1620.89,-504.08 1619.21,-497.28"/>
</g>
<!-- Node24 -->
<g id="node24" class="node">
<title>Node24</title>
<g id="a_node24"><a xlink:href="../../de/dba/_c_c_control_stepper_8h.html" target="_top" xlink:title=" ">
<polygon fill="none" stroke="black" points="1763.5,-318 1763.5,-359 1977.5,-359 1977.5,-318 1763.5,-318"/>
<text text-anchor="start" x="1771.5" y="-347" font-family="Helvetica,sans-Serif" font-size="10.00">/home/runner/work/cocos2d.h</text>
<text text-anchor="start" x="1771.5" y="-336" font-family="Helvetica,sans-Serif" font-size="10.00">/cocos2d.h/extensions/GUI</text>
<text text-anchor="middle" x="1870.5" y="-325" font-family="Helvetica,sans-Serif" font-size="10.00">/CCControlExtension/CCControlStepper.h</text>
</a>
</g>
</g>
<!-- Node7&#45;&gt;Node24 -->
<g id="edge31" class="edge">
<title>Node7&#45;&gt;Node24</title>
<path fill="none" stroke="midnightblue" d="M1620.36,-488.48C1651.36,-479.86 1685.13,-468.47 1714.5,-454 1742,-440.45 1809.57,-388.03 1846.11,-359.05"/>
<polygon fill="midnightblue" stroke="midnightblue" points="1619.13,-485.18 1610.4,-491.18 1620.97,-491.94 1619.13,-485.18"/>
</g>
<!-- Node25 -->
<g id="node25" class="node">
<title>Node25</title>
<g id="a_node25"><a xlink:href="../../de/dc7/_c_c_control_switch_8h.html" target="_top" xlink:title=" ">
<polygon fill="none" stroke="black" points="794,-318 794,-359 1003,-359 1003,-318 794,-318"/>
<text text-anchor="start" x="802" y="-347" font-family="Helvetica,sans-Serif" font-size="10.00">/home/runner/work/cocos2d.h</text>
<text text-anchor="start" x="802" y="-336" font-family="Helvetica,sans-Serif" font-size="10.00">/cocos2d.h/extensions/GUI</text>
<text text-anchor="middle" x="898.5" y="-325" font-family="Helvetica,sans-Serif" font-size="10.00">/CCControlExtension/CCControlSwitch.h</text>
</a>
</g>
</g>
<!-- Node7&#45;&gt;Node25 -->
<g id="edge33" class="edge">
<title>Node7&#45;&gt;Node25</title>
<path fill="none" stroke="midnightblue" d="M1422.57,-508.47C1252.86,-504.82 920.99,-492.75 885.5,-454 861.99,-428.33 876.44,-384.66 888.12,-359.32"/>
<polygon fill="midnightblue" stroke="midnightblue" points="1422.69,-511.98 1432.76,-508.69 1422.84,-504.98 1422.69,-511.98"/>
</g>
<!-- Node26 -->
<g id="node26" class="node">
<title>Node26</title>
<g id="a_node26"><a xlink:href="../../d8/dec/_color_picker_delegate_8h.html" target="_top" xlink:title=" ">
<polygon fill="none" stroke="black" points="1408,-407 1408,-448 1635,-448 1635,-407 1408,-407"/>
<text text-anchor="start" x="1416" y="-436" font-family="Helvetica,sans-Serif" font-size="10.00">/home/runner/work/cocos2d.h</text>
<text text-anchor="start" x="1416" y="-425" font-family="Helvetica,sans-Serif" font-size="10.00">/cocos2d.h/extensions/GUI</text>
<text text-anchor="middle" x="1521.5" y="-414" font-family="Helvetica,sans-Serif" font-size="10.00">/CCControlExtension/ColorPickerDelegate.h</text>
</a>
</g>
</g>
<!-- Node7&#45;&gt;Node26 -->
<g id="edge35" class="edge">
<title>Node7&#45;&gt;Node26</title>
<path fill="none" stroke="midnightblue" d="M1521.5,-480.06C1521.5,-469.38 1521.5,-457.63 1521.5,-448.05"/>
<polygon fill="midnightblue" stroke="midnightblue" points="1518,-480.27 1521.5,-490.27 1525,-480.27 1518,-480.27"/>
</g>
<!-- Node8&#45;&gt;Node9 -->
<g id="edge9" class="edge">
<title>Node8&#45;&gt;Node9</title>
<path fill="none" stroke="midnightblue" d="M1955.22,-400.94C1967.68,-391.39 1979.66,-379.33 1986.5,-365 1996.64,-343.74 2002.13,-329.62 1986.5,-312 1963.62,-286.2 1766.91,-270 1636.77,-262.01"/>
<polygon fill="midnightblue" stroke="midnightblue" points="1953.09,-398.16 1947.02,-406.84 1957.18,-403.84 1953.09,-398.16"/>
</g>
<!-- Node9&#45;&gt;Node10 -->
<g id="edge10" class="edge">
<title>Node9&#45;&gt;Node10</title>
<path fill="none" stroke="midnightblue" d="M1443.62,-231.58C1406.05,-220.76 1361.4,-207.91 1325.26,-197.51"/>
<polygon fill="midnightblue" stroke="midnightblue" points="1442.94,-235.03 1453.51,-234.43 1444.87,-228.3 1442.94,-235.03"/>
</g>
<!-- Node18 -->
<g id="node18" class="node">
<title>Node18</title>
<g id="a_node18"><a xlink:href="../../d3/d58/cocos-ext_8h.html" target="_top" xlink:title=" ">
<polygon fill="none" stroke="black" points="1989.5,-84 1989.5,-114 2173.5,-114 2173.5,-84 1989.5,-84"/>
<text text-anchor="start" x="1997.5" y="-102" font-family="Helvetica,sans-Serif" font-size="10.00">/home/runner/work/cocos2d.h</text>
<text text-anchor="middle" x="2081.5" y="-91" font-family="Helvetica,sans-Serif" font-size="10.00">/cocos2d.h/extensions/cocos&#45;ext.h</text>
</a>
</g>
</g>
<!-- Node9&#45;&gt;Node18 -->
<g id="edge19" class="edge">
<title>Node9&#45;&gt;Node18</title>
<path fill="none" stroke="midnightblue" d="M1602.41,-231.75C1719.44,-199.57 1932.59,-140.95 2030.21,-114.11"/>
<polygon fill="midnightblue" stroke="midnightblue" points="1601.14,-228.47 1592.42,-234.5 1602.99,-235.22 1601.14,-228.47"/>
</g>
<!-- Node10&#45;&gt;Node11 -->
<g id="edge11" class="edge">
<title>Node10&#45;&gt;Node11</title>
<path fill="none" stroke="midnightblue" d="M1166.43,-165.5C1037.17,-150.59 802.52,-123.53 679.19,-109.31"/>
<polygon fill="midnightblue" stroke="midnightblue" points="1166.36,-169.01 1176.69,-166.68 1167.16,-162.06 1166.36,-169.01"/>
</g>
<!-- Node10&#45;&gt;Node18 -->
<g id="edge18" class="edge">
<title>Node10&#45;&gt;Node18</title>
<path fill="none" stroke="midnightblue" d="M1348.17,-167.64C1506.21,-153.06 1830.39,-123.16 1989.41,-108.49"/>
<polygon fill="midnightblue" stroke="midnightblue" points="1347.65,-164.17 1338.01,-168.57 1348.29,-171.14 1347.65,-164.17"/>
</g>
<!-- Node11&#45;&gt;Node12 -->
<g id="edge12" class="edge">
<title>Node11&#45;&gt;Node12</title>
<path fill="none" stroke="midnightblue" d="M507.85,-86.39C427.47,-75.8 306.96,-59.23 202.5,-42 199.45,-41.5 196.36,-40.98 193.23,-40.44"/>
<polygon fill="midnightblue" stroke="midnightblue" points="507.57,-89.88 517.94,-87.71 508.48,-82.94 507.57,-89.88"/>
</g>
<!-- Node11&#45;&gt;Node13 -->
<g id="edge13" class="edge">
<title>Node11&#45;&gt;Node13</title>
<path fill="none" stroke="midnightblue" d="M511.07,-75.92C467.95,-65.04 416.4,-52.02 374.75,-41.51"/>
<polygon fill="midnightblue" stroke="midnightblue" points="510.43,-79.37 520.99,-78.43 512.15,-72.59 510.43,-79.37"/>
</g>
<!-- Node11&#45;&gt;Node14 -->
<g id="edge14" class="edge">
<title>Node11&#45;&gt;Node14</title>
<path fill="none" stroke="midnightblue" d="M562.12,-72.64C547.57,-62.49 531.07,-50.98 517.48,-41.51"/>
<polygon fill="midnightblue" stroke="midnightblue" points="560.23,-75.58 570.43,-78.43 564.23,-69.84 560.23,-75.58"/>
</g>
<!-- Node11&#45;&gt;Node15 -->
<g id="edge15" class="edge">
<title>Node11&#45;&gt;Node15</title>
<path fill="none" stroke="midnightblue" d="M681.21,-75.79C721.65,-64.93 769.87,-51.98 808.87,-41.51"/>
<polygon fill="midnightblue" stroke="midnightblue" points="680.13,-72.45 671.38,-78.43 681.95,-79.21 680.13,-72.45"/>
</g>
<!-- Node11&#45;&gt;Node16 -->
<g id="edge16" class="edge">
<title>Node11&#45;&gt;Node16</title>
<path fill="none" stroke="midnightblue" d="M689.25,-84.28C703.39,-82.16 717.84,-80.01 731.5,-78 842.56,-61.65 870.94,-61.46 981.5,-42 984.43,-41.48 987.42,-40.94 990.42,-40.39"/>
<polygon fill="midnightblue" stroke="midnightblue" points="688.39,-80.87 679.02,-85.81 689.43,-87.79 688.39,-80.87"/>
</g>
<!-- Node17 -->
<g id="node17" class="node">
<title>Node17</title>
<g id="a_node17"><a xlink:href="../../d4/d91/_c_c_edit_box_impl_wp8_8h.html" target="_top" xlink:title=" ">
<polygon fill="none" stroke="black" points="595,-0.5 595,-41.5 772,-41.5 772,-0.5 595,-0.5"/>
<text text-anchor="start" x="603" y="-29.5" font-family="Helvetica,sans-Serif" font-size="10.00">/home/runner/work/cocos2d.h</text>
<text text-anchor="start" x="603" y="-18.5" font-family="Helvetica,sans-Serif" font-size="10.00">/cocos2d.h/extensions/GUI</text>
<text text-anchor="middle" x="683.5" y="-7.5" font-family="Helvetica,sans-Serif" font-size="10.00">/CCEditBox/CCEditBoxImplWp8.h</text>
</a>
</g>
</g>
<!-- Node11&#45;&gt;Node17 -->
<g id="edge17" class="edge">
<title>Node11&#45;&gt;Node17</title>
<path fill="none" stroke="midnightblue" d="M628.15,-71.49C639.18,-61.63 651.48,-50.63 661.68,-41.51"/>
<polygon fill="midnightblue" stroke="midnightblue" points="625.51,-69.15 620.39,-78.43 630.18,-74.37 625.51,-69.15"/>
</g>
<!-- Node19&#45;&gt;Node9 -->
<g id="edge21" class="edge">
<title>Node19&#45;&gt;Node9</title>
<path fill="none" stroke="midnightblue" d="M1269.55,-311.77C1329.17,-298.23 1386.26,-285.59 1432.16,-275.5"/>
<polygon fill="midnightblue" stroke="midnightblue" points="1268.55,-308.41 1259.57,-314.04 1270.1,-315.23 1268.55,-308.41"/>
</g>
<!-- Node20&#45;&gt;Node19 -->
<g id="edge24" class="edge">
<title>Node20&#45;&gt;Node19</title>
<path fill="none" stroke="midnightblue" d="M1075.59,-400.85C1091.24,-389.4 1109.63,-375.96 1125.19,-364.58"/>
<polygon fill="midnightblue" stroke="midnightblue" points="1073.21,-398.25 1067.21,-406.98 1077.34,-403.9 1073.21,-398.25"/>
</g>
<!-- Node21&#45;&gt;Node9 -->
<g id="edge26" class="edge">
<title>Node21&#45;&gt;Node9</title>
<path fill="none" stroke="midnightblue" d="M1437.82,-312.37C1455.36,-300.55 1475.96,-286.67 1492.33,-275.64"/>
<polygon fill="midnightblue" stroke="midnightblue" points="1435.82,-309.49 1429.48,-317.98 1439.73,-315.3 1435.82,-309.49"/>
</g>
<!-- Node22&#45;&gt;Node19 -->
<g id="edge28" class="edge">
<title>Node22&#45;&gt;Node19</title>
<path fill="none" stroke="midnightblue" d="M1236.99,-395.22C1223.01,-385.16 1207.71,-374.16 1194.42,-364.61"/>
<polygon fill="midnightblue" stroke="midnightblue" points="1235.34,-398.34 1245.5,-401.34 1239.43,-392.66 1235.34,-398.34"/>
</g>
<!-- Node23&#45;&gt;Node9 -->
<g id="edge30" class="edge">
<title>Node23&#45;&gt;Node9</title>
<path fill="none" stroke="midnightblue" d="M1605.88,-312.37C1588.19,-300.55 1567.42,-286.67 1550.91,-275.64"/>
<polygon fill="midnightblue" stroke="midnightblue" points="1604.02,-315.33 1614.28,-317.98 1607.91,-309.51 1604.02,-315.33"/>
</g>
<!-- Node24&#45;&gt;Node9 -->
<g id="edge32" class="edge">
<title>Node24&#45;&gt;Node9</title>
<path fill="none" stroke="midnightblue" d="M1777.06,-315.68C1723.5,-303.17 1656.83,-287.6 1605.02,-275.5"/>
<polygon fill="midnightblue" stroke="midnightblue" points="1776.37,-319.11 1786.91,-317.98 1777.96,-312.3 1776.37,-319.11"/>
</g>
<!-- Node25&#45;&gt;Node9 -->
<g id="edge34" class="edge">
<title>Node25&#45;&gt;Node9</title>
<path fill="none" stroke="midnightblue" d="M994.82,-316C1002.47,-314.56 1010.1,-313.2 1017.5,-312 1150.24,-290.46 1304.01,-274.69 1406.46,-265.47"/>
<polygon fill="midnightblue" stroke="midnightblue" points="993.9,-312.62 984.75,-317.95 995.23,-319.49 993.9,-312.62"/>
</g>
<!-- Node26&#45;&gt;Node19 -->
<g id="edge36" class="edge">
<title>Node26&#45;&gt;Node19</title>
<path fill="none" stroke="midnightblue" d="M1430.37,-404.6C1378.32,-392.09 1312.99,-376.39 1259.52,-363.54"/>
<polygon fill="midnightblue" stroke="midnightblue" points="1429.72,-408.04 1440.26,-406.98 1431.35,-401.24 1429.72,-408.04"/>
</g>
<!-- Node27&#45;&gt;Node8 -->
<g id="edge38" class="edge">
<title>Node27&#45;&gt;Node8</title>
<path fill="none" stroke="midnightblue" d="M1889.99,-480.73C1894.26,-469.87 1898.98,-457.83 1902.83,-448.05"/>
<polygon fill="midnightblue" stroke="midnightblue" points="1886.64,-479.68 1886.25,-490.27 1893.16,-482.24 1886.64,-479.68"/>
</g>
<!-- Node27&#45;&gt;Node9 -->
<g id="edge39" class="edge">
<title>Node27&#45;&gt;Node9</title>
<path fill="none" stroke="midnightblue" d="M1987.05,-485.88C2001.8,-478.06 2015.08,-467.71 2024.5,-454 2043.85,-425.86 2005.97,-313.32 2004.5,-312 1977.65,-287.85 1770.88,-270.96 1636.72,-262.42"/>
<polygon fill="midnightblue" stroke="midnightblue" points="1985.16,-482.91 1977.7,-490.43 1988.22,-489.21 1985.16,-482.91"/>
</g>
<!-- Node28&#45;&gt;Node18 -->
<g id="edge50" class="edge">
<title>Node28&#45;&gt;Node18</title>
<path fill="none" stroke="midnightblue" d="M2040.99,-227.25C2049.11,-218.67 2057.11,-208.61 2062.5,-198 2076.47,-170.5 2080.2,-133.86 2081.17,-114.09"/>
<polygon fill="midnightblue" stroke="midnightblue" points="2038.46,-224.83 2033.89,-234.39 2043.43,-229.76 2038.46,-224.83"/>
</g>
<!-- Node29 -->
<g id="node29" class="node">
<title>Node29</title>
<g id="a_node29"><a xlink:href="../../d8/dbb/_c_c_table_view_8h.html" target="_top" xlink:title=" ">
<polygon fill="none" stroke="black" points="1892,-156.5 1892,-197.5 2053,-197.5 2053,-156.5 1892,-156.5"/>
<text text-anchor="start" x="1900" y="-185.5" font-family="Helvetica,sans-Serif" font-size="10.00">/home/runner/work/cocos2d.h</text>
<text text-anchor="start" x="1900" y="-174.5" font-family="Helvetica,sans-Serif" font-size="10.00">/cocos2d.h/extensions/GUI</text>
<text text-anchor="middle" x="1972.5" y="-163.5" font-family="Helvetica,sans-Serif" font-size="10.00">/CCScrollView/CCTableView.h</text>
</a>
</g>
</g>
<!-- Node28&#45;&gt;Node29 -->
<g id="edge48" class="edge">
<title>Node28&#45;&gt;Node29</title>
<path fill="none" stroke="midnightblue" d="M1996.23,-225.47C1991.57,-216.14 1986.5,-206.01 1982.25,-197.51"/>
<polygon fill="midnightblue" stroke="midnightblue" points="1993.11,-227.05 2000.71,-234.43 1999.37,-223.92 1993.11,-227.05"/>
</g>
<!-- Node29&#45;&gt;Node18 -->
<g id="edge49" class="edge">
<title>Node29&#45;&gt;Node18</title>
<path fill="none" stroke="midnightblue" d="M2008.85,-150.66C2026.25,-138.53 2046.43,-124.45 2061.1,-114.23"/>
<polygon fill="midnightblue" stroke="midnightblue" points="2006.77,-147.84 2000.57,-156.43 2010.77,-153.58 2006.77,-147.84"/>
</g>
<!-- Node30&#45;&gt;Node18 -->
<g id="edge52" class="edge">
<title>Node30&#45;&gt;Node18</title>
<path fill="none" stroke="midnightblue" d="M2217.85,-308.53C2201.09,-271.54 2169.4,-206.33 2133.5,-156 2122.56,-140.66 2107.76,-125.11 2096.74,-114.3"/>
<polygon fill="midnightblue" stroke="midnightblue" points="2214.7,-310.04 2221.98,-317.73 2221.08,-307.18 2214.7,-310.04"/>
</g>
<!-- Node31&#45;&gt;Node18 -->
<g id="edge54" class="edge">
<title>Node31&#45;&gt;Node18</title>
<path fill="none" stroke="midnightblue" d="M2119.5,-480.11C2119.5,-446.07 2119.5,-388.78 2119.5,-339.5 2119.5,-339.5 2119.5,-339.5 2119.5,-254 2119.5,-201.13 2098.12,-140.94 2087.44,-114.15"/>
<polygon fill="midnightblue" stroke="midnightblue" points="2116,-480.31 2119.5,-490.31 2123,-480.31 2116,-480.31"/>
</g>
<!-- Node31&#45;&gt;Node30 -->
<g id="edge55" class="edge">
<title>Node31&#45;&gt;Node30</title>
<path fill="none" stroke="midnightblue" d="M2137.9,-481.74C2160.46,-447.08 2198.13,-389.22 2217.74,-359.09"/>
<polygon fill="midnightblue" stroke="midnightblue" points="2134.76,-480.15 2132.23,-490.44 2140.62,-483.97 2134.76,-480.15"/>
</g>
<!-- Node31&#45;&gt;Node32 -->
<g id="edge56" class="edge">
<title>Node31&#45;&gt;Node32</title>
<path fill="none" stroke="midnightblue" d="M2182.36,-486.92C2215.81,-474.64 2256.51,-459.7 2288.38,-448"/>
<polygon fill="midnightblue" stroke="midnightblue" points="2180.86,-483.75 2172.67,-490.48 2183.27,-490.32 2180.86,-483.75"/>
</g>
<!-- Node32&#45;&gt;Node18 -->
<g id="edge57" class="edge">
<title>Node32&#45;&gt;Node18</title>
<path fill="none" stroke="midnightblue" d="M2341.95,-396.37C2341.13,-372.27 2337.24,-338.29 2323.5,-312 2273.18,-215.72 2159.63,-143.36 2107.98,-114.16"/>
<polygon fill="midnightblue" stroke="midnightblue" points="2338.45,-396.75 2342.14,-406.68 2345.45,-396.62 2338.45,-396.75"/>
</g>
<!-- Node32&#45;&gt;Node30 -->
<g id="edge58" class="edge">
<title>Node32&#45;&gt;Node30</title>
<path fill="none" stroke="midnightblue" d="M2308.59,-400.71C2291.67,-387.44 2271.37,-371.53 2255.71,-359.26"/>
<polygon fill="midnightblue" stroke="midnightblue" points="2306.56,-403.56 2316.59,-406.98 2310.88,-398.05 2306.56,-403.56"/>
</g>
<!-- Node34&#45;&gt;Node4 -->
<g id="edge63" class="edge">
<title>Node34&#45;&gt;Node4</title>
<path fill="none" stroke="midnightblue" d="M891.62,-643.3C858.5,-632.55 819.32,-619.82 787.56,-609.51"/>
<polygon fill="midnightblue" stroke="midnightblue" points="890.65,-646.67 901.24,-646.43 892.81,-640.01 890.65,-646.67"/>
</g>
</g>
</svg>
