<?xml version="1.0" encoding="UTF-8" standalone="no"?>
<!DOCTYPE svg PUBLIC "-//W3C//DTD SVG 1.1//EN"
 "http://www.w3.org/Graphics/SVG/1.1/DTD/svg11.dtd">
<!-- Generated by graphviz version 2.43.0 (0)
 -->
<!-- Title: /home/runner/work/cocos2d.h/cocos2d.h/cocos2dx/draw_nodes/CCDrawingPrimitives.h Pages: 1 -->
<svg width="440pt" height="489pt"
 viewBox="0.00 0.00 440.33 489.00" xmlns="http://www.w3.org/2000/svg" xmlns:xlink="http://www.w3.org/1999/xlink">
<g id="graph0" class="graph" transform="scale(1 1) rotate(0) translate(4 485)">
<title>/home/runner/work/cocos2d.h/cocos2d.h/cocos2dx/draw_nodes/CCDrawingPrimitives.h</title>
<!-- Node1 -->
<g id="node1" class="node">
<title>Node1</title>
<g id="a_node1"><a xlink:title="Drawing OpenGL ES primitives.">
<polygon fill="#999999" stroke="#666666" points="264,-481 97,-481 97,-440 264,-440 264,-481"/>
<text text-anchor="start" x="105" y="-469" font-family="Helvetica,sans-Serif" font-size="10.00">/home/runner/work/cocos2d.h</text>
<text text-anchor="start" x="105" y="-458" font-family="Helvetica,sans-Serif" font-size="10.00">/cocos2d.h/cocos2dx/draw</text>
<text text-anchor="middle" x="180.5" y="-447" font-family="Helvetica,sans-Serif" font-size="10.00">_nodes/CCDrawingPrimitives.h</text>
</a>
</g>
</g>
<!-- Node2 -->
<g id="node2" class="node">
<title>Node2</title>
<g id="a_node2"><a xlink:href="../../df/de6/cc_types_8h.html" target="_top" xlink:title=" ">
<polygon fill="white" stroke="#666666" points="212.5,-404 148.5,-404 148.5,-385 212.5,-385 212.5,-404"/>
<text text-anchor="middle" x="180.5" y="-392" font-family="Helvetica,sans-Serif" font-size="10.00">ccTypes.h</text>
</a>
</g>
</g>
<!-- Node1&#45;&gt;Node2 -->
<g id="edge1" class="edge">
<title>Node1&#45;&gt;Node2</title>
<path fill="none" stroke="#63b8ff" d="M180.5,-439.95C180.5,-431.85 180.5,-422.5 180.5,-414.47"/>
<polygon fill="#63b8ff" stroke="#63b8ff" points="184,-414.26 180.5,-404.26 177,-414.26 184,-414.26"/>
</g>
<!-- Node4 -->
<g id="node4" class="node">
<title>Node4</title>
<g id="a_node4"><a xlink:href="../../d6/d09/_c_c_geometry_8h.html" target="_top" xlink:title=" ">
<polygon fill="white" stroke="#666666" points="136.5,-349 18.5,-349 18.5,-330 136.5,-330 136.5,-349"/>
<text text-anchor="middle" x="77.5" y="-337" font-family="Helvetica,sans-Serif" font-size="10.00">cocoa/CCGeometry.h</text>
</a>
</g>
</g>
<!-- Node1&#45;&gt;Node4 -->
<g id="edge21" class="edge">
<title>Node1&#45;&gt;Node4</title>
<path fill="none" stroke="#63b8ff" d="M163.49,-439.85C143.42,-416.65 110.4,-378.51 91.65,-356.85"/>
<polygon fill="#63b8ff" stroke="#63b8ff" points="94.2,-354.45 85.01,-349.18 88.91,-359.03 94.2,-354.45"/>
</g>
<!-- Node11 -->
<g id="node11" class="node">
<title>Node11</title>
<g id="a_node11"><a xlink:href="../../d9/dc8/cc_macros_8h.html" target="_top" xlink:title=" ">
<polygon fill="white" stroke="#666666" points="334,-239 263,-239 263,-220 334,-220 334,-239"/>
<text text-anchor="middle" x="298.5" y="-227" font-family="Helvetica,sans-Serif" font-size="10.00">ccMacros.h</text>
</a>
</g>
</g>
<!-- Node1&#45;&gt;Node11 -->
<g id="edge20" class="edge">
<title>Node1&#45;&gt;Node11</title>
<path fill="none" stroke="#63b8ff" d="M196.6,-439.93C204.65,-429.61 214.21,-416.53 221.5,-404 252.92,-350 280.03,-280.84 291.98,-248.58"/>
<polygon fill="#63b8ff" stroke="#63b8ff" points="295.29,-249.72 295.44,-239.13 288.72,-247.32 295.29,-249.72"/>
</g>
<!-- Node3 -->
<g id="node3" class="node">
<title>Node3</title>
<g id="a_node3"><a xlink:title=" ">
<polygon fill="#e0e0e0" stroke="#999999" points="189.5,-184 145.5,-184 145.5,-165 189.5,-165 189.5,-184"/>
<text text-anchor="middle" x="167.5" y="-172" font-family="Helvetica,sans-Serif" font-size="10.00">string</text>
</a>
</g>
</g>
<!-- Node2&#45;&gt;Node3 -->
<g id="edge2" class="edge">
<title>Node2&#45;&gt;Node3</title>
<path fill="none" stroke="#63b8ff" d="M190.38,-384.75C198.89,-376.5 210.55,-363.3 215.5,-349 224.86,-321.96 264.87,-338.16 213.5,-220 208.41,-208.3 198.63,-198.14 189.39,-190.49"/>
<polygon fill="#63b8ff" stroke="#63b8ff" points="191.27,-187.52 181.21,-184.21 187.01,-193.08 191.27,-187.52"/>
</g>
<!-- Node2&#45;&gt;Node4 -->
<g id="edge3" class="edge">
<title>Node2&#45;&gt;Node4</title>
<path fill="none" stroke="#63b8ff" d="M163.95,-384.98C147.61,-376.57 122.37,-363.59 103.37,-353.81"/>
<polygon fill="#63b8ff" stroke="#63b8ff" points="104.84,-350.63 94.35,-349.17 101.64,-356.86 104.84,-350.63"/>
</g>
<!-- Node15 -->
<g id="node15" class="node">
<title>Node15</title>
<g id="a_node15"><a xlink:title=" ">
<polygon fill="#e0e0e0" stroke="#999999" points="206.5,-349 154.5,-349 154.5,-330 206.5,-330 206.5,-349"/>
<text text-anchor="middle" x="180.5" y="-337" font-family="Helvetica,sans-Serif" font-size="10.00">CCGL.h</text>
</a>
</g>
</g>
<!-- Node2&#45;&gt;Node15 -->
<g id="edge19" class="edge">
<title>Node2&#45;&gt;Node15</title>
<path fill="none" stroke="#63b8ff" d="M180.5,-384.75C180.5,-377.8 180.5,-367.85 180.5,-359.13"/>
<polygon fill="#63b8ff" stroke="#63b8ff" points="184,-359.09 180.5,-349.09 177,-359.09 184,-359.09"/>
</g>
<!-- Node5 -->
<g id="node5" class="node">
<title>Node5</title>
<g id="a_node5"><a xlink:href="../../d3/d41/_c_c_platform_macros_8h.html" target="_top" xlink:title=" ">
<polygon fill="white" stroke="#666666" points="275,-129 114,-129 114,-110 275,-110 275,-129"/>
<text text-anchor="middle" x="194.5" y="-117" font-family="Helvetica,sans-Serif" font-size="10.00">platform/CCPlatformMacros.h</text>
</a>
</g>
</g>
<!-- Node4&#45;&gt;Node5 -->
<g id="edge4" class="edge">
<title>Node4&#45;&gt;Node5</title>
<path fill="none" stroke="#63b8ff" d="M77.65,-329.75C78.56,-302.15 84.93,-215.73 128.5,-165 139.3,-152.43 154.46,-141.87 167.52,-134.2"/>
<polygon fill="#63b8ff" stroke="#63b8ff" points="169.56,-137.07 176.58,-129.14 166.14,-130.96 169.56,-137.07"/>
</g>
<!-- Node9 -->
<g id="node9" class="node">
<title>Node9</title>
<g id="a_node9"><a xlink:href="../../dd/d69/_c_c_object_8h.html" target="_top" xlink:title=" ">
<polygon fill="white" stroke="#666666" points="193,-294 122,-294 122,-275 193,-275 193,-294"/>
<text text-anchor="middle" x="157.5" y="-282" font-family="Helvetica,sans-Serif" font-size="10.00">CCObject.h</text>
</a>
</g>
</g>
<!-- Node4&#45;&gt;Node9 -->
<g id="edge9" class="edge">
<title>Node4&#45;&gt;Node9</title>
<path fill="none" stroke="#63b8ff" d="M90.35,-329.98C102.64,-321.84 121.41,-309.41 135.98,-299.76"/>
<polygon fill="#63b8ff" stroke="#63b8ff" points="138.01,-302.61 144.41,-294.17 134.14,-296.78 138.01,-302.61"/>
</g>
<!-- Node14 -->
<g id="node14" class="node">
<title>Node14</title>
<g id="a_node14"><a xlink:title=" ">
<polygon fill="#e0e0e0" stroke="#999999" points="51,-294 0,-294 0,-275 51,-275 51,-294"/>
<text text-anchor="middle" x="25.5" y="-282" font-family="Helvetica,sans-Serif" font-size="10.00">math.h</text>
</a>
</g>
</g>
<!-- Node4&#45;&gt;Node14 -->
<g id="edge18" class="edge">
<title>Node4&#45;&gt;Node14</title>
<path fill="none" stroke="#63b8ff" d="M68.91,-329.75C61.34,-322.03 50.12,-310.6 40.99,-301.28"/>
<polygon fill="#63b8ff" stroke="#63b8ff" points="43.43,-298.78 33.93,-294.09 38.43,-303.68 43.43,-298.78"/>
</g>
<!-- Node6 -->
<g id="node6" class="node">
<title>Node6</title>
<g id="a_node6"><a xlink:href="../../db/d9f/cc_config_8h.html" target="_top" xlink:title="cocos2d (cc) configuration file">
<polygon fill="white" stroke="#666666" points="333,-74 266,-74 266,-55 333,-55 333,-74"/>
<text text-anchor="middle" x="299.5" y="-62" font-family="Helvetica,sans-Serif" font-size="10.00">ccConfig.h</text>
</a>
</g>
</g>
<!-- Node5&#45;&gt;Node6 -->
<g id="edge5" class="edge">
<title>Node5&#45;&gt;Node6</title>
<path fill="none" stroke="#63b8ff" d="M211.37,-109.98C228.11,-101.54 254,-88.47 273.39,-78.68"/>
<polygon fill="#63b8ff" stroke="#63b8ff" points="274.97,-81.8 282.32,-74.17 271.82,-75.55 274.97,-81.8"/>
</g>
<!-- Node7 -->
<g id="node7" class="node">
<title>Node7</title>
<g id="a_node7"><a xlink:href="../../dd/d96/_c_c_platform_config_8h.html" target="_top" xlink:title=" ">
<polygon fill="white" stroke="#666666" points="347,-19 190,-19 190,0 347,0 347,-19"/>
<text text-anchor="middle" x="268.5" y="-7" font-family="Helvetica,sans-Serif" font-size="10.00">platform/CCPlatformConfig.h</text>
</a>
</g>
</g>
<!-- Node5&#45;&gt;Node7 -->
<g id="edge7" class="edge">
<title>Node5&#45;&gt;Node7</title>
<path fill="none" stroke="#63b8ff" d="M200.56,-109.66C212.81,-91.77 240.75,-51 256.72,-27.69"/>
<polygon fill="#63b8ff" stroke="#63b8ff" points="259.8,-29.39 262.57,-19.16 254.03,-25.43 259.8,-29.39"/>
</g>
<!-- Node8 -->
<g id="node8" class="node">
<title>Node8</title>
<g id="a_node8"><a xlink:title=" ">
<polygon fill="#e0e0e0" stroke="#999999" points="209,-74 96,-74 96,-55 209,-55 209,-74"/>
<text text-anchor="middle" x="152.5" y="-62" font-family="Helvetica,sans-Serif" font-size="10.00">CCPlatformDefine.h</text>
</a>
</g>
</g>
<!-- Node5&#45;&gt;Node8 -->
<g id="edge8" class="edge">
<title>Node5&#45;&gt;Node8</title>
<path fill="none" stroke="#63b8ff" d="M187.56,-109.75C181.63,-102.26 172.93,-91.28 165.68,-82.13"/>
<polygon fill="#63b8ff" stroke="#63b8ff" points="168.26,-79.75 159.31,-74.09 162.77,-84.1 168.26,-79.75"/>
</g>
<!-- Node6&#45;&gt;Node7 -->
<g id="edge6" class="edge">
<title>Node6&#45;&gt;Node7</title>
<path fill="none" stroke="#63b8ff" d="M294.38,-54.75C290.14,-47.49 283.97,-36.95 278.72,-27.98"/>
<polygon fill="#63b8ff" stroke="#63b8ff" points="281.59,-25.95 273.52,-19.09 275.55,-29.49 281.59,-25.95"/>
</g>
<!-- Node10 -->
<g id="node10" class="node">
<title>Node10</title>
<g id="a_node10"><a xlink:href="../../d9/d2d/_c_c_data_visitor_8h.html" target="_top" xlink:title=" ">
<polygon fill="white" stroke="#666666" points="204,-239 111,-239 111,-220 204,-220 204,-239"/>
<text text-anchor="middle" x="157.5" y="-227" font-family="Helvetica,sans-Serif" font-size="10.00">CCDataVisitor.h</text>
</a>
</g>
</g>
<!-- Node9&#45;&gt;Node10 -->
<g id="edge10" class="edge">
<title>Node9&#45;&gt;Node10</title>
<path fill="none" stroke="#63b8ff" d="M157.5,-274.75C157.5,-267.8 157.5,-257.85 157.5,-249.13"/>
<polygon fill="#63b8ff" stroke="#63b8ff" points="161,-249.09 157.5,-239.09 154,-249.09 161,-249.09"/>
</g>
<!-- Node9&#45;&gt;Node11 -->
<g id="edge13" class="edge">
<title>Node9&#45;&gt;Node11</title>
<path fill="none" stroke="#63b8ff" d="M180.15,-274.98C203.35,-266.27 239.62,-252.63 265.9,-242.75"/>
<polygon fill="#63b8ff" stroke="#63b8ff" points="267.3,-245.97 275.43,-239.17 264.84,-239.41 267.3,-245.97"/>
</g>
<!-- Node10&#45;&gt;Node3 -->
<g id="edge12" class="edge">
<title>Node10&#45;&gt;Node3</title>
<path fill="none" stroke="#63b8ff" d="M159.15,-219.75C160.46,-212.8 162.34,-202.85 163.98,-194.13"/>
<polygon fill="#63b8ff" stroke="#63b8ff" points="167.46,-194.56 165.88,-184.09 160.59,-193.27 167.46,-194.56"/>
</g>
<!-- Node10&#45;&gt;Node5 -->
<g id="edge11" class="edge">
<title>Node10&#45;&gt;Node5</title>
<path fill="none" stroke="#63b8ff" d="M150.6,-219.99C141.39,-207.52 127.26,-183.75 136.5,-165 142.99,-151.85 155.43,-141.5 167.14,-134.11"/>
<polygon fill="#63b8ff" stroke="#63b8ff" points="168.96,-137.1 175.83,-129.03 165.43,-131.05 168.96,-137.1"/>
</g>
<!-- Node11&#45;&gt;Node6 -->
<g id="edge17" class="edge">
<title>Node11&#45;&gt;Node6</title>
<path fill="none" stroke="#63b8ff" d="M334.2,-226.65C363.8,-223.01 404.2,-212.69 424.5,-184 456.1,-139.33 378.66,-97.97 331.92,-78.02"/>
<polygon fill="#63b8ff" stroke="#63b8ff" points="333.04,-74.69 322.46,-74.09 330.35,-81.16 333.04,-74.69"/>
</g>
<!-- Node12 -->
<g id="node12" class="node">
<title>Node12</title>
<g id="a_node12"><a xlink:href="../../d5/d22/_c_c_common_8h.html" target="_top" xlink:title=" ">
<polygon fill="white" stroke="#666666" points="335.5,-184 207.5,-184 207.5,-165 335.5,-165 335.5,-184"/>
<text text-anchor="middle" x="271.5" y="-172" font-family="Helvetica,sans-Serif" font-size="10.00">platform/CCCommon.h</text>
</a>
</g>
</g>
<!-- Node11&#45;&gt;Node12 -->
<g id="edge14" class="edge">
<title>Node11&#45;&gt;Node12</title>
<path fill="none" stroke="#63b8ff" d="M294.04,-219.75C290.38,-212.57 285.09,-202.18 280.55,-193.27"/>
<polygon fill="#63b8ff" stroke="#63b8ff" points="283.53,-191.41 275.88,-184.09 277.3,-194.59 283.53,-191.41"/>
</g>
<!-- Node13 -->
<g id="node13" class="node">
<title>Node13</title>
<g id="a_node13"><a xlink:title=" ">
<polygon fill="#e0e0e0" stroke="#999999" points="415.5,-184 353.5,-184 353.5,-165 415.5,-165 415.5,-184"/>
<text text-anchor="middle" x="384.5" y="-172" font-family="Helvetica,sans-Serif" font-size="10.00">CCStdC.h</text>
</a>
</g>
</g>
<!-- Node11&#45;&gt;Node13 -->
<g id="edge16" class="edge">
<title>Node11&#45;&gt;Node13</title>
<path fill="none" stroke="#63b8ff" d="M312.32,-219.98C325.65,-211.77 346.08,-199.18 361.81,-189.49"/>
<polygon fill="#63b8ff" stroke="#63b8ff" points="363.75,-192.4 370.43,-184.17 360.08,-186.44 363.75,-192.4"/>
</g>
<!-- Node12&#45;&gt;Node5 -->
<g id="edge15" class="edge">
<title>Node12&#45;&gt;Node5</title>
<path fill="none" stroke="#63b8ff" d="M259.13,-164.98C247.41,-156.92 229.58,-144.65 215.61,-135.03"/>
<polygon fill="#63b8ff" stroke="#63b8ff" points="217.32,-131.96 207.1,-129.17 213.35,-137.72 217.32,-131.96"/>
</g>
</g>
</svg>
