<?xml version="1.0" encoding="UTF-8" standalone="no"?>
<!DOCTYPE svg PUBLIC "-//W3C//DTD SVG 1.1//EN"
 "http://www.w3.org/Graphics/SVG/1.1/DTD/svg11.dtd">
<!-- Generated by graphviz version 2.43.0 (0)
 -->
<!-- Title: /home/runner/work/cocos2d.h/cocos2d.h/cocos2dx/platform/winrt/CCFreeTypeFont.h Pages: 1 -->
<svg width="1084pt" height="442pt"
 viewBox="0.00 0.00 1083.50 442.00" xmlns="http://www.w3.org/2000/svg" xmlns:xlink="http://www.w3.org/1999/xlink">
<g id="graph0" class="graph" transform="scale(1 1) rotate(0) translate(4 438)">
<title>/home/runner/work/cocos2d.h/cocos2d.h/cocos2dx/platform/winrt/CCFreeTypeFont.h</title>
<!-- Node1 -->
<g id="node1" class="node">
<title>Node1</title>
<g id="a_node1"><a xlink:title=" ">
<polygon fill="#bfbfbf" stroke="black" points="430,-392.5 430,-433.5 592,-433.5 592,-392.5 430,-392.5"/>
<text text-anchor="start" x="438" y="-421.5" font-family="Helvetica,sans-Serif" font-size="10.00">/home/runner/work/cocos2d.h</text>
<text text-anchor="start" x="438" y="-410.5" font-family="Helvetica,sans-Serif" font-size="10.00">/cocos2d.h/cocos2dx/platform</text>
<text text-anchor="middle" x="511" y="-399.5" font-family="Helvetica,sans-Serif" font-size="10.00">/winrt/CCFreeTypeFont.h</text>
</a>
</g>
</g>
<!-- Node2 -->
<g id="node2" class="node">
<title>Node2</title>
<g id="a_node2"><a xlink:href="../../d5/d22/_c_c_common_8h.html" target="_top" xlink:title=" ">
<polygon fill="none" stroke="black" points="0,-168.5 0,-187.5 128,-187.5 128,-168.5 0,-168.5"/>
<text text-anchor="middle" x="64" y="-175.5" font-family="Helvetica,sans-Serif" font-size="10.00">platform/CCCommon.h</text>
</a>
</g>
</g>
<!-- Node1&#45;&gt;Node2 -->
<g id="edge1" class="edge">
<title>Node1&#45;&gt;Node2</title>
<path fill="none" stroke="midnightblue" d="M429.89,-404.41C349.9,-395.73 234.23,-379.59 196,-356 132.17,-316.6 88.79,-234.02 71.9,-197.29"/>
<polygon fill="midnightblue" stroke="midnightblue" points="74.95,-195.54 67.68,-187.83 68.56,-198.39 74.95,-195.54"/>
</g>
<!-- Node7 -->
<g id="node7" class="node">
<title>Node7</title>
<g id="a_node7"><a xlink:href="../../d8/dce/_c_c_image_8h.html" target="_top" xlink:title=" ">
<polygon fill="none" stroke="black" points="205.5,-336.5 205.5,-355.5 320.5,-355.5 320.5,-336.5 205.5,-336.5"/>
<text text-anchor="middle" x="263" y="-343.5" font-family="Helvetica,sans-Serif" font-size="10.00">platform/CCImage.h</text>
</a>
</g>
</g>
<!-- Node1&#45;&gt;Node7 -->
<g id="edge7" class="edge">
<title>Node1&#45;&gt;Node7</title>
<path fill="none" stroke="midnightblue" d="M436.59,-392.5C393.69,-381.25 341.29,-367.52 305.36,-358.1"/>
<polygon fill="midnightblue" stroke="midnightblue" points="306.25,-354.72 295.69,-355.57 304.47,-361.49 306.25,-354.72"/>
</g>
<!-- Node10 -->
<g id="node10" class="node">
<title>Node10</title>
<g id="a_node10"><a xlink:title=" ">
<polygon fill="none" stroke="#bfbfbf" points="315,-168.5 315,-187.5 359,-187.5 359,-168.5 315,-168.5"/>
<text text-anchor="middle" x="337" y="-175.5" font-family="Helvetica,sans-Serif" font-size="10.00">string</text>
</a>
</g>
</g>
<!-- Node1&#45;&gt;Node10 -->
<g id="edge16" class="edge">
<title>Node1&#45;&gt;Node10</title>
<path fill="none" stroke="midnightblue" d="M429.87,-395.71C407.15,-387.38 384.46,-374.85 369,-356 330.92,-309.58 331.99,-233.05 334.88,-197.82"/>
<polygon fill="midnightblue" stroke="midnightblue" points="338.4,-197.85 335.88,-187.56 331.43,-197.17 338.4,-197.85"/>
</g>
<!-- Node13 -->
<g id="node13" class="node">
<title>Node13</title>
<g id="a_node13"><a xlink:title=" ">
<polygon fill="none" stroke="#bfbfbf" points="377.5,-336.5 377.5,-355.5 424.5,-355.5 424.5,-336.5 377.5,-336.5"/>
<text text-anchor="middle" x="401" y="-343.5" font-family="Helvetica,sans-Serif" font-size="10.00">vector</text>
</a>
</g>
</g>
<!-- Node1&#45;&gt;Node13 -->
<g id="edge17" class="edge">
<title>Node1&#45;&gt;Node13</title>
<path fill="none" stroke="midnightblue" d="M478,-392.5C460.81,-382.34 440.19,-370.16 424.61,-360.95"/>
<polygon fill="midnightblue" stroke="midnightblue" points="426.03,-357.73 415.64,-355.65 422.47,-363.75 426.03,-357.73"/>
</g>
<!-- Node14 -->
<g id="node14" class="node">
<title>Node14</title>
<g id="a_node14"><a xlink:title=" ">
<polygon fill="none" stroke="#bfbfbf" points="443,-336.5 443,-355.5 501,-355.5 501,-336.5 443,-336.5"/>
<text text-anchor="middle" x="472" y="-343.5" font-family="Helvetica,sans-Serif" font-size="10.00">memory</text>
</a>
</g>
</g>
<!-- Node1&#45;&gt;Node14 -->
<g id="edge18" class="edge">
<title>Node1&#45;&gt;Node14</title>
<path fill="none" stroke="midnightblue" d="M499.3,-392.5C493.95,-383.59 487.67,-373.11 482.48,-364.46"/>
<polygon fill="midnightblue" stroke="midnightblue" points="485.34,-362.43 477.19,-355.65 479.34,-366.03 485.34,-362.43"/>
</g>
<!-- Node15 -->
<g id="node15" class="node">
<title>Node15</title>
<g id="a_node15"><a xlink:title=" ">
<polygon fill="none" stroke="#bfbfbf" points="519,-336.5 519,-355.5 581,-355.5 581,-336.5 519,-336.5"/>
<text text-anchor="middle" x="550" y="-343.5" font-family="Helvetica,sans-Serif" font-size="10.00">ft2build.h</text>
</a>
</g>
</g>
<!-- Node1&#45;&gt;Node15 -->
<g id="edge19" class="edge">
<title>Node1&#45;&gt;Node15</title>
<path fill="none" stroke="midnightblue" d="M522.7,-392.5C528.05,-383.59 534.33,-373.11 539.52,-364.46"/>
<polygon fill="midnightblue" stroke="midnightblue" points="542.66,-366.03 544.81,-355.65 536.66,-362.43 542.66,-366.03"/>
</g>
<!-- Node16 -->
<g id="node16" class="node">
<title>Node16</title>
<g id="a_node16"><a xlink:title=" ">
<polygon fill="none" stroke="#bfbfbf" points="599.5,-336.5 599.5,-355.5 710.5,-355.5 710.5,-336.5 599.5,-336.5"/>
<text text-anchor="middle" x="655" y="-343.5" font-family="Helvetica,sans-Serif" font-size="10.00">freetype/freetype.h</text>
</a>
</g>
</g>
<!-- Node1&#45;&gt;Node16 -->
<g id="edge20" class="edge">
<title>Node1&#45;&gt;Node16</title>
<path fill="none" stroke="midnightblue" d="M554.2,-392.5C577.66,-381.91 606,-369.12 626.65,-359.8"/>
<polygon fill="midnightblue" stroke="midnightblue" points="628.16,-362.96 635.83,-355.65 625.28,-356.58 628.16,-362.96"/>
</g>
<!-- Node17 -->
<g id="node17" class="node">
<title>Node17</title>
<g id="a_node17"><a xlink:title=" ">
<polygon fill="none" stroke="#bfbfbf" points="729,-336.5 729,-355.5 833,-355.5 833,-336.5 729,-336.5"/>
<text text-anchor="middle" x="781" y="-343.5" font-family="Helvetica,sans-Serif" font-size="10.00">freetype/ftglyph.h</text>
</a>
</g>
</g>
<!-- Node1&#45;&gt;Node17 -->
<g id="edge21" class="edge">
<title>Node1&#45;&gt;Node17</title>
<path fill="none" stroke="midnightblue" d="M592.01,-392.5C639.02,-381.18 696.49,-367.34 735.63,-357.92"/>
<polygon fill="midnightblue" stroke="midnightblue" points="736.51,-361.31 745.41,-355.57 734.87,-354.5 736.51,-361.31"/>
</g>
<!-- Node18 -->
<g id="node18" class="node">
<title>Node18</title>
<g id="a_node18"><a xlink:title=" ">
<polygon fill="none" stroke="#bfbfbf" points="851.5,-336.5 851.5,-355.5 952.5,-355.5 952.5,-336.5 851.5,-336.5"/>
<text text-anchor="middle" x="902" y="-343.5" font-family="Helvetica,sans-Serif" font-size="10.00">freetype/ftoutln.h</text>
</a>
</g>
</g>
<!-- Node1&#45;&gt;Node18 -->
<g id="edge22" class="edge">
<title>Node1&#45;&gt;Node18</title>
<path fill="none" stroke="midnightblue" d="M592.02,-398.53C666.27,-386.19 774.54,-368.19 841.51,-357.06"/>
<polygon fill="midnightblue" stroke="midnightblue" points="842.2,-360.49 851.49,-355.4 841.05,-353.58 842.2,-360.49"/>
</g>
<!-- Node19 -->
<g id="node19" class="node">
<title>Node19</title>
<g id="a_node19"><a xlink:title=" ">
<polygon fill="none" stroke="#bfbfbf" points="970.5,-336.5 970.5,-355.5 1075.5,-355.5 1075.5,-336.5 970.5,-336.5"/>
<text text-anchor="middle" x="1023" y="-343.5" font-family="Helvetica,sans-Serif" font-size="10.00">freetype/fttrigon.h</text>
</a>
</g>
</g>
<!-- Node1&#45;&gt;Node19 -->
<g id="edge23" class="edge">
<title>Node1&#45;&gt;Node19</title>
<path fill="none" stroke="midnightblue" d="M592.14,-402.49C680.27,-392.04 825.5,-374.43 960.34,-356.2"/>
<polygon fill="midnightblue" stroke="midnightblue" points="961,-359.65 970.44,-354.83 960.06,-352.71 961,-359.65"/>
</g>
<!-- Node3 -->
<g id="node3" class="node">
<title>Node3</title>
<g id="a_node3"><a xlink:href="../../d3/d41/_c_c_platform_macros_8h.html" target="_top" xlink:title=" ">
<polygon fill="none" stroke="black" points="70,-112.5 70,-131.5 186,-131.5 186,-112.5 70,-112.5"/>
<text text-anchor="middle" x="128" y="-119.5" font-family="Helvetica,sans-Serif" font-size="10.00">CCPlatformMacros.h</text>
</a>
</g>
</g>
<!-- Node2&#45;&gt;Node3 -->
<g id="edge2" class="edge">
<title>Node2&#45;&gt;Node3</title>
<path fill="none" stroke="midnightblue" d="M74.28,-168.32C83.84,-160.26 98.28,-148.08 109.78,-138.37"/>
<polygon fill="midnightblue" stroke="midnightblue" points="112.14,-140.96 117.53,-131.83 107.63,-135.61 112.14,-140.96"/>
</g>
<!-- Node4 -->
<g id="node4" class="node">
<title>Node4</title>
<g id="a_node4"><a xlink:href="../../db/d9f/cc_config_8h.html" target="_top" xlink:title="cocos2d (cc) configuration file">
<polygon fill="none" stroke="black" points="202.5,-56.5 202.5,-75.5 269.5,-75.5 269.5,-56.5 202.5,-56.5"/>
<text text-anchor="middle" x="236" y="-63.5" font-family="Helvetica,sans-Serif" font-size="10.00">ccConfig.h</text>
</a>
</g>
</g>
<!-- Node3&#45;&gt;Node4 -->
<g id="edge3" class="edge">
<title>Node3&#45;&gt;Node4</title>
<path fill="none" stroke="midnightblue" d="M145.35,-112.32C162.67,-103.66 189.52,-90.24 209.5,-80.25"/>
<polygon fill="midnightblue" stroke="midnightblue" points="211.31,-83.26 218.69,-75.65 208.18,-77 211.31,-83.26"/>
</g>
<!-- Node5 -->
<g id="node5" class="node">
<title>Node5</title>
<g id="a_node5"><a xlink:href="../../dd/d96/_c_c_platform_config_8h.html" target="_top" xlink:title=" ">
<polygon fill="none" stroke="black" points="60.5,-0.5 60.5,-19.5 217.5,-19.5 217.5,-0.5 60.5,-0.5"/>
<text text-anchor="middle" x="139" y="-7.5" font-family="Helvetica,sans-Serif" font-size="10.00">platform/CCPlatformConfig.h</text>
</a>
</g>
</g>
<!-- Node3&#45;&gt;Node5 -->
<g id="edge5" class="edge">
<title>Node3&#45;&gt;Node5</title>
<path fill="none" stroke="midnightblue" d="M106.9,-112.35C82.76,-101.09 48.23,-79.99 62,-56 70.62,-40.99 86.39,-30.5 101.43,-23.46"/>
<polygon fill="midnightblue" stroke="midnightblue" points="102.82,-26.67 110.63,-19.51 100.06,-20.24 102.82,-26.67"/>
</g>
<!-- Node6 -->
<g id="node6" class="node">
<title>Node6</title>
<g id="a_node6"><a xlink:title=" ">
<polygon fill="none" stroke="#bfbfbf" points="71.5,-56.5 71.5,-75.5 184.5,-75.5 184.5,-56.5 71.5,-56.5"/>
<text text-anchor="middle" x="128" y="-63.5" font-family="Helvetica,sans-Serif" font-size="10.00">CCPlatformDefine.h</text>
</a>
</g>
</g>
<!-- Node3&#45;&gt;Node6 -->
<g id="edge6" class="edge">
<title>Node3&#45;&gt;Node6</title>
<path fill="none" stroke="midnightblue" d="M128,-112.08C128,-105.01 128,-94.86 128,-85.99"/>
<polygon fill="midnightblue" stroke="midnightblue" points="131.5,-85.75 128,-75.75 124.5,-85.75 131.5,-85.75"/>
</g>
<!-- Node4&#45;&gt;Node5 -->
<g id="edge4" class="edge">
<title>Node4&#45;&gt;Node5</title>
<path fill="none" stroke="midnightblue" d="M220.42,-56.32C205,-47.74 181.19,-34.49 163.29,-24.52"/>
<polygon fill="midnightblue" stroke="midnightblue" points="164.99,-21.46 154.55,-19.65 161.58,-27.58 164.99,-21.46"/>
</g>
<!-- Node8 -->
<g id="node8" class="node">
<title>Node8</title>
<g id="a_node8"><a xlink:href="../../dd/d69/_c_c_object_8h.html" target="_top" xlink:title=" ">
<polygon fill="none" stroke="black" points="212,-280.5 212,-299.5 314,-299.5 314,-280.5 212,-280.5"/>
<text text-anchor="middle" x="263" y="-287.5" font-family="Helvetica,sans-Serif" font-size="10.00">cocoa/CCObject.h</text>
</a>
</g>
</g>
<!-- Node7&#45;&gt;Node8 -->
<g id="edge8" class="edge">
<title>Node7&#45;&gt;Node8</title>
<path fill="none" stroke="midnightblue" d="M263,-336.08C263,-329.01 263,-318.86 263,-309.99"/>
<polygon fill="midnightblue" stroke="midnightblue" points="266.5,-309.75 263,-299.75 259.5,-309.75 266.5,-309.75"/>
</g>
<!-- Node9 -->
<g id="node9" class="node">
<title>Node9</title>
<g id="a_node9"><a xlink:href="../../d9/d2d/_c_c_data_visitor_8h.html" target="_top" xlink:title=" ">
<polygon fill="none" stroke="black" points="227.5,-224.5 227.5,-243.5 320.5,-243.5 320.5,-224.5 227.5,-224.5"/>
<text text-anchor="middle" x="274" y="-231.5" font-family="Helvetica,sans-Serif" font-size="10.00">CCDataVisitor.h</text>
</a>
</g>
</g>
<!-- Node8&#45;&gt;Node9 -->
<g id="edge9" class="edge">
<title>Node8&#45;&gt;Node9</title>
<path fill="none" stroke="midnightblue" d="M264.82,-280.08C266.27,-272.93 268.37,-262.64 270.19,-253.69"/>
<polygon fill="midnightblue" stroke="midnightblue" points="273.65,-254.25 272.22,-243.75 266.79,-252.85 273.65,-254.25"/>
</g>
<!-- Node11 -->
<g id="node11" class="node">
<title>Node11</title>
<g id="a_node11"><a xlink:href="../../d9/dc8/cc_macros_8h.html" target="_top" xlink:title=" ">
<polygon fill="none" stroke="black" points="138.5,-224.5 138.5,-243.5 209.5,-243.5 209.5,-224.5 138.5,-224.5"/>
<text text-anchor="middle" x="174" y="-231.5" font-family="Helvetica,sans-Serif" font-size="10.00">ccMacros.h</text>
</a>
</g>
</g>
<!-- Node8&#45;&gt;Node11 -->
<g id="edge12" class="edge">
<title>Node8&#45;&gt;Node11</title>
<path fill="none" stroke="midnightblue" d="M248.7,-280.32C234.82,-271.9 213.51,-258.97 197.2,-249.07"/>
<polygon fill="midnightblue" stroke="midnightblue" points="198.63,-245.85 188.26,-243.65 195,-251.83 198.63,-245.85"/>
</g>
<!-- Node9&#45;&gt;Node3 -->
<g id="edge10" class="edge">
<title>Node9&#45;&gt;Node3</title>
<path fill="none" stroke="midnightblue" d="M268.19,-224.48C258.72,-211.1 238.83,-184.92 217,-168 199.68,-154.57 177.73,-143.42 159.97,-135.58"/>
<polygon fill="midnightblue" stroke="midnightblue" points="161.15,-132.28 150.58,-131.57 158.4,-138.72 161.15,-132.28"/>
</g>
<!-- Node9&#45;&gt;Node10 -->
<g id="edge11" class="edge">
<title>Node9&#45;&gt;Node10</title>
<path fill="none" stroke="midnightblue" d="M284.12,-224.32C293.53,-216.26 307.74,-204.08 319.07,-194.37"/>
<polygon fill="midnightblue" stroke="midnightblue" points="321.38,-197 326.69,-187.83 316.82,-191.68 321.38,-197"/>
</g>
<!-- Node11&#45;&gt;Node2 -->
<g id="edge13" class="edge">
<title>Node11&#45;&gt;Node2</title>
<path fill="none" stroke="midnightblue" d="M156.33,-224.32C138.61,-215.62 111.1,-202.12 90.71,-192.11"/>
<polygon fill="midnightblue" stroke="midnightblue" points="92.15,-188.92 81.63,-187.65 89.06,-195.2 92.15,-188.92"/>
</g>
<!-- Node11&#45;&gt;Node4 -->
<g id="edge15" class="edge">
<title>Node11&#45;&gt;Node4</title>
<path fill="none" stroke="midnightblue" d="M185.53,-224.37C195.56,-216.17 209.62,-202.92 217,-188 233.44,-154.76 236.3,-110.66 236.45,-85.92"/>
<polygon fill="midnightblue" stroke="midnightblue" points="239.95,-85.71 236.36,-75.74 232.95,-85.77 239.95,-85.71"/>
</g>
<!-- Node12 -->
<g id="node12" class="node">
<title>Node12</title>
<g id="a_node12"><a xlink:title=" ">
<polygon fill="none" stroke="#bfbfbf" points="146,-168.5 146,-187.5 208,-187.5 208,-168.5 146,-168.5"/>
<text text-anchor="middle" x="177" y="-175.5" font-family="Helvetica,sans-Serif" font-size="10.00">CCStdC.h</text>
</a>
</g>
</g>
<!-- Node11&#45;&gt;Node12 -->
<g id="edge14" class="edge">
<title>Node11&#45;&gt;Node12</title>
<path fill="none" stroke="midnightblue" d="M174.5,-224.08C174.89,-217.01 175.45,-206.86 175.95,-197.99"/>
<polygon fill="midnightblue" stroke="midnightblue" points="179.45,-197.93 176.51,-187.75 172.46,-197.54 179.45,-197.93"/>
</g>
</g>
</svg>
