<?xml version="1.0" encoding="UTF-8" standalone="no"?>
<!DOCTYPE svg PUBLIC "-//W3C//DTD SVG 1.1//EN"
 "http://www.w3.org/Graphics/SVG/1.1/DTD/svg11.dtd">
<!-- Generated by graphviz version 2.43.0 (0)
 -->
<!-- Title: /home/runner/work/cocos2d.h/cocos2d.h/cocos2dx/support/component/CCComponent.h Pages: 1 -->
<svg width="414pt" height="379pt"
 viewBox="0.00 0.00 414.00 379.00" xmlns="http://www.w3.org/2000/svg" xmlns:xlink="http://www.w3.org/1999/xlink">
<g id="graph0" class="graph" transform="scale(1 1) rotate(0) translate(4 375)">
<title>/home/runner/work/cocos2d.h/cocos2d.h/cocos2dx/support/component/CCComponent.h</title>
<!-- Node1 -->
<g id="node1" class="node">
<title>Node1</title>
<g id="a_node1"><a xlink:title=" ">
<polygon fill="#999999" stroke="#666666" points="406,-371 245,-371 245,-330 406,-330 406,-371"/>
<text text-anchor="start" x="253" y="-359" font-family="Helvetica,sans-Serif" font-size="10.00">/home/runner/work/cocos2d.h</text>
<text text-anchor="start" x="253" y="-348" font-family="Helvetica,sans-Serif" font-size="10.00">/cocos2d.h/cocos2dx/support</text>
<text text-anchor="middle" x="325.5" y="-337" font-family="Helvetica,sans-Serif" font-size="10.00">/component/CCComponent.h</text>
</a>
</g>
</g>
<!-- Node2 -->
<g id="node2" class="node">
<title>Node2</title>
<g id="a_node2"><a xlink:href="../../dd/d69/_c_c_object_8h.html" target="_top" xlink:title=" ">
<polygon fill="white" stroke="#666666" points="337.5,-294 235.5,-294 235.5,-275 337.5,-275 337.5,-294"/>
<text text-anchor="middle" x="286.5" y="-282" font-family="Helvetica,sans-Serif" font-size="10.00">cocoa/CCObject.h</text>
</a>
</g>
</g>
<!-- Node1&#45;&gt;Node2 -->
<g id="edge1" class="edge">
<title>Node1&#45;&gt;Node2</title>
<path fill="none" stroke="#63b8ff" d="M313.59,-329.95C308.31,-321.3 302.16,-311.2 297.06,-302.82"/>
<polygon fill="#63b8ff" stroke="#63b8ff" points="300.03,-300.98 291.84,-294.26 294.05,-304.62 300.03,-300.98"/>
</g>
<!-- Node8 -->
<g id="node8" class="node">
<title>Node8</title>
<g id="a_node8"><a xlink:title=" ">
<polygon fill="#e0e0e0" stroke="#999999" points="381.5,-184 337.5,-184 337.5,-165 381.5,-165 381.5,-184"/>
<text text-anchor="middle" x="359.5" y="-172" font-family="Helvetica,sans-Serif" font-size="10.00">string</text>
</a>
</g>
</g>
<!-- Node1&#45;&gt;Node8 -->
<g id="edge14" class="edge">
<title>Node1&#45;&gt;Node8</title>
<path fill="none" stroke="#63b8ff" d="M334.33,-329.85C338.66,-319.4 343.57,-306.22 346.5,-294 354.8,-259.41 357.81,-217.85 358.9,-194.27"/>
<polygon fill="#63b8ff" stroke="#63b8ff" points="362.4,-194.38 359.29,-184.25 355.4,-194.11 362.4,-194.38"/>
</g>
<!-- Node3 -->
<g id="node3" class="node">
<title>Node3</title>
<g id="a_node3"><a xlink:href="../../d9/d2d/_c_c_data_visitor_8h.html" target="_top" xlink:title=" ">
<polygon fill="white" stroke="#666666" points="337,-239 244,-239 244,-220 337,-220 337,-239"/>
<text text-anchor="middle" x="290.5" y="-227" font-family="Helvetica,sans-Serif" font-size="10.00">CCDataVisitor.h</text>
</a>
</g>
</g>
<!-- Node2&#45;&gt;Node3 -->
<g id="edge2" class="edge">
<title>Node2&#45;&gt;Node3</title>
<path fill="none" stroke="#63b8ff" d="M287.16,-274.75C287.68,-267.8 288.44,-257.85 289.09,-249.13"/>
<polygon fill="#63b8ff" stroke="#63b8ff" points="292.59,-249.32 289.85,-239.09 285.61,-248.8 292.59,-249.32"/>
</g>
<!-- Node9 -->
<g id="node9" class="node">
<title>Node9</title>
<g id="a_node9"><a xlink:href="../../d9/dc8/cc_macros_8h.html" target="_top" xlink:title=" ">
<polygon fill="white" stroke="#666666" points="197,-239 126,-239 126,-220 197,-220 197,-239"/>
<text text-anchor="middle" x="161.5" y="-227" font-family="Helvetica,sans-Serif" font-size="10.00">ccMacros.h</text>
</a>
</g>
</g>
<!-- Node2&#45;&gt;Node9 -->
<g id="edge9" class="edge">
<title>Node2&#45;&gt;Node9</title>
<path fill="none" stroke="#63b8ff" d="M266.42,-274.98C246.13,-266.38 214.54,-252.99 191.33,-243.15"/>
<polygon fill="#63b8ff" stroke="#63b8ff" points="192.52,-239.85 181.95,-239.17 189.79,-246.3 192.52,-239.85"/>
</g>
<!-- Node4 -->
<g id="node4" class="node">
<title>Node4</title>
<g id="a_node4"><a xlink:href="../../d3/d41/_c_c_platform_macros_8h.html" target="_top" xlink:title=" ">
<polygon fill="white" stroke="#666666" points="223,-129 62,-129 62,-110 223,-110 223,-129"/>
<text text-anchor="middle" x="142.5" y="-117" font-family="Helvetica,sans-Serif" font-size="10.00">platform/CCPlatformMacros.h</text>
</a>
</g>
</g>
<!-- Node3&#45;&gt;Node4 -->
<g id="edge3" class="edge">
<title>Node3&#45;&gt;Node4</title>
<path fill="none" stroke="#63b8ff" d="M291.42,-219.94C292.36,-206.53 292.12,-180.51 278.5,-165 264.28,-148.81 244.07,-138.48 223.58,-131.9"/>
<polygon fill="#63b8ff" stroke="#63b8ff" points="224.42,-128.5 213.84,-129.05 222.45,-135.22 224.42,-128.5"/>
</g>
<!-- Node3&#45;&gt;Node8 -->
<g id="edge8" class="edge">
<title>Node3&#45;&gt;Node8</title>
<path fill="none" stroke="#63b8ff" d="M301.59,-219.98C311.99,-212 327.76,-199.88 340.22,-190.31"/>
<polygon fill="#63b8ff" stroke="#63b8ff" points="342.41,-193.04 348.21,-184.17 338.15,-187.49 342.41,-193.04"/>
</g>
<!-- Node5 -->
<g id="node5" class="node">
<title>Node5</title>
<g id="a_node5"><a xlink:href="../../db/d9f/cc_config_8h.html" target="_top" xlink:title="cocos2d (cc) configuration file">
<polygon fill="white" stroke="#666666" points="67,-74 0,-74 0,-55 67,-55 67,-74"/>
<text text-anchor="middle" x="33.5" y="-62" font-family="Helvetica,sans-Serif" font-size="10.00">ccConfig.h</text>
</a>
</g>
</g>
<!-- Node4&#45;&gt;Node5 -->
<g id="edge4" class="edge">
<title>Node4&#45;&gt;Node5</title>
<path fill="none" stroke="#63b8ff" d="M124.99,-109.98C107.53,-101.5 80.49,-88.35 60.33,-78.54"/>
<polygon fill="#63b8ff" stroke="#63b8ff" points="61.86,-75.4 51.33,-74.17 58.79,-81.69 61.86,-75.4"/>
</g>
<!-- Node6 -->
<g id="node6" class="node">
<title>Node6</title>
<g id="a_node6"><a xlink:href="../../dd/d96/_c_c_platform_config_8h.html" target="_top" xlink:title=" ">
<polygon fill="white" stroke="#666666" points="208,-19 51,-19 51,0 208,0 208,-19"/>
<text text-anchor="middle" x="129.5" y="-7" font-family="Helvetica,sans-Serif" font-size="10.00">platform/CCPlatformConfig.h</text>
</a>
</g>
</g>
<!-- Node4&#45;&gt;Node6 -->
<g id="edge6" class="edge">
<title>Node4&#45;&gt;Node6</title>
<path fill="none" stroke="#63b8ff" d="M163.41,-109.81C186.83,-98.73 219.88,-78.18 206.5,-55 198.08,-40.41 182.85,-30.17 168.15,-23.23"/>
<polygon fill="#63b8ff" stroke="#63b8ff" points="169.21,-19.87 158.64,-19.13 166.43,-26.3 169.21,-19.87"/>
</g>
<!-- Node7 -->
<g id="node7" class="node">
<title>Node7</title>
<g id="a_node7"><a xlink:title=" ">
<polygon fill="#e0e0e0" stroke="#999999" points="198,-74 85,-74 85,-55 198,-55 198,-74"/>
<text text-anchor="middle" x="141.5" y="-62" font-family="Helvetica,sans-Serif" font-size="10.00">CCPlatformDefine.h</text>
</a>
</g>
</g>
<!-- Node4&#45;&gt;Node7 -->
<g id="edge7" class="edge">
<title>Node4&#45;&gt;Node7</title>
<path fill="none" stroke="#63b8ff" d="M142.33,-109.75C142.2,-102.8 142.02,-92.85 141.85,-84.13"/>
<polygon fill="#63b8ff" stroke="#63b8ff" points="145.35,-84.02 141.66,-74.09 138.35,-84.15 145.35,-84.02"/>
</g>
<!-- Node5&#45;&gt;Node6 -->
<g id="edge5" class="edge">
<title>Node5&#45;&gt;Node6</title>
<path fill="none" stroke="#63b8ff" d="M48.92,-54.98C63.95,-46.69 87.04,-33.94 104.66,-24.22"/>
<polygon fill="#63b8ff" stroke="#63b8ff" points="106.73,-27.07 113.8,-19.17 103.35,-20.94 106.73,-27.07"/>
</g>
<!-- Node9&#45;&gt;Node5 -->
<g id="edge13" class="edge">
<title>Node9&#45;&gt;Node5</title>
<path fill="none" stroke="#63b8ff" d="M125.86,-223.23C101.45,-217.7 70.36,-206.49 52.5,-184 29.58,-155.13 29.26,-109.57 31.26,-84.18"/>
<polygon fill="#63b8ff" stroke="#63b8ff" points="34.76,-84.36 32.26,-74.06 27.79,-83.67 34.76,-84.36"/>
</g>
<!-- Node10 -->
<g id="node10" class="node">
<title>Node10</title>
<g id="a_node10"><a xlink:href="../../d5/d22/_c_c_common_8h.html" target="_top" xlink:title=" ">
<polygon fill="white" stroke="#666666" points="189.5,-184 61.5,-184 61.5,-165 189.5,-165 189.5,-184"/>
<text text-anchor="middle" x="125.5" y="-172" font-family="Helvetica,sans-Serif" font-size="10.00">platform/CCCommon.h</text>
</a>
</g>
</g>
<!-- Node9&#45;&gt;Node10 -->
<g id="edge10" class="edge">
<title>Node9&#45;&gt;Node10</title>
<path fill="none" stroke="#63b8ff" d="M155.56,-219.75C150.52,-212.34 143.16,-201.5 136.99,-192.41"/>
<polygon fill="#63b8ff" stroke="#63b8ff" points="139.85,-190.39 131.33,-184.09 134.06,-194.33 139.85,-190.39"/>
</g>
<!-- Node11 -->
<g id="node11" class="node">
<title>Node11</title>
<g id="a_node11"><a xlink:title=" ">
<polygon fill="#e0e0e0" stroke="#999999" points="269.5,-184 207.5,-184 207.5,-165 269.5,-165 269.5,-184"/>
<text text-anchor="middle" x="238.5" y="-172" font-family="Helvetica,sans-Serif" font-size="10.00">CCStdC.h</text>
</a>
</g>
</g>
<!-- Node9&#45;&gt;Node11 -->
<g id="edge12" class="edge">
<title>Node9&#45;&gt;Node11</title>
<path fill="none" stroke="#63b8ff" d="M173.87,-219.98C185.59,-211.92 203.42,-199.65 217.39,-190.03"/>
<polygon fill="#63b8ff" stroke="#63b8ff" points="219.65,-192.72 225.9,-184.17 215.68,-186.96 219.65,-192.72"/>
</g>
<!-- Node10&#45;&gt;Node4 -->
<g id="edge11" class="edge">
<title>Node10&#45;&gt;Node4</title>
<path fill="none" stroke="#63b8ff" d="M128.31,-164.75C130.56,-157.72 133.8,-147.62 136.62,-138.84"/>
<polygon fill="#63b8ff" stroke="#63b8ff" points="140.02,-139.68 139.75,-129.09 133.36,-137.54 140.02,-139.68"/>
</g>
</g>
</svg>
